<?xml version="1.0" encoding="UTF-8"?>
<svg height="900" version="1.1" width="1600" xmlns="http://www.w3.org/2000/svg" xmlns:xlink="http://www.w3.org/1999/xlink">
 <path d="M0,0 l1600,0 l0,900 l-1600,0 Z M0,0" fill="rgb(0,0,0)" transform="matrix(1,0,0,-1,0,900)"/>
 <path d="M0,0 l1600,0 l0,900 l-1600,0 Z M0,0" fill="rgb(255,255,255)" fill-opacity="0.0" stroke="rgb(0,255,0)" stroke-width="2" transform="matrix(1,0,0,-1,0,900)"/>
 <path d="M0,0 l800,0 l0,900 l-800,0 Z M0,0" fill="rgb(0,12,0)" fill-opacity="0.25" stroke="rgb(0,255,0)" stroke-width="2" transform="matrix(1,0,0,-1,0,900)"/>
 <path d="M0,0 l800,0 l0,900 l-800,0 Z M0,0" fill="rgb(0,12,0)" fill-opacity="0.25" stroke="rgb(0,255,0)" stroke-width="2" transform="matrix(-1.0,-1.2246467991473532e-16,-1.2246467991473532e-16,1.0,1600.0,1.1368683772161603e-13)"/>
 <path d="M0,0 l800,0 l0,450 l-800,0 Z M0,0" fill="rgb(0,17,255)" fill-opacity="0.25" stroke="rgb(0,255,255)" stroke-width="2" transform="matrix(1,0,0,-1,0,900)"/>
 <path d="M0,0 l800,0 l0,450 l-800,0 Z M0,0" fill="rgb(0,17,255)" fill-opacity="0.25" stroke="rgb(0,255,255)" stroke-width="2" transform="matrix(-1.0,-1.2246467991473532e-16,-1.2246467991473532e-16,1.0,1600.0,1.1368683772161603e-13)"/>
 <path d="M0,0 l400,0 l0,450 l-400,0 Z M0,0" fill="rgb(0,29,0)" fill-opacity="0.25" stroke="rgb(0,255,0)" stroke-width="2" transform="matrix(1,0,0,-1,0,900)"/>
 <path d="M0,0 l400,0 l0,450 l-400,0 Z M0,0" fill="rgb(0,29,0)" fill-opacity="0.25" stroke="rgb(0,255,0)" stroke-width="2" transform="matrix(-1.0,-1.2246467991473532e-16,-1.2246467991473532e-16,1.0,1600.0,1.1368683772161603e-13)"/>
 <path d="M0,0 l400,0 l0,225 l-400,0 Z M0,0" fill="rgb(0,39,255)" fill-opacity="0.25" stroke="rgb(0,255,255)" stroke-width="2" transform="matrix(1,0,0,-1,0,900)"/>
 <path d="M0,0 l400,0 l0,225 l-400,0 Z M0,0" fill="rgb(0,39,255)" fill-opacity="0.25" stroke="rgb(0,255,255)" stroke-width="2" transform="matrix(-1.0,-1.2246467991473532e-16,-1.2246467991473532e-16,1.0,1600.0,1.1368683772161603e-13)"/>
 <path d="M0,0 l200,0 l0,225 l-200,0 Z M0,0" fill="rgb(0,46,0)" fill-opacity="0.25" stroke="rgb(0,255,0)" stroke-width="2" transform="matrix(1,0,0,-1,0,900)"/>
 <path d="M0,0 l200,0 l0,225 l-200,0 Z M0,0" fill="rgb(0,46,0)" fill-opacity="0.25" stroke="rgb(0,255,0)" stroke-width="2" transform="matrix(-1.0,-1.2246467991473532e-16,-1.2246467991473532e-16,1.0,1600.0,1.1368683772161603e-13)"/>
 <path d="M0,0 l200,0 l0,112.5 l-200,0 Z M0,0" fill="rgb(0,62,255)" fill-opacity="0.25" stroke="rgb(0,255,255)" stroke-width="2" transform="matrix(1,0,0,-1,0,900)"/>
 <path d="M0,0 l200,0 l0,112.5 l-200,0 Z M0,0" fill="rgb(0,62,255)" fill-opacity="0.25" stroke="rgb(0,255,255)" stroke-width="2" transform="matrix(-1.0,-1.2246467991473532e-16,-1.2246467991473532e-16,1.0,1600.0,1.1368683772161603e-13)"/>
 <path d="M0,0 l100,0 l0,112.5 l-100,0 Z M0,0" fill="rgb(0,63,0)" fill-opacity="0.25" stroke="rgb(0,255,0)" stroke-width="2" transform="matrix(1,0,0,-1,0,900)"/>
 <path d="M0,0 l100,0 l0,112.5 l-100,0 Z M0,0" fill="rgb(0,63,0)" fill-opacity="0.25" stroke="rgb(0,255,0)" stroke-width="2" transform="matrix(-1.0,-1.2246467991473532e-16,-1.2246467991473532e-16,1.0,1600.0,1.1368683772161603e-13)"/>
 <path d="M0,0 l100,0 l0,56.25 l-100,0 Z M0,0" fill="rgb(0,85,255)" fill-opacity="0.25" stroke="rgb(0,255,255)" stroke-width="2" transform="matrix(1,0,0,-1,0,900)"/>
 <path d="M0,0 l100,0 l0,56.25 l-100,0 Z M0,0" fill="rgb(0,85,255)" fill-opacity="0.25" stroke="rgb(0,255,255)" stroke-width="2" transform="matrix(-1.0,-1.2246467991473532e-16,-1.2246467991473532e-16,1.0,1600.0,1.1368683772161603e-13)"/>
 <path d="M0,0 l50,0 l0,56.25 l-50,0 Z M0,0" fill="rgb(0,80,0)" fill-opacity="0.25" stroke="rgb(0,255,0)" stroke-width="2" transform="matrix(1,0,0,-1,0,900)"/>
 <path d="M0,0 l50,0 l0,56.25 l-50,0 Z M0,0" fill="rgb(0,80,0)" fill-opacity="0.25" stroke="rgb(0,255,0)" stroke-width="2" transform="matrix(-1.0,-1.2246467991473532e-16,-1.2246467991473532e-16,1.0,1600.0,1.1368683772161603e-13)"/>
 <path d="M0,0 l50,0 l0,28.13 l-50,0 Z M0,0" fill="rgb(0,107,255)" fill-opacity="0.25" stroke="rgb(0,255,255)" stroke-width="2" transform="matrix(1,0,0,-1,0,900)"/>
 <path d="M0,0 l50,0 l0,28.13 l-50,0 Z M0,0" fill="rgb(0,107,255)" fill-opacity="0.25" stroke="rgb(0,255,255)" stroke-width="2" transform="matrix(-1.0,-1.2246467991473532e-16,-1.2246467991473532e-16,1.0,1600.0,1.1368683772161603e-13)"/>
 <path d="M0,0 l25,0 l0,28.13 l-25,0 Z M0,0" fill="rgb(0,97,0)" fill-opacity="0.25" stroke="rgb(0,255,0)" stroke-width="2" transform="matrix(1,0,0,-1,0,900)"/>
 <path d="M0,0 l25,0 l0,28.13 l-25,0 Z M0,0" fill="rgb(0,97,0)" fill-opacity="0.25" stroke="rgb(0,255,0)" stroke-width="2" transform="matrix(-1.0,-1.2246467991473532e-16,-1.2246467991473532e-16,1.0,1600.0,1.1368683772161603e-13)"/>
 <path d="M0,0 l25,0 l0,14.06 l-25,0 Z M0,0" fill="rgb(0,130,255)" fill-opacity="0.25" stroke="rgb(0,255,255)" stroke-width="2" transform="matrix(1,0,0,-1,0,900)"/>
 <path d="M0,0 l25,0 l0,14.06 l-25,0 Z M0,0" fill="rgb(0,130,255)" fill-opacity="0.25" stroke="rgb(0,255,255)" stroke-width="2" transform="matrix(-1.0,-1.2246467991473532e-16,-1.2246467991473532e-16,1.0,1600.0,1.1368683772161603e-13)"/>
 <path d="M0,0 l12.5,0 l0,14.06 l-12.5,0 Z M0,0" fill="rgb(0,114,0)" fill-opacity="0.25" stroke="rgb(0,255,0)" stroke-width="2" transform="matrix(1,0,0,-1,0,900)"/>
 <path d="M0,0 l12.5,0 l0,14.06 l-12.5,0 Z M0,0" fill="rgb(0,114,0)" fill-opacity="0.25" stroke="rgb(0,255,0)" stroke-width="2" transform="matrix(-1.0,-1.2246467991473532e-16,-1.2246467991473532e-16,1.0,1600.0,1.1368683772161603e-13)"/>
 <path d="M0,0 l12.5,0 l0,7.03 l-12.5,0 Z M0,0" fill="rgb(0,153,255)" fill-opacity="0.25" stroke="rgb(0,255,255)" stroke-width="2" transform="matrix(1,0,0,-1,0,900)"/>
 <path d="M0,0 l12.5,0 l0,7.03 l-12.5,0 Z M0,0" fill="rgb(0,153,255)" fill-opacity="0.25" stroke="rgb(0,255,255)" stroke-width="2" transform="matrix(-1.0,-1.2246467991473532e-16,-1.2246467991473532e-16,1.0,1600.0,1.1368683772161603e-13)"/>
 <path d="M0,0 l6.25,0 l0,7.03 l-6.25,0 Z M0,0" fill="rgb(0,131,0)" fill-opacity="0.25" stroke="rgb(0,255,0)" stroke-width="2" transform="matrix(1,0,0,-1,0,900)"/>
 <path d="M0,0 l6.25,0 l0,7.03 l-6.25,0 Z M0,0" fill="rgb(0,131,0)" fill-opacity="0.25" stroke="rgb(0,255,0)" stroke-width="2" transform="matrix(-1.0,-1.2246467991473532e-16,-1.2246467991473532e-16,1.0,1600.0,1.1368683772161603e-13)"/>
 <path d="M0,0 l6.25,0 l0,3.52 l-6.25,0 Z M0,0" fill="rgb(0,175,255)" fill-opacity="0.25" stroke="rgb(0,255,255)" stroke-width="2" transform="matrix(1,0,0,-1,0,900)"/>
 <path d="M0,0 l6.25,0 l0,3.52 l-6.25,0 Z M0,0" fill="rgb(0,175,255)" fill-opacity="0.25" stroke="rgb(0,255,255)" stroke-width="2" transform="matrix(-1.0,-1.2246467991473532e-16,-1.2246467991473532e-16,1.0,1600.0,1.1368683772161603e-13)"/>
 <path d="M0,0 l3.13,0 l0,3.52 l-3.13,0 Z M0,0" fill="rgb(0,148,0)" fill-opacity="0.25" stroke="rgb(0,255,0)" stroke-width="2" transform="matrix(1,0,0,-1,0,900)"/>
 <path d="M0,0 l3.13,0 l0,3.52 l-3.13,0 Z M0,0" fill="rgb(0,148,0)" fill-opacity="0.25" stroke="rgb(0,255,0)" stroke-width="2" transform="matrix(-1.0,-1.2246467991473532e-16,-1.2246467991473532e-16,1.0,1600.0,1.1368683772161603e-13)"/>
 <path d="M0,0 l3.13,0 l0,1.76 l-3.13,0 Z M0,0" fill="rgb(0,198,255)" fill-opacity="0.25" stroke="rgb(0,255,255)" stroke-width="2" transform="matrix(1,0,0,-1,0,900)"/>
 <path d="M0,0 l3.13,0 l0,1.76 l-3.13,0 Z M0,0" fill="rgb(0,198,255)" fill-opacity="0.25" stroke="rgb(0,255,255)" stroke-width="2" transform="matrix(-1.0,-1.2246467991473532e-16,-1.2246467991473532e-16,1.0,1600.0,1.1368683772161603e-13)"/>
 <path d="M0,0 l1.56,0 l0,1.76 l-1.56,0 Z M0,0" fill="rgb(0,165,0)" fill-opacity="0.25" stroke="rgb(0,255,0)" stroke-width="2" transform="matrix(1,0,0,-1,0,900)"/>
 <path d="M0,0 l1.56,0 l0,1.76 l-1.56,0 Z M0,0" fill="rgb(0,165,0)" fill-opacity="0.25" stroke="rgb(0,255,0)" stroke-width="2" transform="matrix(-1.0,-1.2246467991473532e-16,-1.2246467991473532e-16,1.0,1600.0,1.1368683772161603e-13)"/>
 <path d="M0,0 l1.56,0 l0,0.88 l-1.56,0 Z M0,0" fill="rgb(0,221,255)" fill-opacity="0.25" stroke="rgb(0,255,255)" stroke-width="2" transform="matrix(1,0,0,-1,0,900)"/>
 <path d="M0,0 l1.56,0 l0,0.88 l-1.56,0 Z M0,0" fill="rgb(0,221,255)" fill-opacity="0.25" stroke="rgb(0,255,255)" stroke-width="2" transform="matrix(-1.0,-1.2246467991473532e-16,-1.2246467991473532e-16,1.0,1600.0,1.1368683772161603e-13)"/>
 <path d="M0,0 l0.78,0 l0,0.88 l-0.78,0 Z M0,0" fill="rgb(0,182,0)" fill-opacity="0.25" stroke="rgb(0,255,0)" stroke-width="2" transform="matrix(1,0,0,-1,0,900)"/>
 <path d="M0,0 l0.78,0 l0,0.88 l-0.78,0 Z M0,0" fill="rgb(0,182,0)" fill-opacity="0.25" stroke="rgb(0,255,0)" stroke-width="2" transform="matrix(-1.0,-1.2246467991473532e-16,-1.2246467991473532e-16,1.0,1600.0,1.1368683772161603e-13)"/>
 <path d="M0,0 l0.78,0 l0,0.44 l-0.78,0 Z M0,0" fill="rgb(0,243,255)" fill-opacity="0.25" stroke="rgb(0,255,255)" stroke-width="2" transform="matrix(1,0,0,-1,0,900)"/>
 <path d="M0,0 l0.78,0 l0,0.44 l-0.78,0 Z M0,0" fill="rgb(0,243,255)" fill-opacity="0.25" stroke="rgb(0,255,255)" stroke-width="2" transform="matrix(-1.0,-1.2246467991473532e-16,-1.2246467991473532e-16,1.0,1600.0,1.1368683772161603e-13)"/>
 <path d="M0,0 l0.39,0 l0,0.44 l-0.39,0 Z M0,0" fill="rgb(0,199,0)" fill-opacity="0.25" stroke="rgb(0,255,0)" stroke-width="2" transform="matrix(1,0,0,-1,0,900)"/>
 <path d="M0,0 l0.39,0 l0,0.44 l-0.39,0 Z M0,0" fill="rgb(0,199,0)" fill-opacity="0.25" stroke="rgb(0,255,0)" stroke-width="2" transform="matrix(-1.0,-1.2246467991473532e-16,-1.2246467991473532e-16,1.0,1600.0,1.1368683772161603e-13)"/>
 <path d="M0,0 l0.39,0 l0,0.22 l-0.39,0 Z M0,0" fill="rgb(0,255,255)" fill-opacity="0.25" stroke="rgb(0,255,255)" stroke-width="2" transform="matrix(1,0,0,-1,0,900)"/>
 <path d="M0,0 l0.39,0 l0,0.22 l-0.39,0 Z M0,0" fill="rgb(0,255,255)" fill-opacity="0.25" stroke="rgb(0,255,255)" stroke-width="2" transform="matrix(-1.0,-1.2246467991473532e-16,-1.2246467991473532e-16,1.0,1600.0,1.1368683772161603e-13)"/>
 <path d="M0,0 l0.2,0 l0,0.22 l-0.2,0 Z M0,0" fill="rgb(0,216,0)" fill-opacity="0.25" stroke="rgb(0,255,0)" stroke-width="2" transform="matrix(1,0,0,-1,0,900)"/>
 <path d="M0,0 l0.2,0 l0,0.22 l-0.2,0 Z M0,0" fill="rgb(0,216,0)" fill-opacity="0.25" stroke="rgb(0,255,0)" stroke-width="2" transform="matrix(-1.0,-1.2246467991473532e-16,-1.2246467991473532e-16,1.0,1600.0,1.1368683772161603e-13)"/>
 <path d="M0,0 l0.2,0 l0,0.11 l-0.2,0 Z M0,0" fill="rgb(0,255,255)" fill-opacity="0.25" stroke="rgb(0,255,255)" stroke-width="2" transform="matrix(1,0,0,-1,0,900)"/>
 <path d="M0,0 l0.2,0 l0,0.11 l-0.2,0 Z M0,0" fill="rgb(0,255,255)" fill-opacity="0.25" stroke="rgb(0,255,255)" stroke-width="2" transform="matrix(-1.0,-1.2246467991473532e-16,-1.2246467991473532e-16,1.0,1600.0,1.1368683772161603e-13)"/>
 <path d="M0,0 l0.1,0 l0,0.11 l-0.1,0 Z M0,0" fill="rgb(0,233,0)" fill-opacity="0.25" stroke="rgb(0,255,0)" stroke-width="2" transform="matrix(1,0,0,-1,0,900)"/>
 <path d="M0,0 l0.1,0 l0,0.11 l-0.1,0 Z M0,0" fill="rgb(0,233,0)" fill-opacity="0.25" stroke="rgb(0,255,0)" stroke-width="2" transform="matrix(-1.0,-1.2246467991473532e-16,-1.2246467991473532e-16,1.0,1600.0,1.1368683772161603e-13)"/>
 <path d="M0,0 l0.1,0 l0,0.05 l-0.1,0 Z M0,0" fill="rgb(0,255,255)" fill-opacity="0.25" stroke="rgb(0,255,255)" stroke-width="2" transform="matrix(1,0,0,-1,0,900)"/>
 <path d="M0,0 l0.1,0 l0,0.05 l-0.1,0 Z M0,0" fill="rgb(0,255,255)" fill-opacity="0.25" stroke="rgb(0,255,255)" stroke-width="2" transform="matrix(-1.0,-1.2246467991473532e-16,-1.2246467991473532e-16,1.0,1600.0,1.1368683772161603e-13)"/>
 <path d="M0,0 l0.05,0 l0,0.05 l-0.05,0 Z M0,0" fill="rgb(0,250,0)" fill-opacity="0.25" stroke="rgb(0,255,0)" stroke-width="2" transform="matrix(1,0,0,-1,0,900)"/>
 <path d="M0,0 l0.05,0 l0,0.05 l-0.05,0 Z M0,0" fill="rgb(0,250,0)" fill-opacity="0.25" stroke="rgb(0,255,0)" stroke-width="2" transform="matrix(-1.0,-1.2246467991473532e-16,-1.2246467991473532e-16,1.0,1600.0,1.1368683772161603e-13)"/>
 <path d="M0,0 l0.05,0 l0,0.03 l-0.05,0 Z M0,0" fill="rgb(0,255,255)" fill-opacity="0.25" stroke="rgb(0,255,255)" stroke-width="2" transform="matrix(1,0,0,-1,0,900)"/>
 <path d="M0,0 l0.05,0 l0,0.03 l-0.05,0 Z M0,0" fill="rgb(0,255,255)" fill-opacity="0.25" stroke="rgb(0,255,255)" stroke-width="2" transform="matrix(-1.0,-1.2246467991473532e-16,-1.2246467991473532e-16,1.0,1600.0,1.1368683772161603e-13)"/>
 <path d="M0,0 l0.02,0 l0,0.03 l-0.02,0 Z M0,0" fill="rgb(0,255,0)" fill-opacity="0.25" stroke="rgb(0,255,0)" stroke-width="2" transform="matrix(1,0,0,-1,0,900)"/>
 <path d="M0,0 l0.02,0 l0,0.03 l-0.02,0 Z M0,0" fill="rgb(0,255,0)" fill-opacity="0.25" stroke="rgb(0,255,0)" stroke-width="2" transform="matrix(-1.0,-1.2246467991473532e-16,-1.2246467991473532e-16,1.0,1600.0,1.1368683772161603e-13)"/>
 <path d="M0,0 l0.02,0 l0,0.01 l-0.02,0 Z M0,0" fill="rgb(0,255,255)" fill-opacity="0.25" stroke="rgb(0,255,255)" stroke-width="2" transform="matrix(1,0,0,-1,0,900)"/>
 <path d="M0,0 l0.02,0 l0,0.01 l-0.02,0 Z M0,0" fill="rgb(0,255,255)" fill-opacity="0.25" stroke="rgb(0,255,255)" stroke-width="2" transform="matrix(-1.0,-1.2246467991473532e-16,-1.2246467991473532e-16,1.0,1600.0,1.1368683772161603e-13)"/>
 <path d="M0,0 l0.01,0 l0,0.01 l-0.01,0 Z M0,0" fill="rgb(0,255,0)" fill-opacity="0.25" stroke="rgb(0,255,0)" stroke-width="2" transform="matrix(1,0,0,-1,0,900)"/>
 <path d="M0,0 l0.01,0 l0,0.01 l-0.01,0 Z M0,0" fill="rgb(0,255,0)" fill-opacity="0.25" stroke="rgb(0,255,0)" stroke-width="2" transform="matrix(-1.0,-1.2246467991473532e-16,-1.2246467991473532e-16,1.0,1600.0,1.1368683772161603e-13)"/>
 <path d="M0,0 l0.01,0 l0,0.01 l-0.01,0 Z M0,0" fill="rgb(0,255,255)" fill-opacity="0.25" stroke="rgb(0,255,255)" stroke-width="2" transform="matrix(1,0,0,-1,0,900)"/>
 <path d="M0,0 l0.01,0 l0,0.01 l-0.01,0 Z M0,0" fill="rgb(0,255,255)" fill-opacity="0.25" stroke="rgb(0,255,255)" stroke-width="2" transform="matrix(-1.0,-1.2246467991473532e-16,-1.2246467991473532e-16,1.0,1600.0,1.1368683772161603e-13)"/>
</svg>