<?xml version="1.0" encoding="UTF-8"?>
<svg height="900" version="1.1" width="1600" xmlns="http://www.w3.org/2000/svg" xmlns:xlink="http://www.w3.org/1999/xlink">
 <path d="M0,0 l1600,0 l0,900 l-1600,0 Z M0,0" fill="rgb(0,0,0)" transform="matrix(1,0,0,-1,0,900)"/>
 <path d="M0,0 l1600,0 l0,900 l-1600,0 Z M0,0" fill="rgb(255,255,255)" fill-opacity="0.0" stroke="rgb(0,255,0)" stroke-width="2" transform="matrix(1,0,0,-1,0,900)"/>
 <path d="M0,0 l1066.67,0 l0,900 l-1066.67,0 Z M0,0" fill="rgb(0,12,0)" fill-opacity="0.25" stroke="rgb(0,255,0)" stroke-width="2" transform="matrix(1,0,0,-1,0,900)"/>
 <path d="M0,0 l1066.67,0 l0,900 l-1066.67,0 Z M0,0" fill="rgb(0,12,0)" fill-opacity="0.25" stroke="rgb(0,255,0)" stroke-width="2" transform="matrix(-1.0,-1.2246467991473532e-16,-1.2246467991473532e-16,1.0,1600.0,1.1368683772161603e-13)"/>
 <path d="M0,0 l1066.67,0 l0,600 l-1066.67,0 Z M0,0" fill="rgb(0,17,255)" fill-opacity="0.25" stroke="rgb(0,255,255)" stroke-width="2" transform="matrix(1,0,0,-1,0,900)"/>
 <path d="M0,0 l1066.67,0 l0,600 l-1066.67,0 Z M0,0" fill="rgb(0,17,255)" fill-opacity="0.25" stroke="rgb(0,255,255)" stroke-width="2" transform="matrix(-1.0,-1.2246467991473532e-16,-1.2246467991473532e-16,1.0,1600.0,1.1368683772161603e-13)"/>
 <path d="M0,0 l711.11,0 l0,600 l-711.11,0 Z M0,0" fill="rgb(0,29,0)" fill-opacity="0.25" stroke="rgb(0,255,0)" stroke-width="2" transform="matrix(1,0,0,-1,0,900)"/>
 <path d="M0,0 l711.11,0 l0,600 l-711.11,0 Z M0,0" fill="rgb(0,29,0)" fill-opacity="0.25" stroke="rgb(0,255,0)" stroke-width="2" transform="matrix(-1.0,-1.2246467991473532e-16,-1.2246467991473532e-16,1.0,1600.0,1.1368683772161603e-13)"/>
 <path d="M0,0 l711.11,0 l0,400 l-711.11,0 Z M0,0" fill="rgb(0,39,255)" fill-opacity="0.25" stroke="rgb(0,255,255)" stroke-width="2" transform="matrix(1,0,0,-1,0,900)"/>
 <path d="M0,0 l711.11,0 l0,400 l-711.11,0 Z M0,0" fill="rgb(0,39,255)" fill-opacity="0.25" stroke="rgb(0,255,255)" stroke-width="2" transform="matrix(-1.0,-1.2246467991473532e-16,-1.2246467991473532e-16,1.0,1600.0,1.1368683772161603e-13)"/>
 <path d="M0,0 l474.07,0 l0,400 l-474.07,0 Z M0,0" fill="rgb(0,46,0)" fill-opacity="0.25" stroke="rgb(0,255,0)" stroke-width="2" transform="matrix(1,0,0,-1,0,900)"/>
 <path d="M0,0 l474.07,0 l0,400 l-474.07,0 Z M0,0" fill="rgb(0,46,0)" fill-opacity="0.25" stroke="rgb(0,255,0)" stroke-width="2" transform="matrix(-1.0,-1.2246467991473532e-16,-1.2246467991473532e-16,1.0,1600.0,1.1368683772161603e-13)"/>
 <path d="M0,0 l474.07,0 l0,266.67 l-474.07,0 Z M0,0" fill="rgb(0,62,255)" fill-opacity="0.25" stroke="rgb(0,255,255)" stroke-width="2" transform="matrix(1,0,0,-1,0,900)"/>
 <path d="M0,0 l474.07,0 l0,266.67 l-474.07,0 Z M0,0" fill="rgb(0,62,255)" fill-opacity="0.25" stroke="rgb(0,255,255)" stroke-width="2" transform="matrix(-1.0,-1.2246467991473532e-16,-1.2246467991473532e-16,1.0,1600.0,1.1368683772161603e-13)"/>
 <path d="M0,0 l316.05,0 l0,266.67 l-316.05,0 Z M0,0" fill="rgb(0,63,0)" fill-opacity="0.25" stroke="rgb(0,255,0)" stroke-width="2" transform="matrix(1,0,0,-1,0,900)"/>
 <path d="M0,0 l316.05,0 l0,266.67 l-316.05,0 Z M0,0" fill="rgb(0,63,0)" fill-opacity="0.25" stroke="rgb(0,255,0)" stroke-width="2" transform="matrix(-1.0,-1.2246467991473532e-16,-1.2246467991473532e-16,1.0,1600.0,1.1368683772161603e-13)"/>
 <path d="M0,0 l316.05,0 l0,177.78 l-316.05,0 Z M0,0" fill="rgb(0,85,255)" fill-opacity="0.25" stroke="rgb(0,255,255)" stroke-width="2" transform="matrix(1,0,0,-1,0,900)"/>
 <path d="M0,0 l316.05,0 l0,177.78 l-316.05,0 Z M0,0" fill="rgb(0,85,255)" fill-opacity="0.25" stroke="rgb(0,255,255)" stroke-width="2" transform="matrix(-1.0,-1.2246467991473532e-16,-1.2246467991473532e-16,1.0,1600.0,1.1368683772161603e-13)"/>
 <path d="M0,0 l210.7,0 l0,177.78 l-210.7,0 Z M0,0" fill="rgb(0,80,0)" fill-opacity="0.25" stroke="rgb(0,255,0)" stroke-width="2" transform="matrix(1,0,0,-1,0,900)"/>
 <path d="M0,0 l210.7,0 l0,177.78 l-210.7,0 Z M0,0" fill="rgb(0,80,0)" fill-opacity="0.25" stroke="rgb(0,255,0)" stroke-width="2" transform="matrix(-1.0,-1.2246467991473532e-16,-1.2246467991473532e-16,1.0,1600.0,1.1368683772161603e-13)"/>
 <path d="M0,0 l210.7,0 l0,118.52 l-210.7,0 Z M0,0" fill="rgb(0,107,255)" fill-opacity="0.25" stroke="rgb(0,255,255)" stroke-width="2" transform="matrix(1,0,0,-1,0,900)"/>
 <path d="M0,0 l210.7,0 l0,118.52 l-210.7,0 Z M0,0" fill="rgb(0,107,255)" fill-opacity="0.25" stroke="rgb(0,255,255)" stroke-width="2" transform="matrix(-1.0,-1.2246467991473532e-16,-1.2246467991473532e-16,1.0,1600.0,1.1368683772161603e-13)"/>
 <path d="M0,0 l140.47,0 l0,118.52 l-140.47,0 Z M0,0" fill="rgb(0,97,0)" fill-opacity="0.25" stroke="rgb(0,255,0)" stroke-width="2" transform="matrix(1,0,0,-1,0,900)"/>
 <path d="M0,0 l140.47,0 l0,118.52 l-140.47,0 Z M0,0" fill="rgb(0,97,0)" fill-opacity="0.25" stroke="rgb(0,255,0)" stroke-width="2" transform="matrix(-1.0,-1.2246467991473532e-16,-1.2246467991473532e-16,1.0,1600.0,1.1368683772161603e-13)"/>
 <path d="M0,0 l140.47,0 l0,79.01 l-140.47,0 Z M0,0" fill="rgb(0,130,255)" fill-opacity="0.25" stroke="rgb(0,255,255)" stroke-width="2" transform="matrix(1,0,0,-1,0,900)"/>
 <path d="M0,0 l140.47,0 l0,79.01 l-140.47,0 Z M0,0" fill="rgb(0,130,255)" fill-opacity="0.25" stroke="rgb(0,255,255)" stroke-width="2" transform="matrix(-1.0,-1.2246467991473532e-16,-1.2246467991473532e-16,1.0,1600.0,1.1368683772161603e-13)"/>
 <path d="M0,0 l93.64,0 l0,79.01 l-93.64,0 Z M0,0" fill="rgb(0,114,0)" fill-opacity="0.25" stroke="rgb(0,255,0)" stroke-width="2" transform="matrix(1,0,0,-1,0,900)"/>
 <path d="M0,0 l93.64,0 l0,79.01 l-93.64,0 Z M0,0" fill="rgb(0,114,0)" fill-opacity="0.25" stroke="rgb(0,255,0)" stroke-width="2" transform="matrix(-1.0,-1.2246467991473532e-16,-1.2246467991473532e-16,1.0,1600.0,1.1368683772161603e-13)"/>
 <path d="M0,0 l93.64,0 l0,52.67 l-93.64,0 Z M0,0" fill="rgb(0,153,255)" fill-opacity="0.25" stroke="rgb(0,255,255)" stroke-width="2" transform="matrix(1,0,0,-1,0,900)"/>
 <path d="M0,0 l93.64,0 l0,52.67 l-93.64,0 Z M0,0" fill="rgb(0,153,255)" fill-opacity="0.25" stroke="rgb(0,255,255)" stroke-width="2" transform="matrix(-1.0,-1.2246467991473532e-16,-1.2246467991473532e-16,1.0,1600.0,1.1368683772161603e-13)"/>
 <path d="M0,0 l62.43,0 l0,52.67 l-62.43,0 Z M0,0" fill="rgb(0,131,0)" fill-opacity="0.25" stroke="rgb(0,255,0)" stroke-width="2" transform="matrix(1,0,0,-1,0,900)"/>
 <path d="M0,0 l62.43,0 l0,52.67 l-62.43,0 Z M0,0" fill="rgb(0,131,0)" fill-opacity="0.25" stroke="rgb(0,255,0)" stroke-width="2" transform="matrix(-1.0,-1.2246467991473532e-16,-1.2246467991473532e-16,1.0,1600.0,1.1368683772161603e-13)"/>
 <path d="M0,0 l62.43,0 l0,35.12 l-62.43,0 Z M0,0" fill="rgb(0,175,255)" fill-opacity="0.25" stroke="rgb(0,255,255)" stroke-width="2" transform="matrix(1,0,0,-1,0,900)"/>
 <path d="M0,0 l62.43,0 l0,35.12 l-62.43,0 Z M0,0" fill="rgb(0,175,255)" fill-opacity="0.25" stroke="rgb(0,255,255)" stroke-width="2" transform="matrix(-1.0,-1.2246467991473532e-16,-1.2246467991473532e-16,1.0,1600.0,1.1368683772161603e-13)"/>
 <path d="M0,0 l41.62,0 l0,35.12 l-41.62,0 Z M0,0" fill="rgb(0,148,0)" fill-opacity="0.25" stroke="rgb(0,255,0)" stroke-width="2" transform="matrix(1,0,0,-1,0,900)"/>
 <path d="M0,0 l41.62,0 l0,35.12 l-41.62,0 Z M0,0" fill="rgb(0,148,0)" fill-opacity="0.25" stroke="rgb(0,255,0)" stroke-width="2" transform="matrix(-1.0,-1.2246467991473532e-16,-1.2246467991473532e-16,1.0,1600.0,1.1368683772161603e-13)"/>
 <path d="M0,0 l41.62,0 l0,23.41 l-41.62,0 Z M0,0" fill="rgb(0,198,255)" fill-opacity="0.25" stroke="rgb(0,255,255)" stroke-width="2" transform="matrix(1,0,0,-1,0,900)"/>
 <path d="M0,0 l41.62,0 l0,23.41 l-41.62,0 Z M0,0" fill="rgb(0,198,255)" fill-opacity="0.25" stroke="rgb(0,255,255)" stroke-width="2" transform="matrix(-1.0,-1.2246467991473532e-16,-1.2246467991473532e-16,1.0,1600.0,1.1368683772161603e-13)"/>
 <path d="M0,0 l27.75,0 l0,23.41 l-27.75,0 Z M0,0" fill="rgb(0,165,0)" fill-opacity="0.25" stroke="rgb(0,255,0)" stroke-width="2" transform="matrix(1,0,0,-1,0,900)"/>
 <path d="M0,0 l27.75,0 l0,23.41 l-27.75,0 Z M0,0" fill="rgb(0,165,0)" fill-opacity="0.25" stroke="rgb(0,255,0)" stroke-width="2" transform="matrix(-1.0,-1.2246467991473532e-16,-1.2246467991473532e-16,1.0,1600.0,1.1368683772161603e-13)"/>
 <path d="M0,0 l27.75,0 l0,15.61 l-27.75,0 Z M0,0" fill="rgb(0,221,255)" fill-opacity="0.25" stroke="rgb(0,255,255)" stroke-width="2" transform="matrix(1,0,0,-1,0,900)"/>
 <path d="M0,0 l27.75,0 l0,15.61 l-27.75,0 Z M0,0" fill="rgb(0,221,255)" fill-opacity="0.25" stroke="rgb(0,255,255)" stroke-width="2" transform="matrix(-1.0,-1.2246467991473532e-16,-1.2246467991473532e-16,1.0,1600.0,1.1368683772161603e-13)"/>
 <path d="M0,0 l18.5,0 l0,15.61 l-18.5,0 Z M0,0" fill="rgb(0,182,0)" fill-opacity="0.25" stroke="rgb(0,255,0)" stroke-width="2" transform="matrix(1,0,0,-1,0,900)"/>
 <path d="M0,0 l18.5,0 l0,15.61 l-18.5,0 Z M0,0" fill="rgb(0,182,0)" fill-opacity="0.25" stroke="rgb(0,255,0)" stroke-width="2" transform="matrix(-1.0,-1.2246467991473532e-16,-1.2246467991473532e-16,1.0,1600.0,1.1368683772161603e-13)"/>
 <path d="M0,0 l18.5,0 l0,10.4 l-18.5,0 Z M0,0" fill="rgb(0,243,255)" fill-opacity="0.25" stroke="rgb(0,255,255)" stroke-width="2" transform="matrix(1,0,0,-1,0,900)"/>
 <path d="M0,0 l18.5,0 l0,10.4 l-18.5,0 Z M0,0" fill="rgb(0,243,255)" fill-opacity="0.25" stroke="rgb(0,255,255)" stroke-width="2" transform="matrix(-1.0,-1.2246467991473532e-16,-1.2246467991473532e-16,1.0,1600.0,1.1368683772161603e-13)"/>
 <path d="M0,0 l12.33,0 l0,10.4 l-12.33,0 Z M0,0" fill="rgb(0,199,0)" fill-opacity="0.25" stroke="rgb(0,255,0)" stroke-width="2" transform="matrix(1,0,0,-1,0,900)"/>
 <path d="M0,0 l12.33,0 l0,10.4 l-12.33,0 Z M0,0" fill="rgb(0,199,0)" fill-opacity="0.25" stroke="rgb(0,255,0)" stroke-width="2" transform="matrix(-1.0,-1.2246467991473532e-16,-1.2246467991473532e-16,1.0,1600.0,1.1368683772161603e-13)"/>
 <path d="M0,0 l12.33,0 l0,6.94 l-12.33,0 Z M0,0" fill="rgb(0,255,255)" fill-opacity="0.25" stroke="rgb(0,255,255)" stroke-width="2" transform="matrix(1,0,0,-1,0,900)"/>
 <path d="M0,0 l12.33,0 l0,6.94 l-12.33,0 Z M0,0" fill="rgb(0,255,255)" fill-opacity="0.25" stroke="rgb(0,255,255)" stroke-width="2" transform="matrix(-1.0,-1.2246467991473532e-16,-1.2246467991473532e-16,1.0,1600.0,1.1368683772161603e-13)"/>
 <path d="M0,0 l8.22,0 l0,6.94 l-8.22,0 Z M0,0" fill="rgb(0,216,0)" fill-opacity="0.25" stroke="rgb(0,255,0)" stroke-width="2" transform="matrix(1,0,0,-1,0,900)"/>
 <path d="M0,0 l8.22,0 l0,6.94 l-8.22,0 Z M0,0" fill="rgb(0,216,0)" fill-opacity="0.25" stroke="rgb(0,255,0)" stroke-width="2" transform="matrix(-1.0,-1.2246467991473532e-16,-1.2246467991473532e-16,1.0,1600.0,1.1368683772161603e-13)"/>
 <path d="M0,0 l8.22,0 l0,4.62 l-8.22,0 Z M0,0" fill="rgb(0,255,255)" fill-opacity="0.25" stroke="rgb(0,255,255)" stroke-width="2" transform="matrix(1,0,0,-1,0,900)"/>
 <path d="M0,0 l8.22,0 l0,4.62 l-8.22,0 Z M0,0" fill="rgb(0,255,255)" fill-opacity="0.25" stroke="rgb(0,255,255)" stroke-width="2" transform="matrix(-1.0,-1.2246467991473532e-16,-1.2246467991473532e-16,1.0,1600.0,1.1368683772161603e-13)"/>
 <path d="M0,0 l5.48,0 l0,4.62 l-5.48,0 Z M0,0" fill="rgb(0,233,0)" fill-opacity="0.25" stroke="rgb(0,255,0)" stroke-width="2" transform="matrix(1,0,0,-1,0,900)"/>
 <path d="M0,0 l5.48,0 l0,4.62 l-5.48,0 Z M0,0" fill="rgb(0,233,0)" fill-opacity="0.25" stroke="rgb(0,255,0)" stroke-width="2" transform="matrix(-1.0,-1.2246467991473532e-16,-1.2246467991473532e-16,1.0,1600.0,1.1368683772161603e-13)"/>
 <path d="M0,0 l5.48,0 l0,3.08 l-5.48,0 Z M0,0" fill="rgb(0,255,255)" fill-opacity="0.25" stroke="rgb(0,255,255)" stroke-width="2" transform="matrix(1,0,0,-1,0,900)"/>
 <path d="M0,0 l5.48,0 l0,3.08 l-5.48,0 Z M0,0" fill="rgb(0,255,255)" fill-opacity="0.25" stroke="rgb(0,255,255)" stroke-width="2" transform="matrix(-1.0,-1.2246467991473532e-16,-1.2246467991473532e-16,1.0,1600.0,1.1368683772161603e-13)"/>
 <path d="M0,0 l3.65,0 l0,3.08 l-3.65,0 Z M0,0" fill="rgb(0,250,0)" fill-opacity="0.25" stroke="rgb(0,255,0)" stroke-width="2" transform="matrix(1,0,0,-1,0,900)"/>
 <path d="M0,0 l3.65,0 l0,3.08 l-3.65,0 Z M0,0" fill="rgb(0,250,0)" fill-opacity="0.25" stroke="rgb(0,255,0)" stroke-width="2" transform="matrix(-1.0,-1.2246467991473532e-16,-1.2246467991473532e-16,1.0,1600.0,1.1368683772161603e-13)"/>
 <path d="M0,0 l3.65,0 l0,2.06 l-3.65,0 Z M0,0" fill="rgb(0,255,255)" fill-opacity="0.25" stroke="rgb(0,255,255)" stroke-width="2" transform="matrix(1,0,0,-1,0,900)"/>
 <path d="M0,0 l3.65,0 l0,2.06 l-3.65,0 Z M0,0" fill="rgb(0,255,255)" fill-opacity="0.25" stroke="rgb(0,255,255)" stroke-width="2" transform="matrix(-1.0,-1.2246467991473532e-16,-1.2246467991473532e-16,1.0,1600.0,1.1368683772161603e-13)"/>
 <path d="M0,0 l2.44,0 l0,2.06 l-2.44,0 Z M0,0" fill="rgb(0,255,0)" fill-opacity="0.25" stroke="rgb(0,255,0)" stroke-width="2" transform="matrix(1,0,0,-1,0,900)"/>
 <path d="M0,0 l2.44,0 l0,2.06 l-2.44,0 Z M0,0" fill="rgb(0,255,0)" fill-opacity="0.25" stroke="rgb(0,255,0)" stroke-width="2" transform="matrix(-1.0,-1.2246467991473532e-16,-1.2246467991473532e-16,1.0,1600.0,1.1368683772161603e-13)"/>
 <path d="M0,0 l2.44,0 l0,1.37 l-2.44,0 Z M0,0" fill="rgb(0,255,255)" fill-opacity="0.25" stroke="rgb(0,255,255)" stroke-width="2" transform="matrix(1,0,0,-1,0,900)"/>
 <path d="M0,0 l2.44,0 l0,1.37 l-2.44,0 Z M0,0" fill="rgb(0,255,255)" fill-opacity="0.25" stroke="rgb(0,255,255)" stroke-width="2" transform="matrix(-1.0,-1.2246467991473532e-16,-1.2246467991473532e-16,1.0,1600.0,1.1368683772161603e-13)"/>
 <path d="M0,0 l1.62,0 l0,1.37 l-1.62,0 Z M0,0" fill="rgb(0,255,0)" fill-opacity="0.25" stroke="rgb(0,255,0)" stroke-width="2" transform="matrix(1,0,0,-1,0,900)"/>
 <path d="M0,0 l1.62,0 l0,1.37 l-1.62,0 Z M0,0" fill="rgb(0,255,0)" fill-opacity="0.25" stroke="rgb(0,255,0)" stroke-width="2" transform="matrix(-1.0,-1.2246467991473532e-16,-1.2246467991473532e-16,1.0,1600.0,1.1368683772161603e-13)"/>
 <path d="M0,0 l1.62,0 l0,0.91 l-1.62,0 Z M0,0" fill="rgb(0,255,255)" fill-opacity="0.25" stroke="rgb(0,255,255)" stroke-width="2" transform="matrix(1,0,0,-1,0,900)"/>
 <path d="M0,0 l1.62,0 l0,0.91 l-1.62,0 Z M0,0" fill="rgb(0,255,255)" fill-opacity="0.25" stroke="rgb(0,255,255)" stroke-width="2" transform="matrix(-1.0,-1.2246467991473532e-16,-1.2246467991473532e-16,1.0,1600.0,1.1368683772161603e-13)"/>
</svg>