<?xml version="1.0" encoding="UTF-8"?>
<svg height="900" version="1.1" width="1600" xmlns="http://www.w3.org/2000/svg" xmlns:xlink="http://www.w3.org/1999/xlink">
 <path d="M0,0 l1600,0 l0,900 l-1600,0 Z M0,0" fill="rgb(0,0,0)" transform="matrix(1,0,0,-1,0,900)"/>
 <path d="M0,0 l1600,0 l0,900 l-1600,0 Z M0,0" fill="rgb(255,255,255)" fill-opacity="0.0" stroke="rgb(0,255,0)" stroke-width="2" transform="matrix(1,0,0,-1,0,900)"/>
 <path d="M0,0 l1280,0 l0,900 l-1280,0 Z M0,0" fill="rgb(0,12,0)" fill-opacity="0.25" stroke="rgb(0,255,0)" stroke-width="2" transform="matrix(1,0,0,-1,0,900)"/>
 <path d="M0,0 l1280,0 l0,900 l-1280,0 Z M0,0" fill="rgb(0,12,0)" fill-opacity="0.25" stroke="rgb(0,255,0)" stroke-width="2" transform="matrix(-1.0,-1.2246467991473532e-16,-1.2246467991473532e-16,1.0,1600.0,1.1368683772161603e-13)"/>
 <path d="M0,0 l1280,0 l0,720 l-1280,0 Z M0,0" fill="rgb(0,17,255)" fill-opacity="0.25" stroke="rgb(0,255,255)" stroke-width="2" transform="matrix(1,0,0,-1,0,900)"/>
 <path d="M0,0 l1280,0 l0,720 l-1280,0 Z M0,0" fill="rgb(0,17,255)" fill-opacity="0.25" stroke="rgb(0,255,255)" stroke-width="2" transform="matrix(-1.0,-1.2246467991473532e-16,-1.2246467991473532e-16,1.0,1600.0,1.1368683772161603e-13)"/>
 <path d="M0,0 l1024,0 l0,720 l-1024,0 Z M0,0" fill="rgb(0,29,0)" fill-opacity="0.25" stroke="rgb(0,255,0)" stroke-width="2" transform="matrix(1,0,0,-1,0,900)"/>
 <path d="M0,0 l1024,0 l0,720 l-1024,0 Z M0,0" fill="rgb(0,29,0)" fill-opacity="0.25" stroke="rgb(0,255,0)" stroke-width="2" transform="matrix(-1.0,-1.2246467991473532e-16,-1.2246467991473532e-16,1.0,1600.0,1.1368683772161603e-13)"/>
 <path d="M0,0 l1024,0 l0,576 l-1024,0 Z M0,0" fill="rgb(0,39,255)" fill-opacity="0.25" stroke="rgb(0,255,255)" stroke-width="2" transform="matrix(1,0,0,-1,0,900)"/>
 <path d="M0,0 l1024,0 l0,576 l-1024,0 Z M0,0" fill="rgb(0,39,255)" fill-opacity="0.25" stroke="rgb(0,255,255)" stroke-width="2" transform="matrix(-1.0,-1.2246467991473532e-16,-1.2246467991473532e-16,1.0,1600.0,1.1368683772161603e-13)"/>
 <path d="M0,0 l819.2,0 l0,576 l-819.2,0 Z M0,0" fill="rgb(0,46,0)" fill-opacity="0.25" stroke="rgb(0,255,0)" stroke-width="2" transform="matrix(1,0,0,-1,0,900)"/>
 <path d="M0,0 l819.2,0 l0,576 l-819.2,0 Z M0,0" fill="rgb(0,46,0)" fill-opacity="0.25" stroke="rgb(0,255,0)" stroke-width="2" transform="matrix(-1.0,-1.2246467991473532e-16,-1.2246467991473532e-16,1.0,1600.0,1.1368683772161603e-13)"/>
 <path d="M0,0 l819.2,0 l0,460.8 l-819.2,0 Z M0,0" fill="rgb(0,62,255)" fill-opacity="0.25" stroke="rgb(0,255,255)" stroke-width="2" transform="matrix(1,0,0,-1,0,900)"/>
 <path d="M0,0 l819.2,0 l0,460.8 l-819.2,0 Z M0,0" fill="rgb(0,62,255)" fill-opacity="0.25" stroke="rgb(0,255,255)" stroke-width="2" transform="matrix(-1.0,-1.2246467991473532e-16,-1.2246467991473532e-16,1.0,1600.0,1.1368683772161603e-13)"/>
 <path d="M0,0 l655.36,0 l0,460.8 l-655.36,0 Z M0,0" fill="rgb(0,63,0)" fill-opacity="0.25" stroke="rgb(0,255,0)" stroke-width="2" transform="matrix(1,0,0,-1,0,900)"/>
 <path d="M0,0 l655.36,0 l0,460.8 l-655.36,0 Z M0,0" fill="rgb(0,63,0)" fill-opacity="0.25" stroke="rgb(0,255,0)" stroke-width="2" transform="matrix(-1.0,-1.2246467991473532e-16,-1.2246467991473532e-16,1.0,1600.0,1.1368683772161603e-13)"/>
 <path d="M0,0 l655.36,0 l0,368.64 l-655.36,0 Z M0,0" fill="rgb(0,85,255)" fill-opacity="0.25" stroke="rgb(0,255,255)" stroke-width="2" transform="matrix(1,0,0,-1,0,900)"/>
 <path d="M0,0 l655.36,0 l0,368.64 l-655.36,0 Z M0,0" fill="rgb(0,85,255)" fill-opacity="0.25" stroke="rgb(0,255,255)" stroke-width="2" transform="matrix(-1.0,-1.2246467991473532e-16,-1.2246467991473532e-16,1.0,1600.0,1.1368683772161603e-13)"/>
 <path d="M0,0 l524.29,0 l0,368.64 l-524.29,0 Z M0,0" fill="rgb(0,80,0)" fill-opacity="0.25" stroke="rgb(0,255,0)" stroke-width="2" transform="matrix(1,0,0,-1,0,900)"/>
 <path d="M0,0 l524.29,0 l0,368.64 l-524.29,0 Z M0,0" fill="rgb(0,80,0)" fill-opacity="0.25" stroke="rgb(0,255,0)" stroke-width="2" transform="matrix(-1.0,-1.2246467991473532e-16,-1.2246467991473532e-16,1.0,1600.0,1.1368683772161603e-13)"/>
 <path d="M0,0 l524.29,0 l0,294.91 l-524.29,0 Z M0,0" fill="rgb(0,107,255)" fill-opacity="0.25" stroke="rgb(0,255,255)" stroke-width="2" transform="matrix(1,0,0,-1,0,900)"/>
 <path d="M0,0 l524.29,0 l0,294.91 l-524.29,0 Z M0,0" fill="rgb(0,107,255)" fill-opacity="0.25" stroke="rgb(0,255,255)" stroke-width="2" transform="matrix(-1.0,-1.2246467991473532e-16,-1.2246467991473532e-16,1.0,1600.0,1.1368683772161603e-13)"/>
 <path d="M0,0 l419.43,0 l0,294.91 l-419.43,0 Z M0,0" fill="rgb(0,97,0)" fill-opacity="0.25" stroke="rgb(0,255,0)" stroke-width="2" transform="matrix(1,0,0,-1,0,900)"/>
 <path d="M0,0 l419.43,0 l0,294.91 l-419.43,0 Z M0,0" fill="rgb(0,97,0)" fill-opacity="0.25" stroke="rgb(0,255,0)" stroke-width="2" transform="matrix(-1.0,-1.2246467991473532e-16,-1.2246467991473532e-16,1.0,1600.0,1.1368683772161603e-13)"/>
 <path d="M0,0 l419.43,0 l0,235.93 l-419.43,0 Z M0,0" fill="rgb(0,130,255)" fill-opacity="0.25" stroke="rgb(0,255,255)" stroke-width="2" transform="matrix(1,0,0,-1,0,900)"/>
 <path d="M0,0 l419.43,0 l0,235.93 l-419.43,0 Z M0,0" fill="rgb(0,130,255)" fill-opacity="0.25" stroke="rgb(0,255,255)" stroke-width="2" transform="matrix(-1.0,-1.2246467991473532e-16,-1.2246467991473532e-16,1.0,1600.0,1.1368683772161603e-13)"/>
 <path d="M0,0 l335.54,0 l0,235.93 l-335.54,0 Z M0,0" fill="rgb(0,114,0)" fill-opacity="0.25" stroke="rgb(0,255,0)" stroke-width="2" transform="matrix(1,0,0,-1,0,900)"/>
 <path d="M0,0 l335.54,0 l0,235.93 l-335.54,0 Z M0,0" fill="rgb(0,114,0)" fill-opacity="0.25" stroke="rgb(0,255,0)" stroke-width="2" transform="matrix(-1.0,-1.2246467991473532e-16,-1.2246467991473532e-16,1.0,1600.0,1.1368683772161603e-13)"/>
 <path d="M0,0 l335.54,0 l0,188.74 l-335.54,0 Z M0,0" fill="rgb(0,153,255)" fill-opacity="0.25" stroke="rgb(0,255,255)" stroke-width="2" transform="matrix(1,0,0,-1,0,900)"/>
 <path d="M0,0 l335.54,0 l0,188.74 l-335.54,0 Z M0,0" fill="rgb(0,153,255)" fill-opacity="0.25" stroke="rgb(0,255,255)" stroke-width="2" transform="matrix(-1.0,-1.2246467991473532e-16,-1.2246467991473532e-16,1.0,1600.0,1.1368683772161603e-13)"/>
 <path d="M0,0 l268.44,0 l0,188.74 l-268.44,0 Z M0,0" fill="rgb(0,131,0)" fill-opacity="0.25" stroke="rgb(0,255,0)" stroke-width="2" transform="matrix(1,0,0,-1,0,900)"/>
 <path d="M0,0 l268.44,0 l0,188.74 l-268.44,0 Z M0,0" fill="rgb(0,131,0)" fill-opacity="0.25" stroke="rgb(0,255,0)" stroke-width="2" transform="matrix(-1.0,-1.2246467991473532e-16,-1.2246467991473532e-16,1.0,1600.0,1.1368683772161603e-13)"/>
 <path d="M0,0 l268.44,0 l0,150.99 l-268.44,0 Z M0,0" fill="rgb(0,175,255)" fill-opacity="0.25" stroke="rgb(0,255,255)" stroke-width="2" transform="matrix(1,0,0,-1,0,900)"/>
 <path d="M0,0 l268.44,0 l0,150.99 l-268.44,0 Z M0,0" fill="rgb(0,175,255)" fill-opacity="0.25" stroke="rgb(0,255,255)" stroke-width="2" transform="matrix(-1.0,-1.2246467991473532e-16,-1.2246467991473532e-16,1.0,1600.0,1.1368683772161603e-13)"/>
 <path d="M0,0 l214.75,0 l0,150.99 l-214.75,0 Z M0,0" fill="rgb(0,148,0)" fill-opacity="0.25" stroke="rgb(0,255,0)" stroke-width="2" transform="matrix(1,0,0,-1,0,900)"/>
 <path d="M0,0 l214.75,0 l0,150.99 l-214.75,0 Z M0,0" fill="rgb(0,148,0)" fill-opacity="0.25" stroke="rgb(0,255,0)" stroke-width="2" transform="matrix(-1.0,-1.2246467991473532e-16,-1.2246467991473532e-16,1.0,1600.0,1.1368683772161603e-13)"/>
 <path d="M0,0 l214.75,0 l0,120.8 l-214.75,0 Z M0,0" fill="rgb(0,198,255)" fill-opacity="0.25" stroke="rgb(0,255,255)" stroke-width="2" transform="matrix(1,0,0,-1,0,900)"/>
 <path d="M0,0 l214.75,0 l0,120.8 l-214.75,0 Z M0,0" fill="rgb(0,198,255)" fill-opacity="0.25" stroke="rgb(0,255,255)" stroke-width="2" transform="matrix(-1.0,-1.2246467991473532e-16,-1.2246467991473532e-16,1.0,1600.0,1.1368683772161603e-13)"/>
 <path d="M0,0 l171.8,0 l0,120.8 l-171.8,0 Z M0,0" fill="rgb(0,165,0)" fill-opacity="0.25" stroke="rgb(0,255,0)" stroke-width="2" transform="matrix(1,0,0,-1,0,900)"/>
 <path d="M0,0 l171.8,0 l0,120.8 l-171.8,0 Z M0,0" fill="rgb(0,165,0)" fill-opacity="0.25" stroke="rgb(0,255,0)" stroke-width="2" transform="matrix(-1.0,-1.2246467991473532e-16,-1.2246467991473532e-16,1.0,1600.0,1.1368683772161603e-13)"/>
 <path d="M0,0 l171.8,0 l0,96.64 l-171.8,0 Z M0,0" fill="rgb(0,221,255)" fill-opacity="0.25" stroke="rgb(0,255,255)" stroke-width="2" transform="matrix(1,0,0,-1,0,900)"/>
 <path d="M0,0 l171.8,0 l0,96.64 l-171.8,0 Z M0,0" fill="rgb(0,221,255)" fill-opacity="0.25" stroke="rgb(0,255,255)" stroke-width="2" transform="matrix(-1.0,-1.2246467991473532e-16,-1.2246467991473532e-16,1.0,1600.0,1.1368683772161603e-13)"/>
 <path d="M0,0 l137.44,0 l0,96.64 l-137.44,0 Z M0,0" fill="rgb(0,182,0)" fill-opacity="0.25" stroke="rgb(0,255,0)" stroke-width="2" transform="matrix(1,0,0,-1,0,900)"/>
 <path d="M0,0 l137.44,0 l0,96.64 l-137.44,0 Z M0,0" fill="rgb(0,182,0)" fill-opacity="0.25" stroke="rgb(0,255,0)" stroke-width="2" transform="matrix(-1.0,-1.2246467991473532e-16,-1.2246467991473532e-16,1.0,1600.0,1.1368683772161603e-13)"/>
 <path d="M0,0 l137.44,0 l0,77.31 l-137.44,0 Z M0,0" fill="rgb(0,243,255)" fill-opacity="0.25" stroke="rgb(0,255,255)" stroke-width="2" transform="matrix(1,0,0,-1,0,900)"/>
 <path d="M0,0 l137.44,0 l0,77.31 l-137.44,0 Z M0,0" fill="rgb(0,243,255)" fill-opacity="0.25" stroke="rgb(0,255,255)" stroke-width="2" transform="matrix(-1.0,-1.2246467991473532e-16,-1.2246467991473532e-16,1.0,1600.0,1.1368683772161603e-13)"/>
 <path d="M0,0 l109.95,0 l0,77.31 l-109.95,0 Z M0,0" fill="rgb(0,199,0)" fill-opacity="0.25" stroke="rgb(0,255,0)" stroke-width="2" transform="matrix(1,0,0,-1,0,900)"/>
 <path d="M0,0 l109.95,0 l0,77.31 l-109.95,0 Z M0,0" fill="rgb(0,199,0)" fill-opacity="0.25" stroke="rgb(0,255,0)" stroke-width="2" transform="matrix(-1.0,-1.2246467991473532e-16,-1.2246467991473532e-16,1.0,1600.0,1.1368683772161603e-13)"/>
 <path d="M0,0 l109.95,0 l0,61.85 l-109.95,0 Z M0,0" fill="rgb(0,255,255)" fill-opacity="0.25" stroke="rgb(0,255,255)" stroke-width="2" transform="matrix(1,0,0,-1,0,900)"/>
 <path d="M0,0 l109.95,0 l0,61.85 l-109.95,0 Z M0,0" fill="rgb(0,255,255)" fill-opacity="0.25" stroke="rgb(0,255,255)" stroke-width="2" transform="matrix(-1.0,-1.2246467991473532e-16,-1.2246467991473532e-16,1.0,1600.0,1.1368683772161603e-13)"/>
 <path d="M0,0 l87.96,0 l0,61.85 l-87.96,0 Z M0,0" fill="rgb(0,216,0)" fill-opacity="0.25" stroke="rgb(0,255,0)" stroke-width="2" transform="matrix(1,0,0,-1,0,900)"/>
 <path d="M0,0 l87.96,0 l0,61.85 l-87.96,0 Z M0,0" fill="rgb(0,216,0)" fill-opacity="0.25" stroke="rgb(0,255,0)" stroke-width="2" transform="matrix(-1.0,-1.2246467991473532e-16,-1.2246467991473532e-16,1.0,1600.0,1.1368683772161603e-13)"/>
 <path d="M0,0 l87.96,0 l0,49.48 l-87.96,0 Z M0,0" fill="rgb(0,255,255)" fill-opacity="0.25" stroke="rgb(0,255,255)" stroke-width="2" transform="matrix(1,0,0,-1,0,900)"/>
 <path d="M0,0 l87.96,0 l0,49.48 l-87.96,0 Z M0,0" fill="rgb(0,255,255)" fill-opacity="0.25" stroke="rgb(0,255,255)" stroke-width="2" transform="matrix(-1.0,-1.2246467991473532e-16,-1.2246467991473532e-16,1.0,1600.0,1.1368683772161603e-13)"/>
 <path d="M0,0 l70.37,0 l0,49.48 l-70.37,0 Z M0,0" fill="rgb(0,233,0)" fill-opacity="0.25" stroke="rgb(0,255,0)" stroke-width="2" transform="matrix(1,0,0,-1,0,900)"/>
 <path d="M0,0 l70.37,0 l0,49.48 l-70.37,0 Z M0,0" fill="rgb(0,233,0)" fill-opacity="0.25" stroke="rgb(0,255,0)" stroke-width="2" transform="matrix(-1.0,-1.2246467991473532e-16,-1.2246467991473532e-16,1.0,1600.0,1.1368683772161603e-13)"/>
 <path d="M0,0 l70.37,0 l0,39.58 l-70.37,0 Z M0,0" fill="rgb(0,255,255)" fill-opacity="0.25" stroke="rgb(0,255,255)" stroke-width="2" transform="matrix(1,0,0,-1,0,900)"/>
 <path d="M0,0 l70.37,0 l0,39.58 l-70.37,0 Z M0,0" fill="rgb(0,255,255)" fill-opacity="0.25" stroke="rgb(0,255,255)" stroke-width="2" transform="matrix(-1.0,-1.2246467991473532e-16,-1.2246467991473532e-16,1.0,1600.0,1.1368683772161603e-13)"/>
 <path d="M0,0 l56.29,0 l0,39.58 l-56.29,0 Z M0,0" fill="rgb(0,250,0)" fill-opacity="0.25" stroke="rgb(0,255,0)" stroke-width="2" transform="matrix(1,0,0,-1,0,900)"/>
 <path d="M0,0 l56.29,0 l0,39.58 l-56.29,0 Z M0,0" fill="rgb(0,250,0)" fill-opacity="0.25" stroke="rgb(0,255,0)" stroke-width="2" transform="matrix(-1.0,-1.2246467991473532e-16,-1.2246467991473532e-16,1.0,1600.0,1.1368683772161603e-13)"/>
 <path d="M0,0 l56.29,0 l0,31.67 l-56.29,0 Z M0,0" fill="rgb(0,255,255)" fill-opacity="0.25" stroke="rgb(0,255,255)" stroke-width="2" transform="matrix(1,0,0,-1,0,900)"/>
 <path d="M0,0 l56.29,0 l0,31.67 l-56.29,0 Z M0,0" fill="rgb(0,255,255)" fill-opacity="0.25" stroke="rgb(0,255,255)" stroke-width="2" transform="matrix(-1.0,-1.2246467991473532e-16,-1.2246467991473532e-16,1.0,1600.0,1.1368683772161603e-13)"/>
 <path d="M0,0 l45.04,0 l0,31.67 l-45.04,0 Z M0,0" fill="rgb(0,255,0)" fill-opacity="0.25" stroke="rgb(0,255,0)" stroke-width="2" transform="matrix(1,0,0,-1,0,900)"/>
 <path d="M0,0 l45.04,0 l0,31.67 l-45.04,0 Z M0,0" fill="rgb(0,255,0)" fill-opacity="0.25" stroke="rgb(0,255,0)" stroke-width="2" transform="matrix(-1.0,-1.2246467991473532e-16,-1.2246467991473532e-16,1.0,1600.0,1.1368683772161603e-13)"/>
 <path d="M0,0 l45.04,0 l0,25.33 l-45.04,0 Z M0,0" fill="rgb(0,255,255)" fill-opacity="0.25" stroke="rgb(0,255,255)" stroke-width="2" transform="matrix(1,0,0,-1,0,900)"/>
 <path d="M0,0 l45.04,0 l0,25.33 l-45.04,0 Z M0,0" fill="rgb(0,255,255)" fill-opacity="0.25" stroke="rgb(0,255,255)" stroke-width="2" transform="matrix(-1.0,-1.2246467991473532e-16,-1.2246467991473532e-16,1.0,1600.0,1.1368683772161603e-13)"/>
 <path d="M0,0 l36.03,0 l0,25.33 l-36.03,0 Z M0,0" fill="rgb(0,255,0)" fill-opacity="0.25" stroke="rgb(0,255,0)" stroke-width="2" transform="matrix(1,0,0,-1,0,900)"/>
 <path d="M0,0 l36.03,0 l0,25.33 l-36.03,0 Z M0,0" fill="rgb(0,255,0)" fill-opacity="0.25" stroke="rgb(0,255,0)" stroke-width="2" transform="matrix(-1.0,-1.2246467991473532e-16,-1.2246467991473532e-16,1.0,1600.0,1.1368683772161603e-13)"/>
 <path d="M0,0 l36.03,0 l0,20.27 l-36.03,0 Z M0,0" fill="rgb(0,255,255)" fill-opacity="0.25" stroke="rgb(0,255,255)" stroke-width="2" transform="matrix(1,0,0,-1,0,900)"/>
 <path d="M0,0 l36.03,0 l0,20.27 l-36.03,0 Z M0,0" fill="rgb(0,255,255)" fill-opacity="0.25" stroke="rgb(0,255,255)" stroke-width="2" transform="matrix(-1.0,-1.2246467991473532e-16,-1.2246467991473532e-16,1.0,1600.0,1.1368683772161603e-13)"/>
</svg>