<?xml version="1.0" encoding="UTF-8"?>
<svg height="900" version="1.1" width="1600" xmlns="http://www.w3.org/2000/svg" xmlns:xlink="http://www.w3.org/1999/xlink">
 <path d="M0,0 l1600,0 l0,900 l-1600,0 Z M0,0" fill="rgb(0,0,0)" transform="matrix(1,0,0,-1,0,900)"/>
 <path d="M0,0 l1600,0 l0,900 l-1600,0 Z M0,0" fill="rgb(255,255,255)" fill-opacity="0.0" stroke="rgb(0,255,0)" stroke-width="2" transform="matrix(1,0,0,-1,0,900)"/>
 <path d="M0,0 l914.29,0 l0,900 l-914.29,0 Z M0,0" fill="rgb(0,12,0)" fill-opacity="0.25" stroke="rgb(0,255,0)" stroke-width="2" transform="matrix(1,0,0,-1,0,900)"/>
 <path d="M0,0 l914.29,0 l0,900 l-914.29,0 Z M0,0" fill="rgb(0,12,0)" fill-opacity="0.25" stroke="rgb(0,255,0)" stroke-width="2" transform="matrix(-1.0,-1.2246467991473532e-16,-1.2246467991473532e-16,1.0,1600.0,1.1368683772161603e-13)"/>
 <path d="M0,0 l914.29,0 l0,514.29 l-914.29,0 Z M0,0" fill="rgb(0,17,255)" fill-opacity="0.25" stroke="rgb(0,255,255)" stroke-width="2" transform="matrix(1,0,0,-1,0,900)"/>
 <path d="M0,0 l914.29,0 l0,514.29 l-914.29,0 Z M0,0" fill="rgb(0,17,255)" fill-opacity="0.25" stroke="rgb(0,255,255)" stroke-width="2" transform="matrix(-1.0,-1.2246467991473532e-16,-1.2246467991473532e-16,1.0,1600.0,1.1368683772161603e-13)"/>
 <path d="M0,0 l522.45,0 l0,514.29 l-522.45,0 Z M0,0" fill="rgb(0,29,0)" fill-opacity="0.25" stroke="rgb(0,255,0)" stroke-width="2" transform="matrix(1,0,0,-1,0,900)"/>
 <path d="M0,0 l522.45,0 l0,514.29 l-522.45,0 Z M0,0" fill="rgb(0,29,0)" fill-opacity="0.25" stroke="rgb(0,255,0)" stroke-width="2" transform="matrix(-1.0,-1.2246467991473532e-16,-1.2246467991473532e-16,1.0,1600.0,1.1368683772161603e-13)"/>
 <path d="M0,0 l522.45,0 l0,293.88 l-522.45,0 Z M0,0" fill="rgb(0,39,255)" fill-opacity="0.25" stroke="rgb(0,255,255)" stroke-width="2" transform="matrix(1,0,0,-1,0,900)"/>
 <path d="M0,0 l522.45,0 l0,293.88 l-522.45,0 Z M0,0" fill="rgb(0,39,255)" fill-opacity="0.25" stroke="rgb(0,255,255)" stroke-width="2" transform="matrix(-1.0,-1.2246467991473532e-16,-1.2246467991473532e-16,1.0,1600.0,1.1368683772161603e-13)"/>
 <path d="M0,0 l298.54,0 l0,293.88 l-298.54,0 Z M0,0" fill="rgb(0,46,0)" fill-opacity="0.25" stroke="rgb(0,255,0)" stroke-width="2" transform="matrix(1,0,0,-1,0,900)"/>
 <path d="M0,0 l298.54,0 l0,293.88 l-298.54,0 Z M0,0" fill="rgb(0,46,0)" fill-opacity="0.25" stroke="rgb(0,255,0)" stroke-width="2" transform="matrix(-1.0,-1.2246467991473532e-16,-1.2246467991473532e-16,1.0,1600.0,1.1368683772161603e-13)"/>
 <path d="M0,0 l298.54,0 l0,167.93 l-298.54,0 Z M0,0" fill="rgb(0,62,255)" fill-opacity="0.25" stroke="rgb(0,255,255)" stroke-width="2" transform="matrix(1,0,0,-1,0,900)"/>
 <path d="M0,0 l298.54,0 l0,167.93 l-298.54,0 Z M0,0" fill="rgb(0,62,255)" fill-opacity="0.25" stroke="rgb(0,255,255)" stroke-width="2" transform="matrix(-1.0,-1.2246467991473532e-16,-1.2246467991473532e-16,1.0,1600.0,1.1368683772161603e-13)"/>
 <path d="M0,0 l170.6,0 l0,167.93 l-170.6,0 Z M0,0" fill="rgb(0,63,0)" fill-opacity="0.25" stroke="rgb(0,255,0)" stroke-width="2" transform="matrix(1,0,0,-1,0,900)"/>
 <path d="M0,0 l170.6,0 l0,167.93 l-170.6,0 Z M0,0" fill="rgb(0,63,0)" fill-opacity="0.25" stroke="rgb(0,255,0)" stroke-width="2" transform="matrix(-1.0,-1.2246467991473532e-16,-1.2246467991473532e-16,1.0,1600.0,1.1368683772161603e-13)"/>
 <path d="M0,0 l170.6,0 l0,95.96 l-170.6,0 Z M0,0" fill="rgb(0,85,255)" fill-opacity="0.25" stroke="rgb(0,255,255)" stroke-width="2" transform="matrix(1,0,0,-1,0,900)"/>
 <path d="M0,0 l170.6,0 l0,95.96 l-170.6,0 Z M0,0" fill="rgb(0,85,255)" fill-opacity="0.25" stroke="rgb(0,255,255)" stroke-width="2" transform="matrix(-1.0,-1.2246467991473532e-16,-1.2246467991473532e-16,1.0,1600.0,1.1368683772161603e-13)"/>
 <path d="M0,0 l97.48,0 l0,95.96 l-97.48,0 Z M0,0" fill="rgb(0,80,0)" fill-opacity="0.25" stroke="rgb(0,255,0)" stroke-width="2" transform="matrix(1,0,0,-1,0,900)"/>
 <path d="M0,0 l97.48,0 l0,95.96 l-97.48,0 Z M0,0" fill="rgb(0,80,0)" fill-opacity="0.25" stroke="rgb(0,255,0)" stroke-width="2" transform="matrix(-1.0,-1.2246467991473532e-16,-1.2246467991473532e-16,1.0,1600.0,1.1368683772161603e-13)"/>
 <path d="M0,0 l97.48,0 l0,54.83 l-97.48,0 Z M0,0" fill="rgb(0,107,255)" fill-opacity="0.25" stroke="rgb(0,255,255)" stroke-width="2" transform="matrix(1,0,0,-1,0,900)"/>
 <path d="M0,0 l97.48,0 l0,54.83 l-97.48,0 Z M0,0" fill="rgb(0,107,255)" fill-opacity="0.25" stroke="rgb(0,255,255)" stroke-width="2" transform="matrix(-1.0,-1.2246467991473532e-16,-1.2246467991473532e-16,1.0,1600.0,1.1368683772161603e-13)"/>
 <path d="M0,0 l55.7,0 l0,54.83 l-55.7,0 Z M0,0" fill="rgb(0,97,0)" fill-opacity="0.25" stroke="rgb(0,255,0)" stroke-width="2" transform="matrix(1,0,0,-1,0,900)"/>
 <path d="M0,0 l55.7,0 l0,54.83 l-55.7,0 Z M0,0" fill="rgb(0,97,0)" fill-opacity="0.25" stroke="rgb(0,255,0)" stroke-width="2" transform="matrix(-1.0,-1.2246467991473532e-16,-1.2246467991473532e-16,1.0,1600.0,1.1368683772161603e-13)"/>
 <path d="M0,0 l55.7,0 l0,31.33 l-55.7,0 Z M0,0" fill="rgb(0,130,255)" fill-opacity="0.25" stroke="rgb(0,255,255)" stroke-width="2" transform="matrix(1,0,0,-1,0,900)"/>
 <path d="M0,0 l55.7,0 l0,31.33 l-55.7,0 Z M0,0" fill="rgb(0,130,255)" fill-opacity="0.25" stroke="rgb(0,255,255)" stroke-width="2" transform="matrix(-1.0,-1.2246467991473532e-16,-1.2246467991473532e-16,1.0,1600.0,1.1368683772161603e-13)"/>
 <path d="M0,0 l31.83,0 l0,31.33 l-31.83,0 Z M0,0" fill="rgb(0,114,0)" fill-opacity="0.25" stroke="rgb(0,255,0)" stroke-width="2" transform="matrix(1,0,0,-1,0,900)"/>
 <path d="M0,0 l31.83,0 l0,31.33 l-31.83,0 Z M0,0" fill="rgb(0,114,0)" fill-opacity="0.25" stroke="rgb(0,255,0)" stroke-width="2" transform="matrix(-1.0,-1.2246467991473532e-16,-1.2246467991473532e-16,1.0,1600.0,1.1368683772161603e-13)"/>
 <path d="M0,0 l31.83,0 l0,17.91 l-31.83,0 Z M0,0" fill="rgb(0,153,255)" fill-opacity="0.25" stroke="rgb(0,255,255)" stroke-width="2" transform="matrix(1,0,0,-1,0,900)"/>
 <path d="M0,0 l31.83,0 l0,17.91 l-31.83,0 Z M0,0" fill="rgb(0,153,255)" fill-opacity="0.25" stroke="rgb(0,255,255)" stroke-width="2" transform="matrix(-1.0,-1.2246467991473532e-16,-1.2246467991473532e-16,1.0,1600.0,1.1368683772161603e-13)"/>
 <path d="M0,0 l18.19,0 l0,17.91 l-18.19,0 Z M0,0" fill="rgb(0,131,0)" fill-opacity="0.25" stroke="rgb(0,255,0)" stroke-width="2" transform="matrix(1,0,0,-1,0,900)"/>
 <path d="M0,0 l18.19,0 l0,17.91 l-18.19,0 Z M0,0" fill="rgb(0,131,0)" fill-opacity="0.25" stroke="rgb(0,255,0)" stroke-width="2" transform="matrix(-1.0,-1.2246467991473532e-16,-1.2246467991473532e-16,1.0,1600.0,1.1368683772161603e-13)"/>
 <path d="M0,0 l18.19,0 l0,10.23 l-18.19,0 Z M0,0" fill="rgb(0,175,255)" fill-opacity="0.25" stroke="rgb(0,255,255)" stroke-width="2" transform="matrix(1,0,0,-1,0,900)"/>
 <path d="M0,0 l18.19,0 l0,10.23 l-18.19,0 Z M0,0" fill="rgb(0,175,255)" fill-opacity="0.25" stroke="rgb(0,255,255)" stroke-width="2" transform="matrix(-1.0,-1.2246467991473532e-16,-1.2246467991473532e-16,1.0,1600.0,1.1368683772161603e-13)"/>
 <path d="M0,0 l10.39,0 l0,10.23 l-10.39,0 Z M0,0" fill="rgb(0,148,0)" fill-opacity="0.25" stroke="rgb(0,255,0)" stroke-width="2" transform="matrix(1,0,0,-1,0,900)"/>
 <path d="M0,0 l10.39,0 l0,10.23 l-10.39,0 Z M0,0" fill="rgb(0,148,0)" fill-opacity="0.25" stroke="rgb(0,255,0)" stroke-width="2" transform="matrix(-1.0,-1.2246467991473532e-16,-1.2246467991473532e-16,1.0,1600.0,1.1368683772161603e-13)"/>
 <path d="M0,0 l10.39,0 l0,5.85 l-10.39,0 Z M0,0" fill="rgb(0,198,255)" fill-opacity="0.25" stroke="rgb(0,255,255)" stroke-width="2" transform="matrix(1,0,0,-1,0,900)"/>
 <path d="M0,0 l10.39,0 l0,5.85 l-10.39,0 Z M0,0" fill="rgb(0,198,255)" fill-opacity="0.25" stroke="rgb(0,255,255)" stroke-width="2" transform="matrix(-1.0,-1.2246467991473532e-16,-1.2246467991473532e-16,1.0,1600.0,1.1368683772161603e-13)"/>
 <path d="M0,0 l5.94,0 l0,5.85 l-5.94,0 Z M0,0" fill="rgb(0,165,0)" fill-opacity="0.25" stroke="rgb(0,255,0)" stroke-width="2" transform="matrix(1,0,0,-1,0,900)"/>
 <path d="M0,0 l5.94,0 l0,5.85 l-5.94,0 Z M0,0" fill="rgb(0,165,0)" fill-opacity="0.25" stroke="rgb(0,255,0)" stroke-width="2" transform="matrix(-1.0,-1.2246467991473532e-16,-1.2246467991473532e-16,1.0,1600.0,1.1368683772161603e-13)"/>
 <path d="M0,0 l5.94,0 l0,3.34 l-5.94,0 Z M0,0" fill="rgb(0,221,255)" fill-opacity="0.25" stroke="rgb(0,255,255)" stroke-width="2" transform="matrix(1,0,0,-1,0,900)"/>
 <path d="M0,0 l5.94,0 l0,3.34 l-5.94,0 Z M0,0" fill="rgb(0,221,255)" fill-opacity="0.25" stroke="rgb(0,255,255)" stroke-width="2" transform="matrix(-1.0,-1.2246467991473532e-16,-1.2246467991473532e-16,1.0,1600.0,1.1368683772161603e-13)"/>
 <path d="M0,0 l3.39,0 l0,3.34 l-3.39,0 Z M0,0" fill="rgb(0,182,0)" fill-opacity="0.25" stroke="rgb(0,255,0)" stroke-width="2" transform="matrix(1,0,0,-1,0,900)"/>
 <path d="M0,0 l3.39,0 l0,3.34 l-3.39,0 Z M0,0" fill="rgb(0,182,0)" fill-opacity="0.25" stroke="rgb(0,255,0)" stroke-width="2" transform="matrix(-1.0,-1.2246467991473532e-16,-1.2246467991473532e-16,1.0,1600.0,1.1368683772161603e-13)"/>
 <path d="M0,0 l3.39,0 l0,1.91 l-3.39,0 Z M0,0" fill="rgb(0,243,255)" fill-opacity="0.25" stroke="rgb(0,255,255)" stroke-width="2" transform="matrix(1,0,0,-1,0,900)"/>
 <path d="M0,0 l3.39,0 l0,1.91 l-3.39,0 Z M0,0" fill="rgb(0,243,255)" fill-opacity="0.25" stroke="rgb(0,255,255)" stroke-width="2" transform="matrix(-1.0,-1.2246467991473532e-16,-1.2246467991473532e-16,1.0,1600.0,1.1368683772161603e-13)"/>
 <path d="M0,0 l1.94,0 l0,1.91 l-1.94,0 Z M0,0" fill="rgb(0,199,0)" fill-opacity="0.25" stroke="rgb(0,255,0)" stroke-width="2" transform="matrix(1,0,0,-1,0,900)"/>
 <path d="M0,0 l1.94,0 l0,1.91 l-1.94,0 Z M0,0" fill="rgb(0,199,0)" fill-opacity="0.25" stroke="rgb(0,255,0)" stroke-width="2" transform="matrix(-1.0,-1.2246467991473532e-16,-1.2246467991473532e-16,1.0,1600.0,1.1368683772161603e-13)"/>
 <path d="M0,0 l1.94,0 l0,1.09 l-1.94,0 Z M0,0" fill="rgb(0,255,255)" fill-opacity="0.25" stroke="rgb(0,255,255)" stroke-width="2" transform="matrix(1,0,0,-1,0,900)"/>
 <path d="M0,0 l1.94,0 l0,1.09 l-1.94,0 Z M0,0" fill="rgb(0,255,255)" fill-opacity="0.25" stroke="rgb(0,255,255)" stroke-width="2" transform="matrix(-1.0,-1.2246467991473532e-16,-1.2246467991473532e-16,1.0,1600.0,1.1368683772161603e-13)"/>
 <path d="M0,0 l1.11,0 l0,1.09 l-1.11,0 Z M0,0" fill="rgb(0,216,0)" fill-opacity="0.25" stroke="rgb(0,255,0)" stroke-width="2" transform="matrix(1,0,0,-1,0,900)"/>
 <path d="M0,0 l1.11,0 l0,1.09 l-1.11,0 Z M0,0" fill="rgb(0,216,0)" fill-opacity="0.25" stroke="rgb(0,255,0)" stroke-width="2" transform="matrix(-1.0,-1.2246467991473532e-16,-1.2246467991473532e-16,1.0,1600.0,1.1368683772161603e-13)"/>
 <path d="M0,0 l1.11,0 l0,0.62 l-1.11,0 Z M0,0" fill="rgb(0,255,255)" fill-opacity="0.25" stroke="rgb(0,255,255)" stroke-width="2" transform="matrix(1,0,0,-1,0,900)"/>
 <path d="M0,0 l1.11,0 l0,0.62 l-1.11,0 Z M0,0" fill="rgb(0,255,255)" fill-opacity="0.25" stroke="rgb(0,255,255)" stroke-width="2" transform="matrix(-1.0,-1.2246467991473532e-16,-1.2246467991473532e-16,1.0,1600.0,1.1368683772161603e-13)"/>
 <path d="M0,0 l0.63,0 l0,0.62 l-0.63,0 Z M0,0" fill="rgb(0,233,0)" fill-opacity="0.25" stroke="rgb(0,255,0)" stroke-width="2" transform="matrix(1,0,0,-1,0,900)"/>
 <path d="M0,0 l0.63,0 l0,0.62 l-0.63,0 Z M0,0" fill="rgb(0,233,0)" fill-opacity="0.25" stroke="rgb(0,255,0)" stroke-width="2" transform="matrix(-1.0,-1.2246467991473532e-16,-1.2246467991473532e-16,1.0,1600.0,1.1368683772161603e-13)"/>
 <path d="M0,0 l0.63,0 l0,0.36 l-0.63,0 Z M0,0" fill="rgb(0,255,255)" fill-opacity="0.25" stroke="rgb(0,255,255)" stroke-width="2" transform="matrix(1,0,0,-1,0,900)"/>
 <path d="M0,0 l0.63,0 l0,0.36 l-0.63,0 Z M0,0" fill="rgb(0,255,255)" fill-opacity="0.25" stroke="rgb(0,255,255)" stroke-width="2" transform="matrix(-1.0,-1.2246467991473532e-16,-1.2246467991473532e-16,1.0,1600.0,1.1368683772161603e-13)"/>
 <path d="M0,0 l0.36,0 l0,0.36 l-0.36,0 Z M0,0" fill="rgb(0,250,0)" fill-opacity="0.25" stroke="rgb(0,255,0)" stroke-width="2" transform="matrix(1,0,0,-1,0,900)"/>
 <path d="M0,0 l0.36,0 l0,0.36 l-0.36,0 Z M0,0" fill="rgb(0,250,0)" fill-opacity="0.25" stroke="rgb(0,255,0)" stroke-width="2" transform="matrix(-1.0,-1.2246467991473532e-16,-1.2246467991473532e-16,1.0,1600.0,1.1368683772161603e-13)"/>
 <path d="M0,0 l0.36,0 l0,0.2 l-0.36,0 Z M0,0" fill="rgb(0,255,255)" fill-opacity="0.25" stroke="rgb(0,255,255)" stroke-width="2" transform="matrix(1,0,0,-1,0,900)"/>
 <path d="M0,0 l0.36,0 l0,0.2 l-0.36,0 Z M0,0" fill="rgb(0,255,255)" fill-opacity="0.25" stroke="rgb(0,255,255)" stroke-width="2" transform="matrix(-1.0,-1.2246467991473532e-16,-1.2246467991473532e-16,1.0,1600.0,1.1368683772161603e-13)"/>
 <path d="M0,0 l0.21,0 l0,0.2 l-0.21,0 Z M0,0" fill="rgb(0,255,0)" fill-opacity="0.25" stroke="rgb(0,255,0)" stroke-width="2" transform="matrix(1,0,0,-1,0,900)"/>
 <path d="M0,0 l0.21,0 l0,0.2 l-0.21,0 Z M0,0" fill="rgb(0,255,0)" fill-opacity="0.25" stroke="rgb(0,255,0)" stroke-width="2" transform="matrix(-1.0,-1.2246467991473532e-16,-1.2246467991473532e-16,1.0,1600.0,1.1368683772161603e-13)"/>
 <path d="M0,0 l0.21,0 l0,0.12 l-0.21,0 Z M0,0" fill="rgb(0,255,255)" fill-opacity="0.25" stroke="rgb(0,255,255)" stroke-width="2" transform="matrix(1,0,0,-1,0,900)"/>
 <path d="M0,0 l0.21,0 l0,0.12 l-0.21,0 Z M0,0" fill="rgb(0,255,255)" fill-opacity="0.25" stroke="rgb(0,255,255)" stroke-width="2" transform="matrix(-1.0,-1.2246467991473532e-16,-1.2246467991473532e-16,1.0,1600.0,1.1368683772161603e-13)"/>
 <path d="M0,0 l0.12,0 l0,0.12 l-0.12,0 Z M0,0" fill="rgb(0,255,0)" fill-opacity="0.25" stroke="rgb(0,255,0)" stroke-width="2" transform="matrix(1,0,0,-1,0,900)"/>
 <path d="M0,0 l0.12,0 l0,0.12 l-0.12,0 Z M0,0" fill="rgb(0,255,0)" fill-opacity="0.25" stroke="rgb(0,255,0)" stroke-width="2" transform="matrix(-1.0,-1.2246467991473532e-16,-1.2246467991473532e-16,1.0,1600.0,1.1368683772161603e-13)"/>
 <path d="M0,0 l0.12,0 l0,0.07 l-0.12,0 Z M0,0" fill="rgb(0,255,255)" fill-opacity="0.25" stroke="rgb(0,255,255)" stroke-width="2" transform="matrix(1,0,0,-1,0,900)"/>
 <path d="M0,0 l0.12,0 l0,0.07 l-0.12,0 Z M0,0" fill="rgb(0,255,255)" fill-opacity="0.25" stroke="rgb(0,255,255)" stroke-width="2" transform="matrix(-1.0,-1.2246467991473532e-16,-1.2246467991473532e-16,1.0,1600.0,1.1368683772161603e-13)"/>
</svg>