<?xml version="1.0" encoding="UTF-8"?>
<svg height="500" version="1.1" width="600" xmlns="http://www.w3.org/2000/svg" xmlns:xlink="http://www.w3.org/1999/xlink">
 <path d="M0,0 l600,0 l0,500 l-600,0 Z M0,0" fill="rgb(27,28,35)" transform="matrix(1,0,0,-1,0,500)"/>
 <path d="M100,374 c0,-6,0,-12,0,-19 c0,-59.46,8.0,-93.0,26,-111 c15,-15,35,-20,81,-20 l298,0 c4,21,7,44,7,63 c0,66,-17,87,-73,87 Z M100,374" fill="rgb(83,59,230)" fill-opacity="0.3" stroke="rgb(83,59,230)" stroke-linecap="round" stroke-opacity="0.75" stroke-width="2" transform="matrix(1,0,0,-1,-90,714)"/>
 <path d="M103.54,370.46 c1.95,1.95,1.95,5.12,0,7.07 c-1.95,1.95,-5.12,1.95,-7.07,0.0 c-1.95,-1.95,-1.95,-5.12,0,-7.07 c1.95,-1.95,5.12,-1.95,7.07,-0.0 Z M103.54,370.46" fill="rgb(255,255,255)" fill-opacity="0.5" stroke="rgb(255,255,255)" stroke-linecap="round" stroke-width="2" transform="matrix(1,0,0,-1,-90,714)"/>
 <path d="M103.54,351.46 c1.95,1.95,1.95,5.12,0,7.07 c-1.95,1.95,-5.12,1.95,-7.07,0.0 c-1.95,-1.95,-1.95,-5.12,0,-7.07 c1.95,-1.95,5.12,-1.95,7.07,-0.0 Z M103.54,351.46" fill="rgb(255,255,255)" fill-opacity="0.5" stroke="rgb(255,255,255)" stroke-linecap="round" stroke-width="2" transform="matrix(1,0,0,-1,-90,714)"/>
 <path d="M129.54,240.46 c1.95,1.95,1.95,5.12,0,7.07 c-1.95,1.95,-5.12,1.95,-7.07,0 c-1.95,-1.95,-1.95,-5.12,0,-7.07 c1.95,-1.95,5.12,-1.95,7.07,0 Z M129.54,240.46" fill="rgb(255,255,255)" fill-opacity="0.5" stroke="rgb(255,255,255)" stroke-linecap="round" stroke-width="2" transform="matrix(1,0,0,-1,-90,714)"/>
 <path d="M210.54,220.46 c1.95,1.95,1.95,5.12,0,7.07 c-1.95,1.95,-5.12,1.95,-7.07,0 c-1.95,-1.95,-1.95,-5.12,0,-7.07 c1.95,-1.95,5.12,-1.95,7.07,0 Z M210.54,220.46" fill="rgb(255,255,255)" fill-opacity="0.5" stroke="rgb(255,255,255)" stroke-linecap="round" stroke-width="2" transform="matrix(1,0,0,-1,-90,714)"/>
 <path d="M508.54,220.46 c1.95,1.95,1.95,5.12,0,7.07 c-1.95,1.95,-5.12,1.95,-7.07,0 c-1.95,-1.95,-1.95,-5.12,-0.0,-7.07 c1.95,-1.95,5.12,-1.95,7.07,0 Z M508.54,220.46" fill="rgb(255,255,255)" fill-opacity="0.5" stroke="rgb(255,255,255)" stroke-linecap="round" stroke-width="2" transform="matrix(1,0,0,-1,-90,714)"/>
 <path d="M515.54,283.46 c1.95,1.95,1.95,5.12,0,7.07 c-1.95,1.95,-5.12,1.95,-7.07,0.0 c-1.95,-1.95,-1.95,-5.12,-0.0,-7.07 c1.95,-1.95,5.12,-1.95,7.07,-0.0 Z M515.54,283.46" fill="rgb(255,255,255)" fill-opacity="0.5" stroke="rgb(255,255,255)" stroke-linecap="round" stroke-width="2" transform="matrix(1,0,0,-1,-90,714)"/>
 <path d="M442.54,370.46 c1.95,1.95,1.95,5.12,0,7.07 c-1.95,1.95,-5.12,1.95,-7.07,0.0 c-1.95,-1.95,-1.95,-5.12,-0.0,-7.07 c1.95,-1.95,5.12,-1.95,7.07,-0.0 Z M442.54,370.46" fill="rgb(255,255,255)" fill-opacity="0.5" stroke="rgb(255,255,255)" stroke-linecap="round" stroke-width="2" transform="matrix(1,0,0,-1,-90,714)"/>
 <path d="M110,371 c0,-46,0,-86,0,-132 c0,-3,1,-6,3,-8 c2,-2,5,-3,8,-3 l369,0 c0,46,0,86,0,132 c0,6,-5,11,-11,11 Z M110,371" fill="rgb(210,46,237)" fill-opacity="0.0" stroke="rgb(210,46,237)" stroke-linecap="round" stroke-opacity="0.0" stroke-width="2" transform="matrix(1,0,0,-1,200,262)"/>
 <path d="M10,160 l200,330" fill="rgb(27,28,35)" stroke="rgb(191,191,191)" stroke-dasharray="4" stroke-linecap="round" stroke-opacity="0.75" stroke-width="2" transform="matrix(1,0,0,-1,0,500)"/>
 <path d="M10,141 l200,217" fill="rgb(27,28,35)" stroke="rgb(191,191,191)" stroke-dasharray="4" stroke-linecap="round" stroke-opacity="0.75" stroke-width="2" transform="matrix(1,0,0,-1,0,500)"/>
 <path d="M36,30 l177,320" fill="rgb(27,28,35)" stroke="rgb(191,191,191)" stroke-dasharray="4" stroke-linecap="round" stroke-opacity="0.75" stroke-width="2" transform="matrix(1,0,0,-1,0,500)"/>
 <path d="M117,10 l104,337" fill="rgb(27,28,35)" stroke="rgb(191,191,191)" stroke-dasharray="4" stroke-linecap="round" stroke-opacity="0.75" stroke-width="2" transform="matrix(1,0,0,-1,0,500)"/>
 <path d="M415,10 l175,337" fill="rgb(27,28,35)" stroke="rgb(191,191,191)" stroke-dasharray="4" stroke-linecap="round" stroke-opacity="0.75" stroke-width="2" transform="matrix(1,0,0,-1,0,500)"/>
 <path d="M422,73 l168,406" fill="rgb(27,28,35)" stroke="rgb(191,191,191)" stroke-dasharray="4" stroke-linecap="round" stroke-opacity="0.75" stroke-width="2" transform="matrix(1,0,0,-1,0,500)"/>
 <path d="M349,160 l230,330" fill="rgb(27,28,35)" stroke="rgb(191,191,191)" stroke-dasharray="4" stroke-linecap="round" stroke-opacity="0.75" stroke-width="2" transform="matrix(1,0,0,-1,0,500)"/>
 <path d="M10,160 l200,330" fill="rgb(27,28,35)" stroke="rgb(191,191,191)" stroke-dasharray="4" stroke-linecap="round" stroke-opacity="0.25" stroke-width="2" transform="matrix(1,0,0,-1,0,500)"/>
 <path d="M10,154 l200,290" fill="rgb(27,28,35)" stroke="rgb(191,191,191)" stroke-dasharray="4" stroke-linecap="round" stroke-opacity="0.25" stroke-width="2" transform="matrix(1,0,0,-1,0,500)"/>
 <path d="M10,148 l200,256" fill="rgb(27,28,35)" stroke="rgb(191,191,191)" stroke-dasharray="4" stroke-linecap="round" stroke-opacity="0.25" stroke-width="2" transform="matrix(1,0,0,-1,0,500)"/>
 <path d="M10,81.54 l200,273.46" fill="rgb(27,28,35)" stroke="rgb(191,191,191)" stroke-dasharray="4" stroke-linecap="round" stroke-opacity="0.25" stroke-width="2" transform="matrix(1,0,0,-1,0,500)"/>
 <path d="M18.0,48.0 l193.0,304.0" fill="rgb(27,28,35)" stroke="rgb(191,191,191)" stroke-dasharray="4" stroke-linecap="round" stroke-opacity="0.25" stroke-width="2" transform="matrix(1,0,0,-1,0,500)"/>
 <path d="M51,15 l164,333" fill="rgb(27,28,35)" stroke="rgb(191,191,191)" stroke-dasharray="4" stroke-linecap="round" stroke-opacity="0.25" stroke-width="2" transform="matrix(1,0,0,-1,0,500)"/>
 <path d="M71,10 l147,337" fill="rgb(27,28,35)" stroke="rgb(191,191,191)" stroke-dasharray="4" stroke-linecap="round" stroke-opacity="0.25" stroke-width="2" transform="matrix(1,0,0,-1,0,500)"/>
 <path d="M117,10 l104,337" fill="rgb(27,28,35)" stroke="rgb(191,191,191)" stroke-dasharray="4" stroke-linecap="round" stroke-opacity="0.25" stroke-width="2" transform="matrix(1,0,0,-1,0,500)"/>
 <path d="M415,10 l175,337" fill="rgb(27,28,35)" stroke="rgb(191,191,191)" stroke-dasharray="4" stroke-linecap="round" stroke-opacity="0.25" stroke-width="2" transform="matrix(1,0,0,-1,0,500)"/>
 <path d="M419,31 l171,362" fill="rgb(27,28,35)" stroke="rgb(191,191,191)" stroke-dasharray="4" stroke-linecap="round" stroke-opacity="0.25" stroke-width="2" transform="matrix(1,0,0,-1,0,500)"/>
 <path d="M422,54 l168,379" fill="rgb(27,28,35)" stroke="rgb(191,191,191)" stroke-dasharray="4" stroke-linecap="round" stroke-opacity="0.25" stroke-width="2" transform="matrix(1,0,0,-1,0,500)"/>
 <path d="M422,139 l168,346" fill="rgb(27,28,35)" stroke="rgb(191,191,191)" stroke-dasharray="4" stroke-linecap="round" stroke-opacity="0.25" stroke-width="2" transform="matrix(1,0,0,-1,0,500)"/>
 <path d="M405,160 l180,330" fill="rgb(27,28,35)" stroke="rgb(191,191,191)" stroke-dasharray="4" stroke-linecap="round" stroke-opacity="0.25" stroke-width="2" transform="matrix(1,0,0,-1,0,500)"/>
 <path d="M349,160 l230,330" fill="rgb(27,28,35)" stroke="rgb(191,191,191)" stroke-dasharray="4" stroke-linecap="round" stroke-opacity="0.25" stroke-width="2" transform="matrix(1,0,0,-1,0,500)"/>
 <path d="M100,374 c0,-6,0,-12,0,-19 c0,-59.46,8.0,-93.0,26,-111 c15,-15,35,-20,81,-20 l298,0 c4,21,7,44,7,63 c0,66,-17,87,-73,87 Z M100,374" fill="rgb(83,59,230)" fill-opacity="0.0" stroke="rgb(83,59,230)" stroke-dasharray="0" stroke-linecap="round" stroke-opacity="0.0" stroke-width="2" transform="matrix(1,0,0,-1,-90,714)"/>
 <path d="M103.54,370.46 c1.95,1.95,1.95,5.12,0,7.07 c-1.95,1.95,-5.12,1.95,-7.07,0.0 c-1.95,-1.95,-1.95,-5.12,0,-7.07 c1.95,-1.95,5.12,-1.95,7.07,-0.0 Z M103.54,370.46" fill="rgb(255,0,255)" stroke="rgb(255,255,255)" stroke-dasharray="0" stroke-linecap="round" stroke-width="2" transform="matrix(1,0,0,-1,-90,714)"/>
 <path d="M101.06,366.94 c0.59,0.59,0.59,1.54,0,2.12 c-0.59,0.59,-1.54,0.59,-2.12,0 c-0.59,-0.59,-0.59,-1.54,0,-2.12 c0.59,-0.59,1.54,-0.59,2.12,0 Z M101.06,366.94" fill="rgb(255,255,255)" fill-opacity="0.5" stroke="rgb(255,255,255)" stroke-dasharray="0" stroke-linecap="round" stroke-width="3" transform="matrix(1,0,0,-1,-90,714)"/>
 <path d="M100,374 l0,0" fill="rgb(255,255,255)" fill-opacity="0.5" stroke="rgb(255,255,255)" stroke-dasharray="0" stroke-linecap="round" stroke-width="2" transform="matrix(1,0,0,-1,-90,714)"/>
 <path d="M100,374 l0,-6" fill="rgb(255,255,255)" fill-opacity="0.5" stroke="rgb(255,255,255)" stroke-dasharray="0" stroke-linecap="round" stroke-width="2" transform="matrix(1,0,0,-1,-90,714)"/>
 <path d="M103.54,351.46 c1.95,1.95,1.95,5.12,0,7.07 c-1.95,1.95,-5.12,1.95,-7.07,0.0 c-1.95,-1.95,-1.95,-5.12,0,-7.07 c1.95,-1.95,5.12,-1.95,7.07,-0.0 Z M103.54,351.46" fill="rgb(255,0,255)" stroke="rgb(255,255,255)" stroke-dasharray="0" stroke-linecap="round" stroke-width="2" transform="matrix(1,0,0,-1,-90,714)"/>
 <path d="M101.06,360.94 c0.59,0.59,0.59,1.54,0,2.12 c-0.59,0.59,-1.54,0.59,-2.12,0 c-0.59,-0.59,-0.59,-1.54,0,-2.12 c0.59,-0.59,1.54,-0.59,2.12,0 Z M101.06,360.94" fill="rgb(255,255,255)" fill-opacity="0.5" stroke="rgb(255,255,255)" stroke-dasharray="0" stroke-linecap="round" stroke-width="3" transform="matrix(1,0,0,-1,-90,714)"/>
 <path d="M101.06,294.48 c0.59,0.59,0.59,1.54,0,2.12 c-0.59,0.59,-1.54,0.59,-2.12,0 c-0.59,-0.59,-0.59,-1.54,0,-2.12 c0.59,-0.59,1.54,-0.59,2.12,0 Z M101.06,294.48" fill="rgb(255,255,255)" fill-opacity="0.5" stroke="rgb(255,255,255)" stroke-dasharray="0" stroke-linecap="round" stroke-width="3" transform="matrix(1,0,0,-1,-90,714)"/>
 <path d="M100,355 l0,7" fill="rgb(255,255,255)" fill-opacity="0.5" stroke="rgb(255,255,255)" stroke-dasharray="0" stroke-linecap="round" stroke-width="2" transform="matrix(1,0,0,-1,-90,714)"/>
 <path d="M100,355 l0,-59.46" fill="rgb(255,255,255)" fill-opacity="0.5" stroke="rgb(255,255,255)" stroke-dasharray="0" stroke-linecap="round" stroke-width="2" transform="matrix(1,0,0,-1,-90,714)"/>
 <path d="M129.54,240.46 c1.95,1.95,1.95,5.12,0,7.07 c-1.95,1.95,-5.12,1.95,-7.07,0 c-1.95,-1.95,-1.95,-5.12,0,-7.07 c1.95,-1.95,5.12,-1.95,7.07,0 Z M129.54,240.46" fill="rgb(255,0,255)" stroke="rgb(255,255,255)" stroke-dasharray="0" stroke-linecap="round" stroke-width="2" transform="matrix(1,0,0,-1,-90,714)"/>
 <path d="M109.06,260.94 c0.59,0.59,0.59,1.54,0,2.12 c-0.59,0.59,-1.54,0.59,-2.12,0 c-0.59,-0.59,-0.59,-1.54,0,-2.12 c0.59,-0.59,1.54,-0.59,2.12,0 Z M109.06,260.94" fill="rgb(255,255,255)" fill-opacity="0.5" stroke="rgb(255,255,255)" stroke-dasharray="0" stroke-linecap="round" stroke-width="3" transform="matrix(1,0,0,-1,-90,714)"/>
 <path d="M142.06,227.94 c0.59,0.59,0.59,1.54,0,2.12 c-0.59,0.59,-1.54,0.59,-2.12,0 c-0.59,-0.59,-0.59,-1.54,0,-2.12 c0.59,-0.59,1.54,-0.59,2.12,0 Z M142.06,227.94" fill="rgb(255,255,255)" fill-opacity="0.5" stroke="rgb(255,255,255)" stroke-dasharray="0" stroke-linecap="round" stroke-width="3" transform="matrix(1,0,0,-1,-90,714)"/>
 <path d="M126,244 l-18.0,18.0" fill="rgb(255,255,255)" fill-opacity="0.5" stroke="rgb(255,255,255)" stroke-dasharray="0" stroke-linecap="round" stroke-width="2" transform="matrix(1,0,0,-1,-90,714)"/>
 <path d="M126,244 l15,-15" fill="rgb(255,255,255)" fill-opacity="0.5" stroke="rgb(255,255,255)" stroke-dasharray="0" stroke-linecap="round" stroke-width="2" transform="matrix(1,0,0,-1,-90,714)"/>
 <path d="M210.54,220.46 c1.95,1.95,1.95,5.12,0,7.07 c-1.95,1.95,-5.12,1.95,-7.07,0 c-1.95,-1.95,-1.95,-5.12,0,-7.07 c1.95,-1.95,5.12,-1.95,7.07,0 Z M210.54,220.46" fill="rgb(255,0,255)" stroke="rgb(255,255,255)" stroke-dasharray="0" stroke-linecap="round" stroke-width="2" transform="matrix(1,0,0,-1,-90,714)"/>
 <path d="M162.06,222.94 c0.59,0.59,0.59,1.54,0,2.12 c-0.59,0.59,-1.54,0.59,-2.12,0 c-0.59,-0.59,-0.59,-1.54,0,-2.12 c0.59,-0.59,1.54,-0.59,2.12,0 Z M162.06,222.94" fill="rgb(255,255,255)" fill-opacity="0.5" stroke="rgb(255,255,255)" stroke-dasharray="0" stroke-linecap="round" stroke-width="3" transform="matrix(1,0,0,-1,-90,714)"/>
 <path d="M207,224 l-46,0" fill="rgb(255,255,255)" fill-opacity="0.5" stroke="rgb(255,255,255)" stroke-dasharray="0" stroke-linecap="round" stroke-width="2" transform="matrix(1,0,0,-1,-90,714)"/>
 <path d="M207,224 l0,0" fill="rgb(255,255,255)" fill-opacity="0.5" stroke="rgb(255,255,255)" stroke-dasharray="0" stroke-linecap="round" stroke-width="2" transform="matrix(1,0,0,-1,-90,714)"/>
 <path d="M508.54,220.46 c1.95,1.95,1.95,5.12,0,7.07 c-1.95,1.95,-5.12,1.95,-7.07,0 c-1.95,-1.95,-1.95,-5.12,-0.0,-7.07 c1.95,-1.95,5.12,-1.95,7.07,0 Z M508.54,220.46" fill="rgb(255,0,255)" stroke="rgb(255,255,255)" stroke-dasharray="0" stroke-linecap="round" stroke-width="2" transform="matrix(1,0,0,-1,-90,714)"/>
 <path d="M510.06,243.94 c0.59,0.59,0.59,1.54,0,2.12 c-0.59,0.59,-1.54,0.59,-2.12,0 c-0.59,-0.59,-0.59,-1.54,0,-2.12 c0.59,-0.59,1.54,-0.59,2.12,0 Z M510.06,243.94" fill="rgb(255,255,255)" fill-opacity="0.5" stroke="rgb(255,255,255)" stroke-dasharray="0" stroke-linecap="round" stroke-width="3" transform="matrix(1,0,0,-1,-90,714)"/>
 <path d="M505,224 l0,0" fill="rgb(255,255,255)" fill-opacity="0.5" stroke="rgb(255,255,255)" stroke-dasharray="0" stroke-linecap="round" stroke-width="2" transform="matrix(1,0,0,-1,-90,714)"/>
 <path d="M505,224 l4,21" fill="rgb(255,255,255)" fill-opacity="0.5" stroke="rgb(255,255,255)" stroke-dasharray="0" stroke-linecap="round" stroke-width="2" transform="matrix(1,0,0,-1,-90,714)"/>
 <path d="M515.54,283.46 c1.95,1.95,1.95,5.12,0,7.07 c-1.95,1.95,-5.12,1.95,-7.07,0.0 c-1.95,-1.95,-1.95,-5.12,-0.0,-7.07 c1.95,-1.95,5.12,-1.95,7.07,-0.0 Z M515.54,283.46" fill="rgb(255,0,255)" stroke="rgb(255,255,255)" stroke-dasharray="0" stroke-linecap="round" stroke-width="2" transform="matrix(1,0,0,-1,-90,714)"/>
 <path d="M513.06,266.94 c0.59,0.59,0.59,1.54,0,2.12 c-0.59,0.59,-1.54,0.59,-2.12,0 c-0.59,-0.59,-0.59,-1.54,0,-2.12 c0.59,-0.59,1.54,-0.59,2.12,0 Z M513.06,266.94" fill="rgb(255,255,255)" fill-opacity="0.5" stroke="rgb(255,255,255)" stroke-dasharray="0" stroke-linecap="round" stroke-width="3" transform="matrix(1,0,0,-1,-90,714)"/>
 <path d="M513.06,351.94 c0.59,0.59,0.59,1.54,0,2.12 c-0.59,0.59,-1.54,0.59,-2.12,0 c-0.59,-0.59,-0.59,-1.54,0,-2.12 c0.59,-0.59,1.54,-0.59,2.12,0 Z M513.06,351.94" fill="rgb(255,255,255)" fill-opacity="0.5" stroke="rgb(255,255,255)" stroke-dasharray="0" stroke-linecap="round" stroke-width="3" transform="matrix(1,0,0,-1,-90,714)"/>
 <path d="M512,287 l0,-19" fill="rgb(255,255,255)" fill-opacity="0.5" stroke="rgb(255,255,255)" stroke-dasharray="0" stroke-linecap="round" stroke-width="2" transform="matrix(1,0,0,-1,-90,714)"/>
 <path d="M512,287 l0,66" fill="rgb(255,255,255)" fill-opacity="0.5" stroke="rgb(255,255,255)" stroke-dasharray="0" stroke-linecap="round" stroke-width="2" transform="matrix(1,0,0,-1,-90,714)"/>
 <path d="M442.54,370.46 c1.95,1.95,1.95,5.12,0,7.07 c-1.95,1.95,-5.12,1.95,-7.07,0.0 c-1.95,-1.95,-1.95,-5.12,-0.0,-7.07 c1.95,-1.95,5.12,-1.95,7.07,-0.0 Z M442.54,370.46" fill="rgb(255,0,255)" stroke="rgb(255,255,255)" stroke-dasharray="0" stroke-linecap="round" stroke-width="2" transform="matrix(1,0,0,-1,-90,714)"/>
 <path d="M496.06,372.94 c0.59,0.59,0.59,1.54,0,2.12 c-0.59,0.59,-1.54,0.59,-2.12,0 c-0.59,-0.59,-0.59,-1.54,0,-2.12 c0.59,-0.59,1.54,-0.59,2.12,0 Z M496.06,372.94" fill="rgb(255,255,255)" fill-opacity="0.5" stroke="rgb(255,255,255)" stroke-dasharray="0" stroke-linecap="round" stroke-width="3" transform="matrix(1,0,0,-1,-90,714)"/>
 <path d="M439,374 l56,0" fill="rgb(255,255,255)" fill-opacity="0.5" stroke="rgb(255,255,255)" stroke-dasharray="0" stroke-linecap="round" stroke-width="2" transform="matrix(1,0,0,-1,-90,714)"/>
 <path d="M439,374 l0,0" fill="rgb(255,255,255)" fill-opacity="0.5" stroke="rgb(255,255,255)" stroke-dasharray="0" stroke-linecap="round" stroke-width="2" transform="matrix(1,0,0,-1,-90,714)"/>
 <path d="M110,371 c0,-46,0,-86,0,-132 c0,-3,1,-6,3,-8 c2,-2,5,-3,8,-3 l369,0 c0,46,0,86,0,132 c0,6,-5,11,-11,11 Z M110,371" fill="rgb(240,164,63)" fill-opacity="0.35" stroke="rgb(240,164,63)" stroke-dasharray="0" stroke-linecap="round" stroke-width="2" transform="matrix(1,0,0,-1,100,381)"/>
 <path d="M113.54,367.46 c1.95,1.95,1.95,5.12,0,7.07 c-1.95,1.95,-5.12,1.95,-7.07,0.0 c-1.95,-1.95,-1.95,-5.12,0,-7.07 c1.95,-1.95,5.12,-1.95,7.07,-0.0 Z M113.54,367.46" fill="rgb(255,0,255)" stroke="rgb(255,255,255)" stroke-dasharray="0" stroke-linecap="round" stroke-width="2" transform="matrix(1,0,0,-1,100,381)"/>
 <path d="M111.06,323.94 c0.59,0.59,0.59,1.54,0,2.12 c-0.59,0.59,-1.54,0.59,-2.12,0 c-0.59,-0.59,-0.59,-1.54,0,-2.12 c0.59,-0.59,1.54,-0.59,2.12,0 Z M111.06,323.94" fill="rgb(255,255,255)" fill-opacity="0.5" stroke="rgb(255,255,255)" stroke-dasharray="0" stroke-linecap="round" stroke-width="3" transform="matrix(1,0,0,-1,100,381)"/>
 <path d="M110,371 l0,0" fill="rgb(255,255,255)" fill-opacity="0.5" stroke="rgb(255,255,255)" stroke-dasharray="0" stroke-linecap="round" stroke-width="2" transform="matrix(1,0,0,-1,100,381)"/>
 <path d="M110,371 l0,-46" fill="rgb(255,255,255)" fill-opacity="0.5" stroke="rgb(255,255,255)" stroke-dasharray="0" stroke-linecap="round" stroke-width="2" transform="matrix(1,0,0,-1,100,381)"/>
 <path d="M113.54,235.46 c1.95,1.95,1.95,5.12,0,7.07 c-1.95,1.95,-5.12,1.95,-7.07,0 c-1.95,-1.95,-1.95,-5.12,0,-7.07 c1.95,-1.95,5.12,-1.95,7.07,0 Z M113.54,235.46" fill="rgb(255,0,255)" stroke="rgb(255,255,255)" stroke-dasharray="0" stroke-linecap="round" stroke-width="2" transform="matrix(1,0,0,-1,100,381)"/>
 <path d="M111.06,283.94 c0.59,0.59,0.59,1.54,0,2.12 c-0.59,0.59,-1.54,0.59,-2.12,0 c-0.59,-0.59,-0.59,-1.54,0,-2.12 c0.59,-0.59,1.54,-0.59,2.12,0 Z M111.06,283.94" fill="rgb(255,255,255)" fill-opacity="0.5" stroke="rgb(255,255,255)" stroke-dasharray="0" stroke-linecap="round" stroke-width="3" transform="matrix(1,0,0,-1,100,381)"/>
 <path d="M111.06,234.94 c0.59,0.59,0.59,1.54,0,2.12 c-0.59,0.59,-1.54,0.59,-2.12,0 c-0.59,-0.59,-0.59,-1.54,0,-2.12 c0.59,-0.59,1.54,-0.59,2.12,0 Z M111.06,234.94" fill="rgb(255,255,255)" fill-opacity="0.5" stroke="rgb(255,255,255)" stroke-dasharray="0" stroke-linecap="round" stroke-width="3" transform="matrix(1,0,0,-1,100,381)"/>
 <path d="M110,239 l0,46" fill="rgb(255,255,255)" fill-opacity="0.5" stroke="rgb(255,255,255)" stroke-dasharray="0" stroke-linecap="round" stroke-width="2" transform="matrix(1,0,0,-1,100,381)"/>
 <path d="M110,239 l0,-3" fill="rgb(255,255,255)" fill-opacity="0.5" stroke="rgb(255,255,255)" stroke-dasharray="0" stroke-linecap="round" stroke-width="2" transform="matrix(1,0,0,-1,100,381)"/>
 <path d="M116.54,227.46 c1.95,1.95,1.95,5.12,0,7.07 c-1.95,1.95,-5.12,1.95,-7.07,0 c-1.95,-1.95,-1.95,-5.12,0,-7.07 c1.95,-1.95,5.12,-1.95,7.07,0 Z M116.54,227.46" fill="rgb(255,0,255)" stroke="rgb(255,255,255)" stroke-dasharray="0" stroke-linecap="round" stroke-width="2" transform="matrix(1,0,0,-1,100,381)"/>
 <path d="M112.06,231.94 c0.59,0.59,0.59,1.54,0,2.12 c-0.59,0.59,-1.54,0.59,-2.12,0 c-0.59,-0.59,-0.59,-1.54,0,-2.12 c0.59,-0.59,1.54,-0.59,2.12,0 Z M112.06,231.94" fill="rgb(255,255,255)" fill-opacity="0.5" stroke="rgb(255,255,255)" stroke-dasharray="0" stroke-linecap="round" stroke-width="3" transform="matrix(1,0,0,-1,100,381)"/>
 <path d="M116.06,227.94 c0.59,0.59,0.59,1.54,0,2.12 c-0.59,0.59,-1.54,0.59,-2.12,0 c-0.59,-0.59,-0.59,-1.54,0,-2.12 c0.59,-0.59,1.54,-0.59,2.12,0 Z M116.06,227.94" fill="rgb(255,255,255)" fill-opacity="0.5" stroke="rgb(255,255,255)" stroke-dasharray="0" stroke-linecap="round" stroke-width="3" transform="matrix(1,0,0,-1,100,381)"/>
 <path d="M113,231 l-2,2" fill="rgb(255,255,255)" fill-opacity="0.5" stroke="rgb(255,255,255)" stroke-dasharray="0" stroke-linecap="round" stroke-width="2" transform="matrix(1,0,0,-1,100,381)"/>
 <path d="M113,231 l2,-2" fill="rgb(255,255,255)" fill-opacity="0.5" stroke="rgb(255,255,255)" stroke-dasharray="0" stroke-linecap="round" stroke-width="2" transform="matrix(1,0,0,-1,100,381)"/>
 <path d="M124.54,224.46 c1.95,1.95,1.95,5.12,0,7.07 c-1.95,1.95,-5.12,1.95,-7.07,0 c-1.95,-1.95,-1.95,-5.12,0,-7.07 c1.95,-1.95,5.12,-1.95,7.07,0 Z M124.54,224.46" fill="rgb(255,0,255)" stroke="rgb(255,255,255)" stroke-dasharray="0" stroke-linecap="round" stroke-width="2" transform="matrix(1,0,0,-1,100,381)"/>
 <path d="M119.06,226.94 c0.59,0.59,0.59,1.54,0,2.12 c-0.59,0.59,-1.54,0.59,-2.12,0 c-0.59,-0.59,-0.59,-1.54,0,-2.12 c0.59,-0.59,1.54,-0.59,2.12,0 Z M119.06,226.94" fill="rgb(255,255,255)" fill-opacity="0.5" stroke="rgb(255,255,255)" stroke-dasharray="0" stroke-linecap="round" stroke-width="3" transform="matrix(1,0,0,-1,100,381)"/>
 <path d="M121,228 l-3,0" fill="rgb(255,255,255)" fill-opacity="0.5" stroke="rgb(255,255,255)" stroke-dasharray="0" stroke-linecap="round" stroke-width="2" transform="matrix(1,0,0,-1,100,381)"/>
 <path d="M121,228 l0,0" fill="rgb(255,255,255)" fill-opacity="0.5" stroke="rgb(255,255,255)" stroke-dasharray="0" stroke-linecap="round" stroke-width="2" transform="matrix(1,0,0,-1,100,381)"/>
 <path d="M493.54,224.46 c1.95,1.95,1.95,5.12,0,7.07 c-1.95,1.95,-5.12,1.95,-7.07,0 c-1.95,-1.95,-1.95,-5.12,-0.0,-7.07 c1.95,-1.95,5.12,-1.95,7.07,0 Z M493.54,224.46" fill="rgb(255,0,255)" stroke="rgb(255,255,255)" stroke-dasharray="0" stroke-linecap="round" stroke-width="2" transform="matrix(1,0,0,-1,100,381)"/>
 <path d="M491.06,272.94 c0.59,0.59,0.59,1.54,0,2.12 c-0.59,0.59,-1.54,0.59,-2.12,0 c-0.59,-0.59,-0.59,-1.54,0,-2.12 c0.59,-0.59,1.54,-0.59,2.12,0 Z M491.06,272.94" fill="rgb(255,255,255)" fill-opacity="0.5" stroke="rgb(255,255,255)" stroke-dasharray="0" stroke-linecap="round" stroke-width="3" transform="matrix(1,0,0,-1,100,381)"/>
 <path d="M490,228 l0,0" fill="rgb(255,255,255)" fill-opacity="0.5" stroke="rgb(255,255,255)" stroke-dasharray="0" stroke-linecap="round" stroke-width="2" transform="matrix(1,0,0,-1,100,381)"/>
 <path d="M490,228 l0,46" fill="rgb(255,255,255)" fill-opacity="0.5" stroke="rgb(255,255,255)" stroke-dasharray="0" stroke-linecap="round" stroke-width="2" transform="matrix(1,0,0,-1,100,381)"/>
 <path d="M493.54,356.46 c1.95,1.95,1.95,5.12,0,7.07 c-1.95,1.95,-5.12,1.95,-7.07,0.0 c-1.95,-1.95,-1.95,-5.12,-0.0,-7.07 c1.95,-1.95,5.12,-1.95,7.07,-0.0 Z M493.54,356.46" fill="rgb(255,0,255)" stroke="rgb(255,255,255)" stroke-dasharray="0" stroke-linecap="round" stroke-width="2" transform="matrix(1,0,0,-1,100,381)"/>
 <path d="M491.06,312.94 c0.59,0.59,0.59,1.54,0,2.12 c-0.59,0.59,-1.54,0.59,-2.12,0 c-0.59,-0.59,-0.59,-1.54,0,-2.12 c0.59,-0.59,1.54,-0.59,2.12,0 Z M491.06,312.94" fill="rgb(255,255,255)" fill-opacity="0.5" stroke="rgb(255,255,255)" stroke-dasharray="0" stroke-linecap="round" stroke-width="3" transform="matrix(1,0,0,-1,100,381)"/>
 <path d="M491.06,364.94 c0.59,0.59,0.59,1.54,0,2.12 c-0.59,0.59,-1.54,0.59,-2.12,0 c-0.59,-0.59,-0.59,-1.54,0,-2.12 c0.59,-0.59,1.54,-0.59,2.12,0 Z M491.06,364.94" fill="rgb(255,255,255)" fill-opacity="0.5" stroke="rgb(255,255,255)" stroke-dasharray="0" stroke-linecap="round" stroke-width="3" transform="matrix(1,0,0,-1,100,381)"/>
 <path d="M490,360 l0,-46" fill="rgb(255,255,255)" fill-opacity="0.5" stroke="rgb(255,255,255)" stroke-dasharray="0" stroke-linecap="round" stroke-width="2" transform="matrix(1,0,0,-1,100,381)"/>
 <path d="M490,360 l0,6" fill="rgb(255,255,255)" fill-opacity="0.5" stroke="rgb(255,255,255)" stroke-dasharray="0" stroke-linecap="round" stroke-width="2" transform="matrix(1,0,0,-1,100,381)"/>
 <path d="M482.54,367.46 c1.95,1.95,1.95,5.12,0,7.07 c-1.95,1.95,-5.12,1.95,-7.07,0.0 c-1.95,-1.95,-1.95,-5.12,-0.0,-7.07 c1.95,-1.95,5.12,-1.95,7.07,-0.0 Z M482.54,367.46" fill="rgb(255,0,255)" stroke="rgb(255,255,255)" stroke-dasharray="0" stroke-linecap="round" stroke-width="2" transform="matrix(1,0,0,-1,100,381)"/>
 <path d="M486.06,369.94 c0.59,0.59,0.59,1.54,0,2.12 c-0.59,0.59,-1.54,0.59,-2.12,0 c-0.59,-0.59,-0.59,-1.54,0,-2.12 c0.59,-0.59,1.54,-0.59,2.12,0 Z M486.06,369.94" fill="rgb(255,255,255)" fill-opacity="0.5" stroke="rgb(255,255,255)" stroke-dasharray="0" stroke-linecap="round" stroke-width="3" transform="matrix(1,0,0,-1,100,381)"/>
 <path d="M479,371 l6,0" fill="rgb(255,255,255)" fill-opacity="0.5" stroke="rgb(255,255,255)" stroke-dasharray="0" stroke-linecap="round" stroke-width="2" transform="matrix(1,0,0,-1,100,381)"/>
 <path d="M479,371 l0,0" fill="rgb(255,255,255)" fill-opacity="0.5" stroke="rgb(255,255,255)" stroke-dasharray="0" stroke-linecap="round" stroke-width="2" transform="matrix(1,0,0,-1,100,381)"/>
</svg>