<?xml version="1.0" encoding="UTF-8"?>
<svg height="750" version="1.1" width="1000" xmlns="http://www.w3.org/2000/svg" xmlns:xlink="http://www.w3.org/1999/xlink">
 <path d="M0,0 l1000,0 l0,750 l-1000,0 Z M0,0" fill="rgb(0,0,0)" transform="matrix(1,0,0,-1,0,750)"/>
 <path d="M0,0 l1000,0 l0,750 l-1000,0 Z M0,0" fill="rgb(255,255,255)" fill-opacity="0.0" stroke="rgb(0,255,0)" stroke-width="2" transform="matrix(1,0,0,-1,0,750)"/>
 <path d="M0,0 l800,0 l0,750 l-800,0 Z M0,0" fill="rgb(0,12,0)" fill-opacity="0.25" stroke="rgb(0,255,0)" stroke-width="2" transform="matrix(1,0,0,-1,0,750)"/>
 <path d="M0,0 l800,0 l0,750 l-800,0 Z M0,0" fill="rgb(255,12,0)" fill-opacity="0.25" stroke="rgb(255,255,0)" stroke-width="2" transform="matrix(-1.0,-1.2246467991473532e-16,-1.2246467991473532e-16,1.0,1000.0,0.0)"/>
 <path d="M0,0 l800,0 l0,600 l-800,0 Z M0,0" fill="rgb(0,17,0)" fill-opacity="0.25" stroke="rgb(0,255,0)" stroke-width="2" transform="matrix(1,0,0,-1,0,750)"/>
 <path d="M0,0 l800,0 l0,600 l-800,0 Z M0,0" fill="rgb(255,17,0)" fill-opacity="0.25" stroke="rgb(255,255,0)" stroke-width="2" transform="matrix(-1.0,-1.2246467991473532e-16,-1.2246467991473532e-16,1.0,1000.0,0.0)"/>
 <path d="M0,0 l640,0 l0,600 l-640,0 Z M0,0" fill="rgb(0,29,0)" fill-opacity="0.25" stroke="rgb(0,255,0)" stroke-width="2" transform="matrix(1,0,0,-1,0,750)"/>
 <path d="M0,0 l640,0 l0,600 l-640,0 Z M0,0" fill="rgb(255,29,0)" fill-opacity="0.25" stroke="rgb(255,255,0)" stroke-width="2" transform="matrix(-1.0,-1.2246467991473532e-16,-1.2246467991473532e-16,1.0,1000.0,0.0)"/>
 <path d="M0,0 l640,0 l0,480 l-640,0 Z M0,0" fill="rgb(0,39,0)" fill-opacity="0.25" stroke="rgb(0,255,0)" stroke-width="2" transform="matrix(1,0,0,-1,0,750)"/>
 <path d="M0,0 l640,0 l0,480 l-640,0 Z M0,0" fill="rgb(255,39,0)" fill-opacity="0.25" stroke="rgb(255,255,0)" stroke-width="2" transform="matrix(-1.0,-1.2246467991473532e-16,-1.2246467991473532e-16,1.0,1000.0,0.0)"/>
 <path d="M0,0 l512,0 l0,480 l-512,0 Z M0,0" fill="rgb(0,46,0)" fill-opacity="0.25" stroke="rgb(0,255,0)" stroke-width="2" transform="matrix(1,0,0,-1,0,750)"/>
 <path d="M0,0 l512,0 l0,480 l-512,0 Z M0,0" fill="rgb(255,46,0)" fill-opacity="0.25" stroke="rgb(255,255,0)" stroke-width="2" transform="matrix(-1.0,-1.2246467991473532e-16,-1.2246467991473532e-16,1.0,1000.0,0.0)"/>
 <path d="M0,0 l512,0 l0,384 l-512,0 Z M0,0" fill="rgb(0,62,0)" fill-opacity="0.25" stroke="rgb(0,255,0)" stroke-width="2" transform="matrix(1,0,0,-1,0,750)"/>
 <path d="M0,0 l512,0 l0,384 l-512,0 Z M0,0" fill="rgb(255,62,0)" fill-opacity="0.25" stroke="rgb(255,255,0)" stroke-width="2" transform="matrix(-1.0,-1.2246467991473532e-16,-1.2246467991473532e-16,1.0,1000.0,0.0)"/>
 <path d="M0,0 l409.6,0 l0,384 l-409.6,0 Z M0,0" fill="rgb(0,63,0)" fill-opacity="0.25" stroke="rgb(0,255,0)" stroke-width="2" transform="matrix(1,0,0,-1,0,750)"/>
 <path d="M0,0 l409.6,0 l0,384 l-409.6,0 Z M0,0" fill="rgb(255,63,0)" fill-opacity="0.25" stroke="rgb(255,255,0)" stroke-width="2" transform="matrix(-1.0,-1.2246467991473532e-16,-1.2246467991473532e-16,1.0,1000.0,0.0)"/>
 <path d="M0,0 l409.6,0 l0,307.2 l-409.6,0 Z M0,0" fill="rgb(0,85,0)" fill-opacity="0.25" stroke="rgb(0,255,0)" stroke-width="2" transform="matrix(1,0,0,-1,0,750)"/>
 <path d="M0,0 l409.6,0 l0,307.2 l-409.6,0 Z M0,0" fill="rgb(255,85,0)" fill-opacity="0.25" stroke="rgb(255,255,0)" stroke-width="2" transform="matrix(-1.0,-1.2246467991473532e-16,-1.2246467991473532e-16,1.0,1000.0,0.0)"/>
 <path d="M0,0 l327.68,0 l0,307.2 l-327.68,0 Z M0,0" fill="rgb(0,80,0)" fill-opacity="0.25" stroke="rgb(0,255,0)" stroke-width="2" transform="matrix(1,0,0,-1,0,750)"/>
 <path d="M0,0 l327.68,0 l0,307.2 l-327.68,0 Z M0,0" fill="rgb(255,80,0)" fill-opacity="0.25" stroke="rgb(255,255,0)" stroke-width="2" transform="matrix(-1.0,-1.2246467991473532e-16,-1.2246467991473532e-16,1.0,1000.0,0.0)"/>
 <path d="M0,0 l327.68,0 l0,245.76 l-327.68,0 Z M0,0" fill="rgb(0,107,0)" fill-opacity="0.25" stroke="rgb(0,255,0)" stroke-width="2" transform="matrix(1,0,0,-1,0,750)"/>
 <path d="M0,0 l327.68,0 l0,245.76 l-327.68,0 Z M0,0" fill="rgb(255,107,0)" fill-opacity="0.25" stroke="rgb(255,255,0)" stroke-width="2" transform="matrix(-1.0,-1.2246467991473532e-16,-1.2246467991473532e-16,1.0,1000.0,0.0)"/>
 <path d="M0,0 l262.14,0 l0,245.76 l-262.14,0 Z M0,0" fill="rgb(0,97,0)" fill-opacity="0.25" stroke="rgb(0,255,0)" stroke-width="2" transform="matrix(1,0,0,-1,0,750)"/>
 <path d="M0,0 l262.14,0 l0,245.76 l-262.14,0 Z M0,0" fill="rgb(255,97,0)" fill-opacity="0.25" stroke="rgb(255,255,0)" stroke-width="2" transform="matrix(-1.0,-1.2246467991473532e-16,-1.2246467991473532e-16,1.0,1000.0,0.0)"/>
 <path d="M0,0 l262.14,0 l0,196.61 l-262.14,0 Z M0,0" fill="rgb(0,130,0)" fill-opacity="0.25" stroke="rgb(0,255,0)" stroke-width="2" transform="matrix(1,0,0,-1,0,750)"/>
 <path d="M0,0 l262.14,0 l0,196.61 l-262.14,0 Z M0,0" fill="rgb(255,130,0)" fill-opacity="0.25" stroke="rgb(255,255,0)" stroke-width="2" transform="matrix(-1.0,-1.2246467991473532e-16,-1.2246467991473532e-16,1.0,1000.0,0.0)"/>
 <path d="M0,0 l209.72,0 l0,196.61 l-209.72,0 Z M0,0" fill="rgb(0,114,0)" fill-opacity="0.25" stroke="rgb(0,255,0)" stroke-width="2" transform="matrix(1,0,0,-1,0,750)"/>
 <path d="M0,0 l209.72,0 l0,196.61 l-209.72,0 Z M0,0" fill="rgb(255,114,0)" fill-opacity="0.25" stroke="rgb(255,255,0)" stroke-width="2" transform="matrix(-1.0,-1.2246467991473532e-16,-1.2246467991473532e-16,1.0,1000.0,0.0)"/>
 <path d="M0,0 l209.72,0 l0,157.29 l-209.72,0 Z M0,0" fill="rgb(0,153,0)" fill-opacity="0.25" stroke="rgb(0,255,0)" stroke-width="2" transform="matrix(1,0,0,-1,0,750)"/>
 <path d="M0,0 l209.72,0 l0,157.29 l-209.72,0 Z M0,0" fill="rgb(255,153,0)" fill-opacity="0.25" stroke="rgb(255,255,0)" stroke-width="2" transform="matrix(-1.0,-1.2246467991473532e-16,-1.2246467991473532e-16,1.0,1000.0,0.0)"/>
 <path d="M0,0 l167.77,0 l0,157.29 l-167.77,0 Z M0,0" fill="rgb(0,131,0)" fill-opacity="0.25" stroke="rgb(0,255,0)" stroke-width="2" transform="matrix(1,0,0,-1,0,750)"/>
 <path d="M0,0 l167.77,0 l0,157.29 l-167.77,0 Z M0,0" fill="rgb(255,131,0)" fill-opacity="0.25" stroke="rgb(255,255,0)" stroke-width="2" transform="matrix(-1.0,-1.2246467991473532e-16,-1.2246467991473532e-16,1.0,1000.0,0.0)"/>
 <path d="M0,0 l167.77,0 l0,125.83 l-167.77,0 Z M0,0" fill="rgb(0,175,0)" fill-opacity="0.25" stroke="rgb(0,255,0)" stroke-width="2" transform="matrix(1,0,0,-1,0,750)"/>
 <path d="M0,0 l167.77,0 l0,125.83 l-167.77,0 Z M0,0" fill="rgb(255,175,0)" fill-opacity="0.25" stroke="rgb(255,255,0)" stroke-width="2" transform="matrix(-1.0,-1.2246467991473532e-16,-1.2246467991473532e-16,1.0,1000.0,0.0)"/>
 <path d="M0,0 l134.22,0 l0,125.83 l-134.22,0 Z M0,0" fill="rgb(0,148,0)" fill-opacity="0.25" stroke="rgb(0,255,0)" stroke-width="2" transform="matrix(1,0,0,-1,0,750)"/>
 <path d="M0,0 l134.22,0 l0,125.83 l-134.22,0 Z M0,0" fill="rgb(255,148,0)" fill-opacity="0.25" stroke="rgb(255,255,0)" stroke-width="2" transform="matrix(-1.0,-1.2246467991473532e-16,-1.2246467991473532e-16,1.0,1000.0,0.0)"/>
 <path d="M0,0 l134.22,0 l0,100.66 l-134.22,0 Z M0,0" fill="rgb(0,198,0)" fill-opacity="0.25" stroke="rgb(0,255,0)" stroke-width="2" transform="matrix(1,0,0,-1,0,750)"/>
 <path d="M0,0 l134.22,0 l0,100.66 l-134.22,0 Z M0,0" fill="rgb(255,198,0)" fill-opacity="0.25" stroke="rgb(255,255,0)" stroke-width="2" transform="matrix(-1.0,-1.2246467991473532e-16,-1.2246467991473532e-16,1.0,1000.0,0.0)"/>
 <path d="M0,0 l107.37,0 l0,100.66 l-107.37,0 Z M0,0" fill="rgb(0,165,0)" fill-opacity="0.25" stroke="rgb(0,255,0)" stroke-width="2" transform="matrix(1,0,0,-1,0,750)"/>
 <path d="M0,0 l107.37,0 l0,100.66 l-107.37,0 Z M0,0" fill="rgb(255,165,0)" fill-opacity="0.25" stroke="rgb(255,255,0)" stroke-width="2" transform="matrix(-1.0,-1.2246467991473532e-16,-1.2246467991473532e-16,1.0,1000.0,0.0)"/>
 <path d="M0,0 l107.37,0 l0,80.53 l-107.37,0 Z M0,0" fill="rgb(0,221,0)" fill-opacity="0.25" stroke="rgb(0,255,0)" stroke-width="2" transform="matrix(1,0,0,-1,0,750)"/>
 <path d="M0,0 l107.37,0 l0,80.53 l-107.37,0 Z M0,0" fill="rgb(255,221,0)" fill-opacity="0.25" stroke="rgb(255,255,0)" stroke-width="2" transform="matrix(-1.0,-1.2246467991473532e-16,-1.2246467991473532e-16,1.0,1000.0,0.0)"/>
 <path d="M0,0 l85.9,0 l0,80.53 l-85.9,0 Z M0,0" fill="rgb(0,182,0)" fill-opacity="0.25" stroke="rgb(0,255,0)" stroke-width="2" transform="matrix(1,0,0,-1,0,750)"/>
 <path d="M0,0 l85.9,0 l0,80.53 l-85.9,0 Z M0,0" fill="rgb(255,182,0)" fill-opacity="0.25" stroke="rgb(255,255,0)" stroke-width="2" transform="matrix(-1.0,-1.2246467991473532e-16,-1.2246467991473532e-16,1.0,1000.0,0.0)"/>
 <path d="M0,0 l85.9,0 l0,64.42 l-85.9,0 Z M0,0" fill="rgb(0,243,0)" fill-opacity="0.25" stroke="rgb(0,255,0)" stroke-width="2" transform="matrix(1,0,0,-1,0,750)"/>
 <path d="M0,0 l85.9,0 l0,64.42 l-85.9,0 Z M0,0" fill="rgb(255,243,0)" fill-opacity="0.25" stroke="rgb(255,255,0)" stroke-width="2" transform="matrix(-1.0,-1.2246467991473532e-16,-1.2246467991473532e-16,1.0,1000.0,0.0)"/>
 <path d="M0,0 l68.72,0 l0,64.42 l-68.72,0 Z M0,0" fill="rgb(0,199,0)" fill-opacity="0.25" stroke="rgb(0,255,0)" stroke-width="2" transform="matrix(1,0,0,-1,0,750)"/>
 <path d="M0,0 l68.72,0 l0,64.42 l-68.72,0 Z M0,0" fill="rgb(255,199,0)" fill-opacity="0.25" stroke="rgb(255,255,0)" stroke-width="2" transform="matrix(-1.0,-1.2246467991473532e-16,-1.2246467991473532e-16,1.0,1000.0,0.0)"/>
 <path d="M0,0 l68.72,0 l0,51.54 l-68.72,0 Z M0,0" fill="rgb(0,255,0)" fill-opacity="0.25" stroke="rgb(0,255,0)" stroke-width="2" transform="matrix(1,0,0,-1,0,750)"/>
 <path d="M0,0 l68.72,0 l0,51.54 l-68.72,0 Z M0,0" fill="rgb(255,255,0)" fill-opacity="0.25" stroke="rgb(255,255,0)" stroke-width="2" transform="matrix(-1.0,-1.2246467991473532e-16,-1.2246467991473532e-16,1.0,1000.0,0.0)"/>
 <path d="M0,0 l54.98,0 l0,51.54 l-54.98,0 Z M0,0" fill="rgb(0,216,0)" fill-opacity="0.25" stroke="rgb(0,255,0)" stroke-width="2" transform="matrix(1,0,0,-1,0,750)"/>
 <path d="M0,0 l54.98,0 l0,51.54 l-54.98,0 Z M0,0" fill="rgb(255,216,0)" fill-opacity="0.25" stroke="rgb(255,255,0)" stroke-width="2" transform="matrix(-1.0,-1.2246467991473532e-16,-1.2246467991473532e-16,1.0,1000.0,0.0)"/>
 <path d="M0,0 l54.98,0 l0,41.23 l-54.98,0 Z M0,0" fill="rgb(0,255,0)" fill-opacity="0.25" stroke="rgb(0,255,0)" stroke-width="2" transform="matrix(1,0,0,-1,0,750)"/>
 <path d="M0,0 l54.98,0 l0,41.23 l-54.98,0 Z M0,0" fill="rgb(255,255,0)" fill-opacity="0.25" stroke="rgb(255,255,0)" stroke-width="2" transform="matrix(-1.0,-1.2246467991473532e-16,-1.2246467991473532e-16,1.0,1000.0,0.0)"/>
 <path d="M0,0 l43.98,0 l0,41.23 l-43.98,0 Z M0,0" fill="rgb(0,233,0)" fill-opacity="0.25" stroke="rgb(0,255,0)" stroke-width="2" transform="matrix(1,0,0,-1,0,750)"/>
 <path d="M0,0 l43.98,0 l0,41.23 l-43.98,0 Z M0,0" fill="rgb(255,233,0)" fill-opacity="0.25" stroke="rgb(255,255,0)" stroke-width="2" transform="matrix(-1.0,-1.2246467991473532e-16,-1.2246467991473532e-16,1.0,1000.0,0.0)"/>
 <path d="M0,0 l43.98,0 l0,32.99 l-43.98,0 Z M0,0" fill="rgb(0,255,0)" fill-opacity="0.25" stroke="rgb(0,255,0)" stroke-width="2" transform="matrix(1,0,0,-1,0,750)"/>
 <path d="M0,0 l43.98,0 l0,32.99 l-43.98,0 Z M0,0" fill="rgb(255,255,0)" fill-opacity="0.25" stroke="rgb(255,255,0)" stroke-width="2" transform="matrix(-1.0,-1.2246467991473532e-16,-1.2246467991473532e-16,1.0,1000.0,0.0)"/>
 <path d="M0,0 l35.18,0 l0,32.99 l-35.18,0 Z M0,0" fill="rgb(0,250,0)" fill-opacity="0.25" stroke="rgb(0,255,0)" stroke-width="2" transform="matrix(1,0,0,-1,0,750)"/>
 <path d="M0,0 l35.18,0 l0,32.99 l-35.18,0 Z M0,0" fill="rgb(255,250,0)" fill-opacity="0.25" stroke="rgb(255,255,0)" stroke-width="2" transform="matrix(-1.0,-1.2246467991473532e-16,-1.2246467991473532e-16,1.0,1000.0,0.0)"/>
 <path d="M0,0 l35.18,0 l0,26.39 l-35.18,0 Z M0,0" fill="rgb(0,255,0)" fill-opacity="0.25" stroke="rgb(0,255,0)" stroke-width="2" transform="matrix(1,0,0,-1,0,750)"/>
 <path d="M0,0 l35.18,0 l0,26.39 l-35.18,0 Z M0,0" fill="rgb(255,255,0)" fill-opacity="0.25" stroke="rgb(255,255,0)" stroke-width="2" transform="matrix(-1.0,-1.2246467991473532e-16,-1.2246467991473532e-16,1.0,1000.0,0.0)"/>
 <path d="M0,0 l28.15,0 l0,26.39 l-28.15,0 Z M0,0" fill="rgb(0,255,0)" fill-opacity="0.25" stroke="rgb(0,255,0)" stroke-width="2" transform="matrix(1,0,0,-1,0,750)"/>
 <path d="M0,0 l28.15,0 l0,26.39 l-28.15,0 Z M0,0" fill="rgb(255,255,0)" fill-opacity="0.25" stroke="rgb(255,255,0)" stroke-width="2" transform="matrix(-1.0,-1.2246467991473532e-16,-1.2246467991473532e-16,1.0,1000.0,0.0)"/>
 <path d="M0,0 l28.15,0 l0,21.11 l-28.15,0 Z M0,0" fill="rgb(0,255,0)" fill-opacity="0.25" stroke="rgb(0,255,0)" stroke-width="2" transform="matrix(1,0,0,-1,0,750)"/>
 <path d="M0,0 l28.15,0 l0,21.11 l-28.15,0 Z M0,0" fill="rgb(255,255,0)" fill-opacity="0.25" stroke="rgb(255,255,0)" stroke-width="2" transform="matrix(-1.0,-1.2246467991473532e-16,-1.2246467991473532e-16,1.0,1000.0,0.0)"/>
 <path d="M0,0 l22.52,0 l0,21.11 l-22.52,0 Z M0,0" fill="rgb(0,255,0)" fill-opacity="0.25" stroke="rgb(0,255,0)" stroke-width="2" transform="matrix(1,0,0,-1,0,750)"/>
 <path d="M0,0 l22.52,0 l0,21.11 l-22.52,0 Z M0,0" fill="rgb(255,255,0)" fill-opacity="0.25" stroke="rgb(255,255,0)" stroke-width="2" transform="matrix(-1.0,-1.2246467991473532e-16,-1.2246467991473532e-16,1.0,1000.0,0.0)"/>
 <path d="M0,0 l22.52,0 l0,16.89 l-22.52,0 Z M0,0" fill="rgb(0,255,0)" fill-opacity="0.25" stroke="rgb(0,255,0)" stroke-width="2" transform="matrix(1,0,0,-1,0,750)"/>
 <path d="M0,0 l22.52,0 l0,16.89 l-22.52,0 Z M0,0" fill="rgb(255,255,0)" fill-opacity="0.25" stroke="rgb(255,255,0)" stroke-width="2" transform="matrix(-1.0,-1.2246467991473532e-16,-1.2246467991473532e-16,1.0,1000.0,0.0)"/>
</svg>