<?xml version="1.0" encoding="utf-8"?>
<!-- Generator: Adobe Illustrator 22.1.0, SVG Export Plug-In . SVG Version: 6.00 Build 0)  -->
<svg version="1.1" id="Layer_1" xmlns="http://www.w3.org/2000/svg" xmlns:xlink="http://www.w3.org/1999/xlink" x="0px" y="0px"
	 viewBox="0 0 600 500" style="enable-background:new 0 0 600 500;" xml:space="preserve">
<style type="text/css">
	.st0{fill:#1B1C23;}
	.st1{fill:#533BE6;fill-opacity:0.3;stroke:#533BE6;stroke-width:2;stroke-linecap:round;stroke-opacity:0.75;}
	.st2{fill:#D22EED;fill-opacity:0;stroke:#D22EED;stroke-width:2;stroke-linecap:round;stroke-opacity:0;}
	.st3{fill:#1B1C23;stroke:#F0A43F;stroke-width:2;stroke-linecap:round;stroke-dasharray:4;}
	.st4{fill:#1B1C23;stroke:#BFBFBF;stroke-width:2;stroke-linecap:round;stroke-opacity:0.25;stroke-dasharray:4;}
	.st5{fill:#533BE6;fill-opacity:0;stroke:#533BE6;stroke-width:2;stroke-linecap:round;stroke-opacity:0;stroke-dasharray:0;}
	.st6{fill:#FFFFFF;fill-opacity:0.5;stroke:#FFFFFF;stroke-width:2;stroke-linecap:round;stroke-dasharray:0;}
	.st7{fill:#F0A43F;stroke:#FFFFFF;stroke-width:2;stroke-linecap:round;stroke-dasharray:0;}
	.st8{fill:#FFFFFF;fill-opacity:0.5;stroke:#FFFFFF;stroke-width:3;stroke-linecap:round;stroke-dasharray:0;}
	.st9{fill:#D22EED;fill-opacity:0.35;stroke:#D22EED;stroke-width:2;stroke-linecap:round;stroke-dasharray:0;}
</style>
<path class="st0" d="M0,500h600V0H0V500z"/>
<path class="st1" d="M10,347v132c0,7,4,11,11,11h369c0-46,0-86,0-132c0-6-5-11-11-11H10z"/>
<path class="st2" d="M256-106v19c0,103,19,131,107,131h298c4-21,7-44,7-63c0-66-17-87-73-87H256z"/>
<path class="st3" d="M10,347L178,10"/>
<path class="st3" d="M10,479L178,29"/>
<path class="st3" d="M21,490l264-330"/>
<path class="st3" d="M390,490l193-330"/>
<path class="st3" d="M390,358L590,97"/>
<path class="st3" d="M379,347L517,10"/>
<path class="st4" d="M10,486l168-354"/>
<path class="st4" d="M14,490l183-330"/>
<path class="st4" d="M390,444l197-305"/>
<path class="st4" d="M390,404l200-288"/>
<path class="st4" d="M390,352L590,31"/>
<path class="st4" d="M385,347L573,10"/>
<path class="st5" d="M10,347v132c0,7,4,11,11,11h369c0-46,0-86,0-132c0-6-5-11-11-11H10z"/>
<path class="st6" d="M10,347L10,347"/>
<path class="st6" d="M10,347L10,347"/>
<path class="st7" d="M12.8,349.8c1.6-1.6,1.6-4.1,0-5.7c-1.6-1.6-4.1-1.6-5.7,0c-1.6,1.6-1.6,4.1,0,5.7
	C8.7,351.4,11.3,351.4,12.8,349.8z"/>
<path class="st8" d="M11.1,487.1c0.6-0.6,0.6-1.5,0-2.1c-0.6-0.6-1.5-0.6-2.1,0c-0.6,0.6-0.6,1.5,0,2.1
	C9.5,487.6,10.5,487.6,11.1,487.1z"/>
<path class="st6" d="M10,479L10,479"/>
<path class="st6" d="M10,479v7"/>
<path class="st7" d="M12.8,481.8c1.6-1.6,1.6-4.1,0-5.7c-1.6-1.6-4.1-1.6-5.7,0c-1.6,1.6-1.6,4.1,0,5.7
	C8.7,483.4,11.3,483.4,12.8,481.8z"/>
<path class="st8" d="M15.1,491.1c0.6-0.6,0.6-1.5,0-2.1c-0.6-0.6-1.5-0.6-2.1,0c-0.6,0.6-0.6,1.5,0,2.1
	C13.5,491.6,14.5,491.6,15.1,491.1z"/>
<path class="st6" d="M21,490h-7"/>
<path class="st6" d="M21,490L21,490"/>
<path class="st7" d="M23.8,492.8c1.6-1.6,1.6-4.1,0-5.7c-1.6-1.6-4.1-1.6-5.7,0c-1.6,1.6-1.6,4.1,0,5.7
	C19.7,494.4,22.3,494.4,23.8,492.8z"/>
<path class="st8" d="M391.1,445.1c0.6-0.6,0.6-1.5,0-2.1c-0.6-0.6-1.5-0.6-2.1,0c-0.6,0.6-0.6,1.5,0,2.1
	C389.5,445.6,390.5,445.6,391.1,445.1z"/>
<path class="st6" d="M390,490L390,490"/>
<path class="st6" d="M390,490v-46"/>
<path class="st7" d="M392.8,492.8c1.6-1.6,1.6-4.1,0-5.7c-1.6-1.6-4.1-1.6-5.7,0c-1.6,1.6-1.6,4.1,0,5.7
	C388.7,494.4,391.3,494.4,392.8,492.8z"/>
<path class="st8" d="M391.1,405.1c0.6-0.6,0.6-1.5,0-2.1c-0.6-0.6-1.5-0.6-2.1,0c-0.6,0.6-0.6,1.5,0,2.1
	C389.5,405.6,390.5,405.6,391.1,405.1z"/>
<path class="st8" d="M391.1,353.1c0.6-0.6,0.6-1.5,0-2.1c-0.6-0.6-1.5-0.6-2.1,0c-0.6,0.6-0.6,1.5,0,2.1
	C389.5,353.6,390.5,353.6,391.1,353.1z"/>
<path class="st6" d="M390,358v46"/>
<path class="st6" d="M390,358v-6"/>
<path class="st7" d="M392.8,360.8c1.6-1.6,1.6-4.1,0-5.7c-1.6-1.6-4.1-1.6-5.7,0c-1.6,1.6-1.6,4.1,0,5.7
	C388.7,362.4,391.3,362.4,392.8,360.8z"/>
<path class="st8" d="M386.1,348.1c0.6-0.6,0.6-1.5,0-2.1c-0.6-0.6-1.5-0.6-2.1,0c-0.6,0.6-0.6,1.5,0,2.1
	C384.5,348.6,385.5,348.6,386.1,348.1z"/>
<path class="st6" d="M379,347h6"/>
<path class="st6" d="M379,347L379,347"/>
<path class="st7" d="M381.8,349.8c1.6-1.6,1.6-4.1,0-5.7c-1.6-1.6-4.1-1.6-5.7,0c-1.6,1.6-1.6,4.1,0,5.7
	C377.7,351.4,380.3,351.4,381.8,349.8z"/>
<path class="st9" d="M178,10v19c0,103,19,131,107,131h298c4-21,7-44,7-63c0-66-17-87-73-87H178z"/>
<path class="st6" d="M178,10L178,10"/>
<path class="st6" d="M178,10L178,10"/>
<path class="st7" d="M180.8,12.8c1.6-1.6,1.6-4.1,0-5.7c-1.6-1.6-4.1-1.6-5.7,0c-1.6,1.6-1.6,4.1,0,5.7
	C176.7,14.4,179.3,14.4,180.8,12.8z"/>
<path class="st8" d="M179.1,133.1c0.6-0.6,0.6-1.5,0-2.1c-0.6-0.6-1.5-0.6-2.1,0c-0.6,0.6-0.6,1.5,0,2.1
	C177.5,133.6,178.5,133.6,179.1,133.1z"/>
<path class="st6" d="M178,29L178,29"/>
<path class="st6" d="M178,29v103"/>
<path class="st7" d="M180.8,31.8c1.6-1.6,1.6-4.1,0-5.7c-1.6-1.6-4.1-1.6-5.7,0c-1.6,1.6-1.6,4.1,0,5.7
	C176.7,33.4,179.3,33.4,180.8,31.8z"/>
<path class="st8" d="M198.1,161.1c0.6-0.6,0.6-1.5,0-2.1c-0.6-0.6-1.5-0.6-2.1,0c-0.6,0.6-0.6,1.5,0,2.1
	C196.5,161.6,197.5,161.6,198.1,161.1z"/>
<path class="st6" d="M285,160h-88"/>
<path class="st6" d="M285,160L285,160"/>
<path class="st7" d="M287.8,162.8c1.6-1.6,1.6-4.1,0-5.7c-1.6-1.6-4.1-1.6-5.7,0c-1.6,1.6-1.6,4.1,0,5.7
	C283.7,164.4,286.3,164.4,287.8,162.8z"/>
<path class="st8" d="M588.1,140.1c0.6-0.6,0.6-1.5,0-2.1c-0.6-0.6-1.5-0.6-2.1,0c-0.6,0.6-0.6,1.5,0,2.1
	C586.5,140.6,587.5,140.6,588.1,140.1z"/>
<path class="st6" d="M583,160L583,160"/>
<path class="st6" d="M583,160l4-21"/>
<path class="st7" d="M585.8,162.8c1.6-1.6,1.6-4.1,0-5.7c-1.6-1.6-4.1-1.6-5.7,0c-1.6,1.6-1.6,4.1,0,5.7
	C581.7,164.4,584.3,164.4,585.8,162.8z"/>
<path class="st8" d="M591.1,117.1c0.6-0.6,0.6-1.5,0-2.1c-0.6-0.6-1.5-0.6-2.1,0c-0.6,0.6-0.6,1.5,0,2.1
	C589.5,117.6,590.5,117.6,591.1,117.1z"/>
<path class="st8" d="M591.1,32.1c0.6-0.6,0.6-1.5,0-2.1c-0.6-0.6-1.5-0.6-2.1,0c-0.6,0.6-0.6,1.5,0,2.1
	C589.5,32.6,590.5,32.6,591.1,32.1z"/>
<path class="st6" d="M590,97v19"/>
<path class="st6" d="M590,97V31"/>
<path class="st7" d="M592.8,99.8c1.6-1.6,1.6-4.1,0-5.7c-1.6-1.6-4.1-1.6-5.7,0c-1.6,1.6-1.6,4.1,0,5.7
	C588.7,101.4,591.3,101.4,592.8,99.8z"/>
<path class="st8" d="M574.1,11.1c0.6-0.6,0.6-1.5,0-2.1c-0.6-0.6-1.5-0.6-2.1,0c-0.6,0.6-0.6,1.5,0,2.1
	C572.5,11.6,573.5,11.6,574.1,11.1z"/>
<path class="st6" d="M517,10h56"/>
<path class="st6" d="M517,10L517,10"/>
<path class="st7" d="M519.8,12.8c1.6-1.6,1.6-4.1,0-5.7c-1.6-1.6-4.1-1.6-5.7,0c-1.6,1.6-1.6,4.1,0,5.7
	C515.7,14.4,518.3,14.4,519.8,12.8z"/>
</svg>
