<?xml version="1.0" encoding="UTF-8"?>
<svg height="3000" version="1.1" width="3000" xmlns="http://www.w3.org/2000/svg" xmlns:xlink="http://www.w3.org/1999/xlink">
 <path d="M0,0 l3000,0 l0,3000 l-3000,0 Z M0,0" fill="rgb(255,255,255)" transform="matrix(3,0,0,-3,0,3000)"/>
 <path d="M47,374 c0,-6,0,-12,0,-19 c0,-108,33,-131,107,-131 l391,0 c4,21,7,44,7,63 c0,66,-17,87,-73,87 Z M47,374" fill="rgb(34,34,255)" fill-opacity="0.125" stroke="rgb(102,102,255)" stroke-linecap="round" stroke-width="2" transform="matrix(2.46,0.0,0.0,-2.46,-34.44,2857.32)"/>
 <path d="M50,371 c0,-46,0,-86,0,-132 c0,-7,4,-11,11,-11 l489,0 c0,46,0,86,0,132 c0,7,-4,11,-11,11 Z M50,371" fill="rgb(34,34,255)" fill-opacity="0.125" stroke="rgb(102,102,255)" stroke-linecap="round" stroke-width="2" transform="matrix(2.46,0.0,0.0,-2.46,1476.0,1824.1200000000001)"/>
 <path d="M47,374 l0,0" fill="rgb(255,255,255)" stroke="rgb(0,0,255)" stroke-dasharray="0" stroke-linecap="round" stroke-width="2" transform="matrix(2.46,0.0,0.0,-2.46,-34.44,2857.32)"/>
 <path d="M47,374 l0,-6" fill="rgb(255,255,255)" stroke="rgb(0,0,255)" stroke-dasharray="0" stroke-linecap="round" stroke-width="2" transform="matrix(2.46,0.0,0.0,-2.46,-34.44,2857.32)"/>
 <path d="M48.06,366.94 c0.59,0.59,0.59,1.54,0,2.12 c-0.59,0.59,-1.54,0.59,-2.12,0 c-0.59,-0.59,-0.59,-1.54,0,-2.12 c0.59,-0.59,1.54,-0.59,2.12,0 Z M48.06,366.94" fill="rgb(255,255,255)" stroke="rgb(0,0,255)" stroke-dasharray="0" stroke-linecap="round" stroke-width="3" transform="matrix(2.46,0.0,0.0,-2.46,-34.44,2857.32)"/>
 <path d="M50.54,370.46 c1.95,1.95,1.95,5.12,0,7.07 c-1.95,1.95,-5.12,1.95,-7.07,0.0 c-1.95,-1.95,-1.95,-5.12,0,-7.07 c1.95,-1.95,5.12,-1.95,7.07,-0.0 Z M50.54,370.46" fill="rgb(255,255,255)" stroke="rgb(0,0,255)" stroke-dasharray="0" stroke-linecap="round" stroke-width="2" transform="matrix(2.46,0.0,0.0,-2.46,-34.44,2857.32)"/>
 <path d="M47,355 l0,7" fill="rgb(255,255,255)" stroke="rgb(0,0,255)" stroke-dasharray="0" stroke-linecap="round" stroke-width="2" transform="matrix(2.46,0.0,0.0,-2.46,-34.44,2857.32)"/>
 <path d="M47,355 l0,-108" fill="rgb(255,255,255)" stroke="rgb(0,0,255)" stroke-dasharray="0" stroke-linecap="round" stroke-width="2" transform="matrix(2.46,0.0,0.0,-2.46,-34.44,2857.32)"/>
 <path d="M48.06,360.94 c0.59,0.59,0.59,1.54,0,2.12 c-0.59,0.59,-1.54,0.59,-2.12,0 c-0.59,-0.59,-0.59,-1.54,0,-2.12 c0.59,-0.59,1.54,-0.59,2.12,0 Z M48.06,360.94" fill="rgb(255,255,255)" stroke="rgb(0,0,255)" stroke-dasharray="0" stroke-linecap="round" stroke-width="3" transform="matrix(2.46,0.0,0.0,-2.46,-34.44,2857.32)"/>
 <path d="M48.06,245.94 c0.59,0.59,0.59,1.54,0,2.12 c-0.59,0.59,-1.54,0.59,-2.12,0 c-0.59,-0.59,-0.59,-1.54,0,-2.12 c0.59,-0.59,1.54,-0.59,2.12,0 Z M48.06,245.94" fill="rgb(255,255,255)" stroke="rgb(0,0,255)" stroke-dasharray="0" stroke-linecap="round" stroke-width="3" transform="matrix(2.46,0.0,0.0,-2.46,-34.44,2857.32)"/>
 <path d="M50.54,351.46 c1.95,1.95,1.95,5.12,0,7.07 c-1.95,1.95,-5.12,1.95,-7.07,0.0 c-1.95,-1.95,-1.95,-5.12,0,-7.07 c1.95,-1.95,5.12,-1.95,7.07,-0.0 Z M50.54,351.46" fill="rgb(255,255,255)" stroke="rgb(0,0,255)" stroke-dasharray="0" stroke-linecap="round" stroke-width="2" transform="matrix(2.46,0.0,0.0,-2.46,-34.44,2857.32)"/>
 <path d="M154,224 l-74,0" fill="rgb(255,255,255)" stroke="rgb(0,0,255)" stroke-dasharray="0" stroke-linecap="round" stroke-width="2" transform="matrix(2.46,0.0,0.0,-2.46,-34.44,2857.32)"/>
 <path d="M154,224 l0,0" fill="rgb(255,255,255)" stroke="rgb(0,0,255)" stroke-dasharray="0" stroke-linecap="round" stroke-width="2" transform="matrix(2.46,0.0,0.0,-2.46,-34.44,2857.32)"/>
 <path d="M81.06,222.94 c0.59,0.59,0.59,1.54,0,2.12 c-0.59,0.59,-1.54,0.59,-2.12,0 c-0.59,-0.59,-0.59,-1.54,0,-2.12 c0.59,-0.59,1.54,-0.59,2.12,0 Z M81.06,222.94" fill="rgb(255,255,255)" stroke="rgb(0,0,255)" stroke-dasharray="0" stroke-linecap="round" stroke-width="3" transform="matrix(2.46,0.0,0.0,-2.46,-34.44,2857.32)"/>
 <path d="M157.54,220.46 c1.95,1.95,1.95,5.12,0,7.07 c-1.95,1.95,-5.12,1.95,-7.07,0 c-1.95,-1.95,-1.95,-5.12,0,-7.07 c1.95,-1.95,5.12,-1.95,7.07,0 Z M157.54,220.46" fill="rgb(255,255,255)" stroke="rgb(0,0,255)" stroke-dasharray="0" stroke-linecap="round" stroke-width="2" transform="matrix(2.46,0.0,0.0,-2.46,-34.44,2857.32)"/>
 <path d="M545,224 l0,0" fill="rgb(255,255,255)" stroke="rgb(0,0,255)" stroke-dasharray="0" stroke-linecap="round" stroke-width="2" transform="matrix(2.46,0.0,0.0,-2.46,-34.44,2857.32)"/>
 <path d="M545,224 l4,21" fill="rgb(255,255,255)" stroke="rgb(0,0,255)" stroke-dasharray="0" stroke-linecap="round" stroke-width="2" transform="matrix(2.46,0.0,0.0,-2.46,-34.44,2857.32)"/>
 <path d="M550.06,243.94 c0.59,0.59,0.59,1.54,0,2.12 c-0.59,0.59,-1.54,0.59,-2.12,0 c-0.59,-0.59,-0.59,-1.54,0,-2.12 c0.59,-0.59,1.54,-0.59,2.12,0 Z M550.06,243.94" fill="rgb(255,255,255)" stroke="rgb(0,0,255)" stroke-dasharray="0" stroke-linecap="round" stroke-width="3" transform="matrix(2.46,0.0,0.0,-2.46,-34.44,2857.32)"/>
 <path d="M548.54,220.46 c1.95,1.95,1.95,5.12,0,7.07 c-1.95,1.95,-5.12,1.95,-7.07,0 c-1.95,-1.95,-1.95,-5.12,0,-7.07 c1.95,-1.95,5.12,-1.95,7.07,0 Z M548.54,220.46" fill="rgb(255,255,255)" stroke="rgb(0,0,255)" stroke-dasharray="0" stroke-linecap="round" stroke-width="2" transform="matrix(2.46,0.0,0.0,-2.46,-34.44,2857.32)"/>
 <path d="M552,287 l0,-19" fill="rgb(255,255,255)" stroke="rgb(0,0,255)" stroke-dasharray="0" stroke-linecap="round" stroke-width="2" transform="matrix(2.46,0.0,0.0,-2.46,-34.44,2857.32)"/>
 <path d="M552,287 l0,66" fill="rgb(255,255,255)" stroke="rgb(0,0,255)" stroke-dasharray="0" stroke-linecap="round" stroke-width="2" transform="matrix(2.46,0.0,0.0,-2.46,-34.44,2857.32)"/>
 <path d="M553.06,266.94 c0.59,0.59,0.59,1.54,0,2.12 c-0.59,0.59,-1.54,0.59,-2.12,0 c-0.59,-0.59,-0.59,-1.54,0,-2.12 c0.59,-0.59,1.54,-0.59,2.12,0 Z M553.06,266.94" fill="rgb(255,255,255)" stroke="rgb(0,0,255)" stroke-dasharray="0" stroke-linecap="round" stroke-width="3" transform="matrix(2.46,0.0,0.0,-2.46,-34.44,2857.32)"/>
 <path d="M553.06,351.94 c0.59,0.59,0.59,1.54,0,2.12 c-0.59,0.59,-1.54,0.59,-2.12,0 c-0.59,-0.59,-0.59,-1.54,0,-2.12 c0.59,-0.59,1.54,-0.59,2.12,0 Z M553.06,351.94" fill="rgb(255,255,255)" stroke="rgb(0,0,255)" stroke-dasharray="0" stroke-linecap="round" stroke-width="3" transform="matrix(2.46,0.0,0.0,-2.46,-34.44,2857.32)"/>
 <path d="M555.54,283.46 c1.95,1.95,1.95,5.12,0,7.07 c-1.95,1.95,-5.12,1.95,-7.07,0.0 c-1.95,-1.95,-1.95,-5.12,0,-7.07 c1.95,-1.95,5.12,-1.95,7.07,-0.0 Z M555.54,283.46" fill="rgb(255,255,255)" stroke="rgb(0,0,255)" stroke-dasharray="0" stroke-linecap="round" stroke-width="2" transform="matrix(2.46,0.0,0.0,-2.46,-34.44,2857.32)"/>
 <path d="M479,374 l56,0" fill="rgb(255,255,255)" stroke="rgb(0,0,255)" stroke-dasharray="0" stroke-linecap="round" stroke-width="2" transform="matrix(2.46,0.0,0.0,-2.46,-34.44,2857.32)"/>
 <path d="M479,374 l0,0" fill="rgb(255,255,255)" stroke="rgb(0,0,255)" stroke-dasharray="0" stroke-linecap="round" stroke-width="2" transform="matrix(2.46,0.0,0.0,-2.46,-34.44,2857.32)"/>
 <path d="M536.06,372.94 c0.59,0.59,0.59,1.54,0,2.12 c-0.59,0.59,-1.54,0.59,-2.12,0 c-0.59,-0.59,-0.59,-1.54,0,-2.12 c0.59,-0.59,1.54,-0.59,2.12,0 Z M536.06,372.94" fill="rgb(255,255,255)" stroke="rgb(0,0,255)" stroke-dasharray="0" stroke-linecap="round" stroke-width="3" transform="matrix(2.46,0.0,0.0,-2.46,-34.44,2857.32)"/>
 <path d="M482.54,370.46 c1.95,1.95,1.95,5.12,0,7.07 c-1.95,1.95,-5.12,1.95,-7.07,0.0 c-1.95,-1.95,-1.95,-5.12,-0.0,-7.07 c1.95,-1.95,5.12,-1.95,7.07,-0.0 Z M482.54,370.46" fill="rgb(255,255,255)" stroke="rgb(0,0,255)" stroke-dasharray="0" stroke-linecap="round" stroke-width="2" transform="matrix(2.46,0.0,0.0,-2.46,-34.44,2857.32)"/>
 <path d="M50,371 l0,0" fill="rgb(255,255,255)" stroke="rgb(0,0,255)" stroke-dasharray="0" stroke-linecap="round" stroke-width="2" transform="matrix(2.46,0.0,0.0,-2.46,1476.0,1824.1200000000001)"/>
 <path d="M50,371 l0,-46" fill="rgb(255,255,255)" stroke="rgb(0,0,255)" stroke-dasharray="0" stroke-linecap="round" stroke-width="2" transform="matrix(2.46,0.0,0.0,-2.46,1476.0,1824.1200000000001)"/>
 <path d="M51.06,323.94 c0.59,0.59,0.59,1.54,0,2.12 c-0.59,0.59,-1.54,0.59,-2.12,0 c-0.59,-0.59,-0.59,-1.54,0,-2.12 c0.59,-0.59,1.54,-0.59,2.12,0 Z M51.06,323.94" fill="rgb(255,255,255)" stroke="rgb(0,0,255)" stroke-dasharray="0" stroke-linecap="round" stroke-width="3" transform="matrix(2.46,0.0,0.0,-2.46,1476.0,1824.1200000000001)"/>
 <path d="M53.54,367.46 c1.95,1.95,1.95,5.12,0,7.07 c-1.95,1.95,-5.12,1.95,-7.07,0.0 c-1.95,-1.95,-1.95,-5.12,0,-7.07 c1.95,-1.95,5.12,-1.95,7.07,-0.0 Z M53.54,367.46" fill="rgb(255,255,255)" stroke="rgb(0,0,255)" stroke-dasharray="0" stroke-linecap="round" stroke-width="2" transform="matrix(2.46,0.0,0.0,-2.46,1476.0,1824.1200000000001)"/>
 <path d="M50,239 l0,46" fill="rgb(255,255,255)" stroke="rgb(0,0,255)" stroke-dasharray="0" stroke-linecap="round" stroke-width="2" transform="matrix(2.46,0.0,0.0,-2.46,1476.0,1824.1200000000001)"/>
 <path d="M50,239 l0,-7" fill="rgb(255,255,255)" stroke="rgb(0,0,255)" stroke-dasharray="0" stroke-linecap="round" stroke-width="2" transform="matrix(2.46,0.0,0.0,-2.46,1476.0,1824.1200000000001)"/>
 <path d="M51.06,283.94 c0.59,0.59,0.59,1.54,0,2.12 c-0.59,0.59,-1.54,0.59,-2.12,0 c-0.59,-0.59,-0.59,-1.54,0,-2.12 c0.59,-0.59,1.54,-0.59,2.12,0 Z M51.06,283.94" fill="rgb(255,255,255)" stroke="rgb(0,0,255)" stroke-dasharray="0" stroke-linecap="round" stroke-width="3" transform="matrix(2.46,0.0,0.0,-2.46,1476.0,1824.1200000000001)"/>
 <path d="M51.06,230.94 c0.59,0.59,0.59,1.54,0,2.12 c-0.59,0.59,-1.54,0.59,-2.12,0 c-0.59,-0.59,-0.59,-1.54,0,-2.12 c0.59,-0.59,1.54,-0.59,2.12,0 Z M51.06,230.94" fill="rgb(255,255,255)" stroke="rgb(0,0,255)" stroke-dasharray="0" stroke-linecap="round" stroke-width="3" transform="matrix(2.46,0.0,0.0,-2.46,1476.0,1824.1200000000001)"/>
 <path d="M53.54,235.46 c1.95,1.95,1.95,5.12,0,7.07 c-1.95,1.95,-5.12,1.95,-7.07,0 c-1.95,-1.95,-1.95,-5.12,0,-7.07 c1.95,-1.95,5.12,-1.95,7.07,0 Z M53.54,235.46" fill="rgb(255,255,255)" stroke="rgb(0,0,255)" stroke-dasharray="0" stroke-linecap="round" stroke-width="2" transform="matrix(2.46,0.0,0.0,-2.46,1476.0,1824.1200000000001)"/>
 <path d="M61,228 l-7,0" fill="rgb(255,255,255)" stroke="rgb(0,0,255)" stroke-dasharray="0" stroke-linecap="round" stroke-width="2" transform="matrix(2.46,0.0,0.0,-2.46,1476.0,1824.1200000000001)"/>
 <path d="M61,228 l0,0" fill="rgb(255,255,255)" stroke="rgb(0,0,255)" stroke-dasharray="0" stroke-linecap="round" stroke-width="2" transform="matrix(2.46,0.0,0.0,-2.46,1476.0,1824.1200000000001)"/>
 <path d="M55.06,226.94 c0.59,0.59,0.59,1.54,0,2.12 c-0.59,0.59,-1.54,0.59,-2.12,0 c-0.59,-0.59,-0.59,-1.54,0,-2.12 c0.59,-0.59,1.54,-0.59,2.12,0 Z M55.06,226.94" fill="rgb(255,255,255)" stroke="rgb(0,0,255)" stroke-dasharray="0" stroke-linecap="round" stroke-width="3" transform="matrix(2.46,0.0,0.0,-2.46,1476.0,1824.1200000000001)"/>
 <path d="M64.54,224.46 c1.95,1.95,1.95,5.12,0,7.07 c-1.95,1.95,-5.12,1.95,-7.07,0 c-1.95,-1.95,-1.95,-5.12,0,-7.07 c1.95,-1.95,5.12,-1.95,7.07,0 Z M64.54,224.46" fill="rgb(255,255,255)" stroke="rgb(0,0,255)" stroke-dasharray="0" stroke-linecap="round" stroke-width="2" transform="matrix(2.46,0.0,0.0,-2.46,1476.0,1824.1200000000001)"/>
 <path d="M550,228 l0,0" fill="rgb(255,255,255)" stroke="rgb(0,0,255)" stroke-dasharray="0" stroke-linecap="round" stroke-width="2" transform="matrix(2.46,0.0,0.0,-2.46,1476.0,1824.1200000000001)"/>
 <path d="M550,228 l0,46" fill="rgb(255,255,255)" stroke="rgb(0,0,255)" stroke-dasharray="0" stroke-linecap="round" stroke-width="2" transform="matrix(2.46,0.0,0.0,-2.46,1476.0,1824.1200000000001)"/>
 <path d="M551.06,272.94 c0.59,0.59,0.59,1.54,0,2.12 c-0.59,0.59,-1.54,0.59,-2.12,0 c-0.59,-0.59,-0.59,-1.54,0,-2.12 c0.59,-0.59,1.54,-0.59,2.12,0 Z M551.06,272.94" fill="rgb(255,255,255)" stroke="rgb(0,0,255)" stroke-dasharray="0" stroke-linecap="round" stroke-width="3" transform="matrix(2.46,0.0,0.0,-2.46,1476.0,1824.1200000000001)"/>
 <path d="M553.54,224.46 c1.95,1.95,1.95,5.12,0,7.07 c-1.95,1.95,-5.12,1.95,-7.07,0 c-1.95,-1.95,-1.95,-5.12,0,-7.07 c1.95,-1.95,5.12,-1.95,7.07,0 Z M553.54,224.46" fill="rgb(255,255,255)" stroke="rgb(0,0,255)" stroke-dasharray="0" stroke-linecap="round" stroke-width="2" transform="matrix(2.46,0.0,0.0,-2.46,1476.0,1824.1200000000001)"/>
 <path d="M550,360 l0,-46" fill="rgb(255,255,255)" stroke="rgb(0,0,255)" stroke-dasharray="0" stroke-linecap="round" stroke-width="2" transform="matrix(2.46,0.0,0.0,-2.46,1476.0,1824.1200000000001)"/>
 <path d="M550,360 l0,7" fill="rgb(255,255,255)" stroke="rgb(0,0,255)" stroke-dasharray="0" stroke-linecap="round" stroke-width="2" transform="matrix(2.46,0.0,0.0,-2.46,1476.0,1824.1200000000001)"/>
 <path d="M551.06,312.94 c0.59,0.59,0.59,1.54,0,2.12 c-0.59,0.59,-1.54,0.59,-2.12,0 c-0.59,-0.59,-0.59,-1.54,0,-2.12 c0.59,-0.59,1.54,-0.59,2.12,0 Z M551.06,312.94" fill="rgb(255,255,255)" stroke="rgb(0,0,255)" stroke-dasharray="0" stroke-linecap="round" stroke-width="3" transform="matrix(2.46,0.0,0.0,-2.46,1476.0,1824.1200000000001)"/>
 <path d="M551.06,365.94 c0.59,0.59,0.59,1.54,0,2.12 c-0.59,0.59,-1.54,0.59,-2.12,0 c-0.59,-0.59,-0.59,-1.54,0,-2.12 c0.59,-0.59,1.54,-0.59,2.12,0 Z M551.06,365.94" fill="rgb(255,255,255)" stroke="rgb(0,0,255)" stroke-dasharray="0" stroke-linecap="round" stroke-width="3" transform="matrix(2.46,0.0,0.0,-2.46,1476.0,1824.1200000000001)"/>
 <path d="M553.54,356.46 c1.95,1.95,1.95,5.12,0,7.07 c-1.95,1.95,-5.12,1.95,-7.07,0.0 c-1.95,-1.95,-1.95,-5.12,0,-7.07 c1.95,-1.95,5.12,-1.95,7.07,-0.0 Z M553.54,356.46" fill="rgb(255,255,255)" stroke="rgb(0,0,255)" stroke-dasharray="0" stroke-linecap="round" stroke-width="2" transform="matrix(2.46,0.0,0.0,-2.46,1476.0,1824.1200000000001)"/>
 <path d="M539,371 l7,0" fill="rgb(255,255,255)" stroke="rgb(0,0,255)" stroke-dasharray="0" stroke-linecap="round" stroke-width="2" transform="matrix(2.46,0.0,0.0,-2.46,1476.0,1824.1200000000001)"/>
 <path d="M539,371 l0,0" fill="rgb(255,255,255)" stroke="rgb(0,0,255)" stroke-dasharray="0" stroke-linecap="round" stroke-width="2" transform="matrix(2.46,0.0,0.0,-2.46,1476.0,1824.1200000000001)"/>
 <path d="M547.06,369.94 c0.59,0.59,0.59,1.54,0,2.12 c-0.59,0.59,-1.54,0.59,-2.12,0 c-0.59,-0.59,-0.59,-1.54,0,-2.12 c0.59,-0.59,1.54,-0.59,2.12,0 Z M547.06,369.94" fill="rgb(255,255,255)" stroke="rgb(0,0,255)" stroke-dasharray="0" stroke-linecap="round" stroke-width="3" transform="matrix(2.46,0.0,0.0,-2.46,1476.0,1824.1200000000001)"/>
 <path d="M542.54,367.46 c1.95,1.95,1.95,5.12,0,7.07 c-1.95,1.95,-5.12,1.95,-7.07,0.0 c-1.95,-1.95,-1.95,-5.12,0,-7.07 c1.95,-1.95,5.12,-1.95,7.07,-0.0 Z M542.54,367.46" fill="rgb(255,255,255)" stroke="rgb(0,0,255)" stroke-dasharray="0" stroke-linecap="round" stroke-width="2" transform="matrix(2.46,0.0,0.0,-2.46,1476.0,1824.1200000000001)"/>
 <path d="M33,432 l617,417" fill="rgb(255,255,255)" stroke="rgb(0,0,255)" stroke-dasharray="0" stroke-linecap="round" stroke-width="2" transform="matrix(2.46,0.0,0.0,-2.46,0,3000)"/>
 <path d="M33,413 l617,304" fill="rgb(255,255,255)" stroke="rgb(0,0,255)" stroke-dasharray="0" stroke-linecap="round" stroke-width="2" transform="matrix(2.46,0.0,0.0,-2.46,0,3000)"/>
 <path d="M140,282 l521,424" fill="rgb(255,255,255)" stroke="rgb(0,0,255)" stroke-dasharray="0" stroke-linecap="round" stroke-width="2" transform="matrix(2.46,0.0,0.0,-2.46,0,3000)"/>
 <path d="M531,282 l619,424" fill="rgb(255,255,255)" stroke="rgb(0,0,255)" stroke-dasharray="0" stroke-linecap="round" stroke-width="2" transform="matrix(2.46,0.0,0.0,-2.46,0,3000)"/>
 <path d="M538,345 l612,493" fill="rgb(255,255,255)" stroke="rgb(0,0,255)" stroke-dasharray="0" stroke-linecap="round" stroke-width="2" transform="matrix(2.46,0.0,0.0,-2.46,0,3000)"/>
 <path d="M465,432 l674,417" fill="rgb(255,255,255)" stroke="rgb(0,0,255)" stroke-dasharray="0" stroke-linecap="round" stroke-width="2" transform="matrix(2.46,0.0,0.0,-2.46,0,3000)"/>
 <path d="M33,432 l617,417" fill="rgb(255,255,255)" stroke="rgb(255,255,255)" stroke-dasharray="0" stroke-linecap="round" stroke-opacity="0.0" stroke-width="2" transform="matrix(2.46,0.0,0.0,-2.46,0,3000)"/>
 <path d="M33,426 l617,377" fill="rgb(255,255,255)" stroke="rgb(255,255,255)" stroke-dasharray="0" stroke-linecap="round" stroke-opacity="0.0" stroke-width="2" transform="matrix(2.46,0.0,0.0,-2.46,0,3000)"/>
 <path d="M33,420 l617,343" fill="rgb(255,255,255)" stroke="rgb(255,255,255)" stroke-dasharray="0" stroke-linecap="round" stroke-opacity="0.0" stroke-width="2" transform="matrix(2.46,0.0,0.0,-2.46,0,3000)"/>
 <path d="M33,305 l617,405" fill="rgb(255,255,255)" stroke="rgb(255,255,255)" stroke-dasharray="0" stroke-linecap="round" stroke-opacity="0.0" stroke-width="2" transform="matrix(2.46,0.0,0.0,-2.46,0,3000)"/>
 <path d="M66,282 l588,424" fill="rgb(255,255,255)" stroke="rgb(255,255,255)" stroke-dasharray="0" stroke-linecap="round" stroke-opacity="0.0" stroke-width="2" transform="matrix(2.46,0.0,0.0,-2.46,0,3000)"/>
 <path d="M140,282 l521,424" fill="rgb(255,255,255)" stroke="rgb(255,255,255)" stroke-dasharray="0" stroke-linecap="round" stroke-opacity="0.0" stroke-width="2" transform="matrix(2.46,0.0,0.0,-2.46,0,3000)"/>
 <path d="M531,282 l619,424" fill="rgb(255,255,255)" stroke="rgb(255,255,255)" stroke-dasharray="0" stroke-linecap="round" stroke-opacity="0.0" stroke-width="2" transform="matrix(2.46,0.0,0.0,-2.46,0,3000)"/>
 <path d="M535,303 l615,449" fill="rgb(255,255,255)" stroke="rgb(255,255,255)" stroke-dasharray="0" stroke-linecap="round" stroke-opacity="0.0" stroke-width="2" transform="matrix(2.46,0.0,0.0,-2.46,0,3000)"/>
 <path d="M538,326 l612,466" fill="rgb(255,255,255)" stroke="rgb(255,255,255)" stroke-dasharray="0" stroke-linecap="round" stroke-opacity="0.0" stroke-width="2" transform="matrix(2.46,0.0,0.0,-2.46,0,3000)"/>
 <path d="M538,411 l612,434" fill="rgb(255,255,255)" stroke="rgb(255,255,255)" stroke-dasharray="0" stroke-linecap="round" stroke-opacity="0.0" stroke-width="2" transform="matrix(2.46,0.0,0.0,-2.46,0,3000)"/>
 <path d="M521,432 l625,417" fill="rgb(255,255,255)" stroke="rgb(255,255,255)" stroke-dasharray="0" stroke-linecap="round" stroke-opacity="0.0" stroke-width="2" transform="matrix(2.46,0.0,0.0,-2.46,0,3000)"/>
 <path d="M465,432 l674,417" fill="rgb(255,255,255)" stroke="rgb(255,255,255)" stroke-dasharray="0" stroke-linecap="round" stroke-opacity="0.0" stroke-width="2" transform="matrix(2.46,0.0,0.0,-2.46,0,3000)"/>
</svg>