<?xml version="1.0" encoding="utf-8"?>
<!-- Generator: Adobe Illustrator 23.0.6, SVG Export Plug-In . SVG Version: 6.00 Build 0)  -->
<svg version="1.1" id="Layer_1" xmlns="http://www.w3.org/2000/svg" xmlns:xlink="http://www.w3.org/1999/xlink" x="0px" y="0px"
	 viewBox="0 0 3000 3000" style="enable-background:new 0 0 3000 3000;" xml:space="preserve">
<style type="text/css">
	.st0{fill:#FFFFFF;fill-opacity:0.125;stroke:#0050FF;stroke-width:4;stroke-linecap:round;}
	.st1{stroke:#7B97D3;stroke-width:4;stroke-linecap:round;stroke-dasharray:0;}
	.st2{fill:#FFFFFF;stroke:#000000;stroke-width:4;stroke-linecap:round;stroke-dasharray:0;}
	.st3{fill:#FFFFFF;stroke:#7B97D3;stroke-width:4;stroke-linecap:round;stroke-dasharray:0;}
	.st4{stroke:#FFFFFF;stroke-width:4;stroke-linecap:round;stroke-dasharray:0;}
	.st5{stroke:#FFFFFF;stroke-width:4;stroke-linecap:round;stroke-opacity:0.175;stroke-dasharray:0;}
	.st6{fill:#7B97D3;stroke:#7B97D3;stroke-width:5;stroke-linecap:round;stroke-dasharray:0;}
	.st7{fill:#FFFFFF;stroke:#000000;stroke-width:6;stroke-linecap:round;stroke-dasharray:0;}
	.st8{stroke:#7B97D3;stroke-width:3;stroke-linecap:round;stroke-dasharray:0;}
	.st9{stroke:#FFFFFF;stroke-width:3;stroke-linecap:round;stroke-dasharray:0;}
	.st10{stroke:#FFFFFF;stroke-width:3;stroke-linecap:round;stroke-opacity:0.175;stroke-dasharray:0;}
	.st11{fill:#FFFFFF;}
	.st12{font-family:'RecursiveMonoCsl-LtItalic';}
	.st13{font-size:114px;}
</style>
<path class="st0" d="M-6316.4-6153.6l175.3,12.2c0-415.8,0-831.6,0-1247.4c0-733.8-20.4-782.7-203.8-782.7
	c-167.1,0-354.7,8.2-599.3,40.8c-8.2,20.4-12.2,44.8-12.2,73.4c0,77.5,36.7,138.6,97.8,138.6c53,0,212-65.2,493.3-81.5l20.4,20.4
	c0,513.6,0,1027.3,0,1540.9c0,106,20.4,183.4,57.1,232.4L-6316.4-6153.6z M-6169.6-7417.3v542.2
	c224.2-803.1,538.1-1100.7,864.2-1100.7c110.1,0,179.4,16.3,269.1,48.9h24.5c16.3-36.7,24.5-81.5,24.5-130.4
	c0-32.6-8.2-57.1-28.5-77.5c-36.7-36.7-110.1-53-244.6-53c-391.3,0-680.8,248.7-852,770.5H-6169.6z M-6964.5-6190.3
	c-8.2,24.5-12.2,48.9-12.2,81.5c0,69.3,20.4,122.3,118.2,122.3h1585.8c4.1-8.2,8.2-20.4,8.2-32.6c0-93.8-391.3-171.2-856.1-171.2
	H-6964.5z"/>
<path class="st0" d="M-3193.8-6901.7h917.2c0-415.8,0-815.3,0-1157.7c0-4.1-191.6-582.9-195.7-582.9h-1088.4
	c0,256.8,0,513.6,0,770.5c0,28.5,16.3,44.8,44.8,44.8c81.5,0,167.1,0,252.7,0h69.3c0,97.8,0,195.7,0,289.4c0,85.6,0,167.1,0,252.7
	V-6901.7z M-2386.6-8128.7l36.7,607.4c141.3-87.3,338.3-122.3,513.6-122.3c134.8,0,288.9,25.6,436.2,73.4h81.5
	c0-338.4,0-676.7,0-1015.1c0-20.4-4.1-32.6-12.2-40.8c-28.5-28.5-114.1-57.1-236.4-57.1c-285.4,0-513.6,150.8-668.6,554.4H-2386.6z
	 M-3560.7-7215.6c0,187.5,0,582.9,0,770.5c0,28.5,16.3,44.8,44.8,44.8h1952.7c0-187.5,0-582.9,0-770.5c0-28.5-16.3-44.8-44.8-44.8
	H-3560.7z"/>
<path class="st1" d="M-6316.4-6153.6L-6316.4-6153.6"/>
<path class="st1" d="M-6316.4-6153.6L-6316.4-6153.6"/>
<path class="st2" d="M-6301.9-6139.2c7.9-7.9,7.9-20.9,0-28.8s-20.9-7.9-28.8,0s-7.9,20.9,0,28.8S-6309.9-6131.2-6301.9-6139.2z"/>
<path class="st3" d="M-6141.1-6141.4L-6141.1-6141.4"/>
<path class="st3" d="M-6141.1-6141.4v-415.8"/>
<path class="st3" d="M-6136.7-6552.9c2.4-2.4,2.4-6.3,0-8.6c-2.4-2.4-6.3-2.4-8.6,0c-2.4,2.4-2.4,6.3,0,8.6
	C-6143-6550.5-6139.1-6550.5-6136.7-6552.9z"/>
<path class="st2" d="M-6126.6-6127c7.9-7.9,7.9-20.9,0-28.8s-20.9-7.9-28.8,0s-7.9,20.9,0,28.8S-6134.6-6119-6126.6-6127z"/>
<path class="st3" d="M-6141.1-7388.8v415.8"/>
<path class="st3" d="M-6141.1-7388.8v-733.8"/>
<path class="st3" d="M-6136.7-6968.7c2.4-2.4,2.4-6.3,0-8.6c-2.4-2.4-6.3-2.4-8.6,0c-2.4,2.4-2.4,6.3,0,8.6
	C-6143-6966.3-6139.1-6966.3-6136.7-6968.7z"/>
<path class="st3" d="M-6136.7-8118.3c2.4-2.4,2.4-6.3,0-8.6c-2.4-2.4-6.3-2.4-8.6,0c-2.4,2.4-2.4,6.3,0,8.6
	C-6143-8115.9-6139.1-8115.9-6136.7-8118.3z"/>
<path class="st2" d="M-6126.6-7374.4c7.9-7.9,7.9-20.9,0-28.8s-20.9-7.9-28.8,0s-7.9,20.9,0,28.8S-6134.6-7366.4-6126.6-7374.4z"/>
<path class="st3" d="M-6344.9-8171.5h183.4"/>
<path class="st3" d="M-6344.9-8171.5H-6512"/>
<path class="st3" d="M-6157.1-8167.2c2.4-2.4,2.4-6.3,0-8.6c-2.4-2.4-6.3-2.4-8.6,0c-2.4,2.4-2.4,6.3,0,8.6
	C-6163.4-8164.8-6159.5-8164.8-6157.1-8167.2z"/>
<path class="st3" d="M-6507.7-8167.2c2.4-2.4,2.4-6.3,0-8.6c-2.4-2.4-6.3-2.4-8.6,0c-2.4,2.4-2.4,6.3,0,8.6
	C-6514-8164.8-6510.1-8164.8-6507.7-8167.2z"/>
<path class="st2" d="M-6330.5-8157.1c7.9-7.9,7.9-20.9,0-28.8c-7.9-7.9-20.9-7.9-28.8,0c-7.9,7.9-7.9,20.9,0,28.8
	S-6338.4-8149.1-6330.5-8157.1z"/>
<path class="st3" d="M-6944.1-8130.7l244.6-32.6"/>
<path class="st3" d="M-6944.1-8130.7l-8.2,20.4"/>
<path class="st3" d="M-6695.2-8159c2.4-2.4,2.4-6.3,0-8.6c-2.4-2.4-6.3-2.4-8.6,0c-2.4,2.4-2.4,6.3,0,8.6
	C-6701.5-8156.6-6697.6-8156.6-6695.2-8159z"/>
<path class="st3" d="M-6948-8106c2.4-2.4,2.4-6.3,0-8.6c-2.4-2.4-6.3-2.4-8.6,0c-2.4,2.4-2.4,6.3,0,8.6
	C-6954.2-8103.6-6950.3-8103.6-6948-8106z"/>
<path class="st2" d="M-6929.7-8116.3c7.9-7.9,7.9-20.9,0-28.8s-20.9-7.9-28.8,0s-7.9,20.9,0,28.8
	C-6950.6-8108.4-6937.7-8108.4-6929.7-8116.3z"/>
<path class="st3" d="M-6956.4-8057.4v-28.5"/>
<path class="st3" d="M-6956.4-8057.4v77.5"/>
<path class="st3" d="M-6952.1-8081.6c2.4-2.4,2.4-6.3,0-8.6c-2.4-2.4-6.3-2.4-8.6,0c-2.4,2.4-2.4,6.3,0,8.6
	C-6958.3-8079.2-6954.4-8079.2-6952.1-8081.6z"/>
<path class="st3" d="M-6952.1-7975.6c2.4-2.4,2.4-6.3,0-8.6c-2.4-2.4-6.3-2.4-8.6,0c-2.4,2.4-2.4,6.3,0,8.6
	C-6958.3-7973.2-6954.4-7973.2-6952.1-7975.6z"/>
<path class="st2" d="M-6941.9-8042.9c7.9-7.9,7.9-20.9,0-28.8s-20.9-7.9-28.8,0s-7.9,20.9,0,28.8
	C-6962.8-8035-6949.9-8035-6941.9-8042.9z"/>
<path class="st3" d="M-6858.5-7918.8h-61.1"/>
<path class="st3" d="M-6858.5-7918.8h53"/>
<path class="st3" d="M-6915.4-7914.4c2.4-2.4,2.4-6.3,0-8.6c-2.4-2.4-6.3-2.4-8.6,0c-2.4,2.4-2.4,6.3,0,8.6
	C-6921.6-7912-6917.7-7912-6915.4-7914.4z"/>
<path class="st3" d="M-6801.2-7914.4c2.4-2.4,2.4-6.3,0-8.6c-2.4-2.4-6.3-2.4-8.6,0c-2.4,2.4-2.4,6.3,0,8.6
	C-6807.5-7912-6803.6-7912-6801.2-7914.4z"/>
<path class="st2" d="M-6844.1-7904.3c7.9-7.9,7.9-20.9,0-28.8s-20.9-7.9-28.8,0s-7.9,20.9,0,28.8S-6852.1-7896.4-6844.1-7904.3z"/>
<path class="st3" d="M-6365.3-8000.3l-281.3,16.3"/>
<path class="st3" d="M-6365.3-8000.3L-6365.3-8000.3"/>
<path class="st3" d="M-6642.2-7979.7c2.4-2.4,2.4-6.3,0-8.6c-2.4-2.4-6.3-2.4-8.6,0c-2.4,2.4-2.4,6.3,0,8.6
	C-6648.5-7977.3-6644.6-7977.3-6642.2-7979.7z"/>
<path class="st2" d="M-6350.8-7985.9c7.9-7.9,7.9-20.9,0-28.8s-20.9-7.9-28.8,0s-7.9,20.9,0,28.8S-6358.8-7977.9-6350.8-7985.9z"/>
<path class="st3" d="M-6344.9-7979.9L-6344.9-7979.9"/>
<path class="st3" d="M-6344.9-7979.9v513.6"/>
<path class="st3" d="M-6340.6-7461.9c2.4-2.4,2.4-6.3,0-8.6c-2.4-2.4-6.3-2.4-8.6,0c-2.4,2.4-2.4,6.3,0,8.6
	C-6346.8-7459.5-6342.9-7459.5-6340.6-7461.9z"/>
<path class="st2" d="M-6330.5-7965.5c7.9-7.9,7.9-20.9,0-28.8s-20.9-7.9-28.8,0s-7.9,20.9,0,28.8S-6338.4-7957.5-6330.5-7965.5z"/>
<path class="st3" d="M-6344.9-6439v-513.6"/>
<path class="st3" d="M-6344.9-6439v106"/>
<path class="st3" d="M-6340.6-6948.3c2.4-2.4,2.4-6.3,0-8.6c-2.4-2.4-6.3-2.4-8.6,0c-2.4,2.4-2.4,6.3,0,8.6
	C-6346.8-6945.9-6342.9-6945.9-6340.6-6948.3z"/>
<path class="st3" d="M-6340.6-6328.7c2.4-2.4,2.4-6.3,0-8.6c-2.4-2.4-6.3-2.4-8.6,0c-2.4,2.4-2.4,6.3,0,8.6
	C-6346.8-6326.3-6342.9-6326.3-6340.6-6328.7z"/>
<path class="st2" d="M-6330.5-6424.5c7.9-7.9,7.9-20.9,0-28.8s-20.9-7.9-28.8,0s-7.9,20.9,0,28.8S-6338.4-6416.6-6330.5-6424.5z"/>
<path class="st3" d="M-6287.8-6206.6l-36.7-48.9"/>
<path class="st3" d="M-6287.8-6206.6L-6287.8-6206.6"/>
<path class="st3" d="M-6320.2-6251.2c2.4-2.4,2.4-6.3,0-8.6c-2.4-2.4-6.3-2.4-8.6,0c-2.4,2.4-2.4,6.3,0,8.6
	C-6326.4-6248.8-6322.6-6248.8-6320.2-6251.2z"/>
<path class="st2" d="M-6273.4-6192.2c7.9-7.9,7.9-20.9,0-28.8s-20.9-7.9-28.8,0s-7.9,20.9,0,28.8S-6281.3-6184.2-6273.4-6192.2z"/>
<path class="st3" d="M-6169.6-7417.3L-6169.6-7417.3"/>
<path class="st3" d="M-6169.6-7417.3L-6169.6-7417.3"/>
<path class="st2" d="M-6155.2-7402.9c7.9-7.9,7.9-20.9,0-28.8s-20.9-7.9-28.8,0s-7.9,20.9,0,28.8
	C-6176-7395-6163.1-7395-6155.2-7402.9z"/>
<path class="st3" d="M-6169.6-6875.2L-6169.6-6875.2"/>
<path class="st3" d="M-6169.6-6875.2l224.2-803.1"/>
<path class="st3" d="M-5941.1-7673.9c2.4-2.4,2.4-6.3,0-8.6c-2.4-2.4-6.3-2.4-8.6,0c-2.4,2.4-2.4,6.3,0,8.6
	C-5947.3-7671.5-5943.4-7671.5-5941.1-7673.9z"/>
<path class="st2" d="M-6155.2-6860.7c7.9-7.9,7.9-20.9,0-28.8s-20.9-7.9-28.8,0s-7.9,20.9,0,28.8S-6163.1-6852.8-6155.2-6860.7z"/>
<path class="st3" d="M-5305.4-7975.8h-326.1"/>
<path class="st3" d="M-5305.4-7975.8h110.1"/>
<path class="st3" d="M-5627.2-7971.5c2.4-2.4,2.4-6.3,0-8.6c-2.4-2.4-6.3-2.4-8.6,0c-2.4,2.4-2.4,6.3,0,8.6
	C-5633.4-7969.1-5629.5-7969.1-5627.2-7971.5z"/>
<path class="st3" d="M-5191-7971.5c2.4-2.4,2.4-6.3,0-8.6c-2.4-2.4-6.3-2.4-8.6,0c-2.4,2.4-2.4,6.3,0,8.6
	C-5197.2-7969.1-5193.4-7969.1-5191-7971.5z"/>
<path class="st2" d="M-5290.9-7961.4c7.9-7.9,7.9-20.9,0-28.8s-20.9-7.9-28.8,0c-7.9,7.9-7.9,20.9,0,28.8
	C-5311.8-7953.4-5298.9-7953.4-5290.9-7961.4z"/>
<path class="st3" d="M-5036.3-7926.9l-89.7-32.6"/>
<path class="st3" d="M-5036.3-7926.9L-5036.3-7926.9"/>
<path class="st3" d="M-5121.7-7955.2c2.4-2.4,2.4-6.3,0-8.6c-2.4-2.4-6.3-2.4-8.6,0c-2.4,2.4-2.4,6.3,0,8.6
	C-5127.9-7952.8-5124.1-7952.8-5121.7-7955.2z"/>
<path class="st2" d="M-5021.9-7912.5c7.9-7.9,7.9-20.9,0-28.8c-7.9-7.9-20.9-7.9-28.8,0s-7.9,20.9,0,28.8
	C-5042.8-7904.5-5029.8-7904.5-5021.9-7912.5z"/>
<path class="st3" d="M-5011.9-7926.9L-5011.9-7926.9"/>
<path class="st3" d="M-5011.9-7926.9l16.3-36.7"/>
<path class="st3" d="M-4991.2-7959.3c2.4-2.4,2.4-6.3,0-8.6c-2.4-2.4-6.3-2.4-8.6,0c-2.4,2.4-2.4,6.3,0,8.6
	C-4997.5-7956.9-4993.6-7956.9-4991.2-7959.3z"/>
<path class="st2" d="M-4997.4-7912.5c7.9-7.9,7.9-20.9,0-28.8s-20.9-7.9-28.8,0s-7.9,20.9,0,28.8
	C-5018.3-7904.5-5005.4-7904.5-4997.4-7912.5z"/>
<path class="st3" d="M-4987.4-8057.4v48.9"/>
<path class="st3" d="M-4987.4-8057.4v-32.6"/>
<path class="st3" d="M-4983.1-8004.1c2.4-2.4,2.4-6.3,0-8.6c-2.4-2.4-6.3-2.4-8.6,0c-2.4,2.4-2.4,6.3,0,8.6
	C-4989.3-8001.7-4985.5-8001.7-4983.1-8004.1z"/>
<path class="st3" d="M-4983.1-8085.6c2.4-2.4,2.4-6.3,0-8.6c-2.4-2.4-6.3-2.4-8.6,0c-2.4,2.4-2.4,6.3,0,8.6
	C-4989.3-8083.2-4985.5-8083.2-4983.1-8085.6z"/>
<path class="st2" d="M-4973-8042.9c7.9-7.9,7.9-20.9,0-28.8c-7.9-7.9-20.9-7.9-28.8,0s-7.9,20.9,0,28.8
	C-4993.9-8035-4980.9-8035-4973-8042.9z"/>
<path class="st3" d="M-5015.9-8134.8l20.4,20.4"/>
<path class="st3" d="M-5015.9-8134.8l-36.7-36.7"/>
<path class="st3" d="M-4991.2-8110.1c2.4-2.4,2.4-6.3,0-8.6c-2.4-2.4-6.3-2.4-8.6,0c-2.4,2.4-2.4,6.3,0,8.6
	C-4997.5-8107.7-4993.6-8107.7-4991.2-8110.1z"/>
<path class="st3" d="M-5048.3-8167.2c2.4-2.4,2.4-6.3,0-8.6c-2.4-2.4-6.3-2.4-8.6,0c-2.4,2.4-2.4,6.3,0,8.6
	C-5054.6-8164.8-5050.7-8164.8-5048.3-8167.2z"/>
<path class="st2" d="M-5001.5-8120.4c7.9-7.9,7.9-20.9,0-28.8s-20.9-7.9-28.8,0c-7.9,7.9-7.9,20.9,0,28.8
	C-5022.4-8112.4-5009.5-8112.4-5001.5-8120.4z"/>
<path class="st3" d="M-5260.5-8187.8h134.5"/>
<path class="st3" d="M-5260.5-8187.8h-391.3"/>
<path class="st3" d="M-5121.7-8183.5c2.4-2.4,2.4-6.3,0-8.6c-2.4-2.4-6.3-2.4-8.6,0c-2.4,2.4-2.4,6.3,0,8.6
	C-5127.9-8181.1-5124.1-8181.1-5121.7-8183.5z"/>
<path class="st3" d="M-5647.6-8183.5c2.4-2.4,2.4-6.3,0-8.6c-2.4-2.4-6.3-2.4-8.6,0c-2.4,2.4-2.4,6.3,0,8.6
	C-5653.8-8181.1-5649.9-8181.1-5647.6-8183.5z"/>
<path class="st2" d="M-5246.1-8173.4c7.9-7.9,7.9-20.9,0-28.8c-7.9-7.9-20.9-7.9-28.8,0s-7.9,20.9,0,28.8
	S-5254.1-8165.4-5246.1-8173.4z"/>
<path class="st3" d="M-6112.5-7417.3l171.2-521.8"/>
<path class="st3" d="M-6112.5-7417.3L-6112.5-7417.3"/>
<path class="st3" d="M-5937-7934.8c2.4-2.4,2.4-6.3,0-8.6c-2.4-2.4-6.3-2.4-8.6,0c-2.4,2.4-2.4,6.3,0,8.6
	C-5943.2-7932.4-5939.4-7932.4-5937-7934.8z"/>
<path class="st2" d="M-6098.1-7402.9c7.9-7.9,7.9-20.9,0-28.8s-20.9-7.9-28.8,0c-7.9,7.9-7.9,20.9,0,28.8
	C-6119-7395-6106.1-7395-6098.1-7402.9z"/>
<path class="st3" d="M-6964.5-6190.3L-6964.5-6190.3"/>
<path class="st3" d="M-6964.5-6190.3l-8.2,24.5"/>
<path class="st3" d="M-6968.4-6161.5c2.4-2.4,2.4-6.3,0-8.6c-2.4-2.4-6.3-2.4-8.6,0c-2.4,2.4-2.4,6.3,0,8.6
	C-6974.6-6159.1-6970.7-6159.1-6968.4-6161.5z"/>
<path class="st2" d="M-6950.1-6175.9c7.9-7.9,7.9-20.9,0-28.8s-20.9-7.9-28.8,0c-7.9,7.9-7.9,20.9,0,28.8
	C-6971-6167.9-6958-6167.9-6950.1-6175.9z"/>
<path class="st3" d="M-6976.8-6108.8v-32.6"/>
<path class="st3" d="M-6976.8-6108.8v69.3"/>
<path class="st3" d="M-6972.4-6137.1c2.4-2.4,2.4-6.3,0-8.6c-2.4-2.4-6.3-2.4-8.6,0c-2.4,2.4-2.4,6.3,0,8.6
	C-6978.7-6134.7-6974.8-6134.7-6972.4-6137.1z"/>
<path class="st3" d="M-6972.4-6035.2c2.4-2.4,2.4-6.3,0-8.6c-2.4-2.4-6.3-2.4-8.6,0c-2.4,2.4-2.4,6.3,0,8.6
	C-6978.7-6032.7-6974.8-6032.7-6972.4-6035.2z"/>
<path class="st2" d="M-6962.3-6094.3c7.9-7.9,7.9-20.9,0-28.8s-20.9-7.9-28.8,0s-7.9,20.9,0,28.8S-6970.3-6086.4-6962.3-6094.3z"/>
<path class="st3" d="M-6858.5-5986.5h-97.8"/>
<path class="st3" d="M-6858.5-5986.5L-6858.5-5986.5"/>
<path class="st3" d="M-6952.1-5982.2c2.4-2.4,2.4-6.3,0-8.6c-2.4-2.4-6.3-2.4-8.6,0c-2.4,2.4-2.4,6.3,0,8.6
	C-6958.3-5979.8-6954.4-5979.8-6952.1-5982.2z"/>
<path class="st2" d="M-6844.1-5972c7.9-7.9,7.9-20.9,0-28.8c-7.9-7.9-20.9-7.9-28.8,0c-7.9,7.9-7.9,20.9,0,28.8
	S-6852.1-5964.1-6844.1-5972z"/>
<path class="st3" d="M-5272.8-5986.5L-5272.8-5986.5"/>
<path class="st3" d="M-5272.8-5986.5l4.1-8.2"/>
<path class="st3" d="M-5264.4-5990.3c2.4-2.4,2.4-6.3,0-8.6c-2.4-2.4-6.3-2.4-8.6,0c-2.4,2.4-2.4,6.3,0,8.6
	C-5270.6-5987.9-5266.7-5987.9-5264.4-5990.3z"/>
<path class="st2" d="M-5258.3-5972c7.9-7.9,7.9-20.9,0-28.8c-7.9-7.9-20.9-7.9-28.8,0c-7.9,7.9-7.9,20.9,0,28.8
	C-5279.2-5964.1-5266.3-5964.1-5258.3-5972z"/>
<path class="st3" d="M-5264.6-6019.1v12.2"/>
<path class="st3" d="M-5264.6-6019.1v-93.8"/>
<path class="st3" d="M-5260.3-6002.5c2.4-2.4,2.4-6.3,0-8.6c-2.4-2.4-6.3-2.4-8.6,0c-2.4,2.4-2.4,6.3,0,8.6
	C-5266.5-6000.1-5262.7-6000.1-5260.3-6002.5z"/>
<path class="st3" d="M-5260.3-6108.5c2.4-2.4,2.4-6.3,0-8.6c-2.4-2.4-6.3-2.4-8.6,0c-2.4,2.4-2.4,6.3,0,8.6
	C-5266.5-6106.1-5262.7-6106.1-5260.3-6108.5z"/>
<path class="st2" d="M-5250.2-6004.7c7.9-7.9,7.9-20.9,0-28.8c-7.9-7.9-20.9-7.9-28.8,0c-7.9,7.9-7.9,20.9,0,28.8
	S-5258.1-5996.7-5250.2-6004.7z"/>
<path class="st3" d="M-6120.7-6190.3h464.7"/>
<path class="st3" d="M-6120.7-6190.3L-6120.7-6190.3"/>
<path class="st3" d="M-5651.6-6186c2.4-2.4,2.4-6.3,0-8.6c-2.4-2.4-6.3-2.4-8.6,0c-2.4,2.4-2.4,6.3,0,8.6
	C-5657.9-6183.6-5654-6183.6-5651.6-6186z"/>
<path class="st2" d="M-6106.3-6175.9c7.9-7.9,7.9-20.9,0-28.8s-20.9-7.9-28.8,0s-7.9,20.9,0,28.8S-6114.2-6167.9-6106.3-6175.9z"/>
<path class="st1" d="M-3193.8-6901.7L-3193.8-6901.7"/>
<path class="st1" d="M-3193.8-6901.7L-3193.8-6901.7"/>
<path class="st2" d="M-3179.3-6887.3c7.9-7.9,7.9-20.9,0-28.8s-20.9-7.9-28.8,0s-7.9,20.9,0,28.8S-3187.3-6879.3-3179.3-6887.3z"/>
<path class="st3" d="M-2276.5-6901.7L-2276.5-6901.7"/>
<path class="st3" d="M-2276.5-6901.7v-415.8"/>
<path class="st3" d="M-2272.2-7313.2c2.4-2.4,2.4-6.3,0-8.6c-2.4-2.4-6.3-2.4-8.6,0c-2.4,2.4-2.4,6.3,0,8.6
	C-2278.5-7310.8-2274.6-7310.8-2272.2-7313.2z"/>
<path class="st2" d="M-2262.1-6887.3c7.9-7.9,7.9-20.9,0-28.8s-20.9-7.9-28.8,0c-7.9,7.9-7.9,20.9,0,28.8
	C-2283-6879.3-2270.1-6879.3-2262.1-6887.3z"/>
<path class="st3" d="M-2276.5-8059.4v342.4"/>
<path class="st3" d="M-2276.5-8059.4v-4.1"/>
<path class="st3" d="M-2272.2-7712.7c2.4-2.4,2.4-6.3,0-8.6c-2.4-2.4-6.3-2.4-8.6,0c-2.4,2.4-2.4,6.3,0,8.6
	C-2278.5-7710.3-2274.6-7710.3-2272.2-7712.7z"/>
<path class="st3" d="M-2272.2-8059.2c2.4-2.4,2.4-6.3,0-8.6c-2.4-2.4-6.3-2.4-8.6,0c-2.4,2.4-2.4,6.3,0,8.6
	C-2278.5-8056.8-2274.6-8056.8-2272.2-8059.2z"/>
<path class="st2" d="M-2262.1-8045c7.9-7.9,7.9-20.9,0-28.8c-7.9-7.9-20.9-7.9-28.8,0c-7.9,7.9-7.9,20.9,0,28.8
	C-2283-8037.1-2270.1-8037.1-2262.1-8045z"/>
<path class="st3" d="M-2472.2-8642.4h4.1"/>
<path class="st3" d="M-2472.2-8642.4L-2472.2-8642.4"/>
<path class="st3" d="M-2463.8-8638.1c2.4-2.4,2.4-6.3,0-8.6c-2.4-2.4-6.3-2.4-8.6,0c-2.4,2.4-2.4,6.3,0,8.6
	C-2470.1-8635.7-2466.2-8635.7-2463.8-8638.1z"/>
<path class="st2" d="M-2457.8-8628c7.9-7.9,7.9-20.9,0-28.8c-7.9-7.9-20.9-7.9-28.8,0c-7.9,7.9-7.9,20.9,0,28.8
	C-2478.7-8620-2465.7-8620-2457.8-8628z"/>
<path class="st3" d="M-3560.7-8642.4L-3560.7-8642.4"/>
<path class="st3" d="M-3560.7-8642.4v256.8"/>
<path class="st3" d="M-3556.3-8381.2c2.4-2.4,2.4-6.3,0-8.6c-2.4-2.4-6.3-2.4-8.6,0c-2.4,2.4-2.4,6.3,0,8.6
	C-3562.6-8378.8-3558.7-8378.8-3556.3-8381.2z"/>
<path class="st2" d="M-3546.2-8628c7.9-7.9,7.9-20.9,0-28.8s-20.9-7.9-28.8,0s-7.9,20.9,0,28.8S-3554.2-8620-3546.2-8628z"/>
<path class="st3" d="M-3560.7-7871.9v-256.8"/>
<path class="st3" d="M-3560.7-7871.9v28.5"/>
<path class="st3" d="M-3556.3-8124.4c2.4-2.4,2.4-6.3,0-8.6c-2.4-2.4-6.3-2.4-8.6,0c-2.4,2.4-2.4,6.3,0,8.6
	C-3562.6-8122-3558.7-8122-3556.3-8124.4z"/>
<path class="st3" d="M-3556.3-7839.1c2.4-2.4,2.4-6.3,0-8.6c-2.4-2.4-6.3-2.4-8.6,0c-2.4,2.4-2.4,6.3,0,8.6
	C-3562.6-7836.7-3558.7-7836.7-3556.3-7839.1z"/>
<path class="st2" d="M-3546.2-7857.5c7.9-7.9,7.9-20.9,0-28.8s-20.9-7.9-28.8,0s-7.9,20.9,0,28.8S-3554.2-7849.5-3546.2-7857.5z"/>
<path class="st3" d="M-3515.8-7827.1h-28.5"/>
<path class="st3" d="M-3515.8-7827.1h81.5"/>
<path class="st3" d="M-3540-7822.8c2.4-2.4,2.4-6.3,0-8.6c-2.4-2.4-6.3-2.4-8.6,0c-2.4,2.4-2.4,6.3,0,8.6
	C-3546.3-7820.4-3542.4-7820.4-3540-7822.8z"/>
<path class="st3" d="M-3430-7822.8c2.4-2.4,2.4-6.3,0-8.6c-2.4-2.4-6.3-2.4-8.6,0c-2.4,2.4-2.4,6.3,0,8.6
	C-3436.2-7820.4-3432.3-7820.4-3430-7822.8z"/>
<path class="st2" d="M-3501.4-7812.7c7.9-7.9,7.9-20.9,0-28.8s-20.9-7.9-28.8,0c-7.9,7.9-7.9,20.9,0,28.8
	C-3522.3-7804.7-3509.3-7804.7-3501.4-7812.7z"/>
<path class="st3" d="M-3263.1-7827.1h-85.6"/>
<path class="st3" d="M-3263.1-7827.1L-3263.1-7827.1"/>
<path class="st3" d="M-3344.4-7822.8c2.4-2.4,2.4-6.3,0-8.6c-2.4-2.4-6.3-2.4-8.6,0c-2.4,2.4-2.4,6.3,0,8.6
	C-3350.6-7820.4-3346.7-7820.4-3344.4-7822.8z"/>
<path class="st2" d="M-3248.6-7812.7c7.9-7.9,7.9-20.9,0-28.8s-20.9-7.9-28.8,0s-7.9,20.9,0,28.8S-3256.6-7804.7-3248.6-7812.7z"/>
<path class="st3" d="M-3193.8-7827.1L-3193.8-7827.1"/>
<path class="st3" d="M-3193.8-7827.1v97.8"/>
<path class="st3" d="M-3189.4-7724.9c2.4-2.4,2.4-6.3,0-8.6c-2.4-2.4-6.3-2.4-8.6,0c-2.4,2.4-2.4,6.3,0,8.6
	C-3195.7-7722.5-3191.8-7722.5-3189.4-7724.9z"/>
<path class="st2" d="M-3179.3-7812.7c7.9-7.9,7.9-20.9,0-28.8s-20.9-7.9-28.8,0s-7.9,20.9,0,28.8S-3187.3-7804.7-3179.3-7812.7z"/>
<path class="st3" d="M-3193.8-7537.7v-93.8"/>
<path class="st3" d="M-3193.8-7537.7v85.6"/>
<path class="st3" d="M-3189.4-7627.1c2.4-2.4,2.4-6.3,0-8.6c-2.4-2.4-6.3-2.4-8.6,0c-2.4,2.4-2.4,6.3,0,8.6
	C-3195.7-7624.7-3191.8-7624.7-3189.4-7627.1z"/>
<path class="st3" d="M-3189.4-7447.7c2.4-2.4,2.4-6.3,0-8.6c-2.4-2.4-6.3-2.4-8.6,0c-2.4,2.4-2.4,6.3,0,8.6
	C-3195.7-7445.3-3191.8-7445.3-3189.4-7447.7z"/>
<path class="st2" d="M-3179.3-7523.2c7.9-7.9,7.9-20.9,0-28.8c-7.9-7.9-20.9-7.9-28.8,0c-7.9,7.9-7.9,20.9,0,28.8
	C-3200.2-7515.3-3187.3-7515.3-3179.3-7523.2z"/>
<path class="st3" d="M-3193.8-7284.9v-85.6"/>
<path class="st3" d="M-3193.8-7284.9L-3193.8-7284.9"/>
<path class="st3" d="M-3189.4-7366.2c2.4-2.4,2.4-6.3,0-8.6c-2.4-2.4-6.3-2.4-8.6,0c-2.4,2.4-2.4,6.3,0,8.6
	C-3195.7-7363.8-3191.8-7363.8-3189.4-7366.2z"/>
<path class="st2" d="M-3179.3-7270.5c7.9-7.9,7.9-20.9,0-28.8s-20.9-7.9-28.8,0s-7.9,20.9,0,28.8S-3187.3-7262.5-3179.3-7270.5z"/>
<path class="st3" d="M-2386.6-8128.7L-2386.6-8128.7"/>
<path class="st3" d="M-2386.6-8128.7L-2386.6-8128.7"/>
<path class="st2" d="M-2372.2-8114.3c7.9-7.9,7.9-20.9,0-28.8c-7.9-7.9-20.9-7.9-28.8,0s-7.9,20.9,0,28.8
	C-2393-8106.4-2380.1-8106.4-2372.2-8114.3z"/>
<path class="st3" d="M-2349.9-7521.3L-2349.9-7521.3"/>
<path class="st3" d="M-2349.9-7521.3l141.3-87.3"/>
<path class="st3" d="M-2204.3-7604.3c2.4-2.4,2.4-6.3,0-8.6c-2.4-2.4-6.3-2.4-8.6,0c-2.4,2.4-2.4,6.3,0,8.6
	C-2210.5-7601.9-2206.7-7601.9-2204.3-7604.3z"/>
<path class="st2" d="M-2335.5-7506.9c7.9-7.9,7.9-20.9,0-28.8c-7.9-7.9-20.9-7.9-28.8,0c-7.9,7.9-7.9,20.9,0,28.8
	C-2356.4-7499-2343.4-7499-2335.5-7506.9z"/>
<path class="st3" d="M-1836.3-7643.6h-175.4"/>
<path class="st3" d="M-1836.3-7643.6h134.8"/>
<path class="st3" d="M-2007.3-7639.3c2.4-2.4,2.4-6.3,0-8.6c-2.4-2.4-6.3-2.4-8.6,0c-2.4,2.4-2.4,6.3,0,8.6
	C-2013.6-7636.9-2009.7-7636.9-2007.3-7639.3z"/>
<path class="st3" d="M-1697.1-7639.3c2.4-2.4,2.4-6.3,0-8.6c-2.4-2.4-6.3-2.4-8.6,0c-2.4,2.4-2.4,6.3,0,8.6
	C-1703.4-7636.9-1699.5-7636.9-1697.1-7639.3z"/>
<path class="st2" d="M-1821.8-7629.2c7.9-7.9,7.9-20.9,0-28.8c-7.9-7.9-20.9-7.9-28.8,0c-7.9,7.9-7.9,20.9,0,28.8
	C-1842.7-7621.3-1829.8-7621.3-1821.8-7629.2z"/>
<path class="st3" d="M-1400.1-7570.3l-147.3-47.8"/>
<path class="st3" d="M-1400.1-7570.3L-1400.1-7570.3"/>
<path class="st3" d="M-1543.1-7613.7c2.4-2.4,2.4-6.3,0-8.6c-2.4-2.4-6.3-2.4-8.6,0c-2.4,2.4-2.4,6.3,0,8.6
	C-1549.3-7611.3-1545.4-7611.3-1543.1-7613.7z"/>
<path class="st2" d="M-1385.7-7555.8c7.9-7.9,7.9-20.9,0-28.8c-7.9-7.9-20.9-7.9-28.8,0c-7.9,7.9-7.9,20.9,0,28.8
	C-1406.5-7547.9-1393.6-7547.9-1385.7-7555.8z"/>
<path class="st3" d="M-1318.6-7570.3L-1318.6-7570.3"/>
<path class="st3" d="M-1318.6-7570.3v-338.4"/>
<path class="st3" d="M-1314.2-7904.3c2.4-2.4,2.4-6.3,0-8.6c-2.4-2.4-6.3-2.4-8.6,0c-2.4,2.4-2.4,6.3,0,8.6
	C-1320.5-7901.9-1316.6-7901.9-1314.2-7904.3z"/>
<path class="st2" d="M-1304.1-7555.8c7.9-7.9,7.9-20.9,0-28.8c-7.9-7.9-20.9-7.9-28.8,0c-7.9,7.9-7.9,20.9,0,28.8
	C-1325-7547.9-1312.1-7547.9-1304.1-7555.8z"/>
<path class="st3" d="M-1318.6-8585.3v338.4"/>
<path class="st3" d="M-1318.6-8585.3v-20.4"/>
<path class="st3" d="M-1314.2-8242.6c2.4-2.4,2.4-6.3,0-8.6c-2.4-2.4-6.3-2.4-8.6,0c-2.4,2.4-2.4,6.3,0,8.6
	C-1320.5-8240.2-1316.6-8240.2-1314.2-8242.6z"/>
<path class="st3" d="M-1314.2-8601.4c2.4-2.4,2.4-6.3,0-8.6c-2.4-2.4-6.3-2.4-8.6,0c-2.4,2.4-2.4,6.3,0,8.6
	C-1320.5-8599-1316.6-8599-1314.2-8601.4z"/>
<path class="st2" d="M-1304.1-8570.9c7.9-7.9,7.9-20.9,0-28.8c-7.9-7.9-20.9-7.9-28.8,0c-7.9,7.9-7.9,20.9,0,28.8
	C-1325-8562.9-1312.1-8562.9-1304.1-8570.9z"/>
<path class="st3" d="M-1330.8-8626.1l8.2,8.2"/>
<path class="st3" d="M-1330.8-8626.1l-28.5-28.5"/>
<path class="st3" d="M-1318.3-8613.6c2.4-2.4,2.4-6.3,0-8.6c-2.4-2.4-6.3-2.4-8.6,0c-2.4,2.4-2.4,6.3,0,8.6
	C-1324.5-8611.2-1320.7-8611.2-1318.3-8613.6z"/>
<path class="st3" d="M-1355-8650.3c2.4-2.4,2.4-6.3,0-8.6c-2.4-2.4-6.3-2.4-8.6,0c-2.4,2.4-2.4,6.3,0,8.6
	C-1361.2-8647.9-1357.4-8647.9-1355-8650.3z"/>
<path class="st2" d="M-1316.4-8611.7c7.9-7.9,7.9-20.9,0-28.8c-7.9-7.9-20.9-7.9-28.8,0c-7.9,7.9-7.9,20.9,0,28.8
	C-1337.2-8603.7-1324.3-8603.7-1316.4-8611.7z"/>
<path class="st3" d="M-1567.2-8683.2h122.3"/>
<path class="st3" d="M-1567.2-8683.2h-285.4"/>
<path class="st3" d="M-1440.6-8678.8c2.4-2.4,2.4-6.3,0-8.6c-2.4-2.4-6.3-2.4-8.6,0c-2.4,2.4-2.4,6.3,0,8.6
	C-1446.8-8676.4-1443-8676.4-1440.6-8678.8z"/>
<path class="st3" d="M-1848.3-8678.8c2.4-2.4,2.4-6.3,0-8.6c-2.4-2.4-6.3-2.4-8.6,0c-2.4,2.4-2.4,6.3,0,8.6
	C-1854.5-8676.4-1850.6-8676.4-1848.3-8678.8z"/>
<path class="st2" d="M-1552.8-8668.7c7.9-7.9,7.9-20.9,0-28.8s-20.9-7.9-28.8,0s-7.9,20.9,0,28.8
	C-1573.7-8660.8-1560.7-8660.8-1552.8-8668.7z"/>
<path class="st3" d="M-2235.8-8128.7l154.9-403.6"/>
<path class="st3" d="M-2235.8-8128.7L-2235.8-8128.7"/>
<path class="st3" d="M-2076.5-8528c2.4-2.4,2.4-6.3,0-8.6c-2.4-2.4-6.3-2.4-8.6,0c-2.4,2.4-2.4,6.3,0,8.6
	C-2082.8-8525.6-2078.9-8525.6-2076.5-8528z"/>
<path class="st2" d="M-2221.3-8114.3c7.9-7.9,7.9-20.9,0-28.8s-20.9-7.9-28.8,0c-7.9,7.9-7.9,20.9,0,28.8
	C-2242.2-8106.4-2229.3-8106.4-2221.3-8114.3z"/>
<path class="st3" d="M-3560.7-7215.6L-3560.7-7215.6"/>
<path class="st3" d="M-3560.7-7215.6v187.5"/>
<path class="st3" d="M-3556.3-7023.8c2.4-2.4,2.4-6.3,0-8.6c-2.4-2.4-6.3-2.4-8.6,0c-2.4,2.4-2.4,6.3,0,8.6
	C-3562.6-7021.4-3558.7-7021.4-3556.3-7023.8z"/>
<path class="st2" d="M-3546.2-7201.2c7.9-7.9,7.9-20.9,0-28.8s-20.9-7.9-28.8,0s-7.9,20.9,0,28.8
	C-3567.1-7193.2-3554.2-7193.2-3546.2-7201.2z"/>
<path class="st3" d="M-3560.7-6445.1v-187.5"/>
<path class="st3" d="M-3560.7-6445.1v28.5"/>
<path class="st3" d="M-3556.3-6628.3c2.4-2.4,2.4-6.3,0-8.6c-2.4-2.4-6.3-2.4-8.6,0c-2.4,2.4-2.4,6.3,0,8.6
	C-3562.6-6625.9-3558.7-6625.9-3556.3-6628.3z"/>
<path class="st3" d="M-3556.3-6412.3c2.4-2.4,2.4-6.3,0-8.6c-2.4-2.4-6.3-2.4-8.6,0c-2.4,2.4-2.4,6.3,0,8.6
	C-3562.6-6409.9-3558.7-6409.9-3556.3-6412.3z"/>
<path class="st2" d="M-3546.2-6430.7c7.9-7.9,7.9-20.9,0-28.8s-20.9-7.9-28.8,0s-7.9,20.9,0,28.8S-3554.2-6422.8-3546.2-6430.7z"/>
<path class="st3" d="M-3515.8-6400.3h-28.5"/>
<path class="st3" d="M-3515.8-6400.3L-3515.8-6400.3"/>
<path class="st3" d="M-3540-6396c2.4-2.4,2.4-6.3,0-8.6c-2.4-2.4-6.3-2.4-8.6,0c-2.4,2.4-2.4,6.3,0,8.6
	C-3546.3-6393.6-3542.4-6393.6-3540-6396z"/>
<path class="st2" d="M-3501.4-6385.9c7.9-7.9,7.9-20.9,0-28.8s-20.9-7.9-28.8,0c-7.9,7.9-7.9,20.9,0,28.8
	C-3522.3-6377.9-3509.3-6377.9-3501.4-6385.9z"/>
<path class="st3" d="M-1563.1-6400.3L-1563.1-6400.3"/>
<path class="st3" d="M-1563.1-6400.3v-187.5"/>
<path class="st3" d="M-1558.8-6583.5c2.4-2.4,2.4-6.3,0-8.6c-2.4-2.4-6.3-2.4-8.6,0c-2.4,2.4-2.4,6.3,0,8.6
	C-1565.1-6581.1-1561.2-6581.1-1558.8-6583.5z"/>
<path class="st2" d="M-1548.7-6385.9c7.9-7.9,7.9-20.9,0-28.8s-20.9-7.9-28.8,0s-7.9,20.9,0,28.8S-1556.7-6377.9-1548.7-6385.9z"/>
<path class="st3" d="M-1563.1-7170.8v187.5"/>
<path class="st3" d="M-1563.1-7170.8v-28.5"/>
<path class="st3" d="M-1558.8-6978.9c2.4-2.4,2.4-6.3,0-8.6c-2.4-2.4-6.3-2.4-8.6,0c-2.4,2.4-2.4,6.3,0,8.6
	C-1565.1-6976.5-1561.2-6976.5-1558.8-6978.9z"/>
<path class="st3" d="M-1558.8-7195c2.4-2.4,2.4-6.3,0-8.6c-2.4-2.4-6.3-2.4-8.6,0c-2.4,2.4-2.4,6.3,0,8.6
	C-1565.1-7192.6-1561.2-7192.6-1558.8-7195z"/>
<path class="st2" d="M-1548.7-7156.3c7.9-7.9,7.9-20.9,0-28.8s-20.9-7.9-28.8,0s-7.9,20.9,0,28.8S-1556.7-7148.4-1548.7-7156.3z"/>
<path class="st3" d="M-1608-7215.6h28.5"/>
<path class="st3" d="M-1608-7215.6L-1608-7215.6"/>
<path class="st3" d="M-1575.1-7211.3c2.4-2.4,2.4-6.3,0-8.6c-2.4-2.4-6.3-2.4-8.6,0c-2.4,2.4-2.4,6.3,0,8.6
	C-1581.4-7208.9-1577.5-7208.9-1575.1-7211.3z"/>
<path class="st2" d="M-1593.6-7201.2c7.9-7.9,7.9-20.9,0-28.8s-20.9-7.9-28.8,0s-7.9,20.9,0,28.8
	C-1614.4-7193.2-1601.5-7193.2-1593.6-7201.2z"/>
<path class="st4" d="M-6316.4-6153.6l3122.6-748.1"/>
<path class="st4" d="M-6141.1-6141.4l3864.5-760.3"/>
<path class="st4" d="M-6141.1-7388.8l3864.5-670.6"/>
<path class="st4" d="M-6344.9-8171.5l3872.7-470.9"/>
<path class="st4" d="M-6944.1-8130.7l3383.5-511.7"/>
<path class="st4" d="M-6956.4-8057.4l3395.7,185.4"/>
<path class="st4" d="M-6858.5-7918.8l3342.7,91.7"/>
<path class="st4" d="M-6365.3-8000.3l3102.2,173.2"/>
<path class="st4" d="M-6344.9-7979.9l3151.1,152.8"/>
<path class="st4" d="M-6344.9-6439l3151.1-1098.7"/>
<path class="st4" d="M-6287.8-6206.6l3094.1-1078.3"/>
<path class="st4" d="M-6169.6-7417.3l3783-711.4"/>
<path class="st4" d="M-6169.6-6875.2l3819.7-646.2"/>
<path class="st4" d="M-5305.4-7975.8l3469.1,332.2"/>
<path class="st4" d="M-5036.3-7926.9l3636.2,356.6"/>
<path class="st4" d="M-5011.9-7926.9l3693.3,356.6"/>
<path class="st4" d="M-4987.4-8057.4l3668.9-528"/>
<path class="st4" d="M-5015.9-8134.8l3685.2-491.3"/>
<path class="st4" d="M-5260.5-8187.8l3693.3-495.4"/>
<path class="st4" d="M-6112.5-7417.3l3876.8-711.4"/>
<path class="st4" d="M-6964.5-6190.3l3403.9-1025.3"/>
<path class="st4" d="M-6976.8-6108.8l3416.1-336.4"/>
<path class="st4" d="M-6858.5-5986.5l3342.7-413.8"/>
<path class="st4" d="M-5272.8-5986.5l3709.6-413.8"/>
<path class="st4" d="M-5264.6-6019.1l3701.5-1151.7"/>
<path class="st4" d="M-6120.7-6190.3L-1608-7215.6"/>
<path class="st5" d="M-6316.4-6153.6l3122.6-748.1"/>
<path class="st5" d="M-6316.4-6153.6l3122.6-748.1"/>
<path class="st5" d="M-6141.1-6141.4l3864.5-760.3"/>
<path class="st5" d="M-6141.1-6557.2l3864.5-760.3"/>
<path class="st5" d="M-6141.1-6973l3864.5-744"/>
<path class="st5" d="M-6141.1-8122.6l3864.5,59.1"/>
<path class="st5" d="M-6161.5-8171.5l3693.3-470.9"/>
<path class="st5" d="M-6512-8171.5l4039.8-470.9"/>
<path class="st5" d="M-6699.6-8163.3l3138.9-479"/>
<path class="st5" d="M-6952.3-8110.4l3391.6-275.2"/>
<path class="st5" d="M-6956.4-8085.9l3395.7-42.9"/>
<path class="st5" d="M-6956.4-7979.9l3395.7,136.5"/>
<path class="st5" d="M-6919.7-7918.8l3375.3,91.7"/>
<path class="st5" d="M-6805.5-7918.8l3371.3,91.7"/>
<path class="st5" d="M-6646.6-7984l3297.9,156.9"/>
<path class="st5" d="M-6365.3-8000.3l3102.2,173.2"/>
<path class="st5" d="M-6344.9-7979.9l3151.1,152.8"/>
<path class="st5" d="M-6344.9-7466.3l3151.1-263"/>
<path class="st5" d="M-6344.9-6952.6l3151.1-678.8"/>
<path class="st5" d="M-6344.9-6333L-3193.8-7452"/>
<path class="st5" d="M-6324.5-6255.5l3130.8-1115"/>
<path class="st5" d="M-6287.8-6206.6l3094.1-1078.3"/>
<path class="st5" d="M-6169.6-7417.3l3783-711.4"/>
<path class="st5" d="M-6169.6-7417.3l3783-711.4"/>
<path class="st5" d="M-6169.6-6875.2l3819.7-646.2"/>
<path class="st5" d="M-5945.4-7678.2l3736.8,69.6"/>
<path class="st5" d="M-5631.5-7975.8l3619.9,332.2"/>
<path class="st5" d="M-5195.3-7975.8l3493.8,332.2"/>
<path class="st5" d="M-5126-7959.5l3578.6,341.5"/>
<path class="st5" d="M-5036.3-7926.9l3636.2,356.6"/>
<path class="st5" d="M-5011.9-7926.9l3693.3,356.6"/>
<path class="st5" d="M-4995.6-7963.6l3677,55"/>
<path class="st5" d="M-4987.4-8008.4l3668.9-238.5"/>
<path class="st5" d="M-4987.4-8090l3668.9-515.7"/>
<path class="st5" d="M-4995.6-8114.4l3672.9-503.5"/>
<path class="st5" d="M-5052.6-8171.5l3693.3-483.1"/>
<path class="st5" d="M-5126-8187.8l3681.1-495.4"/>
<path class="st5" d="M-5651.9-8187.8l3799.3-495.4"/>
<path class="st5" d="M-5941.3-7939.1l3860.5-593.2"/>
<path class="st5" d="M-6112.5-7417.3l3876.8-711.4"/>
<path class="st5" d="M-6964.5-6190.3l3403.9-1025.3"/>
<path class="st5" d="M-6972.7-6165.8l3412-862.2"/>
<path class="st5" d="M-6976.8-6141.4l3416.1-491.3"/>
<path class="st5" d="M-6976.8-6039.5l3416.1-377.1"/>
<path class="st5" d="M-6956.4-5986.5l3412-413.8"/>
<path class="st5" d="M-6858.5-5986.5l3342.7-413.8"/>
<path class="st5" d="M-5272.8-5986.5l3709.6-413.8"/>
<path class="st5" d="M-5268.7-5994.6l3705.5-593.2"/>
<path class="st5" d="M-5264.6-6006.9l3701.5-976.4"/>
<path class="st5" d="M-5264.6-6112.8l3701.5-1086.4"/>
<path class="st5" d="M-5656-6190.3l4076.5-1025.3"/>
<path class="st5" d="M-6120.7-6190.3L-1608-7215.6"/>
<rect x="-3000" y="-3251.8" width="6000" height="3000"/>
<path class="st6" d="M2665.3-1971.9L2665.3-1971.9"/>
<path class="st6" d="M2665.3-1971.9v-350.6"/>
<path class="st6" d="M2669.8-2318c2.5-2.5,2.5-6.5,0-9c-2.5-2.5-6.5-2.5-9,0c-2.5,2.5-2.5,6.5,0,9
	C2663.3-2315.5,2667.3-2315.5,2669.8-2318z"/>
<path class="st7" d="M2676.5-1960.7c6.2-6.2,6.2-16.2,0-22.4c-6.2-6.2-16.2-6.2-22.4,0s-6.2,16.2,0,22.4
	C2660.3-1954.5,2670.3-1954.5,2676.5-1960.7z"/>
<path class="st6" d="M2665.3-3023.6v350.6"/>
<path class="st6" d="M2665.3-3023.6v-21.1"/>
<path class="st6" d="M2669.8-2668.6c2.5-2.5,2.5-6.5,0-9c-2.5-2.5-6.5-2.5-9,0c-2.5,2.5-2.5,6.5,0,9
	C2663.3-2666.1,2667.3-2666.1,2669.8-2668.6z"/>
<path class="st6" d="M2669.8-3040.3c2.5-2.5,2.5-6.5,0-9c-2.5-2.5-6.5-2.5-9,0c-2.5,2.5-2.5,6.5,0,9
	C2663.3-3037.8,2667.3-3037.8,2669.8-3040.3z"/>
<path class="st7" d="M2676.5-3012.4c6.2-6.2,6.2-16.2,0-22.4c-6.2-6.2-16.2-6.2-22.4,0c-6.2,6.2-6.2,16.2,0,22.4
	S2670.3-3006.2,2676.5-3012.4z"/>
<path class="st6" d="M2652.6-3065.9l8.4,8.4"/>
<path class="st6" d="M2652.6-3065.9l-29.6-29.6"/>
<path class="st6" d="M2665.5-3053c2.5-2.5,2.5-6.5,0-9c-2.5-2.5-6.5-2.5-9,0c-2.5,2.5-2.5,6.5,0,9
	C2659.1-3050.5,2663.1-3050.5,2665.5-3053z"/>
<path class="st6" d="M2627.5-3091c2.5-2.5,2.5-6.5,0-9c-2.5-2.5-6.5-2.5-9,0c-2.5,2.5-2.5,6.5,0,9
	C2621.1-3088.5,2625.1-3088.5,2627.5-3091z"/>
<path class="st7" d="M2663.8-3054.7c6.2-6.2,6.2-16.2,0-22.4c-6.2-6.2-16.2-6.2-22.4,0c-6.2,6.2-6.2,16.2,0,22.4
	C2647.6-3048.5,2657.7-3048.5,2663.8-3054.7z"/>
<g>
	<path class="st0" d="M-2050-562.6h130.9c46.5-473.1,219.6-870.1,342.1-1288.3c160.5-544.9,194.3-806.8-4.2-806.8
		c-240.8,0-367.5,16.9-629.4,42.2c-16.9,21.1-25.3,46.5-33.8,76c-21.1,80.3,8.4,126.7,67.6,126.7c71.8,0,185.9-38,553.3-80.3
		l16.9,21.1c-101.4,620.9-354.8,1051.8-443.5,1622c-21.1,122.5-8.4,194.3,29.6,232.3L-2050-562.6z M-1636.1-1914.3l-122.5,570.2
		c430.8-722.3,882.8-1110.9,1229.2-1110.9c130.9,0,198.5,16.9,240.8,50.7h25.3c21.1-33.8,42.2-71.8,50.7-114
		c8.4-46.5,0-76-21.1-97.2c-42.2-42.2-118.3-59.1-253.4-59.1c-384.4,0-730.7,291.5-1056,806.8L-1636.1-1914.3z M-2747-596.4
		c-12.7,16.9-21.1,38-29.6,67.6c-21.1,71.8,8.4,135.2,88.7,135.2h1651.6c4.2-8.4,8.4-25.3,8.4-33.8c25.3-92.9-342.1-169-844.8-169
		H-2747z"/>
	<path class="st0" d="M722.3-1270.2h950.4c0-430.8,0-844.8,0-1199.6c0-4.2-198.5-604-202.8-604H342.1c0,266.1,0,532.2,0,798.3
		c0,29.6,16.9,46.5,46.5,46.5c84.5,0,173.2,0,261.9,0h71.8c0,101.4,0,202.8,0,299.9c0,88.7,0,173.2,0,261.9V-1270.2z M1558.6-2541.6
		l38,629.4c146.4-90.4,350.5-126.7,532.2-126.7c139.7,0,299.4,26.5,452,76h84.5c0-350.6,0-701.2,0-1051.8c0-21.1-4.2-33.8-12.7-42.2
		c-29.6-29.6-118.3-59.1-245-59.1c-295.7,0-532.2,156.3-692.7,574.5H1558.6z M342.1-1595.4c0,194.3,0,604,0,798.3
		c0,29.6,16.9,46.5,46.5,46.5h2023.3c0-194.3,0-604,0-798.3c0-29.6-16.9-46.5-46.5-46.5H342.1z"/>
	<path class="st8" d="M-2050-562.6L-2050-562.6"/>
	<path class="st8" d="M-2050-562.6L-2050-562.6"/>
	<path class="st7" d="M-2038.8-551.4c6.2-6.2,6.2-16.2,0-22.4s-16.2-6.2-22.4,0s-6.2,16.2,0,22.4
		C-2055-545.2-2045-545.2-2038.8-551.4z"/>
	<path class="st6" d="M-1919.1-562.6L-1919.1-562.6"/>
	<path class="st6" d="M-1919.1-562.6l46.5-473.1"/>
	<path class="st6" d="M-1868.1-1031.2c2.5-2.5,2.5-6.5,0-9c-2.5-2.5-6.5-2.5-9,0c-2.5,2.5-2.5,6.5,0,9
		C-1874.6-1028.7-1870.6-1028.7-1868.1-1031.2z"/>
	<path class="st7" d="M-1907.8-551.4c6.2-6.2,6.2-16.2,0-22.4s-16.2-6.2-22.4,0c-6.2,6.2-6.2,16.2,0,22.4
		C-1924.1-545.2-1914-545.2-1907.8-551.4z"/>
	<path class="st6" d="M-1576.9-1850.9l-122.5,418.2"/>
	<path class="st6" d="M-1576.9-1850.9l160.5-544.9"/>
	<path class="st6" d="M-1694.9-1428.3c2.5-2.5,2.5-6.5,0-9c-2.5-2.5-6.5-2.5-9,0c-2.5,2.5-2.5,6.5,0,9
		C-1701.4-1425.8-1697.4-1425.8-1694.9-1428.3z"/>
	<path class="st6" d="M-1411.9-2391.3c2.5-2.5,2.5-6.5,0-9c-2.5-2.5-6.5-2.5-9,0c-2.5,2.5-2.5,6.5,0,9
		C-1418.4-2388.8-1414.4-2388.8-1411.9-2391.3z"/>
	<path class="st7" d="M-1565.7-1839.7c6.2-6.2,6.2-16.2,0-22.4c-6.2-6.2-16.2-6.2-22.4,0c-6.2,6.2-6.2,16.2,0,22.4
		C-1581.9-1833.5-1571.9-1833.5-1565.7-1839.7z"/>
	<path class="st6" d="M-1581.1-2657.7h198.5"/>
	<path class="st6" d="M-1581.1-2657.7h-240.8"/>
	<path class="st6" d="M-1378.1-2653.2c2.5-2.5,2.5-6.5,0-9c-2.5-2.5-6.5-2.5-9,0c-2.5,2.5-2.5,6.5,0,9
		C-1384.6-2650.7-1380.6-2650.7-1378.1-2653.2z"/>
	<path class="st6" d="M-1817.4-2653.2c2.5-2.5,2.5-6.5,0-9c-2.5-2.5-6.5-2.5-9,0c-2.5,2.5-2.5,6.5,0,9
		C-1823.9-2650.7-1819.9-2650.7-1817.4-2653.2z"/>
	<path class="st7" d="M-1569.9-2646.5c6.2-6.2,6.2-16.2,0-22.4c-6.2-6.2-16.2-6.2-22.4,0c-6.2,6.2-6.2,16.2,0,22.4
		C-1586.1-2640.3-1576.1-2640.3-1569.9-2646.5z"/>
	<path class="st6" d="M-2210.5-2615.4l261.9-25.3"/>
	<path class="st6" d="M-2210.5-2615.4l-16.9,21.1"/>
	<path class="st6" d="M-1944.1-2636.3c2.5-2.5,2.5-6.5,0-9c-2.5-2.5-6.5-2.5-9,0c-2.5,2.5-2.5,6.5,0,9
		C-1950.6-2633.8-1946.6-2633.8-1944.1-2636.3z"/>
	<path class="st6" d="M-2222.9-2589.8c2.5-2.5,2.5-6.5,0-9c-2.5-2.5-6.5-2.5-9,0c-2.5,2.5-2.5,6.5,0,9
		C-2229.4-2587.4-2225.4-2587.4-2222.9-2589.8z"/>
	<path class="st7" d="M-2199.3-2604.2c6.2-6.2,6.2-16.2,0-22.4c-6.2-6.2-16.2-6.2-22.4,0c-6.2,6.2-6.2,16.2,0,22.4
		C-2215.5-2598-2205.5-2598-2199.3-2604.2z"/>
	<path class="st6" d="M-2244.3-2539.4l8.4-29.6"/>
	<path class="st6" d="M-2244.3-2539.4l-21.1,80.3"/>
	<path class="st6" d="M-2231.4-2564.5c2.5-2.5,2.5-6.5,0-9c-2.5-2.5-6.5-2.5-9,0c-2.5,2.5-2.5,6.5,0,9
		C-2237.8-2562-2233.8-2562-2231.4-2564.5z"/>
	<path class="st6" d="M-2260.9-2454.7c2.5-2.5,2.5-6.5,0-9c-2.5-2.5-6.5-2.5-9,0c-2.5,2.5-2.5,6.5,0,9
		C-2267.4-2452.2-2263.4-2452.2-2260.9-2454.7z"/>
	<path class="st7" d="M-2233.1-2528.2c6.2-6.2,6.2-16.2,0-22.4c-6.2-6.2-16.2-6.2-22.4,0c-6.2,6.2-6.2,16.2,0,22.4
		C-2249.3-2522-2239.3-2522-2233.1-2528.2z"/>
	<path class="st6" d="M-2176.7-2412.7h-59.1"/>
	<path class="st6" d="M-2176.7-2412.7h71.8"/>
	<path class="st6" d="M-2231.4-2408.2c2.5-2.5,2.5-6.5,0-9c-2.5-2.5-6.5-2.5-9,0c-2.5,2.5-2.5,6.5,0,9
		C-2237.8-2405.7-2233.8-2405.7-2231.4-2408.2z"/>
	<path class="st6" d="M-2100.4-2408.2c2.5-2.5,2.5-6.5,0-9c-2.5-2.5-6.5-2.5-9,0c-2.5,2.5-2.5,6.5,0,9
		C-2106.9-2405.7-2102.9-2405.7-2100.4-2408.2z"/>
	<path class="st7" d="M-2165.5-2401.5c6.2-6.2,6.2-16.2,0-22.4c-6.2-6.2-16.2-6.2-22.4,0c-6.2,6.2-6.2,16.2,0,22.4
		S-2171.7-2395.3-2165.5-2401.5z"/>
	<path class="st6" d="M-1623.4-2493l-367.5,42.2"/>
	<path class="st6" d="M-1623.4-2493L-1623.4-2493"/>
	<path class="st6" d="M-1986.4-2446.2c2.5-2.5,2.5-6.5,0-9c-2.5-2.5-6.5-2.5-9,0c-2.5,2.5-2.5,6.5,0,9
		C-1992.9-2443.7-1988.8-2443.7-1986.4-2446.2z"/>
	<path class="st7" d="M-1612.2-2481.7c6.2-6.2,6.2-16.2,0-22.4s-16.2-6.2-22.4,0c-6.2,6.2-6.2,16.2,0,22.4
		C-1628.4-2475.6-1618.3-2475.6-1612.2-2481.7z"/>
	<path class="st6" d="M-1606.5-2471.8L-1606.5-2471.8"/>
	<path class="st6" d="M-1606.5-2471.8l-101.4,620.9"/>
	<path class="st6" d="M-1703.4-1846.4c2.5-2.5,2.5-6.5,0-9c-2.5-2.5-6.5-2.5-9,0c-2.5,2.5-2.5,6.5,0,9
		C-1709.8-1843.9-1705.8-1843.9-1703.4-1846.4z"/>
	<path class="st7" d="M-1595.3-2460.6c6.2-6.2,6.2-16.2,0-22.4c-6.2-6.2-16.2-6.2-22.4,0c-6.2,6.2-6.2,16.2,0,22.4
		C-1611.5-2454.4-1601.4-2454.4-1595.3-2460.6z"/>
	<path class="st6" d="M-2050-849.8l88.7-570.2"/>
	<path class="st6" d="M-2050-849.8l-21.1,122.5"/>
	<path class="st6" d="M-1956.8-1415.6c2.5-2.5,2.5-6.5,0-9c-2.5-2.5-6.5-2.5-9,0c-2.5,2.5-2.5,6.5,0,9
		C-1963.3-1413.1-1959.3-1413.1-1956.8-1415.6z"/>
	<path class="st6" d="M-2066.6-722.9c2.5-2.5,2.5-6.5,0-9c-2.5-2.5-6.5-2.5-9,0c-2.5,2.5-2.5,6.5,0,9
		C-2073.1-720.4-2069.1-720.4-2066.6-722.9z"/>
	<path class="st7" d="M-2038.8-838.6c6.2-6.2,6.2-16.2,0-22.4c-6.2-6.2-16.2-6.2-22.4,0c-6.2,6.2-6.2,16.2,0,22.4
		S-2045-832.4-2038.8-838.6z"/>
	<path class="st6" d="M-2020.4-617.5l-38-38"/>
	<path class="st6" d="M-2020.4-617.5L-2020.4-617.5"/>
	<path class="st6" d="M-2054-651.1c2.5-2.5,2.5-6.5,0-9c-2.5-2.5-6.5-2.5-9,0c-2.5,2.5-2.5,6.5,0,9
		C-2060.4-648.6-2056.4-648.6-2054-651.1z"/>
	<path class="st7" d="M-2009.2-606.3c6.2-6.2,6.2-16.2,0-22.4c-6.2-6.2-16.2-6.2-22.4,0c-6.2,6.2-6.2,16.2,0,22.4
		C-2025.4-600.1-2015.4-600.1-2009.2-606.3z"/>
	<path class="st6" d="M-1636.1-1914.3L-1636.1-1914.3"/>
	<path class="st6" d="M-1636.1-1914.3L-1636.1-1914.3"/>
	<path class="st7" d="M-1624.8-1903c6.2-6.2,6.2-16.2,0-22.4c-6.2-6.2-16.2-6.2-22.4,0c-6.2,6.2-6.2,16.2,0,22.4
		C-1641.1-1896.9-1631-1896.9-1624.8-1903z"/>
	<path class="st6" d="M-1758.5-1344L-1758.5-1344"/>
	<path class="st6" d="M-1758.5-1344l430.8-722.3"/>
	<path class="st6" d="M-1323.2-2061.9c2.5-2.5,2.5-6.5,0-9c-2.5-2.5-6.5-2.5-9,0c-2.5,2.5-2.5,6.5,0,9
		C-1329.7-2059.4-1325.7-2059.4-1323.2-2061.9z"/>
	<path class="st7" d="M-1747.3-1332.8c6.2-6.2,6.2-16.2,0-22.4c-6.2-6.2-16.2-6.2-22.4,0c-6.2,6.2-6.2,16.2,0,22.4
		C-1763.5-1326.6-1753.5-1326.6-1747.3-1332.8z"/>
	<path class="st6" d="M-529.4-2454.9h-346.4"/>
	<path class="st6" d="M-529.4-2454.9h130.9"/>
	<path class="st6" d="M-871.3-2450.5c2.5-2.5,2.5-6.5,0-9c-2.5-2.5-6.5-2.5-9,0c-2.5,2.5-2.5,6.5,0,9
		C-877.7-2448-873.7-2448-871.3-2450.5z"/>
	<path class="st6" d="M-394-2450.5c2.5-2.5,2.5-6.5,0-9c-2.5-2.5-6.5-2.5-9,0c-2.5,2.5-2.5,6.5,0,9
		C-400.4-2448-396.4-2448-394-2450.5z"/>
	<path class="st7" d="M-518.2-2443.7c6.2-6.2,6.2-16.2,0-22.4c-6.2-6.2-16.2-6.2-22.4,0c-6.2,6.2-6.2,16.2,0,22.4
		C-534.4-2437.5-524.3-2437.5-518.2-2443.7z"/>
	<path class="st6" d="M-288.6-2404.2l-42.2-33.8"/>
	<path class="st6" d="M-288.6-2404.2L-288.6-2404.2"/>
	<path class="st6" d="M-326.4-2433.6c2.5-2.5,2.5-6.5,0-9c-2.5-2.5-6.5-2.5-9,0c-2.5,2.5-2.5,6.5,0,9
		C-332.8-2431.1-328.8-2431.1-326.4-2433.6z"/>
	<path class="st7" d="M-277.4-2393c6.2-6.2,6.2-16.2,0-22.4c-6.2-6.2-16.2-6.2-22.4,0c-6.2,6.2-6.2,16.2,0,22.4
		C-293.6-2386.9-283.6-2386.9-277.4-2393z"/>
	<path class="st6" d="M-263.3-2404.2L-263.3-2404.2"/>
	<path class="st6" d="M-263.3-2404.2l21.1-33.8"/>
	<path class="st6" d="M-237.7-2433.6c2.5-2.5,2.5-6.5,0-9c-2.5-2.5-6.5-2.5-9,0c-2.5,2.5-2.5,6.5,0,9
		C-244.1-2431.1-240.1-2431.1-237.7-2433.6z"/>
	<path class="st7" d="M-252-2393c6.2-6.2,6.2-16.2,0-22.4c-6.2-6.2-16.2-6.2-22.4,0c-6.2,6.2-6.2,16.2,0,22.4
		C-268.3-2386.9-258.2-2386.9-252-2393z"/>
	<path class="st6" d="M-212.6-2518.3l-8.4,42.2"/>
	<path class="st6" d="M-212.6-2518.3l8.4-46.5"/>
	<path class="st6" d="M-216.5-2471.6c2.5-2.5,2.5-6.5,0-9c-2.5-2.5-6.5-2.5-9,0c-2.5,2.5-2.5,6.5,0,9
		C-223-2469.1-219-2469.1-216.5-2471.6z"/>
	<path class="st6" d="M-199.7-2560.3c2.5-2.5,2.5-6.5,0-9c-2.5-2.5-6.5-2.5-9,0c-2.5,2.5-2.5,6.5,0,9
		C-206.1-2557.8-202.1-2557.8-199.7-2560.3z"/>
	<path class="st7" d="M-201.4-2507.1c6.2-6.2,6.2-16.2,0-22.4c-6.2-6.2-16.2-6.2-22.4,0s-6.2,16.2,0,22.4
		C-217.6-2500.9-207.5-2500.9-201.4-2507.1z"/>
	<path class="st6" d="M-233.7-2615.4l21.1,21.1"/>
	<path class="st6" d="M-233.7-2615.4l-42.2-42.2"/>
	<path class="st6" d="M-208.1-2589.8c2.5-2.5,2.5-6.5,0-9c-2.5-2.5-6.5-2.5-9,0c-2.5,2.5-2.5,6.5,0,9
		C-214.6-2587.4-210.6-2587.4-208.1-2589.8z"/>
	<path class="st6" d="M-271.5-2653.2c2.5-2.5,2.5-6.5,0-9c-2.5-2.5-6.5-2.5-9,0c-2.5,2.5-2.5,6.5,0,9
		C-277.9-2650.7-273.9-2650.7-271.5-2653.2z"/>
	<path class="st7" d="M-222.5-2604.2c6.2-6.2,6.2-16.2,0-22.4c-6.2-6.2-16.2-6.2-22.4,0c-6.2,6.2-6.2,16.2,0,22.4
		C-238.7-2598-228.7-2598-222.5-2604.2z"/>
	<path class="st6" d="M-487.1-2674.6H-352"/>
	<path class="st6" d="M-487.1-2674.6h-384.4"/>
	<path class="st6" d="M-347.5-2670.1c2.5-2.5,2.5-6.5,0-9c-2.5-2.5-6.5-2.5-9,0c-2.5,2.5-2.5,6.5,0,9
		C-354-2667.6-349.9-2667.6-347.5-2670.1z"/>
	<path class="st6" d="M-867-2670.1c2.5-2.5,2.5-6.5,0-9c-2.5-2.5-6.5-2.5-9,0c-2.5,2.5-2.5,6.5,0,9
		C-873.5-2667.6-869.5-2667.6-867-2670.1z"/>
	<path class="st7" d="M-475.9-2663.4c6.2-6.2,6.2-16.2,0-22.4s-16.2-6.2-22.4,0s-6.2,16.2,0,22.4
		C-492.1-2657.2-482.1-2657.2-475.9-2663.4z"/>
	<path class="st6" d="M-1543.1-1867.8l325.2-515.3"/>
	<path class="st6" d="M-1543.1-1867.8L-1543.1-1867.8"/>
	<path class="st6" d="M-1213.4-2378.7c2.5-2.5,2.5-6.5,0-9c-2.5-2.5-6.5-2.5-9,0c-2.5,2.5-2.5,6.5,0,9
		C-1219.9-2376.2-1215.9-2376.2-1213.4-2378.7z"/>
	<path class="st7" d="M-1531.9-1856.6c6.2-6.2,6.2-16.2,0-22.4s-16.2-6.2-22.4,0s-6.2,16.2,0,22.4S-1538.1-1850.4-1531.9-1856.6z"/>
	<path class="st6" d="M-2747-596.4L-2747-596.4"/>
	<path class="st6" d="M-2747-596.4l-12.7,16.9"/>
	<path class="st6" d="M-2755.1-575c2.5-2.5,2.5-6.5,0-9c-2.5-2.5-6.5-2.5-9,0c-2.5,2.5-2.5,6.5,0,9
		C-2761.6-572.5-2757.6-572.5-2755.1-575z"/>
	<path class="st7" d="M-2735.7-585.2c6.2-6.2,6.2-16.2,0-22.4c-6.2-6.2-16.2-6.2-22.4,0s-6.2,16.2,0,22.4
		C-2752-579-2741.9-579-2735.7-585.2z"/>
	<path class="st6" d="M-2776.5-528.8l8.4-29.6"/>
	<path class="st6" d="M-2776.5-528.8l-21.1,71.8"/>
	<path class="st6" d="M-2763.6-553.9c2.5-2.5,2.5-6.5,0-9c-2.5-2.5-6.5-2.5-9,0c-2.5,2.5-2.5,6.5,0,9
		C-2770.1-551.4-2766-551.4-2763.6-553.9z"/>
	<path class="st6" d="M-2793.2-452.5c2.5-2.5,2.5-6.5,0-9c-2.5-2.5-6.5-2.5-9,0c-2.5,2.5-2.5,6.5,0,9
		C-2799.6-450-2795.6-450-2793.2-452.5z"/>
	<path class="st7" d="M-2765.3-517.6c6.2-6.2,6.2-16.2,0-22.4s-16.2-6.2-22.4,0s-6.2,16.2,0,22.4
		C-2781.5-511.4-2771.5-511.4-2765.3-517.6z"/>
	<path class="st6" d="M-2687.8-393.6h-80.3"/>
	<path class="st6" d="M-2687.8-393.6L-2687.8-393.6"/>
	<path class="st6" d="M-2763.6-389.2c2.5-2.5,2.5-6.5,0-9c-2.5-2.5-6.5-2.5-9,0c-2.5,2.5-2.5,6.5,0,9
		C-2770.1-386.7-2766-386.7-2763.6-389.2z"/>
	<path class="st7" d="M-2676.6-382.4c6.2-6.2,6.2-16.2,0-22.4s-16.2-6.2-22.4,0c-6.2,6.2-6.2,16.2,0,22.4
		C-2692.8-376.2-2682.8-376.2-2676.6-382.4z"/>
	<path class="st6" d="M-1036.3-393.6L-1036.3-393.6"/>
	<path class="st6" d="M-1036.3-393.6l4.2-8.4"/>
	<path class="st6" d="M-1027.5-397.6c2.5-2.5,2.5-6.5,0-9c-2.5-2.5-6.5-2.5-9,0c-2.5,2.5-2.5,6.5,0,9
		C-1034-395.1-1030-395.1-1027.5-397.6z"/>
	<path class="st7" d="M-1025-382.4c6.2-6.2,6.2-16.2,0-22.4c-6.2-6.2-16.2-6.2-22.4,0c-6.2,6.2-6.2,16.2,0,22.4
		C-1041.3-376.2-1031.2-376.2-1025-382.4z"/>
	<path class="st6" d="M-1027.8-427.4v8.4"/>
	<path class="st6" d="M-1027.8-427.4l25.3-92.9"/>
	<path class="st6" d="M-1023.3-414.5c2.5-2.5,2.5-6.5,0-9c-2.5-2.5-6.5-2.5-9,0c-2.5,2.5-2.5,6.5,0,9
		C-1029.8-412-1025.8-412-1023.3-414.5z"/>
	<path class="st6" d="M-998-515.9c2.5-2.5,2.5-6.5,0-9c-2.5-2.5-6.5-2.5-9,0c-2.5,2.5-2.5,6.5,0,9
		C-1004.4-513.4-1000.4-513.4-998-515.9z"/>
	<path class="st7" d="M-1016.6-416.2c6.2-6.2,6.2-16.2,0-22.4c-6.2-6.2-16.2-6.2-22.4,0s-6.2,16.2,0,22.4S-1022.8-410-1016.6-416.2z
		"/>
	<path class="st6" d="M-1872.6-596.4h502.7"/>
	<path class="st6" d="M-1872.6-596.4L-1872.6-596.4"/>
	<path class="st6" d="M-1365.5-591.9c2.5-2.5,2.5-6.5,0-9c-2.5-2.5-6.5-2.5-9,0c-2.5,2.5-2.5,6.5,0,9
		C-1371.9-589.4-1367.9-589.4-1365.5-591.9z"/>
	<path class="st7" d="M-1861.4-585.2c6.2-6.2,6.2-16.2,0-22.4c-6.2-6.2-16.2-6.2-22.4,0c-6.2,6.2-6.2,16.2,0,22.4
		C-1877.6-579-1867.6-579-1861.4-585.2z"/>
	<path class="st8" d="M722.3-1270.2L722.3-1270.2"/>
	<path class="st8" d="M722.3-1270.2L722.3-1270.2"/>
	<path class="st7" d="M733.5-1258.9c6.2-6.2,6.2-16.2,0-22.4c-6.2-6.2-16.2-6.2-22.4,0c-6.2,6.2-6.2,16.2,0,22.4
		C717.3-1252.8,727.3-1252.8,733.5-1258.9z"/>
	<path class="st6" d="M1672.7-1270.2L1672.7-1270.2"/>
	<path class="st6" d="M1672.7-1270.2V-1701"/>
	<path class="st6" d="M1677.1-1696.5c2.5-2.5,2.5-6.5,0-9c-2.5-2.5-6.5-2.5-9,0c-2.5,2.5-2.5,6.5,0,9
		C1670.7-1694,1674.7-1694,1677.1-1696.5z"/>
	<path class="st7" d="M1683.9-1258.9c6.2-6.2,6.2-16.2,0-22.4c-6.2-6.2-16.2-6.2-22.4,0c-6.2,6.2-6.2,16.2,0,22.4
		C1667.7-1252.8,1677.7-1252.8,1683.9-1258.9z"/>
	<path class="st6" d="M1672.7-2469.8v354.8"/>
	<path class="st6" d="M1672.7-2469.8v-4.2"/>
	<path class="st6" d="M1677.1-2110.5c2.5-2.5,2.5-6.5,0-9c-2.5-2.5-6.5-2.5-9,0c-2.5,2.5-2.5,6.5,0,9
		C1670.7-2108,1674.7-2108,1677.1-2110.5z"/>
	<path class="st6" d="M1677.1-2469.5c2.5-2.5,2.5-6.5,0-9c-2.5-2.5-6.5-2.5-9,0c-2.5,2.5-2.5,6.5,0,9
		C1670.7-2467,1674.7-2467,1677.1-2469.5z"/>
	<path class="st7" d="M1683.9-2458.6c6.2-6.2,6.2-16.2,0-22.4c-6.2-6.2-16.2-6.2-22.4,0c-6.2,6.2-6.2,16.2,0,22.4
		C1667.7-2452.4,1677.7-2452.4,1683.9-2458.6z"/>
	<path class="st6" d="M1469.9-3073.8h4.2"/>
	<path class="st6" d="M1469.9-3073.8L1469.9-3073.8"/>
	<path class="st6" d="M1478.6-3069.3c2.5-2.5,2.5-6.5,0-9c-2.5-2.5-6.5-2.5-9,0c-2.5,2.5-2.5,6.5,0,9
		C1472.2-3066.8,1476.2-3066.8,1478.6-3069.3z"/>
	<path class="st7" d="M1481.1-3062.6c6.2-6.2,6.2-16.2,0-22.4c-6.2-6.2-16.2-6.2-22.4,0c-6.2,6.2-6.2,16.2,0,22.4
		C1464.9-3056.4,1475-3056.4,1481.1-3062.6z"/>
	<path class="st6" d="M342.1-3073.8L342.1-3073.8"/>
	<path class="st6" d="M342.1-3073.8v266.1"/>
	<path class="st6" d="M346.6-2803.2c2.5-2.5,2.5-6.5,0-9c-2.5-2.5-6.5-2.5-9,0c-2.5,2.5-2.5,6.5,0,9
		C340.1-2800.7,344.1-2800.7,346.6-2803.2z"/>
	<path class="st7" d="M353.3-3062.6c6.2-6.2,6.2-16.2,0-22.4c-6.2-6.2-16.2-6.2-22.4,0c-6.2,6.2-6.2,16.2,0,22.4
		C337.1-3056.4,347.2-3056.4,353.3-3062.6z"/>
	<path class="st6" d="M342.1-2275.5v-266.1"/>
	<path class="st6" d="M342.1-2275.5v29.6"/>
	<path class="st6" d="M346.6-2537.1c2.5-2.5,2.5-6.5,0-9c-2.5-2.5-6.5-2.5-9,0c-2.5,2.5-2.5,6.5,0,9
		C340.1-2534.6,344.1-2534.6,346.6-2537.1z"/>
	<path class="st6" d="M346.6-2241.4c2.5-2.5,2.5-6.5,0-9c-2.5-2.5-6.5-2.5-9,0c-2.5,2.5-2.5,6.5,0,9
		C340.1-2238.9,344.1-2238.9,346.6-2241.4z"/>
	<path class="st7" d="M353.3-2264.3c6.2-6.2,6.2-16.2,0-22.4c-6.2-6.2-16.2-6.2-22.4,0c-6.2,6.2-6.2,16.2,0,22.4
		C337.1-2258.1,347.2-2258.1,353.3-2264.3z"/>
	<path class="st6" d="M388.6-2229H359"/>
	<path class="st6" d="M388.6-2229h84.5"/>
	<path class="st6" d="M363.5-2224.5c2.5-2.5,2.5-6.5,0-9c-2.5-2.5-6.5-2.5-9,0c-2.5,2.5-2.5,6.5,0,9C357-2222,361-2222,363.5-2224.5
		z"/>
	<path class="st6" d="M477.5-2224.5c2.5-2.5,2.5-6.5,0-9c-2.5-2.5-6.5-2.5-9,0c-2.5,2.5-2.5,6.5,0,9
		C471.1-2222,475.1-2222,477.5-2224.5z"/>
	<path class="st7" d="M399.8-2217.8c6.2-6.2,6.2-16.2,0-22.4s-16.2-6.2-22.4,0s-6.2,16.2,0,22.4
		C383.6-2211.6,393.6-2211.6,399.8-2217.8z"/>
	<path class="st6" d="M650.5-2229h-88.7"/>
	<path class="st6" d="M650.5-2229L650.5-2229"/>
	<path class="st6" d="M566.2-2224.5c2.5-2.5,2.5-6.5,0-9c-2.5-2.5-6.5-2.5-9,0c-2.5,2.5-2.5,6.5,0,9
		C559.8-2222,563.8-2222,566.2-2224.5z"/>
	<path class="st7" d="M661.7-2217.8c6.2-6.2,6.2-16.2,0-22.4c-6.2-6.2-16.2-6.2-22.4,0c-6.2,6.2-6.2,16.2,0,22.4
		C645.5-2211.6,655.5-2211.6,661.7-2217.8z"/>
	<path class="st6" d="M722.3-2229L722.3-2229"/>
	<path class="st6" d="M722.3-2229v101.4"/>
	<path class="st6" d="M726.7-2123.2c2.5-2.5,2.5-6.5,0-9c-2.5-2.5-6.5-2.5-9,0c-2.5,2.5-2.5,6.5,0,9
		C720.3-2120.7,724.3-2120.7,726.7-2123.2z"/>
	<path class="st7" d="M733.5-2217.8c6.2-6.2,6.2-16.2,0-22.4s-16.2-6.2-22.4,0c-6.2,6.2-6.2,16.2,0,22.4
		C717.3-2211.6,727.3-2211.6,733.5-2217.8z"/>
	<path class="st6" d="M722.3-1929.1v-97.2"/>
	<path class="st6" d="M722.3-1929.1v88.7"/>
	<path class="st6" d="M726.7-2021.8c2.5-2.5,2.5-6.5,0-9c-2.5-2.5-6.5-2.5-9,0c-2.5,2.5-2.5,6.5,0,9
		C720.3-2019.3,724.3-2019.3,726.7-2021.8z"/>
	<path class="st6" d="M726.7-1835.9c2.5-2.5,2.5-6.5,0-9c-2.5-2.5-6.5-2.5-9,0c-2.5,2.5-2.5,6.5,0,9
		C720.3-1833.4,724.3-1833.4,726.7-1835.9z"/>
	<path class="st7" d="M733.5-1917.9c6.2-6.2,6.2-16.2,0-22.4s-16.2-6.2-22.4,0c-6.2,6.2-6.2,16.2,0,22.4
		C717.3-1911.7,727.3-1911.7,733.5-1917.9z"/>
	<path class="st6" d="M722.3-1667.2v-88.7"/>
	<path class="st6" d="M722.3-1667.2L722.3-1667.2"/>
	<path class="st6" d="M726.7-1751.4c2.5-2.5,2.5-6.5,0-9c-2.5-2.5-6.5-2.5-9,0c-2.5,2.5-2.5,6.5,0,9
		C720.3-1749,724.3-1749,726.7-1751.4z"/>
	<path class="st7" d="M733.5-1656c6.2-6.2,6.2-16.2,0-22.4c-6.2-6.2-16.2-6.2-22.4,0c-6.2,6.2-6.2,16.2,0,22.4
		C717.3-1649.8,727.3-1649.8,733.5-1656z"/>
	<path class="st6" d="M1558.6-2541.6L1558.6-2541.6"/>
	<path class="st6" d="M1558.6-2541.6L1558.6-2541.6"/>
	<path class="st7" d="M1569.8-2530.4c6.2-6.2,6.2-16.2,0-22.4c-6.2-6.2-16.2-6.2-22.4,0c-6.2,6.2-6.2,16.2,0,22.4
		C1553.6-2524.2,1563.7-2524.2,1569.8-2530.4z"/>
	<path class="st6" d="M1596.6-1912.2L1596.6-1912.2"/>
	<path class="st6" d="M1596.6-1912.2l146.4-90.4"/>
	<path class="st6" d="M1747.5-1998.2c2.5-2.5,2.5-6.5,0-9c-2.5-2.5-6.5-2.5-9,0c-2.5,2.5-2.5,6.5,0,9
		C1741-1995.7,1745.1-1995.7,1747.5-1998.2z"/>
	<path class="st7" d="M1607.9-1901c6.2-6.2,6.2-16.2,0-22.4s-16.2-6.2-22.4,0s-6.2,16.2,0,22.4
		C1591.6-1894.8,1601.7-1894.8,1607.9-1901z"/>
	<path class="st6" d="M2128.9-2038.9h-181.7"/>
	<path class="st6" d="M2128.9-2038.9h139.7"/>
	<path class="st6" d="M1951.6-2034.5c2.5-2.5,2.5-6.5,0-9c-2.5-2.5-6.5-2.5-9,0c-2.5,2.5-2.5,6.5,0,9
		C1945.2-2032,1949.2-2032,1951.6-2034.5z"/>
	<path class="st6" d="M2273-2034.5c2.5-2.5,2.5-6.5,0-9c-2.5-2.5-6.5-2.5-9,0c-2.5,2.5-2.5,6.5,0,9
		C2266.6-2032,2270.6-2032,2273-2034.5z"/>
	<path class="st7" d="M2140.1-2027.7c6.2-6.2,6.2-16.2,0-22.4c-6.2-6.2-16.2-6.2-22.4,0c-6.2,6.2-6.2,16.2,0,22.4
		C2123.9-2021.5,2133.9-2021.5,2140.1-2027.7z"/>
	<path class="st6" d="M2580.8-1962.9l-152.6-49.5"/>
	<path class="st6" d="M2580.8-1962.9L2580.8-1962.9"/>
	<path class="st6" d="M2432.7-2007.9c2.5-2.5,2.5-6.5,0-9c-2.5-2.5-6.5-2.5-9,0c-2.5,2.5-2.5,6.5,0,9
		C2426.2-2005.4,2430.2-2005.4,2432.7-2007.9z"/>
	<path class="st7" d="M2592-1951.7c6.2-6.2,6.2-16.2,0-22.4c-6.2-6.2-16.2-6.2-22.4,0c-6.2,6.2-6.2,16.2,0,22.4
		C2575.8-1945.5,2585.9-1945.5,2592-1951.7z"/>
	<path class="st6" d="M2407.6-3116h126.7"/>
	<path class="st6" d="M2407.6-3116H2112"/>
	<path class="st6" d="M2538.8-3111.6c2.5-2.5,2.5-6.5,0-9c-2.5-2.5-6.5-2.5-9,0c-2.5,2.5-2.5,6.5,0,9
		C2532.4-3109.1,2536.4-3109.1,2538.8-3111.6z"/>
	<path class="st6" d="M2116.4-3111.6c2.5-2.5,2.5-6.5,0-9c-2.5-2.5-6.5-2.5-9,0c-2.5,2.5-2.5,6.5,0,9
		C2110-3109.1,2114-3109.1,2116.4-3111.6z"/>
	<path class="st7" d="M2418.9-3104.8c6.2-6.2,6.2-16.2,0-22.4c-6.2-6.2-16.2-6.2-22.4,0c-6.2,6.2-6.2,16.2,0,22.4
		C2402.6-3098.6,2412.7-3098.6,2418.9-3104.8z"/>
	<path class="st6" d="M1714.9-2541.6l160.5-418.2"/>
	<path class="st6" d="M1714.9-2541.6L1714.9-2541.6"/>
	<path class="st6" d="M1879.9-2955.3c2.5-2.5,2.5-6.5,0-9c-2.5-2.5-6.5-2.5-9,0c-2.5,2.5-2.5,6.5,0,9
		C1873.4-2952.8,1877.4-2952.8,1879.9-2955.3z"/>
	<path class="st7" d="M1726.1-2530.4c6.2-6.2,6.2-16.2,0-22.4c-6.2-6.2-16.2-6.2-22.4,0c-6.2,6.2-6.2,16.2,0,22.4
		C1709.9-2524.2,1719.9-2524.2,1726.1-2530.4z"/>
	<path class="st6" d="M342.1-1595.4L342.1-1595.4"/>
	<path class="st6" d="M342.1-1595.4v194.3"/>
	<path class="st6" d="M346.6-1396.6c2.5-2.5,2.5-6.5,0-9c-2.5-2.5-6.5-2.5-9,0c-2.5,2.5-2.5,6.5,0,9
		C340.1-1394.1,344.1-1394.1,346.6-1396.6z"/>
	<path class="st7" d="M353.3-1584.2c6.2-6.2,6.2-16.2,0-22.4c-6.2-6.2-16.2-6.2-22.4,0c-6.2,6.2-6.2,16.2,0,22.4
		S347.2-1578,353.3-1584.2z"/>
	<path class="st6" d="M342.1-797.1v-194.3"/>
	<path class="st6" d="M342.1-797.1v29.6"/>
	<path class="st6" d="M346.6-986.9c2.5-2.5,2.5-6.5,0-9c-2.5-2.5-6.5-2.5-9,0c-2.5,2.5-2.5,6.5,0,9
		C340.1-984.4,344.1-984.4,346.6-986.9z"/>
	<path class="st6" d="M346.6-763c2.5-2.5,2.5-6.5,0-9c-2.5-2.5-6.5-2.5-9,0c-2.5,2.5-2.5,6.5,0,9C340.1-760.5,344.1-760.5,346.6-763
		z"/>
	<path class="st7" d="M353.3-785.9c6.2-6.2,6.2-16.2,0-22.4c-6.2-6.2-16.2-6.2-22.4,0c-6.2,6.2-6.2,16.2,0,22.4
		S347.2-779.7,353.3-785.9z"/>
	<path class="st6" d="M388.6-750.6H359"/>
	<path class="st6" d="M388.6-750.6L388.6-750.6"/>
	<path class="st6" d="M363.5-746.1c2.5-2.5,2.5-6.5,0-9c-2.5-2.5-6.5-2.5-9,0c-2.5,2.5-2.5,6.5,0,9C357-743.7,361-743.7,363.5-746.1
		z"/>
	<path class="st7" d="M399.8-739.4c6.2-6.2,6.2-16.2,0-22.4c-6.2-6.2-16.2-6.2-22.4,0c-6.2,6.2-6.2,16.2,0,22.4
		S393.6-733.2,399.8-739.4z"/>
	<path class="st6" d="M2411.9-750.6L2411.9-750.6"/>
	<path class="st6" d="M2411.9-750.6v-194.3"/>
	<path class="st6" d="M2416.3-940.4c2.5-2.5,2.5-6.5,0-9c-2.5-2.5-6.5-2.5-9,0c-2.5,2.5-2.5,6.5,0,9
		C2409.9-938,2413.9-938,2416.3-940.4z"/>
	<path class="st7" d="M2423.1-739.4c6.2-6.2,6.2-16.2,0-22.4c-6.2-6.2-16.2-6.2-22.4,0c-6.2,6.2-6.2,16.2,0,22.4
		C2406.9-733.2,2416.9-733.2,2423.1-739.4z"/>
	<path class="st6" d="M2411.9-1548.9v194.3"/>
	<path class="st6" d="M2411.9-1548.9v-29.6"/>
	<path class="st6" d="M2416.3-1350.2c2.5-2.5,2.5-6.5,0-9c-2.5-2.5-6.5-2.5-9,0c-2.5,2.5-2.5,6.5,0,9
		C2409.9-1347.7,2413.9-1347.7,2416.3-1350.2z"/>
	<path class="st6" d="M2416.3-1574c2.5-2.5,2.5-6.5,0-9c-2.5-2.5-6.5-2.5-9,0c-2.5,2.5-2.5,6.5,0,9
		C2409.9-1571.5,2413.9-1571.5,2416.3-1574z"/>
	<path class="st7" d="M2423.1-1537.7c6.2-6.2,6.2-16.2,0-22.4s-16.2-6.2-22.4,0c-6.2,6.2-6.2,16.2,0,22.4
		C2406.9-1531.6,2416.9-1531.6,2423.1-1537.7z"/>
	<path class="st6" d="M2365.4-1595.4h29.6"/>
	<path class="st6" d="M2365.4-1595.4L2365.4-1595.4"/>
	<path class="st6" d="M2399.4-1590.9c2.5-2.5,2.5-6.5,0-9c-2.5-2.5-6.5-2.5-9,0c-2.5,2.5-2.5,6.5,0,9
		C2393-1588.4,2397-1588.4,2399.4-1590.9z"/>
	<path class="st7" d="M2376.6-1584.2c6.2-6.2,6.2-16.2,0-22.4c-6.2-6.2-16.2-6.2-22.4,0c-6.2,6.2-6.2,16.2,0,22.4
		C2360.4-1578,2370.4-1578,2376.6-1584.2z"/>
	<path class="st9" d="M-2050-562.6l2772.3-707.6"/>
	<path class="st9" d="M-1919.1-562.6l3591.7-707.6"/>
	<path class="st9" d="M-1576.9-1850.9l3249.6-618.9"/>
	<path class="st9" d="M-1581.1-2657.7l3051.1-416.1"/>
	<path class="st9" d="M-2210.5-2615.4l2552.6-458.4"/>
	<path class="st9" d="M-2244.3-2539.4l2586.4,263.9"/>
	<path class="st9" d="M-2176.7-2412.7L388.6-2229"/>
	<path class="st9" d="M-1623.4-2493L650.5-2229"/>
	<path class="st9" d="M-1606.5-2471.8L722.3-2229"/>
	<path class="st9" d="M-2050-849.8L722.3-1929.1"/>
	<path class="st9" d="M-2020.4-617.5L722.3-1667.2"/>
	<path class="st9" d="M-1636.1-1914.3l3194.7-627.3"/>
	<path class="st9" d="M-1758.5-1344l3355.2-568.2"/>
	<path class="st9" d="M-529.4-2454.9l2658.2,416"/>
	<path class="st9" d="M-288.6-2404.2l2869.4,441.4"/>
	<path class="st9" d="M-263.3-2404.2l2928.6,441.4"/>
	<path class="st9" d="M-212.6-2518.3l2877.9-496.4"/>
	<path class="st9" d="M-233.7-2615.4l2886.3-441.5"/>
	<path class="st9" d="M-487.1-2674.6L2407.6-3116"/>
	<path class="st9" d="M-1543.1-1867.8l3258-673.8"/>
	<path class="st9" d="M-2747-596.4l3089.1-999"/>
	<path class="st9" d="M-2776.5-528.8L342.1-797.1"/>
	<path class="st9" d="M-2687.8-393.6l3076.4-357"/>
	<path class="st9" d="M-1036.3-393.6l3448.1-357"/>
	<path class="st9" d="M-1027.8-427.4l3439.7-1121.5"/>
	<path class="st9" d="M-1872.6-596.4l4238-999"/>
	<path class="st10" d="M-2050-562.6l2772.3-707.6"/>
	<path class="st10" d="M-2050-562.6l2772.3-707.6"/>
	<path class="st10" d="M-1919.1-562.6l3591.7-707.6"/>
	<path class="st10" d="M-1872.6-1035.7L1672.7-1701"/>
	<path class="st10" d="M-1699.4-1432.7L1672.7-2115"/>
	<path class="st10" d="M-1416.4-2395.8l3089.1-78.2"/>
	<path class="st10" d="M-1382.6-2657.7l2856.8-416.1"/>
	<path class="st10" d="M-1821.9-2657.7l3291.8-416.1"/>
	<path class="st10" d="M-1948.6-2640.8l2290.7-433"/>
	<path class="st10" d="M-2227.4-2594.3l2569.5-213.4"/>
	<path class="st10" d="M-2235.9-2569l2578,27.4"/>
	<path class="st10" d="M-2265.4-2459.2l2607.5,213.3"/>
	<path class="st10" d="M-2235.9-2412.7L359-2229"/>
	<path class="st10" d="M-2104.9-2412.7l2578,183.7"/>
	<path class="st10" d="M-1990.9-2450.7L561.8-2229"/>
	<path class="st10" d="M-1623.4-2493L650.5-2229"/>
	<path class="st10" d="M-1606.5-2471.8L722.3-2229"/>
	<path class="st10" d="M-1707.9-1850.9l2430.1-276.7"/>
	<path class="st10" d="M-1961.3-1420.1l2683.6-606.2"/>
	<path class="st10" d="M-2071.1-727.3L722.3-1840.4"/>
	<path class="st10" d="M-2058.4-655.5L722.3-1755.9"/>
	<path class="st10" d="M-2020.4-617.5L722.3-1667.2"/>
	<path class="st10" d="M-1636.1-1914.3l3194.7-627.3"/>
	<path class="st10" d="M-1636.1-1914.3l3194.7-627.3"/>
	<path class="st10" d="M-1758.5-1344l3355.2-568.2"/>
	<path class="st10" d="M-1327.7-2066.3l3070.7,63.7"/>
	<path class="st10" d="M-875.7-2454.9l2822.9,416"/>
	<path class="st10" d="M-398.4-2454.9l2667,416"/>
	<path class="st10" d="M-330.8-2438l2759.1,425.6"/>
	<path class="st10" d="M-288.6-2404.2l2869.4,441.4"/>
	<path class="st10" d="M-263.3-2404.2l2928.6,441.4"/>
	<path class="st10" d="M-242.1-2438l2907.4,124.6"/>
	<path class="st10" d="M-221-2476.1l2886.3-188"/>
	<path class="st10" d="M-204.1-2564.8l2869.4-471"/>
	<path class="st10" d="M-212.6-2594.3l2873.6-454.1"/>
	<path class="st10" d="M-275.9-2657.7l2899-428.8"/>
	<path class="st10" d="M-352-2674.6L2534.4-3116"/>
	<path class="st10" d="M-871.5-2674.6L2112-3116"/>
	<path class="st10" d="M-1217.9-2383.1l3093.3-576.6"/>
	<path class="st10" d="M-1543.1-1867.8l3258-673.8"/>
	<path class="st10" d="M-2747-596.4l3089.1-999"/>
	<path class="st10" d="M-2759.6-579.5l3101.7-821.6"/>
	<path class="st10" d="M-2768.1-558.4l3110.2-433"/>
	<path class="st10" d="M-2797.6-457L342.1-767.5"/>
	<path class="st10" d="M-2768.1-393.6L359-750.6"/>
	<path class="st10" d="M-2687.8-393.6l3076.4-357"/>
	<path class="st10" d="M-1036.3-393.6l3448.1-357"/>
	<path class="st10" d="M-1032-402.1l3443.9-542.8"/>
	<path class="st10" d="M-1027.8-419l3439.7-935.7"/>
	<path class="st10" d="M-1002.5-520.4l3414.3-1058.2"/>
	<path class="st10" d="M-1369.9-596.4l3764.9-999"/>
	<path class="st10" d="M-1872.6-596.4l4238-999"/>
</g>
<g>
	
		<text transform="matrix(1 0 0 1 -2873.2246 -3047.1284)" class="st13" style="fill:#C6C6C6; font-family:'RecursiveMonoLnr-XBlk';">Recursive Mono Casual Light Italic</text>
</g>
<g>
	<text transform="matrix(1 0 0 1 687.6003 -378.5955)" class="st11 st12 st13">Recursive Mono Linear ExtraBlack</text>
</g>
<rect x="-3000" width="6000" height="3000"/>
<path class="st6" d="M2665.3,1279.9L2665.3,1279.9"/>
<path class="st6" d="M2665.3,1279.9V929.4"/>
<path class="st6" d="M2669.8,933.8c2.5-2.5,2.5-6.5,0-9c-2.5-2.5-6.5-2.5-9,0c-2.5,2.5-2.5,6.5,0,9
	C2663.3,936.3,2667.3,936.3,2669.8,933.8z"/>
<path class="st7" d="M2676.5,1291.2c6.2-6.2,6.2-16.2,0-22.4c-6.2-6.2-16.2-6.2-22.4,0c-6.2,6.2-6.2,16.2,0,22.4
	C2660.3,1297.3,2670.3,1297.3,2676.5,1291.2z"/>
<path class="st6" d="M2665.3,228.2v350.6"/>
<path class="st6" d="M2665.3,228.2v-21.1"/>
<path class="st6" d="M2669.8,583.2c2.5-2.5,2.5-6.5,0-9c-2.5-2.5-6.5-2.5-9,0c-2.5,2.5-2.5,6.5,0,9
	C2663.3,585.7,2667.3,585.7,2669.8,583.2z"/>
<path class="st6" d="M2669.8,211.5c2.5-2.5,2.5-6.5,0-9c-2.5-2.5-6.5-2.5-9,0c-2.5,2.5-2.5,6.5,0,9
	C2663.3,214,2667.3,214,2669.8,211.5z"/>
<path class="st7" d="M2676.5,239.4c6.2-6.2,6.2-16.2,0-22.4c-6.2-6.2-16.2-6.2-22.4,0s-6.2,16.2,0,22.4S2670.3,245.6,2676.5,239.4z"
	/>
<path class="st6" d="M2652.6,185.9l8.4,8.4"/>
<path class="st6" d="M2652.6,185.9l-29.6-29.6"/>
<path class="st6" d="M2665.5,198.9c2.5-2.5,2.5-6.5,0-9c-2.5-2.5-6.5-2.5-9,0c-2.5,2.5-2.5,6.5,0,9
	C2659.1,201.4,2663.1,201.4,2665.5,198.9z"/>
<path class="st6" d="M2627.5,160.8c2.5-2.5,2.5-6.5,0-9c-2.5-2.5-6.5-2.5-9,0c-2.5,2.5-2.5,6.5,0,9
	C2621.1,163.3,2625.1,163.3,2627.5,160.8z"/>
<path class="st7" d="M2663.8,197.2c6.2-6.2,6.2-16.2,0-22.4c-6.2-6.2-16.2-6.2-22.4,0c-6.2,6.2-6.2,16.2,0,22.4
	S2657.7,203.3,2663.8,197.2z"/>
<g>
	<path class="st0" d="M-2050,2689.2h130.9c46.5-473.1,219.6-870.1,342.1-1288.3c160.5-544.9,194.3-806.8-4.2-806.8
		c-240.8,0-367.5,16.9-629.4,42.2c-16.9,21.1-25.3,46.5-33.8,76c-21.1,80.3,8.4,126.7,67.6,126.7c71.8,0,185.9-38,553.3-80.3
		l16.9,21.1c-101.4,620.9-354.8,1051.8-443.5,1622c-21.1,122.5-8.4,194.3,29.6,232.3L-2050,2689.2z M-1636.1,1337.6l-122.5,570.2
		c430.8-722.3,882.8-1110.9,1229.2-1110.9c130.9,0,198.5,16.9,240.8,50.7h25.3c21.1-33.8,42.2-71.8,50.7-114
		c8.4-46.5,0-76-21.1-97.2c-42.2-42.2-118.3-59.1-253.4-59.1c-384.4,0-730.7,291.5-1056,806.8L-1636.1,1337.6z M-2747,2655.4
		c-12.7,16.9-21.1,38-29.6,67.6c-21.1,71.8,8.4,135.2,88.7,135.2h1651.6c4.2-8.4,8.4-25.3,8.4-33.8c25.3-92.9-342.1-169-844.8-169
		H-2747z"/>
	<path class="st0" d="M722.3,1981.7h950.4c0-430.8,0-844.8,0-1199.6c0-4.2-198.5-604-202.8-604H342.1c0,266.1,0,532.2,0,798.3
		c0,29.6,16.9,46.5,46.5,46.5c84.5,0,173.2,0,261.9,0h71.8c0,101.4,0,202.8,0,299.9c0,88.7,0,173.2,0,261.9V1981.7z M1558.6,710.2
		l38,629.4c146.4-90.4,350.5-126.7,532.2-126.7c139.7,0,299.4,26.5,452,76h84.5c0-350.6,0-701.2,0-1051.8c0-21.1-4.2-33.8-12.7-42.2
		c-29.6-29.6-118.3-59.1-245-59.1c-295.7,0-532.2,156.3-692.7,574.5H1558.6z M342.1,1656.4c0,194.3,0,604,0,798.3
		c0,29.6,16.9,46.5,46.5,46.5h2023.3c0-194.3,0-604,0-798.3c0-29.6-16.9-46.5-46.5-46.5H342.1z"/>
	<path class="st8" d="M-2050,2689.2L-2050,2689.2"/>
	<path class="st8" d="M-2050,2689.2L-2050,2689.2"/>
	<path class="st7" d="M-2038.8,2700.4c6.2-6.2,6.2-16.2,0-22.4c-6.2-6.2-16.2-6.2-22.4,0c-6.2,6.2-6.2,16.2,0,22.4
		S-2045,2706.6-2038.8,2700.4z"/>
	<path class="st6" d="M-1919.1,2689.2L-1919.1,2689.2"/>
	<path class="st6" d="M-1919.1,2689.2l46.5-473.1"/>
	<path class="st6" d="M-1868.1,2220.6c2.5-2.5,2.5-6.5,0-9c-2.5-2.5-6.5-2.5-9,0c-2.5,2.5-2.5,6.5,0,9
		C-1874.6,2223.1-1870.6,2223.1-1868.1,2220.6z"/>
	<path class="st7" d="M-1907.8,2700.4c6.2-6.2,6.2-16.2,0-22.4c-6.2-6.2-16.2-6.2-22.4,0c-6.2,6.2-6.2,16.2,0,22.4
		S-1914,2706.6-1907.8,2700.4z"/>
	<path class="st6" d="M-1576.9,1400.9l-122.5,418.2"/>
	<path class="st6" d="M-1576.9,1400.9l160.5-544.9"/>
	<path class="st6" d="M-1694.9,1823.6c2.5-2.5,2.5-6.5,0-9c-2.5-2.5-6.5-2.5-9,0c-2.5,2.5-2.5,6.5,0,9
		C-1701.4,1826.1-1697.4,1826.1-1694.9,1823.6z"/>
	<path class="st6" d="M-1411.9,860.5c2.5-2.5,2.5-6.5,0-9c-2.5-2.5-6.5-2.5-9,0c-2.5,2.5-2.5,6.5,0,9
		C-1418.4,863-1414.4,863-1411.9,860.5z"/>
	<path class="st7" d="M-1565.7,1412.1c6.2-6.2,6.2-16.2,0-22.4c-6.2-6.2-16.2-6.2-22.4,0c-6.2,6.2-6.2,16.2,0,22.4
		C-1581.9,1418.3-1571.9,1418.3-1565.7,1412.1z"/>
	<path class="st6" d="M-1581.1,594.1h198.5"/>
	<path class="st6" d="M-1581.1,594.1h-240.8"/>
	<path class="st6" d="M-1378.1,598.6c2.5-2.5,2.5-6.5,0-9c-2.5-2.5-6.5-2.5-9,0c-2.5,2.5-2.5,6.5,0,9
		C-1384.6,601.1-1380.6,601.1-1378.1,598.6z"/>
	<path class="st6" d="M-1817.4,598.6c2.5-2.5,2.5-6.5,0-9c-2.5-2.5-6.5-2.5-9,0c-2.5,2.5-2.5,6.5,0,9
		C-1823.9,601.1-1819.9,601.1-1817.4,598.6z"/>
	<path class="st7" d="M-1569.9,605.4c6.2-6.2,6.2-16.2,0-22.4c-6.2-6.2-16.2-6.2-22.4,0c-6.2,6.2-6.2,16.2,0,22.4
		C-1586.1,611.5-1576.1,611.5-1569.9,605.4z"/>
	<path class="st6" d="M-2210.5,636.4l261.9-25.3"/>
	<path class="st6" d="M-2210.5,636.4l-16.9,21.1"/>
	<path class="st6" d="M-1944.1,615.5c2.5-2.5,2.5-6.5,0-9c-2.5-2.5-6.5-2.5-9,0c-2.5,2.5-2.5,6.5,0,9
		C-1950.6,618-1946.6,618-1944.1,615.5z"/>
	<path class="st6" d="M-2222.9,662c2.5-2.5,2.5-6.5,0-9c-2.5-2.5-6.5-2.5-9,0c-2.5,2.5-2.5,6.5,0,9
		C-2229.4,664.5-2225.4,664.5-2222.9,662z"/>
	<path class="st7" d="M-2199.3,647.6c6.2-6.2,6.2-16.2,0-22.4c-6.2-6.2-16.2-6.2-22.4,0c-6.2,6.2-6.2,16.2,0,22.4
		C-2215.5,653.8-2205.5,653.8-2199.3,647.6z"/>
	<path class="st6" d="M-2244.3,712.4l8.4-29.6"/>
	<path class="st6" d="M-2244.3,712.4l-21.1,80.3"/>
	<path class="st6" d="M-2231.4,687.3c2.5-2.5,2.5-6.5,0-9c-2.5-2.5-6.5-2.5-9,0c-2.5,2.5-2.5,6.5,0,9
		C-2237.8,689.8-2233.8,689.8-2231.4,687.3z"/>
	<path class="st6" d="M-2260.9,797.1c2.5-2.5,2.5-6.5,0-9c-2.5-2.5-6.5-2.5-9,0c-2.5,2.5-2.5,6.5,0,9
		C-2267.4,799.6-2263.4,799.6-2260.9,797.1z"/>
	<path class="st7" d="M-2233.1,723.6c6.2-6.2,6.2-16.2,0-22.4c-6.2-6.2-16.2-6.2-22.4,0c-6.2,6.2-6.2,16.2,0,22.4
		C-2249.3,729.8-2239.3,729.8-2233.1,723.6z"/>
	<path class="st6" d="M-2176.7,839.1h-59.1"/>
	<path class="st6" d="M-2176.7,839.1h71.8"/>
	<path class="st6" d="M-2231.4,843.6c2.5-2.5,2.5-6.5,0-9c-2.5-2.5-6.5-2.5-9,0c-2.5,2.5-2.5,6.5,0,9
		C-2237.8,846.1-2233.8,846.1-2231.4,843.6z"/>
	<path class="st6" d="M-2100.4,843.6c2.5-2.5,2.5-6.5,0-9c-2.5-2.5-6.5-2.5-9,0c-2.5,2.5-2.5,6.5,0,9
		C-2106.9,846.1-2102.9,846.1-2100.4,843.6z"/>
	<path class="st7" d="M-2165.5,850.3c6.2-6.2,6.2-16.2,0-22.4c-6.2-6.2-16.2-6.2-22.4,0c-6.2,6.2-6.2,16.2,0,22.4
		C-2181.7,856.5-2171.7,856.5-2165.5,850.3z"/>
	<path class="st6" d="M-1623.4,758.9l-367.5,42.2"/>
	<path class="st6" d="M-1623.4,758.9L-1623.4,758.9"/>
	<path class="st6" d="M-1986.4,805.6c2.5-2.5,2.5-6.5,0-9c-2.5-2.5-6.5-2.5-9,0c-2.5,2.5-2.5,6.5,0,9
		C-1992.9,808.1-1988.8,808.1-1986.4,805.6z"/>
	<path class="st7" d="M-1612.2,770.1c6.2-6.2,6.2-16.2,0-22.4c-6.2-6.2-16.2-6.2-22.4,0c-6.2,6.2-6.2,16.2,0,22.4
		C-1628.4,776.3-1618.3,776.3-1612.2,770.1z"/>
	<path class="st6" d="M-1606.5,780L-1606.5,780"/>
	<path class="st6" d="M-1606.5,780l-101.4,620.9"/>
	<path class="st6" d="M-1703.4,1405.4c2.5-2.5,2.5-6.5,0-9c-2.5-2.5-6.5-2.5-9,0c-2.5,2.5-2.5,6.5,0,9
		C-1709.8,1407.9-1705.8,1407.9-1703.4,1405.4z"/>
	<path class="st7" d="M-1595.3,791.2c6.2-6.2,6.2-16.2,0-22.4c-6.2-6.2-16.2-6.2-22.4,0c-6.2,6.2-6.2,16.2,0,22.4
		C-1611.5,797.4-1601.4,797.4-1595.3,791.2z"/>
	<path class="st6" d="M-2050,2402l88.7-570.2"/>
	<path class="st6" d="M-2050,2402l-21.1,122.5"/>
	<path class="st6" d="M-1956.8,1836.2c2.5-2.5,2.5-6.5,0-9c-2.5-2.5-6.5-2.5-9,0c-2.5,2.5-2.5,6.5,0,9
		C-1963.3,1838.7-1959.3,1838.7-1956.8,1836.2z"/>
	<path class="st6" d="M-2066.6,2529c2.5-2.5,2.5-6.5,0-9c-2.5-2.5-6.5-2.5-9,0c-2.5,2.5-2.5,6.5,0,9
		C-2073.1,2531.5-2069.1,2531.5-2066.6,2529z"/>
	<path class="st7" d="M-2038.8,2413.2c6.2-6.2,6.2-16.2,0-22.4s-16.2-6.2-22.4,0s-6.2,16.2,0,22.4
		C-2055,2419.4-2045,2419.4-2038.8,2413.2z"/>
	<path class="st6" d="M-2020.4,2634.3l-38-38"/>
	<path class="st6" d="M-2020.4,2634.3L-2020.4,2634.3"/>
	<path class="st6" d="M-2054,2600.8c2.5-2.5,2.5-6.5,0-9c-2.5-2.5-6.5-2.5-9,0c-2.5,2.5-2.5,6.5,0,9
		C-2060.4,2603.3-2056.4,2603.3-2054,2600.8z"/>
	<path class="st7" d="M-2009.2,2645.5c6.2-6.2,6.2-16.2,0-22.4c-6.2-6.2-16.2-6.2-22.4,0s-6.2,16.2,0,22.4
		C-2025.4,2651.7-2015.4,2651.7-2009.2,2645.5z"/>
	<path class="st6" d="M-1636.1,1337.6L-1636.1,1337.6"/>
	<path class="st6" d="M-1636.1,1337.6L-1636.1,1337.6"/>
	<path class="st7" d="M-1624.8,1348.8c6.2-6.2,6.2-16.2,0-22.4s-16.2-6.2-22.4,0s-6.2,16.2,0,22.4S-1631,1354.9-1624.8,1348.8z"/>
	<path class="st6" d="M-1758.5,1907.8L-1758.5,1907.8"/>
	<path class="st6" d="M-1758.5,1907.8l430.8-722.3"/>
	<path class="st6" d="M-1323.2,1190c2.5-2.5,2.5-6.5,0-9c-2.5-2.5-6.5-2.5-9,0c-2.5,2.5-2.5,6.5,0,9
		C-1329.7,1192.5-1325.7,1192.5-1323.2,1190z"/>
	<path class="st7" d="M-1747.3,1919c6.2-6.2,6.2-16.2,0-22.4c-6.2-6.2-16.2-6.2-22.4,0c-6.2,6.2-6.2,16.2,0,22.4
		C-1763.5,1925.2-1753.5,1925.2-1747.3,1919z"/>
	<path class="st6" d="M-529.4,796.9h-346.4"/>
	<path class="st6" d="M-529.4,796.9h130.9"/>
	<path class="st6" d="M-871.3,801.4c2.5-2.5,2.5-6.5,0-9c-2.5-2.5-6.5-2.5-9,0c-2.5,2.5-2.5,6.5,0,9
		C-877.7,803.9-873.7,803.9-871.3,801.4z"/>
	<path class="st6" d="M-394,801.4c2.5-2.5,2.5-6.5,0-9c-2.5-2.5-6.5-2.5-9,0c-2.5,2.5-2.5,6.5,0,9
		C-400.4,803.9-396.4,803.9-394,801.4z"/>
	<path class="st7" d="M-518.2,808.1c6.2-6.2,6.2-16.2,0-22.4c-6.2-6.2-16.2-6.2-22.4,0c-6.2,6.2-6.2,16.2,0,22.4
		C-534.4,814.3-524.3,814.3-518.2,808.1z"/>
	<path class="st6" d="M-288.6,847.6l-42.2-33.8"/>
	<path class="st6" d="M-288.6,847.6L-288.6,847.6"/>
	<path class="st6" d="M-326.4,818.3c2.5-2.5,2.5-6.5,0-9c-2.5-2.5-6.5-2.5-9,0c-2.5,2.5-2.5,6.5,0,9
		C-332.8,820.7-328.8,820.7-326.4,818.3z"/>
	<path class="st7" d="M-277.4,858.8c6.2-6.2,6.2-16.2,0-22.4c-6.2-6.2-16.2-6.2-22.4,0c-6.2,6.2-6.2,16.2,0,22.4
		C-293.6,865-283.6,865-277.4,858.8z"/>
	<path class="st6" d="M-263.3,847.6L-263.3,847.6"/>
	<path class="st6" d="M-263.3,847.6l21.1-33.8"/>
	<path class="st6" d="M-237.7,818.3c2.5-2.5,2.5-6.5,0-9c-2.5-2.5-6.5-2.5-9,0c-2.5,2.5-2.5,6.5,0,9
		C-244.1,820.7-240.1,820.7-237.7,818.3z"/>
	<path class="st7" d="M-252,858.8c6.2-6.2,6.2-16.2,0-22.4c-6.2-6.2-16.2-6.2-22.4,0c-6.2,6.2-6.2,16.2,0,22.4
		C-268.3,865-258.2,865-252,858.8z"/>
	<path class="st6" d="M-212.6,733.5l-8.4,42.2"/>
	<path class="st6" d="M-212.6,733.5l8.4-46.5"/>
	<path class="st6" d="M-216.5,780.2c2.5-2.5,2.5-6.5,0-9c-2.5-2.5-6.5-2.5-9,0c-2.5,2.5-2.5,6.5,0,9
		C-223,782.7-219,782.7-216.5,780.2z"/>
	<path class="st6" d="M-199.7,691.5c2.5-2.5,2.5-6.5,0-9c-2.5-2.5-6.5-2.5-9,0c-2.5,2.5-2.5,6.5,0,9
		C-206.1,694-202.1,694-199.7,691.5z"/>
	<path class="st7" d="M-201.4,744.7c6.2-6.2,6.2-16.2,0-22.4c-6.2-6.2-16.2-6.2-22.4,0c-6.2,6.2-6.2,16.2,0,22.4
		C-217.6,750.9-207.5,750.9-201.4,744.7z"/>
	<path class="st6" d="M-233.7,636.4l21.1,21.1"/>
	<path class="st6" d="M-233.7,636.4l-42.2-42.2"/>
	<path class="st6" d="M-208.1,662c2.5-2.5,2.5-6.5,0-9c-2.5-2.5-6.5-2.5-9,0c-2.5,2.5-2.5,6.5,0,9
		C-214.6,664.5-210.6,664.5-208.1,662z"/>
	<path class="st6" d="M-271.5,598.6c2.5-2.5,2.5-6.5,0-9c-2.5-2.5-6.5-2.5-9,0c-2.5,2.5-2.5,6.5,0,9
		C-277.9,601.1-273.9,601.1-271.5,598.6z"/>
	<path class="st7" d="M-222.5,647.6c6.2-6.2,6.2-16.2,0-22.4c-6.2-6.2-16.2-6.2-22.4,0c-6.2,6.2-6.2,16.2,0,22.4
		C-238.7,653.8-228.7,653.8-222.5,647.6z"/>
	<path class="st6" d="M-487.1,577.2H-352"/>
	<path class="st6" d="M-487.1,577.2h-384.4"/>
	<path class="st6" d="M-347.5,581.7c2.5-2.5,2.5-6.5,0-9c-2.5-2.5-6.5-2.5-9,0c-2.5,2.5-2.5,6.5,0,9
		C-354,584.2-349.9,584.2-347.5,581.7z"/>
	<path class="st6" d="M-867,581.7c2.5-2.5,2.5-6.5,0-9c-2.5-2.5-6.5-2.5-9,0c-2.5,2.5-2.5,6.5,0,9
		C-873.5,584.2-869.5,584.2-867,581.7z"/>
	<path class="st7" d="M-475.9,588.5c6.2-6.2,6.2-16.2,0-22.4c-6.2-6.2-16.2-6.2-22.4,0c-6.2,6.2-6.2,16.2,0,22.4
		C-492.1,594.6-482.1,594.6-475.9,588.5z"/>
	<path class="st6" d="M-1543.1,1384l325.2-515.3"/>
	<path class="st6" d="M-1543.1,1384L-1543.1,1384"/>
	<path class="st6" d="M-1213.4,873.2c2.5-2.5,2.5-6.5,0-9c-2.5-2.5-6.5-2.5-9,0c-2.5,2.5-2.5,6.5,0,9
		C-1219.9,875.7-1215.9,875.7-1213.4,873.2z"/>
	<path class="st7" d="M-1531.9,1395.2c6.2-6.2,6.2-16.2,0-22.4c-6.2-6.2-16.2-6.2-22.4,0c-6.2,6.2-6.2,16.2,0,22.4
		C-1548.1,1401.4-1538.1,1401.4-1531.9,1395.2z"/>
	<path class="st6" d="M-2747,2655.4L-2747,2655.4"/>
	<path class="st6" d="M-2747,2655.4l-12.7,16.9"/>
	<path class="st6" d="M-2755.1,2676.8c2.5-2.5,2.5-6.5,0-9c-2.5-2.5-6.5-2.5-9,0c-2.5,2.5-2.5,6.5,0,9
		C-2761.6,2679.3-2757.6,2679.3-2755.1,2676.8z"/>
	<path class="st7" d="M-2735.7,2666.6c6.2-6.2,6.2-16.2,0-22.4c-6.2-6.2-16.2-6.2-22.4,0c-6.2,6.2-6.2,16.2,0,22.4
		S-2741.9,2672.8-2735.7,2666.6z"/>
	<path class="st6" d="M-2776.5,2723l8.4-29.6"/>
	<path class="st6" d="M-2776.5,2723l-21.1,71.8"/>
	<path class="st6" d="M-2763.6,2697.9c2.5-2.5,2.5-6.5,0-9c-2.5-2.5-6.5-2.5-9,0c-2.5,2.5-2.5,6.5,0,9
		C-2770.1,2700.4-2766,2700.4-2763.6,2697.9z"/>
	<path class="st6" d="M-2793.2,2799.3c2.5-2.5,2.5-6.5,0-9c-2.5-2.5-6.5-2.5-9,0c-2.5,2.5-2.5,6.5,0,9
		C-2799.6,2801.8-2795.6,2801.8-2793.2,2799.3z"/>
	<path class="st7" d="M-2765.3,2734.2c6.2-6.2,6.2-16.2,0-22.4s-16.2-6.2-22.4,0s-6.2,16.2,0,22.4
		C-2781.5,2740.4-2771.5,2740.4-2765.3,2734.2z"/>
	<path class="st6" d="M-2687.8,2858.2h-80.3"/>
	<path class="st6" d="M-2687.8,2858.2L-2687.8,2858.2"/>
	<path class="st6" d="M-2763.6,2862.7c2.5-2.5,2.5-6.5,0-9c-2.5-2.5-6.5-2.5-9,0c-2.5,2.5-2.5,6.5,0,9
		C-2770.1,2865.1-2766,2865.1-2763.6,2862.7z"/>
	<path class="st7" d="M-2676.6,2869.4c6.2-6.2,6.2-16.2,0-22.4s-16.2-6.2-22.4,0s-6.2,16.2,0,22.4
		C-2692.8,2875.6-2682.8,2875.6-2676.6,2869.4z"/>
	<path class="st6" d="M-1036.3,2858.2L-1036.3,2858.2"/>
	<path class="st6" d="M-1036.3,2858.2l4.2-8.4"/>
	<path class="st6" d="M-1027.5,2854.2c2.5-2.5,2.5-6.5,0-9c-2.5-2.5-6.5-2.5-9,0c-2.5,2.5-2.5,6.5,0,9
		C-1034,2856.7-1030,2856.7-1027.5,2854.2z"/>
	<path class="st7" d="M-1025,2869.4c6.2-6.2,6.2-16.2,0-22.4c-6.2-6.2-16.2-6.2-22.4,0s-6.2,16.2,0,22.4
		C-1041.3,2875.6-1031.2,2875.6-1025,2869.4z"/>
	<path class="st6" d="M-1027.8,2824.4v8.4"/>
	<path class="st6" d="M-1027.8,2824.4l25.3-92.9"/>
	<path class="st6" d="M-1023.3,2837.3c2.5-2.5,2.5-6.5,0-9c-2.5-2.5-6.5-2.5-9,0c-2.5,2.5-2.5,6.5,0,9
		C-1029.8,2839.8-1025.8,2839.8-1023.3,2837.3z"/>
	<path class="st6" d="M-998,2735.9c2.5-2.5,2.5-6.5,0-9c-2.5-2.5-6.5-2.5-9,0c-2.5,2.5-2.5,6.5,0,9
		C-1004.4,2738.4-1000.4,2738.4-998,2735.9z"/>
	<path class="st7" d="M-1016.6,2835.6c6.2-6.2,6.2-16.2,0-22.4c-6.2-6.2-16.2-6.2-22.4,0s-6.2,16.2,0,22.4
		C-1032.8,2841.8-1022.8,2841.8-1016.6,2835.6z"/>
	<path class="st6" d="M-1872.6,2655.4h502.7"/>
	<path class="st6" d="M-1872.6,2655.4L-1872.6,2655.4"/>
	<path class="st6" d="M-1365.5,2659.9c2.5-2.5,2.5-6.5,0-9c-2.5-2.5-6.5-2.5-9,0c-2.5,2.5-2.5,6.5,0,9
		C-1371.9,2662.4-1367.9,2662.4-1365.5,2659.9z"/>
	<path class="st7" d="M-1861.4,2666.6c6.2-6.2,6.2-16.2,0-22.4c-6.2-6.2-16.2-6.2-22.4,0c-6.2,6.2-6.2,16.2,0,22.4
		C-1877.6,2672.8-1867.6,2672.8-1861.4,2666.6z"/>
	<path class="st8" d="M722.3,1981.7L722.3,1981.7"/>
	<path class="st8" d="M722.3,1981.7L722.3,1981.7"/>
	<path class="st7" d="M733.5,1992.9c6.2-6.2,6.2-16.2,0-22.4s-16.2-6.2-22.4,0c-6.2,6.2-6.2,16.2,0,22.4
		C717.3,1999,727.3,1999,733.5,1992.9z"/>
	<path class="st6" d="M1672.7,1981.7L1672.7,1981.7"/>
	<path class="st6" d="M1672.7,1981.7v-430.8"/>
	<path class="st6" d="M1677.1,1555.3c2.5-2.5,2.5-6.5,0-9c-2.5-2.5-6.5-2.5-9,0c-2.5,2.5-2.5,6.5,0,9
		C1670.7,1557.8,1674.7,1557.8,1677.1,1555.3z"/>
	<path class="st7" d="M1683.9,1992.9c6.2-6.2,6.2-16.2,0-22.4c-6.2-6.2-16.2-6.2-22.4,0c-6.2,6.2-6.2,16.2,0,22.4
		C1667.7,1999,1677.7,1999,1683.9,1992.9z"/>
	<path class="st6" d="M1672.7,782v354.8"/>
	<path class="st6" d="M1672.7,782v-4.2"/>
	<path class="st6" d="M1677.1,1141.3c2.5-2.5,2.5-6.5,0-9c-2.5-2.5-6.5-2.5-9,0c-2.5,2.5-2.5,6.5,0,9
		C1670.7,1143.8,1674.7,1143.8,1677.1,1141.3z"/>
	<path class="st6" d="M1677.1,782.3c2.5-2.5,2.5-6.5,0-9c-2.5-2.5-6.5-2.5-9,0c-2.5,2.5-2.5,6.5,0,9
		C1670.7,784.8,1674.7,784.8,1677.1,782.3z"/>
	<path class="st7" d="M1683.9,793.3c6.2-6.2,6.2-16.2,0-22.4c-6.2-6.2-16.2-6.2-22.4,0c-6.2,6.2-6.2,16.2,0,22.4
		C1667.7,799.4,1677.7,799.4,1683.9,793.3z"/>
	<path class="st6" d="M1469.9,178h4.2"/>
	<path class="st6" d="M1469.9,178L1469.9,178"/>
	<path class="st6" d="M1478.6,182.5c2.5-2.5,2.5-6.5,0-9c-2.5-2.5-6.5-2.5-9,0c-2.5,2.5-2.5,6.5,0,9
		C1472.2,185,1476.2,185,1478.6,182.5z"/>
	<path class="st7" d="M1481.1,189.2c6.2-6.2,6.2-16.2,0-22.4c-6.2-6.2-16.2-6.2-22.4,0c-6.2,6.2-6.2,16.2,0,22.4
		C1464.9,195.4,1475,195.4,1481.1,189.2z"/>
	<path class="st6" d="M342.1,178L342.1,178"/>
	<path class="st6" d="M342.1,178v266.1"/>
	<path class="st6" d="M346.6,448.6c2.5-2.5,2.5-6.5,0-9c-2.5-2.5-6.5-2.5-9,0c-2.5,2.5-2.5,6.5,0,9
		C340.1,451.1,344.1,451.1,346.6,448.6z"/>
	<path class="st7" d="M353.3,189.2c6.2-6.2,6.2-16.2,0-22.4c-6.2-6.2-16.2-6.2-22.4,0c-6.2,6.2-6.2,16.2,0,22.4
		S347.2,195.4,353.3,189.2z"/>
	<path class="st6" d="M342.1,976.3V710.2"/>
	<path class="st6" d="M342.1,976.3v29.6"/>
	<path class="st6" d="M346.6,714.7c2.5-2.5,2.5-6.5,0-9c-2.5-2.5-6.5-2.5-9,0c-2.5,2.5-2.5,6.5,0,9
		C340.1,717.2,344.1,717.2,346.6,714.7z"/>
	<path class="st6" d="M346.6,1010.4c2.5-2.5,2.5-6.5,0-9c-2.5-2.5-6.5-2.5-9,0c-2.5,2.5-2.5,6.5,0,9
		C340.1,1012.9,344.1,1012.9,346.6,1010.4z"/>
	<path class="st7" d="M353.3,987.6c6.2-6.2,6.2-16.2,0-22.4c-6.2-6.2-16.2-6.2-22.4,0c-6.2,6.2-6.2,16.2,0,22.4
		C337.1,993.7,347.2,993.7,353.3,987.6z"/>
	<path class="st6" d="M388.6,1022.8H359"/>
	<path class="st6" d="M388.6,1022.8h84.5"/>
	<path class="st6" d="M363.5,1027.3c2.5-2.5,2.5-6.5,0-9c-2.5-2.5-6.5-2.5-9,0c-2.5,2.5-2.5,6.5,0,9
		C357,1029.8,361,1029.8,363.5,1027.3z"/>
	<path class="st6" d="M477.5,1027.3c2.5-2.5,2.5-6.5,0-9c-2.5-2.5-6.5-2.5-9,0c-2.5,2.5-2.5,6.5,0,9
		C471.1,1029.8,475.1,1029.8,477.5,1027.3z"/>
	<path class="st7" d="M399.8,1034c6.2-6.2,6.2-16.2,0-22.4c-6.2-6.2-16.2-6.2-22.4,0c-6.2,6.2-6.2,16.2,0,22.4
		C383.6,1040.2,393.6,1040.2,399.8,1034z"/>
	<path class="st6" d="M650.5,1022.8h-88.7"/>
	<path class="st6" d="M650.5,1022.8L650.5,1022.8"/>
	<path class="st6" d="M566.2,1027.3c2.5-2.5,2.5-6.5,0-9c-2.5-2.5-6.5-2.5-9,0c-2.5,2.5-2.5,6.5,0,9
		C559.8,1029.8,563.8,1029.8,566.2,1027.3z"/>
	<path class="st7" d="M661.7,1034c6.2-6.2,6.2-16.2,0-22.4c-6.2-6.2-16.2-6.2-22.4,0c-6.2,6.2-6.2,16.2,0,22.4
		C645.5,1040.2,655.5,1040.2,661.7,1034z"/>
	<path class="st6" d="M722.3,1022.8L722.3,1022.8"/>
	<path class="st6" d="M722.3,1022.8v101.4"/>
	<path class="st6" d="M726.7,1128.7c2.5-2.5,2.5-6.5,0-9c-2.5-2.5-6.5-2.5-9,0c-2.5,2.5-2.5,6.5,0,9
		C720.3,1131.2,724.3,1131.2,726.7,1128.7z"/>
	<path class="st7" d="M733.5,1034c6.2-6.2,6.2-16.2,0-22.4c-6.2-6.2-16.2-6.2-22.4,0c-6.2,6.2-6.2,16.2,0,22.4
		C717.3,1040.2,727.3,1040.2,733.5,1034z"/>
	<path class="st6" d="M722.3,1322.7v-97.2"/>
	<path class="st6" d="M722.3,1322.7v88.7"/>
	<path class="st6" d="M726.7,1230c2.5-2.5,2.5-6.5,0-9c-2.5-2.5-6.5-2.5-9,0c-2.5,2.5-2.5,6.5,0,9
		C720.3,1232.5,724.3,1232.5,726.7,1230z"/>
	<path class="st6" d="M726.7,1415.9c2.5-2.5,2.5-6.5,0-9c-2.5-2.5-6.5-2.5-9,0c-2.5,2.5-2.5,6.5,0,9
		C720.3,1418.4,724.3,1418.4,726.7,1415.9z"/>
	<path class="st7" d="M733.5,1333.9c6.2-6.2,6.2-16.2,0-22.4s-16.2-6.2-22.4,0c-6.2,6.2-6.2,16.2,0,22.4
		C717.3,1340.1,727.3,1340.1,733.5,1333.9z"/>
	<path class="st6" d="M722.3,1584.6v-88.7"/>
	<path class="st6" d="M722.3,1584.6L722.3,1584.6"/>
	<path class="st6" d="M726.7,1500.4c2.5-2.5,2.5-6.5,0-9c-2.5-2.5-6.5-2.5-9,0c-2.5,2.5-2.5,6.5,0,9
		C720.3,1502.9,724.3,1502.9,726.7,1500.4z"/>
	<path class="st7" d="M733.5,1595.8c6.2-6.2,6.2-16.2,0-22.4c-6.2-6.2-16.2-6.2-22.4,0c-6.2,6.2-6.2,16.2,0,22.4
		C717.3,1602,727.3,1602,733.5,1595.8z"/>
	<path class="st6" d="M1558.6,710.2L1558.6,710.2"/>
	<path class="st6" d="M1558.6,710.2L1558.6,710.2"/>
	<path class="st7" d="M1569.8,721.5c6.2-6.2,6.2-16.2,0-22.4c-6.2-6.2-16.2-6.2-22.4,0c-6.2,6.2-6.2,16.2,0,22.4
		C1553.6,727.6,1563.7,727.6,1569.8,721.5z"/>
	<path class="st6" d="M1596.6,1339.6L1596.6,1339.6"/>
	<path class="st6" d="M1596.6,1339.6l146.4-90.4"/>
	<path class="st6" d="M1747.5,1253.7c2.5-2.5,2.5-6.5,0-9c-2.5-2.5-6.5-2.5-9,0c-2.5,2.5-2.5,6.5,0,9
		C1741,1256.1,1745.1,1256.1,1747.5,1253.7z"/>
	<path class="st7" d="M1607.9,1350.8c6.2-6.2,6.2-16.2,0-22.4c-6.2-6.2-16.2-6.2-22.4,0c-6.2,6.2-6.2,16.2,0,22.4
		C1591.6,1357,1601.7,1357,1607.9,1350.8z"/>
	<path class="st6" d="M2128.9,1212.9h-181.7"/>
	<path class="st6" d="M2128.9,1212.9h139.7"/>
	<path class="st6" d="M1951.6,1217.4c2.5-2.5,2.5-6.5,0-9c-2.5-2.5-6.5-2.5-9,0c-2.5,2.5-2.5,6.5,0,9
		C1945.2,1219.9,1949.2,1219.9,1951.6,1217.4z"/>
	<path class="st6" d="M2273,1217.4c2.5-2.5,2.5-6.5,0-9c-2.5-2.5-6.5-2.5-9,0c-2.5,2.5-2.5,6.5,0,9
		C2266.6,1219.9,2270.6,1219.9,2273,1217.4z"/>
	<path class="st7" d="M2140.1,1224.1c6.2-6.2,6.2-16.2,0-22.4c-6.2-6.2-16.2-6.2-22.4,0c-6.2,6.2-6.2,16.2,0,22.4
		C2123.9,1230.3,2133.9,1230.3,2140.1,1224.1z"/>
	<path class="st6" d="M2580.8,1288.9l-152.6-49.5"/>
	<path class="st6" d="M2580.8,1288.9L2580.8,1288.9"/>
	<path class="st6" d="M2432.7,1243.9c2.5-2.5,2.5-6.5,0-9c-2.5-2.5-6.5-2.5-9,0c-2.5,2.5-2.5,6.5,0,9
		C2426.2,1246.4,2430.2,1246.4,2432.7,1243.9z"/>
	<path class="st7" d="M2592,1300.1c6.2-6.2,6.2-16.2,0-22.4c-6.2-6.2-16.2-6.2-22.4,0c-6.2,6.2-6.2,16.2,0,22.4
		C2575.8,1306.3,2585.9,1306.3,2592,1300.1z"/>
	<path class="st6" d="M2407.6,135.8h126.7"/>
	<path class="st6" d="M2407.6,135.8H2112"/>
	<path class="st6" d="M2538.8,140.3c2.5-2.5,2.5-6.5,0-9c-2.5-2.5-6.5-2.5-9,0c-2.5,2.5-2.5,6.5,0,9
		C2532.4,142.8,2536.4,142.8,2538.8,140.3z"/>
	<path class="st6" d="M2116.4,140.3c2.5-2.5,2.5-6.5,0-9c-2.5-2.5-6.5-2.5-9,0c-2.5,2.5-2.5,6.5,0,9
		C2110,142.8,2114,142.8,2116.4,140.3z"/>
	<path class="st7" d="M2418.9,147c6.2-6.2,6.2-16.2,0-22.4c-6.2-6.2-16.2-6.2-22.4,0c-6.2,6.2-6.2,16.2,0,22.4
		C2402.6,153.2,2412.7,153.2,2418.9,147z"/>
	<path class="st6" d="M1714.9,710.2l160.5-418.2"/>
	<path class="st6" d="M1714.9,710.2L1714.9,710.2"/>
	<path class="st6" d="M1879.9,296.5c2.5-2.5,2.5-6.5,0-9c-2.5-2.5-6.5-2.5-9,0c-2.5,2.5-2.5,6.5,0,9
		C1873.4,299,1877.4,299,1879.9,296.5z"/>
	<path class="st7" d="M1726.1,721.5c6.2-6.2,6.2-16.2,0-22.4c-6.2-6.2-16.2-6.2-22.4,0c-6.2,6.2-6.2,16.2,0,22.4
		C1709.9,727.6,1719.9,727.6,1726.1,721.5z"/>
	<path class="st6" d="M342.1,1656.4L342.1,1656.4"/>
	<path class="st6" d="M342.1,1656.4v194.3"/>
	<path class="st6" d="M346.6,1855.2c2.5-2.5,2.5-6.5,0-9c-2.5-2.5-6.5-2.5-9,0c-2.5,2.5-2.5,6.5,0,9
		C340.1,1857.7,344.1,1857.7,346.6,1855.2z"/>
	<path class="st7" d="M353.3,1667.6c6.2-6.2,6.2-16.2,0-22.4c-6.2-6.2-16.2-6.2-22.4,0s-6.2,16.2,0,22.4
		C337.1,1673.8,347.2,1673.8,353.3,1667.6z"/>
	<path class="st6" d="M342.1,2454.7v-194.3"/>
	<path class="st6" d="M342.1,2454.7v29.6"/>
	<path class="st6" d="M346.6,2264.9c2.5-2.5,2.5-6.5,0-9c-2.5-2.5-6.5-2.5-9,0c-2.5,2.5-2.5,6.5,0,9
		C340.1,2267.4,344.1,2267.4,346.6,2264.9z"/>
	<path class="st6" d="M346.6,2488.8c2.5-2.5,2.5-6.5,0-9c-2.5-2.5-6.5-2.5-9,0c-2.5,2.5-2.5,6.5,0,9
		C340.1,2491.3,344.1,2491.3,346.6,2488.8z"/>
	<path class="st7" d="M353.3,2466c6.2-6.2,6.2-16.2,0-22.4s-16.2-6.2-22.4,0s-6.2,16.2,0,22.4C337.1,2472.1,347.2,2472.1,353.3,2466
		z"/>
	<path class="st6" d="M388.6,2501.2H359"/>
	<path class="st6" d="M388.6,2501.2L388.6,2501.2"/>
	<path class="st6" d="M363.5,2505.7c2.5-2.5,2.5-6.5,0-9c-2.5-2.5-6.5-2.5-9,0c-2.5,2.5-2.5,6.5,0,9
		C357,2508.2,361,2508.2,363.5,2505.7z"/>
	<path class="st7" d="M399.8,2512.4c6.2-6.2,6.2-16.2,0-22.4s-16.2-6.2-22.4,0s-6.2,16.2,0,22.4S393.6,2518.6,399.8,2512.4z"/>
	<path class="st6" d="M2411.9,2501.2L2411.9,2501.2"/>
	<path class="st6" d="M2411.9,2501.2v-194.3"/>
	<path class="st6" d="M2416.3,2311.4c2.5-2.5,2.5-6.5,0-9c-2.5-2.5-6.5-2.5-9,0c-2.5,2.5-2.5,6.5,0,9
		C2409.9,2313.9,2413.9,2313.9,2416.3,2311.4z"/>
	<path class="st7" d="M2423.1,2512.4c6.2-6.2,6.2-16.2,0-22.4s-16.2-6.2-22.4,0c-6.2,6.2-6.2,16.2,0,22.4
		C2406.9,2518.6,2416.9,2518.6,2423.1,2512.4z"/>
	<path class="st6" d="M2411.9,1702.9v194.3"/>
	<path class="st6" d="M2411.9,1702.9v-29.6"/>
	<path class="st6" d="M2416.3,1901.7c2.5-2.5,2.5-6.5,0-9c-2.5-2.5-6.5-2.5-9,0c-2.5,2.5-2.5,6.5,0,9
		C2409.9,1904.1,2413.9,1904.1,2416.3,1901.7z"/>
	<path class="st6" d="M2416.3,1677.8c2.5-2.5,2.5-6.5,0-9c-2.5-2.5-6.5-2.5-9,0c-2.5,2.5-2.5,6.5,0,9
		C2409.9,1680.3,2413.9,1680.3,2416.3,1677.8z"/>
	<path class="st7" d="M2423.1,1714.1c6.2-6.2,6.2-16.2,0-22.4c-6.2-6.2-16.2-6.2-22.4,0c-6.2,6.2-6.2,16.2,0,22.4
		C2406.9,1720.3,2416.9,1720.3,2423.1,1714.1z"/>
	<path class="st6" d="M2365.4,1656.4h29.6"/>
	<path class="st6" d="M2365.4,1656.4L2365.4,1656.4"/>
	<path class="st6" d="M2399.4,1660.9c2.5-2.5,2.5-6.5,0-9c-2.5-2.5-6.5-2.5-9,0c-2.5,2.5-2.5,6.5,0,9
		C2393,1663.4,2397,1663.4,2399.4,1660.9z"/>
	<path class="st7" d="M2376.6,1667.6c6.2-6.2,6.2-16.2,0-22.4c-6.2-6.2-16.2-6.2-22.4,0c-6.2,6.2-6.2,16.2,0,22.4
		C2360.4,1673.8,2370.4,1673.8,2376.6,1667.6z"/>
	<path class="st9" d="M-2050,2689.2l2772.3-707.6"/>
	<path class="st9" d="M-1919.1,2689.2l3591.7-707.6"/>
	<path class="st9" d="M-1576.9,1400.9L1672.7,782"/>
	<path class="st9" d="M-1581.1,594.1L1469.9,178"/>
	<path class="st9" d="M-2210.5,636.4L342.1,178"/>
	<path class="st9" d="M-2244.3,712.4L342.1,976.3"/>
	<path class="st9" d="M-2176.7,839.1l2565.3,183.7"/>
	<path class="st9" d="M-1623.4,758.9l2273.8,263.9"/>
	<path class="st9" d="M-1606.5,780l2328.8,242.8"/>
	<path class="st9" d="M-2050,2402L722.3,1322.7"/>
	<path class="st9" d="M-2020.4,2634.3L722.3,1584.6"/>
	<path class="st9" d="M-1636.1,1337.6l3194.7-627.3"/>
	<path class="st9" d="M-1758.5,1907.8l3355.2-568.2"/>
	<path class="st9" d="M-529.4,796.9l2658.2,416"/>
	<path class="st9" d="M-288.6,847.6l2869.4,441.4"/>
	<path class="st9" d="M-263.3,847.6l2928.6,441.4"/>
	<path class="st9" d="M-212.6,733.5l2877.9-496.4"/>
	<path class="st9" d="M-233.7,636.4l2886.3-441.5"/>
	<path class="st9" d="M-487.1,577.2l2894.8-441.5"/>
	<path class="st9" d="M-1543.1,1384l3258-673.8"/>
	<path class="st9" d="M-2747,2655.4l3089.1-999"/>
	<path class="st9" d="M-2776.5,2723l3118.6-268.3"/>
	<path class="st9" d="M-2687.8,2858.2l3076.4-357"/>
	<path class="st9" d="M-1036.3,2858.2l3448.1-357"/>
	<path class="st9" d="M-1027.8,2824.4l3439.7-1121.5"/>
	<path class="st9" d="M-1872.6,2655.4l4238-999"/>
	<path class="st10" d="M-2050,2689.2l2772.3-707.6"/>
	<path class="st10" d="M-2050,2689.2l2772.3-707.6"/>
	<path class="st10" d="M-1919.1,2689.2l3591.7-707.6"/>
	<path class="st10" d="M-1872.6,2216.1l3545.3-665.3"/>
	<path class="st10" d="M-1699.4,1819.1l3372.1-682.2"/>
	<path class="st10" d="M-1416.4,856l3089.1-78.2"/>
	<path class="st10" d="M-1382.6,594.1L1474.1,178"/>
	<path class="st10" d="M-1821.9,594.1L1469.9,178"/>
	<path class="st10" d="M-1948.6,611L342.1,178"/>
	<path class="st10" d="M-2227.4,657.5L342.1,444.1"/>
	<path class="st10" d="M-2235.9,682.8l2578,27.4"/>
	<path class="st10" d="M-2265.4,792.7l2607.5,213.3"/>
	<path class="st10" d="M-2235.9,839.1L359,1022.8"/>
	<path class="st10" d="M-2104.9,839.1l2578,183.7"/>
	<path class="st10" d="M-1990.9,801.1l2552.6,221.7"/>
	<path class="st10" d="M-1623.4,758.9l2273.8,263.9"/>
	<path class="st10" d="M-1606.5,780l2328.8,242.8"/>
	<path class="st10" d="M-1707.9,1400.9l2430.1-276.7"/>
	<path class="st10" d="M-1961.3,1831.8l2683.6-606.2"/>
	<path class="st10" d="M-2071.1,2524.5L722.3,1411.4"/>
	<path class="st10" d="M-2058.4,2596.3L722.3,1495.9"/>
	<path class="st10" d="M-2020.4,2634.3L722.3,1584.6"/>
	<path class="st10" d="M-1636.1,1337.6l3194.7-627.3"/>
	<path class="st10" d="M-1636.1,1337.6l3194.7-627.3"/>
	<path class="st10" d="M-1758.5,1907.8l3355.2-568.2"/>
	<path class="st10" d="M-1327.7,1185.5l3070.7,63.7"/>
	<path class="st10" d="M-875.7,796.9l2822.9,416"/>
	<path class="st10" d="M-398.4,796.9l2667,416"/>
	<path class="st10" d="M-330.8,813.8l2759.1,425.6"/>
	<path class="st10" d="M-288.6,847.6l2869.4,441.4"/>
	<path class="st10" d="M-263.3,847.6l2928.6,441.4"/>
	<path class="st10" d="M-242.1,813.8l2907.4,124.6"/>
	<path class="st10" d="M-221,775.8l2886.3-188"/>
	<path class="st10" d="M-204.1,687.1l2869.4-471"/>
	<path class="st10" d="M-212.6,657.5l2873.6-454.1"/>
	<path class="st10" d="M-275.9,594.1l2899-428.8"/>
	<path class="st10" d="M-352,577.2l2886.3-441.5"/>
	<path class="st10" d="M-871.5,577.2L2112,135.8"/>
	<path class="st10" d="M-1217.9,868.7l3093.3-576.6"/>
	<path class="st10" d="M-1543.1,1384l3258-673.8"/>
	<path class="st10" d="M-2747,2655.4l3089.1-999"/>
	<path class="st10" d="M-2759.6,2672.3l3101.7-821.6"/>
	<path class="st10" d="M-2768.1,2693.4l3110.2-433"/>
	<path class="st10" d="M-2797.6,2794.8l3139.8-310.5"/>
	<path class="st10" d="M-2768.1,2858.2l3127.1-357"/>
	<path class="st10" d="M-2687.8,2858.2l3076.4-357"/>
	<path class="st10" d="M-1036.3,2858.2l3448.1-357"/>
	<path class="st10" d="M-1032,2849.7l3443.9-542.8"/>
	<path class="st10" d="M-1027.8,2832.8l3439.7-935.7"/>
	<path class="st10" d="M-1002.5,2731.5l3414.3-1058.2"/>
	<path class="st10" d="M-1369.9,2655.4l3764.9-999"/>
	<path class="st10" d="M-1872.6,2655.4l4238-999"/>
</g>
<g>
	<text transform="matrix(1 0 0 1 -2873.2246 204.6918)" class="st13" style="fill:#C6C6C6; font-family:'RecursiveMonoLnr-XBlk';">Recursive Mono Casual Light Italic</text>
</g>
<g>
	<text transform="matrix(1 0 0 1 687.6003 2873.2249)" class="st11 st12 st13">Recursive Mono Linear ExtraBlack</text>
</g>
<rect x="-3222.3" y="-163.5" class="st11" width="126.8" height="126.8"/>
<rect x="2986" y="3087.4" class="st11" width="126.8" height="126.8"/>
</svg>
