<?xml version="1.0" encoding="utf-8"?>
<!-- Generator: Adobe Illustrator 23.0.6, SVG Export Plug-In . SVG Version: 6.00 Build 0)  -->
<svg version="1.1" id="Layer_1" xmlns="http://www.w3.org/2000/svg" xmlns:xlink="http://www.w3.org/1999/xlink" x="0px" y="0px"
	 viewBox="0 0 2106.4 1500" style="enable-background:new 0 0 2106.4 1500;" xml:space="preserve">
<style type="text/css">
	.st0{fill-opacity:0.25;stroke:#000066;stroke-width:2;stroke-linecap:round;}
	.st1{fill:#0000FF;stroke:#8888FF;stroke-width:2;stroke-linecap:round;stroke-dasharray:4;}
	.st2{fill:#0000FF;stroke:#8888FF;stroke-width:2;stroke-linecap:round;stroke-opacity:0.25;stroke-dasharray:4;}
	.st3{fill:#0000FF;stroke:#FFFFFF;stroke-width:2;stroke-linecap:round;stroke-dasharray:0;}
	.st4{fill:#0000FF;stroke:#FFFFFF;stroke-width:3;stroke-linecap:round;stroke-dasharray:0;}
	.st5{fill:#FFFFFF;stroke:#000066;stroke-width:2;stroke-linecap:round;stroke-dasharray:0;}
	.st6{fill:#FFFFFF;stroke:#FFFFFF;stroke-width:2;stroke-linecap:round;stroke-dasharray:0;}
	.st7{fill:#FFFFFF;stroke:#FFFFFF;stroke-width:3;stroke-linecap:round;stroke-dasharray:0;}
</style>
<path class="st0" d="M380.1,1134.7l-59,14.8c17.2,82.4,38.1,147.6,76.3,211.6c33.2,55.3,65.2,80,116.9,80c24.6,0,39.4-6.2,50.4-17.2
	c8.6-8.6,13.5-18.4,17.2-33.2c2.5-11.1,3.7-23.4,2.5-34.4h-4.9c-16,14.8-39.4,24.6-59,24.6c-28.3,0-50.4-17.2-70.1-50.4
	C413.3,1267.5,396.1,1217.1,380.1,1134.7z M157.4,567.7c-3.7,6.1-6.1,11.1-8.6,22.1c-4.9,22.1,2.5,36.9,20.9,36.9
	c23.4,0,140.2-24.6,270.6-24.6c94.7,0,146.4,18.5,194.3,56.6c17.2,46.7,17.2,95.9,1.2,163.6l-4.9,20.9
	c-46.7,196.8-225.1,278-385,278c-56.6,0-81.2-4.9-100.9-16l-17.2,44.3l22.1-3.7c20.9,22.1,46.7,34.4,92.2,34.4
	c217.7,0,397.3-121.8,446.5-321l8.6-34.4c30.8-121.8,12.3-281.7-243.5-281.7C381.3,543.1,291.5,546.8,157.4,567.7z M113.2,1428.7
	c-6.2-28.3-7.4-71.3-3.7-115.6c22.1-201.7,123-391.1,168.5-586.7c13.5-57.8,13.5-92.2,2.5-108.2l20.9-38.1l-56.6,12.3
	C206.6,857.9,64,1105.2,48,1327.8c-3.7,71.3,1.2,108.2,41.8,108.2C98.4,1436,107,1433.6,113.2,1428.7z"/>
<path class="st0" d="M1874.5,502.5L1663,616.9c32,61.5,62.7,124.2,94.7,185.7c52.9,98.4,86.1,118.1,198,118.1c25.8,0,51.2,0,77.5,0
	c8.6,0,13.5-4.9,13.5-13.5c0-81.2,0-163.6,0-244.8h-39.4c-4.9,0-9.8,0-14.8,0c-17.2,0-25.8-8.6-36.9-25.8
	C1928.6,592.3,1901.6,546.7,1874.5,502.5z M1343.2,47.4c0,77.5,0,155,0,232.5c0,8.6,4.9,13.5,13.5,13.5c113.2,0,227.6,0,340.7,0
	c19.7,0,38.1,1.2,49.2,12.3c9.8,8.6,14.8,23.4,14.8,50.4v16c0,56.6-12.3,68.9-68.9,68.9c-46.7,0-93.5,0-140.2,0v226.3l13.5-11.1
	c68.9,0,139,0,207.9,0c164.8,0,279.2-104.7,279.2-284.1v-49.2c0-189.4-93.5-275.5-296.4-275.5C1618.7,47.4,1480.9,47.4,1343.2,47.4z
	 M1658,908.4c0-38.1,0-80,0-124.2c0-136.5,0-273.1,0-409.6c0-83.6,0-168.5,0-252.1l19.7-13.5h-297.7c0,262,0,524,0,786
	c0,7.4,4.9,13.5,13.5,13.5C1482.1,908.4,1569.5,908.4,1658,908.4z"/>
<path class="st1" d="M380.1,1134.7l1494.4-632.2"/>
<path class="st1" d="M321,1149.4L1663,616.9"/>
<path class="st1" d="M397.3,1361l1360.4-558.4"/>
<path class="st1" d="M514.1,1441l1441.6-520.3"/>
<path class="st1" d="M564.6,1423.7l1468.6-503.1"/>
<path class="st1" d="M581.8,1390.5l1464.9-483.4"/>
<path class="st1" d="M584.2,1356.1l1462.5-693.7"/>
<path class="st1" d="M579.3,1356.1l1428-693.7"/>
<path class="st1" d="M520.3,1380.7l1472.3-718.3"/>
<path class="st1" d="M450.2,1330.3l1505.5-693.7"/>
<path class="st1" d="M157.4,567.7L1343.2,47.4"/>
<path class="st1" d="M148.8,589.8l1194.3-310"/>
<path class="st1" d="M169.7,626.7l1186.9-333.3"/>
<path class="st1" d="M440.3,602.1l1257.1-308.7"/>
<path class="st1" d="M634.7,658.7l1111.9-353"/>
<path class="st1" d="M635.9,822.3l1125.4-466.2"/>
<path class="st1" d="M631,843.2l1130.4-471.1"/>
<path class="st1" d="M246,1121.2L1692.5,441"/>
<path class="st1" d="M145.1,1105.2L1552.3,441"/>
<path class="st1" d="M127.9,1149.4l1424.3-482.2"/>
<path class="st1" d="M150.1,1145.8l1415.7-489.5"/>
<path class="st1" d="M242.3,1180.2l1531.3-524"/>
<path class="st1" d="M688.8,859.2l1364.1-487.1"/>
<path class="st1" d="M697.4,824.7l1355.5-501.8"/>
<path class="st1" d="M453.9,543.1L1756.4,47.4"/>
<path class="st1" d="M113.2,1428.7L1658,908.4"/>
<path class="st1" d="M109.5,1313L1658,784.1"/>
<path class="st1" d="M278,726.3L1658,374.5"/>
<path class="st1" d="M280.4,618.1L1658,122.4"/>
<path class="st1" d="M301.4,580l1376.4-471.1"/>
<path class="st1" d="M244.8,592.3l1135.3-483.4"/>
<path class="st1" d="M48,1327.8l1332.1-433"/>
<path class="st1" d="M89.8,1436l1303.8-527.7"/>
<path class="st2" d="M396.1,1217.1l1505.5-670.4"/>
<path class="st2" d="M380.1,1134.7l1494.4-632.2"/>
<path class="st2" d="M321,1149.4L1663,616.9"/>
<path class="st2" d="M338.2,1231.9l1356.7-553.5"/>
<path class="st2" d="M359.2,1297.1l1366.5-556"/>
<path class="st2" d="M430.5,1416.4L1810.6,901"/>
<path class="st2" d="M462.5,1441l1381.3-520.3"/>
<path class="st2" d="M538.7,1441l1442.8-520.3"/>
<path class="st2" d="M553.5,1434.8l1453.4-514.1"/>
<path class="st2" d="M573.2,1415.1l1468.6-494.5"/>
<path class="st2" d="M578.1,1405.3l1468.6-489.5"/>
<path class="st2" d="M584.2,1379.5L2046.7,826"/>
<path class="st2" d="M585.5,1367.2l1461.2-623.6"/>
<path class="st2" d="M584.2,1356.1l1462.5-693.7"/>
<path class="st2" d="M579.3,1356.1l1428-693.7"/>
<path class="st2" d="M563.3,1370.8l1439.1-708.5"/>
<path class="st2" d="M540,1380.7l1457.5-718.3"/>
<path class="st2" d="M492,1380.7l1483.4-718.3"/>
<path class="st2" d="M469.9,1363.5l1496.9-709.7"/>
<path class="st2" d="M413.3,1267.5l1515.4-675.3"/>
<path class="st2" d="M291.5,546.8L1480.9,47.4"/>
<path class="st2" d="M153.8,573.8l1189.4-449"/>
<path class="st2" d="M151.3,578.7l1191.9-376.4"/>
<path class="st2" d="M143.9,611.9l1199.2-323.5"/>
<path class="st2" d="M151.3,626.7l1196.8-333.3"/>
<path class="st2" d="M193.1,626.7l1276.7-333.3"/>
<path class="st2" d="M310,602.1l1274.3-308.7"/>
<path class="st2" d="M535,602.1l1182-308.7"/>
<path class="st2" d="M586.7,620.5l1148.8-326"/>
<path class="st2" d="M651.9,705.4l1104.5-391.1"/>
<path class="st2" d="M651.9,754.6L1761.4,329"/>
<path class="st2" d="M635.9,822.3l1125.4-466.2"/>
<path class="st2" d="M631,843.2l1130.4-471.1"/>
<path class="st2" d="M584.2,1040l1177.1-611.3"/>
<path class="st2" d="M405.9,1121.2L1749.1,441"/>
<path class="st2" d="M189.4,1121.2L1645.7,441"/>
<path class="st2" d="M164.8,1116.2L1599,441"/>
<path class="st2" d="M145.1,1105.2L1552.3,441"/>
<path class="st2" d="M127.9,1149.4l1424.3-482.2"/>
<path class="st2" d="M127.9,1149.4l1424.3-482.2"/>
<path class="st2" d="M150.1,1145.8l1415.7-489.5"/>
<path class="st2" d="M171,1167.9l1463.7-511.7"/>
<path class="st2" d="M196.8,1180.2l1508-524"/>
<path class="st2" d="M460,1180.2l1478.5-524"/>
<path class="st2" d="M639.6,1058.4l1413.3-507"/>
<path class="st2" d="M688.8,859.2l1364.1-487.1"/>
<path class="st2" d="M697.4,824.7l1355.5-501.8"/>
<path class="st2" d="M728.2,703l1324.7-569.5"/>
<path class="st2" d="M709.7,543.1L1959.4,47.4"/>
<path class="st2" d="M381.3,543.1L1618.7,47.4"/>
<path class="st2" d="M107,1433.6l1462.5-525.2"/>
<path class="st2" d="M107,1400.4l1551-530.1"/>
<path class="st2" d="M105.8,1357.3L1658,828.4"/>
<path class="st2" d="M131.6,1111.3L1658,647.6"/>
<path class="st2" d="M232.5,921.9L1658,511.1"/>
<path class="st2" d="M291.5,668.5L1658,290.9"/>
<path class="st2" d="M291.5,634.1L1658,206"/>
<path class="st2" d="M280.4,618.1L1658,122.4"/>
<path class="st2" d="M301.4,580l1376.4-471.1"/>
<path class="st2" d="M301.4,580l1376.4-471.1"/>
<path class="st2" d="M244.8,592.3l1135.3-483.4"/>
<path class="st2" d="M206.6,857.9l1173.4-487.1"/>
<path class="st2" d="M64,1105.2l1316.1-472.3"/>
<path class="st2" d="M44.3,1399.1l1335.8-496.9"/>
<path class="st2" d="M49.2,1436L1385,908.4"/>
<path class="st2" d="M98.4,1436l1383.7-527.7"/>
<path class="st3" d="M380.1,1134.7l16,82.4"/>
<path class="st3" d="M380.1,1134.7L380.1,1134.7"/>
<path class="st4" d="M397.4,1218.4c0.7-0.7,0.7-1.9,0-2.6c-0.7-0.7-1.9-0.7-2.6,0c-0.7,0.7-0.7,1.9,0,2.6
	C395.5,1219.1,396.7,1219.1,397.4,1218.4z"/>
<path class="st5" d="M384.4,1139c2.4-2.4,2.4-6.3,0-8.7c-2.4-2.4-6.3-2.4-8.7,0c-2.4,2.4-2.4,6.3,0,8.7
	C378.1,1141.4,382,1141.4,384.4,1139z"/>
<path class="st6" d="M321,1149.5L321,1149.5"/>
<path class="st6" d="M321,1149.5l17.2,82.4"/>
<path class="st7" d="M339.6,1233.2c0.7-0.7,0.7-1.9,0-2.6c-0.7-0.7-1.9-0.7-2.6,0c-0.7,0.7-0.7,1.9,0,2.6
	C337.7,1233.9,338.8,1233.9,339.6,1233.2z"/>
<path class="st5" d="M325.4,1153.8c2.4-2.4,2.4-6.3,0-8.7c-2.4-2.4-6.3-2.4-8.7,0c-2.4,2.4-2.4,6.3,0,8.7
	C319.1,1156.2,323,1156.2,325.4,1153.8z"/>
<path class="st6" d="M397.3,1361l-38.1-64"/>
<path class="st6" d="M397.3,1361l33.2,55.3"/>
<path class="st7" d="M360.5,1298.4c0.7-0.7,0.7-1.9,0-2.6c-0.7-0.7-1.9-0.7-2.6,0c-0.7,0.7-0.7,1.9,0,2.6
	C358.6,1299.1,359.8,1299.1,360.5,1298.4z"/>
<path class="st7" d="M431.8,1417.7c0.7-0.7,0.7-1.9,0-2.6c-0.7-0.7-1.9-0.7-2.6,0c-0.7,0.7-0.7,1.9,0,2.6
	C429.9,1418.4,431.1,1418.4,431.8,1417.7z"/>
<path class="st5" d="M401.6,1365.4c2.4-2.4,2.4-6.3,0-8.7c-2.4-2.4-6.3-2.4-8.7,0c-2.4,2.4-2.4,6.3,0,8.7
	C395.3,1367.8,399.2,1367.8,401.6,1365.4z"/>
<path class="st6" d="M514.1,1441h-51.7"/>
<path class="st6" d="M514.1,1441h24.6"/>
<path class="st7" d="M463.8,1442.3c0.7-0.7,0.7-1.9,0-2.6c-0.7-0.7-1.9-0.7-2.6,0c-0.7,0.7-0.7,1.9,0,2.6
	C461.9,1443,463.1,1443,463.8,1442.3z"/>
<path class="st7" d="M540,1442.3c0.7-0.7,0.7-1.9,0-2.6c-0.7-0.7-1.9-0.7-2.6,0c-0.7,0.7-0.7,1.9,0,2.6
	C538.2,1443,539.3,1443,540,1442.3z"/>
<path class="st5" d="M518.5,1445.3c2.4-2.4,2.4-6.3,0-8.7c-2.4-2.4-6.3-2.4-8.7,0c-2.4,2.4-2.4,6.3,0,8.7
	C512.2,1447.7,516.1,1447.7,518.5,1445.3z"/>
<path class="st6" d="M564.6,1423.7l-11.1,11.1"/>
<path class="st6" d="M564.6,1423.7l8.6-8.6"/>
<path class="st7" d="M554.8,1436.1c0.7-0.7,0.7-1.9,0-2.6c-0.7-0.7-1.9-0.7-2.6,0c-0.7,0.7-0.7,1.9,0,2.6
	C552.9,1436.8,554.1,1436.8,554.8,1436.1z"/>
<path class="st7" d="M574.5,1416.4c0.7-0.7,0.7-1.9,0-2.6c-0.7-0.7-1.9-0.7-2.6,0c-0.7,0.7-0.7,1.9,0,2.6
	C572.6,1417.2,573.8,1417.2,574.5,1416.4z"/>
<path class="st5" d="M568.9,1428.1c2.4-2.4,2.4-6.3,0-8.7c-2.4-2.4-6.3-2.4-8.7,0c-2.4,2.4-2.4,6.3,0,8.7
	C562.6,1430.5,566.5,1430.5,568.9,1428.1z"/>
<path class="st6" d="M581.8,1390.5l-3.7,14.8"/>
<path class="st6" d="M581.8,1390.5l2.5-11.1"/>
<path class="st7" d="M579.4,1406.6c0.7-0.7,0.7-1.9,0-2.6c-0.7-0.7-1.9-0.7-2.6,0c-0.7,0.7-0.7,1.9,0,2.6
	C577.5,1407.3,578.7,1407.3,579.4,1406.6z"/>
<path class="st7" d="M585.6,1380.8c0.7-0.7,0.7-1.9,0-2.6c-0.7-0.7-1.9-0.7-2.6,0c-0.7,0.7-0.7,1.9,0,2.6
	C583.7,1381.5,584.8,1381.5,585.6,1380.8z"/>
<path class="st5" d="M586.1,1394.9c2.4-2.4,2.4-6.3,0-8.7c-2.4-2.4-6.3-2.4-8.7,0c-2.4,2.4-2.4,6.3,0,8.7
	C579.8,1397.3,583.7,1397.3,586.1,1394.9z"/>
<path class="st6" d="M584.2,1356.1l1.2,11.1"/>
<path class="st6" d="M584.2,1356.1L584.2,1356.1"/>
<path class="st7" d="M586.8,1368.5c0.7-0.7,0.7-1.9,0-2.6c-0.7-0.7-1.9-0.7-2.6,0c-0.7,0.7-0.7,1.9,0,2.6
	C584.9,1369.2,586.1,1369.2,586.8,1368.5z"/>
<path class="st5" d="M588.6,1360.4c2.4-2.4,2.4-6.3,0-8.7c-2.4-2.4-6.3-2.4-8.7,0c-2.4,2.4-2.4,6.3,0,8.7
	C582.3,1362.8,586.2,1362.8,588.6,1360.4z"/>
<path class="st6" d="M579.3,1356.1L579.3,1356.1"/>
<path class="st6" d="M579.3,1356.1l-16,14.8"/>
<path class="st7" d="M564.6,1372.2c0.7-0.7,0.7-1.9,0-2.6c-0.7-0.7-1.9-0.7-2.6,0c-0.7,0.7-0.7,1.9,0,2.6
	C562.8,1372.9,563.9,1372.9,564.6,1372.2z"/>
<path class="st5" d="M583.7,1360.4c2.4-2.4,2.4-6.3,0-8.7c-2.4-2.4-6.3-2.4-8.7,0c-2.4,2.4-2.4,6.3,0,8.7
	C577.4,1362.8,581.3,1362.8,583.7,1360.4z"/>
<path class="st6" d="M520.3,1380.7H540"/>
<path class="st6" d="M520.3,1380.7H492"/>
<path class="st7" d="M541.3,1382c0.7-0.7,0.7-1.9,0-2.6c-0.7-0.7-1.9-0.7-2.6,0c-0.7,0.7-0.7,1.9,0,2.6
	C539.4,1382.7,540.6,1382.7,541.3,1382z"/>
<path class="st7" d="M493.3,1382c0.7-0.7,0.7-1.9,0-2.6c-0.7-0.7-1.9-0.7-2.6,0c-0.7,0.7-0.7,1.9,0,2.6
	C491.4,1382.7,492.6,1382.7,493.3,1382z"/>
<path class="st5" d="M524.6,1385c2.4-2.4,2.4-6.3,0-8.7c-2.4-2.4-6.3-2.4-8.7,0c-2.4,2.4-2.4,6.3,0,8.7
	C518.3,1387.4,522.2,1387.4,524.6,1385z"/>
<path class="st6" d="M450.2,1330.3l19.7,33.2"/>
<path class="st6" d="M450.2,1330.3l-36.9-62.7"/>
<path class="st7" d="M471.2,1364.8c0.7-0.7,0.7-1.9,0-2.6c-0.7-0.7-1.9-0.7-2.6,0c-0.7,0.7-0.7,1.9,0,2.6
	C469.3,1365.5,470.5,1365.5,471.2,1364.8z"/>
<path class="st7" d="M414.6,1268.8c0.7-0.7,0.7-1.9,0-2.6c-0.7-0.7-1.9-0.7-2.6,0c-0.7,0.7-0.7,1.9,0,2.6
	C412.7,1269.6,413.9,1269.6,414.6,1268.8z"/>
<path class="st5" d="M454.5,1334.6c2.4-2.4,2.4-6.3,0-8.7c-2.4-2.4-6.3-2.4-8.7,0c-2.4,2.4-2.4,6.3,0,8.7
	C448.2,1337,452.1,1337,454.5,1334.6z"/>
<path class="st6" d="M157.4,567.7l134.1-20.9"/>
<path class="st6" d="M157.4,567.7l-3.7,6.1"/>
<path class="st7" d="M292.8,548.1c0.7-0.7,0.7-1.9,0-2.6c-0.7-0.7-1.9-0.7-2.6,0c-0.7,0.7-0.7,1.9,0,2.6
	C290.9,548.8,292.1,548.8,292.8,548.1z"/>
<path class="st7" d="M155.1,575.1c0.7-0.7,0.7-1.9,0-2.6c-0.7-0.7-1.9-0.7-2.6,0c-0.7,0.7-0.7,1.9,0,2.6
	C153.2,575.8,154.3,575.8,155.1,575.1z"/>
<path class="st5" d="M161.8,572c2.4-2.4,2.4-6.3,0-8.7c-2.4-2.4-6.3-2.4-8.7,0c-2.4,2.4-2.4,6.3,0,8.7
	C155.5,574.4,159.4,574.4,161.8,572z"/>
<path class="st6" d="M148.8,589.8l2.5-11.1"/>
<path class="st6" d="M148.8,589.8l-4.9,22.1"/>
<path class="st7" d="M152.6,580c0.7-0.7,0.7-1.9,0-2.6c-0.7-0.7-1.9-0.7-2.6,0c-0.7,0.7-0.7,1.9,0,2.6
	C150.7,580.8,151.9,580.8,152.6,580z"/>
<path class="st7" d="M145.2,613.2c0.7-0.7,0.7-1.9,0-2.6c-0.7-0.7-1.9-0.7-2.6,0c-0.7,0.7-0.7,1.9,0,2.6
	C143.3,614,144.5,614,145.2,613.2z"/>
<path class="st5" d="M153.2,594.2c2.4-2.4,2.4-6.3,0-8.7c-2.4-2.4-6.3-2.4-8.7,0c-2.4,2.4-2.4,6.3,0,8.7
	C146.9,596.6,150.8,596.6,153.2,594.2z"/>
<path class="st6" d="M169.7,626.7h-18.4"/>
<path class="st6" d="M169.7,626.7h23.4"/>
<path class="st7" d="M152.6,628c0.7-0.7,0.7-1.9,0-2.6c-0.7-0.7-1.9-0.7-2.6,0c-0.7,0.7-0.7,1.9,0,2.6
	C150.7,628.7,151.9,628.7,152.6,628z"/>
<path class="st7" d="M194.4,628c0.7-0.7,0.7-1.9,0-2.6c-0.7-0.7-1.9-0.7-2.6,0c-0.7,0.7-0.7,1.9,0,2.6
	C192.5,628.7,193.7,628.7,194.4,628z"/>
<path class="st5" d="M174.1,631.1c2.4-2.4,2.4-6.3,0-8.7s-6.3-2.4-8.7,0c-2.4,2.4-2.4,6.3,0,8.7S171.7,633.5,174.1,631.1z"/>
<path class="st6" d="M440.3,602.1H310"/>
<path class="st6" d="M440.3,602.1H535"/>
<path class="st7" d="M311.3,603.4c0.7-0.7,0.7-1.9,0-2.6c-0.7-0.7-1.9-0.7-2.6,0c-0.7,0.7-0.7,1.9,0,2.6
	C309.4,604.1,310.6,604.1,311.3,603.4z"/>
<path class="st7" d="M536.4,603.4c0.7-0.7,0.7-1.9,0-2.6c-0.7-0.7-1.9-0.7-2.6,0c-0.7,0.7-0.7,1.9,0,2.6
	C534.5,604.1,535.6,604.1,536.4,603.4z"/>
<path class="st5" d="M444.7,606.5c2.4-2.4,2.4-6.3,0-8.7c-2.4-2.4-6.3-2.4-8.7,0c-2.4,2.4-2.4,6.3,0,8.7
	C438.4,608.9,442.3,608.9,444.7,606.5z"/>
<path class="st6" d="M634.7,658.7l-48-38.1"/>
<path class="st6" d="M634.7,658.7l17.2,46.7"/>
<path class="st7" d="M588,621.9c0.7-0.7,0.7-1.9,0-2.6c-0.7-0.7-1.9-0.7-2.6,0c-0.7,0.7-0.7,1.9,0,2.6
	C586.1,622.6,587.3,622.6,588,621.9z"/>
<path class="st7" d="M653.2,706.7c0.7-0.7,0.7-1.9,0-2.6c-0.7-0.7-1.9-0.7-2.6,0c-0.7,0.7-0.7,1.9,0,2.6
	C651.3,707.4,652.5,707.4,653.2,706.7z"/>
<path class="st5" d="M639,663c2.4-2.4,2.4-6.3,0-8.7s-6.3-2.4-8.7,0s-2.4,6.3,0,8.7C632.7,665.4,636.6,665.4,639,663z"/>
<path class="st6" d="M635.9,822.3l16-67.7"/>
<path class="st6" d="M635.9,822.3L635.9,822.3"/>
<path class="st7" d="M653.2,755.9c0.7-0.7,0.7-1.9,0-2.6c-0.7-0.7-1.9-0.7-2.6,0c-0.7,0.7-0.7,1.9,0,2.6
	C651.3,756.6,652.5,756.6,653.2,755.9z"/>
<path class="st5" d="M640.3,826.6c2.4-2.4,2.4-6.3,0-8.7c-2.4-2.4-6.3-2.4-8.7,0c-2.4,2.4-2.4,6.3,0,8.7
	C634,829,637.9,829,640.3,826.6z"/>
<path class="st6" d="M631,843.2L631,843.2"/>
<path class="st6" d="M631,843.2L584.2,1040"/>
<path class="st7" d="M585.6,1041.3c0.7-0.7,0.7-1.9,0-2.6c-0.7-0.7-1.9-0.7-2.6,0c-0.7,0.7-0.7,1.9,0,2.6
	C583.7,1042,584.8,1042,585.6,1041.3z"/>
<path class="st5" d="M635.3,847.5c2.4-2.4,2.4-6.3,0-8.7s-6.3-2.4-8.7,0s-2.4,6.3,0,8.7S632.9,849.9,635.3,847.5z"/>
<path class="st6" d="M246,1121.2h159.9"/>
<path class="st6" d="M246,1121.2h-56.6"/>
<path class="st7" d="M407.2,1122.5c0.7-0.7,0.7-1.9,0-2.6c-0.7-0.7-1.9-0.7-2.6,0c-0.7,0.7-0.7,1.9,0,2.6
	C405.3,1123.2,406.5,1123.2,407.2,1122.5z"/>
<path class="st7" d="M190.7,1122.5c0.7-0.7,0.7-1.9,0-2.6c-0.7-0.7-1.9-0.7-2.6,0c-0.7,0.7-0.7,1.9,0,2.6
	C188.8,1123.2,190,1123.2,190.7,1122.5z"/>
<path class="st5" d="M250.4,1125.5c2.4-2.4,2.4-6.3,0-8.7c-2.4-2.4-6.3-2.4-8.7,0c-2.4,2.4-2.4,6.3,0,8.7
	C244.1,1127.9,248,1127.9,250.4,1125.5z"/>
<path class="st6" d="M145.1,1105.2l19.7,11.1"/>
<path class="st6" d="M145.1,1105.2L145.1,1105.2"/>
<path class="st7" d="M166.1,1117.5c0.7-0.7,0.7-1.9,0-2.6c-0.7-0.7-1.9-0.7-2.6,0c-0.7,0.7-0.7,1.9,0,2.6
	C164.2,1118.3,165.4,1118.3,166.1,1117.5z"/>
<path class="st5" d="M149.5,1109.5c2.4-2.4,2.4-6.3,0-8.7c-2.4-2.4-6.3-2.4-8.7,0c-2.4,2.4-2.4,6.3,0,8.7
	C143.2,1111.9,147.1,1111.9,149.5,1109.5z"/>
<path class="st6" d="M127.9,1149.5L127.9,1149.5"/>
<path class="st6" d="M127.9,1149.5L127.9,1149.5"/>
<path class="st5" d="M132.3,1153.8c2.4-2.4,2.4-6.3,0-8.7c-2.4-2.4-6.3-2.4-8.7,0c-2.4,2.4-2.4,6.3,0,8.7
	C126,1156.2,129.9,1156.2,132.3,1153.8z"/>
<path class="st6" d="M150.1,1145.8L150.1,1145.8"/>
<path class="st6" d="M150.1,1145.8l20.9,22.1"/>
<path class="st7" d="M172.3,1169.2c0.7-0.7,0.7-1.9,0-2.6c-0.7-0.7-1.9-0.7-2.6,0c-0.7,0.7-0.7,1.9,0,2.6
	C170.4,1169.9,171.6,1169.9,172.3,1169.2z"/>
<path class="st5" d="M154.4,1150.1c2.4-2.4,2.4-6.3,0-8.7c-2.4-2.4-6.3-2.4-8.7,0c-2.4,2.4-2.4,6.3,0,8.7
	C148.1,1152.5,152,1152.5,154.4,1150.1z"/>
<path class="st6" d="M242.3,1180.2h-45.5"/>
<path class="st6" d="M242.3,1180.2H460"/>
<path class="st7" d="M198.1,1181.5c0.7-0.7,0.7-1.9,0-2.6c-0.7-0.7-1.9-0.7-2.6,0c-0.7,0.7-0.7,1.9,0,2.6
	C196.2,1182.2,197.4,1182.2,198.1,1181.5z"/>
<path class="st7" d="M461.3,1181.5c0.7-0.7,0.7-1.9,0-2.6c-0.7-0.7-1.9-0.7-2.6,0c-0.7,0.7-0.7,1.9,0,2.6
	C459.4,1182.2,460.6,1182.2,461.3,1181.5z"/>
<path class="st5" d="M246.7,1184.6c2.4-2.4,2.4-6.3,0-8.7c-2.4-2.4-6.3-2.4-8.7,0c-2.4,2.4-2.4,6.3,0,8.7
	C240.4,1187,244.3,1187,246.7,1184.6z"/>
<path class="st6" d="M688.8,859.2l-49.2,199.3"/>
<path class="st6" d="M688.8,859.2L688.8,859.2"/>
<path class="st7" d="M640.9,1059.7c0.7-0.7,0.7-1.9,0-2.6c-0.7-0.7-1.9-0.7-2.6,0c-0.7,0.7-0.7,1.9,0,2.6
	C639,1060.5,640.2,1060.5,640.9,1059.7z"/>
<path class="st5" d="M693.2,863.5c2.4-2.4,2.4-6.3,0-8.7s-6.3-2.4-8.7,0s-2.4,6.3,0,8.7S690.8,865.9,693.2,863.5z"/>
<path class="st6" d="M697.4,824.7L697.4,824.7"/>
<path class="st6" d="M697.4,824.7L728.2,703"/>
<path class="st7" d="M729.5,704.3c0.7-0.7,0.7-1.9,0-2.6c-0.7-0.7-1.9-0.7-2.6,0c-0.7,0.7-0.7,1.9,0,2.6
	C727.6,705,728.8,705,729.5,704.3z"/>
<path class="st5" d="M701.8,829.1c2.4-2.4,2.4-6.3,0-8.7c-2.4-2.4-6.3-2.4-8.7,0c-2.4,2.4-2.4,6.3,0,8.7
	C695.5,831.5,699.4,831.5,701.8,829.1z"/>
<path class="st6" d="M453.9,543.1h255.8"/>
<path class="st6" d="M453.9,543.1h-72.6"/>
<path class="st7" d="M711,544.4c0.7-0.7,0.7-1.9,0-2.6c-0.7-0.7-1.9-0.7-2.6,0c-0.7,0.7-0.7,1.9,0,2.6
	C709.1,545.1,710.3,545.1,711,544.4z"/>
<path class="st7" d="M382.6,544.4c0.7-0.7,0.7-1.9,0-2.6c-0.7-0.7-1.9-0.7-2.6,0c-0.7,0.7-0.7,1.9,0,2.6
	C380.7,545.1,381.9,545.1,382.6,544.4z"/>
<path class="st5" d="M458.2,547.4c2.4-2.4,2.4-6.3,0-8.7c-2.4-2.4-6.3-2.4-8.7,0c-2.4,2.4-2.4,6.3,0,8.7
	C451.9,549.8,455.8,549.8,458.2,547.4z"/>
<path class="st6" d="M113.2,1428.7l-6.2,4.9"/>
<path class="st6" d="M113.2,1428.7l-6.2-28.3"/>
<path class="st7" d="M108.3,1434.9c0.7-0.7,0.7-1.9,0-2.6c-0.7-0.7-1.9-0.7-2.6,0c-0.7,0.7-0.7,1.9,0,2.6
	C106.4,1435.6,107.6,1435.6,108.3,1434.9z"/>
<path class="st7" d="M108.3,1401.7c0.7-0.7,0.7-1.9,0-2.6c-0.7-0.7-1.9-0.7-2.6,0c-0.7,0.7-0.7,1.9,0,2.6
	C106.4,1402.4,107.6,1402.4,108.3,1401.7z"/>
<path class="st5" d="M117.5,1433c2.4-2.4,2.4-6.3,0-8.7c-2.4-2.4-6.3-2.4-8.7,0c-2.4,2.4-2.4,6.3,0,8.7
	C111.2,1435.4,115.1,1435.4,117.5,1433z"/>
<path class="st6" d="M109.5,1313l-3.7,44.3"/>
<path class="st6" d="M109.5,1313l22.1-201.7"/>
<path class="st7" d="M107.1,1358.6c0.7-0.7,0.7-1.9,0-2.6c-0.7-0.7-1.9-0.7-2.6,0c-0.7,0.7-0.7,1.9,0,2.6
	C105.2,1359.3,106.4,1359.3,107.1,1358.6z"/>
<path class="st7" d="M132.9,1112.6c0.7-0.7,0.7-1.9,0-2.6c-0.7-0.7-1.9-0.7-2.6,0c-0.7,0.7-0.7,1.9,0,2.6
	C131,1113.3,132.2,1113.3,132.9,1112.6z"/>
<path class="st5" d="M113.8,1317.4c2.4-2.4,2.4-6.3,0-8.7c-2.4-2.4-6.3-2.4-8.7,0c-2.4,2.4-2.4,6.3,0,8.7
	C107.5,1319.8,111.4,1319.8,113.8,1317.4z"/>
<path class="st6" d="M278,726.3l-45.5,195.6"/>
<path class="st6" d="M278,726.3l13.5-57.8"/>
<path class="st7" d="M233.8,923.2c0.7-0.7,0.7-1.9,0-2.6c-0.7-0.7-1.9-0.7-2.6,0c-0.7,0.7-0.7,1.9,0,2.6
	C231.9,923.9,233.1,923.9,233.8,923.2z"/>
<path class="st7" d="M292.8,669.8c0.7-0.7,0.7-1.9,0-2.6c-0.7-0.7-1.9-0.7-2.6,0c-0.7,0.7-0.7,1.9,0,2.6
	C290.9,670.5,292.1,670.5,292.8,669.8z"/>
<path class="st5" d="M282.3,730.7c2.4-2.4,2.4-6.3,0-8.7s-6.3-2.4-8.7,0s-2.4,6.3,0,8.7S279.9,733.1,282.3,730.7z"/>
<path class="st6" d="M280.4,618.1l11.1,16"/>
<path class="st6" d="M280.4,618.1L280.4,618.1"/>
<path class="st7" d="M292.8,635.4c0.7-0.7,0.7-1.9,0-2.6c-0.7-0.7-1.9-0.7-2.6,0c-0.7,0.7-0.7,1.9,0,2.6
	C290.9,636.1,292.1,636.1,292.8,635.4z"/>
<path class="st5" d="M284.8,622.4c2.4-2.4,2.4-6.3,0-8.7c-2.4-2.4-6.3-2.4-8.7,0c-2.4,2.4-2.4,6.3,0,8.7
	C278.5,624.8,282.4,624.8,284.8,622.4z"/>
<path class="st6" d="M301.4,580L301.4,580"/>
<path class="st6" d="M301.4,580L301.4,580"/>
<path class="st5" d="M305.7,584.3c2.4-2.4,2.4-6.3,0-8.7c-2.4-2.4-6.3-2.4-8.7,0c-2.4,2.4-2.4,6.3,0,8.7
	C299.4,586.7,303.3,586.7,305.7,584.3z"/>
<path class="st6" d="M244.8,592.3L244.8,592.3"/>
<path class="st6" d="M244.8,592.3l-38.1,265.7"/>
<path class="st7" d="M207.9,859.2c0.7-0.7,0.7-1.9,0-2.6c-0.7-0.7-1.9-0.7-2.6,0c-0.7,0.7-0.7,1.9,0,2.6
	C206.1,860,207.2,860,207.9,859.2z"/>
<path class="st5" d="M249.1,596.6c2.4-2.4,2.4-6.3,0-8.7s-6.3-2.4-8.7,0c-2.4,2.4-2.4,6.3,0,8.7S246.7,599,249.1,596.6z"/>
<path class="st6" d="M48,1327.8l16-222.6"/>
<path class="st6" d="M48,1327.8l-3.7,71.3"/>
<path class="st7" d="M65.3,1106.5c0.7-0.7,0.7-1.9,0-2.6c-0.7-0.7-1.9-0.7-2.6,0c-0.7,0.7-0.7,1.9,0,2.6
	C63.4,1107.2,64.6,1107.2,65.3,1106.5z"/>
<path class="st7" d="M45.6,1400.4c0.7-0.7,0.7-1.9,0-2.6c-0.7-0.7-1.9-0.7-2.6,0c-0.7,0.7-0.7,1.9,0,2.6
	C43.7,1401.2,44.9,1401.2,45.6,1400.4z"/>
<path class="st5" d="M52.3,1332.2c2.4-2.4,2.4-6.3,0-8.7c-2.4-2.4-6.3-2.4-8.7,0c-2.4,2.4-2.4,6.3,0,8.7
	C46,1334.6,49.9,1334.6,52.3,1332.2z"/>
<path class="st6" d="M89.8,1436H49.2"/>
<path class="st6" d="M89.8,1436h8.6"/>
<path class="st7" d="M50.5,1437.3c0.7-0.7,0.7-1.9,0-2.6c-0.7-0.7-1.9-0.7-2.6,0c-0.7,0.7-0.7,1.9,0,2.6
	C48.6,1438.1,49.8,1438.1,50.5,1437.3z"/>
<path class="st7" d="M99.7,1437.3c0.7-0.7,0.7-1.9,0-2.6c-0.7-0.7-1.9-0.7-2.6,0c-0.7,0.7-0.7,1.9,0,2.6
	C97.8,1438.1,99,1438.1,99.7,1437.3z"/>
<path class="st5" d="M94.1,1440.4c2.4-2.4,2.4-6.3,0-8.7c-2.4-2.4-6.3-2.4-8.7,0c-2.4,2.4-2.4,6.3,0,8.7
	C87.8,1442.8,91.7,1442.8,94.1,1440.4z"/>
<path class="st3" d="M1874.5,502.5l27.1,44.3"/>
<path class="st3" d="M1874.5,502.5L1874.5,502.5"/>
<path class="st4" d="M1902.9,548c0.7-0.7,0.7-1.9,0-2.6c-0.7-0.7-1.9-0.7-2.6,0c-0.7,0.7-0.7,1.9,0,2.6
	C1901,548.8,1902.2,548.8,1902.9,548z"/>
<path class="st5" d="M1878.9,506.8c2.4-2.4,2.4-6.3,0-8.7c-2.4-2.4-6.3-2.4-8.7,0c-2.4,2.4-2.4,6.3,0,8.7
	C1872.6,509.2,1876.5,509.2,1878.9,506.8z"/>
<path class="st6" d="M1663,616.9L1663,616.9"/>
<path class="st6" d="M1663,616.9l32,61.5"/>
<path class="st7" d="M1696.2,679.7c0.7-0.7,0.7-1.9,0-2.6c-0.7-0.7-1.9-0.7-2.6,0c-0.7,0.7-0.7,1.9,0,2.6
	C1694.4,680.4,1695.5,680.4,1696.2,679.7z"/>
<path class="st5" d="M1667.3,621.2c2.4-2.4,2.4-6.3,0-8.7c-2.4-2.4-6.3-2.4-8.7,0s-2.4,6.3,0,8.7
	C1661,623.6,1664.9,623.6,1667.3,621.2z"/>
<path class="st6" d="M1757.7,802.6l-32-61.5"/>
<path class="st6" d="M1757.7,802.6l52.9,98.4"/>
<path class="st7" d="M1727,742.4c0.7-0.7,0.7-1.9,0-2.6c-0.7-0.7-1.9-0.7-2.6,0c-0.7,0.7-0.7,1.9,0,2.6
	C1725.1,743.1,1726.3,743.1,1727,742.4z"/>
<path class="st7" d="M1811.9,902.3c0.7-0.7,0.7-1.9,0-2.6c-0.7-0.7-1.9-0.7-2.6,0c-0.7,0.7-0.7,1.9,0,2.6
	C1810,903,1811.1,903,1811.9,902.3z"/>
<path class="st5" d="M1762,806.9c2.4-2.4,2.4-6.3,0-8.7s-6.3-2.4-8.7,0c-2.4,2.4-2.4,6.3,0,8.7
	C1755.7,809.3,1759.6,809.3,1762,806.9z"/>
<path class="st6" d="M1955.7,920.7h-111.9"/>
<path class="st6" d="M1955.7,920.7h25.8"/>
<path class="st7" d="M1845.1,922c0.7-0.7,0.7-1.9,0-2.6c-0.7-0.7-1.9-0.7-2.6,0c-0.7,0.7-0.7,1.9,0,2.6
	C1843.2,922.7,1844.4,922.7,1845.1,922z"/>
<path class="st7" d="M1982.8,922c0.7-0.7,0.7-1.9,0-2.6c-0.7-0.7-1.9-0.7-2.6,0c-0.7,0.7-0.7,1.9,0,2.6
	C1980.9,922.7,1982.1,922.7,1982.8,922z"/>
<path class="st5" d="M1960,925c2.4-2.4,2.4-6.3,0-8.7c-2.4-2.4-6.3-2.4-8.7,0c-2.4,2.4-2.4,6.3,0,8.7
	C1953.7,927.4,1957.6,927.4,1960,925z"/>
<path class="st6" d="M2033.2,920.7h-26.3"/>
<path class="st6" d="M2033.2,920.7h8.6"/>
<path class="st7" d="M2008.2,922c0.7-0.7,0.7-1.9,0-2.6c-0.7-0.7-1.9-0.7-2.6,0c-0.7,0.7-0.7,1.9,0,2.6
	C2006.3,922.7,2007.5,922.7,2008.2,922z"/>
<path class="st7" d="M2043.1,922c0.7-0.7,0.7-1.9,0-2.6c-0.7-0.7-1.9-0.7-2.6,0c-0.7,0.7-0.7,1.9,0,2.6
	C2041.2,922.7,2042.4,922.7,2043.1,922z"/>
<path class="st5" d="M2037.5,925c2.4-2.4,2.4-6.3,0-8.7c-2.4-2.4-6.3-2.4-8.7,0s-2.4,6.3,0,8.7S2035.1,927.4,2037.5,925z"/>
<path class="st6" d="M2046.7,907.1v8.6"/>
<path class="st6" d="M2046.7,907.1V826"/>
<path class="st7" d="M2048,917c0.7-0.7,0.7-1.9,0-2.6c-0.7-0.7-1.9-0.7-2.6,0c-0.7,0.7-0.7,1.9,0,2.6
	C2046.1,917.8,2047.3,917.8,2048,917z"/>
<path class="st7" d="M2048,827.3c0.7-0.7,0.7-1.9,0-2.6c-0.7-0.7-1.9-0.7-2.6,0c-0.7,0.7-0.7,1.9,0,2.6
	C2046.1,828,2047.3,828,2048,827.3z"/>
<path class="st5" d="M2051.1,911.5c2.4-2.4,2.4-6.3,0-8.7s-6.3-2.4-8.7,0c-2.4,2.4-2.4,6.3,0,8.7
	C2044.8,913.9,2048.7,913.9,2051.1,911.5z"/>
<path class="st6" d="M2046.7,662.4v81.2"/>
<path class="st6" d="M2046.7,662.4L2046.7,662.4"/>
<path class="st7" d="M2048,744.8c0.7-0.7,0.7-1.9,0-2.6c-0.7-0.7-1.9-0.7-2.6,0c-0.7,0.7-0.7,1.9,0,2.6
	C2046.1,745.6,2047.3,745.6,2048,744.8z"/>
<path class="st5" d="M2051.1,666.7c2.4-2.4,2.4-6.3,0-8.7s-6.3-2.4-8.7,0c-2.4,2.4-2.4,6.3,0,8.7
	C2044.8,669.1,2048.7,669.1,2051.1,666.7z"/>
<path class="st6" d="M2007.4,662.4L2007.4,662.4"/>
<path class="st6" d="M2007.4,662.4h-4.9"/>
<path class="st7" d="M2003.7,663.7c0.7-0.7,0.7-1.9,0-2.6c-0.7-0.7-1.9-0.7-2.6,0c-0.7,0.7-0.7,1.9,0,2.6
	C2001.9,664.4,2003,664.4,2003.7,663.7z"/>
<path class="st5" d="M2011.7,666.7c2.4-2.4,2.4-6.3,0-8.7c-2.4-2.4-6.3-2.4-8.7,0c-2.4,2.4-2.4,6.3,0,8.7
	C2005.4,669.1,2009.3,669.1,2011.7,666.7z"/>
<path class="st6" d="M1992.6,662.4h4.9"/>
<path class="st6" d="M1992.6,662.4h-17.2"/>
<path class="st7" d="M1998.8,663.7c0.7-0.7,0.7-1.9,0-2.6c-0.7-0.7-1.9-0.7-2.6,0c-0.7,0.7-0.7,1.9,0,2.6
	C1996.9,664.4,1998.1,664.4,1998.8,663.7z"/>
<path class="st7" d="M1976.7,663.7c0.7-0.7,0.7-1.9,0-2.6c-0.7-0.7-1.9-0.7-2.6,0c-0.7,0.7-0.7,1.9,0,2.6
	C1974.8,664.4,1976,664.4,1976.7,663.7z"/>
<path class="st5" d="M1996.9,666.7c2.4-2.4,2.4-6.3,0-8.7c-2.4-2.4-6.3-2.4-8.7,0c-2.4,2.4-2.4,6.3,0,8.7
	C1990.6,669.1,1994.5,669.1,1996.9,666.7z"/>
<path class="st6" d="M1955.7,636.5l11.1,17.2"/>
<path class="st6" d="M1955.7,636.5l-27.1-44.3"/>
<path class="st7" d="M1968.1,655.1c0.7-0.7,0.7-1.9,0-2.6c-0.7-0.7-1.9-0.7-2.6,0c-0.7,0.7-0.7,1.9,0,2.6
	C1966.2,655.8,1967.4,655.8,1968.1,655.1z"/>
<path class="st7" d="M1929.9,593.6c0.7-0.7,0.7-1.9,0-2.6c-0.7-0.7-1.9-0.7-2.6,0c-0.7,0.7-0.7,1.9,0,2.6
	C1928.1,594.3,1929.2,594.3,1929.9,593.6z"/>
<path class="st5" d="M1960,640.9c2.4-2.4,2.4-6.3,0-8.7c-2.4-2.4-6.3-2.4-8.7,0c-2.4,2.4-2.4,6.3,0,8.7
	C1953.7,643.3,1957.6,643.3,1960,640.9z"/>
<path class="st6" d="M1343.2,47.4h137.8"/>
<path class="st6" d="M1343.2,47.4v77.5"/>
<path class="st7" d="M1482.2,48.7c0.7-0.7,0.7-1.9,0-2.6c-0.7-0.7-1.9-0.7-2.6,0c-0.7,0.7-0.7,1.9,0,2.6
	C1480.3,49.4,1481.5,49.4,1482.2,48.7z"/>
<path class="st7" d="M1344.5,126.2c0.7-0.7,0.7-1.9,0-2.6c-0.7-0.7-1.9-0.7-2.6,0c-0.7,0.7-0.7,1.9,0,2.6
	C1342.6,126.9,1343.7,126.9,1344.5,126.2z"/>
<path class="st5" d="M1347.5,51.7c2.4-2.4,2.4-6.3,0-8.7c-2.4-2.4-6.3-2.4-8.7,0c-2.4,2.4-2.4,6.3,0,8.7
	C1341.2,54.1,1345.1,54.1,1347.5,51.7z"/>
<path class="st6" d="M1343.2,279.8v-77.5"/>
<path class="st6" d="M1343.2,279.8v8.6"/>
<path class="st7" d="M1344.5,203.6c0.7-0.7,0.7-1.9,0-2.6c-0.7-0.7-1.9-0.7-2.6,0c-0.7,0.7-0.7,1.9,0,2.6
	C1342.6,204.4,1343.7,204.4,1344.5,203.6z"/>
<path class="st7" d="M1344.5,289.7c0.7-0.7,0.7-1.9,0-2.6c-0.7-0.7-1.9-0.7-2.6,0c-0.7,0.7-0.7,1.9,0,2.6
	C1342.6,290.5,1343.7,290.5,1344.5,289.7z"/>
<path class="st5" d="M1347.5,284.2c2.4-2.4,2.4-6.3,0-8.7c-2.4-2.4-6.3-2.4-8.7,0c-2.4,2.4-2.4,6.3,0,8.7
	C1341.2,286.6,1345.1,286.6,1347.5,284.2L1347.5,284.2z"/>
<path class="st6" d="M1356.7,293.4h-8.6"/>
<path class="st6" d="M1356.7,293.4h113.2"/>
<path class="st7" d="M1349.4,294.7c0.7-0.7,0.7-1.9,0-2.6c-0.7-0.7-1.9-0.7-2.6,0c-0.7,0.7-0.7,1.9,0,2.6
	C1347.5,295.4,1348.7,295.4,1349.4,294.7z"/>
<path class="st7" d="M1471.1,294.7c0.7-0.7,0.7-1.9,0-2.6c-0.7-0.7-1.9-0.7-2.6,0c-0.7,0.7-0.7,1.9,0,2.6
	C1469.3,295.4,1470.4,295.4,1471.1,294.7z"/>
<path class="st5" d="M1361,297.7c2.4-2.4,2.4-6.3,0-8.7c-2.4-2.4-6.3-2.4-8.7,0c-2.4,2.4-2.4,6.3,0,8.7
	C1354.7,300.1,1358.6,300.1,1361,297.7z"/>
<path class="st6" d="M1697.4,293.4h-113.2"/>
<path class="st6" d="M1697.4,293.4h19.7"/>
<path class="st7" d="M1585.5,294.7c0.7-0.7,0.7-1.9,0-2.6c-0.7-0.7-1.9-0.7-2.6,0c-0.7,0.7-0.7,1.9,0,2.6
	C1583.7,295.4,1584.8,295.4,1585.5,294.7z"/>
<path class="st7" d="M1718.4,294.7c0.7-0.7,0.7-1.9,0-2.6c-0.7-0.7-1.9-0.7-2.6,0c-0.7,0.7-0.7,1.9,0,2.6
	C1716.5,295.4,1717.7,295.4,1718.4,294.7z"/>
<path class="st5" d="M1701.7,297.7c2.4-2.4,2.4-6.3,0-8.7c-2.4-2.4-6.3-2.4-8.7,0c-2.4,2.4-2.4,6.3,0,8.7
	C1695.4,300.1,1699.3,300.1,1701.7,297.7z"/>
<path class="st6" d="M1746.6,305.7l-11.1-11.1"/>
<path class="st6" d="M1746.6,305.7l9.8,8.6"/>
<path class="st7" d="M1736.8,295.9c0.7-0.7,0.7-1.9,0-2.6c-0.7-0.7-1.9-0.7-2.6,0c-0.7,0.7-0.7,1.9,0,2.6
	C1734.9,296.6,1736.1,296.6,1736.8,295.9z"/>
<path class="st7" d="M1757.7,315.6c0.7-0.7,0.7-1.9,0-2.6c-0.7-0.7-1.9-0.7-2.6,0c-0.7,0.7-0.7,1.9,0,2.6
	C1755.9,316.3,1757,316.3,1757.7,315.6z"/>
<path class="st5" d="M1750.9,310c2.4-2.4,2.4-6.3,0-8.7c-2.4-2.4-6.3-2.4-8.7,0c-2.4,2.4-2.4,6.3,0,8.7S1748.5,312.4,1750.9,310z"/>
<path class="st6" d="M1761.4,356.1V329"/>
<path class="st6" d="M1761.4,356.1L1761.4,356.1"/>
<path class="st7" d="M1762.7,330.3c0.7-0.7,0.7-1.9,0-2.6c-0.7-0.7-1.9-0.7-2.6,0c-0.7,0.7-0.7,1.9,0,2.6
	C1760.8,331.1,1761.9,331.1,1762.7,330.3z"/>
<path class="st5" d="M1765.7,360.4c2.4-2.4,2.4-6.3,0-8.7c-2.4-2.4-6.3-2.4-8.7,0c-2.4,2.4-2.4,6.3,0,8.7
	C1759.4,362.8,1763.3,362.8,1765.7,360.4z"/>
<path class="st6" d="M1761.4,372.1L1761.4,372.1"/>
<path class="st6" d="M1761.4,372.1v56.6"/>
<path class="st7" d="M1762.7,430c0.7-0.7,0.7-1.9,0-2.6c-0.7-0.7-1.9-0.7-2.6,0c-0.7,0.7-0.7,1.9,0,2.6
	C1760.8,430.7,1761.9,430.7,1762.7,430z"/>
<path class="st5" d="M1765.7,376.4c2.4-2.4,2.4-6.3,0-8.7c-2.4-2.4-6.3-2.4-8.7,0c-2.4,2.4-2.4,6.3,0,8.7
	C1759.4,378.8,1763.3,378.8,1765.7,376.4z"/>
<path class="st6" d="M1692.5,441h56.6"/>
<path class="st6" d="M1692.5,441h-46.7"/>
<path class="st7" d="M1750.4,442.3c0.7-0.7,0.7-1.9,0-2.6c-0.7-0.7-1.9-0.7-2.6,0c-0.7,0.7-0.7,1.9,0,2.6
	C1748.5,443,1749.6,443,1750.4,442.3z"/>
<path class="st7" d="M1647,442.3c0.7-0.7,0.7-1.9,0-2.6c-0.7-0.7-1.9-0.7-2.6,0c-0.7,0.7-0.7,1.9,0,2.6
	C1645.2,443,1646.3,443,1647,442.3z"/>
<path class="st5" d="M1696.8,445.3c2.4-2.4,2.4-6.3,0-8.7c-2.4-2.4-6.3-2.4-8.7,0c-2.4,2.4-2.4,6.3,0,8.7
	C1690.5,447.7,1694.4,447.7,1696.8,445.3z"/>
<path class="st6" d="M1552.3,441h46.7"/>
<path class="st6" d="M1552.3,441L1552.3,441"/>
<path class="st7" d="M1600.3,442.3c0.7-0.7,0.7-1.9,0-2.6c-0.7-0.7-1.9-0.7-2.6,0c-0.7,0.7-0.7,1.9,0,2.6
	C1598.4,443,1599.6,443,1600.3,442.3z"/>
<path class="st5" d="M1556.6,445.3c2.4-2.4,2.4-6.3,0-8.7c-2.4-2.4-6.3-2.4-8.7,0c-2.4,2.4-2.4,6.3,0,8.7
	C1550.3,447.7,1554.2,447.7,1556.6,445.3z"/>
<path class="st6" d="M1552.3,667.3L1552.3,667.3"/>
<path class="st6" d="M1552.3,667.3L1552.3,667.3"/>
<path class="st5" d="M1556.6,671.6c2.4-2.4,2.4-6.3,0-8.7c-2.4-2.4-6.3-2.4-8.7,0c-2.4,2.4-2.4,6.3,0,8.7
	C1550.3,674,1554.2,674,1556.6,671.6z"/>
<path class="st6" d="M1565.8,656.2L1565.8,656.2"/>
<path class="st6" d="M1565.8,656.2h68.9"/>
<path class="st7" d="M1636,657.5c0.7-0.7,0.7-1.9,0-2.6c-0.7-0.7-1.9-0.7-2.6,0c-0.7,0.7-0.7,1.9,0,2.6
	C1634.1,658.2,1635.3,658.2,1636,657.5z"/>
<path class="st5" d="M1570.1,660.6c2.4-2.4,2.4-6.3,0-8.7c-2.4-2.4-6.3-2.4-8.7,0c-2.4,2.4-2.4,6.3,0,8.7
	C1563.8,663,1567.7,663,1570.1,660.6z"/>
<path class="st6" d="M1773.7,656.2h-68.9"/>
<path class="st6" d="M1773.7,656.2h164.8"/>
<path class="st7" d="M1706.1,657.5c0.7-0.7,0.7-1.9,0-2.6c-0.7-0.7-1.9-0.7-2.6,0c-0.7,0.7-0.7,1.9,0,2.6
	C1704.2,658.2,1705.4,658.2,1706.1,657.5z"/>
<path class="st7" d="M1939.8,657.5c0.7-0.7,0.7-1.9,0-2.6c-0.7-0.7-1.9-0.7-2.6,0c-0.7,0.7-0.7,1.9,0,2.6
	C1937.9,658.2,1939.1,658.2,1939.8,657.5z"/>
<path class="st5" d="M1778,660.6c2.4-2.4,2.4-6.3,0-8.7s-6.3-2.4-8.7,0c-2.4,2.4-2.4,6.3,0,8.7C1771.7,663,1775.6,663,1778,660.6z"
	/>
<path class="st6" d="M2052.9,372.1v179.4"/>
<path class="st6" d="M2052.9,372.1L2052.9,372.1"/>
<path class="st7" d="M2054.2,552.8c0.7-0.7,0.7-1.9,0-2.6c-0.7-0.7-1.9-0.7-2.6,0c-0.7,0.7-0.7,1.9,0,2.6
	C2052.3,553.5,2053.5,553.5,2054.2,552.8z"/>
<path class="st5" d="M2057.2,376.4c2.4-2.4,2.4-6.3,0-8.7c-2.4-2.4-6.3-2.4-8.7,0c-2.4,2.4-2.4,6.3,0,8.7
	C2050.9,378.8,2054.8,378.8,2057.2,376.4z"/>
<path class="st6" d="M2052.9,322.9L2052.9,322.9"/>
<path class="st6" d="M2052.9,322.9V133.5"/>
<path class="st7" d="M2054.2,134.8c0.7-0.7,0.7-1.9,0-2.6c-0.7-0.7-1.9-0.7-2.6,0c-0.7,0.7-0.7,1.9,0,2.6
	C2052.3,135.5,2053.5,135.5,2054.2,134.8z"/>
<path class="st5" d="M2057.2,327.2c2.4-2.4,2.4-6.3,0-8.7c-2.4-2.4-6.3-2.4-8.7,0c-2.4,2.4-2.4,6.3,0,8.7
	C2050.9,329.6,2054.8,329.6,2057.2,327.2z"/>
<path class="st6" d="M1756.4,47.4h203"/>
<path class="st6" d="M1756.4,47.4h-137.8"/>
<path class="st7" d="M1960.7,48.7c0.7-0.7,0.7-1.9,0-2.6c-0.7-0.7-1.9-0.7-2.6,0c-0.7,0.7-0.7,1.9,0,2.6
	C1958.8,49.4,1960,49.4,1960.7,48.7z"/>
<path class="st7" d="M1620,48.7c0.7-0.7,0.7-1.9,0-2.6c-0.7-0.7-1.9-0.7-2.6,0c-0.7,0.7-0.7,1.9,0,2.6
	C1618.1,49.4,1619.3,49.4,1620,48.7z"/>
<path class="st5" d="M1760.8,51.7c2.4-2.4,2.4-6.3,0-8.7c-2.4-2.4-6.3-2.4-8.7,0c-2.4,2.4-2.4,6.3,0,8.7
	C1754.5,54.1,1758.4,54.1,1760.8,51.7z"/>
<path class="st6" d="M1658,908.4h-88.6"/>
<path class="st6" d="M1658,908.4v-38.1"/>
<path class="st7" d="M1570.8,909.7c0.7-0.7,0.7-1.9,0-2.6c-0.7-0.7-1.9-0.7-2.6,0c-0.7,0.7-0.7,1.9,0,2.6
	C1568.9,910.4,1570.1,910.4,1570.8,909.7z"/>
<path class="st7" d="M1659.3,871.5c0.7-0.7,0.7-1.9,0-2.6c-0.7-0.7-1.9-0.7-2.6,0c-0.7,0.7-0.7,1.9,0,2.6
	C1657.5,872.3,1658.6,872.3,1659.3,871.5z"/>
<path class="st5" d="M1662.4,912.7c2.4-2.4,2.4-6.3,0-8.7s-6.3-2.4-8.7,0c-2.4,2.4-2.4,6.3,0,8.7
	C1656.1,915.1,1660,915.1,1662.4,912.7z"/>
<path class="st6" d="M1658,784.1v44.3"/>
<path class="st6" d="M1658,784.1V647.6"/>
<path class="st7" d="M1659.3,829.7c0.7-0.7,0.7-1.9,0-2.6c-0.7-0.7-1.9-0.7-2.6,0c-0.7,0.7-0.7,1.9,0,2.6
	C1657.5,830.4,1658.6,830.4,1659.3,829.7z"/>
<path class="st7" d="M1659.3,648.9c0.7-0.7,0.7-1.9,0-2.6c-0.7-0.7-1.9-0.7-2.6,0c-0.7,0.7-0.7,1.9,0,2.6
	C1657.5,649.6,1658.6,649.6,1659.3,648.9z"/>
<path class="st5" d="M1662.4,788.5c2.4-2.4,2.4-6.3,0-8.7s-6.3-2.4-8.7,0c-2.4,2.4-2.4,6.3,0,8.7
	C1656.1,790.9,1660,790.9,1662.4,788.5z"/>
<path class="st6" d="M1658,374.5v136.5"/>
<path class="st6" d="M1658,374.5v-83.6"/>
<path class="st7" d="M1659.3,512.4c0.7-0.7,0.7-1.9,0-2.6c-0.7-0.7-1.9-0.7-2.6,0c-0.7,0.7-0.7,1.9,0,2.6
	C1657.5,513.1,1658.6,513.1,1659.3,512.4z"/>
<path class="st7" d="M1659.3,292.2c0.7-0.7,0.7-1.9,0-2.6c-0.7-0.7-1.9-0.7-2.6,0c-0.7,0.7-0.7,1.9,0,2.6
	C1657.5,292.9,1658.6,292.9,1659.3,292.2z"/>
<path class="st5" d="M1662.4,378.9c2.4-2.4,2.4-6.3,0-8.7c-2.4-2.4-6.3-2.4-8.7,0c-2.4,2.4-2.4,6.3,0,8.7
	C1656.1,381.3,1660,381.3,1662.4,378.9z"/>
<path class="st6" d="M1658,122.4V206"/>
<path class="st6" d="M1658,122.4L1658,122.4"/>
<path class="st7" d="M1659.3,207.3c0.7-0.7,0.7-1.9,0-2.6c-0.7-0.7-1.9-0.7-2.6,0c-0.7,0.7-0.7,1.9,0,2.6
	C1657.5,208.1,1658.6,208.1,1659.3,207.3z"/>
<path class="st5" d="M1662.4,126.7c2.4-2.4,2.4-6.3,0-8.7s-6.3-2.4-8.7,0c-2.4,2.4-2.4,6.3,0,8.7
	C1656.1,129.1,1660,129.1,1662.4,126.7z"/>
<path class="st6" d="M1677.7,108.9L1677.7,108.9"/>
<path class="st6" d="M1677.7,108.9L1677.7,108.9"/>
<path class="st5" d="M1682.1,113.2c2.4-2.4,2.4-6.3,0-8.7c-2.4-2.4-6.3-2.4-8.7,0c-2.4,2.4-2.4,6.3,0,8.7S1679.7,115.6,1682.1,113.2
	z"/>
<path class="st6" d="M1380.1,108.9L1380.1,108.9"/>
<path class="st6" d="M1380.1,108.9v262"/>
<path class="st7" d="M1381.4,372.2c0.7-0.7,0.7-1.9,0-2.6c-0.7-0.7-1.9-0.7-2.6,0c-0.7,0.7-0.7,1.9,0,2.6
	C1379.5,372.9,1380.6,372.9,1381.4,372.2z"/>
<path class="st5" d="M1384.4,113.2c2.4-2.4,2.4-6.3,0-8.7c-2.4-2.4-6.3-2.4-8.7,0c-2.4,2.4-2.4,6.3,0,8.7
	C1378.1,115.6,1382,115.6,1384.4,113.2z"/>
<path class="st6" d="M1380.1,894.8v-262"/>
<path class="st6" d="M1380.1,894.8v7.4"/>
<path class="st7" d="M1381.4,634.1c0.7-0.7,0.7-1.9,0-2.6c-0.7-0.7-1.9-0.7-2.6,0c-0.7,0.7-0.7,1.9,0,2.6
	C1379.5,634.9,1380.6,634.9,1381.4,634.1z"/>
<path class="st7" d="M1381.4,903.5c0.7-0.7,0.7-1.9,0-2.6c-0.7-0.7-1.9-0.7-2.6,0c-0.7,0.7-0.7,1.9,0,2.6
	C1379.5,904.2,1380.6,904.2,1381.4,903.5z"/>
<path class="st5" d="M1384.4,899.2c2.4-2.4,2.4-6.3,0-8.7c-2.4-2.4-6.3-2.4-8.7,0c-2.4,2.4-2.4,6.3,0,8.7
	C1378.1,901.6,1382,901.6,1384.4,899.2z"/>
<path class="st6" d="M1393.6,908.4h-8.6"/>
<path class="st6" d="M1393.6,908.4h88.6"/>
<path class="st7" d="M1386.3,909.7c0.7-0.7,0.7-1.9,0-2.6c-0.7-0.7-1.9-0.7-2.6,0c-0.7,0.7-0.7,1.9,0,2.6
	C1384.4,910.4,1385.6,910.4,1386.3,909.7z"/>
<path class="st7" d="M1483.4,909.7c0.7-0.7,0.7-1.9,0-2.6c-0.7-0.7-1.9-0.7-2.6,0c-0.7,0.7-0.7,1.9,0,2.6
	C1481.6,910.4,1482.7,910.4,1483.4,909.7z"/>
<path class="st5" d="M1397.9,912.7c2.4-2.4,2.4-6.3,0-8.7c-2.4-2.4-6.3-2.4-8.7,0c-2.4,2.4-2.4,6.3,0,8.7
	C1391.6,915.1,1395.5,915.1,1397.9,912.7z"/>
</svg>
