<?xml version="1.0" encoding="UTF-8"?>
<svg height="3000" version="1.1" width="3000" xmlns="http://www.w3.org/2000/svg" xmlns:xlink="http://www.w3.org/1999/xlink">
 <path d="M0,0 l3000,0 l0,3000 l-3000,0 Z M0,0" fill="rgb(0,0,0)" transform="matrix(3,0,0,-3,0,3000)"/>
 <path d="M174,40 l31,0 c11,112,52,206,81,305 c38,129,46,191,-1,191 c-57,0,-87,-4,-149,-10 c-4,-5,-6,-11,-8,-18 c-5,-19,2,-30,16,-30 c17,0,44,9,131,19 l4,-5 c-24,-147,-84,-249,-105,-384 c-5,-29,-2,-46,7,-55 Z M272,360 l-29,-135 c102,171,209,263,291,263 c31,0,47,-4,57,-12 l6,0 c5,8,10,17,12,27 c2,11,0,18,-5,23 c-10,10,-28,14,-60,14 c-91,0,-173,-69,-250,-191 Z M9,48 c-3,-4,-5,-9,-7,-16 c-5,-17,2,-32,21,-32 l391,0 c1,2,2,6,2,8 c6,22,-81,40,-200,40 Z M9,48" fill="rgb(255,255,255)" fill-opacity="0.125" stroke="rgb(13,45,115)" stroke-linecap="round" stroke-width="2" transform="matrix(2.46,0.0,0.0,-2.46,-34.44,2857.32)"/>
 <path d="M110,123 l225,0 c0,102,0,200,0,284 c0,1,-47,143,-48,143 c0,0,-267,0,-267,0 c0,-63,0,-126,0,-189 c0,-7,4,-11,11,-11 c20,0,41,0,62,0 l17,0 c0,-24,0,-48,0,-71 c0,-21,0,-41,0,-62 Z M308,424 l9,-149 c34.66,21.41,82.98,30,126,30 c33.07,0,70.87,-6.28,107,-18 l20,0 c0,83,0,166,0,249 c0,5,-1,8,-3,10 c-7,7,-28,14,-58,14 c-70,0,-126,-37,-164,-136 Z M20,200 c0,-46,0,-143,0,-189 c0,-7,4,-11,11,-11 l479,0 c0,46,0,143,0,189 c0,7,-4,11,-11,11 Z M20,200" fill="rgb(255,255,255)" fill-opacity="0.125" stroke="rgb(13,45,115)" stroke-linecap="round" stroke-width="2" transform="matrix(2.46,0.0,0.0,-2.46,1476.0,1824.1200000000001)"/>
 <path d="M174,40 l0,0" fill="rgb(0,0,0)" stroke="rgb(123,151,211)" stroke-dasharray="0" stroke-linecap="round" stroke-width="2" transform="matrix(2.46,0.0,0.0,-2.46,-34.44,2857.32)"/>
 <path d="M174,40 l0,0" fill="rgb(0,0,0)" stroke="rgb(123,151,211)" stroke-dasharray="0" stroke-linecap="round" stroke-width="2" transform="matrix(2.46,0.0,0.0,-2.46,-34.44,2857.32)"/>
 <path d="M177.54,36.46 c1.95,1.95,1.95,5.12,0,7.07 c-1.95,1.95,-5.12,1.95,-7.07,0 c-1.95,-1.95,-1.95,-5.12,0,-7.07 c1.95,-1.95,5.12,-1.95,7.07,0 Z M177.54,36.46" fill="rgb(255,255,255)" stroke="rgb(0,0,0)" stroke-dasharray="0" stroke-linecap="round" stroke-width="2" transform="matrix(2.46,0.0,0.0,-2.46,-34.44,2857.32)"/>
 <path d="M205,40 l0,0" fill="rgb(255,255,255)" stroke="rgb(123,151,211)" stroke-dasharray="0" stroke-linecap="round" stroke-width="2" transform="matrix(2.46,0.0,0.0,-2.46,-34.44,2857.32)"/>
 <path d="M205,40 l11,112" fill="rgb(255,255,255)" stroke="rgb(123,151,211)" stroke-dasharray="0" stroke-linecap="round" stroke-width="2" transform="matrix(2.46,0.0,0.0,-2.46,-34.44,2857.32)"/>
 <path d="M217.06,150.94 c0.59,0.59,0.59,1.54,0,2.12 c-0.59,0.59,-1.54,0.59,-2.12,0 c-0.59,-0.59,-0.59,-1.54,0,-2.12 c0.59,-0.59,1.54,-0.59,2.12,0 Z M217.06,150.94" fill="rgb(255,255,255)" stroke="rgb(123,151,211)" stroke-dasharray="0" stroke-linecap="round" stroke-width="3" transform="matrix(2.46,0.0,0.0,-2.46,-34.44,2857.32)"/>
 <path d="M208.54,36.46 c1.95,1.95,1.95,5.12,0,7.07 c-1.95,1.95,-5.12,1.95,-7.07,0 c-1.95,-1.95,-1.95,-5.12,0,-7.07 c1.95,-1.95,5.12,-1.95,7.07,0 Z M208.54,36.46" fill="rgb(255,255,255)" stroke="rgb(0,0,0)" stroke-dasharray="0" stroke-linecap="round" stroke-width="2" transform="matrix(2.46,0.0,0.0,-2.46,-34.44,2857.32)"/>
 <path d="M286,345 l-29,-99" fill="rgb(255,255,255)" stroke="rgb(123,151,211)" stroke-dasharray="0" stroke-linecap="round" stroke-width="2" transform="matrix(2.46,0.0,0.0,-2.46,-34.44,2857.32)"/>
 <path d="M286,345 l38,129" fill="rgb(255,255,255)" stroke="rgb(123,151,211)" stroke-dasharray="0" stroke-linecap="round" stroke-width="2" transform="matrix(2.46,0.0,0.0,-2.46,-34.44,2857.32)"/>
 <path d="M258.06,244.94 c0.59,0.59,0.59,1.54,0,2.12 c-0.59,0.59,-1.54,0.59,-2.12,0 c-0.59,-0.59,-0.59,-1.54,0,-2.12 c0.59,-0.59,1.54,-0.59,2.12,0 Z M258.06,244.94" fill="rgb(255,255,255)" stroke="rgb(123,151,211)" stroke-dasharray="0" stroke-linecap="round" stroke-width="3" transform="matrix(2.46,0.0,0.0,-2.46,-34.44,2857.32)"/>
 <path d="M325.06,472.94 c0.59,0.59,0.59,1.54,0,2.12 c-0.59,0.59,-1.54,0.59,-2.12,0 c-0.59,-0.59,-0.59,-1.54,0,-2.12 c0.59,-0.59,1.54,-0.59,2.12,0 Z M325.06,472.94" fill="rgb(255,255,255)" stroke="rgb(123,151,211)" stroke-dasharray="0" stroke-linecap="round" stroke-width="3" transform="matrix(2.46,0.0,0.0,-2.46,-34.44,2857.32)"/>
 <path d="M289.54,341.46 c1.95,1.95,1.95,5.12,0,7.07 c-1.95,1.95,-5.12,1.95,-7.07,0.0 c-1.95,-1.95,-1.95,-5.12,-0.0,-7.07 c1.95,-1.95,5.12,-1.95,7.07,-0.0 Z M289.54,341.46" fill="rgb(255,255,255)" stroke="rgb(0,0,0)" stroke-dasharray="0" stroke-linecap="round" stroke-width="2" transform="matrix(2.46,0.0,0.0,-2.46,-34.44,2857.32)"/>
 <path d="M285,536 l47,0" fill="rgb(255,255,255)" stroke="rgb(123,151,211)" stroke-dasharray="0" stroke-linecap="round" stroke-width="2" transform="matrix(2.46,0.0,0.0,-2.46,-34.44,2857.32)"/>
 <path d="M285,536 l-57,0" fill="rgb(255,255,255)" stroke="rgb(123,151,211)" stroke-dasharray="0" stroke-linecap="round" stroke-width="2" transform="matrix(2.46,0.0,0.0,-2.46,-34.44,2857.32)"/>
 <path d="M333.06,534.94 c0.59,0.59,0.59,1.54,0,2.12 c-0.59,0.59,-1.54,0.59,-2.12,0 c-0.59,-0.59,-0.59,-1.54,0,-2.12 c0.59,-0.59,1.54,-0.59,2.12,0 Z M333.06,534.94" fill="rgb(255,255,255)" stroke="rgb(123,151,211)" stroke-dasharray="0" stroke-linecap="round" stroke-width="3" transform="matrix(2.46,0.0,0.0,-2.46,-34.44,2857.32)"/>
 <path d="M229.06,534.94 c0.59,0.59,0.59,1.54,0,2.12 c-0.59,0.59,-1.54,0.59,-2.12,0 c-0.59,-0.59,-0.59,-1.54,0,-2.12 c0.59,-0.59,1.54,-0.59,2.12,0 Z M229.06,534.94" fill="rgb(255,255,255)" stroke="rgb(123,151,211)" stroke-dasharray="0" stroke-linecap="round" stroke-width="3" transform="matrix(2.46,0.0,0.0,-2.46,-34.44,2857.32)"/>
 <path d="M288.54,532.46 c1.95,1.95,1.95,5.12,0,7.07 c-1.95,1.95,-5.12,1.95,-7.07,0 c-1.95,-1.95,-1.95,-5.12,-0.0,-7.07 c1.95,-1.95,5.12,-1.95,7.07,0 Z M288.54,532.46" fill="rgb(255,255,255)" stroke="rgb(0,0,0)" stroke-dasharray="0" stroke-linecap="round" stroke-width="2" transform="matrix(2.46,0.0,0.0,-2.46,-34.44,2857.32)"/>
 <path d="M136,526 l62,6" fill="rgb(255,255,255)" stroke="rgb(123,151,211)" stroke-dasharray="0" stroke-linecap="round" stroke-width="2" transform="matrix(2.46,0.0,0.0,-2.46,-34.44,2857.32)"/>
 <path d="M136,526 l-4,-5" fill="rgb(255,255,255)" stroke="rgb(123,151,211)" stroke-dasharray="0" stroke-linecap="round" stroke-width="2" transform="matrix(2.46,0.0,0.0,-2.46,-34.44,2857.32)"/>
 <path d="M199.06,530.94 c0.59,0.59,0.59,1.54,0,2.12 c-0.59,0.59,-1.54,0.59,-2.12,0 c-0.59,-0.59,-0.59,-1.54,0,-2.12 c0.59,-0.59,1.54,-0.59,2.12,0 Z M199.06,530.94" fill="rgb(255,255,255)" stroke="rgb(123,151,211)" stroke-dasharray="0" stroke-linecap="round" stroke-width="3" transform="matrix(2.46,0.0,0.0,-2.46,-34.44,2857.32)"/>
 <path d="M133.06,519.94 c0.59,0.59,0.59,1.54,0,2.12 c-0.59,0.59,-1.54,0.59,-2.12,0 c-0.59,-0.59,-0.59,-1.54,0,-2.12 c0.59,-0.59,1.54,-0.59,2.12,0 Z M133.06,519.94" fill="rgb(255,255,255)" stroke="rgb(123,151,211)" stroke-dasharray="0" stroke-linecap="round" stroke-width="3" transform="matrix(2.46,0.0,0.0,-2.46,-34.44,2857.32)"/>
 <path d="M139.54,522.46 c1.95,1.95,1.95,5.12,0,7.07 c-1.95,1.95,-5.12,1.95,-7.07,0 c-1.95,-1.95,-1.95,-5.12,0,-7.07 c1.95,-1.95,5.12,-1.95,7.07,0 Z M139.54,522.46" fill="rgb(255,255,255)" stroke="rgb(0,0,0)" stroke-dasharray="0" stroke-linecap="round" stroke-width="2" transform="matrix(2.46,0.0,0.0,-2.46,-34.44,2857.32)"/>
 <path d="M128,508 l2,7" fill="rgb(255,255,255)" stroke="rgb(123,151,211)" stroke-dasharray="0" stroke-linecap="round" stroke-width="2" transform="matrix(2.46,0.0,0.0,-2.46,-34.44,2857.32)"/>
 <path d="M128,508 l-5,-19" fill="rgb(255,255,255)" stroke="rgb(123,151,211)" stroke-dasharray="0" stroke-linecap="round" stroke-width="2" transform="matrix(2.46,0.0,0.0,-2.46,-34.44,2857.32)"/>
 <path d="M131.06,513.94 c0.59,0.59,0.59,1.54,0,2.12 c-0.59,0.59,-1.54,0.59,-2.12,0 c-0.59,-0.59,-0.59,-1.54,0,-2.12 c0.59,-0.59,1.54,-0.59,2.12,0 Z M131.06,513.94" fill="rgb(255,255,255)" stroke="rgb(123,151,211)" stroke-dasharray="0" stroke-linecap="round" stroke-width="3" transform="matrix(2.46,0.0,0.0,-2.46,-34.44,2857.32)"/>
 <path d="M124.06,487.94 c0.59,0.59,0.59,1.54,0,2.12 c-0.59,0.59,-1.54,0.59,-2.12,0 c-0.59,-0.59,-0.59,-1.54,0,-2.12 c0.59,-0.59,1.54,-0.59,2.12,0 Z M124.06,487.94" fill="rgb(255,255,255)" stroke="rgb(123,151,211)" stroke-dasharray="0" stroke-linecap="round" stroke-width="3" transform="matrix(2.46,0.0,0.0,-2.46,-34.44,2857.32)"/>
 <path d="M131.54,504.46 c1.95,1.95,1.95,5.12,0,7.07 c-1.95,1.95,-5.12,1.95,-7.07,0.0 c-1.95,-1.95,-1.95,-5.12,0,-7.07 c1.95,-1.95,5.12,-1.95,7.07,-0.0 Z M131.54,504.46" fill="rgb(255,255,255)" stroke="rgb(0,0,0)" stroke-dasharray="0" stroke-linecap="round" stroke-width="2" transform="matrix(2.46,0.0,0.0,-2.46,-34.44,2857.32)"/>
 <path d="M144,478 l-14,0" fill="rgb(255,255,255)" stroke="rgb(123,151,211)" stroke-dasharray="0" stroke-linecap="round" stroke-width="2" transform="matrix(2.46,0.0,0.0,-2.46,-34.44,2857.32)"/>
 <path d="M144,478 l17,0" fill="rgb(255,255,255)" stroke="rgb(123,151,211)" stroke-dasharray="0" stroke-linecap="round" stroke-width="2" transform="matrix(2.46,0.0,0.0,-2.46,-34.44,2857.32)"/>
 <path d="M131.06,476.94 c0.59,0.59,0.59,1.54,0,2.12 c-0.59,0.59,-1.54,0.59,-2.12,0 c-0.59,-0.59,-0.59,-1.54,0,-2.12 c0.59,-0.59,1.54,-0.59,2.12,0 Z M131.06,476.94" fill="rgb(255,255,255)" stroke="rgb(123,151,211)" stroke-dasharray="0" stroke-linecap="round" stroke-width="3" transform="matrix(2.46,0.0,0.0,-2.46,-34.44,2857.32)"/>
 <path d="M162.06,476.94 c0.59,0.59,0.59,1.54,0,2.12 c-0.59,0.59,-1.54,0.59,-2.12,0 c-0.59,-0.59,-0.59,-1.54,0,-2.12 c0.59,-0.59,1.54,-0.59,2.12,0 Z M162.06,476.94" fill="rgb(255,255,255)" stroke="rgb(123,151,211)" stroke-dasharray="0" stroke-linecap="round" stroke-width="3" transform="matrix(2.46,0.0,0.0,-2.46,-34.44,2857.32)"/>
 <path d="M147.54,474.46 c1.95,1.95,1.95,5.12,0,7.07 c-1.95,1.95,-5.12,1.95,-7.07,0.0 c-1.95,-1.95,-1.95,-5.12,0,-7.07 c1.95,-1.95,5.12,-1.95,7.07,-0.0 Z M147.54,474.46" fill="rgb(255,255,255)" stroke="rgb(0,0,0)" stroke-dasharray="0" stroke-linecap="round" stroke-width="2" transform="matrix(2.46,0.0,0.0,-2.46,-34.44,2857.32)"/>
 <path d="M275,497 l-87,-10" fill="rgb(255,255,255)" stroke="rgb(123,151,211)" stroke-dasharray="0" stroke-linecap="round" stroke-width="2" transform="matrix(2.46,0.0,0.0,-2.46,-34.44,2857.32)"/>
 <path d="M275,497 l0,0" fill="rgb(255,255,255)" stroke="rgb(123,151,211)" stroke-dasharray="0" stroke-linecap="round" stroke-width="2" transform="matrix(2.46,0.0,0.0,-2.46,-34.44,2857.32)"/>
 <path d="M189.06,485.94 c0.59,0.59,0.59,1.54,0,2.12 c-0.59,0.59,-1.54,0.59,-2.12,0 c-0.59,-0.59,-0.59,-1.54,0,-2.12 c0.59,-0.59,1.54,-0.59,2.12,0 Z M189.06,485.94" fill="rgb(255,255,255)" stroke="rgb(123,151,211)" stroke-dasharray="0" stroke-linecap="round" stroke-width="3" transform="matrix(2.46,0.0,0.0,-2.46,-34.44,2857.32)"/>
 <path d="M278.54,493.46 c1.95,1.95,1.95,5.12,0,7.07 c-1.95,1.95,-5.12,1.95,-7.07,0.0 c-1.95,-1.95,-1.95,-5.12,-0.0,-7.07 c1.95,-1.95,5.12,-1.95,7.07,-0.0 Z M278.54,493.46" fill="rgb(255,255,255)" stroke="rgb(0,0,0)" stroke-dasharray="0" stroke-linecap="round" stroke-width="2" transform="matrix(2.46,0.0,0.0,-2.46,-34.44,2857.32)"/>
 <path d="M279,492 l0,0" fill="rgb(255,255,255)" stroke="rgb(123,151,211)" stroke-dasharray="0" stroke-linecap="round" stroke-width="2" transform="matrix(2.46,0.0,0.0,-2.46,-34.44,2857.32)"/>
 <path d="M279,492 l-24,-147" fill="rgb(255,255,255)" stroke="rgb(123,151,211)" stroke-dasharray="0" stroke-linecap="round" stroke-width="2" transform="matrix(2.46,0.0,0.0,-2.46,-34.44,2857.32)"/>
 <path d="M256.06,343.94 c0.59,0.59,0.59,1.54,0,2.12 c-0.59,0.59,-1.54,0.59,-2.12,0 c-0.59,-0.59,-0.59,-1.54,0,-2.12 c0.59,-0.59,1.54,-0.59,2.12,0 Z M256.06,343.94" fill="rgb(255,255,255)" stroke="rgb(123,151,211)" stroke-dasharray="0" stroke-linecap="round" stroke-width="3" transform="matrix(2.46,0.0,0.0,-2.46,-34.44,2857.32)"/>
 <path d="M282.54,488.46 c1.95,1.95,1.95,5.12,0,7.07 c-1.95,1.95,-5.12,1.95,-7.07,0.0 c-1.95,-1.95,-1.95,-5.12,-0.0,-7.07 c1.95,-1.95,5.12,-1.95,7.07,-0.0 Z M282.54,488.46" fill="rgb(255,255,255)" stroke="rgb(0,0,0)" stroke-dasharray="0" stroke-linecap="round" stroke-width="2" transform="matrix(2.46,0.0,0.0,-2.46,-34.44,2857.32)"/>
 <path d="M174,108 l21,135" fill="rgb(255,255,255)" stroke="rgb(123,151,211)" stroke-dasharray="0" stroke-linecap="round" stroke-width="2" transform="matrix(2.46,0.0,0.0,-2.46,-34.44,2857.32)"/>
 <path d="M174,108 l-5,-29" fill="rgb(255,255,255)" stroke="rgb(123,151,211)" stroke-dasharray="0" stroke-linecap="round" stroke-width="2" transform="matrix(2.46,0.0,0.0,-2.46,-34.44,2857.32)"/>
 <path d="M196.06,241.94 c0.59,0.59,0.59,1.54,0,2.12 c-0.59,0.59,-1.54,0.59,-2.12,0 c-0.59,-0.59,-0.59,-1.54,0,-2.12 c0.59,-0.59,1.54,-0.59,2.12,0 Z M196.06,241.94" fill="rgb(255,255,255)" stroke="rgb(123,151,211)" stroke-dasharray="0" stroke-linecap="round" stroke-width="3" transform="matrix(2.46,0.0,0.0,-2.46,-34.44,2857.32)"/>
 <path d="M170.06,77.94 c0.59,0.59,0.59,1.54,0,2.12 c-0.59,0.59,-1.54,0.59,-2.12,0 c-0.59,-0.59,-0.59,-1.54,0,-2.12 c0.59,-0.59,1.54,-0.59,2.12,0 Z M170.06,77.94" fill="rgb(255,255,255)" stroke="rgb(123,151,211)" stroke-dasharray="0" stroke-linecap="round" stroke-width="3" transform="matrix(2.46,0.0,0.0,-2.46,-34.44,2857.32)"/>
 <path d="M177.54,104.46 c1.95,1.95,1.95,5.12,0,7.07 c-1.95,1.95,-5.12,1.95,-7.07,0 c-1.95,-1.95,-1.95,-5.12,0,-7.07 c1.95,-1.95,5.12,-1.95,7.07,0 Z M177.54,104.46" fill="rgb(255,255,255)" stroke="rgb(0,0,0)" stroke-dasharray="0" stroke-linecap="round" stroke-width="2" transform="matrix(2.46,0.0,0.0,-2.46,-34.44,2857.32)"/>
 <path d="M181,53 l-9,9" fill="rgb(255,255,255)" stroke="rgb(123,151,211)" stroke-dasharray="0" stroke-linecap="round" stroke-width="2" transform="matrix(2.46,0.0,0.0,-2.46,-34.44,2857.32)"/>
 <path d="M181,53 l0,0" fill="rgb(255,255,255)" stroke="rgb(123,151,211)" stroke-dasharray="0" stroke-linecap="round" stroke-width="2" transform="matrix(2.46,0.0,0.0,-2.46,-34.44,2857.32)"/>
 <path d="M173.06,60.94 c0.59,0.59,0.59,1.54,0,2.12 c-0.59,0.59,-1.54,0.59,-2.12,0 c-0.59,-0.59,-0.59,-1.54,0,-2.12 c0.59,-0.59,1.54,-0.59,2.12,0 Z M173.06,60.94" fill="rgb(255,255,255)" stroke="rgb(123,151,211)" stroke-dasharray="0" stroke-linecap="round" stroke-width="3" transform="matrix(2.46,0.0,0.0,-2.46,-34.44,2857.32)"/>
 <path d="M184.54,49.46 c1.95,1.95,1.95,5.12,0,7.07 c-1.95,1.95,-5.12,1.95,-7.07,0 c-1.95,-1.95,-1.95,-5.12,0,-7.07 c1.95,-1.95,5.12,-1.95,7.07,0 Z M184.54,49.46" fill="rgb(255,255,255)" stroke="rgb(0,0,0)" stroke-dasharray="0" stroke-linecap="round" stroke-width="2" transform="matrix(2.46,0.0,0.0,-2.46,-34.44,2857.32)"/>
 <path d="M272,360 l0,0" fill="rgb(255,255,255)" stroke="rgb(123,151,211)" stroke-dasharray="0" stroke-linecap="round" stroke-width="2" transform="matrix(2.46,0.0,0.0,-2.46,-34.44,2857.32)"/>
 <path d="M272,360 l0,0" fill="rgb(255,255,255)" stroke="rgb(123,151,211)" stroke-dasharray="0" stroke-linecap="round" stroke-width="2" transform="matrix(2.46,0.0,0.0,-2.46,-34.44,2857.32)"/>
 <path d="M275.54,356.46 c1.95,1.95,1.95,5.12,0,7.07 c-1.95,1.95,-5.12,1.95,-7.07,0.0 c-1.95,-1.95,-1.95,-5.12,-0.0,-7.07 c1.95,-1.95,5.12,-1.95,7.07,-0.0 Z M275.54,356.46" fill="rgb(255,255,255)" stroke="rgb(0,0,0)" stroke-dasharray="0" stroke-linecap="round" stroke-width="2" transform="matrix(2.46,0.0,0.0,-2.46,-34.44,2857.32)"/>
 <path d="M243,225 l0,0" fill="rgb(255,255,255)" stroke="rgb(123,151,211)" stroke-dasharray="0" stroke-linecap="round" stroke-width="2" transform="matrix(2.46,0.0,0.0,-2.46,-34.44,2857.32)"/>
 <path d="M243,225 l102,171" fill="rgb(255,255,255)" stroke="rgb(123,151,211)" stroke-dasharray="0" stroke-linecap="round" stroke-width="2" transform="matrix(2.46,0.0,0.0,-2.46,-34.44,2857.32)"/>
 <path d="M346.06,394.94 c0.59,0.59,0.59,1.54,0,2.12 c-0.59,0.59,-1.54,0.59,-2.12,0 c-0.59,-0.59,-0.59,-1.54,0,-2.12 c0.59,-0.59,1.54,-0.59,2.12,0 Z M346.06,394.94" fill="rgb(255,255,255)" stroke="rgb(123,151,211)" stroke-dasharray="0" stroke-linecap="round" stroke-width="3" transform="matrix(2.46,0.0,0.0,-2.46,-34.44,2857.32)"/>
 <path d="M246.54,221.46 c1.95,1.95,1.95,5.12,0,7.07 c-1.95,1.95,-5.12,1.95,-7.07,0 c-1.95,-1.95,-1.95,-5.12,0,-7.07 c1.95,-1.95,5.12,-1.95,7.07,0 Z M246.54,221.46" fill="rgb(255,255,255)" stroke="rgb(0,0,0)" stroke-dasharray="0" stroke-linecap="round" stroke-width="2" transform="matrix(2.46,0.0,0.0,-2.46,-34.44,2857.32)"/>
 <path d="M534,488 l-82,0" fill="rgb(255,255,255)" stroke="rgb(123,151,211)" stroke-dasharray="0" stroke-linecap="round" stroke-width="2" transform="matrix(2.46,0.0,0.0,-2.46,-34.44,2857.32)"/>
 <path d="M534,488 l31,0" fill="rgb(255,255,255)" stroke="rgb(123,151,211)" stroke-dasharray="0" stroke-linecap="round" stroke-width="2" transform="matrix(2.46,0.0,0.0,-2.46,-34.44,2857.32)"/>
 <path d="M453.06,486.94 c0.59,0.59,0.59,1.54,0,2.12 c-0.59,0.59,-1.54,0.59,-2.12,0 c-0.59,-0.59,-0.59,-1.54,0,-2.12 c0.59,-0.59,1.54,-0.59,2.12,0 Z M453.06,486.94" fill="rgb(255,255,255)" stroke="rgb(123,151,211)" stroke-dasharray="0" stroke-linecap="round" stroke-width="3" transform="matrix(2.46,0.0,0.0,-2.46,-34.44,2857.32)"/>
 <path d="M566.06,486.94 c0.59,0.59,0.59,1.54,0,2.12 c-0.59,0.59,-1.54,0.59,-2.12,0 c-0.59,-0.59,-0.59,-1.54,0,-2.12 c0.59,-0.59,1.54,-0.59,2.12,0 Z M566.06,486.94" fill="rgb(255,255,255)" stroke="rgb(123,151,211)" stroke-dasharray="0" stroke-linecap="round" stroke-width="3" transform="matrix(2.46,0.0,0.0,-2.46,-34.44,2857.32)"/>
 <path d="M537.54,484.46 c1.95,1.95,1.95,5.12,0,7.07 c-1.95,1.95,-5.12,1.95,-7.07,0.0 c-1.95,-1.95,-1.95,-5.12,0,-7.07 c1.95,-1.95,5.12,-1.95,7.07,-0.0 Z M537.54,484.46" fill="rgb(255,255,255)" stroke="rgb(0,0,0)" stroke-dasharray="0" stroke-linecap="round" stroke-width="2" transform="matrix(2.46,0.0,0.0,-2.46,-34.44,2857.32)"/>
 <path d="M591,476 l-10,8" fill="rgb(255,255,255)" stroke="rgb(123,151,211)" stroke-dasharray="0" stroke-linecap="round" stroke-width="2" transform="matrix(2.46,0.0,0.0,-2.46,-34.44,2857.32)"/>
 <path d="M591,476 l0,0" fill="rgb(255,255,255)" stroke="rgb(123,151,211)" stroke-dasharray="0" stroke-linecap="round" stroke-width="2" transform="matrix(2.46,0.0,0.0,-2.46,-34.44,2857.32)"/>
 <path d="M582.06,482.94 c0.59,0.59,0.59,1.54,0,2.12 c-0.59,0.59,-1.54,0.59,-2.12,0 c-0.59,-0.59,-0.59,-1.54,0,-2.12 c0.59,-0.59,1.54,-0.59,2.12,0 Z M582.06,482.94" fill="rgb(255,255,255)" stroke="rgb(123,151,211)" stroke-dasharray="0" stroke-linecap="round" stroke-width="3" transform="matrix(2.46,0.0,0.0,-2.46,-34.44,2857.32)"/>
 <path d="M594.54,472.46 c1.95,1.95,1.95,5.12,0,7.07 c-1.95,1.95,-5.12,1.95,-7.07,0.0 c-1.95,-1.95,-1.95,-5.12,0,-7.07 c1.95,-1.95,5.12,-1.95,7.07,-0.0 Z M594.54,472.46" fill="rgb(255,255,255)" stroke="rgb(0,0,0)" stroke-dasharray="0" stroke-linecap="round" stroke-width="2" transform="matrix(2.46,0.0,0.0,-2.46,-34.44,2857.32)"/>
 <path d="M597,476 l0,0" fill="rgb(255,255,255)" stroke="rgb(123,151,211)" stroke-dasharray="0" stroke-linecap="round" stroke-width="2" transform="matrix(2.46,0.0,0.0,-2.46,-34.44,2857.32)"/>
 <path d="M597,476 l5,8" fill="rgb(255,255,255)" stroke="rgb(123,151,211)" stroke-dasharray="0" stroke-linecap="round" stroke-width="2" transform="matrix(2.46,0.0,0.0,-2.46,-34.44,2857.32)"/>
 <path d="M603.06,482.94 c0.59,0.59,0.59,1.54,0,2.12 c-0.59,0.59,-1.54,0.59,-2.12,0 c-0.59,-0.59,-0.59,-1.54,0,-2.12 c0.59,-0.59,1.54,-0.59,2.12,0 Z M603.06,482.94" fill="rgb(255,255,255)" stroke="rgb(123,151,211)" stroke-dasharray="0" stroke-linecap="round" stroke-width="3" transform="matrix(2.46,0.0,0.0,-2.46,-34.44,2857.32)"/>
 <path d="M600.54,472.46 c1.95,1.95,1.95,5.12,0,7.07 c-1.95,1.95,-5.12,1.95,-7.07,0.0 c-1.95,-1.95,-1.95,-5.12,0,-7.07 c1.95,-1.95,5.12,-1.95,7.07,-0.0 Z M600.54,472.46" fill="rgb(255,255,255)" stroke="rgb(0,0,0)" stroke-dasharray="0" stroke-linecap="round" stroke-width="2" transform="matrix(2.46,0.0,0.0,-2.46,-34.44,2857.32)"/>
 <path d="M609,503 l-2,-10" fill="rgb(255,255,255)" stroke="rgb(123,151,211)" stroke-dasharray="0" stroke-linecap="round" stroke-width="2" transform="matrix(2.46,0.0,0.0,-2.46,-34.44,2857.32)"/>
 <path d="M609,503 l2,11" fill="rgb(255,255,255)" stroke="rgb(123,151,211)" stroke-dasharray="0" stroke-linecap="round" stroke-width="2" transform="matrix(2.46,0.0,0.0,-2.46,-34.44,2857.32)"/>
 <path d="M608.06,491.94 c0.59,0.59,0.59,1.54,0,2.12 c-0.59,0.59,-1.54,0.59,-2.12,0 c-0.59,-0.59,-0.59,-1.54,0,-2.12 c0.59,-0.59,1.54,-0.59,2.12,0 Z M608.06,491.94" fill="rgb(255,255,255)" stroke="rgb(123,151,211)" stroke-dasharray="0" stroke-linecap="round" stroke-width="3" transform="matrix(2.46,0.0,0.0,-2.46,-34.44,2857.32)"/>
 <path d="M612.06,512.94 c0.59,0.59,0.59,1.54,0,2.12 c-0.59,0.59,-1.54,0.59,-2.12,0 c-0.59,-0.59,-0.59,-1.54,0,-2.12 c0.59,-0.59,1.54,-0.59,2.12,0 Z M612.06,512.94" fill="rgb(255,255,255)" stroke="rgb(123,151,211)" stroke-dasharray="0" stroke-linecap="round" stroke-width="3" transform="matrix(2.46,0.0,0.0,-2.46,-34.44,2857.32)"/>
 <path d="M612.54,499.46 c1.95,1.95,1.95,5.12,0,7.07 c-1.95,1.95,-5.12,1.95,-7.07,0.0 c-1.95,-1.95,-1.95,-5.12,0,-7.07 c1.95,-1.95,5.12,-1.95,7.07,-0.0 Z M612.54,499.46" fill="rgb(255,255,255)" stroke="rgb(0,0,0)" stroke-dasharray="0" stroke-linecap="round" stroke-width="2" transform="matrix(2.46,0.0,0.0,-2.46,-34.44,2857.32)"/>
 <path d="M604,526 l5,-5" fill="rgb(255,255,255)" stroke="rgb(123,151,211)" stroke-dasharray="0" stroke-linecap="round" stroke-width="2" transform="matrix(2.46,0.0,0.0,-2.46,-34.44,2857.32)"/>
 <path d="M604,526 l-10,10" fill="rgb(255,255,255)" stroke="rgb(123,151,211)" stroke-dasharray="0" stroke-linecap="round" stroke-width="2" transform="matrix(2.46,0.0,0.0,-2.46,-34.44,2857.32)"/>
 <path d="M610.06,519.94 c0.59,0.59,0.59,1.54,0,2.12 c-0.59,0.59,-1.54,0.59,-2.12,0 c-0.59,-0.59,-0.59,-1.54,0,-2.12 c0.59,-0.59,1.54,-0.59,2.12,0 Z M610.06,519.94" fill="rgb(255,255,255)" stroke="rgb(123,151,211)" stroke-dasharray="0" stroke-linecap="round" stroke-width="3" transform="matrix(2.46,0.0,0.0,-2.46,-34.44,2857.32)"/>
 <path d="M595.06,534.94 c0.59,0.59,0.59,1.54,0,2.12 c-0.59,0.59,-1.54,0.59,-2.12,0 c-0.59,-0.59,-0.59,-1.54,0,-2.12 c0.59,-0.59,1.54,-0.59,2.12,0 Z M595.06,534.94" fill="rgb(255,255,255)" stroke="rgb(123,151,211)" stroke-dasharray="0" stroke-linecap="round" stroke-width="3" transform="matrix(2.46,0.0,0.0,-2.46,-34.44,2857.32)"/>
 <path d="M607.54,522.46 c1.95,1.95,1.95,5.12,0,7.07 c-1.95,1.95,-5.12,1.95,-7.07,0 c-1.95,-1.95,-1.95,-5.12,0,-7.07 c1.95,-1.95,5.12,-1.95,7.07,0 Z M607.54,522.46" fill="rgb(255,255,255)" stroke="rgb(0,0,0)" stroke-dasharray="0" stroke-linecap="round" stroke-width="2" transform="matrix(2.46,0.0,0.0,-2.46,-34.44,2857.32)"/>
 <path d="M544,540 l32,0" fill="rgb(255,255,255)" stroke="rgb(123,151,211)" stroke-dasharray="0" stroke-linecap="round" stroke-width="2" transform="matrix(2.46,0.0,0.0,-2.46,-34.44,2857.32)"/>
 <path d="M544,540 l-91,0" fill="rgb(255,255,255)" stroke="rgb(123,151,211)" stroke-dasharray="0" stroke-linecap="round" stroke-width="2" transform="matrix(2.46,0.0,0.0,-2.46,-34.44,2857.32)"/>
 <path d="M577.06,538.94 c0.59,0.59,0.59,1.54,0,2.12 c-0.59,0.59,-1.54,0.59,-2.12,0 c-0.59,-0.59,-0.59,-1.54,0,-2.12 c0.59,-0.59,1.54,-0.59,2.12,0 Z M577.06,538.94" fill="rgb(255,255,255)" stroke="rgb(123,151,211)" stroke-dasharray="0" stroke-linecap="round" stroke-width="3" transform="matrix(2.46,0.0,0.0,-2.46,-34.44,2857.32)"/>
 <path d="M454.06,538.94 c0.59,0.59,0.59,1.54,0,2.12 c-0.59,0.59,-1.54,0.59,-2.12,0 c-0.59,-0.59,-0.59,-1.54,0,-2.12 c0.59,-0.59,1.54,-0.59,2.12,0 Z M454.06,538.94" fill="rgb(255,255,255)" stroke="rgb(123,151,211)" stroke-dasharray="0" stroke-linecap="round" stroke-width="3" transform="matrix(2.46,0.0,0.0,-2.46,-34.44,2857.32)"/>
 <path d="M547.54,536.46 c1.95,1.95,1.95,5.12,0,7.07 c-1.95,1.95,-5.12,1.95,-7.07,0 c-1.95,-1.95,-1.95,-5.12,0,-7.07 c1.95,-1.95,5.12,-1.95,7.07,0 Z M547.54,536.46" fill="rgb(255,255,255)" stroke="rgb(0,0,0)" stroke-dasharray="0" stroke-linecap="round" stroke-width="2" transform="matrix(2.46,0.0,0.0,-2.46,-34.44,2857.32)"/>
 <path d="M294,349 l77,122" fill="rgb(255,255,255)" stroke="rgb(123,151,211)" stroke-dasharray="0" stroke-linecap="round" stroke-width="2" transform="matrix(2.46,0.0,0.0,-2.46,-34.44,2857.32)"/>
 <path d="M294,349 l0,0" fill="rgb(255,255,255)" stroke="rgb(123,151,211)" stroke-dasharray="0" stroke-linecap="round" stroke-width="2" transform="matrix(2.46,0.0,0.0,-2.46,-34.44,2857.32)"/>
 <path d="M372.06,469.94 c0.59,0.59,0.59,1.54,0,2.12 c-0.59,0.59,-1.54,0.59,-2.12,0 c-0.59,-0.59,-0.59,-1.54,0,-2.12 c0.59,-0.59,1.54,-0.59,2.12,0 Z M372.06,469.94" fill="rgb(255,255,255)" stroke="rgb(123,151,211)" stroke-dasharray="0" stroke-linecap="round" stroke-width="3" transform="matrix(2.46,0.0,0.0,-2.46,-34.44,2857.32)"/>
 <path d="M297.54,345.46 c1.95,1.95,1.95,5.12,0,7.07 c-1.95,1.95,-5.12,1.95,-7.07,0.0 c-1.95,-1.95,-1.95,-5.12,-0.0,-7.07 c1.95,-1.95,5.12,-1.95,7.07,-0.0 Z M297.54,345.46" fill="rgb(255,255,255)" stroke="rgb(0,0,0)" stroke-dasharray="0" stroke-linecap="round" stroke-width="2" transform="matrix(2.46,0.0,0.0,-2.46,-34.44,2857.32)"/>
 <path d="M9,48 l0,0" fill="rgb(255,255,255)" stroke="rgb(123,151,211)" stroke-dasharray="0" stroke-linecap="round" stroke-width="2" transform="matrix(2.46,0.0,0.0,-2.46,-34.44,2857.32)"/>
 <path d="M9,48 l-3,-4" fill="rgb(255,255,255)" stroke="rgb(123,151,211)" stroke-dasharray="0" stroke-linecap="round" stroke-width="2" transform="matrix(2.46,0.0,0.0,-2.46,-34.44,2857.32)"/>
 <path d="M7.06,42.94 c0.59,0.59,0.59,1.54,0,2.12 c-0.59,0.59,-1.54,0.59,-2.12,0 c-0.59,-0.59,-0.59,-1.54,0,-2.12 c0.59,-0.59,1.54,-0.59,2.12,0 Z M7.06,42.94" fill="rgb(255,255,255)" stroke="rgb(123,151,211)" stroke-dasharray="0" stroke-linecap="round" stroke-width="3" transform="matrix(2.46,0.0,0.0,-2.46,-34.44,2857.32)"/>
 <path d="M12.54,44.46 c1.95,1.95,1.95,5.12,0,7.07 c-1.95,1.95,-5.12,1.95,-7.07,0 c-1.95,-1.95,-1.95,-5.12,-0.0,-7.07 c1.95,-1.95,5.12,-1.95,7.07,0 Z M12.54,44.46" fill="rgb(255,255,255)" stroke="rgb(0,0,0)" stroke-dasharray="0" stroke-linecap="round" stroke-width="2" transform="matrix(2.46,0.0,0.0,-2.46,-34.44,2857.32)"/>
 <path d="M2,32 l2,7" fill="rgb(255,255,255)" stroke="rgb(123,151,211)" stroke-dasharray="0" stroke-linecap="round" stroke-width="2" transform="matrix(2.46,0.0,0.0,-2.46,-34.44,2857.32)"/>
 <path d="M2,32 l-5,-17" fill="rgb(255,255,255)" stroke="rgb(123,151,211)" stroke-dasharray="0" stroke-linecap="round" stroke-width="2" transform="matrix(2.46,0.0,0.0,-2.46,-34.44,2857.32)"/>
 <path d="M5.06,37.94 c0.59,0.59,0.59,1.54,0,2.12 c-0.59,0.59,-1.54,0.59,-2.12,0 c-0.59,-0.59,-0.59,-1.54,-0.0,-2.12 c0.59,-0.59,1.54,-0.59,2.12,0 Z M5.06,37.94" fill="rgb(255,255,255)" stroke="rgb(123,151,211)" stroke-dasharray="0" stroke-linecap="round" stroke-width="3" transform="matrix(2.46,0.0,0.0,-2.46,-34.44,2857.32)"/>
 <path d="M-1.94,13.94 c0.59,0.59,0.59,1.54,0,2.12 c-0.59,0.59,-1.54,0.59,-2.12,0 c-0.59,-0.59,-0.59,-1.54,0,-2.12 c0.59,-0.59,1.54,-0.59,2.12,0 Z M-1.94,13.94" fill="rgb(255,255,255)" stroke="rgb(123,151,211)" stroke-dasharray="0" stroke-linecap="round" stroke-width="3" transform="matrix(2.46,0.0,0.0,-2.46,-34.44,2857.32)"/>
 <path d="M5.54,28.46 c1.95,1.95,1.95,5.12,0,7.07 c-1.95,1.95,-5.12,1.95,-7.07,0 c-1.95,-1.95,-1.95,-5.12,-0.0,-7.07 c1.95,-1.95,5.12,-1.95,7.07,0 Z M5.54,28.46" fill="rgb(255,255,255)" stroke="rgb(0,0,0)" stroke-dasharray="0" stroke-linecap="round" stroke-width="2" transform="matrix(2.46,0.0,0.0,-2.46,-34.44,2857.32)"/>
 <path d="M23,0 l-19,0" fill="rgb(255,255,255)" stroke="rgb(123,151,211)" stroke-dasharray="0" stroke-linecap="round" stroke-width="2" transform="matrix(2.46,0.0,0.0,-2.46,-34.44,2857.32)"/>
 <path d="M23,0 l0,0" fill="rgb(255,255,255)" stroke="rgb(123,151,211)" stroke-dasharray="0" stroke-linecap="round" stroke-width="2" transform="matrix(2.46,0.0,0.0,-2.46,-34.44,2857.32)"/>
 <path d="M5.06,-1.06 c0.59,0.59,0.59,1.54,0,2.12 c-0.59,0.59,-1.54,0.59,-2.12,0.0 c-0.59,-0.59,-0.59,-1.54,-0.0,-2.12 c0.59,-0.59,1.54,-0.59,2.12,-0.0 Z M5.06,-1.06" fill="rgb(255,255,255)" stroke="rgb(123,151,211)" stroke-dasharray="0" stroke-linecap="round" stroke-width="3" transform="matrix(2.46,0.0,0.0,-2.46,-34.44,2857.32)"/>
 <path d="M26.54,-3.54 c1.95,1.95,1.95,5.12,0,7.07 c-1.95,1.95,-5.12,1.95,-7.07,0.0 c-1.95,-1.95,-1.95,-5.12,0,-7.07 c1.95,-1.95,5.12,-1.95,7.07,-0.0 Z M26.54,-3.54" fill="rgb(255,255,255)" stroke="rgb(0,0,0)" stroke-dasharray="0" stroke-linecap="round" stroke-width="2" transform="matrix(2.46,0.0,0.0,-2.46,-34.44,2857.32)"/>
 <path d="M414,0 l0,0" fill="rgb(255,255,255)" stroke="rgb(123,151,211)" stroke-dasharray="0" stroke-linecap="round" stroke-width="2" transform="matrix(2.46,0.0,0.0,-2.46,-34.44,2857.32)"/>
 <path d="M414,0 l1,2" fill="rgb(255,255,255)" stroke="rgb(123,151,211)" stroke-dasharray="0" stroke-linecap="round" stroke-width="2" transform="matrix(2.46,0.0,0.0,-2.46,-34.44,2857.32)"/>
 <path d="M416.06,0.94 c0.59,0.59,0.59,1.54,0,2.12 c-0.59,0.59,-1.54,0.59,-2.12,0.0 c-0.59,-0.59,-0.59,-1.54,0,-2.12 c0.59,-0.59,1.54,-0.59,2.12,-0.0 Z M416.06,0.94" fill="rgb(255,255,255)" stroke="rgb(123,151,211)" stroke-dasharray="0" stroke-linecap="round" stroke-width="3" transform="matrix(2.46,0.0,0.0,-2.46,-34.44,2857.32)"/>
 <path d="M417.54,-3.54 c1.95,1.95,1.95,5.12,0,7.07 c-1.95,1.95,-5.12,1.95,-7.07,0.0 c-1.95,-1.95,-1.95,-5.12,-0.0,-7.07 c1.95,-1.95,5.12,-1.95,7.07,-0.0 Z M417.54,-3.54" fill="rgb(255,255,255)" stroke="rgb(0,0,0)" stroke-dasharray="0" stroke-linecap="round" stroke-width="2" transform="matrix(2.46,0.0,0.0,-2.46,-34.44,2857.32)"/>
 <path d="M416,8 l0,-2" fill="rgb(255,255,255)" stroke="rgb(123,151,211)" stroke-dasharray="0" stroke-linecap="round" stroke-width="2" transform="matrix(2.46,0.0,0.0,-2.46,-34.44,2857.32)"/>
 <path d="M416,8 l6,22" fill="rgb(255,255,255)" stroke="rgb(123,151,211)" stroke-dasharray="0" stroke-linecap="round" stroke-width="2" transform="matrix(2.46,0.0,0.0,-2.46,-34.44,2857.32)"/>
 <path d="M417.06,4.94 c0.59,0.59,0.59,1.54,0,2.12 c-0.59,0.59,-1.54,0.59,-2.12,0 c-0.59,-0.59,-0.59,-1.54,0,-2.12 c0.59,-0.59,1.54,-0.59,2.12,0 Z M417.06,4.94" fill="rgb(255,255,255)" stroke="rgb(123,151,211)" stroke-dasharray="0" stroke-linecap="round" stroke-width="3" transform="matrix(2.46,0.0,0.0,-2.46,-34.44,2857.32)"/>
 <path d="M423.06,28.94 c0.59,0.59,0.59,1.54,0,2.12 c-0.59,0.59,-1.54,0.59,-2.12,0 c-0.59,-0.59,-0.59,-1.54,0,-2.12 c0.59,-0.59,1.54,-0.59,2.12,0 Z M423.06,28.94" fill="rgb(255,255,255)" stroke="rgb(123,151,211)" stroke-dasharray="0" stroke-linecap="round" stroke-width="3" transform="matrix(2.46,0.0,0.0,-2.46,-34.44,2857.32)"/>
 <path d="M419.54,4.46 c1.95,1.95,1.95,5.12,0,7.07 c-1.95,1.95,-5.12,1.95,-7.07,0 c-1.95,-1.95,-1.95,-5.12,-0.0,-7.07 c1.95,-1.95,5.12,-1.95,7.07,-0.0 Z M419.54,4.46" fill="rgb(255,255,255)" stroke="rgb(0,0,0)" stroke-dasharray="0" stroke-linecap="round" stroke-width="2" transform="matrix(2.46,0.0,0.0,-2.46,-34.44,2857.32)"/>
 <path d="M216,48 l119,0" fill="rgb(255,255,255)" stroke="rgb(123,151,211)" stroke-dasharray="0" stroke-linecap="round" stroke-width="2" transform="matrix(2.46,0.0,0.0,-2.46,-34.44,2857.32)"/>
 <path d="M216,48 l0,0" fill="rgb(255,255,255)" stroke="rgb(123,151,211)" stroke-dasharray="0" stroke-linecap="round" stroke-width="2" transform="matrix(2.46,0.0,0.0,-2.46,-34.44,2857.32)"/>
 <path d="M336.06,46.94 c0.59,0.59,0.59,1.54,0,2.12 c-0.59,0.59,-1.54,0.59,-2.12,0 c-0.59,-0.59,-0.59,-1.54,0,-2.12 c0.59,-0.59,1.54,-0.59,2.12,0 Z M336.06,46.94" fill="rgb(255,255,255)" stroke="rgb(123,151,211)" stroke-dasharray="0" stroke-linecap="round" stroke-width="3" transform="matrix(2.46,0.0,0.0,-2.46,-34.44,2857.32)"/>
 <path d="M219.54,44.46 c1.95,1.95,1.95,5.12,0,7.07 c-1.95,1.95,-5.12,1.95,-7.07,0 c-1.95,-1.95,-1.95,-5.12,0,-7.07 c1.95,-1.95,5.12,-1.95,7.07,0 Z M219.54,44.46" fill="rgb(255,255,255)" stroke="rgb(0,0,0)" stroke-dasharray="0" stroke-linecap="round" stroke-width="2" transform="matrix(2.46,0.0,0.0,-2.46,-34.44,2857.32)"/>
 <path d="M110,123 l0,0" fill="rgb(0,0,0)" stroke="rgb(123,151,211)" stroke-dasharray="0" stroke-linecap="round" stroke-width="2" transform="matrix(2.46,0.0,0.0,-2.46,1476.0,1824.1200000000001)"/>
 <path d="M110,123 l0,0" fill="rgb(0,0,0)" stroke="rgb(123,151,211)" stroke-dasharray="0" stroke-linecap="round" stroke-width="2" transform="matrix(2.46,0.0,0.0,-2.46,1476.0,1824.1200000000001)"/>
 <path d="M113.54,119.46 c1.95,1.95,1.95,5.12,0,7.07 c-1.95,1.95,-5.12,1.95,-7.07,0 c-1.95,-1.95,-1.95,-5.12,0,-7.07 c1.95,-1.95,5.12,-1.95,7.07,0 Z M113.54,119.46" fill="rgb(255,255,255)" stroke="rgb(0,0,0)" stroke-dasharray="0" stroke-linecap="round" stroke-width="2" transform="matrix(2.46,0.0,0.0,-2.46,1476.0,1824.1200000000001)"/>
 <path d="M335,123 l0,0" fill="rgb(255,255,255)" stroke="rgb(123,151,211)" stroke-dasharray="0" stroke-linecap="round" stroke-width="2" transform="matrix(2.46,0.0,0.0,-2.46,1476.0,1824.1200000000001)"/>
 <path d="M335,123 l0,102" fill="rgb(255,255,255)" stroke="rgb(123,151,211)" stroke-dasharray="0" stroke-linecap="round" stroke-width="2" transform="matrix(2.46,0.0,0.0,-2.46,1476.0,1824.1200000000001)"/>
 <path d="M336.06,223.94 c0.59,0.59,0.59,1.54,0,2.12 c-0.59,0.59,-1.54,0.59,-2.12,0 c-0.59,-0.59,-0.59,-1.54,0,-2.12 c0.59,-0.59,1.54,-0.59,2.12,0 Z M336.06,223.94" fill="rgb(255,255,255)" stroke="rgb(123,151,211)" stroke-dasharray="0" stroke-linecap="round" stroke-width="3" transform="matrix(2.46,0.0,0.0,-2.46,1476.0,1824.1200000000001)"/>
 <path d="M338.54,119.46 c1.95,1.95,1.95,5.12,0,7.07 c-1.95,1.95,-5.12,1.95,-7.07,0 c-1.95,-1.95,-1.95,-5.12,-0.0,-7.07 c1.95,-1.95,5.12,-1.95,7.07,0 Z M338.54,119.46" fill="rgb(255,255,255)" stroke="rgb(0,0,0)" stroke-dasharray="0" stroke-linecap="round" stroke-width="2" transform="matrix(2.46,0.0,0.0,-2.46,1476.0,1824.1200000000001)"/>
 <path d="M335,407 l0,-84" fill="rgb(255,255,255)" stroke="rgb(123,151,211)" stroke-dasharray="0" stroke-linecap="round" stroke-width="2" transform="matrix(2.46,0.0,0.0,-2.46,1476.0,1824.1200000000001)"/>
 <path d="M335,407 l0,1" fill="rgb(255,255,255)" stroke="rgb(123,151,211)" stroke-dasharray="0" stroke-linecap="round" stroke-width="2" transform="matrix(2.46,0.0,0.0,-2.46,1476.0,1824.1200000000001)"/>
 <path d="M336.06,321.94 c0.59,0.59,0.59,1.54,0,2.12 c-0.59,0.59,-1.54,0.59,-2.12,0 c-0.59,-0.59,-0.59,-1.54,0,-2.12 c0.59,-0.59,1.54,-0.59,2.12,0 Z M336.06,321.94" fill="rgb(255,255,255)" stroke="rgb(123,151,211)" stroke-dasharray="0" stroke-linecap="round" stroke-width="3" transform="matrix(2.46,0.0,0.0,-2.46,1476.0,1824.1200000000001)"/>
 <path d="M336.06,406.94 c0.59,0.59,0.59,1.54,0,2.12 c-0.59,0.59,-1.54,0.59,-2.12,0 c-0.59,-0.59,-0.59,-1.54,0,-2.12 c0.59,-0.59,1.54,-0.59,2.12,0 Z M336.06,406.94" fill="rgb(255,255,255)" stroke="rgb(123,151,211)" stroke-dasharray="0" stroke-linecap="round" stroke-width="3" transform="matrix(2.46,0.0,0.0,-2.46,1476.0,1824.1200000000001)"/>
 <path d="M338.54,403.46 c1.95,1.95,1.95,5.12,0,7.07 c-1.95,1.95,-5.12,1.95,-7.07,0.0 c-1.95,-1.95,-1.95,-5.12,-0.0,-7.07 c1.95,-1.95,5.12,-1.95,7.07,-0.0 Z M338.54,403.46" fill="rgb(255,255,255)" stroke="rgb(0,0,0)" stroke-dasharray="0" stroke-linecap="round" stroke-width="2" transform="matrix(2.46,0.0,0.0,-2.46,1476.0,1824.1200000000001)"/>
 <path d="M287,550 l1,0" fill="rgb(255,255,255)" stroke="rgb(123,151,211)" stroke-dasharray="0" stroke-linecap="round" stroke-width="2" transform="matrix(2.46,0.0,0.0,-2.46,1476.0,1824.1200000000001)"/>
 <path d="M287,550 l0,0" fill="rgb(255,255,255)" stroke="rgb(123,151,211)" stroke-dasharray="0" stroke-linecap="round" stroke-width="2" transform="matrix(2.46,0.0,0.0,-2.46,1476.0,1824.1200000000001)"/>
 <path d="M289.06,548.94 c0.59,0.59,0.59,1.54,0,2.12 c-0.59,0.59,-1.54,0.59,-2.12,0 c-0.59,-0.59,-0.59,-1.54,0,-2.12 c0.59,-0.59,1.54,-0.59,2.12,0 Z M289.06,548.94" fill="rgb(255,255,255)" stroke="rgb(123,151,211)" stroke-dasharray="0" stroke-linecap="round" stroke-width="3" transform="matrix(2.46,0.0,0.0,-2.46,1476.0,1824.1200000000001)"/>
 <path d="M290.54,546.46 c1.95,1.95,1.95,5.12,0,7.07 c-1.95,1.95,-5.12,1.95,-7.07,0 c-1.95,-1.95,-1.95,-5.12,-0.0,-7.07 c1.95,-1.95,5.12,-1.95,7.07,0 Z M290.54,546.46" fill="rgb(255,255,255)" stroke="rgb(0,0,0)" stroke-dasharray="0" stroke-linecap="round" stroke-width="2" transform="matrix(2.46,0.0,0.0,-2.46,1476.0,1824.1200000000001)"/>
 <path d="M20,550 l0,0" fill="rgb(255,255,255)" stroke="rgb(123,151,211)" stroke-dasharray="0" stroke-linecap="round" stroke-width="2" transform="matrix(2.46,0.0,0.0,-2.46,1476.0,1824.1200000000001)"/>
 <path d="M20,550 l0,-63" fill="rgb(255,255,255)" stroke="rgb(123,151,211)" stroke-dasharray="0" stroke-linecap="round" stroke-width="2" transform="matrix(2.46,0.0,0.0,-2.46,1476.0,1824.1200000000001)"/>
 <path d="M21.06,485.94 c0.59,0.59,0.59,1.54,0,2.12 c-0.59,0.59,-1.54,0.59,-2.12,0 c-0.59,-0.59,-0.59,-1.54,0,-2.12 c0.59,-0.59,1.54,-0.59,2.12,0 Z M21.06,485.94" fill="rgb(255,255,255)" stroke="rgb(123,151,211)" stroke-dasharray="0" stroke-linecap="round" stroke-width="3" transform="matrix(2.46,0.0,0.0,-2.46,1476.0,1824.1200000000001)"/>
 <path d="M23.54,546.46 c1.95,1.95,1.95,5.12,0,7.07 c-1.95,1.95,-5.12,1.95,-7.07,0 c-1.95,-1.95,-1.95,-5.12,0,-7.07 c1.95,-1.95,5.12,-1.95,7.07,0 Z M23.54,546.46" fill="rgb(255,255,255)" stroke="rgb(0,0,0)" stroke-dasharray="0" stroke-linecap="round" stroke-width="2" transform="matrix(2.46,0.0,0.0,-2.46,1476.0,1824.1200000000001)"/>
 <path d="M20,361 l0,63" fill="rgb(255,255,255)" stroke="rgb(123,151,211)" stroke-dasharray="0" stroke-linecap="round" stroke-width="2" transform="matrix(2.46,0.0,0.0,-2.46,1476.0,1824.1200000000001)"/>
 <path d="M20,361 l0,-7" fill="rgb(255,255,255)" stroke="rgb(123,151,211)" stroke-dasharray="0" stroke-linecap="round" stroke-width="2" transform="matrix(2.46,0.0,0.0,-2.46,1476.0,1824.1200000000001)"/>
 <path d="M21.06,422.94 c0.59,0.59,0.59,1.54,0,2.12 c-0.59,0.59,-1.54,0.59,-2.12,0 c-0.59,-0.59,-0.59,-1.54,0,-2.12 c0.59,-0.59,1.54,-0.59,2.12,0 Z M21.06,422.94" fill="rgb(255,255,255)" stroke="rgb(123,151,211)" stroke-dasharray="0" stroke-linecap="round" stroke-width="3" transform="matrix(2.46,0.0,0.0,-2.46,1476.0,1824.1200000000001)"/>
 <path d="M21.06,352.94 c0.59,0.59,0.59,1.54,0,2.12 c-0.59,0.59,-1.54,0.59,-2.12,0 c-0.59,-0.59,-0.59,-1.54,0,-2.12 c0.59,-0.59,1.54,-0.59,2.12,0 Z M21.06,352.94" fill="rgb(255,255,255)" stroke="rgb(123,151,211)" stroke-dasharray="0" stroke-linecap="round" stroke-width="3" transform="matrix(2.46,0.0,0.0,-2.46,1476.0,1824.1200000000001)"/>
 <path d="M23.54,357.46 c1.95,1.95,1.95,5.12,0,7.07 c-1.95,1.95,-5.12,1.95,-7.07,0.0 c-1.95,-1.95,-1.95,-5.12,0,-7.07 c1.95,-1.95,5.12,-1.95,7.07,-0.0 Z M23.54,357.46" fill="rgb(255,255,255)" stroke="rgb(0,0,0)" stroke-dasharray="0" stroke-linecap="round" stroke-width="2" transform="matrix(2.46,0.0,0.0,-2.46,1476.0,1824.1200000000001)"/>
 <path d="M31,350 l-7,0" fill="rgb(255,255,255)" stroke="rgb(123,151,211)" stroke-dasharray="0" stroke-linecap="round" stroke-width="2" transform="matrix(2.46,0.0,0.0,-2.46,1476.0,1824.1200000000001)"/>
 <path d="M31,350 l20,0" fill="rgb(255,255,255)" stroke="rgb(123,151,211)" stroke-dasharray="0" stroke-linecap="round" stroke-width="2" transform="matrix(2.46,0.0,0.0,-2.46,1476.0,1824.1200000000001)"/>
 <path d="M25.06,348.94 c0.59,0.59,0.59,1.54,0,2.12 c-0.59,0.59,-1.54,0.59,-2.12,0 c-0.59,-0.59,-0.59,-1.54,0,-2.12 c0.59,-0.59,1.54,-0.59,2.12,0 Z M25.06,348.94" fill="rgb(255,255,255)" stroke="rgb(123,151,211)" stroke-dasharray="0" stroke-linecap="round" stroke-width="3" transform="matrix(2.46,0.0,0.0,-2.46,1476.0,1824.1200000000001)"/>
 <path d="M52.06,348.94 c0.59,0.59,0.59,1.54,0,2.12 c-0.59,0.59,-1.54,0.59,-2.12,0 c-0.59,-0.59,-0.59,-1.54,0,-2.12 c0.59,-0.59,1.54,-0.59,2.12,0 Z M52.06,348.94" fill="rgb(255,255,255)" stroke="rgb(123,151,211)" stroke-dasharray="0" stroke-linecap="round" stroke-width="3" transform="matrix(2.46,0.0,0.0,-2.46,1476.0,1824.1200000000001)"/>
 <path d="M34.54,346.46 c1.95,1.95,1.95,5.12,0,7.07 c-1.95,1.95,-5.12,1.95,-7.07,0.0 c-1.95,-1.95,-1.95,-5.12,0,-7.07 c1.95,-1.95,5.12,-1.95,7.07,-0.0 Z M34.54,346.46" fill="rgb(255,255,255)" stroke="rgb(0,0,0)" stroke-dasharray="0" stroke-linecap="round" stroke-width="2" transform="matrix(2.46,0.0,0.0,-2.46,1476.0,1824.1200000000001)"/>
 <path d="M93,350 l-21,0" fill="rgb(255,255,255)" stroke="rgb(123,151,211)" stroke-dasharray="0" stroke-linecap="round" stroke-width="2" transform="matrix(2.46,0.0,0.0,-2.46,1476.0,1824.1200000000001)"/>
 <path d="M93,350 l0,0" fill="rgb(255,255,255)" stroke="rgb(123,151,211)" stroke-dasharray="0" stroke-linecap="round" stroke-width="2" transform="matrix(2.46,0.0,0.0,-2.46,1476.0,1824.1200000000001)"/>
 <path d="M73.06,348.94 c0.59,0.59,0.59,1.54,0,2.12 c-0.59,0.59,-1.54,0.59,-2.12,0 c-0.59,-0.59,-0.59,-1.54,0,-2.12 c0.59,-0.59,1.54,-0.59,2.12,0 Z M73.06,348.94" fill="rgb(255,255,255)" stroke="rgb(123,151,211)" stroke-dasharray="0" stroke-linecap="round" stroke-width="3" transform="matrix(2.46,0.0,0.0,-2.46,1476.0,1824.1200000000001)"/>
 <path d="M96.54,346.46 c1.95,1.95,1.95,5.12,0,7.07 c-1.95,1.95,-5.12,1.95,-7.07,0.0 c-1.95,-1.95,-1.95,-5.12,0,-7.07 c1.95,-1.95,5.12,-1.95,7.07,-0.0 Z M96.54,346.46" fill="rgb(255,255,255)" stroke="rgb(0,0,0)" stroke-dasharray="0" stroke-linecap="round" stroke-width="2" transform="matrix(2.46,0.0,0.0,-2.46,1476.0,1824.1200000000001)"/>
 <path d="M110,350 l0,0" fill="rgb(255,255,255)" stroke="rgb(123,151,211)" stroke-dasharray="0" stroke-linecap="round" stroke-width="2" transform="matrix(2.46,0.0,0.0,-2.46,1476.0,1824.1200000000001)"/>
 <path d="M110,350 l0,-24" fill="rgb(255,255,255)" stroke="rgb(123,151,211)" stroke-dasharray="0" stroke-linecap="round" stroke-width="2" transform="matrix(2.46,0.0,0.0,-2.46,1476.0,1824.1200000000001)"/>
 <path d="M111.06,324.94 c0.59,0.59,0.59,1.54,0,2.12 c-0.59,0.59,-1.54,0.59,-2.12,0 c-0.59,-0.59,-0.59,-1.54,0,-2.12 c0.59,-0.59,1.54,-0.59,2.12,0 Z M111.06,324.94" fill="rgb(255,255,255)" stroke="rgb(123,151,211)" stroke-dasharray="0" stroke-linecap="round" stroke-width="3" transform="matrix(2.46,0.0,0.0,-2.46,1476.0,1824.1200000000001)"/>
 <path d="M113.54,346.46 c1.95,1.95,1.95,5.12,0,7.07 c-1.95,1.95,-5.12,1.95,-7.07,0.0 c-1.95,-1.95,-1.95,-5.12,0,-7.07 c1.95,-1.95,5.12,-1.95,7.07,-0.0 Z M113.54,346.46" fill="rgb(255,255,255)" stroke="rgb(0,0,0)" stroke-dasharray="0" stroke-linecap="round" stroke-width="2" transform="matrix(2.46,0.0,0.0,-2.46,1476.0,1824.1200000000001)"/>
 <path d="M110,279 l0,23" fill="rgb(255,255,255)" stroke="rgb(123,151,211)" stroke-dasharray="0" stroke-linecap="round" stroke-width="2" transform="matrix(2.46,0.0,0.0,-2.46,1476.0,1824.1200000000001)"/>
 <path d="M110,279 l0,-21" fill="rgb(255,255,255)" stroke="rgb(123,151,211)" stroke-dasharray="0" stroke-linecap="round" stroke-width="2" transform="matrix(2.46,0.0,0.0,-2.46,1476.0,1824.1200000000001)"/>
 <path d="M111.06,300.94 c0.59,0.59,0.59,1.54,0,2.12 c-0.59,0.59,-1.54,0.59,-2.12,0 c-0.59,-0.59,-0.59,-1.54,0,-2.12 c0.59,-0.59,1.54,-0.59,2.12,0 Z M111.06,300.94" fill="rgb(255,255,255)" stroke="rgb(123,151,211)" stroke-dasharray="0" stroke-linecap="round" stroke-width="3" transform="matrix(2.46,0.0,0.0,-2.46,1476.0,1824.1200000000001)"/>
 <path d="M111.06,256.94 c0.59,0.59,0.59,1.54,0,2.12 c-0.59,0.59,-1.54,0.59,-2.12,0 c-0.59,-0.59,-0.59,-1.54,0,-2.12 c0.59,-0.59,1.54,-0.59,2.12,0 Z M111.06,256.94" fill="rgb(255,255,255)" stroke="rgb(123,151,211)" stroke-dasharray="0" stroke-linecap="round" stroke-width="3" transform="matrix(2.46,0.0,0.0,-2.46,1476.0,1824.1200000000001)"/>
 <path d="M113.54,275.46 c1.95,1.95,1.95,5.12,0,7.07 c-1.95,1.95,-5.12,1.95,-7.07,0.0 c-1.95,-1.95,-1.95,-5.12,0,-7.07 c1.95,-1.95,5.12,-1.95,7.07,-0.0 Z M113.54,275.46" fill="rgb(255,255,255)" stroke="rgb(0,0,0)" stroke-dasharray="0" stroke-linecap="round" stroke-width="2" transform="matrix(2.46,0.0,0.0,-2.46,1476.0,1824.1200000000001)"/>
 <path d="M110,217 l0,21" fill="rgb(255,255,255)" stroke="rgb(123,151,211)" stroke-dasharray="0" stroke-linecap="round" stroke-width="2" transform="matrix(2.46,0.0,0.0,-2.46,1476.0,1824.1200000000001)"/>
 <path d="M110,217 l0,0" fill="rgb(255,255,255)" stroke="rgb(123,151,211)" stroke-dasharray="0" stroke-linecap="round" stroke-width="2" transform="matrix(2.46,0.0,0.0,-2.46,1476.0,1824.1200000000001)"/>
 <path d="M111.06,236.94 c0.59,0.59,0.59,1.54,0,2.12 c-0.59,0.59,-1.54,0.59,-2.12,0 c-0.59,-0.59,-0.59,-1.54,0,-2.12 c0.59,-0.59,1.54,-0.59,2.12,0 Z M111.06,236.94" fill="rgb(255,255,255)" stroke="rgb(123,151,211)" stroke-dasharray="0" stroke-linecap="round" stroke-width="3" transform="matrix(2.46,0.0,0.0,-2.46,1476.0,1824.1200000000001)"/>
 <path d="M113.54,213.46 c1.95,1.95,1.95,5.12,0,7.07 c-1.95,1.95,-5.12,1.95,-7.07,0 c-1.95,-1.95,-1.95,-5.12,0,-7.07 c1.95,-1.95,5.12,-1.95,7.07,0 Z M113.54,213.46" fill="rgb(255,255,255)" stroke="rgb(0,0,0)" stroke-dasharray="0" stroke-linecap="round" stroke-width="2" transform="matrix(2.46,0.0,0.0,-2.46,1476.0,1824.1200000000001)"/>
 <path d="M308,424 l0,0" fill="rgb(255,255,255)" stroke="rgb(123,151,211)" stroke-dasharray="0" stroke-linecap="round" stroke-width="2" transform="matrix(2.46,0.0,0.0,-2.46,1476.0,1824.1200000000001)"/>
 <path d="M308,424 l0,0" fill="rgb(255,255,255)" stroke="rgb(123,151,211)" stroke-dasharray="0" stroke-linecap="round" stroke-width="2" transform="matrix(2.46,0.0,0.0,-2.46,1476.0,1824.1200000000001)"/>
 <path d="M311.54,420.46 c1.95,1.95,1.95,5.12,0,7.07 c-1.95,1.95,-5.12,1.95,-7.07,0.0 c-1.95,-1.95,-1.95,-5.12,-0.0,-7.07 c1.95,-1.95,5.12,-1.95,7.07,-0.0 Z M311.54,420.46" fill="rgb(255,255,255)" stroke="rgb(0,0,0)" stroke-dasharray="0" stroke-linecap="round" stroke-width="2" transform="matrix(2.46,0.0,0.0,-2.46,1476.0,1824.1200000000001)"/>
 <path d="M317,275 l0,0" fill="rgb(255,255,255)" stroke="rgb(123,151,211)" stroke-dasharray="0" stroke-linecap="round" stroke-width="2" transform="matrix(2.46,0.0,0.0,-2.46,1476.0,1824.1200000000001)"/>
 <path d="M317,275 l34.66,21.41" fill="rgb(255,255,255)" stroke="rgb(123,151,211)" stroke-dasharray="0" stroke-linecap="round" stroke-width="2" transform="matrix(2.46,0.0,0.0,-2.46,1476.0,1824.1200000000001)"/>
 <path d="M352.72,295.35 c0.59,0.59,0.59,1.54,0,2.12 c-0.59,0.59,-1.54,0.59,-2.12,0 c-0.59,-0.59,-0.59,-1.54,0,-2.12 c0.59,-0.59,1.54,-0.59,2.12,0 Z M352.72,295.35" fill="rgb(255,255,255)" stroke="rgb(123,151,211)" stroke-dasharray="0" stroke-linecap="round" stroke-width="3" transform="matrix(2.46,0.0,0.0,-2.46,1476.0,1824.1200000000001)"/>
 <path d="M320.54,271.46 c1.95,1.95,1.95,5.12,0,7.07 c-1.95,1.95,-5.12,1.95,-7.07,0.0 c-1.95,-1.95,-1.95,-5.12,-0.0,-7.07 c1.95,-1.95,5.12,-1.95,7.07,-0.0 Z M320.54,271.46" fill="rgb(255,255,255)" stroke="rgb(0,0,0)" stroke-dasharray="0" stroke-linecap="round" stroke-width="2" transform="matrix(2.46,0.0,0.0,-2.46,1476.0,1824.1200000000001)"/>
 <path d="M443,305 l-43.02,0" fill="rgb(255,255,255)" stroke="rgb(123,151,211)" stroke-dasharray="0" stroke-linecap="round" stroke-width="2" transform="matrix(2.46,0.0,0.0,-2.46,1476.0,1824.1200000000001)"/>
 <path d="M443,305 l33.07,0" fill="rgb(255,255,255)" stroke="rgb(123,151,211)" stroke-dasharray="0" stroke-linecap="round" stroke-width="2" transform="matrix(2.46,0.0,0.0,-2.46,1476.0,1824.1200000000001)"/>
 <path d="M401.04,303.94 c0.59,0.59,0.59,1.54,0,2.12 c-0.59,0.59,-1.54,0.59,-2.12,0 c-0.59,-0.59,-0.59,-1.54,0,-2.12 c0.59,-0.59,1.54,-0.59,2.12,0 Z M401.04,303.94" fill="rgb(255,255,255)" stroke="rgb(123,151,211)" stroke-dasharray="0" stroke-linecap="round" stroke-width="3" transform="matrix(2.46,0.0,0.0,-2.46,1476.0,1824.1200000000001)"/>
 <path d="M477.13,303.94 c0.59,0.59,0.59,1.54,0,2.12 c-0.59,0.59,-1.54,0.59,-2.12,0 c-0.59,-0.59,-0.59,-1.54,0,-2.12 c0.59,-0.59,1.54,-0.59,2.12,0 Z M477.13,303.94" fill="rgb(255,255,255)" stroke="rgb(123,151,211)" stroke-dasharray="0" stroke-linecap="round" stroke-width="3" transform="matrix(2.46,0.0,0.0,-2.46,1476.0,1824.1200000000001)"/>
 <path d="M446.54,301.46 c1.95,1.95,1.95,5.12,0,7.07 c-1.95,1.95,-5.12,1.95,-7.07,0.0 c-1.95,-1.95,-1.95,-5.12,-0.0,-7.07 c1.95,-1.95,5.12,-1.95,7.07,-0.0 Z M446.54,301.46" fill="rgb(255,255,255)" stroke="rgb(0,0,0)" stroke-dasharray="0" stroke-linecap="round" stroke-width="2" transform="matrix(2.46,0.0,0.0,-2.46,1476.0,1824.1200000000001)"/>
 <path d="M550,287 l-36.13,11.72" fill="rgb(255,255,255)" stroke="rgb(123,151,211)" stroke-dasharray="0" stroke-linecap="round" stroke-width="2" transform="matrix(2.46,0.0,0.0,-2.46,1476.0,1824.1200000000001)"/>
 <path d="M550,287 l0,0" fill="rgb(255,255,255)" stroke="rgb(123,151,211)" stroke-dasharray="0" stroke-linecap="round" stroke-width="2" transform="matrix(2.46,0.0,0.0,-2.46,1476.0,1824.1200000000001)"/>
 <path d="M514.93,297.66 c0.59,0.59,0.59,1.54,0,2.12 c-0.59,0.59,-1.54,0.59,-2.12,0 c-0.59,-0.59,-0.59,-1.54,0,-2.12 c0.59,-0.59,1.54,-0.59,2.12,0 Z M514.93,297.66" fill="rgb(255,255,255)" stroke="rgb(123,151,211)" stroke-dasharray="0" stroke-linecap="round" stroke-width="3" transform="matrix(2.46,0.0,0.0,-2.46,1476.0,1824.1200000000001)"/>
 <path d="M553.54,283.46 c1.95,1.95,1.95,5.12,0,7.07 c-1.95,1.95,-5.12,1.95,-7.07,0.0 c-1.95,-1.95,-1.95,-5.12,0,-7.07 c1.95,-1.95,5.12,-1.95,7.07,-0.0 Z M553.54,283.46" fill="rgb(255,255,255)" stroke="rgb(0,0,0)" stroke-dasharray="0" stroke-linecap="round" stroke-width="2" transform="matrix(2.46,0.0,0.0,-2.46,1476.0,1824.1200000000001)"/>
 <path d="M570,287 l0,0" fill="rgb(255,255,255)" stroke="rgb(123,151,211)" stroke-dasharray="0" stroke-linecap="round" stroke-width="2" transform="matrix(2.46,0.0,0.0,-2.46,1476.0,1824.1200000000001)"/>
 <path d="M570,287 l0,83" fill="rgb(255,255,255)" stroke="rgb(123,151,211)" stroke-dasharray="0" stroke-linecap="round" stroke-width="2" transform="matrix(2.46,0.0,0.0,-2.46,1476.0,1824.1200000000001)"/>
 <path d="M571.06,368.94 c0.59,0.59,0.59,1.54,0,2.12 c-0.59,0.59,-1.54,0.59,-2.12,0 c-0.59,-0.59,-0.59,-1.54,0,-2.12 c0.59,-0.59,1.54,-0.59,2.12,0 Z M571.06,368.94" fill="rgb(255,255,255)" stroke="rgb(123,151,211)" stroke-dasharray="0" stroke-linecap="round" stroke-width="3" transform="matrix(2.46,0.0,0.0,-2.46,1476.0,1824.1200000000001)"/>
 <path d="M573.54,283.46 c1.95,1.95,1.95,5.12,0,7.07 c-1.95,1.95,-5.12,1.95,-7.07,0.0 c-1.95,-1.95,-1.95,-5.12,0,-7.07 c1.95,-1.95,5.12,-1.95,7.07,-0.0 Z M573.54,283.46" fill="rgb(255,255,255)" stroke="rgb(0,0,0)" stroke-dasharray="0" stroke-linecap="round" stroke-width="2" transform="matrix(2.46,0.0,0.0,-2.46,1476.0,1824.1200000000001)"/>
 <path d="M570,536 l0,-83" fill="rgb(255,255,255)" stroke="rgb(123,151,211)" stroke-dasharray="0" stroke-linecap="round" stroke-width="2" transform="matrix(2.46,0.0,0.0,-2.46,1476.0,1824.1200000000001)"/>
 <path d="M570,536 l0,5" fill="rgb(255,255,255)" stroke="rgb(123,151,211)" stroke-dasharray="0" stroke-linecap="round" stroke-width="2" transform="matrix(2.46,0.0,0.0,-2.46,1476.0,1824.1200000000001)"/>
 <path d="M571.06,451.94 c0.59,0.59,0.59,1.54,0,2.12 c-0.59,0.59,-1.54,0.59,-2.12,0 c-0.59,-0.59,-0.59,-1.54,0,-2.12 c0.59,-0.59,1.54,-0.59,2.12,0 Z M571.06,451.94" fill="rgb(255,255,255)" stroke="rgb(123,151,211)" stroke-dasharray="0" stroke-linecap="round" stroke-width="3" transform="matrix(2.46,0.0,0.0,-2.46,1476.0,1824.1200000000001)"/>
 <path d="M571.06,539.94 c0.59,0.59,0.59,1.54,0,2.12 c-0.59,0.59,-1.54,0.59,-2.12,0 c-0.59,-0.59,-0.59,-1.54,0,-2.12 c0.59,-0.59,1.54,-0.59,2.12,0 Z M571.06,539.94" fill="rgb(255,255,255)" stroke="rgb(123,151,211)" stroke-dasharray="0" stroke-linecap="round" stroke-width="3" transform="matrix(2.46,0.0,0.0,-2.46,1476.0,1824.1200000000001)"/>
 <path d="M573.54,532.46 c1.95,1.95,1.95,5.12,0,7.07 c-1.95,1.95,-5.12,1.95,-7.07,0 c-1.95,-1.95,-1.95,-5.12,0,-7.07 c1.95,-1.95,5.12,-1.95,7.07,0 Z M573.54,532.46" fill="rgb(255,255,255)" stroke="rgb(0,0,0)" stroke-dasharray="0" stroke-linecap="round" stroke-width="2" transform="matrix(2.46,0.0,0.0,-2.46,1476.0,1824.1200000000001)"/>
 <path d="M567,546 l2,-2" fill="rgb(255,255,255)" stroke="rgb(123,151,211)" stroke-dasharray="0" stroke-linecap="round" stroke-width="2" transform="matrix(2.46,0.0,0.0,-2.46,1476.0,1824.1200000000001)"/>
 <path d="M567,546 l-7,7" fill="rgb(255,255,255)" stroke="rgb(123,151,211)" stroke-dasharray="0" stroke-linecap="round" stroke-width="2" transform="matrix(2.46,0.0,0.0,-2.46,1476.0,1824.1200000000001)"/>
 <path d="M570.06,542.94 c0.59,0.59,0.59,1.54,0,2.12 c-0.59,0.59,-1.54,0.59,-2.12,0 c-0.59,-0.59,-0.59,-1.54,0,-2.12 c0.59,-0.59,1.54,-0.59,2.12,0 Z M570.06,542.94" fill="rgb(255,255,255)" stroke="rgb(123,151,211)" stroke-dasharray="0" stroke-linecap="round" stroke-width="3" transform="matrix(2.46,0.0,0.0,-2.46,1476.0,1824.1200000000001)"/>
 <path d="M561.06,551.94 c0.59,0.59,0.59,1.54,0,2.12 c-0.59,0.59,-1.54,0.59,-2.12,0 c-0.59,-0.59,-0.59,-1.54,0,-2.12 c0.59,-0.59,1.54,-0.59,2.12,0 Z M561.06,551.94" fill="rgb(255,255,255)" stroke="rgb(123,151,211)" stroke-dasharray="0" stroke-linecap="round" stroke-width="3" transform="matrix(2.46,0.0,0.0,-2.46,1476.0,1824.1200000000001)"/>
 <path d="M570.54,542.46 c1.95,1.95,1.95,5.12,0,7.07 c-1.95,1.95,-5.12,1.95,-7.07,0 c-1.95,-1.95,-1.95,-5.12,0,-7.07 c1.95,-1.95,5.12,-1.95,7.07,0 Z M570.54,542.46" fill="rgb(255,255,255)" stroke="rgb(0,0,0)" stroke-dasharray="0" stroke-linecap="round" stroke-width="2" transform="matrix(2.46,0.0,0.0,-2.46,1476.0,1824.1200000000001)"/>
 <path d="M509,560 l30,0" fill="rgb(255,255,255)" stroke="rgb(123,151,211)" stroke-dasharray="0" stroke-linecap="round" stroke-width="2" transform="matrix(2.46,0.0,0.0,-2.46,1476.0,1824.1200000000001)"/>
 <path d="M509,560 l-70,0" fill="rgb(255,255,255)" stroke="rgb(123,151,211)" stroke-dasharray="0" stroke-linecap="round" stroke-width="2" transform="matrix(2.46,0.0,0.0,-2.46,1476.0,1824.1200000000001)"/>
 <path d="M540.06,558.94 c0.59,0.59,0.59,1.54,0,2.12 c-0.59,0.59,-1.54,0.59,-2.12,0 c-0.59,-0.59,-0.59,-1.54,0,-2.12 c0.59,-0.59,1.54,-0.59,2.12,0 Z M540.06,558.94" fill="rgb(255,255,255)" stroke="rgb(123,151,211)" stroke-dasharray="0" stroke-linecap="round" stroke-width="3" transform="matrix(2.46,0.0,0.0,-2.46,1476.0,1824.1200000000001)"/>
 <path d="M440.06,558.94 c0.59,0.59,0.59,1.54,0,2.12 c-0.59,0.59,-1.54,0.59,-2.12,0 c-0.59,-0.59,-0.59,-1.54,0,-2.12 c0.59,-0.59,1.54,-0.59,2.12,0 Z M440.06,558.94" fill="rgb(255,255,255)" stroke="rgb(123,151,211)" stroke-dasharray="0" stroke-linecap="round" stroke-width="3" transform="matrix(2.46,0.0,0.0,-2.46,1476.0,1824.1200000000001)"/>
 <path d="M512.54,556.46 c1.95,1.95,1.95,5.12,0,7.07 c-1.95,1.95,-5.12,1.95,-7.07,0 c-1.95,-1.95,-1.95,-5.12,-0.0,-7.07 c1.95,-1.95,5.12,-1.95,7.07,0 Z M512.54,556.46" fill="rgb(255,255,255)" stroke="rgb(0,0,0)" stroke-dasharray="0" stroke-linecap="round" stroke-width="2" transform="matrix(2.46,0.0,0.0,-2.46,1476.0,1824.1200000000001)"/>
 <path d="M345,424 l38,99" fill="rgb(255,255,255)" stroke="rgb(123,151,211)" stroke-dasharray="0" stroke-linecap="round" stroke-width="2" transform="matrix(2.46,0.0,0.0,-2.46,1476.0,1824.1200000000001)"/>
 <path d="M345,424 l0,0" fill="rgb(255,255,255)" stroke="rgb(123,151,211)" stroke-dasharray="0" stroke-linecap="round" stroke-width="2" transform="matrix(2.46,0.0,0.0,-2.46,1476.0,1824.1200000000001)"/>
 <path d="M384.06,521.94 c0.59,0.59,0.59,1.54,0,2.12 c-0.59,0.59,-1.54,0.59,-2.12,0 c-0.59,-0.59,-0.59,-1.54,0,-2.12 c0.59,-0.59,1.54,-0.59,2.12,0 Z M384.06,521.94" fill="rgb(255,255,255)" stroke="rgb(123,151,211)" stroke-dasharray="0" stroke-linecap="round" stroke-width="3" transform="matrix(2.46,0.0,0.0,-2.46,1476.0,1824.1200000000001)"/>
 <path d="M348.54,420.46 c1.95,1.95,1.95,5.12,0,7.07 c-1.95,1.95,-5.12,1.95,-7.07,0.0 c-1.95,-1.95,-1.95,-5.12,-0.0,-7.07 c1.95,-1.95,5.12,-1.95,7.07,-0.0 Z M348.54,420.46" fill="rgb(255,255,255)" stroke="rgb(0,0,0)" stroke-dasharray="0" stroke-linecap="round" stroke-width="2" transform="matrix(2.46,0.0,0.0,-2.46,1476.0,1824.1200000000001)"/>
 <path d="M20,200 l0,0" fill="rgb(255,255,255)" stroke="rgb(123,151,211)" stroke-dasharray="0" stroke-linecap="round" stroke-width="2" transform="matrix(2.46,0.0,0.0,-2.46,1476.0,1824.1200000000001)"/>
 <path d="M20,200 l0,-46" fill="rgb(255,255,255)" stroke="rgb(123,151,211)" stroke-dasharray="0" stroke-linecap="round" stroke-width="2" transform="matrix(2.46,0.0,0.0,-2.46,1476.0,1824.1200000000001)"/>
 <path d="M21.06,152.94 c0.59,0.59,0.59,1.54,0,2.12 c-0.59,0.59,-1.54,0.59,-2.12,0 c-0.59,-0.59,-0.59,-1.54,0,-2.12 c0.59,-0.59,1.54,-0.59,2.12,0 Z M21.06,152.94" fill="rgb(255,255,255)" stroke="rgb(123,151,211)" stroke-dasharray="0" stroke-linecap="round" stroke-width="3" transform="matrix(2.46,0.0,0.0,-2.46,1476.0,1824.1200000000001)"/>
 <path d="M23.54,196.46 c1.95,1.95,1.95,5.12,0,7.07 c-1.95,1.95,-5.12,1.95,-7.07,0 c-1.95,-1.95,-1.95,-5.12,0,-7.07 c1.95,-1.95,5.12,-1.95,7.07,0 Z M23.54,196.46" fill="rgb(255,255,255)" stroke="rgb(0,0,0)" stroke-dasharray="0" stroke-linecap="round" stroke-width="2" transform="matrix(2.46,0.0,0.0,-2.46,1476.0,1824.1200000000001)"/>
 <path d="M20,11 l0,46" fill="rgb(255,255,255)" stroke="rgb(123,151,211)" stroke-dasharray="0" stroke-linecap="round" stroke-width="2" transform="matrix(2.46,0.0,0.0,-2.46,1476.0,1824.1200000000001)"/>
 <path d="M20,11 l0,-7" fill="rgb(255,255,255)" stroke="rgb(123,151,211)" stroke-dasharray="0" stroke-linecap="round" stroke-width="2" transform="matrix(2.46,0.0,0.0,-2.46,1476.0,1824.1200000000001)"/>
 <path d="M21.06,55.94 c0.59,0.59,0.59,1.54,0,2.12 c-0.59,0.59,-1.54,0.59,-2.12,0 c-0.59,-0.59,-0.59,-1.54,0,-2.12 c0.59,-0.59,1.54,-0.59,2.12,0 Z M21.06,55.94" fill="rgb(255,255,255)" stroke="rgb(123,151,211)" stroke-dasharray="0" stroke-linecap="round" stroke-width="3" transform="matrix(2.46,0.0,0.0,-2.46,1476.0,1824.1200000000001)"/>
 <path d="M21.06,2.94 c0.59,0.59,0.59,1.54,0,2.12 c-0.59,0.59,-1.54,0.59,-2.12,0 c-0.59,-0.59,-0.59,-1.54,0,-2.12 c0.59,-0.59,1.54,-0.59,2.12,-0.0 Z M21.06,2.94" fill="rgb(255,255,255)" stroke="rgb(123,151,211)" stroke-dasharray="0" stroke-linecap="round" stroke-width="3" transform="matrix(2.46,0.0,0.0,-2.46,1476.0,1824.1200000000001)"/>
 <path d="M23.54,7.46 c1.95,1.95,1.95,5.12,0,7.07 c-1.95,1.95,-5.12,1.95,-7.07,0 c-1.95,-1.95,-1.95,-5.12,0,-7.07 c1.95,-1.95,5.12,-1.95,7.07,-0.0 Z M23.54,7.46" fill="rgb(255,255,255)" stroke="rgb(0,0,0)" stroke-dasharray="0" stroke-linecap="round" stroke-width="2" transform="matrix(2.46,0.0,0.0,-2.46,1476.0,1824.1200000000001)"/>
 <path d="M31,0 l-7,0" fill="rgb(255,255,255)" stroke="rgb(123,151,211)" stroke-dasharray="0" stroke-linecap="round" stroke-width="2" transform="matrix(2.46,0.0,0.0,-2.46,1476.0,1824.1200000000001)"/>
 <path d="M31,0 l0,0" fill="rgb(255,255,255)" stroke="rgb(123,151,211)" stroke-dasharray="0" stroke-linecap="round" stroke-width="2" transform="matrix(2.46,0.0,0.0,-2.46,1476.0,1824.1200000000001)"/>
 <path d="M25.06,-1.06 c0.59,0.59,0.59,1.54,0,2.12 c-0.59,0.59,-1.54,0.59,-2.12,0.0 c-0.59,-0.59,-0.59,-1.54,0,-2.12 c0.59,-0.59,1.54,-0.59,2.12,-0.0 Z M25.06,-1.06" fill="rgb(255,255,255)" stroke="rgb(123,151,211)" stroke-dasharray="0" stroke-linecap="round" stroke-width="3" transform="matrix(2.46,0.0,0.0,-2.46,1476.0,1824.1200000000001)"/>
 <path d="M34.54,-3.54 c1.95,1.95,1.95,5.12,0,7.07 c-1.95,1.95,-5.12,1.95,-7.07,0.0 c-1.95,-1.95,-1.95,-5.12,0,-7.07 c1.95,-1.95,5.12,-1.95,7.07,-0.0 Z M34.54,-3.54" fill="rgb(255,255,255)" stroke="rgb(0,0,0)" stroke-dasharray="0" stroke-linecap="round" stroke-width="2" transform="matrix(2.46,0.0,0.0,-2.46,1476.0,1824.1200000000001)"/>
 <path d="M510,0 l0,0" fill="rgb(255,255,255)" stroke="rgb(123,151,211)" stroke-dasharray="0" stroke-linecap="round" stroke-width="2" transform="matrix(2.46,0.0,0.0,-2.46,1476.0,1824.1200000000001)"/>
 <path d="M510,0 l0,46" fill="rgb(255,255,255)" stroke="rgb(123,151,211)" stroke-dasharray="0" stroke-linecap="round" stroke-width="2" transform="matrix(2.46,0.0,0.0,-2.46,1476.0,1824.1200000000001)"/>
 <path d="M511.06,44.94 c0.59,0.59,0.59,1.54,0,2.12 c-0.59,0.59,-1.54,0.59,-2.12,0 c-0.59,-0.59,-0.59,-1.54,0,-2.12 c0.59,-0.59,1.54,-0.59,2.12,0 Z M511.06,44.94" fill="rgb(255,255,255)" stroke="rgb(123,151,211)" stroke-dasharray="0" stroke-linecap="round" stroke-width="3" transform="matrix(2.46,0.0,0.0,-2.46,1476.0,1824.1200000000001)"/>
 <path d="M513.54,-3.54 c1.95,1.95,1.95,5.12,0,7.07 c-1.95,1.95,-5.12,1.95,-7.07,0.0 c-1.95,-1.95,-1.95,-5.12,-0.0,-7.07 c1.95,-1.95,5.12,-1.95,7.07,-0.0 Z M513.54,-3.54" fill="rgb(255,255,255)" stroke="rgb(0,0,0)" stroke-dasharray="0" stroke-linecap="round" stroke-width="2" transform="matrix(2.46,0.0,0.0,-2.46,1476.0,1824.1200000000001)"/>
 <path d="M510,189 l0,-46" fill="rgb(255,255,255)" stroke="rgb(123,151,211)" stroke-dasharray="0" stroke-linecap="round" stroke-width="2" transform="matrix(2.46,0.0,0.0,-2.46,1476.0,1824.1200000000001)"/>
 <path d="M510,189 l0,7" fill="rgb(255,255,255)" stroke="rgb(123,151,211)" stroke-dasharray="0" stroke-linecap="round" stroke-width="2" transform="matrix(2.46,0.0,0.0,-2.46,1476.0,1824.1200000000001)"/>
 <path d="M511.06,141.94 c0.59,0.59,0.59,1.54,0,2.12 c-0.59,0.59,-1.54,0.59,-2.12,0 c-0.59,-0.59,-0.59,-1.54,0,-2.12 c0.59,-0.59,1.54,-0.59,2.12,0 Z M511.06,141.94" fill="rgb(255,255,255)" stroke="rgb(123,151,211)" stroke-dasharray="0" stroke-linecap="round" stroke-width="3" transform="matrix(2.46,0.0,0.0,-2.46,1476.0,1824.1200000000001)"/>
 <path d="M511.06,194.94 c0.59,0.59,0.59,1.54,0,2.12 c-0.59,0.59,-1.54,0.59,-2.12,0 c-0.59,-0.59,-0.59,-1.54,0,-2.12 c0.59,-0.59,1.54,-0.59,2.12,0 Z M511.06,194.94" fill="rgb(255,255,255)" stroke="rgb(123,151,211)" stroke-dasharray="0" stroke-linecap="round" stroke-width="3" transform="matrix(2.46,0.0,0.0,-2.46,1476.0,1824.1200000000001)"/>
 <path d="M513.54,185.46 c1.95,1.95,1.95,5.12,0,7.07 c-1.95,1.95,-5.12,1.95,-7.07,0 c-1.95,-1.95,-1.95,-5.12,-0.0,-7.07 c1.95,-1.95,5.12,-1.95,7.07,0 Z M513.54,185.46" fill="rgb(255,255,255)" stroke="rgb(0,0,0)" stroke-dasharray="0" stroke-linecap="round" stroke-width="2" transform="matrix(2.46,0.0,0.0,-2.46,1476.0,1824.1200000000001)"/>
 <path d="M499,200 l7,0" fill="rgb(255,255,255)" stroke="rgb(123,151,211)" stroke-dasharray="0" stroke-linecap="round" stroke-width="2" transform="matrix(2.46,0.0,0.0,-2.46,1476.0,1824.1200000000001)"/>
 <path d="M499,200 l0,0" fill="rgb(255,255,255)" stroke="rgb(123,151,211)" stroke-dasharray="0" stroke-linecap="round" stroke-width="2" transform="matrix(2.46,0.0,0.0,-2.46,1476.0,1824.1200000000001)"/>
 <path d="M507.06,198.94 c0.59,0.59,0.59,1.54,0,2.12 c-0.59,0.59,-1.54,0.59,-2.12,0 c-0.59,-0.59,-0.59,-1.54,0,-2.12 c0.59,-0.59,1.54,-0.59,2.12,0 Z M507.06,198.94" fill="rgb(255,255,255)" stroke="rgb(123,151,211)" stroke-dasharray="0" stroke-linecap="round" stroke-width="3" transform="matrix(2.46,0.0,0.0,-2.46,1476.0,1824.1200000000001)"/>
 <path d="M502.54,196.46 c1.95,1.95,1.95,5.12,0,7.07 c-1.95,1.95,-5.12,1.95,-7.07,0 c-1.95,-1.95,-1.95,-5.12,-0.0,-7.07 c1.95,-1.95,5.12,-1.95,7.07,0 Z M502.54,196.46" fill="rgb(255,255,255)" stroke="rgb(0,0,0)" stroke-dasharray="0" stroke-linecap="round" stroke-width="2" transform="matrix(2.46,0.0,0.0,-2.46,1476.0,1824.1200000000001)"/>
 <path d="M160,98 l550,503" fill="rgb(0,0,0)" stroke="rgb(255,255,255)" stroke-dasharray="0" stroke-linecap="round" stroke-width="2" transform="matrix(2.46,0.0,0.0,-2.46,0,3000)"/>
 <path d="M191,98 l744,503" fill="rgb(0,0,0)" stroke="rgb(255,255,255)" stroke-dasharray="0" stroke-linecap="round" stroke-width="2" transform="matrix(2.46,0.0,0.0,-2.46,0,3000)"/>
 <path d="M272,403 l663,482" fill="rgb(0,0,0)" stroke="rgb(255,255,255)" stroke-dasharray="0" stroke-linecap="round" stroke-width="2" transform="matrix(2.46,0.0,0.0,-2.46,0,3000)"/>
 <path d="M271,594 l616,434" fill="rgb(0,0,0)" stroke="rgb(255,255,255)" stroke-dasharray="0" stroke-linecap="round" stroke-width="2" transform="matrix(2.46,0.0,0.0,-2.46,0,3000)"/>
 <path d="M122,584 l498,444" fill="rgb(0,0,0)" stroke="rgb(255,255,255)" stroke-dasharray="0" stroke-linecap="round" stroke-width="2" transform="matrix(2.46,0.0,0.0,-2.46,0,3000)"/>
 <path d="M114,566 l506,273" fill="rgb(0,0,0)" stroke="rgb(255,255,255)" stroke-dasharray="0" stroke-linecap="round" stroke-width="2" transform="matrix(2.46,0.0,0.0,-2.46,0,3000)"/>
 <path d="M130,536 l501,292" fill="rgb(0,0,0)" stroke="rgb(255,255,255)" stroke-dasharray="0" stroke-linecap="round" stroke-width="2" transform="matrix(2.46,0.0,0.0,-2.46,0,3000)"/>
 <path d="M261,555 l432,273" fill="rgb(0,0,0)" stroke="rgb(255,255,255)" stroke-dasharray="0" stroke-linecap="round" stroke-width="2" transform="matrix(2.46,0.0,0.0,-2.46,0,3000)"/>
 <path d="M265,550 l445,278" fill="rgb(0,0,0)" stroke="rgb(255,255,255)" stroke-dasharray="0" stroke-linecap="round" stroke-width="2" transform="matrix(2.46,0.0,0.0,-2.46,0,3000)"/>
 <path d="M160,166 l550,591" fill="rgb(0,0,0)" stroke="rgb(255,255,255)" stroke-dasharray="0" stroke-linecap="round" stroke-width="2" transform="matrix(2.46,0.0,0.0,-2.46,0,3000)"/>
 <path d="M167,111 l543,584" fill="rgb(0,0,0)" stroke="rgb(255,255,255)" stroke-dasharray="0" stroke-linecap="round" stroke-width="2" transform="matrix(2.46,0.0,0.0,-2.46,0,3000)"/>
 <path d="M258,418 l650,484" fill="rgb(0,0,0)" stroke="rgb(255,255,255)" stroke-dasharray="0" stroke-linecap="round" stroke-width="2" transform="matrix(2.46,0.0,0.0,-2.46,0,3000)"/>
 <path d="M229,283 l688,470" fill="rgb(0,0,0)" stroke="rgb(255,255,255)" stroke-dasharray="0" stroke-linecap="round" stroke-width="2" transform="matrix(2.46,0.0,0.0,-2.46,0,3000)"/>
 <path d="M520,546 l523,237" fill="rgb(0,0,0)" stroke="rgb(255,255,255)" stroke-dasharray="0" stroke-linecap="round" stroke-width="2" transform="matrix(2.46,0.0,0.0,-2.46,0,3000)"/>
 <path d="M577,534 l573,231" fill="rgb(0,0,0)" stroke="rgb(255,255,255)" stroke-dasharray="0" stroke-linecap="round" stroke-width="2" transform="matrix(2.46,0.0,0.0,-2.46,0,3000)"/>
 <path d="M583,534 l587,231" fill="rgb(0,0,0)" stroke="rgb(255,255,255)" stroke-dasharray="0" stroke-linecap="round" stroke-width="2" transform="matrix(2.46,0.0,0.0,-2.46,0,3000)"/>
 <path d="M595,561 l575,453" fill="rgb(0,0,0)" stroke="rgb(255,255,255)" stroke-dasharray="0" stroke-linecap="round" stroke-width="2" transform="matrix(2.46,0.0,0.0,-2.46,0,3000)"/>
 <path d="M590,584 l577,440" fill="rgb(0,0,0)" stroke="rgb(255,255,255)" stroke-dasharray="0" stroke-linecap="round" stroke-width="2" transform="matrix(2.46,0.0,0.0,-2.46,0,3000)"/>
 <path d="M530,598 l579,440" fill="rgb(0,0,0)" stroke="rgb(255,255,255)" stroke-dasharray="0" stroke-linecap="round" stroke-width="2" transform="matrix(2.46,0.0,0.0,-2.46,0,3000)"/>
 <path d="M280,407 l665,495" fill="rgb(0,0,0)" stroke="rgb(255,255,255)" stroke-dasharray="0" stroke-linecap="round" stroke-width="2" transform="matrix(2.46,0.0,0.0,-2.46,0,3000)"/>
 <path d="M-5,106 l625,572" fill="rgb(0,0,0)" stroke="rgb(255,255,255)" stroke-dasharray="0" stroke-linecap="round" stroke-width="2" transform="matrix(2.46,0.0,0.0,-2.46,0,3000)"/>
 <path d="M-12,90 l632,399" fill="rgb(0,0,0)" stroke="rgb(255,255,255)" stroke-dasharray="0" stroke-linecap="round" stroke-width="2" transform="matrix(2.46,0.0,0.0,-2.46,0,3000)"/>
 <path d="M9,58 l622,420" fill="rgb(0,0,0)" stroke="rgb(255,255,255)" stroke-dasharray="0" stroke-linecap="round" stroke-width="2" transform="matrix(2.46,0.0,0.0,-2.46,0,3000)"/>
 <path d="M400,58 l710,420" fill="rgb(0,0,0)" stroke="rgb(255,255,255)" stroke-dasharray="0" stroke-linecap="round" stroke-width="2" transform="matrix(2.46,0.0,0.0,-2.46,0,3000)"/>
 <path d="M402,66 l708,601" fill="rgb(0,0,0)" stroke="rgb(255,255,255)" stroke-dasharray="0" stroke-linecap="round" stroke-width="2" transform="matrix(2.46,0.0,0.0,-2.46,0,3000)"/>
 <path d="M202,106 l897,572" fill="rgb(0,0,0)" stroke="rgb(255,255,255)" stroke-dasharray="0" stroke-linecap="round" stroke-width="2" transform="matrix(2.46,0.0,0.0,-2.46,0,3000)"/>
 <path d="M160,98 l550,503" fill="rgb(0,0,0)" stroke="rgb(255,255,255)" stroke-dasharray="0" stroke-linecap="round" stroke-opacity="0.175" stroke-width="2" transform="matrix(2.46,0.0,0.0,-2.46,0,3000)"/>
 <path d="M160,98 l550,503" fill="rgb(0,0,0)" stroke="rgb(255,255,255)" stroke-dasharray="0" stroke-linecap="round" stroke-opacity="0.175" stroke-width="2" transform="matrix(2.46,0.0,0.0,-2.46,0,3000)"/>
 <path d="M191,98 l744,503" fill="rgb(0,0,0)" stroke="rgb(255,255,255)" stroke-dasharray="0" stroke-linecap="round" stroke-opacity="0.175" stroke-width="2" transform="matrix(2.46,0.0,0.0,-2.46,0,3000)"/>
 <path d="M202,210 l733,493" fill="rgb(0,0,0)" stroke="rgb(255,255,255)" stroke-dasharray="0" stroke-linecap="round" stroke-opacity="0.175" stroke-width="2" transform="matrix(2.46,0.0,0.0,-2.46,0,3000)"/>
 <path d="M243,304 l692,497" fill="rgb(0,0,0)" stroke="rgb(255,255,255)" stroke-dasharray="0" stroke-linecap="round" stroke-opacity="0.175" stroke-width="2" transform="matrix(2.46,0.0,0.0,-2.46,0,3000)"/>
 <path d="M310,532 l625,354" fill="rgb(0,0,0)" stroke="rgb(255,255,255)" stroke-dasharray="0" stroke-linecap="round" stroke-opacity="0.175" stroke-width="2" transform="matrix(2.46,0.0,0.0,-2.46,0,3000)"/>
 <path d="M318,594 l570,434" fill="rgb(0,0,0)" stroke="rgb(255,255,255)" stroke-dasharray="0" stroke-linecap="round" stroke-opacity="0.175" stroke-width="2" transform="matrix(2.46,0.0,0.0,-2.46,0,3000)"/>
 <path d="M214,594 l673,434" fill="rgb(0,0,0)" stroke="rgb(255,255,255)" stroke-dasharray="0" stroke-linecap="round" stroke-opacity="0.175" stroke-width="2" transform="matrix(2.46,0.0,0.0,-2.46,0,3000)"/>
 <path d="M184,590 l436,438" fill="rgb(0,0,0)" stroke="rgb(255,255,255)" stroke-dasharray="0" stroke-linecap="round" stroke-opacity="0.175" stroke-width="2" transform="matrix(2.46,0.0,0.0,-2.46,0,3000)"/>
 <path d="M118,579 l502,386" fill="rgb(0,0,0)" stroke="rgb(255,255,255)" stroke-dasharray="0" stroke-linecap="round" stroke-opacity="0.175" stroke-width="2" transform="matrix(2.46,0.0,0.0,-2.46,0,3000)"/>
 <path d="M116,573 l504,329" fill="rgb(0,0,0)" stroke="rgb(255,255,255)" stroke-dasharray="0" stroke-linecap="round" stroke-opacity="0.175" stroke-width="2" transform="matrix(2.46,0.0,0.0,-2.46,0,3000)"/>
 <path d="M109,547 l511,285" fill="rgb(0,0,0)" stroke="rgb(255,255,255)" stroke-dasharray="0" stroke-linecap="round" stroke-opacity="0.175" stroke-width="2" transform="matrix(2.46,0.0,0.0,-2.46,0,3000)"/>
 <path d="M116,536 l508,292" fill="rgb(0,0,0)" stroke="rgb(255,255,255)" stroke-dasharray="0" stroke-linecap="round" stroke-opacity="0.175" stroke-width="2" transform="matrix(2.46,0.0,0.0,-2.46,0,3000)"/>
 <path d="M147,536 l504,292" fill="rgb(0,0,0)" stroke="rgb(255,255,255)" stroke-dasharray="0" stroke-linecap="round" stroke-opacity="0.175" stroke-width="2" transform="matrix(2.46,0.0,0.0,-2.46,0,3000)"/>
 <path d="M174,545 l498,283" fill="rgb(0,0,0)" stroke="rgb(255,255,255)" stroke-dasharray="0" stroke-linecap="round" stroke-opacity="0.175" stroke-width="2" transform="matrix(2.46,0.0,0.0,-2.46,0,3000)"/>
 <path d="M261,555 l432,273" fill="rgb(0,0,0)" stroke="rgb(255,255,255)" stroke-dasharray="0" stroke-linecap="round" stroke-opacity="0.175" stroke-width="2" transform="matrix(2.46,0.0,0.0,-2.46,0,3000)"/>
 <path d="M265,550 l445,278" fill="rgb(0,0,0)" stroke="rgb(255,255,255)" stroke-dasharray="0" stroke-linecap="round" stroke-opacity="0.175" stroke-width="2" transform="matrix(2.46,0.0,0.0,-2.46,0,3000)"/>
 <path d="M241,403 l469,401" fill="rgb(0,0,0)" stroke="rgb(255,255,255)" stroke-dasharray="0" stroke-linecap="round" stroke-opacity="0.175" stroke-width="2" transform="matrix(2.46,0.0,0.0,-2.46,0,3000)"/>
 <path d="M181,301 l529,479" fill="rgb(0,0,0)" stroke="rgb(255,255,255)" stroke-dasharray="0" stroke-linecap="round" stroke-opacity="0.175" stroke-width="2" transform="matrix(2.46,0.0,0.0,-2.46,0,3000)"/>
 <path d="M155,137 l555,599" fill="rgb(0,0,0)" stroke="rgb(255,255,255)" stroke-dasharray="0" stroke-linecap="round" stroke-opacity="0.175" stroke-width="2" transform="matrix(2.46,0.0,0.0,-2.46,0,3000)"/>
 <path d="M158,120 l552,596" fill="rgb(0,0,0)" stroke="rgb(255,255,255)" stroke-dasharray="0" stroke-linecap="round" stroke-opacity="0.175" stroke-width="2" transform="matrix(2.46,0.0,0.0,-2.46,0,3000)"/>
 <path d="M167,111 l543,584" fill="rgb(0,0,0)" stroke="rgb(255,255,255)" stroke-dasharray="0" stroke-linecap="round" stroke-opacity="0.175" stroke-width="2" transform="matrix(2.46,0.0,0.0,-2.46,0,3000)"/>
 <path d="M258,418 l650,484" fill="rgb(0,0,0)" stroke="rgb(255,255,255)" stroke-dasharray="0" stroke-linecap="round" stroke-opacity="0.175" stroke-width="2" transform="matrix(2.46,0.0,0.0,-2.46,0,3000)"/>
 <path d="M258,418 l650,484" fill="rgb(0,0,0)" stroke="rgb(255,255,255)" stroke-dasharray="0" stroke-linecap="round" stroke-opacity="0.175" stroke-width="2" transform="matrix(2.46,0.0,0.0,-2.46,0,3000)"/>
 <path d="M229,283 l688,470" fill="rgb(0,0,0)" stroke="rgb(255,255,255)" stroke-dasharray="0" stroke-linecap="round" stroke-opacity="0.175" stroke-width="2" transform="matrix(2.46,0.0,0.0,-2.46,0,3000)"/>
 <path d="M331,454 l620.66,320.41" fill="rgb(0,0,0)" stroke="rgb(255,255,255)" stroke-dasharray="0" stroke-linecap="round" stroke-opacity="0.175" stroke-width="2" transform="matrix(2.46,0.0,0.0,-2.46,0,3000)"/>
 <path d="M438,546 l561.98,237" fill="rgb(0,0,0)" stroke="rgb(255,255,255)" stroke-dasharray="0" stroke-linecap="round" stroke-opacity="0.175" stroke-width="2" transform="matrix(2.46,0.0,0.0,-2.46,0,3000)"/>
 <path d="M551,546 l525.07,237" fill="rgb(0,0,0)" stroke="rgb(255,255,255)" stroke-dasharray="0" stroke-linecap="round" stroke-opacity="0.175" stroke-width="2" transform="matrix(2.46,0.0,0.0,-2.46,0,3000)"/>
 <path d="M567,542 l546.87,234.72" fill="rgb(0,0,0)" stroke="rgb(255,255,255)" stroke-dasharray="0" stroke-linecap="round" stroke-opacity="0.175" stroke-width="2" transform="matrix(2.46,0.0,0.0,-2.46,0,3000)"/>
 <path d="M577,534 l573,231" fill="rgb(0,0,0)" stroke="rgb(255,255,255)" stroke-dasharray="0" stroke-linecap="round" stroke-opacity="0.175" stroke-width="2" transform="matrix(2.46,0.0,0.0,-2.46,0,3000)"/>
 <path d="M583,534 l587,231" fill="rgb(0,0,0)" stroke="rgb(255,255,255)" stroke-dasharray="0" stroke-linecap="round" stroke-opacity="0.175" stroke-width="2" transform="matrix(2.46,0.0,0.0,-2.46,0,3000)"/>
 <path d="M588,542 l582,306" fill="rgb(0,0,0)" stroke="rgb(255,255,255)" stroke-dasharray="0" stroke-linecap="round" stroke-opacity="0.175" stroke-width="2" transform="matrix(2.46,0.0,0.0,-2.46,0,3000)"/>
 <path d="M593,551 l577,380" fill="rgb(0,0,0)" stroke="rgb(255,255,255)" stroke-dasharray="0" stroke-linecap="round" stroke-opacity="0.175" stroke-width="2" transform="matrix(2.46,0.0,0.0,-2.46,0,3000)"/>
 <path d="M597,572 l573,447" fill="rgb(0,0,0)" stroke="rgb(255,255,255)" stroke-dasharray="0" stroke-linecap="round" stroke-opacity="0.175" stroke-width="2" transform="matrix(2.46,0.0,0.0,-2.46,0,3000)"/>
 <path d="M595,579 l574,443" fill="rgb(0,0,0)" stroke="rgb(255,255,255)" stroke-dasharray="0" stroke-linecap="round" stroke-opacity="0.175" stroke-width="2" transform="matrix(2.46,0.0,0.0,-2.46,0,3000)"/>
 <path d="M580,594 l580,437" fill="rgb(0,0,0)" stroke="rgb(255,255,255)" stroke-dasharray="0" stroke-linecap="round" stroke-opacity="0.175" stroke-width="2" transform="matrix(2.46,0.0,0.0,-2.46,0,3000)"/>
 <path d="M562,598 l577,440" fill="rgb(0,0,0)" stroke="rgb(255,255,255)" stroke-dasharray="0" stroke-linecap="round" stroke-opacity="0.175" stroke-width="2" transform="matrix(2.46,0.0,0.0,-2.46,0,3000)"/>
 <path d="M439,598 l600,440" fill="rgb(0,0,0)" stroke="rgb(255,255,255)" stroke-dasharray="0" stroke-linecap="round" stroke-opacity="0.175" stroke-width="2" transform="matrix(2.46,0.0,0.0,-2.46,0,3000)"/>
 <path d="M357,529 l626,472" fill="rgb(0,0,0)" stroke="rgb(255,255,255)" stroke-dasharray="0" stroke-linecap="round" stroke-opacity="0.175" stroke-width="2" transform="matrix(2.46,0.0,0.0,-2.46,0,3000)"/>
 <path d="M280,407 l665,495" fill="rgb(0,0,0)" stroke="rgb(255,255,255)" stroke-dasharray="0" stroke-linecap="round" stroke-opacity="0.175" stroke-width="2" transform="matrix(2.46,0.0,0.0,-2.46,0,3000)"/>
 <path d="M-5,106 l625,572" fill="rgb(0,0,0)" stroke="rgb(255,255,255)" stroke-dasharray="0" stroke-linecap="round" stroke-opacity="0.175" stroke-width="2" transform="matrix(2.46,0.0,0.0,-2.46,0,3000)"/>
 <path d="M-8,102 l628,530" fill="rgb(0,0,0)" stroke="rgb(255,255,255)" stroke-dasharray="0" stroke-linecap="round" stroke-opacity="0.175" stroke-width="2" transform="matrix(2.46,0.0,0.0,-2.46,0,3000)"/>
 <path d="M-10,97 l630,438" fill="rgb(0,0,0)" stroke="rgb(255,255,255)" stroke-dasharray="0" stroke-linecap="round" stroke-opacity="0.175" stroke-width="2" transform="matrix(2.46,0.0,0.0,-2.46,0,3000)"/>
 <path d="M-17,73 l637,409" fill="rgb(0,0,0)" stroke="rgb(255,255,255)" stroke-dasharray="0" stroke-linecap="round" stroke-opacity="0.175" stroke-width="2" transform="matrix(2.46,0.0,0.0,-2.46,0,3000)"/>
 <path d="M-10,58 l634,420" fill="rgb(0,0,0)" stroke="rgb(255,255,255)" stroke-dasharray="0" stroke-linecap="round" stroke-opacity="0.175" stroke-width="2" transform="matrix(2.46,0.0,0.0,-2.46,0,3000)"/>
 <path d="M9,58 l622,420" fill="rgb(0,0,0)" stroke="rgb(255,255,255)" stroke-dasharray="0" stroke-linecap="round" stroke-opacity="0.175" stroke-width="2" transform="matrix(2.46,0.0,0.0,-2.46,0,3000)"/>
 <path d="M400,58 l710,420" fill="rgb(0,0,0)" stroke="rgb(255,255,255)" stroke-dasharray="0" stroke-linecap="round" stroke-opacity="0.175" stroke-width="2" transform="matrix(2.46,0.0,0.0,-2.46,0,3000)"/>
 <path d="M401,60 l709,464" fill="rgb(0,0,0)" stroke="rgb(255,255,255)" stroke-dasharray="0" stroke-linecap="round" stroke-opacity="0.175" stroke-width="2" transform="matrix(2.46,0.0,0.0,-2.46,0,3000)"/>
 <path d="M402,64 l708,557" fill="rgb(0,0,0)" stroke="rgb(255,255,255)" stroke-dasharray="0" stroke-linecap="round" stroke-opacity="0.175" stroke-width="2" transform="matrix(2.46,0.0,0.0,-2.46,0,3000)"/>
 <path d="M408,88 l702,586" fill="rgb(0,0,0)" stroke="rgb(255,255,255)" stroke-dasharray="0" stroke-linecap="round" stroke-opacity="0.175" stroke-width="2" transform="matrix(2.46,0.0,0.0,-2.46,0,3000)"/>
 <path d="M321,106 l785,572" fill="rgb(0,0,0)" stroke="rgb(255,255,255)" stroke-dasharray="0" stroke-linecap="round" stroke-opacity="0.175" stroke-width="2" transform="matrix(2.46,0.0,0.0,-2.46,0,3000)"/>
 <path d="M202,106 l897,572" fill="rgb(0,0,0)" stroke="rgb(255,255,255)" stroke-dasharray="0" stroke-linecap="round" stroke-opacity="0.175" stroke-width="2" transform="matrix(2.46,0.0,0.0,-2.46,0,3000)"/>
</svg>