<?xml version="1.0" encoding="utf-8"?>
<!-- Generator: Adobe Illustrator 22.1.0, SVG Export Plug-In . SVG Version: 6.00 Build 0)  -->
<svg version="1.1" id="Layer_1" xmlns="http://www.w3.org/2000/svg" xmlns:xlink="http://www.w3.org/1999/xlink" x="0px" y="0px"
	 viewBox="0 0 600 500" style="enable-background:new 0 0 600 500;" xml:space="preserve">
<style type="text/css">
	.st0{fill:#1B1C23;}
	.st1{fill:#533BE6;fill-opacity:0.3;stroke:#533BE6;stroke-width:2;stroke-linecap:round;stroke-opacity:0.75;}
	.st2{fill:#FFFFFF;fill-opacity:0.5;stroke:#FFFFFF;stroke-width:2;stroke-linecap:round;}
	.st3{fill:#D22EED;fill-opacity:0;stroke:#D22EED;stroke-width:2;stroke-linecap:round;stroke-opacity:0;}
	.st4{fill:#1B1C23;stroke:#BFBFBF;stroke-width:2;stroke-linecap:round;stroke-opacity:0.75;stroke-dasharray:4;}
	.st5{fill:#1B1C23;stroke:#BFBFBF;stroke-width:2;stroke-linecap:round;stroke-opacity:0.25;stroke-dasharray:4;}
	.st6{fill:#533BE6;fill-opacity:0;stroke:#533BE6;stroke-width:2;stroke-linecap:round;stroke-opacity:0;stroke-dasharray:0;}
	.st7{fill:#FF00FF;stroke:#FFFFFF;stroke-width:2;stroke-linecap:round;stroke-dasharray:0;}
	.st8{fill:#FFFFFF;fill-opacity:0.5;stroke:#FFFFFF;stroke-width:3;stroke-linecap:round;stroke-dasharray:0;}
	.st9{fill:#FFFFFF;fill-opacity:0.5;stroke:#FFFFFF;stroke-width:2;stroke-linecap:round;stroke-dasharray:0;}
	.st10{fill:#F0A43F;fill-opacity:0.35;stroke:#F0A43F;stroke-width:2;stroke-linecap:round;stroke-dasharray:0;}
</style>
<path class="st0" d="M0,500h600V0H0V500z"/>
<path class="st1" d="M10,340c0,6,0,12,0,19c0,59.5,8,93,26,111c15,15,35,20,81,20h298c4-21,7-44,7-63c0-66-17-87-73-87H10z"/>
<path class="st2" d="M13.5,343.5c1.9-2,1.9-5.1,0-7.1s-5.1-2-7.1,0s-1.9,5.1,0,7.1S11.6,345.5,13.5,343.5z"/>
<path class="st2" d="M13.5,362.5c1.9-2,1.9-5.1,0-7.1s-5.1-2-7.1,0s-1.9,5.1,0,7.1S11.6,364.5,13.5,362.5z"/>
<path class="st2" d="M39.5,473.5c1.9-1.9,1.9-5.1,0-7.1c-1.9-1.9-5.1-1.9-7.1,0c-1.9,2-1.9,5.1,0,7.1S37.6,475.5,39.5,473.5z"/>
<path class="st2" d="M120.5,493.5c1.9-1.9,1.9-5.1,0-7.1c-1.9-1.9-5.1-1.9-7.1,0c-1.9,2-1.9,5.1,0,7.1S118.6,495.5,120.5,493.5z"/>
<path class="st2" d="M418.5,493.5c2-1.9,2-5.1,0-7.1c-2-1.9-5.1-1.9-7.1,0c-2,2-2,5.1,0,7.1S416.6,495.5,418.5,493.5z"/>
<path class="st2" d="M425.5,430.5c2-2,2-5.1,0-7.1s-5.1-2-7.1,0s-2,5.1,0,7.1S423.6,432.5,425.5,430.5z"/>
<path class="st2" d="M352.5,343.5c2-2,2-5.1,0-7.1s-5.1-2-7.1,0s-2,5.1,0,7.1S350.6,345.5,352.5,343.5z"/>
<path class="st3" d="M310-109c0,46,0,86,0,132c0,3,1,6,3,8s5,3,8,3h369c0-46,0-86,0-132c0-6-5-11-11-11H310z"/>
<path class="st4" d="M10,340L210,10"/>
<path class="st4" d="M10,359l200-217"/>
<path class="st4" d="M36,470l177-320"/>
<path class="st4" d="M117,490l104-337"/>
<path class="st4" d="M415,490l175-337"/>
<path class="st4" d="M422,427L590,21"/>
<path class="st4" d="M349,340L579,10"/>
<path class="st5" d="M10,346L210,56"/>
<path class="st5" d="M10,352L210,96"/>
<path class="st5" d="M10,418.5L210,145"/>
<path class="st5" d="M18,452l193-304"/>
<path class="st5" d="M51,485l164-333"/>
<path class="st5" d="M71,490l147-337"/>
<path class="st5" d="M419,469l171-362"/>
<path class="st5" d="M422,446L590,67"/>
<path class="st5" d="M422,361L590,15"/>
<path class="st5" d="M405,340L585,10"/>
<path class="st5" d="M349,340L579,10"/>
<path class="st6" d="M10,340c0,6,0,12,0,19c0,59.5,8,93,26,111c15,15,35,20,81,20h298c4-21,7-44,7-63c0-66-17-87-73-87H10z"/>
<path class="st7" d="M13.5,343.5c1.9-2,1.9-5.1,0-7.1s-5.1-2-7.1,0s-1.9,5.1,0,7.1S11.6,345.5,13.5,343.5z"/>
<path class="st8" d="M11.1,348.1c0.6-0.6,0.6-1.5,0-2.1c-0.6-0.6-1.5-0.6-2.1,0c-0.6,0.6-0.6,1.5,0,2.1
	C9.5,348.7,10.5,348.7,11.1,348.1z"/>
<path class="st9" d="M10,345v1"/>
<path class="st7" d="M13.5,362.5c1.9-2,1.9-5.1,0-7.1s-5.1-2-7.1,0s-1.9,5.1,0,7.1S11.6,364.5,13.5,362.5z"/>
<path class="st8" d="M11.1,353.1c0.6-0.6,0.6-1.5,0-2.1c-0.6-0.6-1.5-0.6-2.1,0c-0.6,0.6-0.6,1.5,0,2.1
	C9.5,353.6,10.5,353.6,11.1,353.1z"/>
<path class="st8" d="M11.1,419.5c0.6-0.6,0.6-1.5,0-2.1c-0.6-0.6-1.5-0.6-2.1,0c-0.6,0.6-0.6,1.5,0,2.1
	C9.5,420.1,10.5,420.1,11.1,419.5z"/>
<path class="st9" d="M10,354v-2"/>
<path class="st9" d="M10,364v54.5"/>
<path class="st7" d="M39.5,473.5c1.9-1.9,1.9-5.1,0-7.1c-1.9-1.9-5.1-1.9-7.1,0c-1.9,2-1.9,5.1,0,7.1S37.6,475.5,39.5,473.5z"/>
<path class="st8" d="M19.1,453.1c0.6-0.6,0.6-1.5,0-2.1c-0.6-0.6-1.5-0.6-2.1,0c-0.6,0.6-0.6,1.5,0,2.1
	C17.5,453.6,18.5,453.6,19.1,453.1z"/>
<path class="st8" d="M52.1,486.1c0.6-0.6,0.6-1.5,0-2.1c-0.6-0.6-1.5-0.6-2.1,0c-0.6,0.6-0.6,1.5,0,2.1
	C50.5,486.6,51.5,486.6,52.1,486.1z"/>
<path class="st9" d="M32.5,466.5L18,452"/>
<path class="st9" d="M39.5,473.5L51,485"/>
<path class="st7" d="M120.5,493.5c1.9-1.9,1.9-5.1,0-7.1c-1.9-1.9-5.1-1.9-7.1,0c-1.9,2-1.9,5.1,0,7.1S118.6,495.5,120.5,493.5z"/>
<path class="st8" d="M72.1,491.1c0.6-0.6,0.6-1.5,0-2.1c-0.6-0.6-1.5-0.6-2.1,0c-0.6,0.6-0.6,1.5,0,2.1
	C70.5,491.6,71.5,491.6,72.1,491.1z"/>
<path class="st9" d="M112,490H71"/>
<path class="st7" d="M418.5,493.5c2-1.9,2-5.1,0-7.1c-2-1.9-5.1-1.9-7.1,0c-2,2-2,5.1,0,7.1S416.6,495.5,418.5,493.5z"/>
<path class="st8" d="M420.1,470.1c0.6-0.6,0.6-1.5,0-2.1c-0.6-0.6-1.5-0.6-2.1,0c-0.6,0.6-0.6,1.5,0,2.1
	C418.5,470.6,419.5,470.6,420.1,470.1z"/>
<path class="st9" d="M415.9,485.1L419,469"/>
<path class="st7" d="M425.5,430.5c2-2,2-5.1,0-7.1s-5.1-2-7.1,0s-2,5.1,0,7.1S423.6,432.5,425.5,430.5z"/>
<path class="st8" d="M423.1,447.1c0.6-0.6,0.6-1.5,0-2.1c-0.6-0.6-1.5-0.6-2.1,0c-0.6,0.6-0.6,1.5,0,2.1
	C421.5,447.6,422.5,447.6,423.1,447.1z"/>
<path class="st8" d="M423.1,362.1c0.6-0.6,0.6-1.5,0-2.1c-0.6-0.6-1.5-0.6-2.1,0c-0.6,0.6-0.6,1.5,0,2.1
	C421.5,362.6,422.5,362.6,423.1,362.1z"/>
<path class="st9" d="M422,432v14"/>
<path class="st9" d="M422,422v-61"/>
<path class="st7" d="M352.5,343.5c2-2,2-5.1,0-7.1s-5.1-2-7.1,0s-2,5.1,0,7.1S350.6,345.5,352.5,343.5z"/>
<path class="st8" d="M406.1,341.1c0.6-0.6,0.6-1.5,0-2.1c-0.6-0.6-1.5-0.6-2.1,0c-0.6,0.6-0.6,1.5,0,2.1
	C404.5,341.6,405.5,341.6,406.1,341.1z"/>
<path class="st9" d="M354,340h51"/>
<path class="st10" d="M210,10c0,46,0,86,0,132c0,3,1,6,3,8s5,3,8,3h369c0-46,0-86,0-132c0-6-5-11-11-11H210z"/>
<path class="st7" d="M213.5,13.5c1.9-2,1.9-5.1,0-7.1c-2-2-5.1-2-7.1,0s-1.9,5.1,0,7.1S211.6,15.5,213.5,13.5z"/>
<path class="st8" d="M211.1,57.1c0.6-0.6,0.6-1.5,0-2.1c-0.6-0.6-1.5-0.6-2.1,0c-0.6,0.6-0.6,1.5,0,2.1
	C209.5,57.6,210.5,57.6,211.1,57.1z"/>
<path class="st9" d="M210,15v41"/>
<path class="st7" d="M213.5,145.5c1.9-1.9,1.9-5.1,0-7.1c-2-1.9-5.1-1.9-7.1,0s-1.9,5.1,0,7.1C208.4,147.5,211.6,147.5,213.5,145.5z
	"/>
<path class="st8" d="M211.1,97.1c0.6-0.6,0.6-1.5,0-2.1c-0.6-0.6-1.5-0.6-2.1,0c-0.6,0.6-0.6,1.5,0,2.1
	C209.5,97.6,210.5,97.6,211.1,97.1z"/>
<path class="st9" d="M210,136.8V96"/>
<path class="st7" d="M216.5,153.5c1.9-1.9,1.9-5.1,0-7.1c-2-1.9-5.1-1.9-7.1,0s-1.9,5.1,0,7.1C211.4,155.5,214.6,155.5,216.5,153.5z
	"/>
<path class="st7" d="M224.5,156.5c1.9-1.9,1.9-5.1,0-7.1c-2-1.9-5.1-1.9-7.1,0s-1.9,5.1,0,7.1C219.4,158.5,222.6,158.5,224.5,156.5z
	"/>
<path class="st7" d="M593.5,156.5c1.9-1.9,1.9-5.1,0-7.1c-2-1.9-5.1-1.9-7.1,0c-1.9,1.9-1.9,5.1,0,7.1
	C588.4,158.5,591.6,158.5,593.5,156.5z"/>
<path class="st8" d="M591.1,108.1c0.6-0.6,0.6-1.5,0-2.1c-0.6-0.6-1.5-0.6-2.1,0c-0.6,0.6-0.6,1.5,0,2.1
	C589.5,108.6,590.5,108.6,591.1,108.1z"/>
<path class="st9" d="M590,148v-41"/>
<path class="st7" d="M593.5,24.5c1.9-2,1.9-5.1,0-7.1c-2-2-5.1-2-7.1,0c-1.9,2-1.9,5.1,0,7.1C588.4,26.5,591.6,26.5,593.5,24.5z"/>
<path class="st8" d="M591.1,68.1c0.6-0.6,0.6-1.5,0-2.1c-0.6-0.6-1.5-0.6-2.1,0c-0.6,0.6-0.6,1.5,0,2.1
	C589.5,68.6,590.5,68.6,591.1,68.1z"/>
<path class="st8" d="M591.1,16.1c0.6-0.6,0.6-1.5,0-2.1c-0.6-0.6-1.5-0.6-2.1,0c-0.6,0.6-0.6,1.5,0,2.1
	C589.5,16.6,590.5,16.6,591.1,16.1z"/>
<path class="st9" d="M590,26v41"/>
<path class="st7" d="M582.5,13.5c1.9-2,1.9-5.1,0-7.1c-2-2-5.1-2-7.1,0c-1.9,2-1.9,5.1,0,7.1C577.4,15.5,580.6,15.5,582.5,13.5z"/>
<path class="st8" d="M586.1,11.1c0.6-0.6,0.6-1.5,0-2.1c-0.6-0.6-1.5-0.6-2.1,0c-0.6,0.6-0.6,1.5,0,2.1
	C584.5,11.6,585.5,11.6,586.1,11.1z"/>
</svg>
