<?xml version="1.0" encoding="utf-8"?>
<!-- Generator: Adobe Illustrator 23.0.3, SVG Export Plug-In . SVG Version: 6.00 Build 0)  -->
<svg version="1.1" id="Layer_1" xmlns="http://www.w3.org/2000/svg" xmlns:xlink="http://www.w3.org/1999/xlink" x="0px" y="0px"
	 viewBox="0 0 252 252" style="enable-background:new 0 0 252 252;" xml:space="preserve">
<style type="text/css">
	.st0{fill:#FFFFFF;}
	.st1{fill:#EC008C;}
</style>
<g>
	<g>
		<path d="M237.1,47.94c0,5.26-0.47,9.54-1.41,12.87c-0.94,3.32-1.77,5.34-2.49,6.06c-0.22,0.22-0.41,0.36-0.58,0.42
			c-0.17,0.05-0.44,0.08-0.83,0.08c-1.61,0-3.18,0-4.73,0c-1.55,0-3.11,0-4.69,0s-3.17,0-4.77,0c0-2.55,0-5.09,0-7.64
			c0-2.55,0-5.12,0-7.72c0-0.33,0.1-0.55,0.29-0.66c0.19-0.11,0.4-0.17,0.62-0.17c0.33,0,0.69,0,1.08,0c0.39,0,0.82,0,1.29,0
			c0.47,0,0.93,0,1.37,0c0.44,0,0.88,0,1.33,0l-3.15,2.41c0.39-1,0.63-1.87,0.75-2.62c0.11-0.75,0.17-1.59,0.17-2.53
			c0-0.94-0.03-1.85-0.08-2.74c-0.06-0.89-0.18-1.66-0.37-2.32c-0.2-0.66-0.49-1.19-0.87-1.58c-0.39-0.39-0.91-0.58-1.58-0.58h-0.83
			c-0.5,0-0.96,0.08-1.37,0.25c-0.42,0.17-0.76,0.51-1.04,1.04c-0.28,0.53-0.53,1.29-0.75,2.28l-1.74,8.47
			c-0.61,2.99-1.33,5.45-2.16,7.39c-0.83,1.94-1.85,3.46-3.07,4.56c-1.22,1.11-2.68,1.88-4.4,2.32c-1.71,0.44-3.73,0.66-6.06,0.66
			h-4.32c-3.82,0-6.99-1-9.5-2.99c-2.52-1.99-4.4-4.81-5.64-8.47c-1.25-3.65-1.87-7.97-1.87-12.95c0-3.21,0.24-6.23,0.71-9.05
			c0.47-2.82,1.06-5.22,1.78-7.18c0.72-1.96,1.38-3.28,1.99-3.94c0.11-0.06,0.22-0.11,0.33-0.17c0.11-0.06,0.22-0.08,0.33-0.08
			c2.71,0,5.41,0,8.09,0c2.68,0,5.38,0,8.09,0v1.66c-1,1.88-1.85,3.82-2.57,5.81c-0.72,1.99-1.26,4.09-1.62,6.31
			c-0.36,2.21-0.54,4.59-0.54,7.14c0,2.77,0.28,4.54,0.83,5.31c0.55,0.77,1.19,1.16,1.91,1.16h0.91c0.39,0,0.76-0.1,1.12-0.29
			c0.36-0.19,0.69-0.55,1-1.08c0.3-0.53,0.54-1.26,0.71-2.2l1.66-7.55c0.77-3.54,1.67-6.38,2.7-8.51c1.02-2.13,2.2-3.72,3.53-4.77
			c1.33-1.05,2.78-1.74,4.36-2.08c1.58-0.33,3.3-0.5,5.19-0.5h3.73c2.6,0,4.95,0.55,7.05,1.66c2.1,1.11,3.9,2.71,5.39,4.81
			c1.49,2.1,2.66,4.65,3.49,7.64S237.1,44.23,237.1,47.94z"/>
		<path d="M191.54,95c-0.94,0-1.61,0.21-1.99,0.62c-0.39,0.42-0.58,1.06-0.58,1.95c0,1,0.11,1.91,0.33,2.74
			c0.22,0.83,0.54,1.62,0.96,2.37c0.41,0.75,0.93,1.48,1.54,2.2l-8.05,1.08v-2.74c-1.49-0.83-2.78-1.8-3.86-2.9
			c-1.08-1.11-1.91-2.44-2.49-3.98c-0.58-1.55-0.87-3.38-0.87-5.48c0-2.6,0.46-4.87,1.37-6.81c0.91-1.94,2.23-3.43,3.94-4.48
			s3.79-1.58,6.23-1.58h3.32c1.99,0,3.78,0.29,5.35,0.87c1.58,0.58,2.92,1.42,4.03,2.53c1.11,1.11,1.94,2.49,2.49,4.15
			s0.83,3.57,0.83,5.73s0,4.21,0,6.14c0,1.94,0,3.71,0,5.31s0,2.96,0,4.07c0,0.44-0.17,0.77-0.5,1c-0.33,0.22-1.08,0.37-2.24,0.46
			c-1.16,0.08-3.02,0.12-5.56,0.12c0-1.16,0-2.34,0-3.53s0-2.38,0-3.57c0-1.19,0-2.37,0-3.53c0-0.44-0.06-0.83-0.17-1.16
			c-0.11-0.33-0.3-0.64-0.58-0.91c-0.22-0.22-0.5-0.39-0.83-0.5S193.47,95,193.03,95H191.54z M207.22,121.31c-1.05,0-2.1,0-3.15,0
			s-2.1,0-3.15,0s-2.1,0-3.15,0c-1.05,0-2.1,0-3.15,0c-0.39,0-0.71,0.08-0.96,0.25s-0.37,0.44-0.37,0.83c0,0.05,0,0.1,0,0.12
			c0,0.03,0,0.07,0,0.12s0,0.11,0,0.17v2.08c-2.49,0-4.99,0-7.51,0c-2.52,0-5.02,0-7.51,0c-0.28,0-0.5-0.08-0.66-0.25
			s-0.25-0.39-0.25-0.66s0-1.04,0-2.28c0-1.25,0-2.34,0-3.28c0-1.88,0.24-3.72,0.71-5.52c0.47-1.8,1.19-3.4,2.16-4.81
			c0.97-1.41,2.21-2.53,3.74-3.36c1.52-0.83,3.33-1.24,5.44-1.24c1.88,0,3.78,0,5.69,0s3.8,0,5.68,0c0.44,0,0.87,0,1.29,0
			s0.83,0,1.25,0s0.84,0,1.29,0c1.16,0,2.09-0.2,2.78-0.58c0.69-0.39,1.19-1.08,1.49-2.07c0.3-1,0.46-2.46,0.46-4.4
			c0-1.66-0.08-3.33-0.25-5.02c-0.17-1.69-0.39-3.38-0.66-5.06c-0.28-1.69-0.61-3.36-1-5.02v-1.66c2.27,0,4.5,0,6.68,0
			c2.19,0,4.38,0,6.6,0c0.22,0,0.4,0.03,0.54,0.08c0.14,0.05,0.23,0.11,0.29,0.17c0.39,0.39,0.79,1.51,1.2,3.36s0.77,4.15,1.08,6.89
			c0.3,2.74,0.46,5.57,0.46,8.51c0,3.93-0.33,7.32-1,10.17c-0.66,2.85-1.7,5.2-3.11,7.05c-1.41,1.85-3.18,3.22-5.31,4.11
			C212.69,120.87,210.15,121.31,207.22,121.31z"/>
		<path d="M177.34,152.27c0-1.49,0-3.35,0-5.56s0-4.43,0-6.64c0-2.21,0-4.07,0-5.56c0-0.17,0.01-0.3,0.04-0.42
			c0.03-0.11,0.08-0.21,0.17-0.29c0.08-0.08,0.18-0.14,0.29-0.17c0.11-0.03,0.25-0.04,0.42-0.04c3.04,0,6.09,0,9.13,0
			c3.04,0,6.1,0,9.17,0c3.07,0,6.13,0,9.17,0s6.09,0,9.13,0c1.49,0,2.93,0,4.32,0c1.38,0,2.66,0,3.82,0c0,1.66,0,3.61,0,5.85
			c0,2.24,0,4.45,0,6.64c0,2.19,0,3.94,0,5.27c0,0.22-0.04,0.39-0.12,0.5c-0.08,0.11-0.18,0.21-0.29,0.29
			c-0.11,0.08-0.28,0.12-0.5,0.12c-4.93,0-9.89,0-14.9,0c-5.01,0-9.99,0-14.94,0S182.32,152.27,177.34,152.27z M177.34,177.58
			c0-2.93,0-5.89,0-8.88c0-2.99,0-5.95,0-8.88c0-0.17,0.04-0.32,0.12-0.46c0.08-0.14,0.18-0.25,0.29-0.33
			c0.11-0.08,0.28-0.12,0.5-0.12c3.04,0,6.1,0,9.17,0c3.07,0,6.13,0,9.17,0c3.04,0,6.09,0,9.13,0c0.77,0,1.36-0.15,1.74-0.46
			c0.39-0.3,0.58-0.84,0.58-1.62c0-0.5-0.04-0.98-0.12-1.45c-0.08-0.47-0.25-0.95-0.5-1.45c-0.25-0.5-0.55-1.05-0.91-1.66
			c-0.36-0.61-0.84-1.27-1.45-1.99h10.87v3.74c1.83,1.16,3.32,2.35,4.48,3.57c1.16,1.22,2.02,2.54,2.57,3.98
			c0.55,1.44,0.83,3.07,0.83,4.9c0,1.77-0.29,3.35-0.87,4.73c-0.58,1.38-1.43,2.54-2.53,3.49c-1.11,0.94-2.48,1.66-4.11,2.16
			c-1.63,0.5-3.5,0.75-5.6,0.75c-2.99,0-5.89,0-8.71,0s-5.6,0-8.34,0c-2.74,0-5.46,0-8.18,0c-1.38,0-2.74,0-4.07,0
			S178.72,177.58,177.34,177.58z"/>
		<path d="M191.12,209.87c0,1.44,0.18,2.39,0.54,2.86c0.36,0.47,0.79,0.71,1.29,0.71c0.44,0,0.84-0.24,1.2-0.71
			c0.36-0.47,0.65-1.43,0.87-2.86l0.66-4.81c0.55-4.04,1.34-7.32,2.37-9.83c1.02-2.52,2.42-4.37,4.19-5.56
			c1.77-1.19,4.09-1.78,6.97-1.78c3.21,0,5.96,0.93,8.26,2.78c2.3,1.85,4.07,4.58,5.31,8.18c1.25,3.6,1.87,8,1.87,13.2
			c0,3.04-0.18,5.69-0.54,7.93c-0.36,2.24-0.76,4.04-1.2,5.4c-0.44,1.35-0.8,2.17-1.08,2.45c-0.05,0.11-0.15,0.18-0.29,0.21
			c-0.14,0.03-0.32,0.04-0.54,0.04c-2.38,0-4.73,0-7.06,0s-4.68,0-7.05,0v-1.66c0.83-2.55,1.52-5.08,2.08-7.59
			c0.55-2.52,0.83-5.46,0.83-8.84c0-1.22-0.07-2.24-0.21-3.07c-0.14-0.83-0.36-1.47-0.66-1.91c-0.3-0.44-0.68-0.66-1.12-0.66
			c-0.44,0-0.82,0.14-1.12,0.42c-0.3,0.28-0.53,0.76-0.66,1.45c-0.14,0.69-0.29,1.59-0.46,2.7l-0.58,4.98
			c-0.39,3.54-1.19,6.49-2.41,8.84c-1.22,2.35-2.77,4.11-4.65,5.27c-1.88,1.16-4.04,1.74-6.47,1.74c-3.6,0-6.56-0.8-8.88-2.41
			c-2.32-1.61-4.05-4.03-5.19-7.26c-1.13-3.24-1.7-7.32-1.7-12.24c0-2.1,0.08-4.26,0.25-6.47s0.39-4.27,0.66-6.18
			c0.28-1.91,0.57-3.5,0.87-4.77c0.3-1.27,0.57-2.05,0.79-2.32c0.11-0.06,0.21-0.1,0.29-0.12c0.08-0.03,0.18-0.04,0.29-0.04
			c2.43,0,4.9,0,7.39,0c2.49,0,4.95,0,7.39,0v1.66c-0.5,1.6-0.91,3.12-1.25,4.56c-0.33,1.44-0.58,2.93-0.75,4.48
			c-0.17,1.55-0.29,3.24-0.37,5.06S191.12,207.55,191.12,209.87z"/>
	</g>
	<g>
		<path d="M165.55,29.72c0.11,0.66,0.21,1.3,0.29,1.91c0.08,0.61,0.15,1.29,0.21,2.03c0.05,0.75,0.08,1.54,0.08,2.37
			c0,1.6-0.33,2.85-1,3.74c-0.66,0.88-1.78,1.4-3.36,1.54c-1.58,0.14-3.72-0.15-6.43-0.87c-3.32-0.72-6.46-1.37-9.42-1.95
			c-2.96-0.58-5.8-1.05-8.51-1.41c-2.71-0.36-5.27-0.61-7.68-0.75c-2.41-0.14-4.61-0.1-6.6,0.12c-1.99,0.22-3.85,0.55-5.56,1
			l2.9-2.49l-0.66,6.23l-1.83-5.89c2.05,2.1,4.63,4.22,7.76,6.35c3.13,2.13,6.53,4.18,10.21,6.14c3.68,1.96,7.47,3.71,11.37,5.23
			c3.9,1.52,7.84,2.83,11.83,3.94v2.66c0,2.88-0.64,4.99-1.91,6.35c-1.27,1.35-3.1,1.84-5.48,1.45c-4.09-0.66-7.83-1.19-11.2-1.58
			c-3.38-0.39-6.46-0.59-9.25-0.62c-2.79-0.03-5.3,0.08-7.51,0.33c-2.21,0.25-4.32,0.71-6.31,1.37l3.07-3.49l-0.75,5.23l-1.91-3.82
			c1.83,1.71,4.01,3.42,6.56,5.1c2.54,1.69,5.34,3.31,8.38,4.86c3.04,1.55,6.29,3.02,9.75,4.4c3.46,1.38,7.12,2.63,11,3.74
			c3.87,1.11,7.86,1.96,11.95,2.57c0.11,0.61,0.22,1.19,0.33,1.74c0.11,0.55,0.18,1.09,0.21,1.62c0.03,0.53,0.04,1.09,0.04,1.7
			c0,1.94-0.43,3.46-1.29,4.56c-0.86,1.11-2.3,1.7-4.32,1.79c-2.02,0.08-4.8-0.35-8.34-1.29c-3.21-0.89-6.41-1.91-9.59-3.07
			c-3.18-1.16-6.23-2.42-9.13-3.78c-2.9-1.36-5.64-2.82-8.22-4.4c-2.57-1.58-4.98-3.18-7.22-4.81c-2.24-1.63-4.27-3.27-6.1-4.9
			c-1.83-1.63-3.43-3.28-4.81-4.94c-0.11-0.17-0.21-0.36-0.29-0.58c-0.08-0.22-0.15-0.47-0.21-0.75c-0.05-0.28-0.1-0.55-0.12-0.83
			c-0.03-0.28-0.04-0.55-0.04-0.83c0-1.22,0.21-2.37,0.62-3.44c0.42-1.08,1.12-2.06,2.12-2.95c1.27-0.89,2.66-1.69,4.15-2.41
			c1.49-0.72,3.17-1.27,5.02-1.66c1.85-0.39,3.91-0.64,6.18-0.75c2.27-0.11,4.79-0.08,7.55,0.08l-2.74,1.66l0.66-5.15l1.83,3.65
			c-2.05-0.78-4.05-1.66-6.02-2.66s-3.86-2.06-5.69-3.2c-1.83-1.13-3.53-2.3-5.1-3.49c-1.58-1.19-3.06-2.38-4.44-3.57
			c-1.38-1.19-2.55-2.37-3.49-3.53c-0.11-0.22-0.22-0.51-0.33-0.87c-0.11-0.36-0.19-0.73-0.25-1.12c-0.05-0.39-0.08-0.8-0.08-1.25
			c0-1.33,0.26-2.5,0.79-3.53c0.53-1.02,1.4-2.03,2.61-3.03c1.55-1.11,3.33-2.05,5.35-2.82c2.02-0.78,4.32-1.33,6.89-1.66
			c2.57-0.33,5.51-0.44,8.8-0.33c3.29,0.11,6.97,0.48,11.04,1.12c4.07,0.63,8.59,1.51,13.57,2.61c1.83,0.5,3.61,0.87,5.35,1.12
			C162.6,29.84,164.17,29.88,165.55,29.72z"/>
		<path d="M169.62,106.33c0.11,0.66,0.21,1.3,0.29,1.91c0.08,0.61,0.17,1.2,0.25,1.78c0.08,0.58,0.15,1.15,0.21,1.7
			c0.05,0.55,0.1,1.15,0.12,1.79c0.03,0.63,0.04,1.23,0.04,1.78c0,1.94-0.49,3.71-1.45,5.31c-0.97,1.6-2.26,2.82-3.86,3.65
			c-1.61,0.83-3.32,1.11-5.15,0.83c-2.77-0.5-5.42-1.18-7.97-2.03c-2.54-0.86-5.01-1.77-7.39-2.74c-2.38-0.97-4.76-1.98-7.14-3.03
			c-2.38-1.05-4.81-2.03-7.3-2.95c-2.49-0.91-5.12-1.7-7.89-2.37c-0.89-0.17-1.7-0.3-2.45-0.42c-0.75-0.11-1.48-0.19-2.2-0.25
			c-0.11,0.39-0.19,0.77-0.25,1.16c-0.06,0.39-0.08,0.8-0.08,1.25c0,1.33,0.28,2.57,0.83,3.74c0.55,1.16,1.47,2.38,2.74,3.65v0.5
			c-0.89,0.11-1.94,0.14-3.15,0.08c-1.22-0.06-2.57-0.25-4.07-0.58c-0.78-0.17-1.44-0.39-1.99-0.66c-0.55-0.28-1.08-0.57-1.58-0.87
			c-0.5-0.3-0.94-0.68-1.33-1.12c-0.5-0.44-0.93-1.04-1.29-1.79s-0.64-1.61-0.83-2.57c-0.19-0.97-0.29-2.01-0.29-3.11
			c0-2.44,0.72-4.55,2.16-6.35c1.44-1.8,3.35-3.1,5.73-3.9c2.38-0.8,4.98-0.96,7.8-0.46c2.88,0.39,5.62,0.97,8.22,1.74
			c2.6,0.77,5.08,1.63,7.43,2.57c2.35,0.94,4.67,1.89,6.97,2.86c2.3,0.97,4.58,1.89,6.85,2.78c2.27,0.88,4.57,1.66,6.89,2.32
			l0.25-0.5c-0.33-0.39-0.61-0.86-0.83-1.41c-0.22-0.55-0.39-1.08-0.5-1.58c-0.11-0.5-0.17-1.03-0.17-1.58
			c0-1.61,0.59-2.66,1.79-3.15c1.19-0.5,3.2-0.42,6.02,0.25c0.77,0.17,1.52,0.39,2.24,0.66
			C168.01,105.52,168.79,105.88,169.62,106.33z"/>
		<path d="M167.13,162.6c0,4.09-1.31,7.35-3.94,9.75s-6.39,3.89-11.29,4.44s-10.72,0-17.47-1.66l-3.65-0.91
			c-5.64-1.38-10.33-3.35-14.07-5.89c-3.73-2.55-6.5-5.51-8.3-8.88c-1.8-3.38-2.7-7.08-2.7-11.12c0-2.99,0.71-5.6,2.12-7.84
			s3.42-4.01,6.02-5.31c2.6-1.3,5.71-2.03,9.34-2.2c3.62-0.17,7.59,0.33,11.91,1.49l3.4,0.83c6.42,1.55,11.74,3.68,15.98,6.39
			c4.23,2.71,7.4,5.86,9.5,9.46C166.08,154.74,167.13,158.56,167.13,162.6z M155.92,161.52c0-2.38-0.86-4.54-2.57-6.47
			c-1.72-1.94-4.1-3.64-7.14-5.1c-3.04-1.47-6.59-2.7-10.62-3.69l-3.65-0.83c-2.05-0.55-4.01-0.91-5.89-1.08
			c-1.88-0.16-3.53-0.11-4.94,0.17c-1.41,0.28-2.64,0.72-3.69,1.33c-0.06,0.55-0.15,1.11-0.29,1.66c-0.14,0.55-0.21,1.16-0.21,1.83
			c0,2.38,0.72,4.47,2.16,6.27c1.44,1.8,3.39,3.32,5.85,4.56c2.46,1.24,5.32,2.28,8.59,3.11l3.65,0.91
			c2.93,0.72,5.57,1.18,7.93,1.37c2.35,0.19,4.38,0.17,6.1-0.08c1.71-0.25,3.21-0.68,4.48-1.29c0.11-0.39,0.18-0.82,0.21-1.29
			C155.91,162.42,155.92,161.96,155.92,161.52z"/>
		<path d="M139.32,205.76c-1.05,0.11-2.12,0.34-3.2,0.71c-1.08,0.36-2.13,0.75-3.15,1.16c-1.02,0.42-2.08,0.86-3.15,1.33
			c-1.08,0.47-2.09,1-3.03,1.58c-0.94,0.58-1.83,1.23-2.66,1.95c-1.66,1.22-2.93,2.66-3.82,4.32c-0.89,1.66-1.33,3.32-1.33,4.98
			c0,0.88,0.08,1.58,0.25,2.08s0.36,0.97,0.58,1.41v0.5c-0.72,0.17-1.59,0.26-2.61,0.29c-1.02,0.03-2.06-0.1-3.11-0.37
			c-1.66-0.33-2.96-0.8-3.9-1.41c-0.94-0.61-1.72-1.27-2.32-1.99c-0.39-0.55-0.71-1.18-0.95-1.87c-0.25-0.69-0.37-1.48-0.37-2.37
			c0-1.49,0.24-2.84,0.71-4.03c0.47-1.19,1.37-2.44,2.7-3.73c1.33-1.3,3.24-2.95,5.73-4.94c1.16-0.78,2.34-1.54,3.53-2.28
			c1.19-0.75,2.43-1.48,3.73-2.2c1.3-0.72,2.61-1.38,3.94-1.99c1.33-0.61,2.7-1.16,4.11-1.66c1.41-0.5,2.78-0.97,4.11-1.41
			c1.99-0.55,3.91-0.93,5.77-1.12c1.85-0.19,3.64-0.22,5.35-0.08c1.71,0.14,3.35,0.32,4.9,0.54l0.42,0.08
			c1.99,0.33,3.87,1.06,5.64,2.2c1.77,1.13,3.33,2.61,4.69,4.44c1.36,1.83,2.43,3.97,3.24,6.43c0.8,2.46,1.2,5.24,1.2,8.34
			c0,3.15-0.25,5.7-0.75,7.64c-0.5,1.94-1.16,3.26-1.99,3.98c-0.83,0.77-1.81,1.22-2.95,1.33c-1.13,0.11-2.42,0-3.86-0.33
			c-1-0.22-1.87-0.58-2.61-1.08c-0.75-0.5-1.4-1.03-1.95-1.58v-0.42c0.77-1.44,1.37-3.03,1.78-4.77s0.62-3.92,0.62-6.52
			c0-1.72-0.15-3.32-0.46-4.81c-0.3-1.49-0.76-2.71-1.37-3.65c-0.33-0.17-0.73-0.3-1.2-0.42c-0.47-0.11-0.84-0.25-1.12-0.42
			c-1.05-0.22-2.19-0.37-3.4-0.46c-1.22-0.08-2.49-0.08-3.82,0S140.59,205.43,139.32,205.76z M106.62,192.15
			c0-2.77,0.6-5.05,1.78-6.85c1.19-1.8,2.86-3.06,5.02-3.78c2.16-0.72,4.62-0.88,7.39-0.5l0.91,0.25c2.43,0.5,4.61,1.48,6.52,2.95
			c1.91,1.47,3.46,3.18,4.65,5.15c1.19,1.96,1.92,3.97,2.2,6.02l3.07,1.91l-7.55,2.32c-0.06-0.89-0.36-1.78-0.91-2.7
			c-0.55-0.91-1.29-1.74-2.2-2.49c-0.91-0.75-2.01-1.34-3.28-1.78h-0.25c-2.1-0.78-3.79-0.69-5.06,0.25
			c-1.27,0.94-1.91,2.41-1.91,4.4c0,1.71,0.29,3.24,0.87,4.56s1.62,2.77,3.11,4.32l-6.31,3.4v-3.9c-2.82-1.33-4.87-3.14-6.14-5.44
			C107.26,197.94,106.62,195.24,106.62,192.15z M141.98,218.04c0.11,0.39,0.21,0.88,0.29,1.49c0.08,0.61,0.12,1.36,0.12,2.24
			c0,2.66-0.57,4.59-1.7,5.81c-1.13,1.22-2.61,1.6-4.44,1.16l-0.83-0.08c-1.77-0.44-3.47-1.27-5.11-2.49
			c-1.63-1.22-3.1-2.79-4.4-4.73c-1.3-1.94-2.39-4.23-3.28-6.89l-3.4-0.91l4.4-4.73c1.77,1.83,3.47,3.31,5.1,4.44
			c1.63,1.13,3.24,2.03,4.81,2.7s3.17,1.16,4.77,1.49c0.72,0.11,1.37,0.22,1.95,0.33C140.86,217.99,141.42,218.04,141.98,218.04z"/>
	</g>
	<g>
		<path d="M65.94,56.42c0,2.6-0.53,4.8-1.58,6.6c-1.05,1.8-2.52,3.17-4.4,4.11c-1.88,0.94-4.1,1.41-6.64,1.41h-4.15
			c-3.76,0-6.81-1.05-9.13-3.15c-2.32-2.1-3.49-5.09-3.49-8.96s1.16-6.86,3.49-8.96c2.32-2.1,5.37-3.15,9.13-3.15h4.15
			c2.54,0,4.76,0.47,6.64,1.41c1.88,0.94,3.35,2.32,4.4,4.15C65.42,51.69,65.94,53.87,65.94,56.42z M61.96,40.23
			c-1.38-0.72-2.78-1.42-4.19-2.12c-1.41-0.69-2.82-1.38-4.23-2.08c-1.41-0.69-2.82-1.38-4.23-2.08c-1.41-0.69-2.82-1.38-4.23-2.07
			c-1.41-0.69-2.81-1.38-4.19-2.08c-1.38-0.69-2.79-1.4-4.23-2.12c0-0.17,0-0.4,0-0.71c0-0.3,0-0.62,0-0.95s0-0.65,0-0.96
			c0-0.3,0-0.57,0-0.79c0-0.33,0.1-0.57,0.29-0.71c0.19-0.14,0.46-0.12,0.79,0.04c1.33,0.66,2.64,1.31,3.94,1.95
			c1.3,0.64,2.61,1.29,3.94,1.95c1.33,0.66,2.64,1.33,3.94,1.99c1.3,0.66,2.61,1.33,3.94,1.99s2.64,1.31,3.94,1.95
			c1.3,0.64,2.61,1.29,3.94,1.95c0.28,0.11,0.44,0.22,0.5,0.33c0.05,0.11,0.08,0.28,0.08,0.5c0,0.17,0,0.43,0,0.79
			c0,0.36,0,0.76,0,1.2c0,0.44,0,0.84,0,1.2C61.96,39.8,61.96,40.07,61.96,40.23z M49.18,48.53c-1.49,0-2.79,0.19-3.9,0.58
			c-1.11,0.39-2.05,0.94-2.82,1.66c-0.44,0.44-0.82,0.95-1.12,1.54c-0.3,0.58-0.53,1.22-0.66,1.91c-0.14,0.69-0.21,1.42-0.21,2.2
			c0,2.6,0.77,4.57,2.32,5.89c1.55,1.33,3.68,1.99,6.39,1.99h4.15c1.44,0,2.74-0.18,3.9-0.54c1.16-0.36,2.1-0.9,2.82-1.62
			c0.44-0.44,0.82-0.95,1.12-1.54c0.3-0.58,0.53-1.22,0.66-1.91c0.14-0.69,0.21-1.45,0.21-2.28c0-2.6-0.76-4.56-2.28-5.89
			c-1.52-1.33-3.67-1.99-6.43-1.99H49.18z M96.32,36.16c0,2.6-0.53,4.8-1.58,6.6c-1.05,1.8-2.52,3.17-4.4,4.11
			c-1.88,0.94-4.1,1.41-6.64,1.41h-4.15c-3.76,0-6.81-1.05-9.13-3.15c-2.32-2.1-3.49-5.09-3.49-8.96s1.16-6.86,3.49-8.96
			c2.32-2.1,5.37-3.15,9.13-3.15h4.15c2.54,0,4.76,0.47,6.64,1.41c1.88,0.94,3.35,2.32,4.4,4.15
			C95.79,31.43,96.32,33.62,96.32,36.16z M79.55,28.28c-1.49,0-2.79,0.19-3.9,0.58c-1.11,0.39-2.05,0.94-2.82,1.66
			c-0.44,0.44-0.82,0.95-1.12,1.54c-0.3,0.58-0.53,1.22-0.66,1.91c-0.14,0.69-0.21,1.42-0.21,2.2c0,2.6,0.77,4.57,2.32,5.89
			c1.55,1.33,3.68,1.99,6.39,1.99h4.15c1.44,0,2.74-0.18,3.9-0.54c1.16-0.36,2.1-0.9,2.82-1.62c0.44-0.44,0.82-0.95,1.12-1.54
			c0.3-0.58,0.52-1.22,0.66-1.91c0.14-0.69,0.21-1.45,0.21-2.28c0-2.6-0.76-4.56-2.28-5.89c-1.52-1.33-3.67-1.99-6.43-1.99H79.55z
			 M71,52.35c1.44,0.72,2.85,1.42,4.23,2.12c1.38,0.69,2.78,1.38,4.19,2.07c1.41,0.69,2.82,1.38,4.23,2.08
			c1.41,0.69,2.82,1.38,4.23,2.08c1.41,0.69,2.82,1.38,4.23,2.07c1.41,0.69,2.81,1.4,4.19,2.12c0,0.17,0,0.4,0,0.71
			c0,0.3,0,0.62,0,0.96s0,0.65,0,0.95c0,0.3,0,0.57,0,0.79c0,0.33-0.1,0.57-0.29,0.71c-0.19,0.14-0.46,0.12-0.79-0.04
			c-1.33-0.66-2.64-1.31-3.94-1.95c-1.3-0.64-2.61-1.29-3.94-1.95c-1.33-0.66-2.64-1.33-3.94-1.99c-1.3-0.66-2.61-1.33-3.94-1.99
			s-2.64-1.31-3.94-1.95c-1.3-0.64-2.61-1.29-3.94-1.95c-0.22-0.11-0.37-0.22-0.46-0.33c-0.08-0.11-0.12-0.28-0.12-0.5
			c0-0.17,0-0.43,0-0.79c0-0.36,0-0.76,0-1.2c0-0.44,0-0.84,0-1.2C71,52.78,71,52.52,71,52.35z"/>
		<path d="M37.39,87.79c0-0.33,0-0.68,0-1.04c0-0.36,0-0.72,0-1.08c0-0.36,0-0.73,0-1.12c0-0.17,0.01-0.3,0.04-0.42
			c0.03-0.11,0.08-0.21,0.17-0.29c0.08-0.08,0.18-0.14,0.29-0.17c0.11-0.03,0.25-0.04,0.42-0.04c2.88,0,5.75,0,8.63,0
			c2.88,0,5.74,0,8.59,0c2.85,0,5.71,0,8.59,0c2.88,0,5.75,0,8.63,0c1.99,0,3.71,0,5.15,0c1.44,0,2.49,0,3.15,0
			c0,0.39,0,0.76,0,1.12s0,0.72,0,1.08c0,0.36,0,0.71,0,1.04c0,0.22-0.04,0.39-0.12,0.5c-0.08,0.11-0.18,0.21-0.29,0.29
			c-0.11,0.08-0.28,0.12-0.5,0.12c-4.7,0-9.44,0-14.19,0c-4.76,0-9.52,0-14.28,0C46.91,87.79,42.15,87.79,37.39,87.79z M72.91,86.63
			v2.16c2.32,1.66,4.14,3.28,5.44,4.86c1.3,1.58,2.21,3.18,2.74,4.81c0.52,1.63,0.79,3.33,0.79,5.1c0,1.05-0.06,1.95-0.17,2.7
			c-0.11,0.75-0.28,1.42-0.5,2.03c-0.11,0.33-0.28,0.55-0.5,0.66c-0.22,0.11-0.53,0.17-0.91,0.17c-0.22,0-0.46,0-0.71,0
			s-0.48,0-0.71,0c-0.22,0-0.46,0-0.71,0s-0.48,0-0.71,0v-1c0.17-0.61,0.3-1.27,0.42-1.99c0.11-0.72,0.17-1.58,0.17-2.57
			c0-1.99-0.33-3.9-1-5.73c-0.66-1.83-1.88-3.64-3.65-5.44c-1.77-1.8-4.29-3.72-7.55-5.77H72.91z"/>
		<path d="M38.3,130.12c-0.22,0-0.39-0.04-0.5-0.12c-0.11-0.08-0.21-0.18-0.29-0.29c-0.08-0.11-0.12-0.28-0.12-0.5
			c0-0.55,0-1.09,0-1.62c0-0.53,0-1.07,0-1.62c1.38,0,2.75,0,4.11,0c1.36,0,2.72,0,4.11,0c3.93,0,7.47,0,10.62,0
			c3.15,0,6.18,0,9.09,0c2.9,0,5.93,0,9.09,0c3.15,0,6.67,0,10.54,0c3.49,0,6.38,0.53,8.67,1.58c2.3,1.05,4.01,2.56,5.15,4.52
			c1.13,1.96,1.7,4.33,1.7,7.1c0,2.27-0.26,4.23-0.79,5.89c-0.53,1.66-1.01,2.68-1.45,3.07c-0.06,0.11-0.14,0.18-0.25,0.21
			c-0.11,0.03-0.25,0.04-0.42,0.04c-0.5,0-1.01,0-1.54,0c-0.53,0-1.04,0-1.54,0v-1c0.61-1.11,1.11-2.34,1.49-3.69
			c0.39-1.36,0.58-2.84,0.58-4.44c0-1.05-0.14-2.09-0.42-3.11c-0.28-1.02-0.72-1.95-1.33-2.78c-0.66-0.89-1.81-1.65-3.44-2.28
			c-1.63-0.64-4-0.96-7.1-0.96c-3.1,0-6.18,0-9.25,0c-3.07,0-6.13,0-9.17,0c-3.04,0-6.09,0-9.13,0c-3.04,0-6.1,0-9.17,0
			S41.4,130.12,38.3,130.12z M81.05,119.33v23.99c0,0.28-0.08,0.5-0.25,0.66s-0.39,0.25-0.66,0.25c-0.55,0-1.05,0-1.49,0
			c-0.44,0-0.94,0-1.49,0v-23.99c0-0.17,0.04-0.32,0.12-0.46c0.08-0.14,0.19-0.25,0.33-0.33c0.14-0.08,0.29-0.12,0.46-0.12
			c0.55,0,1.05,0,1.49,0C80,119.33,80.49,119.33,81.05,119.33z"/>
		<path d="M95.86,209.63c-1.41,4.43-3.46,8.16-6.14,11.21c-2.68,3.04-5.92,5.35-9.71,6.93c-3.79,1.58-8.07,2.37-12.82,2.37H57.06
			c-2.32,0-4.47-0.28-6.43-0.83c-1.96-0.55-3.67-1.44-5.1-2.66c-1.44-1.22-2.56-2.78-3.36-4.69c-0.8-1.91-1.2-4.25-1.2-7.01v-1
			c0-1.88,0.3-3.47,0.91-4.77c0.61-1.3,1.52-2.28,2.74-2.95c1.22-0.66,2.74-1,4.56-1c1.33,0,2.97,0,4.94,0c1.96,0,4.03,0,6.18,0
			c2.16,0,4.25,0,6.27,0c2.02,0,3.75,0,5.19,0c0.05,0,0.4,0.03,1.04,0.08c0.64,0.05,1.48,0.14,2.53,0.25
			c1.05,0.11,2.19,0.22,3.4,0.33v2.57c0,0.28-0.08,0.5-0.25,0.66s-0.39,0.25-0.66,0.25c-1.49,0-3.42,0-5.77,0c-2.35,0-4.88,0-7.59,0
			c-2.71,0-5.35,0-7.93,0c-2.57,0-4.8,0-6.68,0c-1.77,0-3.04,0.39-3.82,1.16c-0.78,0.77-1.16,2.05-1.16,3.82v0.33
			c0,2.6,0.41,4.73,1.24,6.39s2.14,2.89,3.94,3.69c1.8,0.8,4.14,1.2,7.01,1.2H67.1c2.49,0,4.86-0.24,7.1-0.71
			c2.24-0.47,4.36-1.2,6.35-2.2c1.99-1,3.79-2.32,5.4-3.98c1.71-1.66,3.17-3.68,4.36-6.06c1.19-2.38,2.12-5.1,2.78-8.17
			c0.66-3.07,1-6.54,1-10.42c0-7.53-1.19-13.6-3.57-18.22c-2.38-4.62-5.6-8-9.67-10.13c-4.07-2.13-8.65-3.2-13.74-3.2H53.33
			c-2.49,0-4.87,0.25-7.14,0.75c-2.27,0.5-4.39,1.26-6.35,2.28c-1.96,1.02-3.75,2.34-5.35,3.94c-1.66,1.71-3.1,3.74-4.32,6.06
			c-1.22,2.32-2.16,5.03-2.82,8.13c-0.66,3.1-1,6.56-1,10.38c0,3.54,0.22,6.63,0.66,9.25c0.44,2.63,1.08,5.03,1.91,7.22
			c0.83,2.19,1.85,4.36,3.07,6.52v1h-2.82c-0.22,0-0.39-0.03-0.5-0.08c-0.11-0.06-0.22-0.14-0.33-0.25
			c-0.66-0.66-1.45-1.98-2.37-3.94c-0.91-1.96-1.73-4.58-2.45-7.84c-0.72-3.26-1.08-7.22-1.08-11.87c0-5.7,0.71-10.76,2.12-15.19
			c1.41-4.43,3.46-8.16,6.14-11.21c2.68-3.04,5.93-5.35,9.75-6.93c3.82-1.58,8.16-2.37,13.03-2.37h13.45
			c4.81,0,9.14,0.79,12.99,2.37c3.85,1.58,7.11,3.89,9.79,6.93c2.68,3.04,4.73,6.78,6.14,11.21c1.41,4.43,2.12,9.49,2.12,15.19
			C97.98,200.14,97.27,205.21,95.86,209.63z M42.33,184.78c1.02-1.91,2.49-3.4,4.4-4.48c1.91-1.08,4.16-1.62,6.76-1.62h13.45
			c1.99,0,3.76,0.3,5.31,0.91c1.55,0.61,2.88,1.48,3.98,2.61c1.11,1.13,1.95,2.48,2.53,4.03s0.87,3.26,0.87,5.15
			c0,2.71-0.57,5.08-1.7,7.1c-1.13,2.02-2.75,3.97-4.86,5.85v2.16l-5.64-0.75c3.1-2.27,5.26-4.57,6.47-6.89
			c1.22-2.32,1.83-4.71,1.83-7.14c0-1.83-0.36-3.4-1.08-4.73c-0.72-1.33-1.76-2.35-3.11-3.07c-1.36-0.72-3-1.08-4.94-1.08H53.82
			c-2.88,0-5.12,0.79-6.72,2.37c-1.61,1.58-2.41,3.75-2.41,6.52c0,1.6,0.26,3.2,0.79,4.77c0.53,1.58,1.4,3.14,2.61,4.69
			c1.22,1.55,2.85,3.07,4.9,4.57l-5.64,0.75v-2.16c-2.1-1.88-3.72-3.83-4.86-5.85c-1.13-2.02-1.7-4.39-1.7-7.1
			C40.79,188.88,41.3,186.68,42.33,184.78z"/>
	</g>
</g>
<g>
	<g>
		<path d="M18,19.2c0-0.08,0-0.16,0-0.24c0-0.07,0-0.15,0-0.24c0-0.02,0.01-0.04,0.02-0.06c0.01-0.01,0.03-0.02,0.06-0.02
			c0.39,0,0.77,0,1.15,0s0.76,0,1.13,0s0.76,0,1.13,0s0.76,0,1.15,0v0.64l-0.12-0.08c-0.23,0-0.47,0-0.7,0s-0.46,0-0.69,0
			c-0.27,0-0.54,0-0.81,0c-0.27,0-0.54,0-0.81,0s-0.54,0-0.83,0c-0.12,0-0.24,0-0.36,0S18.11,19.2,18,19.2z M20.3,20.52
			c-0.26,0.14-0.51,0.28-0.76,0.41c-0.25,0.13-0.51,0.27-0.77,0.4c-0.1,0.06-0.17,0.12-0.21,0.17c-0.04,0.05-0.06,0.12-0.06,0.2
			c0,0.03,0,0.05,0,0.07s0,0.04,0,0.06v0.09c-0.08,0-0.15,0-0.21,0c-0.06,0-0.13,0-0.21,0c-0.02,0-0.04-0.01-0.06-0.02
			C18.01,21.88,18,21.87,18,21.84c0-0.03,0-0.07,0-0.11c0-0.04,0-0.08,0-0.12c0-0.12,0.02-0.22,0.05-0.31s0.09-0.17,0.16-0.24
			c0.07-0.07,0.17-0.14,0.29-0.2c0.26-0.14,0.52-0.27,0.78-0.41c0.26-0.14,0.52-0.27,0.78-0.41L20.3,20.52z M22.9,18.21
			c0,0.22,0,0.44,0,0.66s0,0.44,0,0.67s0,0.44,0,0.66c0,0.24-0.03,0.45-0.09,0.63s-0.15,0.33-0.27,0.45s-0.26,0.21-0.42,0.27
			c-0.16,0.06-0.35,0.09-0.55,0.09h-0.32c-0.2,0-0.38-0.03-0.55-0.09c-0.16-0.06-0.3-0.15-0.42-0.27c-0.11-0.12-0.2-0.26-0.26-0.44
			c-0.06-0.17-0.09-0.37-0.09-0.59c0-0.18,0-0.37,0-0.55c0-0.18,0-0.37,0-0.56l-0.06-0.08h0.54c0,0.19,0,0.37,0,0.56
			c0,0.19,0,0.38,0,0.57c0,0.2,0.03,0.37,0.09,0.49c0.06,0.13,0.16,0.23,0.28,0.29s0.28,0.1,0.46,0.1h0.3
			c0.13,0,0.25-0.02,0.35-0.05s0.19-0.08,0.26-0.15c0.07-0.07,0.12-0.17,0.16-0.28c0.04-0.11,0.06-0.24,0.06-0.4
			c0-0.21,0-0.43,0-0.64c0-0.21,0-0.42,0-0.63s0-0.42,0-0.64c0-0.02,0.01-0.04,0.02-0.06c0.01-0.01,0.03-0.02,0.06-0.02
			c0.07,0,0.14,0,0.21,0S22.83,18.21,22.9,18.21z"/>
		<path d="M21.78,24.6c0,0.27-0.05,0.51-0.16,0.74c-0.11,0.23-0.28,0.41-0.51,0.55s-0.53,0.21-0.91,0.21h-0.49
			c-0.01,0-0.03,0-0.04-0.01c-0.01-0.01-0.02-0.02-0.03-0.02c-0.01-0.01-0.01-0.02-0.01-0.04v-1.88c0-0.07,0-0.15,0-0.23
			c0-0.08,0-0.15,0-0.23v-0.18l0.41-0.11v2.18c0.02,0,0.05,0,0.07,0c0.03,0,0.05,0,0.07,0c0.21,0,0.38-0.02,0.52-0.07
			c0.14-0.04,0.26-0.11,0.35-0.21c0.08-0.08,0.14-0.18,0.17-0.29c0.04-0.12,0.06-0.25,0.06-0.39c0-0.32-0.09-0.57-0.26-0.75
			s-0.46-0.27-0.86-0.27h-0.7c-0.16,0-0.31,0.02-0.44,0.07c-0.13,0.04-0.24,0.11-0.32,0.19c-0.1,0.1-0.17,0.23-0.22,0.39
			c-0.05,0.16-0.08,0.35-0.08,0.57c0,0.18,0.01,0.33,0.03,0.46c0.02,0.13,0.05,0.25,0.09,0.36c0.04,0.11,0.09,0.23,0.16,0.35v0.1
			c-0.07,0-0.13,0-0.2,0s-0.13,0-0.2,0c-0.01,0-0.02,0-0.03,0c-0.01,0-0.02-0.01-0.03-0.02c-0.06-0.06-0.11-0.14-0.15-0.26
			c-0.05-0.12-0.09-0.27-0.12-0.44c-0.03-0.18-0.05-0.37-0.05-0.57c0-0.26,0.03-0.49,0.1-0.7c0.07-0.21,0.16-0.39,0.29-0.54
			s0.29-0.26,0.48-0.35c0.19-0.08,0.42-0.12,0.68-0.12h0.7c0.28,0,0.53,0.04,0.73,0.12c0.2,0.08,0.37,0.2,0.5,0.34
			c0.13,0.15,0.23,0.31,0.28,0.5C21.75,24.2,21.78,24.4,21.78,24.6z"/>
		<path d="M21.78,29.07c0,0.18-0.02,0.34-0.05,0.47s-0.07,0.24-0.1,0.33s-0.08,0.14-0.11,0.17c-0.01,0.02-0.03,0.03-0.04,0.03
			c-0.01,0-0.03,0-0.05,0c-0.07,0-0.13,0-0.2,0c-0.07,0-0.14,0-0.21,0v-0.1c0.06-0.1,0.12-0.23,0.17-0.37
			c0.05-0.14,0.08-0.32,0.08-0.54c0-0.23-0.04-0.43-0.13-0.59s-0.21-0.28-0.38-0.36C20.59,28.04,20.38,28,20.12,28h-0.62
			c-0.17,0-0.33,0.02-0.46,0.07s-0.25,0.11-0.34,0.2c-0.09,0.09-0.16,0.21-0.2,0.34c-0.05,0.13-0.07,0.29-0.07,0.46
			c0,0.14,0.01,0.27,0.03,0.38c0.02,0.11,0.05,0.21,0.08,0.29s0.07,0.16,0.11,0.23v0.1c-0.07,0-0.14,0-0.21,0c-0.07,0-0.14,0-0.22,0
			c-0.01,0-0.02,0-0.03,0c-0.01,0-0.02-0.01-0.03-0.02c-0.03-0.03-0.07-0.09-0.11-0.17c-0.04-0.08-0.07-0.19-0.1-0.32
			c-0.03-0.13-0.04-0.29-0.04-0.49c0-0.26,0.03-0.49,0.1-0.69c0.07-0.2,0.17-0.37,0.3-0.51c0.14-0.14,0.3-0.25,0.49-0.31
			c0.19-0.07,0.41-0.11,0.66-0.11h0.67c0.35,0,0.65,0.07,0.9,0.21c0.24,0.14,0.42,0.34,0.55,0.58
			C21.72,28.49,21.78,28.77,21.78,29.07z"/>
		<path d="M21.71,31.89c0,0.02,0,0.03-0.01,0.04c-0.01,0.01-0.02,0.02-0.02,0.03c-0.01,0.01-0.02,0.01-0.04,0.01
			c-0.21,0-0.43,0-0.65,0c-0.22,0-0.43,0-0.65,0c-0.21,0-0.43,0-0.64,0s-0.42,0-0.63,0c-0.2,0-0.35,0.05-0.46,0.15
			s-0.15,0.24-0.15,0.41c0,0.11,0.02,0.22,0.05,0.33c0.03,0.11,0.08,0.21,0.14,0.31s0.15,0.21,0.24,0.32
			c0.1,0.11,0.21,0.22,0.35,0.33h-0.6v-0.2c-0.14-0.11-0.27-0.23-0.37-0.35c-0.1-0.12-0.19-0.25-0.24-0.4
			c-0.06-0.14-0.09-0.3-0.09-0.48c0-0.15,0.03-0.29,0.08-0.42c0.05-0.12,0.12-0.23,0.22-0.31c0.09-0.08,0.2-0.14,0.33-0.19
			c0.12-0.04,0.26-0.07,0.4-0.07c0.21,0,0.42,0,0.63,0c0.21,0,0.42,0,0.63,0c0.21,0,0.42,0,0.62,0c0.15,0,0.3,0,0.45,0s0.3,0,0.44,0
			c0,0.08,0,0.16,0,0.23S21.71,31.82,21.71,31.89z M21.71,34.19c0,0.02,0,0.03-0.01,0.04c-0.01,0.01-0.02,0.02-0.02,0.02
			s-0.02,0.01-0.04,0.01c-0.33,0-0.65,0-0.98,0s-0.65,0-0.98,0s-0.65,0-0.98,0c-0.15,0-0.29,0-0.41,0c-0.12,0-0.21,0-0.28,0
			c0-0.05,0-0.1,0-0.16s0-0.11,0-0.16c0-0.05,0-0.1,0-0.15c0-0.01,0-0.03,0.01-0.04c0.01-0.01,0.01-0.02,0.02-0.03
			c0.01-0.01,0.02-0.01,0.04-0.01c0.41,0,0.81,0,1.21,0s0.81,0,1.21,0s0.81,0,1.21,0c0,0.06,0,0.11,0,0.16s0,0.1,0,0.15
			C21.71,34.09,21.71,34.14,21.71,34.19z"/>
		<path d="M18,36.47c0-0.05,0-0.1,0-0.16s0-0.11,0-0.16s0-0.11,0-0.16c0-0.01,0-0.03,0-0.04c0-0.01,0.01-0.02,0.01-0.02
			s0.02-0.01,0.02-0.01c0.01,0,0.02,0,0.04,0c0.25,0,0.49,0,0.74,0s0.49,0,0.73,0s0.49,0,0.73,0c0.25,0,0.49,0,0.73,0
			c0.16,0,0.3,0,0.42,0c0.12,0,0.21,0,0.28,0c0,0.06,0,0.12,0,0.17c0,0.05,0,0.11,0,0.16s0,0.1,0,0.15c0,0.02,0,0.03-0.01,0.04
			c-0.01,0.01-0.02,0.02-0.02,0.03c-0.01,0.01-0.02,0.01-0.04,0.01c-0.4,0-0.8,0-1.21,0c-0.4,0-0.81,0-1.21,0
			C18.81,36.47,18.41,36.47,18,36.47z M21.01,36.36v0.22c0.19,0.11,0.34,0.23,0.46,0.34c0.11,0.12,0.19,0.24,0.24,0.37
			s0.07,0.27,0.07,0.43c0,0.09,0,0.17-0.01,0.23c-0.01,0.06-0.02,0.12-0.04,0.17c-0.01,0.02-0.02,0.04-0.04,0.05
			c-0.02,0.01-0.04,0.01-0.07,0.01c-0.04,0-0.08,0-0.12,0c-0.04,0-0.08,0-0.12,0c-0.04,0-0.07,0-0.11,0c-0.04,0-0.07,0-0.11,0v-0.1
			c0.01-0.06,0.03-0.12,0.04-0.18s0.01-0.13,0.01-0.21c0-0.17-0.03-0.33-0.08-0.47c-0.05-0.15-0.15-0.29-0.29-0.42
			c-0.14-0.14-0.33-0.28-0.58-0.43H21.01z"/>
		<path d="M18.46,40.52c0,0.35,0.06,0.61,0.17,0.77s0.25,0.24,0.43,0.24c0.14,0,0.25-0.05,0.34-0.15c0.09-0.1,0.16-0.27,0.2-0.49
			l0.15-0.68c0.05-0.23,0.12-0.42,0.2-0.57c0.08-0.14,0.19-0.25,0.31-0.31c0.12-0.07,0.27-0.1,0.43-0.1c0.2,0,0.38,0.06,0.54,0.17
			s0.29,0.29,0.39,0.52c0.1,0.23,0.15,0.52,0.15,0.86c0,0.18-0.01,0.34-0.02,0.47c-0.02,0.13-0.04,0.24-0.06,0.34
			c-0.02,0.1-0.05,0.17-0.08,0.23c-0.01,0.03-0.03,0.05-0.04,0.06c-0.01,0.01-0.04,0.01-0.07,0.01c-0.06,0-0.13,0-0.2,0
			s-0.15,0-0.22,0v-0.11c0.07-0.17,0.12-0.34,0.15-0.49c0.03-0.16,0.04-0.35,0.04-0.58c0-0.2-0.03-0.37-0.08-0.51
			s-0.12-0.25-0.21-0.32c-0.08-0.07-0.17-0.11-0.27-0.11c-0.08,0-0.16,0.02-0.22,0.05s-0.11,0.1-0.15,0.19
			c-0.04,0.09-0.08,0.23-0.13,0.4l-0.15,0.71c-0.04,0.2-0.11,0.37-0.2,0.51c-0.09,0.14-0.2,0.25-0.33,0.32
			c-0.13,0.07-0.29,0.11-0.47,0.11c-0.22,0-0.42-0.06-0.59-0.19c-0.17-0.12-0.3-0.3-0.39-0.53c-0.09-0.23-0.14-0.5-0.14-0.82
			c0-0.17,0.01-0.32,0.02-0.46c0.02-0.14,0.04-0.27,0.07-0.39c0.03-0.12,0.07-0.22,0.11-0.31c0.04-0.09,0.08-0.17,0.14-0.23
			c0.01-0.01,0.02-0.02,0.03-0.02s0.03-0.01,0.05-0.01c0.07,0,0.14,0,0.23,0c0.09,0,0.17,0,0.25,0v0.1
			c-0.07,0.1-0.13,0.19-0.17,0.29c-0.05,0.1-0.09,0.2-0.12,0.3c-0.03,0.1-0.05,0.22-0.07,0.34C18.46,40.24,18.46,40.37,18.46,40.52z
			"/>
		<path d="M18.08,43.86c0.19,0,0.39,0,0.6,0c0.21,0,0.42,0,0.64,0s0.44,0,0.66,0c0.22,0,0.43,0,0.64,0c0.21,0,0.41,0,0.6,0v-0.11
			c0-0.06,0-0.12,0-0.19c0-0.06,0-0.13,0-0.2s0-0.13,0-0.19c0-0.02,0.01-0.04,0.02-0.06c0.02-0.01,0.03-0.02,0.05-0.02
			c0.07,0,0.14,0,0.21,0s0.14,0,0.21,0c0,0.08,0,0.15,0,0.24s0,0.17,0,0.26c0,0.09,0,0.17,0,0.25s0,0.17,0,0.25
			c0,0.08,0,0.16,0,0.23c0,0.01,0,0.03-0.01,0.04c-0.01,0.01-0.02,0.02-0.03,0.03s-0.02,0.01-0.04,0.01c-0.24,0-0.49,0-0.74,0
			s-0.51,0-0.76,0s-0.51,0-0.76,0s-0.5,0-0.74,0c-0.07,0-0.13,0-0.2,0c-0.07,0-0.14,0-0.21,0c-0.07,0-0.14,0-0.22,0
			c0-0.08,0-0.16,0-0.23s0-0.15,0-0.23c0-0.02,0.01-0.04,0.02-0.06C18.04,43.86,18.06,43.86,18.08,43.86z M23.38,43.7
			c0,0.06,0,0.11,0,0.17c0,0.06,0,0.12,0,0.17c0,0.06,0,0.12,0,0.17s0,0.12,0,0.17c0,0.02-0.01,0.04-0.02,0.06s-0.03,0.02-0.06,0.02
			h-0.62c0-0.06,0-0.11,0-0.17c0-0.06,0-0.12,0-0.17c0-0.06,0-0.12,0-0.18c0-0.06,0-0.12,0-0.17c0-0.02,0.01-0.04,0.02-0.06
			c0.01-0.01,0.03-0.02,0.06-0.02H23.38z"/>
		<path d="M21.71,46.38c0,0.01,0,0.03-0.01,0.04c0,0.01-0.01,0.02-0.02,0.02s-0.02,0.01-0.04,0.02c-0.34,0.12-0.67,0.24-1.02,0.36
			c-0.34,0.12-0.7,0.25-1.06,0.38s-0.76,0.25-1.18,0.37v0.11c0.25,0.07,0.49,0.15,0.72,0.22c0.23,0.08,0.46,0.15,0.68,0.23
			s0.44,0.15,0.65,0.23c0.21,0.08,0.43,0.15,0.63,0.22c0.21,0.07,0.42,0.15,0.63,0.22c0,0.08,0,0.17,0,0.25c0,0.08,0,0.16,0,0.23
			c0,0.02,0,0.03-0.01,0.04s-0.02,0.02-0.03,0.02s-0.03,0-0.05-0.01c-0.3-0.11-0.61-0.22-0.91-0.33c-0.3-0.11-0.6-0.22-0.9-0.33
			c-0.3-0.11-0.6-0.22-0.9-0.33c-0.3-0.11-0.6-0.22-0.91-0.33c0-0.13,0-0.25,0-0.38s0-0.25,0-0.39c0-0.02,0.01-0.04,0.02-0.06
			s0.04-0.03,0.06-0.04c0.41-0.15,0.81-0.3,1.21-0.44s0.8-0.29,1.21-0.43s0.81-0.29,1.21-0.43c0,0.08,0,0.17,0,0.26
			C21.71,46.2,21.71,46.29,21.71,46.38z"/>
		<path d="M21.78,52.11c0,0.27-0.05,0.51-0.16,0.74c-0.11,0.23-0.28,0.41-0.51,0.55s-0.53,0.21-0.91,0.21h-0.49
			c-0.01,0-0.03,0-0.04-0.01c-0.01-0.01-0.02-0.02-0.03-0.02c-0.01-0.01-0.01-0.02-0.01-0.04v-1.88c0-0.07,0-0.15,0-0.23
			c0-0.08,0-0.15,0-0.23V51l0.41-0.11v2.18c0.02,0,0.05,0,0.07,0c0.03,0,0.05,0,0.07,0c0.21,0,0.38-0.02,0.52-0.07
			c0.14-0.04,0.26-0.11,0.35-0.21c0.08-0.08,0.14-0.18,0.17-0.29c0.04-0.12,0.06-0.25,0.06-0.39c0-0.32-0.09-0.57-0.26-0.75
			s-0.46-0.27-0.86-0.27h-0.7c-0.16,0-0.31,0.02-0.44,0.07c-0.13,0.04-0.24,0.11-0.32,0.19c-0.1,0.1-0.17,0.23-0.22,0.39
			c-0.05,0.16-0.08,0.35-0.08,0.57c0,0.18,0.01,0.33,0.03,0.46c0.02,0.13,0.05,0.25,0.09,0.36c0.04,0.11,0.09,0.23,0.16,0.35v0.1
			c-0.07,0-0.13,0-0.2,0s-0.13,0-0.2,0c-0.01,0-0.02,0-0.03,0c-0.01,0-0.02-0.01-0.03-0.02c-0.06-0.06-0.11-0.14-0.15-0.26
			c-0.05-0.12-0.09-0.27-0.12-0.44c-0.03-0.18-0.05-0.37-0.05-0.57c0-0.26,0.03-0.49,0.1-0.7c0.07-0.21,0.16-0.39,0.29-0.54
			s0.29-0.26,0.48-0.35c0.19-0.08,0.42-0.12,0.68-0.12h0.7c0.28,0,0.53,0.04,0.73,0.12c0.2,0.08,0.37,0.2,0.5,0.34
			c0.13,0.15,0.23,0.31,0.28,0.5C21.75,51.71,21.78,51.9,21.78,52.11z"/>
	</g>
</g>
<g>
	<g>
		<path d="M18,127.21c0-0.08,0-0.16,0-0.24s0-0.16,0-0.25c0-0.02,0.01-0.04,0.02-0.06s0.03-0.02,0.06-0.02c0.39,0,0.77,0,1.15,0
			s0.76,0,1.13,0s0.76,0,1.13,0s0.76,0,1.15,0v0.61l-0.12-0.05c-0.1,0-0.19,0-0.29,0s-0.19,0-0.29,0c-0.35,0-0.71,0-1.07,0
			c-0.36,0-0.72,0-1.08,0c-0.36,0-0.73,0-1.1,0c-0.12,0-0.24,0-0.36,0S18.11,127.21,18,127.21z M22.9,126.21c0,0.33,0,0.66,0,0.99
			s0,0.66,0,0.98c0,0.18-0.01,0.35-0.04,0.5c-0.03,0.16-0.07,0.3-0.13,0.44c-0.06,0.13-0.14,0.25-0.25,0.34
			c-0.1,0.09-0.23,0.17-0.38,0.22s-0.33,0.08-0.54,0.08H21.1c-0.21,0-0.4-0.03-0.56-0.1c-0.17-0.07-0.31-0.17-0.42-0.3
			s-0.21-0.29-0.27-0.49c-0.06-0.19-0.09-0.42-0.09-0.67c0-0.17,0-0.35,0-0.53s0-0.36,0-0.54l-0.02-0.08h0.52c0,0.2,0,0.39,0,0.58
			c0,0.19,0,0.37,0,0.56c0,0.17,0.02,0.31,0.05,0.44c0.03,0.12,0.09,0.23,0.16,0.31c0.07,0.08,0.16,0.15,0.27,0.19
			c0.11,0.04,0.23,0.06,0.37,0.06h0.5c0.13,0,0.24-0.01,0.33-0.04s0.17-0.08,0.24-0.15c0.08-0.08,0.14-0.19,0.18-0.32
			c0.04-0.14,0.06-0.3,0.06-0.5c0-0.21,0-0.42,0-0.63s0-0.42,0-0.63c0-0.21,0-0.42,0-0.63c0-0.02,0.01-0.04,0.02-0.06
			c0.01-0.01,0.03-0.02,0.06-0.02c0.07,0,0.14,0,0.21,0S22.82,126.21,22.9,126.21z"/>
		<path d="M18,131.68c0-0.08,0-0.16,0-0.24c0-0.07,0-0.15,0-0.24c0-0.02,0.01-0.04,0.02-0.06c0.01-0.01,0.03-0.02,0.06-0.02
			c0.39,0,0.77,0,1.15,0s0.76,0,1.13,0s0.76,0,1.13,0s0.76,0,1.15,0v0.64l-0.12-0.08c-0.23,0-0.47,0-0.7,0s-0.46,0-0.69,0
			c-0.27,0-0.54,0-0.81,0c-0.27,0-0.54,0-0.81,0s-0.54,0-0.83,0c-0.12,0-0.24,0-0.36,0S18.11,131.68,18,131.68z M20.3,133
			c-0.26,0.14-0.51,0.28-0.76,0.41c-0.25,0.13-0.51,0.27-0.77,0.4c-0.1,0.06-0.17,0.12-0.21,0.17c-0.04,0.05-0.06,0.12-0.06,0.2
			c0,0.03,0,0.05,0,0.07s0,0.04,0,0.06v0.09c-0.08,0-0.15,0-0.21,0c-0.06,0-0.13,0-0.21,0c-0.02,0-0.04-0.01-0.06-0.02
			c-0.01-0.01-0.02-0.03-0.02-0.06c0-0.03,0-0.07,0-0.11c0-0.04,0-0.08,0-0.12c0-0.12,0.02-0.22,0.05-0.31s0.09-0.17,0.16-0.24
			c0.07-0.07,0.17-0.14,0.29-0.2c0.26-0.14,0.52-0.27,0.78-0.41c0.26-0.14,0.52-0.27,0.78-0.41L20.3,133z M22.9,130.69
			c0,0.22,0,0.44,0,0.66s0,0.44,0,0.67s0,0.44,0,0.66c0,0.24-0.03,0.45-0.09,0.63s-0.15,0.33-0.27,0.45s-0.26,0.21-0.42,0.27
			c-0.16,0.06-0.35,0.09-0.55,0.09h-0.32c-0.2,0-0.38-0.03-0.55-0.09c-0.16-0.06-0.3-0.15-0.42-0.27c-0.11-0.12-0.2-0.26-0.26-0.44
			c-0.06-0.17-0.09-0.37-0.09-0.59c0-0.18,0-0.37,0-0.55c0-0.18,0-0.37,0-0.56l-0.06-0.08h0.54c0,0.19,0,0.37,0,0.56
			c0,0.19,0,0.38,0,0.57c0,0.2,0.03,0.37,0.09,0.49c0.06,0.13,0.16,0.23,0.28,0.29s0.28,0.1,0.46,0.1h0.3
			c0.13,0,0.25-0.02,0.35-0.05s0.19-0.08,0.26-0.15c0.07-0.07,0.12-0.17,0.16-0.28c0.04-0.11,0.06-0.24,0.06-0.4
			c0-0.21,0-0.43,0-0.64c0-0.21,0-0.42,0-0.63s0-0.42,0-0.64c0-0.02,0.01-0.04,0.02-0.06c0.01-0.01,0.03-0.02,0.06-0.02
			c0.07,0,0.14,0,0.21,0S22.82,130.69,22.9,130.69z"/>
		<path d="M23.04,137.24c0,0.25-0.04,0.49-0.12,0.7c-0.08,0.22-0.19,0.41-0.35,0.57c-0.16,0.16-0.36,0.29-0.6,0.37
			s-0.52,0.13-0.85,0.13H19.7c-0.42,0-0.77-0.08-1.04-0.25c-0.27-0.16-0.47-0.38-0.61-0.65c-0.13-0.27-0.2-0.57-0.2-0.9
			c0-0.32,0.07-0.61,0.2-0.88c0.13-0.27,0.34-0.49,0.61-0.65c0.27-0.16,0.62-0.24,1.04-0.24h1.42c0.43,0,0.79,0.08,1.07,0.24
			c0.28,0.16,0.49,0.38,0.63,0.65C22.97,136.61,23.04,136.91,23.04,137.24z M19.7,135.99c-0.26,0-0.47,0.04-0.64,0.11
			c-0.17,0.08-0.3,0.16-0.41,0.27c-0.08,0.09-0.15,0.21-0.21,0.35c-0.06,0.14-0.08,0.31-0.08,0.53c0,0.24,0.05,0.45,0.16,0.63
			s0.26,0.33,0.46,0.44c0.2,0.11,0.45,0.16,0.75,0.16h1.47c0.17,0,0.32-0.01,0.45-0.04s0.25-0.07,0.34-0.13
			c0.1-0.06,0.18-0.12,0.25-0.2c0.09-0.09,0.17-0.21,0.22-0.36c0.05-0.15,0.08-0.32,0.08-0.51c0-0.29-0.05-0.53-0.16-0.72
			c-0.11-0.18-0.26-0.32-0.46-0.41c-0.2-0.09-0.44-0.13-0.72-0.13H19.7z"/>
		<path d="M18,141c0-0.08,0-0.16,0-0.24s0-0.16,0-0.25c0-0.02,0.01-0.04,0.02-0.06s0.03-0.02,0.06-0.02c0.39,0,0.77,0,1.15,0
			s0.76,0,1.13,0s0.76,0,1.13,0s0.76,0,1.15,0v0.61L22.52,141c-0.1,0-0.19,0-0.29,0s-0.19,0-0.29,0c-0.35,0-0.71,0-1.07,0
			c-0.36,0-0.72,0-1.08,0c-0.36,0-0.73,0-1.1,0c-0.12,0-0.24,0-0.36,0S18.11,141,18,141z M22.9,140c0,0.33,0,0.66,0,0.99
			s0,0.66,0,0.98c0,0.18-0.01,0.35-0.04,0.5c-0.03,0.16-0.07,0.3-0.13,0.44c-0.06,0.13-0.14,0.25-0.25,0.34
			c-0.1,0.09-0.23,0.17-0.38,0.22s-0.33,0.08-0.54,0.08H21.1c-0.21,0-0.4-0.03-0.56-0.1c-0.17-0.07-0.31-0.17-0.42-0.3
			s-0.21-0.29-0.27-0.49c-0.06-0.19-0.09-0.42-0.09-0.67c0-0.17,0-0.35,0-0.53s0-0.36,0-0.54l-0.02-0.08h0.52c0,0.2,0,0.39,0,0.58
			c0,0.19,0,0.37,0,0.56c0,0.17,0.02,0.31,0.05,0.44c0.03,0.12,0.09,0.23,0.16,0.31c0.07,0.08,0.16,0.15,0.27,0.19
			c0.11,0.04,0.23,0.06,0.37,0.06h0.5c0.13,0,0.24-0.01,0.33-0.04s0.17-0.08,0.24-0.15c0.08-0.08,0.14-0.19,0.18-0.32
			c0.04-0.14,0.06-0.3,0.06-0.5c0-0.21,0-0.42,0-0.63s0-0.42,0-0.63c0-0.21,0-0.42,0-0.63c0-0.02,0.01-0.04,0.02-0.06
			c0.01-0.01,0.03-0.02,0.06-0.02c0.07,0,0.14,0,0.21,0S22.82,140,22.9,140z"/>
		<path d="M18.51,147.26c0,0.01,0,0.08,0,0.2c0,0.12,0,0.27,0,0.45c0,0.18,0,0.38,0,0.6c0,0.21,0,0.43,0,0.65c0,0.22,0,0.42,0,0.6
			c0,0.18,0,0.33,0,0.44s0,0.18,0,0.19c0,0.02-0.01,0.04-0.02,0.06c-0.01,0.01-0.03,0.02-0.06,0.02c-0.02,0-0.05,0-0.09,0
			c-0.04,0-0.08,0-0.13,0c-0.04,0-0.09,0-0.13,0c-0.04,0-0.07,0-0.09,0c0-0.01,0-0.08,0-0.2c0-0.12,0-0.27,0-0.45s0-0.38,0-0.59
			c0-0.21,0-0.43,0-0.64s0-0.41,0-0.59s0-0.33,0-0.44s0-0.18,0-0.19c0-0.01,0-0.02,0.01-0.03c0-0.01,0.01-0.02,0.01-0.03
			c0.01,0,0.02-0.01,0.03-0.01s0.02-0.01,0.03-0.01c0.02,0,0.04,0,0.07,0s0.06,0,0.09,0c0.03,0,0.07,0,0.1,0c0.03,0,0.07,0,0.09,0
			C18.47,147.26,18.49,147.26,18.51,147.26z M22.97,148.64c0,0.02,0,0.05,0,0.09c0,0.04,0,0.08,0,0.13c0,0.04,0,0.09,0,0.13
			c0,0.04,0,0.08,0,0.12s0,0.06,0,0.08s0,0.03-0.01,0.04c-0.01,0.01-0.02,0.02-0.02,0.02s-0.02,0.01-0.04,0.01c-0.01,0-0.1,0-0.26,0
			s-0.36,0-0.62,0s-0.53,0-0.83,0s-0.61,0-0.92,0c-0.31,0-0.61,0-0.88,0c-0.28,0-0.51,0-0.71,0c-0.2,0-0.33,0-0.41,0v-0.59
			l0.15,0.04c0.04,0,0.09,0,0.15,0s0.11,0,0.17,0s0.11,0,0.14,0c0.05,0,0.14,0,0.28,0c0.14,0,0.32,0,0.53,0s0.44,0,0.68,0
			s0.48,0,0.73,0s0.47,0,0.68,0s0.39,0,0.54,0c0.15,0,0.25,0,0.29,0l-0.18,0.13v-0.35l0.15,0.22c-0.13-0.08-0.23-0.15-0.32-0.22
			s-0.17-0.14-0.24-0.22c-0.08-0.08-0.17-0.18-0.28-0.29c-0.1-0.11-0.18-0.21-0.26-0.3s-0.13-0.15-0.16-0.2
			c-0.04-0.05-0.06-0.08-0.06-0.1c0-0.01,0-0.03,0.01-0.04c0.01-0.01,0.02-0.01,0.03-0.02c0.01,0,0.03,0,0.05,0h0.48
			c0.1,0.11,0.19,0.22,0.29,0.33s0.19,0.22,0.29,0.33c0.07,0.07,0.13,0.15,0.2,0.22c0.07,0.07,0.13,0.15,0.2,0.22
			S22.91,148.58,22.97,148.64z"/>
		<path d="M17.96,152.68c0-0.13,0-0.29,0-0.46c0-0.18,0-0.33,0-0.47c0-0.01,0-0.03,0.01-0.04c0.01-0.01,0.02-0.02,0.03-0.03
			s0.02-0.01,0.04-0.01h0.91c0,0.14,0,0.29,0,0.47c0,0.18,0,0.33,0,0.46c0,0.02,0,0.03-0.01,0.04c-0.01,0.01-0.02,0.02-0.02,0.02
			c-0.01,0.01-0.02,0.01-0.04,0.01H17.96z"/>
		<path d="M23.04,155.62c0,0.33-0.08,0.61-0.24,0.85c-0.16,0.24-0.38,0.42-0.67,0.55c-0.29,0.13-0.62,0.19-1.01,0.19h-1.33
			c-0.4,0-0.75-0.07-1.03-0.2c-0.29-0.13-0.51-0.32-0.66-0.56c-0.15-0.24-0.23-0.52-0.23-0.85c0-0.25,0.05-0.47,0.14-0.67
			c0.09-0.2,0.22-0.37,0.39-0.5c0.17-0.14,0.37-0.24,0.61-0.31s0.5-0.11,0.78-0.11h1.33c0.4,0,0.75,0.07,1.03,0.2
			s0.51,0.32,0.66,0.56C22.96,155,23.04,155.29,23.04,155.62z M22.54,155.61c0-0.21-0.05-0.4-0.15-0.56
			c-0.1-0.16-0.25-0.28-0.46-0.37s-0.48-0.13-0.81-0.13h-1.33c-0.13,0-0.24,0.01-0.35,0.02c-0.11,0.01-0.21,0.03-0.3,0.06
			c-0.09,0.03-0.17,0.06-0.24,0.09c-0.17,0.09-0.3,0.21-0.39,0.36c-0.09,0.15-0.13,0.32-0.13,0.52c0,0.22,0.05,0.41,0.16,0.57
			s0.26,0.29,0.47,0.37c0.21,0.09,0.47,0.13,0.79,0.13h1.34c0.18,0,0.34-0.01,0.49-0.04c0.14-0.03,0.27-0.07,0.38-0.12
			c0.11-0.05,0.2-0.11,0.27-0.19c0.09-0.09,0.16-0.19,0.21-0.31C22.51,155.88,22.54,155.75,22.54,155.61z"/>
		<path d="M23.04,160.1c0,0.33-0.08,0.61-0.24,0.85c-0.16,0.24-0.38,0.42-0.67,0.55c-0.29,0.13-0.62,0.19-1.01,0.19h-1.33
			c-0.4,0-0.75-0.07-1.03-0.2c-0.29-0.13-0.51-0.32-0.66-0.56c-0.15-0.24-0.23-0.52-0.23-0.85c0-0.25,0.05-0.47,0.14-0.67
			c0.09-0.2,0.22-0.37,0.39-0.5c0.17-0.14,0.37-0.24,0.61-0.31s0.5-0.11,0.78-0.11h1.33c0.4,0,0.75,0.07,1.03,0.2
			s0.51,0.32,0.66,0.56C22.96,159.48,23.04,159.77,23.04,160.1z M22.54,160.09c0-0.21-0.05-0.4-0.15-0.56
			c-0.1-0.16-0.25-0.28-0.46-0.37s-0.48-0.13-0.81-0.13h-1.33c-0.13,0-0.24,0.01-0.35,0.02c-0.11,0.01-0.21,0.03-0.3,0.06
			c-0.09,0.03-0.17,0.06-0.24,0.09c-0.17,0.09-0.3,0.21-0.39,0.36c-0.09,0.15-0.13,0.32-0.13,0.52c0,0.22,0.05,0.41,0.16,0.57
			s0.26,0.29,0.47,0.37c0.21,0.09,0.47,0.13,0.79,0.13h1.34c0.18,0,0.34-0.01,0.49-0.04c0.14-0.03,0.27-0.07,0.38-0.12
			c0.11-0.05,0.2-0.11,0.27-0.19c0.09-0.09,0.16-0.19,0.21-0.31C22.51,160.36,22.54,160.23,22.54,160.09z"/>
	</g>
</g>
</svg>
