<?xml version="1.0" encoding="utf-8"?>
<!-- Generator: Adobe Illustrator 23.0.3, SVG Export Plug-In . SVG Version: 6.00 Build 0)  -->
<svg version="1.1" id="Layer_1" xmlns="http://www.w3.org/2000/svg" xmlns:xlink="http://www.w3.org/1999/xlink" x="0px" y="0px"
	 viewBox="0 0 252 252" style="enable-background:new 0 0 252 252;" xml:space="preserve">
<style type="text/css">
	.st0{fill:#FFFFFF;}
	.st1{fill:#EC008C;}
</style>
<g>
	<g>
		<path d="M74.66,212.43c0.22,1.22,0.37,2.25,0.46,3.11c0.08,0.86,0.12,2.01,0.12,3.45c0,2.88-0.2,5.13-0.58,6.76
			c-0.39,1.63-1.08,2.77-2.08,3.4c-1,0.64-2.41,0.95-4.23,0.95c-4.48,0-8.95,0-13.4,0c-4.45,0-8.92,0-13.4,0s-8.94,0-13.36,0
			c-2.38,0-4.52,0.08-6.43,0.25c-1.91,0.17-3.64,0.42-5.19,0.75c-0.28-1.27-0.48-2.59-0.62-3.94c-0.14-1.36-0.21-2.72-0.21-4.11
			c0-2.6,0.17-4.69,0.5-6.27s0.9-2.79,1.7-3.65c0.8-0.86,1.87-1.4,3.2-1.62c1.05-0.22,2.12-0.46,3.2-0.71
			c1.08-0.25,2.16-0.51,3.24-0.79c1.08-0.28,2.19-0.59,3.32-0.96c1.13-0.36,2.32-0.77,3.57-1.24c1.25-0.47,2.53-0.98,3.86-1.54
			l-1.74,2.57v-2.9l1.66,2.32c-1.44-0.66-2.85-1.26-4.23-1.79c-1.38-0.53-2.78-1-4.19-1.41c-1.41-0.42-2.82-0.79-4.23-1.12
			s-2.88-0.59-4.4-0.79c-1.52-0.19-3.08-0.34-4.69-0.46c-0.28-1.27-0.47-2.59-0.58-3.94c-0.11-1.36-0.17-2.7-0.17-4.03
			c0-2.54,0.2-4.57,0.58-6.06c0.39-1.49,1.02-2.57,1.91-3.24c0.89-0.66,2.05-1,3.49-1c2.16,0,4.36,0,6.6,0s4.51,0,6.81,0
			c2.3,0,4.59,0,6.89,0c2.3,0,4.62,0,6.97,0c2.35,0,4.69,0,7.01,0c2.32,0,4.68,0,7.05,0c2.38,0,4.51-0.08,6.39-0.25
			c1.88-0.17,3.62-0.42,5.23-0.75c0.28,1.27,0.48,2.57,0.62,3.9c0.14,1.33,0.21,2.71,0.21,4.15c0,2.6-0.22,4.69-0.66,6.27
			c-0.44,1.58-1.2,2.7-2.28,3.36c-1.08,0.66-2.5,1-4.27,1c-0.22,0-0.44,0-0.66,0c-0.22,0-0.44,0-0.66,0c-1.16,0-2.29-0.12-3.4-0.37
			c-1.11-0.25-2.28-0.58-3.53-1c-1.25-0.42-2.7-0.87-4.36-1.37c-1.66-0.5-3.61-1-5.85-1.49c-2.24-0.5-4.9-0.98-7.97-1.45
			c-3.07-0.47-6.65-0.84-10.75-1.12l3.15-1.58v2.99l-3.07-1.58c3.65,1,7.04,2.08,10.17,3.24c3.13,1.16,5.89,2.28,8.3,3.36
			c2.41,1.08,4.37,2.03,5.89,2.86c1.52,0.83,2.5,1.47,2.95,1.91c0,0.11,0,0.24,0,0.37c0,0.14,0,0.26,0,0.37
			c0,0.22-0.03,0.41-0.08,0.58c-0.05,0.17-0.17,0.33-0.33,0.5c-0.5,0.5-1.48,1.15-2.95,1.95c-1.47,0.8-3.36,1.7-5.69,2.7
			s-4.99,2.05-8.01,3.15c-3.01,1.11-6.35,2.21-10,3.32l3.15-2.57v3.98l-3.24-1.66c4.21-0.28,7.83-0.63,10.87-1.08
			c3.04-0.44,5.64-0.91,7.8-1.41s4.03-1.01,5.6-1.54c1.58-0.53,3.02-1,4.32-1.41c1.3-0.42,2.61-0.75,3.94-1
			c1.33-0.25,2.82-0.37,4.48-0.37c1.05,0,2.1,0,3.15,0C72.55,212.43,73.61,212.43,74.66,212.43z"/>
		<path d="M28.01,153.41c0-3.43,0.53-6.54,1.58-9.34c1.05-2.79,2.63-5.19,4.73-7.18c2.1-1.99,4.69-3.53,7.76-4.61
			c3.07-1.08,6.63-1.62,10.67-1.62h1.16c4.59,0,8.51,0.89,11.74,2.66c3.24,1.77,5.71,4.34,7.43,7.72s2.57,7.44,2.57,12.2
			c0,3.43-0.47,6.54-1.41,9.34c-0.94,2.79-2.32,5.19-4.15,7.18s-4.09,3.53-6.81,4.61c-2.71,1.08-5.84,1.62-9.38,1.62h-1.16
			c-5.2,0-9.64-0.88-13.32-2.66c-3.68-1.77-6.5-4.34-8.47-7.72C28.99,162.24,28.01,158.17,28.01,153.41z M43.62,152.91
			c0,1.05,0.3,1.92,0.91,2.62c0.61,0.69,1.59,1.19,2.95,1.49c1.36,0.3,3.14,0.46,5.35,0.46h1.08c1.27,0,2.37-0.04,3.28-0.12
			s1.7-0.24,2.37-0.46c0.17-0.44,0.29-0.93,0.37-1.45c0.08-0.53,0.12-1.2,0.12-2.03c0-1-0.21-1.8-0.62-2.41
			c-0.42-0.61-1.08-1.07-1.99-1.37c-0.91-0.3-2.12-0.46-3.61-0.46h-1.08c-1.99,0-3.65,0.06-4.98,0.17
			c-1.33,0.11-2.57,0.33-3.73,0.66c-0.17,0.44-0.28,0.89-0.33,1.33C43.64,151.78,43.62,152.31,43.62,152.91z"/>
		<path d="M74.66,75.98c0.28,1.49,0.48,2.92,0.62,4.27c0.14,1.36,0.21,2.89,0.21,4.61c0,2.71-0.4,4.97-1.2,6.76
			c-0.8,1.8-1.99,3.15-3.57,4.07c-1.58,0.91-3.53,1.37-5.85,1.37c-0.88,0-2.27-0.14-4.15-0.42c-1.88-0.28-4.12-0.68-6.72-1.2
			c-2.6-0.53-5.37-1.12-8.3-1.78c-0.11,0.22-0.21,0.57-0.29,1.04c-0.08,0.47-0.12,0.96-0.12,1.45c0,0.72,0.11,1.45,0.33,2.2
			c0.22,0.75,0.59,1.47,1.12,2.16c0.53,0.69,1.2,1.3,2.03,1.83c0.83,0.53,1.85,0.95,3.07,1.29l-12.62,1.08v-2.08
			c-2.32-0.88-4.33-2.08-6.02-3.57c-1.69-1.49-3-3.17-3.94-5.02c-0.94-1.85-1.41-3.72-1.41-5.6c0-1.33,0.51-2.64,1.54-3.94
			c1.02-1.3,2.38-2.49,4.07-3.57c1.69-1.08,3.54-1.94,5.56-2.57c2.02-0.64,4.05-0.95,6.1-0.95c1.99,0,3.98,0,5.98,0s3.98,0,5.98,0
			c1.99,0,3.98,0,5.98,0c2.32,0,4.46-0.11,6.39-0.33C71.37,76.83,73.11,76.47,74.66,75.98z M74.66,103.12
			c0.11,0.72,0.22,1.47,0.33,2.24c0.11,0.78,0.18,1.56,0.21,2.37c0.03,0.8,0.04,1.62,0.04,2.45c0,2.1-0.14,3.87-0.42,5.31
			c-0.28,1.44-0.73,2.59-1.37,3.44c-0.63,0.86-1.48,1.48-2.53,1.87c-1.05,0.39-2.35,0.58-3.9,0.58c-1.99,0-4.05,0-6.18,0
			s-4.3,0-6.52,0c-2.21,0-4.47,0-6.76,0c-2.3,0-4.61,0-6.93,0c-2.38,0-4.52,0.12-6.43,0.37s-3.64,0.62-5.19,1.12
			c-0.22-1-0.39-1.96-0.5-2.91c-0.11-0.94-0.19-1.88-0.25-2.82c-0.05-0.94-0.08-1.88-0.08-2.82c0-2.6,0.36-4.72,1.08-6.35
			c0.72-1.63,1.8-2.85,3.24-3.65c1.44-0.8,3.21-1.2,5.31-1.2c4.1,0,8.19,0,12.28,0c4.1,0,8.19,0,12.28,0
			C66.47,103.12,70.56,103.12,74.66,103.12z"/>
		<path d="M28.01,45.51c0-3.43,0.53-6.54,1.58-9.34c1.05-2.79,2.63-5.19,4.73-7.18c2.1-1.99,4.69-3.53,7.76-4.61
			c3.07-1.08,6.63-1.62,10.67-1.62h1.16c4.59,0,8.51,0.89,11.74,2.66c3.24,1.77,5.71,4.34,7.43,7.72s2.57,7.44,2.57,12.2
			c0,3.43-0.47,6.54-1.41,9.34c-0.94,2.79-2.32,5.19-4.15,7.18s-4.09,3.53-6.81,4.61c-2.71,1.08-5.84,1.62-9.38,1.62h-1.16
			c-5.2,0-9.64-0.88-13.32-2.66c-3.68-1.77-6.5-4.34-8.47-7.72C28.99,54.34,28.01,50.27,28.01,45.51z M43.62,45.02
			c0,1.05,0.3,1.92,0.91,2.62c0.61,0.69,1.59,1.19,2.95,1.49c1.36,0.3,3.14,0.46,5.35,0.46h1.08c1.27,0,2.37-0.04,3.28-0.12
			s1.7-0.24,2.37-0.46c0.17-0.44,0.29-0.93,0.37-1.45c0.08-0.53,0.12-1.2,0.12-2.03c0-1-0.21-1.8-0.62-2.41
			c-0.42-0.61-1.08-1.07-1.99-1.37c-0.91-0.3-2.12-0.46-3.61-0.46h-1.08c-1.99,0-3.65,0.06-4.98,0.17
			c-1.33,0.11-2.57,0.33-3.73,0.66c-0.17,0.44-0.28,0.89-0.33,1.33C43.64,43.88,43.62,44.41,43.62,45.02z"/>
	</g>
	<g>
		<path d="M86.53,221.89c0-1.66,0-3.26,0-4.81c0-1.55,0-3.15,0-4.81c0-0.33,0.08-0.58,0.25-0.75s0.44-0.22,0.83-0.17
			c0.44,0,1.58,0.18,3.4,0.54c1.83,0.36,4.21,0.8,7.14,1.33c2.93,0.53,6.29,1.16,10.08,1.91c3.79,0.75,7.93,1.61,12.41,2.57
			c4.48,0.97,9.19,1.95,14.11,2.95l-2.49,1.49v-5.4l2.49,2.66c-3.26-1.16-6.49-2.31-9.67-3.44c-3.18-1.13-6.36-2.27-9.54-3.4
			c-3.18-1.13-6.32-2.28-9.42-3.44c-3.1-1.16-6.14-2.3-9.13-3.4v-8.38c0-0.28,0.07-0.48,0.21-0.62c0.14-0.14,0.37-0.21,0.71-0.21
			c0.66,0.11,1.91,0.29,3.74,0.54s4.07,0.55,6.72,0.91c2.66,0.36,5.49,0.76,8.51,1.2c3.02,0.44,6.09,0.86,9.21,1.25
			c3.13,0.39,6.02,0.78,8.67,1.16l-2.49,1.25v-5.31l2.49,2.74c-5.04-1.38-9.49-2.66-13.36-3.82c-3.87-1.16-7.33-2.19-10.38-3.07
			c-3.04-0.88-5.88-1.73-8.51-2.53c-2.63-0.8-5.23-1.6-7.8-2.41c-2.57-0.8-5.3-1.65-8.18-2.53c0-1.66,0-3.28,0-4.86
			c0-1.58,0-3.2,0-4.86c0-0.22,0.04-0.4,0.12-0.54c0.08-0.14,0.21-0.24,0.37-0.29s0.36-0.05,0.58,0c0.55,0.22,1.91,0.72,4.07,1.49
			s4.84,1.74,8.05,2.9c3.21,1.16,6.74,2.44,10.58,3.82s7.82,2.82,11.91,4.32c4.1,1.49,8.07,2.93,11.91,4.32
			c3.85,1.38,7.37,2.68,10.58,3.9c0,1.99,0,3.98,0,5.98c0,1.99,0,3.98,0,5.98c0,0.22-0.07,0.39-0.21,0.5
			c-0.14,0.11-0.37,0.14-0.71,0.08c-0.44,0-1.38-0.08-2.82-0.25c-1.44-0.17-3.24-0.39-5.39-0.66c-2.16-0.28-4.63-0.63-7.43-1.08
			c-2.79-0.44-5.81-0.93-9.05-1.45c-3.24-0.53-6.57-1.12-10-1.78l2.08-1.58v5.56l-2.08-2.66c3.43,1.11,6.76,2.19,10,3.24
			c3.24,1.05,6.28,2.05,9.13,2.99c2.85,0.94,5.39,1.81,7.64,2.61c2.24,0.8,4.12,1.48,5.64,2.03c1.52,0.55,2.59,0.97,3.2,1.25
			c0,2.1,0,4.19,0,6.27c0,2.08,0,4.16,0,6.27c0,0.22-0.07,0.39-0.21,0.5c-0.14,0.11-0.4,0.14-0.79,0.08
			c-0.5-0.05-1.87-0.25-4.11-0.58c-2.24-0.33-5.09-0.73-8.55-1.2c-3.46-0.47-7.25-1-11.37-1.58s-8.34-1.17-12.66-1.79
			c-4.32-0.61-8.44-1.19-12.37-1.74c-1.44-0.28-2.86-0.5-4.28-0.66C88.98,222.22,87.69,222.06,86.53,221.89z"/>
		<path d="M82.38,163.87c0-2.88,0-5.74,0-8.59c0-2.85,0-5.71,0-8.59c0-2.88,0-5.75,0-8.63c0-0.17,0.03-0.3,0.08-0.42
			c0.06-0.11,0.15-0.19,0.29-0.25c0.14-0.05,0.32-0.05,0.54,0c3.21,0.83,6.43,1.63,9.67,2.41c3.24,0.78,6.46,1.56,9.67,2.37
			c3.21,0.8,6.42,1.61,9.63,2.41c3.21,0.8,6.43,1.61,9.67,2.41c3.24,0.8,6.46,1.62,9.67,2.45c0.61,0.11,1.08,0.17,1.41,0.17
			s0.61-0.14,0.83-0.42c0.22-0.17,0.39-0.42,0.5-0.75c0.11-0.33,0.17-0.75,0.17-1.25c0-1.11,0-2.2,0-3.28s0-2.14,0-3.2
			c0-1.05,0-2.13,0-3.24v-1.58c1.49,0.33,3.03,0.69,4.61,1.08c1.58,0.39,3.11,0.8,4.61,1.25c0.28,0.06,0.5,0.18,0.66,0.37
			s0.25,0.46,0.25,0.79c0,0.17,0,0.73,0,1.7c0,0.97,0,2.16,0,3.57c0,1.41,0,2.92,0,4.52c0,2.77-0.36,5.02-1.08,6.76
			c-0.72,1.74-1.7,3.04-2.95,3.9s-2.7,1.36-4.36,1.49c-1.66,0.14-3.46-0.04-5.4-0.54c-2.54-0.61-5.1-1.24-7.68-1.91
			c-2.57-0.66-5.15-1.31-7.72-1.95c-2.57-0.63-5.13-1.26-7.68-1.87c-2.54-0.61-5.09-1.24-7.64-1.91c-2.54-0.66-5.09-1.3-7.64-1.91
			v2.49c0,1.27,0,2.56,0,3.86c0,1.3,0,2.62,0,3.94s0,2.63,0,3.9c0,0.28-0.07,0.49-0.21,0.62c-0.14,0.14-0.37,0.18-0.71,0.12
			c-1.49-0.44-3.03-0.86-4.61-1.25C85.41,164.57,83.88,164.21,82.38,163.87z"/>
		<path d="M84.87,91.41c0-3.87,0.95-7.21,2.86-10s4.68-4.76,8.3-5.89c3.62-1.13,8.01-1.06,13.16,0.21l16.27,4.07
			c4.7,1.16,8.6,2.96,11.7,5.4c3.1,2.44,5.4,5.28,6.89,8.55c1.49,3.27,2.24,6.81,2.24,10.62c0,2.82-0.54,5.4-1.62,7.72
			c-1.08,2.32-2.67,4.23-4.77,5.73c-2.1,1.49-4.65,2.45-7.64,2.86s-6.39,0.15-10.21-0.79l-16.1-3.98c-4.7-1.16-8.62-2.95-11.74-5.35
			c-3.12-2.41-5.46-5.24-7.01-8.51C85.65,98.78,84.87,95.23,84.87,91.41z M95.17,92.99c0,1.83,0.37,3.47,1.12,4.94
			c0.75,1.47,1.95,2.74,3.61,3.82s3.87,1.95,6.64,2.61l15.85,3.9c2.1,0.55,3.93,0.88,5.48,1c1.55,0.11,2.78,0.04,3.69-0.21
			c0.91-0.25,1.65-0.57,2.2-0.95c0.78-0.61,1.34-1.33,1.7-2.16c0.36-0.83,0.54-1.85,0.54-3.07c0-1.71-0.35-3.31-1.04-4.77
			c-0.69-1.47-1.87-2.79-3.53-3.98c-1.66-1.19-3.93-2.14-6.81-2.86l-15.85-3.98c-2.27-0.61-4.18-0.96-5.73-1.04
			c-1.55-0.08-2.81,0.01-3.78,0.29c-0.97,0.28-1.73,0.69-2.28,1.25c-0.72,0.72-1.2,1.49-1.45,2.32S95.17,91.89,95.17,92.99z
			 M101.22,82.95l11.04,2.32v6.22l-2.32-3.07c1.33,0.72,2.49,1.48,3.49,2.28c1,0.8,1.88,1.67,2.66,2.61
			c0.78,0.94,1.55,1.91,2.32,2.91c0.78,1.16,1.81,2.64,3.11,4.44c1.3,1.8,2.74,3.8,4.32,6.02c1.58,2.21,3.14,4.45,4.69,6.72
			l-12.04-2.32v-6.47l3.32,3.07c-1.38-0.77-2.57-1.54-3.57-2.28s-1.91-1.59-2.74-2.53c-0.83-0.94-1.69-2.02-2.57-3.24
			c-1.33-1.83-3.04-4.25-5.15-7.26C105.68,89.35,103.49,86.21,101.22,82.95z"/>
		<path d="M106.87,45.52c2.38-1.16,4.65-2.27,6.81-3.32c2.16-1.05,4.15-2.05,5.98-2.99c1.83-0.94,3.5-1.77,5.02-2.49
			c1.52-0.72,2.84-1.37,3.94-1.95c1.11-0.58,2.02-1.06,2.74-1.45c1.05-0.55,1.72-1.08,1.99-1.58c0.28-0.5,0.42-1.25,0.42-2.24
			c0-0.33,0-0.68,0-1.04c0-0.36,0-0.68,0-0.96v-1.58c1.66,0.39,3.33,0.8,5.02,1.25c1.69,0.44,3.36,0.86,5.02,1.25
			c0.28,0.06,0.5,0.18,0.66,0.37c0.17,0.19,0.25,0.46,0.25,0.79c0,0.39,0,0.98,0,1.78c0,0.8,0,1.56,0,2.28
			c0,1.49-0.17,2.81-0.5,3.94c-0.33,1.13-0.91,2.13-1.74,2.99c-0.83,0.86-1.94,1.65-3.32,2.37c-0.77,0.39-1.77,0.87-2.99,1.45
			c-1.22,0.58-2.63,1.27-4.23,2.08c-1.6,0.8-3.31,1.65-5.1,2.53c-1.8,0.89-3.64,1.78-5.52,2.7c-1.88,0.91-3.68,1.81-5.39,2.7
			c-2.54,1.22-4.74,2.13-6.6,2.74c-1.85,0.61-3.58,0.93-5.19,0.96c-1.6,0.03-3.29-0.18-5.06-0.62l-1.49-0.33
			c-1.77-0.44-3.37-1.17-4.81-2.2c-1.44-1.02-2.67-2.32-3.69-3.9c-1.02-1.58-1.83-3.5-2.41-5.77c-0.58-2.27-0.87-4.81-0.87-7.64
			c0-3.87,0.22-6.94,0.66-9.21c0.44-2.27,0.89-3.87,1.33-4.81c0.11-0.28,0.25-0.44,0.42-0.5c0.17-0.05,0.36-0.05,0.58,0
			c1.55,0.39,3.1,0.78,4.65,1.16c1.55,0.39,3.07,0.78,4.56,1.16v1.58c-0.55,1.83-0.97,3.6-1.25,5.31c-0.28,1.72-0.42,3.71-0.42,5.98
			c0,1.55,0.15,2.86,0.46,3.94c0.3,1.08,0.71,1.95,1.2,2.61c0.33,0.39,0.73,0.72,1.2,1c0.47,0.28,1.04,0.5,1.7,0.66
			c0.72,0.17,1.36,0.25,1.91,0.25c0.55,0,1.15-0.1,1.78-0.29C105.22,46.28,105.98,45.96,106.87,45.52z M107.78,30.83
			c0-1.66,0-3.38,0-5.15c0-1.77,0-3.49,0-5.15c0-0.33,0.08-0.55,0.25-0.66c0.17-0.11,0.39-0.11,0.66,0l6.72,1.66
			c2.44,0.61,4.44,1.45,6.02,2.53c1.58,1.08,2.89,2.41,3.94,3.98c1.05,1.58,2.02,3.39,2.9,5.44l4.48,1.16l-7.3,3.32
			c-0.77-1-1.49-1.77-2.16-2.32c-0.66-0.55-1.36-1-2.08-1.33c-0.72-0.33-1.52-0.61-2.41-0.83c-1.88-0.44-3.72-0.9-5.52-1.37
			C111.5,31.64,109.66,31.21,107.78,30.83z M145.38,61.2c0,2.44-0.58,4.44-1.74,6.02s-2.79,2.64-4.9,3.2c-2.1,0.55-4.54,0.55-7.3,0
			l-3.07-0.75c-2.66-0.66-4.88-1.7-6.68-3.11c-1.8-1.41-3.21-3.04-4.23-4.9c-1.02-1.85-1.73-3.78-2.12-5.77l-3.98-1l7.88-4.32
			c0.39,1.27,0.87,2.37,1.45,3.28s1.33,1.66,2.24,2.24s2.03,1.07,3.36,1.45l3.24,0.75c1.83,0.5,3.25,0.35,4.27-0.46
			c1.02-0.8,1.54-2.17,1.54-4.11c0-1.55-0.26-3-0.79-4.36c-0.53-1.36-1.67-2.95-3.44-4.77l6.47-3.57v4.32
			c2.82,1.77,4.83,3.98,6.02,6.64C144.78,54.65,145.38,57.72,145.38,61.2z"/>
	</g>
	<g>
		<path d="M155.68,215.96c0-2.49,0.61-4.69,1.83-6.6c1.22-1.91,2.93-3.39,5.15-4.44c2.21-1.05,4.81-1.58,7.8-1.58h0.5
			c4.32,0,7.75,1.19,10.29,3.57c2.55,2.38,3.82,5.59,3.82,9.63c0,3.87-1.25,6.92-3.74,9.13c-2.49,2.21-5.86,3.32-10.13,3.32h-0.5
			c-2.99,0-5.62-0.54-7.88-1.62c-2.27-1.08-4.03-2.6-5.27-4.57C156.3,220.84,155.68,218.56,155.68,215.96z M180.5,200.44
			c-1.33-0.94-2.64-1.77-3.94-2.49c-1.3-0.72-2.59-1.37-3.86-1.95c-1.27-0.58-2.56-1.09-3.86-1.54c-1.3-0.44-2.62-0.83-3.94-1.16
			c-1.33-0.33-2.7-0.61-4.11-0.83c-1.41-0.22-2.86-0.39-4.36-0.5c-0.05-0.17-0.11-0.36-0.17-0.58c-0.05-0.22-0.1-0.46-0.12-0.71
			c-0.03-0.25-0.05-0.5-0.08-0.75c-0.03-0.25-0.04-0.51-0.04-0.79c0-0.55,0.12-0.97,0.37-1.25c0.25-0.28,0.76-0.42,1.54-0.42
			c0.94,0,2.03,0.11,3.28,0.33c1.25,0.22,2.59,0.54,4.03,0.96c1.44,0.41,2.88,0.9,4.32,1.45c1.44,0.55,2.84,1.15,4.19,1.78
			c1.36,0.64,2.59,1.3,3.69,1.99c1.11,0.69,2.02,1.37,2.74,2.03c0.22,0.22,0.4,0.49,0.54,0.79c0.14,0.3,0.21,0.68,0.21,1.12
			c0,0.22,0,0.44,0,0.66c0,0.22-0.03,0.43-0.08,0.62c-0.05,0.2-0.11,0.4-0.17,0.62C180.61,200.08,180.55,200.27,180.5,200.44z
			 M171.62,224.92c1.38,0,2.85-0.21,4.4-0.62c1.55-0.42,2.79-1.2,3.74-2.37c0.28-0.61,0.5-1.19,0.66-1.74
			c0.17-0.55,0.26-1.08,0.29-1.58c0.03-0.5,0.04-0.88,0.04-1.16c0-3.26-0.93-5.71-2.78-7.35c-1.85-1.63-4.38-2.45-7.59-2.45h-0.5
			c-1.94,0-3.75,0.3-5.44,0.91c-1.69,0.61-3.06,1.72-4.11,3.32c-0.11,0.33-0.21,0.69-0.29,1.08c-0.08,0.39-0.14,0.8-0.17,1.25
			c-0.03,0.44-0.04,0.91-0.04,1.41c0,2.77,1.04,5.01,3.11,6.72c2.08,1.72,4.8,2.57,8.18,2.57H171.62z M186.06,196.78
			c0-2.49,0.61-4.69,1.83-6.6c1.22-1.91,2.93-3.39,5.15-4.44c2.21-1.05,4.81-1.58,7.8-1.58h0.5c4.32,0,7.75,1.19,10.29,3.57
			c2.55,2.38,3.82,5.59,3.82,9.63c0,3.87-1.25,6.92-3.74,9.13s-5.86,3.32-10.13,3.32h-0.5c-2.99,0-5.62-0.54-7.88-1.62
			c-2.27-1.08-4.03-2.6-5.27-4.57C186.68,201.67,186.06,199.39,186.06,196.78z M201.99,205.75c1.38,0,2.85-0.21,4.4-0.62
			c1.55-0.42,2.79-1.2,3.73-2.37c0.28-0.61,0.5-1.19,0.66-1.74c0.17-0.55,0.26-1.08,0.29-1.58c0.03-0.5,0.04-0.88,0.04-1.16
			c0-3.26-0.93-5.71-2.78-7.34c-1.85-1.63-4.38-2.45-7.59-2.45h-0.5c-1.94,0-3.75,0.3-5.44,0.91c-1.69,0.61-3.06,1.72-4.11,3.32
			c-0.11,0.33-0.21,0.69-0.29,1.08s-0.14,0.8-0.17,1.24c-0.03,0.44-0.04,0.91-0.04,1.41c0,2.77,1.04,5.01,3.11,6.72
			c2.08,1.71,4.8,2.57,8.18,2.57H201.99z M190.71,212.72c1.33,0.89,2.64,1.7,3.94,2.45c1.3,0.75,2.59,1.41,3.86,1.99
			c1.27,0.58,2.56,1.09,3.86,1.54c1.3,0.44,2.62,0.83,3.94,1.16c1.33,0.33,2.7,0.61,4.11,0.83c1.41,0.22,2.86,0.39,4.36,0.5
			c0.05,0.17,0.11,0.36,0.17,0.58c0.05,0.22,0.1,0.46,0.12,0.71c0.03,0.25,0.05,0.5,0.08,0.75c0.03,0.25,0.04,0.51,0.04,0.79
			c0,0.55-0.14,0.97-0.42,1.25s-0.77,0.41-1.49,0.41c-0.94,0-2.03-0.11-3.28-0.33c-1.25-0.22-2.59-0.54-4.03-0.95
			c-1.44-0.42-2.88-0.9-4.32-1.45c-1.44-0.55-2.83-1.15-4.19-1.79c-1.36-0.63-2.59-1.3-3.69-1.99c-1.11-0.69-2.02-1.37-2.74-2.03
			c-0.28-0.28-0.47-0.55-0.58-0.83c-0.11-0.28-0.17-0.63-0.17-1.08c0-0.22,0-0.44,0-0.66s0.03-0.44,0.08-0.66
			c0.06-0.22,0.1-0.43,0.12-0.62C190.53,213.07,190.6,212.89,190.71,212.72z"/>
		<path d="M185.48,156.11v-1.16c-5.31-1.77-9.25-4.11-11.83-7.01c-2.57-2.9-3.86-6.35-3.86-10.33c0-1.38,0.08-2.46,0.25-3.24
			c0.17-0.77,0.44-1.36,0.83-1.74c0.22-0.22,0.46-0.37,0.71-0.46s0.54-0.12,0.87-0.12c0.5,0,0.97,0.04,1.41,0.12
			c0.44,0.08,0.86,0.21,1.25,0.37v0.5c-0.33,0.89-0.58,1.74-0.75,2.57s-0.25,1.8-0.25,2.91c0,2.21,0.73,4.37,2.2,6.47
			c1.47,2.1,3.83,4.1,7.1,5.98c3.27,1.88,7.64,3.6,13.11,5.15H185.48z M211.21,159.1l-1.08-0.58c-0.5,0.39-1.15,0.68-1.95,0.87
			c-0.8,0.19-1.73,0.29-2.78,0.29c-3.49,0-6.97,0-10.46,0c-3.49,0-6.97,0-10.46,0c-3.49,0-6.97,0-10.46,0l-0.42,0.42
			c0.17,2.88,0.48,5.13,0.95,6.76c0.47,1.63,0.71,2.73,0.71,3.28c0,0.61-0.28,1.09-0.83,1.45c-0.55,0.36-1.22,0.54-1.99,0.54
			c-0.28,0-0.54-0.03-0.79-0.08c-0.25-0.05-0.48-0.11-0.71-0.17c-0.11-0.83-0.21-1.63-0.29-2.41c-0.08-0.77-0.15-1.52-0.21-2.24
			c-0.05-0.72-0.11-1.41-0.17-2.08c-0.05-0.66-0.1-1.3-0.12-1.91c-0.03-0.61-0.04-1.22-0.04-1.83s0-1.19,0-1.74
			c0-0.72,0.08-1.34,0.25-1.87c0.17-0.53,0.53-0.94,1.08-1.24c0.55-0.3,1.4-0.53,2.53-0.66c1.13-0.14,2.68-0.24,4.65-0.29
			c1.96-0.05,4.44-0.08,7.43-0.08c2.1,0,4.22,0,6.35,0c2.13,0,4.25,0,6.35,0c2.1,0,4.22,0,6.35,0c2.13,0,4.25,0,6.35,0L211.21,159.1
			z M210.46,172.3v-17.18c0-3.15,0.15-6.04,0.46-8.67c0.3-2.63,0.72-4.74,1.24-6.35c0.53-1.6,1.12-2.41,1.79-2.41
			c0.06,0,0.12,0.01,0.21,0.04c0.08,0.03,0.17,0.04,0.25,0.04s0.15,0.03,0.21,0.08v32.29c0,1-0.24,1.65-0.71,1.95
			c-0.47,0.3-1.06,0.46-1.78,0.46c-0.22,0-0.43-0.01-0.62-0.04c-0.19-0.03-0.37-0.05-0.54-0.08
			C210.79,172.4,210.63,172.35,210.46,172.3z"/>
		<path d="M151.53,89.55c0-1.77,0.12-3.39,0.37-4.86c0.25-1.47,0.58-2.71,1-3.74c0.42-1.02,0.84-1.76,1.29-2.2
			c0.28-0.28,0.61-0.48,1-0.62c0.39-0.14,0.94-0.21,1.66-0.21c0.28,0,0.58,0.01,0.91,0.04c0.33,0.03,0.61,0.1,0.83,0.21v0.5
			c-0.66,1.05-1.2,2.19-1.62,3.4c-0.42,1.22-0.73,2.46-0.96,3.73c-0.22,1.27-0.33,2.52-0.33,3.74c0,2.71,0.22,4.92,0.66,6.64
			c0.44,1.72,1.13,3.24,2.08,4.57c1.22,0.72,2.92,1.25,5.1,1.58c2.19,0.33,4.83,0.5,7.93,0.5c2.88,0,5.78,0,8.71,0
			c2.93,0,5.85,0,8.76,0c2.9,0,5.81,0,8.71,0s5.82,0,8.76,0c0.89,0,1.63,0.08,2.24,0.25c0.61,0.17,1.11,0.39,1.49,0.66l1.33-0.58
			v3.82c-2.71,0-5.41,0-8.09,0c-2.68,0-5.38,0-8.09,0s-5.42,0-8.13,0c-2.71,0-5.41,0-8.09,0c-2.68,0-5.38,0-8.09,0
			c-3.54,0-6.54-0.35-9.01-1.04c-2.46-0.69-4.45-1.76-5.98-3.2c-1.52-1.44-2.64-3.25-3.36-5.44
			C151.89,95.12,151.53,92.54,151.53,89.55z M170.95,117.35V83.99c0-0.5,0.15-0.88,0.46-1.16c0.3-0.28,0.71-0.47,1.2-0.58
			c0.5-0.11,1.05-0.17,1.66-0.17c0.11,0,0.25,0,0.42,0s0.3,0,0.42,0v33.37c0,0.5-0.15,0.89-0.46,1.16c-0.3,0.28-0.71,0.47-1.2,0.58
			s-1.05,0.17-1.66,0.17c-0.11,0-0.25,0-0.42,0S171.06,117.35,170.95,117.35z M210.46,118.35v-17.18c0-3.32,0.15-6.36,0.46-9.13
			c0.3-2.77,0.72-4.98,1.24-6.64c0.53-1.66,1.12-2.49,1.79-2.49c0.06,0,0.12,0.01,0.21,0.04c0.08,0.03,0.17,0.04,0.25,0.04
			s0.15,0.03,0.21,0.08v33.12c0,0.66-0.12,1.16-0.37,1.49s-0.59,0.57-1.04,0.71c-0.44,0.14-0.91,0.21-1.41,0.21
			c-0.22,0-0.4-0.01-0.54-0.04c-0.14-0.03-0.28-0.05-0.42-0.08C210.7,118.45,210.57,118.4,210.46,118.35z"/>
		<path d="M158.96,32.03c2.13-2.49,5.42-4.25,9.88-5.27c4.45-1.02,10.14-1.54,17.06-1.54h1.24c5.42,0,10.1,0.4,14.03,1.2
			c3.93,0.8,6.94,1.99,9.05,3.57c2.1,1.58,3.15,3.56,3.15,5.93v0.25c0,1.55-0.5,2.97-1.49,4.28s-2.61,2.34-4.86,3.11
			c-2.24,0.78-5.21,1.16-8.92,1.16c-3.93,0-7.17-0.04-9.71-0.12c-2.54-0.08-4.63-0.25-6.27-0.5c-1.63-0.25-3.03-0.59-4.19-1.04
			c-0.61-0.22-1.16-0.47-1.66-0.75c-0.5-0.28-1.01-0.59-1.54-0.96c-0.53-0.36-1.06-0.76-1.62-1.2v-0.33c0-1.11,0.46-1.74,1.37-1.91
			s2.26-0.25,4.03-0.25c1.61,0,3.42,0,5.44,0c2.02,0,4.1,0,6.23,0c2.13,0,4.22,0,6.27,0s3.9,0,5.56,0c1.88,0,3.43-0.12,4.65-0.37
			c1.22-0.25,2.21-0.62,2.99-1.12v-0.17c0-2.21-1.85-3.87-5.56-4.98c-3.71-1.11-9.35-1.66-16.93-1.66h-1.33
			c-4.76,0-8.91,0.25-12.45,0.75s-6.78,1.27-9.71,2.32c-1.38,1.38-2.39,2.84-3.03,4.36c-0.63,1.52-0.95,3.33-0.95,5.44
			c0,3.88,1.59,7.15,4.77,9.84c3.18,2.68,7.71,4.73,13.57,6.14c5.87,1.41,12.89,2.12,21.08,2.12h0.75c4.43,0,8.38-0.43,11.87-1.29
			s6.61-2.2,9.38-4.03c0.94-1.38,1.71-2.92,2.32-4.61c0.61-1.69,0.91-3.58,0.91-5.69c0-2.77-0.22-5.27-0.66-7.51
			c-0.44-2.24-1.19-4.16-2.24-5.77v-0.5h0.42c0.44,0,0.97,0.1,1.58,0.29c0.61,0.19,1.22,0.6,1.83,1.2c1.05,1.05,1.81,2.67,2.28,4.86
			c0.47,2.19,0.71,4.66,0.71,7.43c0,4.43-1.11,8.11-3.32,11.04c-2.21,2.93-5.44,5.12-9.67,6.56c-4.23,1.44-9.34,2.16-15.31,2.16
			h-0.91c-8.8,0-16.43-0.91-22.91-2.74c-6.47-1.83-11.48-4.41-15.02-7.76c-3.54-3.35-5.31-7.26-5.31-11.75
			C155.76,37.92,156.83,34.52,158.96,32.03z M210.25,50.33c-2.08,0.97-5.63,1.45-10.67,1.45h-0.91c-4.76,0-8.78-0.17-12.08-0.5
			c-3.29-0.33-5.96-0.79-8.01-1.37c-2.05-0.58-3.54-1.23-4.48-1.95c-0.94-0.72-1.41-1.49-1.41-2.32c0-0.78,0.25-1.41,0.75-1.91
			s1.38-0.91,2.66-1.24v-2.08l4.15-0.91c-0.55,0.55-0.93,1-1.12,1.33c-0.19,0.33-0.29,0.69-0.29,1.08c0,0.55,0.55,1.01,1.66,1.37
			c1.11,0.36,3.03,0.62,5.77,0.79s6.52,0.25,11.33,0.25h0.75c2.05,0,3.76-0.1,5.15-0.29c1.38-0.19,2.41-0.4,3.07-0.62
			c-0.05-0.28-0.15-0.54-0.29-0.79c-0.14-0.25-0.4-0.55-0.79-0.91c-0.39-0.36-0.97-0.82-1.74-1.37l4.81,0.33v2.74
			c1.55,0.33,2.74,0.82,3.57,1.45c0.83,0.64,1.25,1.37,1.25,2.2C213.37,48.27,212.33,49.36,210.25,50.33z"/>
	</g>
</g>
<g>
	<path d="M229.1,233.8c0-0.22,0-0.44,0-0.66s0-0.44,0-0.67s0-0.44,0-0.66c0-0.24,0.03-0.45,0.09-0.63s0.15-0.33,0.27-0.45
		c0.12-0.12,0.26-0.21,0.42-0.27c0.16-0.06,0.35-0.09,0.55-0.09h0.32c0.2,0,0.38,0.03,0.55,0.09s0.3,0.15,0.42,0.27
		c0.11,0.12,0.2,0.26,0.26,0.44c0.06,0.17,0.09,0.37,0.09,0.59c0,0.18,0,0.37,0,0.55c0,0.18,0,0.37,0,0.56l0.06,0.08h-0.54
		c0-0.19,0-0.37,0-0.56s0-0.38,0-0.57c0-0.2-0.03-0.37-0.09-0.49c-0.06-0.13-0.16-0.22-0.28-0.29s-0.28-0.1-0.46-0.1h-0.3
		c-0.13,0-0.25,0.02-0.35,0.05c-0.11,0.03-0.19,0.08-0.26,0.15c-0.07,0.08-0.12,0.17-0.16,0.28c-0.04,0.11-0.06,0.24-0.06,0.4
		c0,0.21,0,0.43,0,0.64c0,0.21,0,0.42,0,0.63c0,0.21,0,0.42,0,0.64c0,0.02-0.01,0.04-0.02,0.06s-0.03,0.02-0.06,0.02
		c-0.07,0-0.14,0-0.21,0C229.24,233.8,229.17,233.8,229.1,233.8z M234,232.8c0,0.08,0,0.16,0,0.24c0,0.07,0,0.15,0,0.24
		c0,0.02-0.01,0.04-0.02,0.06c-0.01,0.01-0.03,0.02-0.06,0.02c-0.39,0-0.77,0-1.15,0c-0.38,0-0.76,0-1.13,0c-0.38,0-0.76,0-1.13,0
		s-0.76,0-1.15,0v-0.64l0.12,0.08c0.23,0,0.46,0,0.7,0c0.23,0,0.46,0,0.69,0c0.27,0,0.54,0,0.81,0c0.27,0,0.54,0,0.81,0
		s0.54,0,0.83,0c0.12,0,0.24,0,0.36,0S233.89,232.8,234,232.8z M231.7,231.49c0.26-0.14,0.51-0.28,0.76-0.41
		c0.25-0.13,0.51-0.27,0.77-0.4c0.1-0.06,0.17-0.12,0.21-0.17c0.04-0.05,0.06-0.12,0.06-0.2c0-0.03,0-0.05,0-0.07s0-0.04,0-0.06
		v-0.09c0.08,0,0.15,0,0.21,0s0.13,0,0.21,0c0.02,0,0.04,0.01,0.06,0.02c0.01,0.01,0.02,0.03,0.02,0.06c0,0.03,0,0.07,0,0.11
		c0,0.04,0,0.08,0,0.12c0,0.12-0.02,0.22-0.05,0.31s-0.09,0.17-0.16,0.24s-0.17,0.14-0.29,0.2c-0.26,0.13-0.52,0.27-0.78,0.41
		c-0.26,0.13-0.52,0.27-0.78,0.41L231.7,231.49z"/>
	<path d="M230.22,227.68c0-0.27,0.05-0.51,0.16-0.74s0.28-0.41,0.51-0.55s0.53-0.21,0.91-0.21h0.49c0.01,0,0.03,0,0.04,0.01
		c0.01,0.01,0.02,0.02,0.03,0.02c0.01,0.01,0.01,0.02,0.01,0.04v1.88c0,0.08,0,0.15,0,0.23c0,0.08,0,0.15,0,0.23v0.18l-0.41,0.11
		v-2.18c-0.02,0-0.05,0-0.07,0c-0.03,0-0.05,0-0.07,0c-0.21,0-0.38,0.02-0.52,0.07c-0.14,0.04-0.26,0.11-0.35,0.21
		c-0.08,0.08-0.14,0.18-0.17,0.29c-0.04,0.12-0.06,0.25-0.06,0.39c0,0.32,0.09,0.57,0.26,0.75c0.17,0.18,0.46,0.27,0.86,0.27h0.7
		c0.16,0,0.31-0.02,0.44-0.07c0.13-0.04,0.24-0.11,0.32-0.19c0.1-0.1,0.17-0.23,0.22-0.39c0.05-0.16,0.08-0.35,0.08-0.57
		c0-0.18-0.01-0.33-0.03-0.46s-0.05-0.25-0.09-0.36c-0.04-0.11-0.09-0.23-0.16-0.35v-0.1c0.07,0,0.13,0,0.2,0s0.13,0,0.2,0
		c0.01,0,0.02,0,0.03,0c0.01,0,0.02,0.01,0.03,0.02c0.06,0.06,0.11,0.14,0.15,0.26c0.05,0.12,0.09,0.27,0.12,0.44
		c0.03,0.18,0.05,0.37,0.05,0.57c0,0.26-0.03,0.49-0.1,0.7c-0.06,0.21-0.16,0.39-0.29,0.54c-0.13,0.15-0.29,0.27-0.48,0.35
		c-0.19,0.08-0.42,0.12-0.68,0.12h-0.7c-0.28,0-0.53-0.04-0.73-0.12c-0.2-0.08-0.37-0.2-0.5-0.34c-0.13-0.15-0.23-0.31-0.28-0.5
		C230.25,228.09,230.22,227.89,230.22,227.68z"/>
	<path d="M230.22,223.25c0-0.2,0.02-0.38,0.05-0.54c0.04-0.16,0.08-0.29,0.12-0.39c0.05-0.11,0.09-0.17,0.13-0.21
		c0.01-0.01,0.03-0.02,0.04-0.03c0.01,0,0.02-0.01,0.04-0.01c0.07,0,0.14,0,0.21,0c0.07,0,0.14,0,0.21,0v0.1
		c-0.09,0.16-0.16,0.32-0.21,0.48c-0.05,0.16-0.08,0.35-0.08,0.57c0,0.27,0.04,0.49,0.13,0.67c0.09,0.17,0.22,0.3,0.39,0.39
		c0.17,0.09,0.39,0.13,0.66,0.13h0.53c0.19,0,0.35-0.03,0.49-0.08c0.14-0.05,0.26-0.12,0.36-0.22c0.09-0.09,0.16-0.21,0.21-0.35
		c0.05-0.14,0.07-0.31,0.07-0.51c0-0.15-0.01-0.29-0.04-0.41c-0.02-0.12-0.06-0.24-0.1-0.34s-0.1-0.22-0.16-0.33v-0.1
		c0.07,0,0.14,0,0.21,0c0.07,0,0.14,0,0.22,0c0.01,0,0.02,0,0.03,0c0.01,0,0.02,0.01,0.03,0.02c0.05,0.05,0.1,0.13,0.15,0.25
		c0.05,0.12,0.09,0.25,0.12,0.41c0.03,0.16,0.05,0.33,0.05,0.52c0,0.27-0.04,0.5-0.12,0.71c-0.08,0.21-0.18,0.38-0.32,0.53
		s-0.3,0.26-0.5,0.34c-0.2,0.08-0.42,0.12-0.66,0.12h-0.64c-0.35,0-0.65-0.07-0.89-0.22s-0.42-0.35-0.55-0.61
		C230.28,223.89,230.22,223.59,230.22,223.25z"/>
	<path d="M230.29,217.95c0-0.02,0-0.03,0.01-0.04c0.01-0.01,0.02-0.02,0.02-0.03c0.01-0.01,0.02-0.01,0.04-0.01
		c0.33,0,0.65,0,0.98,0s0.65,0,0.98,0c0.33,0,0.66,0,0.98,0c0.15,0,0.29,0,0.41,0c0.12,0,0.21,0,0.28,0c0,0.05,0,0.1,0,0.16
		s0,0.11,0,0.16c0,0.05,0,0.1,0,0.15c0,0.01,0,0.03-0.01,0.04s-0.01,0.02-0.02,0.03s-0.02,0.01-0.04,0.01c-0.4,0-0.8,0-1.21,0
		c-0.41,0-0.81,0-1.21,0c-0.4,0-0.81,0-1.21,0c0-0.05,0-0.1,0-0.15s0-0.1,0-0.15C230.29,218.06,230.29,218.01,230.29,217.95z
		 M230.29,220.25c0-0.02,0-0.03,0.01-0.04c0.01-0.01,0.02-0.02,0.02-0.02c0.01-0.01,0.02-0.01,0.04-0.01c0.21,0,0.43,0,0.65,0
		c0.22,0,0.43,0,0.65,0s0.43,0,0.64,0s0.42,0,0.63,0c0.2,0,0.35-0.05,0.46-0.15c0.1-0.1,0.15-0.24,0.15-0.41
		c0-0.11-0.02-0.22-0.04-0.33c-0.03-0.1-0.08-0.21-0.14-0.31c-0.06-0.1-0.15-0.21-0.24-0.32c-0.09-0.11-0.21-0.22-0.35-0.33h0.6v0.2
		c0.14,0.11,0.27,0.23,0.37,0.35c0.11,0.12,0.19,0.25,0.25,0.4c0.06,0.14,0.09,0.3,0.09,0.48c0,0.15-0.03,0.29-0.08,0.42
		s-0.12,0.23-0.22,0.31c-0.09,0.08-0.2,0.14-0.33,0.19c-0.12,0.04-0.26,0.07-0.4,0.07c-0.21,0-0.42,0-0.63,0s-0.42,0-0.63,0
		s-0.42,0-0.62,0c-0.15,0-0.3,0-0.45,0c-0.15,0-0.3,0-0.44,0c0-0.08,0-0.16,0-0.24C230.29,220.4,230.29,220.32,230.29,220.25z"/>
	<path d="M230.93,215.36v-0.2c-0.22-0.16-0.4-0.34-0.52-0.55s-0.19-0.45-0.19-0.71c0-0.13,0.01-0.23,0.03-0.3
		c0.02-0.07,0.04-0.11,0.06-0.13c0.01-0.01,0.02-0.02,0.04-0.03s0.03-0.01,0.06-0.01c0.07,0,0.15,0,0.22,0s0.15,0,0.22,0v0.1
		c-0.02,0.08-0.04,0.15-0.05,0.22c-0.01,0.07-0.01,0.15-0.01,0.24c0,0.14,0.02,0.28,0.06,0.43s0.11,0.29,0.21,0.44
		c0.1,0.15,0.24,0.31,0.43,0.48L230.93,215.36z M233.69,215.77h-0.27c-0.11,0-0.22,0-0.34,0c-0.11,0-0.22,0-0.33,0
		c-0.22,0-0.45,0-0.67,0c-0.22,0-0.44,0-0.66,0c-0.22,0-0.44,0-0.66,0v0.1c0,0.11,0,0.23,0,0.34s0,0.23,0,0.34
		c0,0.02-0.01,0.04-0.02,0.06s-0.03,0.02-0.06,0.02c-0.07,0-0.14,0-0.2,0s-0.13,0-0.2,0c0-0.06,0-0.12,0-0.19s0-0.13,0-0.2
		c0-0.07,0-0.14,0-0.21s0-0.14,0-0.22s0-0.15,0-0.22s0-0.15,0-0.22c0.09-0.02,0.18-0.04,0.25-0.05s0.14-0.03,0.21-0.04
		c0.07-0.01,0.15-0.03,0.25-0.05c0.23,0,0.46,0,0.69,0c0.23,0,0.46,0,0.68,0s0.45,0,0.68,0s0.46,0,0.69,0L233.69,215.77z
		 M233.52,216.68v-2.72c0-0.02,0-0.03,0.01-0.04c0.01-0.01,0.02-0.02,0.02-0.02c0.01-0.01,0.02-0.01,0.04-0.01c0.05,0,0.09,0,0.14,0
		s0.09,0,0.13,0c0.04,0,0.09,0,0.14,0v2.72c0,0.02-0.01,0.04-0.02,0.06c-0.01,0.01-0.03,0.02-0.06,0.02c-0.05,0-0.09,0-0.14,0
		c-0.04,0-0.09,0-0.13,0S233.56,216.68,233.52,216.68z"/>
	<path d="M233.55,210.97c0-0.36-0.06-0.62-0.17-0.78c-0.11-0.16-0.26-0.24-0.45-0.24c-0.1,0-0.18,0.02-0.24,0.06
		c-0.07,0.04-0.12,0.11-0.18,0.21c-0.05,0.1-0.1,0.25-0.14,0.44l-0.15,0.68c-0.05,0.23-0.12,0.42-0.2,0.57
		c-0.08,0.14-0.18,0.25-0.3,0.32c-0.12,0.07-0.26,0.1-0.42,0.1c-0.15,0-0.29-0.03-0.42-0.1c-0.13-0.06-0.25-0.16-0.34-0.29
		c-0.1-0.13-0.17-0.29-0.23-0.48c-0.06-0.19-0.08-0.41-0.08-0.67c0-0.21,0.01-0.39,0.04-0.54c0.03-0.16,0.06-0.29,0.1-0.39
		c0.04-0.1,0.07-0.16,0.09-0.18c0-0.01,0.01-0.01,0.02-0.02c0.01,0,0.01,0,0.02,0c0,0,0.01,0,0.03,0c0.07,0,0.14,0,0.21,0
		s0.14,0,0.22,0v0.1c-0.06,0.12-0.1,0.23-0.13,0.33c-0.03,0.11-0.05,0.22-0.07,0.33c-0.01,0.12-0.02,0.25-0.02,0.41
		c0,0.21,0.02,0.38,0.07,0.51c0.05,0.14,0.11,0.25,0.2,0.32c0.09,0.08,0.19,0.12,0.31,0.12c0.09,0,0.16-0.02,0.22-0.05
		c0.06-0.04,0.11-0.1,0.15-0.2c0.04-0.1,0.08-0.23,0.13-0.4l0.15-0.71c0.05-0.26,0.12-0.46,0.21-0.6c0.09-0.14,0.2-0.25,0.33-0.31
		c0.13-0.06,0.28-0.09,0.45-0.09c0.23,0,0.43,0.06,0.59,0.19c0.16,0.12,0.29,0.3,0.37,0.54c0.09,0.24,0.13,0.52,0.13,0.85
		c0,0.18-0.01,0.34-0.03,0.5s-0.05,0.3-0.08,0.42c-0.04,0.12-0.07,0.23-0.12,0.31s-0.08,0.15-0.13,0.19c-0.01,0-0.02,0.01-0.03,0.01
		c-0.01,0-0.02,0-0.03,0c-0.08,0-0.16,0-0.23,0c-0.08,0-0.15,0-0.23,0v-0.1c0.08-0.13,0.15-0.26,0.2-0.39s0.1-0.27,0.13-0.43
		C233.54,211.36,233.55,211.18,233.55,210.97z"/>
	<path d="M228.62,207.06c0-0.06,0-0.11,0-0.17s0-0.12,0-0.18s0-0.12,0-0.17c0-0.06,0-0.12,0-0.17c0-0.02,0.01-0.04,0.02-0.06
		c0.01-0.01,0.03-0.02,0.06-0.02h0.62c0,0.06,0,0.11,0,0.17s0,0.12,0,0.18s0,0.12,0,0.17c0,0.06,0,0.12,0,0.17
		c0,0.02-0.01,0.04-0.02,0.06c-0.01,0.01-0.03,0.02-0.06,0.02H228.62z M233.66,206.92h-0.25c-0.1,0-0.2,0-0.3,0s-0.2,0-0.3,0
		c-0.23,0-0.46,0-0.68,0c-0.23,0-0.45,0-0.68,0c-0.23,0-0.45,0-0.68,0v0.1c0,0.19,0,0.37,0,0.55s0,0.36,0,0.55
		c0,0.02-0.01,0.04-0.02,0.06c-0.01,0.01-0.03,0.02-0.06,0.02c-0.07,0-0.14,0-0.2,0s-0.13,0-0.2,0c0-0.19,0-0.38,0-0.58
		c0-0.19,0-0.39,0-0.58s0-0.39,0-0.58c0-0.02,0-0.03,0.01-0.04c0.01-0.01,0.02-0.02,0.02-0.03c0.01-0.01,0.02-0.01,0.04-0.01
		c0.28,0,0.56,0,0.84,0c0.28,0,0.56,0,0.83,0c0.27,0,0.54,0,0.81,0c0.27,0,0.54,0,0.81,0V206.92z M233.52,208.28v-3.13
		c0-0.02,0-0.03,0.01-0.04c0.01-0.01,0.02-0.02,0.02-0.03c0.01-0.01,0.02-0.01,0.04-0.01c0.05,0,0.09,0,0.14,0s0.09,0,0.13,0
		c0.04,0,0.09,0,0.14,0v3.13c0,0.01,0,0.03-0.01,0.04s-0.01,0.02-0.02,0.03c-0.01,0.01-0.02,0.01-0.04,0.01c-0.05,0-0.09,0-0.14,0
		c-0.04,0-0.09,0-0.13,0S233.56,208.28,233.52,208.28z"/>
	<path d="M230.29,203.74c0-0.01,0-0.03,0.01-0.03c0-0.01,0.01-0.02,0.02-0.02c0.01-0.01,0.02-0.01,0.04-0.02
		c0.34-0.12,0.67-0.24,1.01-0.36c0.34-0.12,0.7-0.25,1.06-0.37c0.37-0.13,0.76-0.25,1.18-0.37v-0.11c-0.25-0.07-0.49-0.15-0.72-0.22
		c-0.23-0.07-0.46-0.15-0.68-0.23c-0.22-0.08-0.44-0.15-0.66-0.23c-0.21-0.07-0.43-0.15-0.63-0.22c-0.21-0.08-0.42-0.15-0.63-0.22
		c0-0.08,0-0.17,0-0.25c0-0.08,0-0.16,0-0.23c0-0.02,0-0.03,0.01-0.05c0.01-0.01,0.02-0.02,0.03-0.02c0.01-0.01,0.03,0,0.04,0.01
		c0.3,0.11,0.61,0.22,0.91,0.33s0.6,0.22,0.9,0.33c0.3,0.11,0.6,0.22,0.9,0.33c0.3,0.11,0.6,0.22,0.91,0.33c0,0.13,0,0.25,0,0.38
		s0,0.25,0,0.38c0,0.02-0.01,0.04-0.02,0.06c-0.01,0.02-0.04,0.03-0.06,0.04c-0.41,0.15-0.81,0.3-1.21,0.44s-0.8,0.29-1.21,0.43
		c-0.4,0.14-0.81,0.29-1.21,0.43c0-0.08,0-0.17,0-0.26S230.29,203.83,230.29,203.74z"/>
	<path d="M230.22,198.28c0-0.27,0.05-0.51,0.16-0.74s0.28-0.41,0.51-0.54c0.23-0.14,0.53-0.21,0.91-0.21h0.49
		c0.01,0,0.03,0,0.04,0.01c0.01,0.01,0.02,0.02,0.03,0.03s0.01,0.02,0.01,0.04v1.88c0,0.08,0,0.15,0,0.23c0,0.08,0,0.15,0,0.23v0.18
		l-0.41,0.11v-2.18c-0.02,0-0.05,0-0.07,0c-0.03,0-0.05,0-0.07,0c-0.21,0-0.38,0.02-0.52,0.07c-0.14,0.04-0.26,0.11-0.35,0.21
		c-0.08,0.08-0.14,0.18-0.17,0.29s-0.06,0.25-0.06,0.39c0,0.32,0.09,0.57,0.26,0.75c0.17,0.18,0.46,0.27,0.86,0.27h0.7
		c0.16,0,0.31-0.02,0.44-0.07c0.13-0.04,0.24-0.11,0.32-0.19c0.1-0.1,0.17-0.23,0.22-0.38c0.05-0.16,0.08-0.35,0.08-0.57
		c0-0.18-0.01-0.33-0.03-0.46c-0.02-0.13-0.05-0.25-0.09-0.36c-0.04-0.11-0.09-0.22-0.16-0.35v-0.1c0.07,0,0.13,0,0.2,0
		s0.13,0,0.2,0c0.01,0,0.02,0,0.03,0c0.01,0,0.02,0.01,0.03,0.02c0.06,0.06,0.11,0.14,0.15,0.26c0.05,0.12,0.09,0.27,0.12,0.44
		c0.03,0.18,0.05,0.37,0.05,0.57c0,0.26-0.03,0.49-0.1,0.7c-0.06,0.21-0.16,0.39-0.29,0.54s-0.29,0.26-0.48,0.35
		c-0.19,0.08-0.42,0.12-0.68,0.12h-0.7c-0.28,0-0.53-0.04-0.73-0.12s-0.37-0.2-0.5-0.34c-0.13-0.15-0.23-0.31-0.28-0.5
		C230.25,198.69,230.22,198.49,230.22,198.28z"/>
</g>
<g>
	<path d="M229.1,125.8c0-0.33,0-0.66,0-0.99s0-0.66,0-0.98c0-0.18,0.01-0.35,0.04-0.5s0.07-0.3,0.13-0.44
		c0.06-0.13,0.14-0.25,0.25-0.34c0.1-0.09,0.23-0.17,0.38-0.22c0.15-0.05,0.33-0.08,0.54-0.08h0.46c0.21,0,0.4,0.03,0.56,0.1
		c0.17,0.07,0.31,0.17,0.42,0.3c0.12,0.13,0.21,0.3,0.27,0.49c0.06,0.19,0.09,0.41,0.09,0.67c0,0.17,0,0.35,0,0.53s0,0.36,0,0.54
		l0.02,0.08h-0.52c0-0.2,0-0.39,0-0.58c0-0.19,0-0.38,0-0.56c0-0.17-0.02-0.31-0.05-0.44c-0.04-0.12-0.09-0.23-0.16-0.31
		c-0.07-0.08-0.16-0.15-0.27-0.19s-0.23-0.06-0.37-0.06h-0.5c-0.13,0-0.24,0.02-0.33,0.04c-0.09,0.03-0.17,0.08-0.24,0.15
		c-0.08,0.08-0.14,0.19-0.18,0.32c-0.04,0.14-0.06,0.3-0.06,0.5c0,0.21,0,0.42,0,0.63c0,0.21,0,0.42,0,0.63s0,0.42,0,0.63
		c0,0.02-0.01,0.04-0.02,0.06c-0.01,0.01-0.03,0.02-0.06,0.02c-0.07,0-0.14,0-0.21,0S229.17,125.8,229.1,125.8z M234,124.8
		c0,0.08,0,0.16,0,0.24c0,0.08,0,0.16,0,0.25c0,0.02-0.01,0.04-0.02,0.06s-0.03,0.02-0.06,0.02c-0.39,0-0.77,0-1.15,0
		s-0.76,0-1.13,0s-0.76,0-1.13,0c-0.38,0-0.76,0-1.15,0v-0.61l0.12,0.05c0.1,0,0.19,0,0.29,0s0.19,0,0.29,0c0.36,0,0.71,0,1.08,0
		c0.36,0,0.72,0,1.08,0s0.73,0,1.1,0c0.12,0,0.24,0,0.36,0C233.78,124.8,233.89,124.8,234,124.8z"/>
	<path d="M229.1,121.6c0-0.22,0-0.44,0-0.66c0-0.22,0-0.44,0-0.67c0-0.22,0-0.44,0-0.66c0-0.24,0.03-0.45,0.09-0.63
		s0.15-0.33,0.27-0.45c0.12-0.12,0.26-0.21,0.42-0.27c0.16-0.06,0.35-0.09,0.55-0.09h0.32c0.2,0,0.38,0.03,0.54,0.1
		c0.16,0.06,0.3,0.15,0.42,0.27s0.2,0.26,0.26,0.44s0.09,0.37,0.09,0.59c0,0.18,0,0.37,0,0.55c0,0.18,0,0.37,0,0.56l0.06,0.08h-0.54
		c0-0.19,0-0.37,0-0.56c0-0.19,0-0.38,0-0.57c0-0.2-0.03-0.36-0.1-0.49c-0.06-0.13-0.16-0.22-0.28-0.29
		c-0.12-0.06-0.28-0.1-0.46-0.1h-0.3c-0.13,0-0.25,0.02-0.35,0.05c-0.1,0.03-0.19,0.08-0.26,0.15c-0.07,0.07-0.12,0.17-0.16,0.28
		c-0.04,0.11-0.06,0.24-0.06,0.4c0,0.21,0,0.43,0,0.64s0,0.42,0,0.63s0,0.42,0,0.64c0,0.02-0.01,0.04-0.02,0.06
		c-0.01,0.01-0.03,0.02-0.06,0.02c-0.07,0-0.14,0-0.21,0S229.17,121.6,229.1,121.6z M234,120.6c0,0.08,0,0.16,0,0.24s0,0.15,0,0.24
		c0,0.02-0.01,0.04-0.02,0.06s-0.03,0.02-0.06,0.02c-0.39,0-0.77,0-1.15,0s-0.76,0-1.13,0s-0.76,0-1.13,0c-0.38,0-0.76,0-1.15,0
		v-0.64l0.12,0.08c0.23,0,0.47,0,0.7,0s0.46,0,0.69,0c0.27,0,0.54,0,0.81,0c0.27,0,0.54,0,0.8,0c0.27,0,0.54,0,0.83,0
		c0.12,0,0.24,0,0.36,0C233.78,120.6,233.89,120.6,234,120.6z M231.7,119.29c0.26-0.14,0.51-0.28,0.76-0.41s0.51-0.27,0.77-0.4
		c0.1-0.06,0.17-0.12,0.21-0.17c0.04-0.05,0.06-0.12,0.06-0.2c0-0.03,0-0.05,0-0.07c0-0.02,0-0.04,0-0.06v-0.09
		c0.08,0,0.15,0,0.21,0s0.13,0,0.21,0c0.02,0,0.04,0.01,0.06,0.02c0.01,0.01,0.02,0.03,0.02,0.06c0,0.03,0,0.07,0,0.11
		s0,0.08,0,0.12c0,0.12-0.02,0.22-0.05,0.31c-0.03,0.09-0.09,0.17-0.16,0.24c-0.07,0.07-0.17,0.14-0.29,0.2
		c-0.26,0.13-0.52,0.27-0.79,0.41c-0.26,0.14-0.52,0.27-0.78,0.41L231.7,119.29z"/>
	<path d="M228.96,115.51c0-0.32,0.06-0.61,0.19-0.86c0.12-0.25,0.31-0.44,0.56-0.58s0.56-0.21,0.93-0.21h1.82
		c0.37,0,0.69,0.07,0.94,0.21c0.25,0.14,0.44,0.33,0.56,0.58c0.12,0.25,0.19,0.54,0.19,0.86c0,0.32-0.06,0.6-0.19,0.85
		s-0.31,0.45-0.56,0.59c-0.25,0.14-0.56,0.21-0.94,0.21h-1.82c-0.37,0-0.68-0.07-0.93-0.21s-0.44-0.34-0.56-0.59
		C229.02,116.11,228.96,115.82,228.96,115.51z M232.43,116.62c0.19,0,0.37-0.02,0.53-0.07s0.3-0.13,0.4-0.23
		c0.08-0.09,0.15-0.2,0.2-0.33c0.05-0.13,0.08-0.29,0.08-0.48c0-0.25-0.05-0.46-0.15-0.62c-0.1-0.16-0.24-0.29-0.42-0.37
		c-0.18-0.08-0.4-0.12-0.64-0.12h-1.76c-0.19,0-0.37,0.02-0.53,0.07c-0.16,0.05-0.29,0.13-0.4,0.23c-0.08,0.09-0.15,0.2-0.2,0.33
		c-0.05,0.13-0.08,0.29-0.08,0.48c0,0.25,0.05,0.46,0.15,0.62c0.1,0.16,0.24,0.29,0.42,0.37s0.4,0.12,0.64,0.12H232.43z"/>
	<path d="M229.1,113.2c0-0.33,0-0.66,0-0.99s0-0.66,0-0.98c0-0.18,0.01-0.35,0.04-0.5s0.07-0.3,0.13-0.44
		c0.06-0.13,0.14-0.25,0.25-0.34c0.1-0.09,0.23-0.17,0.38-0.22c0.15-0.05,0.33-0.08,0.54-0.08h0.46c0.21,0,0.4,0.03,0.56,0.1
		c0.17,0.07,0.31,0.17,0.42,0.3c0.12,0.13,0.21,0.3,0.27,0.49c0.06,0.19,0.09,0.41,0.09,0.67c0,0.17,0,0.35,0,0.53s0,0.36,0,0.54
		l0.02,0.08h-0.52c0-0.2,0-0.39,0-0.58c0-0.19,0-0.38,0-0.56c0-0.17-0.02-0.31-0.05-0.44c-0.04-0.12-0.09-0.23-0.16-0.31
		c-0.07-0.08-0.16-0.15-0.27-0.19s-0.23-0.06-0.37-0.06h-0.5c-0.13,0-0.24,0.02-0.33,0.04c-0.09,0.03-0.17,0.08-0.24,0.15
		c-0.08,0.08-0.14,0.19-0.18,0.32c-0.04,0.14-0.06,0.3-0.06,0.5c0,0.21,0,0.42,0,0.63c0,0.21,0,0.42,0,0.63s0,0.42,0,0.63
		c0,0.02-0.01,0.04-0.02,0.06c-0.01,0.01-0.03,0.02-0.06,0.02c-0.07,0-0.14,0-0.21,0S229.17,113.2,229.1,113.2z M234,112.2
		c0,0.08,0,0.16,0,0.24c0,0.08,0,0.16,0,0.25c0,0.02-0.01,0.04-0.02,0.06s-0.03,0.02-0.06,0.02c-0.39,0-0.77,0-1.15,0
		s-0.76,0-1.13,0s-0.76,0-1.13,0c-0.38,0-0.76,0-1.15,0v-0.61l0.12,0.05c0.1,0,0.19,0,0.29,0s0.19,0,0.29,0c0.36,0,0.71,0,1.08,0
		c0.36,0,0.72,0,1.08,0s0.73,0,1.1,0c0.12,0,0.24,0,0.36,0C233.78,112.2,233.89,112.2,234,112.2z"/>
	<path d="M228.96,102.89c0-0.33,0.08-0.61,0.24-0.85c0.16-0.24,0.38-0.42,0.67-0.55c0.29-0.13,0.62-0.19,1.01-0.19h1.33
		c0.4,0,0.75,0.07,1.03,0.2c0.29,0.13,0.51,0.32,0.66,0.56s0.23,0.52,0.23,0.85c0,0.25-0.05,0.47-0.14,0.67
		c-0.09,0.2-0.22,0.37-0.39,0.5c-0.17,0.14-0.38,0.24-0.61,0.32c-0.24,0.07-0.5,0.11-0.78,0.11h-1.33c-0.4,0-0.75-0.07-1.03-0.2
		s-0.51-0.32-0.66-0.56C229.04,103.51,228.96,103.23,228.96,102.89z M229.46,102.91c0,0.21,0.05,0.4,0.15,0.56
		c0.1,0.16,0.26,0.28,0.46,0.37s0.48,0.13,0.81,0.13h1.33c0.12,0,0.24-0.01,0.35-0.02c0.11-0.01,0.21-0.03,0.3-0.06
		c0.09-0.03,0.17-0.06,0.24-0.09c0.17-0.09,0.3-0.21,0.39-0.36c0.09-0.15,0.13-0.32,0.13-0.52c0-0.22-0.05-0.41-0.16-0.57
		c-0.11-0.16-0.26-0.29-0.47-0.37c-0.21-0.09-0.47-0.13-0.79-0.13h-1.34c-0.18,0-0.34,0.01-0.49,0.04s-0.27,0.07-0.38,0.12
		c-0.11,0.05-0.2,0.11-0.27,0.19c-0.09,0.09-0.16,0.19-0.21,0.31C229.49,102.63,229.46,102.76,229.46,102.91z M230,101.84l0.59-0.11
		v0.4l-0.2-0.24c0.13,0.06,0.25,0.12,0.36,0.18c0.11,0.06,0.22,0.14,0.32,0.21c0.1,0.08,0.2,0.16,0.29,0.24
		c0.19,0.16,0.37,0.33,0.56,0.49c0.18,0.16,0.37,0.32,0.55,0.48c0.19,0.16,0.37,0.32,0.56,0.49l-0.6,0.21v-0.48l0.18,0.21
		c-0.12-0.06-0.22-0.11-0.32-0.17c-0.09-0.05-0.19-0.12-0.29-0.2c-0.1-0.08-0.22-0.18-0.36-0.29c-0.28-0.24-0.56-0.48-0.83-0.71
		C230.55,102.32,230.28,102.09,230,101.84z"/>
	<path d="M234.04,98.2c0,0.13,0,0.28,0,0.46c0,0.18,0,0.33,0,0.47c0,0.01,0,0.03-0.01,0.04c-0.01,0.01-0.02,0.02-0.03,0.03
		s-0.02,0.01-0.04,0.01h-0.91c0-0.14,0-0.29,0-0.47c0-0.18,0-0.33,0-0.46c0-0.02,0-0.03,0.01-0.04c0.01-0.01,0.02-0.02,0.03-0.03
		c0.01-0.01,0.02-0.01,0.04-0.01H234.04z"/>
	<path d="M228.96,94.49c0-0.33,0.08-0.61,0.24-0.85c0.16-0.24,0.38-0.42,0.67-0.55c0.29-0.13,0.62-0.19,1.01-0.19h1.33
		c0.4,0,0.75,0.07,1.03,0.2s0.51,0.32,0.66,0.56s0.23,0.52,0.23,0.85c0,0.25-0.05,0.47-0.14,0.67s-0.22,0.37-0.39,0.5
		S233.24,95.93,233,96c-0.24,0.07-0.5,0.11-0.78,0.11h-1.33c-0.4,0-0.75-0.07-1.03-0.2s-0.51-0.32-0.66-0.56
		C229.04,95.11,228.96,94.82,228.96,94.49z M229.46,94.51c0,0.21,0.05,0.4,0.15,0.56c0.1,0.16,0.26,0.28,0.46,0.37
		c0.21,0.09,0.48,0.13,0.81,0.13h1.33c0.12,0,0.24-0.01,0.35-0.02c0.11-0.01,0.21-0.03,0.3-0.06c0.09-0.03,0.17-0.06,0.24-0.09
		c0.17-0.09,0.3-0.21,0.39-0.36c0.09-0.15,0.13-0.32,0.13-0.52c0-0.22-0.05-0.41-0.16-0.57c-0.11-0.16-0.26-0.29-0.47-0.37
		c-0.21-0.09-0.47-0.13-0.79-0.13h-1.34c-0.18,0-0.34,0.01-0.49,0.04c-0.14,0.03-0.27,0.07-0.38,0.12c-0.11,0.05-0.2,0.12-0.27,0.19
		c-0.09,0.09-0.16,0.19-0.21,0.31C229.49,94.23,229.46,94.36,229.46,94.51z M230,93.44l0.59-0.11v0.4l-0.2-0.24
		c0.13,0.06,0.25,0.12,0.36,0.18c0.11,0.07,0.22,0.14,0.32,0.21c0.1,0.08,0.2,0.16,0.29,0.24c0.19,0.16,0.37,0.33,0.56,0.49
		c0.18,0.16,0.37,0.32,0.55,0.48c0.19,0.16,0.37,0.32,0.56,0.49l-0.6,0.21v-0.48l0.18,0.21c-0.12-0.06-0.22-0.11-0.32-0.17
		s-0.19-0.12-0.29-0.2c-0.1-0.08-0.22-0.18-0.36-0.29c-0.28-0.24-0.56-0.47-0.83-0.71C230.55,93.93,230.28,93.69,230,93.44z"/>
	<path d="M228.96,90.29c0-0.33,0.08-0.61,0.24-0.85c0.16-0.24,0.38-0.42,0.67-0.55c0.29-0.13,0.62-0.19,1.01-0.19h1.33
		c0.4,0,0.75,0.07,1.03,0.2c0.29,0.13,0.51,0.32,0.66,0.56s0.23,0.52,0.23,0.85c0,0.25-0.05,0.47-0.14,0.67s-0.22,0.37-0.39,0.5
		s-0.38,0.24-0.61,0.31c-0.24,0.07-0.5,0.11-0.78,0.11h-1.33c-0.4,0-0.75-0.07-1.03-0.2c-0.29-0.13-0.51-0.32-0.66-0.56
		C229.04,90.91,228.96,90.62,228.96,90.29z M229.46,90.31c0,0.21,0.05,0.4,0.15,0.56c0.1,0.16,0.26,0.28,0.46,0.37
		c0.21,0.09,0.48,0.13,0.81,0.13h1.33c0.12,0,0.24-0.01,0.35-0.02s0.21-0.03,0.3-0.06c0.09-0.03,0.17-0.06,0.24-0.09
		c0.17-0.09,0.3-0.21,0.39-0.36c0.09-0.15,0.13-0.32,0.13-0.52c0-0.22-0.05-0.41-0.16-0.57c-0.11-0.16-0.26-0.29-0.47-0.37
		s-0.47-0.13-0.79-0.13h-1.34c-0.18,0-0.34,0.01-0.49,0.04c-0.14,0.03-0.27,0.07-0.38,0.12c-0.11,0.05-0.2,0.11-0.27,0.19
		c-0.09,0.09-0.16,0.19-0.21,0.32C229.49,90.03,229.46,90.16,229.46,90.31z M230,89.24l0.59-0.11v0.4l-0.2-0.24
		c0.13,0.06,0.25,0.12,0.36,0.18c0.11,0.07,0.22,0.14,0.32,0.21c0.1,0.08,0.2,0.16,0.29,0.24c0.19,0.16,0.37,0.33,0.56,0.49
		c0.18,0.16,0.37,0.32,0.55,0.48c0.19,0.16,0.37,0.32,0.56,0.49l-0.6,0.21v-0.48l0.18,0.21c-0.12-0.05-0.22-0.11-0.32-0.16
		c-0.09-0.05-0.19-0.12-0.29-0.2c-0.1-0.08-0.22-0.18-0.36-0.29c-0.28-0.24-0.56-0.48-0.83-0.71
		C230.55,89.73,230.28,89.49,230,89.24z"/>
</g>
</svg>
