<?xml version="1.0" encoding="utf-8"?>
<!-- Generator: Adobe Illustrator 23.0.3, SVG Export Plug-In . SVG Version: 6.00 Build 0)  -->
<svg version="1.1" id="Layer_1" xmlns="http://www.w3.org/2000/svg" xmlns:xlink="http://www.w3.org/1999/xlink" x="0px" y="0px"
	 viewBox="0 0 44.65 252" style="enable-background:new 0 0 44.65 252;" xml:space="preserve">
<style type="text/css">
	.st0{fill:#FFFFFF;}
	.st1{fill:#EC008C;}
</style>
<g>
	<g>
		<path d="M17.5,123.22c-0.06-0.39-0.12-0.81-0.15-1.25s-0.07-0.88-0.09-1.34s-0.04-0.91-0.04-1.37c0-0.6,0.09-1.13,0.27-1.59
			c0.18-0.46,0.42-0.84,0.71-1.14c0.29-0.3,0.62-0.52,0.98-0.67c0.36-0.15,0.71-0.22,1.06-0.22h0.14c0.69,0,1.29,0.1,1.81,0.3
			c0.51,0.2,0.94,0.47,1.28,0.81s0.6,0.72,0.77,1.14c0.17,0.42,0.26,0.84,0.26,1.27c0,0.13-0.02,0.25-0.05,0.36
			c-0.03,0.11-0.08,0.22-0.15,0.32v0.71l-2.1,0.18c0.09-0.19,0.15-0.37,0.18-0.56c0.03-0.19,0.04-0.41,0.04-0.66
			c0-0.25-0.06-0.46-0.17-0.64c-0.12-0.17-0.3-0.3-0.54-0.4c-0.24-0.09-0.55-0.14-0.92-0.14h-0.15c-0.14,0-0.27,0.01-0.4,0.03
			s-0.25,0.05-0.36,0.08c-0.05,0.15-0.08,0.32-0.1,0.5c-0.02,0.19-0.03,0.4-0.03,0.64c0,0.52,0.02,1,0.07,1.43
			c0.05,0.43,0.09,0.79,0.14,1.08s0.07,0.5,0.07,0.62c0,0.21-0.1,0.37-0.31,0.46s-0.56,0.13-1.04,0.13c-0.26,0-0.49-0.01-0.67-0.04
			S17.65,123.25,17.5,123.22z M27.23,119.77c0.04,0.18,0.07,0.35,0.08,0.51c0.02,0.16,0.03,0.35,0.03,0.55
			c0,0.62-0.12,1.08-0.37,1.37c-0.25,0.29-0.65,0.43-1.21,0.43c-0.54,0-1.08,0-1.63,0c-0.55,0-1.09,0-1.64,0s-1.09,0-1.64,0
			s-1.09,0-1.63,0v-2.49l0.62,0.27c0.15-0.19,0.32-0.31,0.52-0.38c0.2-0.07,0.45-0.1,0.75-0.1c0.5,0,0.99,0,1.48,0
			c0.49,0,0.99,0,1.49,0c0.5,0,0.99,0,1.48,0c0.31,0,0.6-0.01,0.88-0.04C26.72,119.88,26.99,119.84,27.23,119.77z M22.64,117.5
			c0.27-0.11,0.55-0.23,0.83-0.35c0.28-0.12,0.55-0.25,0.81-0.39c0.19-0.09,0.32-0.2,0.39-0.31c0.07-0.12,0.11-0.25,0.11-0.41
			c0-0.11-0.01-0.2-0.04-0.26c-0.02-0.06-0.06-0.13-0.1-0.2v-0.08c0.2-0.04,0.38-0.06,0.54-0.08c0.16-0.01,0.37-0.02,0.61-0.02
			c0.36,0,0.66,0.03,0.89,0.09s0.4,0.15,0.52,0.27c0.1,0.11,0.18,0.24,0.23,0.37c0.05,0.13,0.08,0.3,0.08,0.48
			c0,0.26-0.04,0.5-0.13,0.72s-0.22,0.42-0.41,0.6c-0.19,0.18-0.42,0.35-0.71,0.51c-0.41,0.21-0.81,0.41-1.2,0.57
			s-0.8,0.32-1.22,0.46L22.64,117.5z"/>
		<path d="M17.43,114.7v-6.22c0-0.33,0.07-0.59,0.22-0.78s0.35-0.33,0.59-0.42c0.25-0.09,0.52-0.13,0.81-0.13
			c0.16,0,0.31,0.01,0.45,0.04c0.14,0.02,0.27,0.06,0.38,0.1v6.89c0,0.13-0.05,0.24-0.15,0.34c-0.1,0.09-0.25,0.16-0.47,0.2
			c-0.21,0.04-0.5,0.06-0.85,0.06c-0.16,0-0.32-0.01-0.48-0.02C17.76,114.75,17.6,114.73,17.43,114.7z M27.23,112.03
			c0,0.32-0.05,0.6-0.16,0.85s-0.26,0.47-0.46,0.66c-0.2,0.19-0.42,0.33-0.69,0.43c-0.26,0.1-0.55,0.15-0.85,0.15
			c-0.32,0-0.66,0-1.03,0c-0.37,0-0.75,0-1.14,0c-0.39,0-0.79,0-1.18,0s-0.8,0-1.2,0s-0.79,0-1.18,0v-2.48l0.62,0.25
			c0.15-0.19,0.32-0.31,0.52-0.38c0.2-0.06,0.44-0.1,0.73-0.1c0.3,0,0.6,0,0.9,0s0.59,0,0.89,0s0.59,0,0.89,0s0.6,0,0.9,0v-2.39
			c0-0.58,0.13-1.03,0.38-1.37c0.25-0.33,0.65-0.5,1.2-0.5c0.15,0,0.3,0.01,0.46,0.04c0.16,0.02,0.29,0.05,0.41,0.09V112.03z
			 M21.52,112.59v-3.32c0-0.26,0.06-0.48,0.17-0.66c0.12-0.18,0.28-0.31,0.48-0.39c0.2-0.08,0.43-0.13,0.69-0.13
			c0.08,0,0.14,0,0.21,0.01c0.07,0.01,0.13,0.02,0.2,0.03c0.07,0.01,0.14,0.02,0.22,0.04v4.41H21.52z"/>
		<path d="M27.51,101.95c0,0.67-0.11,1.26-0.32,1.78c-0.21,0.51-0.51,0.95-0.89,1.3c-0.38,0.36-0.83,0.62-1.34,0.8
			c-0.51,0.18-1.07,0.27-1.68,0.27h-0.24c-0.97,0-1.82-0.11-2.56-0.33c-0.73-0.22-1.35-0.53-1.85-0.92c-0.5-0.4-0.87-0.85-1.12-1.37
			s-0.37-1.08-0.37-1.69c0-0.28,0.03-0.53,0.09-0.76c0.06-0.23,0.15-0.44,0.26-0.64c0.11-0.2,0.25-0.37,0.41-0.52
			c0.23-0.23,0.49-0.42,0.76-0.57s0.57-0.25,0.9-0.33c0.32-0.07,0.67-0.11,1.04-0.11c0.24,0,0.48,0,0.71,0s0.46,0,0.69,0
			c0.04,0.14,0.07,0.31,0.11,0.5c0.04,0.2,0.06,0.41,0.06,0.63c0,0.51-0.09,0.9-0.26,1.17c-0.17,0.27-0.45,0.4-0.82,0.4
			c-0.21,0-0.42-0.02-0.65-0.06c-0.23-0.04-0.47-0.09-0.71-0.15c-0.25-0.06-0.5-0.14-0.76-0.22l0.77-0.1
			c-0.07,0.14-0.12,0.26-0.14,0.37c-0.02,0.1-0.03,0.21-0.03,0.34c0,0.29,0.14,0.56,0.41,0.8c0.28,0.25,0.68,0.44,1.22,0.59
			c0.54,0.14,1.19,0.22,1.97,0.22h0.18c0.21,0,0.39,0,0.56-0.01s0.34-0.03,0.52-0.06c0.21-0.17,0.35-0.38,0.43-0.62
			c0.08-0.25,0.13-0.55,0.13-0.92c0-0.54-0.1-1.06-0.3-1.55c-0.2-0.49-0.48-0.92-0.85-1.28v-0.07c0.07-0.02,0.13-0.03,0.2-0.04
			c0.07-0.01,0.14-0.02,0.22-0.03c0.08-0.01,0.16-0.02,0.24-0.02c0.08,0,0.17-0.01,0.27-0.01c0.48,0,0.88,0.06,1.2,0.17
			c0.33,0.12,0.57,0.26,0.74,0.44c0.17,0.15,0.31,0.35,0.43,0.6c0.12,0.25,0.21,0.54,0.27,0.88S27.51,101.53,27.51,101.95z"/>
		<path d="M27.4,95.47c0,0.24-0.08,0.49-0.22,0.73c-0.15,0.25-0.35,0.47-0.61,0.67c-0.26,0.2-0.54,0.37-0.85,0.5
			c-0.31,0.13-0.62,0.2-0.92,0.2c-0.63,0-1.25,0-1.88,0c-0.63,0-1.25,0-1.88,0c-0.62,0-1.25,0-1.86,0c-0.35,0-0.67,0.02-0.96,0.05
			c-0.29,0.03-0.57,0.08-0.83,0.15c-0.04-0.21-0.06-0.4-0.08-0.59s-0.02-0.39-0.02-0.6c0-0.41,0.06-0.75,0.17-1.03
			c0.11-0.27,0.3-0.48,0.57-0.62s0.63-0.2,1.08-0.2c0.57,0,1.13,0.01,1.69,0.04c0.56,0.03,1.15,0.08,1.76,0.15
			c0.62,0.07,1.3,0.17,2.06,0.3c0.04-0.06,0.06-0.12,0.08-0.19c0.02-0.07,0.03-0.15,0.03-0.23c0-0.24-0.04-0.48-0.1-0.7
			c-0.07-0.22-0.2-0.45-0.39-0.67s-0.46-0.43-0.82-0.63h2.14v0.38c0.65,0.34,1.12,0.71,1.41,1.11C27.25,94.69,27.4,95.09,27.4,95.47
			z M27.23,90.3c0.03,0.09,0.05,0.2,0.07,0.31c0.02,0.12,0.03,0.23,0.04,0.35c0.01,0.12,0.01,0.24,0.01,0.36
			c0,0.26-0.02,0.5-0.06,0.7c-0.04,0.21-0.12,0.38-0.25,0.53c-0.13,0.14-0.34,0.27-0.62,0.36c-0.29,0.1-0.66,0.17-1.13,0.21
			c-0.47,0.04-1.07,0.06-1.78,0.06c-0.5,0-1.01,0-1.52,0s-1.01,0-1.52,0s-1.01,0-1.52,0s-1.01,0-1.52,0c-0.03-0.1-0.05-0.2-0.07-0.3
			c-0.02-0.1-0.03-0.21-0.04-0.32c0-0.12-0.01-0.23-0.01-0.34c0-0.45,0.04-0.8,0.13-1.04c0.08-0.25,0.22-0.42,0.41-0.52
			c0.19-0.1,0.46-0.15,0.79-0.15c0.57,0,1.14,0,1.72,0c0.58,0,1.16,0,1.73,0s1.15,0,1.72,0s1.15,0,1.71,0c0.33,0,0.63-0.02,0.9-0.06
			S26.98,90.37,27.23,90.3z"/>
		<path d="M17.5,89.56c-0.06-0.39-0.12-0.81-0.15-1.25c-0.04-0.44-0.07-0.88-0.09-1.34c-0.02-0.45-0.04-0.91-0.04-1.36
			c0-0.6,0.09-1.13,0.27-1.59c0.18-0.46,0.42-0.84,0.71-1.14c0.29-0.3,0.62-0.52,0.98-0.67c0.36-0.15,0.71-0.22,1.06-0.22h0.14
			c0.69,0,1.29,0.1,1.81,0.3c0.51,0.2,0.94,0.47,1.28,0.81c0.34,0.34,0.6,0.72,0.77,1.14c0.17,0.42,0.26,0.85,0.26,1.27
			c0,0.13-0.02,0.25-0.05,0.36c-0.03,0.11-0.08,0.22-0.15,0.32v0.71l-2.1,0.18c0.09-0.19,0.15-0.37,0.18-0.56
			c0.03-0.19,0.04-0.41,0.04-0.66s-0.06-0.46-0.17-0.64c-0.12-0.17-0.3-0.31-0.54-0.4c-0.24-0.09-0.55-0.14-0.92-0.14h-0.15
			c-0.14,0-0.27,0.01-0.4,0.03c-0.13,0.02-0.25,0.05-0.36,0.08c-0.05,0.15-0.08,0.32-0.1,0.5c-0.02,0.19-0.03,0.4-0.03,0.64
			c0,0.52,0.02,1,0.07,1.43c0.05,0.43,0.09,0.79,0.14,1.08s0.07,0.5,0.07,0.62c0,0.21-0.1,0.37-0.31,0.46s-0.56,0.13-1.04,0.13
			c-0.26,0-0.49-0.01-0.67-0.03S17.65,89.6,17.5,89.56z M27.23,86.12c0.04,0.18,0.07,0.35,0.08,0.51c0.02,0.16,0.03,0.35,0.03,0.55
			c0,0.63-0.12,1.08-0.37,1.37s-0.65,0.43-1.21,0.43c-0.54,0-1.08,0-1.63,0c-0.55,0-1.09,0-1.64,0s-1.09,0-1.64,0s-1.09,0-1.63,0
			v-2.49l0.62,0.27c0.15-0.19,0.32-0.31,0.52-0.38c0.2-0.07,0.45-0.1,0.75-0.1c0.5,0,0.99,0,1.48,0c0.49,0,0.99,0,1.49,0
			c0.5,0,0.99,0,1.48,0c0.31,0,0.6-0.01,0.88-0.04S26.99,86.18,27.23,86.12z M22.64,83.85c0.27-0.11,0.55-0.23,0.83-0.35
			c0.28-0.12,0.55-0.25,0.81-0.39c0.19-0.09,0.32-0.2,0.39-0.32c0.07-0.12,0.11-0.25,0.11-0.41c0-0.11-0.01-0.2-0.04-0.26
			c-0.02-0.06-0.06-0.13-0.1-0.2v-0.08c0.2-0.04,0.38-0.06,0.54-0.08s0.37-0.02,0.61-0.02c0.36,0,0.66,0.03,0.89,0.09
			s0.4,0.15,0.52,0.27c0.1,0.11,0.18,0.24,0.23,0.37c0.05,0.14,0.08,0.3,0.08,0.48c0,0.26-0.04,0.5-0.13,0.72s-0.22,0.42-0.41,0.6
			s-0.42,0.35-0.71,0.51c-0.41,0.21-0.81,0.41-1.2,0.57s-0.8,0.32-1.22,0.46L22.64,83.85z"/>
		<path d="M17.15,76.26c0-0.34,0.06-0.66,0.19-0.94c0.13-0.28,0.32-0.54,0.58-0.8c0.28-0.28,0.59-0.48,0.94-0.61
			c0.35-0.13,0.71-0.19,1.09-0.19c0.14,0,0.28,0,0.43,0c0.14,0,0.29,0,0.43,0c0.14,0,0.28,0,0.41,0c0.05,0.12,0.08,0.26,0.11,0.43
			c0.03,0.16,0.04,0.35,0.04,0.55c0,0.53-0.08,0.92-0.25,1.18c-0.16,0.25-0.42,0.38-0.76,0.38c-0.07,0-0.14,0-0.22-0.01
			c-0.08-0.01-0.18-0.02-0.28-0.04c-0.1-0.02-0.21-0.04-0.34-0.06c-0.12-0.02-0.25-0.05-0.39-0.08l0.59-0.31
			c-0.05,0.13-0.08,0.25-0.09,0.34c-0.01,0.1-0.02,0.21-0.02,0.34c0,0.2,0.04,0.39,0.12,0.59c0.08,0.2,0.19,0.38,0.32,0.54
			c0.14,0.16,0.29,0.3,0.45,0.4c0.16,0.1,0.33,0.15,0.51,0.15h0.07c0.11,0,0.21-0.02,0.31-0.07c0.09-0.05,0.17-0.13,0.24-0.27
			c0.07-0.13,0.15-0.31,0.23-0.53l0.43-1.34c0.17-0.49,0.35-0.9,0.55-1.2c0.2-0.31,0.41-0.55,0.62-0.72
			c0.21-0.17,0.43-0.29,0.64-0.36s0.41-0.1,0.59-0.1h0.22c0.51,0,0.97,0.14,1.36,0.42c0.39,0.28,0.7,0.69,0.91,1.23
			c0.21,0.54,0.32,1.21,0.32,2.02c0,0.49-0.03,0.94-0.1,1.35c-0.07,0.41-0.16,0.76-0.29,1.06c-0.13,0.3-0.28,0.54-0.45,0.71
			c-0.19,0.17-0.43,0.3-0.72,0.39s-0.64,0.14-1.04,0.14c-0.22,0-0.42-0.01-0.58-0.03c-0.16-0.02-0.31-0.04-0.43-0.07v-0.08
			c0.27-0.31,0.49-0.62,0.67-0.95c0.17-0.32,0.3-0.67,0.38-1.06s0.12-0.81,0.12-1.29c0-0.35-0.03-0.65-0.1-0.91
			s-0.14-0.47-0.24-0.63h-0.06c-0.11,0.03-0.22,0.08-0.32,0.17s-0.18,0.19-0.26,0.32c-0.08,0.12-0.14,0.27-0.21,0.44l-0.42,1.29
			c-0.18,0.51-0.36,0.94-0.54,1.28c-0.18,0.34-0.37,0.6-0.57,0.79c-0.2,0.19-0.41,0.32-0.63,0.4c-0.22,0.08-0.46,0.12-0.71,0.12
			h-0.18c-0.48,0-0.94-0.12-1.38-0.35c-0.44-0.23-0.84-0.56-1.18-0.97c-0.35-0.42-0.62-0.88-0.82-1.41
			C17.25,77.39,17.15,76.84,17.15,76.26z"/>
		<path d="M17.43,72.34v-5.96c0-0.45,0.14-0.75,0.41-0.91s0.66-0.24,1.15-0.24c0.11,0,0.22,0.01,0.34,0.01
			c0.11,0.01,0.22,0.02,0.32,0.04c0.1,0.02,0.2,0.04,0.29,0.07v5.25c0,0.62-0.14,1.07-0.41,1.37c-0.27,0.3-0.7,0.45-1.27,0.45
			c-0.1,0-0.21,0-0.31-0.01s-0.2-0.01-0.29-0.03C17.58,72.38,17.5,72.36,17.43,72.34z M25.28,67.48v2.48l-0.66-0.25
			c-0.14,0.18-0.32,0.3-0.53,0.36c-0.21,0.07-0.47,0.1-0.77,0.1c-0.4,0-0.76,0-1.09,0c-0.33,0-0.64,0-0.95,0c-0.3,0-0.61,0-0.92,0
			c-0.31,0-0.64,0-0.99,0v-2.48l0.66,0.25c0.14-0.18,0.32-0.3,0.54-0.36c0.22-0.07,0.47-0.1,0.76-0.1c0.4,0,0.76,0,1.09,0
			c0.33,0,0.64,0,0.94,0c0.3,0,0.61,0,0.91,0C24.58,67.48,24.92,67.48,25.28,67.48z M27.23,65.34v5.89c0,0.27-0.04,0.49-0.13,0.64
			s-0.2,0.28-0.34,0.36c-0.14,0.08-0.31,0.13-0.5,0.15c-0.19,0.02-0.38,0.04-0.57,0.04c-0.13,0-0.25,0-0.36-0.01
			c-0.11-0.01-0.22-0.02-0.33-0.03c-0.11-0.01-0.2-0.03-0.29-0.05v-5.32c0-0.45,0.07-0.8,0.2-1.06c0.14-0.26,0.33-0.44,0.57-0.55
			c0.25-0.11,0.54-0.17,0.88-0.17c0.11,0,0.22,0.01,0.32,0.01c0.1,0.01,0.2,0.02,0.29,0.04C27.06,65.3,27.14,65.32,27.23,65.34z"/>
		<path d="M17.3,63.24c0-0.37,0.05-0.69,0.15-0.96c0.1-0.27,0.25-0.47,0.46-0.62s0.5-0.23,0.88-0.25c0.58-0.03,1.12-0.06,1.62-0.09
			c0.5-0.03,0.97-0.08,1.41-0.13c0.44-0.06,0.85-0.12,1.24-0.18c0.39-0.07,0.75-0.15,1.1-0.25c0.35-0.1,0.68-0.21,1.01-0.33
			l-0.14,0.43v-0.84l0.14,0.41c-0.46-0.19-0.94-0.34-1.43-0.46s-1.05-0.22-1.66-0.29s-1.29-0.12-2.06-0.16
			c-0.77-0.04-1.63-0.07-2.59-0.08c-0.04-0.17-0.06-0.33-0.08-0.5c-0.02-0.16-0.03-0.32-0.03-0.48c0-0.34,0.06-0.63,0.17-0.9
			c0.12-0.26,0.29-0.46,0.51-0.6c0.22-0.14,0.51-0.2,0.85-0.18c0.76,0.03,1.46,0.08,2.12,0.15c0.66,0.08,1.27,0.17,1.83,0.27
			c0.56,0.11,1.07,0.23,1.53,0.38s0.87,0.31,1.25,0.48c0.37,0.18,0.7,0.37,0.98,0.57c0.28,0.21,0.52,0.43,0.73,0.67
			c0.04,0.18,0.06,0.36,0.08,0.55c0.01,0.19,0.02,0.37,0.02,0.54c0,0.27-0.04,0.53-0.13,0.79s-0.25,0.5-0.5,0.76
			c-0.18,0.18-0.39,0.35-0.64,0.52s-0.53,0.32-0.85,0.46c-0.32,0.14-0.69,0.27-1.11,0.4c-0.42,0.12-0.9,0.24-1.43,0.34
			c-0.53,0.1-1.13,0.18-1.78,0.26c-0.66,0.08-1.39,0.13-2.19,0.17c-0.21,0.02-0.42,0.03-0.64,0.04c-0.22,0.01-0.45,0.02-0.67,0.03
			c-0.04-0.15-0.06-0.3-0.08-0.46C17.31,63.54,17.3,63.39,17.3,63.24z"/>
		<path d="M17.43,56.03v-6.22c0-0.33,0.07-0.58,0.22-0.78s0.35-0.33,0.59-0.42c0.25-0.09,0.52-0.13,0.81-0.13
			c0.16,0,0.31,0.01,0.45,0.04c0.14,0.02,0.27,0.06,0.38,0.11v6.89c0,0.13-0.05,0.24-0.15,0.34c-0.1,0.09-0.25,0.16-0.47,0.2
			c-0.21,0.04-0.5,0.06-0.85,0.06c-0.16,0-0.32-0.01-0.48-0.02S17.6,56.06,17.43,56.03z M27.23,53.36c0,0.32-0.05,0.6-0.16,0.85
			s-0.26,0.47-0.46,0.66c-0.2,0.19-0.42,0.33-0.69,0.43c-0.26,0.1-0.55,0.15-0.85,0.15c-0.32,0-0.66,0-1.03,0c-0.37,0-0.75,0-1.14,0
			c-0.39,0-0.79,0-1.18,0s-0.8,0-1.2,0s-0.79,0-1.18,0v-2.48l0.62,0.25c0.15-0.19,0.32-0.31,0.52-0.38s0.44-0.1,0.73-0.1
			c0.3,0,0.6,0,0.9,0s0.59,0,0.89,0s0.59,0,0.89,0s0.6,0,0.9,0v-2.39c0-0.58,0.13-1.03,0.38-1.37c0.25-0.33,0.65-0.5,1.2-0.5
			c0.15,0,0.3,0.01,0.46,0.04c0.16,0.02,0.29,0.05,0.41,0.09V53.36z M21.52,53.92V50.6c0-0.26,0.06-0.48,0.17-0.66
			c0.12-0.18,0.28-0.31,0.48-0.39c0.2-0.08,0.43-0.13,0.69-0.13c0.08,0,0.14,0,0.21,0.01c0.07,0.01,0.13,0.02,0.2,0.03
			c0.07,0.01,0.14,0.02,0.22,0.04v4.41H21.52z"/>
	</g>
	<g>
		<path d="M17.42,130.86c0-0.23,0-0.47,0-0.71s0-0.48,0-0.72c0-0.03,0.01-0.05,0.02-0.08c0.01-0.02,0.03-0.04,0.05-0.06
			c0.02-0.01,0.05-0.02,0.08-0.02c0.91,0,1.83,0,2.74,0c0.91,0,1.83,0,2.75,0c0.92,0,1.84,0,2.75,0c0.23,0,0.47,0,0.7,0
			s0.47,0,0.7,0c0,0.24,0,0.5,0,0.78s0,0.53,0,0.78c0,0.04,0,0.07-0.01,0.1c-0.01,0.03-0.03,0.05-0.05,0.07
			c-0.02,0.02-0.05,0.03-0.08,0.04c-0.39,0.14-0.75,0.27-1.08,0.4c-0.33,0.13-0.66,0.24-0.98,0.35c-0.32,0.11-0.65,0.21-0.99,0.31
			c-0.34,0.1-0.7,0.2-1.09,0.29c-0.39,0.1-0.83,0.19-1.32,0.29l0.64-0.43v0.83l-0.64-0.45c0.49,0.1,0.93,0.2,1.32,0.29
			c0.4,0.09,0.77,0.19,1.11,0.29c0.35,0.1,0.68,0.2,1.01,0.31c0.33,0.11,0.67,0.23,1.02,0.36c0.35,0.14,0.73,0.28,1.14,0.44
			c0,0.24,0,0.5,0,0.78c0,0.27,0,0.53,0,0.78c0,0.04-0.01,0.07-0.02,0.08c-0.01,0.02-0.03,0.04-0.05,0.05
			c-0.02,0.01-0.05,0.02-0.08,0.02c-0.31,0-0.66,0-1.06,0s-0.83,0-1.29,0s-0.94,0-1.44,0c-0.5,0-1,0-1.51,0s-1.01,0-1.51,0
			s-0.98,0-1.43,0c-0.23,0-0.47,0-0.7,0s-0.47,0-0.7,0c0-0.24,0-0.49,0-0.73c0-0.24,0-0.48,0-0.7c0-0.03,0.01-0.05,0.02-0.08
			c0.01-0.02,0.03-0.04,0.05-0.06c0.02-0.01,0.05-0.02,0.08-0.02c0.32,0,0.63,0,0.93,0s0.61,0,0.93,0c0.21,0,0.42,0,0.64,0
			c0.22,0,0.46,0.01,0.71,0.02c0.25,0.01,0.52,0.03,0.81,0.05c0.29,0.02,0.6,0.04,0.95,0.08c0.34,0.03,0.71,0.07,1.11,0.13
			c0.4,0.05,0.83,0.11,1.29,0.17l-0.35,0.22v-0.85l0.32,0.48c-0.47-0.17-0.93-0.33-1.39-0.49c-0.46-0.16-0.91-0.32-1.35-0.48
			c-0.44-0.16-0.88-0.32-1.32-0.48c-0.43-0.16-0.88-0.32-1.32-0.48c0-0.05,0-0.09,0-0.14c0-0.05,0-0.1,0-0.15
			c0-0.04,0.01-0.07,0.02-0.1c0.01-0.03,0.05-0.05,0.1-0.07c0.33-0.11,0.7-0.24,1.11-0.38c0.41-0.15,0.85-0.29,1.31-0.45
			s0.94-0.31,1.42-0.48c0.49-0.16,0.97-0.33,1.44-0.48l-0.35,0.52v-0.88l0.36,0.21c-0.47,0.07-0.9,0.12-1.29,0.17
			c-0.39,0.05-0.76,0.09-1.1,0.13c-0.34,0.03-0.66,0.06-0.95,0.08s-0.57,0.04-0.82,0.05c-0.25,0.01-0.49,0.02-0.72,0.02
			s-0.45,0-0.65,0c-0.34,0-0.67,0-1.01,0S17.76,130.86,17.42,130.86z"/>
		<path d="M27.5,141.05c0,0.68-0.13,1.27-0.38,1.77c-0.26,0.5-0.63,0.89-1.13,1.18c-0.5,0.29-1.12,0.43-1.87,0.43h-3.58
			c-0.75,0-1.37-0.14-1.87-0.43c-0.5-0.28-0.88-0.68-1.13-1.18c-0.26-0.5-0.39-1.09-0.39-1.77c0-0.67,0.13-1.26,0.39-1.76
			c0.26-0.5,0.63-0.9,1.13-1.18c0.5-0.29,1.12-0.43,1.87-0.43h3.58c0.75,0,1.37,0.14,1.87,0.43c0.5,0.28,0.88,0.68,1.13,1.18
			C27.37,139.79,27.5,140.38,27.5,141.05z M20.55,139.27c-0.32,0-0.61,0.04-0.87,0.12c-0.26,0.08-0.48,0.2-0.64,0.37
			c-0.14,0.14-0.25,0.31-0.33,0.52c-0.08,0.21-0.12,0.46-0.12,0.76c0,0.41,0.08,0.75,0.24,1.01c0.16,0.26,0.38,0.46,0.68,0.58
			s0.64,0.19,1.04,0.19h3.56c0.32,0,0.61-0.04,0.88-0.12c0.27-0.08,0.48-0.2,0.64-0.37c0.15-0.15,0.26-0.33,0.34-0.53
			c0.07-0.21,0.11-0.46,0.11-0.76c0-0.41-0.08-0.75-0.24-1.01c-0.16-0.26-0.38-0.46-0.67-0.58c-0.29-0.13-0.64-0.19-1.05-0.19H20.55
			z"/>
		<path d="M17.42,147.8c0-0.24,0-0.48,0-0.72s0-0.48,0-0.72c0-0.03,0.01-0.05,0.02-0.08c0.01-0.02,0.03-0.04,0.05-0.06
			c0.02-0.01,0.05-0.02,0.08-0.02c0.67,0,1.34,0,2.02,0s1.34,0,2.01,0s1.34,0,2.01,0c0.67,0,1.34,0,2,0c0.27,0,0.54,0,0.8,0
			c0.27,0,0.53,0,0.8,0c0,0.17,0,0.37,0,0.6c0,0.23,0,0.47,0,0.7s0,0.43,0,0.6c0,0.07-0.01,0.13-0.02,0.15
			c-0.01,0.03-0.05,0.06-0.12,0.08c-0.24,0.09-0.53,0.2-0.85,0.33c-0.32,0.13-0.68,0.27-1.07,0.43c-0.39,0.16-0.81,0.33-1.25,0.51
			s-0.91,0.37-1.39,0.57c-0.49,0.2-0.98,0.39-1.49,0.59c-0.51,0.2-1.02,0.4-1.55,0.6l0.24-0.45v0.85l-0.21-0.24
			c0.53-0.08,1.01-0.15,1.44-0.2c0.43-0.05,0.83-0.09,1.2-0.12c0.37-0.03,0.71-0.06,1.04-0.07c0.32-0.01,0.64-0.03,0.95-0.04
			c0.31-0.01,0.63-0.01,0.96-0.01c0.36,0,0.72,0,1.07,0c0.35,0,0.7,0,1.06,0c0,0.24,0,0.49,0,0.73c0,0.24,0,0.48,0,0.71
			c0,0.05-0.01,0.08-0.04,0.11c-0.03,0.03-0.07,0.04-0.11,0.04c-0.65,0-1.31,0-1.97,0s-1.32,0-1.98,0c-0.66,0-1.32,0-1.97,0
			s-1.31,0-1.97,0c-0.29,0-0.58,0-0.88,0s-0.59,0-0.88,0c0-0.16,0-0.35,0-0.57c0-0.22,0-0.45,0-0.68s0-0.42,0-0.58
			c0-0.04,0.01-0.07,0.02-0.1c0.01-0.03,0.04-0.05,0.09-0.07c0.62-0.26,1.24-0.52,1.86-0.78c0.63-0.26,1.26-0.52,1.9-0.78
			c0.64-0.26,1.29-0.52,1.96-0.78c0.67-0.26,1.35-0.53,2.05-0.81L25.05,148v-0.84l0.22,0.22c-0.49,0.07-0.93,0.12-1.34,0.18
			c-0.41,0.05-0.79,0.09-1.14,0.12c-0.35,0.03-0.7,0.05-1.03,0.07s-0.67,0.03-1.01,0.04c-0.34,0.01-0.7,0.01-1.07,0.01
			c-0.34-0.01-0.71-0.01-1.11-0.01C18.19,147.8,17.81,147.8,17.42,147.8z"/>
		<path d="M27.5,157.85c0,0.68-0.13,1.27-0.38,1.77c-0.26,0.5-0.63,0.89-1.13,1.18c-0.5,0.29-1.12,0.43-1.87,0.43h-3.58
			c-0.75,0-1.37-0.14-1.87-0.43c-0.5-0.28-0.88-0.68-1.13-1.18c-0.26-0.5-0.39-1.09-0.39-1.77c0-0.67,0.13-1.26,0.39-1.76
			c0.26-0.5,0.63-0.9,1.13-1.18c0.5-0.29,1.12-0.43,1.87-0.43h3.58c0.75,0,1.37,0.14,1.87,0.43c0.5,0.28,0.88,0.68,1.13,1.18
			C27.37,156.59,27.5,157.18,27.5,157.85z M20.55,156.07c-0.32,0-0.61,0.04-0.87,0.12c-0.26,0.08-0.48,0.2-0.64,0.37
			c-0.14,0.14-0.25,0.31-0.33,0.52c-0.08,0.21-0.12,0.46-0.12,0.76c0,0.41,0.08,0.75,0.24,1.01c0.16,0.26,0.38,0.46,0.68,0.58
			s0.64,0.19,1.04,0.19h3.56c0.32,0,0.61-0.04,0.88-0.12c0.27-0.08,0.48-0.2,0.64-0.37c0.15-0.15,0.26-0.33,0.34-0.53
			c0.07-0.21,0.11-0.46,0.11-0.76c0-0.41-0.08-0.75-0.24-1.01c-0.16-0.26-0.38-0.46-0.67-0.58c-0.29-0.13-0.64-0.19-1.05-0.19H20.55
			z"/>
		<path d="M28.55,169.63c-2.03-0.78-4.05-1.57-6.08-2.37s-4.06-1.59-6.08-2.38c-0.06-0.02-0.1-0.05-0.12-0.08s-0.04-0.08-0.04-0.13
			c0-0.26,0-0.51,0-0.75s0-0.49,0-0.76c0.25,0.1,0.51,0.21,0.76,0.31s0.51,0.2,0.76,0.29c1.78,0.69,3.57,1.39,5.35,2.09
			c1.79,0.7,3.57,1.4,5.34,2.09c0.04,0.02,0.06,0.04,0.08,0.07c0.01,0.03,0.02,0.06,0.02,0.1c0,0.27,0,0.53,0,0.77
			C28.55,169.11,28.55,169.36,28.55,169.63z"/>
		<path d="M27.49,174.93c0,0.64-0.08,1.2-0.23,1.67s-0.34,0.81-0.57,1.04c-0.04,0.04-0.07,0.06-0.1,0.08
			c-0.03,0.01-0.08,0.02-0.13,0.02c-0.18,0-0.38,0-0.6,0c-0.22,0-0.44,0-0.65,0s-0.42,0-0.63,0c0-0.22,0-0.45,0-0.69s0-0.46,0-0.69
			c0-0.05,0.01-0.08,0.04-0.11c0.03-0.03,0.06-0.04,0.11-0.04c0.1,0,0.21,0,0.32,0s0.23,0,0.34,0c0.12,0,0.24,0,0.38,0
			c0.14,0,0.28,0,0.43,0l-0.56,0.39c0.14-0.22,0.24-0.47,0.31-0.73c0.06-0.26,0.1-0.57,0.1-0.94c0-0.3-0.03-0.56-0.08-0.79
			s-0.14-0.42-0.25-0.58c-0.11-0.16-0.24-0.28-0.4-0.36c-0.16-0.08-0.35-0.13-0.56-0.13h-0.28c-0.21,0-0.4,0.03-0.55,0.1
			s-0.28,0.2-0.39,0.38s-0.22,0.46-0.34,0.81l-0.41,1.33c-0.12,0.44-0.26,0.8-0.41,1.1s-0.32,0.53-0.51,0.7s-0.41,0.3-0.66,0.38
			S20.7,178,20.38,178h-0.59c-0.54,0-1.01-0.14-1.4-0.42c-0.39-0.28-0.7-0.68-0.91-1.21c-0.21-0.53-0.32-1.17-0.32-1.91
			c0-0.45,0.03-0.87,0.1-1.27c0.07-0.4,0.16-0.74,0.27-1.04c0.12-0.29,0.25-0.53,0.41-0.69c0.03-0.03,0.06-0.05,0.09-0.06
			c0.03-0.01,0.09-0.02,0.16-0.02c0.21,0,0.41,0,0.62,0s0.43,0,0.67,0v0.24c-0.2,0.28-0.36,0.57-0.49,0.86
			c-0.13,0.29-0.23,0.61-0.29,0.95c-0.06,0.34-0.09,0.71-0.09,1.13c0,0.62,0.11,1.09,0.34,1.41c0.22,0.31,0.51,0.47,0.87,0.47h0.43
			c0.19,0,0.34-0.03,0.48-0.1s0.25-0.19,0.36-0.38s0.22-0.47,0.32-0.84l0.41-1.33c0.13-0.46,0.28-0.83,0.45-1.12
			c0.17-0.29,0.36-0.52,0.57-0.69s0.43-0.29,0.67-0.36c0.24-0.07,0.5-0.1,0.78-0.1h0.6c0.38,0,0.73,0.08,1.04,0.25
			s0.59,0.4,0.83,0.7c0.24,0.3,0.42,0.67,0.55,1.08S27.49,174.42,27.49,174.93z"/>
		<path d="M17.42,180.8c0-0.24,0-0.49,0-0.73c0-0.24,0-0.48,0.01-0.71c0-0.03,0-0.05,0.01-0.08c0.01-0.02,0.03-0.04,0.06-0.05
			c0.03-0.01,0.06-0.01,0.1-0.01c0.28,0.08,0.63,0.18,1.04,0.29c0.41,0.11,0.87,0.22,1.37,0.35s1.02,0.26,1.56,0.4
			c0.54,0.14,1.08,0.28,1.63,0.42c0.55,0.14,1.07,0.28,1.58,0.41c0.51,0.13,0.97,0.25,1.4,0.36c0.42,0.11,0.79,0.21,1.1,0.29
			c0,0.45,0,0.88,0,1.3s0,0.81,0,1.18c0,0.04-0.01,0.07-0.02,0.09s-0.03,0.04-0.05,0.06c-0.02,0.01-0.05,0.02-0.08,0.02
			c-0.59,0.16-1.2,0.32-1.83,0.5s-1.28,0.35-1.95,0.52c-0.67,0.18-1.36,0.36-2.07,0.55c-0.71,0.19-1.44,0.37-2.18,0.56
			c-0.27,0.07-0.54,0.15-0.82,0.22c-0.28,0.08-0.56,0.14-0.85,0.21c0-0.25,0-0.5,0-0.75c0-0.25,0-0.5,0-0.75
			c0-0.04,0-0.07,0.01-0.08c0.01-0.02,0.03-0.03,0.06-0.05c0.03-0.01,0.07-0.03,0.13-0.05c0.82-0.2,1.58-0.39,2.28-0.57
			c0.7-0.19,1.34-0.35,1.93-0.5s1.13-0.29,1.64-0.42s0.97-0.25,1.41-0.34s0.85-0.19,1.24-0.27l-0.29,0.36v-0.94l0.28,0.36
			c-0.38-0.07-0.79-0.16-1.23-0.26c-0.44-0.1-0.92-0.21-1.43-0.34c-0.51-0.13-1.07-0.28-1.68-0.43c-0.61-0.16-1.27-0.33-1.99-0.52
			S18.27,181,17.42,180.8z M21.33,180.87v2.73c0,0.13,0,0.26,0,0.38s0,0.25,0,0.36l0.13,0.45l-1.53,0.34v-4.12
			c0-0.03,0.01-0.05,0.02-0.08c0.01-0.02,0.03-0.04,0.06-0.06c0.02-0.01,0.05-0.02,0.08-0.02L21.33,180.87z"/>
		<path d="M17.42,189.8c0-0.24,0-0.48,0-0.72c0-0.24,0-0.48,0-0.72c0-0.03,0.01-0.05,0.02-0.08c0.01-0.02,0.03-0.04,0.05-0.06
			c0.02-0.01,0.05-0.02,0.08-0.02c0.67,0,1.34,0,2.02,0s1.34,0,2.01,0s1.34,0,2.01,0c0.67,0,1.34,0,2,0c0.27,0,0.54,0,0.8,0
			c0.27,0,0.53,0,0.8,0c0,0.17,0,0.37,0,0.6s0,0.47,0,0.7s0,0.43,0,0.6c0,0.08-0.01,0.13-0.02,0.15c-0.01,0.03-0.05,0.06-0.12,0.08
			c-0.24,0.09-0.53,0.2-0.85,0.33c-0.32,0.13-0.68,0.27-1.07,0.43c-0.39,0.16-0.81,0.33-1.25,0.51c-0.44,0.18-0.91,0.37-1.39,0.57
			s-0.98,0.39-1.49,0.59c-0.51,0.2-1.02,0.4-1.55,0.6l0.24-0.45v0.85l-0.21-0.24c0.53-0.08,1.01-0.15,1.44-0.2
			c0.43-0.05,0.83-0.09,1.2-0.12c0.37-0.03,0.71-0.06,1.04-0.07c0.32-0.01,0.64-0.03,0.95-0.03c0.31-0.01,0.63-0.01,0.96-0.01
			c0.36,0,0.72,0,1.07,0c0.35,0,0.7,0,1.06,0c0,0.24,0,0.49,0,0.73c0,0.24,0,0.48,0,0.71c0,0.05-0.01,0.08-0.04,0.11
			c-0.03,0.03-0.07,0.04-0.11,0.04c-0.65,0-1.31,0-1.97,0s-1.32,0-1.98,0c-0.66,0-1.32,0-1.97,0s-1.31,0-1.97,0
			c-0.29,0-0.58,0-0.88,0s-0.59,0-0.88,0c0-0.16,0-0.35,0-0.57c0-0.22,0-0.45,0-0.68c0-0.23,0-0.42,0-0.58
			c0-0.04,0.01-0.07,0.02-0.1c0.01-0.03,0.04-0.05,0.09-0.07c0.62-0.26,1.24-0.52,1.86-0.78c0.63-0.26,1.26-0.52,1.9-0.78
			c0.64-0.26,1.29-0.52,1.96-0.78c0.67-0.26,1.35-0.53,2.05-0.81L25.05,190v-0.84l0.22,0.22c-0.49,0.07-0.93,0.12-1.34,0.17
			c-0.41,0.05-0.79,0.09-1.14,0.12s-0.7,0.05-1.03,0.07c-0.33,0.02-0.67,0.03-1.01,0.04c-0.34,0.01-0.7,0.01-1.07,0.01
			c-0.34-0.01-0.71-0.01-1.11-0.01C18.19,189.8,17.81,189.8,17.42,189.8z"/>
		<path d="M27.49,200.13c0,0.64-0.08,1.2-0.23,1.67s-0.34,0.81-0.57,1.04c-0.04,0.04-0.07,0.06-0.1,0.08
			c-0.03,0.01-0.08,0.02-0.13,0.02c-0.18,0-0.38,0-0.6,0c-0.22,0-0.44,0-0.65,0s-0.42,0-0.63,0c0-0.22,0-0.45,0-0.69s0-0.46,0-0.69
			c0-0.05,0.01-0.08,0.04-0.11c0.03-0.03,0.06-0.04,0.11-0.04c0.1,0,0.21,0,0.32,0s0.23,0,0.34,0c0.12,0,0.24,0,0.38,0
			c0.14,0,0.28,0,0.43,0l-0.56,0.39c0.14-0.22,0.24-0.47,0.31-0.73c0.06-0.26,0.1-0.57,0.1-0.94c0-0.3-0.03-0.56-0.08-0.79
			s-0.14-0.42-0.25-0.58c-0.11-0.16-0.24-0.28-0.4-0.36c-0.16-0.08-0.35-0.13-0.56-0.13h-0.28c-0.21,0-0.4,0.03-0.55,0.1
			s-0.28,0.2-0.39,0.38s-0.22,0.46-0.34,0.81l-0.41,1.33c-0.12,0.44-0.26,0.8-0.41,1.1s-0.32,0.53-0.51,0.7s-0.41,0.3-0.66,0.38
			s-0.53,0.12-0.85,0.12h-0.59c-0.54,0-1.01-0.14-1.4-0.42c-0.39-0.28-0.7-0.68-0.91-1.21c-0.21-0.53-0.32-1.17-0.32-1.91
			c0-0.45,0.03-0.87,0.1-1.27c0.07-0.4,0.16-0.74,0.27-1.04c0.12-0.29,0.25-0.53,0.41-0.69c0.03-0.03,0.06-0.05,0.09-0.06
			c0.03-0.01,0.09-0.02,0.16-0.02c0.21,0,0.41,0,0.62,0s0.43,0,0.67,0v0.24c-0.2,0.28-0.36,0.57-0.49,0.86
			c-0.13,0.29-0.23,0.61-0.29,0.95c-0.06,0.34-0.09,0.71-0.09,1.13c0,0.62,0.11,1.09,0.34,1.41c0.22,0.31,0.51,0.47,0.87,0.47h0.43
			c0.19,0,0.34-0.03,0.48-0.1s0.25-0.19,0.36-0.38s0.22-0.47,0.32-0.84l0.41-1.33c0.13-0.46,0.28-0.83,0.45-1.12
			c0.17-0.29,0.36-0.52,0.57-0.69s0.43-0.29,0.67-0.36c0.24-0.07,0.5-0.1,0.78-0.1h0.6c0.38,0,0.73,0.08,1.04,0.25
			s0.59,0.4,0.83,0.7c0.24,0.3,0.42,0.67,0.55,1.08S27.49,199.62,27.49,200.13z"/>
	</g>
</g>
<g>
	<path d="M12.14,225.62h2.14c0.11,0,0.21,0.02,0.29,0.05c0.08,0.03,0.15,0.07,0.21,0.13l0.14-0.06l-0.01,0.5h-2.57
		c-0.07,0-0.12-0.02-0.16-0.06c-0.04-0.04-0.06-0.1-0.07-0.18c-0.01-0.08-0.01-0.17,0.01-0.26L12.14,225.62z M12.84,227.56
		c-0.05,0.01-0.09,0.02-0.14,0.03c-0.04,0.01-0.09,0.01-0.14,0.01c-0.1,0-0.18-0.02-0.24-0.06c-0.06-0.04-0.1-0.09-0.13-0.17
		c-0.02-0.08-0.02-0.18,0.01-0.31c0.02-0.28,0.05-0.54,0.1-0.79c0.05-0.25,0.1-0.5,0.17-0.73c0.06-0.24,0.13-0.46,0.21-0.68
		c0.08-0.22,0.17-0.43,0.27-0.63c0.1-0.2,0.21-0.4,0.32-0.58c0.11-0.19,0.23-0.37,0.36-0.53c0.13-0.17,0.26-0.32,0.41-0.47
		c0.05-0.01,0.1-0.02,0.15-0.03c0.06-0.01,0.11-0.01,0.17-0.01c0.16,0,0.29,0.02,0.39,0.07c0.1,0.04,0.18,0.12,0.25,0.22
		s0.12,0.23,0.17,0.4c0.08,0.21,0.15,0.45,0.2,0.72s0.1,0.56,0.13,0.87s0.04,0.63,0.04,0.96c0,0.33-0.02,0.67-0.05,1.01
		c-0.02,0.14-0.04,0.27-0.04,0.38c0,0.11,0,0.23,0,0.35c-0.05,0.01-0.09,0.02-0.13,0.03s-0.09,0.01-0.15,0.01
		c-0.1,0-0.18-0.02-0.25-0.06c-0.07-0.04-0.12-0.1-0.15-0.19c-0.03-0.09-0.03-0.21,0-0.37c0.04-0.32,0.07-0.62,0.08-0.92
		c0.01-0.3,0.01-0.58,0-0.86c-0.01-0.28-0.04-0.54-0.08-0.79c-0.04-0.25-0.09-0.49-0.15-0.73s-0.14-0.45-0.24-0.66l0.17,0.15
		l-0.31-0.02l0.23-0.12c-0.21,0.25-0.39,0.51-0.55,0.78c-0.16,0.27-0.31,0.54-0.44,0.83c-0.13,0.29-0.24,0.59-0.33,0.91
		s-0.16,0.64-0.21,0.97C12.89,226.86,12.86,227.2,12.84,227.56z"/>
	<path d="M16.6,223.97c0.07-0.03,0.13-0.05,0.2-0.07c0.07-0.02,0.14-0.04,0.21-0.06s0.14-0.03,0.21-0.04
		c0.07-0.01,0.14-0.02,0.21-0.03c0.07-0.01,0.14-0.01,0.2-0.01c0.08,0,0.15,0.01,0.22,0.04s0.11,0.07,0.14,0.13s0.05,0.14,0.07,0.23
		c0.02,0.1,0.03,0.22,0.02,0.35c0,0.14-0.02,0.3-0.04,0.5c-0.03,0.16-0.06,0.31-0.09,0.46c-0.03,0.15-0.06,0.29-0.08,0.43
		s-0.05,0.29-0.08,0.44s-0.04,0.31-0.05,0.47c-0.02,0.17-0.03,0.31-0.02,0.42c0,0.11,0.02,0.22,0.06,0.33
		c-0.04,0.02-0.08,0.03-0.12,0.03c-0.04,0-0.09,0-0.13,0c-0.11,0-0.21-0.02-0.28-0.07s-0.13-0.12-0.17-0.22
		c-0.04-0.1-0.04-0.23-0.02-0.39c0.02-0.21,0.05-0.42,0.08-0.63c0.04-0.21,0.08-0.42,0.12-0.63s0.08-0.43,0.12-0.65
		c0.04-0.22,0.07-0.44,0.09-0.67l-0.04-0.04c-0.14,0.07-0.25,0.12-0.34,0.17s-0.16,0.09-0.22,0.12c-0.06,0.03-0.11,0.05-0.17,0.05
		c-0.08,0-0.14-0.03-0.17-0.1s-0.04-0.17-0.02-0.31c0.01-0.05,0.02-0.09,0.03-0.14C16.56,224.07,16.57,224.02,16.6,223.97z
		 M19.45,223.72c0.09,0,0.17,0.01,0.25,0.04c0.07,0.03,0.13,0.07,0.18,0.12c0.06,0.06,0.11,0.12,0.14,0.2
		c0.04,0.08,0.06,0.16,0.07,0.24c0.01,0.08,0.01,0.15,0,0.22l-0.02,0.13c-0.02,0.12-0.06,0.23-0.12,0.34
		c-0.06,0.1-0.13,0.18-0.21,0.23c-0.08,0.05-0.17,0.08-0.28,0.08c-0.02,0-0.04,0-0.06,0c-0.02,0-0.04-0.01-0.06-0.01l0.01-0.05
		c0.04-0.11,0.07-0.22,0.1-0.34s0.04-0.23,0.05-0.34c-0.03-0.03-0.06-0.05-0.09-0.06s-0.07-0.02-0.12-0.02
		c-0.13,0-0.29,0.06-0.46,0.17c-0.18,0.11-0.36,0.29-0.55,0.54c-0.19,0.24-0.37,0.55-0.54,0.93l0.17-1.15h0.2
		c0.12-0.26,0.25-0.48,0.41-0.66c0.16-0.18,0.31-0.33,0.47-0.44C19.15,223.77,19.3,223.72,19.45,223.72z"/>
	<path d="M20.82,223.97c0.07-0.03,0.13-0.05,0.2-0.07c0.07-0.02,0.14-0.04,0.21-0.06s0.14-0.03,0.21-0.04
		c0.07-0.01,0.14-0.02,0.21-0.03c0.07-0.01,0.14-0.01,0.2-0.01c0.08,0,0.15,0.01,0.22,0.04s0.11,0.07,0.14,0.13s0.05,0.14,0.07,0.23
		c0.02,0.1,0.03,0.22,0.02,0.35c0,0.14-0.02,0.3-0.04,0.5c-0.03,0.16-0.06,0.31-0.09,0.46c-0.03,0.15-0.06,0.29-0.08,0.43
		s-0.05,0.29-0.08,0.44s-0.04,0.31-0.05,0.47c-0.02,0.17-0.03,0.31-0.02,0.42c0,0.11,0.02,0.22,0.06,0.33
		c-0.04,0.02-0.08,0.03-0.12,0.03c-0.04,0-0.09,0-0.13,0c-0.11,0-0.21-0.02-0.28-0.07s-0.13-0.12-0.17-0.22
		c-0.04-0.1-0.04-0.23-0.02-0.39c0.02-0.21,0.05-0.42,0.08-0.63c0.04-0.21,0.08-0.42,0.12-0.63s0.08-0.43,0.12-0.65
		c0.04-0.22,0.07-0.44,0.09-0.67l-0.04-0.04c-0.14,0.07-0.25,0.12-0.34,0.17s-0.16,0.09-0.22,0.12c-0.06,0.03-0.11,0.05-0.17,0.05
		c-0.08,0-0.14-0.03-0.17-0.1s-0.04-0.17-0.02-0.31c0.01-0.05,0.02-0.09,0.03-0.14C20.78,224.07,20.8,224.02,20.82,223.97z
		 M23.67,223.72c0.09,0,0.17,0.01,0.25,0.04c0.07,0.03,0.13,0.07,0.18,0.12c0.06,0.06,0.11,0.12,0.14,0.2
		c0.04,0.08,0.06,0.16,0.07,0.24c0.01,0.08,0.01,0.15,0,0.22l-0.02,0.13c-0.02,0.12-0.06,0.23-0.12,0.34
		c-0.06,0.1-0.13,0.18-0.21,0.23c-0.08,0.05-0.17,0.08-0.28,0.08c-0.02,0-0.04,0-0.06,0c-0.02,0-0.04-0.01-0.06-0.01l0.01-0.05
		c0.04-0.11,0.07-0.22,0.1-0.34s0.04-0.23,0.05-0.34c-0.03-0.03-0.06-0.05-0.09-0.06s-0.07-0.02-0.12-0.02
		c-0.13,0-0.29,0.06-0.46,0.17c-0.18,0.11-0.36,0.29-0.55,0.54c-0.19,0.24-0.37,0.55-0.54,0.93l0.17-1.15h0.2
		c0.12-0.26,0.25-0.48,0.41-0.66c0.16-0.18,0.31-0.33,0.47-0.44C23.37,223.77,23.52,223.72,23.67,223.72z"/>
	<path d="M26.77,223.76c0.24,0,0.45,0.05,0.63,0.16s0.33,0.26,0.46,0.46c0.13,0.2,0.22,0.43,0.27,0.68
		c0.05,0.26,0.05,0.54,0.01,0.85l-0.02,0.11c-0.05,0.35-0.16,0.64-0.31,0.89c-0.16,0.24-0.36,0.42-0.61,0.55
		c-0.25,0.12-0.54,0.19-0.89,0.19c-0.26,0-0.49-0.04-0.69-0.13s-0.36-0.21-0.5-0.36s-0.23-0.34-0.28-0.56
		c-0.05-0.22-0.06-0.46-0.01-0.73l0.01-0.09c0.06-0.41,0.18-0.76,0.35-1.06c0.18-0.3,0.4-0.53,0.67-0.69
		C26.15,223.84,26.45,223.76,26.77,223.76z M26.79,224.38c-0.21,0-0.4,0.06-0.57,0.18s-0.32,0.29-0.43,0.5
		c-0.12,0.21-0.2,0.48-0.25,0.78l-0.02,0.07c-0.03,0.21-0.03,0.41,0,0.59c0.03,0.18,0.12,0.34,0.24,0.46
		c0.08,0.02,0.17,0.03,0.25,0.05c0.08,0.01,0.17,0.02,0.27,0.02c0.24,0,0.44-0.04,0.62-0.13s0.31-0.21,0.41-0.37
		c0.1-0.16,0.17-0.36,0.2-0.59l0.02-0.07c0.04-0.3,0.04-0.58,0-0.82c-0.04-0.24-0.12-0.45-0.25-0.61c-0.07-0.02-0.14-0.04-0.22-0.05
		C26.98,224.39,26.89,224.38,26.79,224.38z"/>
	<path d="M29.15,223.83c0.04-0.01,0.07-0.02,0.1-0.02c0.03,0,0.07,0,0.11,0c0.12,0,0.21,0.03,0.29,0.08
		c0.07,0.06,0.13,0.13,0.16,0.24c0.03,0.1,0.04,0.23,0.02,0.37c-0.02,0.22-0.06,0.44-0.11,0.65c-0.05,0.21-0.1,0.42-0.14,0.63
		c-0.05,0.21-0.08,0.43-0.11,0.65c-0.02,0.16-0.02,0.3,0.01,0.42c0.03,0.11,0.08,0.21,0.17,0.29h0.05c0.15-0.05,0.29-0.12,0.41-0.23
		c0.12-0.11,0.22-0.25,0.3-0.42l0.08,0.57h-0.13c-0.08,0.19-0.19,0.33-0.33,0.43c-0.13,0.1-0.27,0.15-0.4,0.15H29.6
		c-0.16,0-0.31-0.05-0.43-0.15c-0.12-0.1-0.21-0.24-0.27-0.42c-0.06-0.18-0.08-0.37-0.07-0.59c0.01-0.16,0.04-0.32,0.07-0.48
		s0.06-0.32,0.1-0.48c0.04-0.17,0.07-0.33,0.1-0.5c0.03-0.17,0.06-0.34,0.09-0.51c0.01-0.11,0.02-0.22,0.02-0.33
		C29.2,224.05,29.19,223.94,29.15,223.83z M30.64,224.55c0.03-0.01,0.06-0.02,0.09-0.02s0.05-0.01,0.07-0.01
		c0.11,0,0.18,0.03,0.21,0.1c0.03,0.07,0.04,0.16,0.02,0.28c-0.02,0.17-0.05,0.34-0.09,0.5c-0.04,0.16-0.08,0.32-0.11,0.48
		c-0.03,0.16-0.06,0.32-0.07,0.49c-0.02,0.17-0.01,0.32,0.03,0.45s0.1,0.23,0.2,0.31h0.04c0.15-0.07,0.28-0.19,0.38-0.34
		s0.2-0.34,0.27-0.55s0.12-0.44,0.16-0.67l0.02-0.08c0.04-0.22,0.05-0.44,0.05-0.64c0-0.2-0.03-0.38-0.08-0.55
		c-0.05-0.17-0.11-0.31-0.18-0.44v-0.04c0.05-0.01,0.09-0.03,0.14-0.04s0.1-0.02,0.16-0.02c0.12,0,0.22,0.04,0.3,0.12
		c0.08,0.08,0.14,0.2,0.19,0.35s0.07,0.34,0.08,0.56c0.01,0.22,0,0.46-0.04,0.73l-0.01,0.08c-0.06,0.4-0.16,0.75-0.29,1.06
		c-0.13,0.31-0.29,0.54-0.47,0.71c-0.18,0.17-0.38,0.25-0.59,0.25h-0.04c-0.1,0-0.2-0.03-0.3-0.09c-0.1-0.06-0.19-0.14-0.26-0.25
		c-0.08-0.11-0.13-0.23-0.17-0.37s-0.04-0.29-0.03-0.46c0.01-0.21,0.04-0.41,0.08-0.61s0.08-0.41,0.13-0.62
		C30.59,225,30.62,224.78,30.64,224.55z"/>
	<path d="M14.81,229.06h3.29c0.12,0,0.2,0.04,0.24,0.12c0.04,0.08,0.05,0.18,0.04,0.29c0,0.05-0.01,0.09-0.03,0.13
		s-0.03,0.08-0.05,0.1h-2.99c-0.13,0-0.23-0.02-0.33-0.05c-0.09-0.04-0.16-0.09-0.2-0.15c-0.04-0.07-0.05-0.16-0.03-0.27
		c0-0.04,0.01-0.07,0.02-0.09C14.78,229.12,14.8,229.09,14.81,229.06z M16.34,233.96c-0.04,0.02-0.08,0.03-0.12,0.04
		c-0.04,0-0.09,0.01-0.15,0.01c-0.19,0-0.32-0.06-0.38-0.18c-0.07-0.12-0.09-0.28-0.08-0.49c0.03-0.31,0.07-0.62,0.12-0.92
		c0.05-0.3,0.11-0.61,0.18-0.91c0.07-0.31,0.13-0.62,0.19-0.94c0.06-0.32,0.1-0.66,0.13-1.01l0.58-0.02l-0.11,0.22
		c0.04,0.03,0.07,0.08,0.09,0.13c0.02,0.05,0.04,0.11,0.04,0.18c0.01,0.07,0,0.15-0.02,0.25c-0.03,0.32-0.08,0.65-0.15,0.97
		c-0.07,0.33-0.14,0.66-0.2,0.99c-0.07,0.33-0.11,0.67-0.15,1.01c-0.01,0.11-0.02,0.23-0.02,0.35
		C16.29,233.75,16.3,233.86,16.34,233.96z"/>
	<path d="M21.15,230.23c0.04-0.01,0.08-0.02,0.12-0.02c0.04,0,0.08,0,0.12,0c0.1,0,0.19,0.02,0.25,0.05s0.11,0.08,0.14,0.15
		s0.03,0.14,0.02,0.23c-0.02,0.37-0.05,0.74-0.1,1.1c-0.05,0.36-0.1,0.71-0.17,1.06c-0.07,0.34-0.14,0.68-0.23,1
		c-0.08,0.33-0.21,0.62-0.38,0.85c-0.17,0.24-0.38,0.41-0.65,0.53s-0.58,0.18-0.96,0.18c-0.15,0-0.28-0.01-0.4-0.04
		c-0.12-0.03-0.22-0.06-0.3-0.1c-0.08-0.04-0.14-0.08-0.17-0.14c-0.04-0.05-0.07-0.11-0.09-0.19s-0.02-0.16,0-0.24
		c0-0.04,0.01-0.08,0.02-0.11s0.03-0.06,0.04-0.1h0.04c0.14,0.09,0.29,0.16,0.45,0.2c0.16,0.04,0.36,0.06,0.6,0.06
		c0.15,0,0.3-0.01,0.43-0.04c0.13-0.02,0.25-0.07,0.36-0.13c0.06-0.08,0.11-0.17,0.16-0.25c0.05-0.08,0.09-0.18,0.13-0.29
		c0.04-0.11,0.08-0.24,0.11-0.4c0.07-0.24,0.12-0.49,0.17-0.77c0.05-0.27,0.1-0.55,0.14-0.84c0.04-0.29,0.07-0.58,0.1-0.89
		C21.12,230.81,21.14,230.52,21.15,230.23z M18.72,230.24c0.05-0.01,0.09-0.03,0.14-0.04c0.05-0.01,0.09-0.01,0.14-0.01
		c0.13,0,0.24,0.03,0.32,0.1c0.08,0.07,0.14,0.17,0.17,0.31c0.03,0.14,0.03,0.32,0,0.55c-0.02,0.19-0.05,0.37-0.09,0.54
		c-0.04,0.17-0.1,0.35-0.16,0.53c-0.06,0.18-0.13,0.39-0.2,0.62c0.04,0.1,0.09,0.17,0.17,0.22c0.07,0.05,0.16,0.08,0.26,0.08
		c0.14,0,0.28-0.03,0.42-0.09c0.14-0.06,0.29-0.15,0.43-0.28c0.15-0.13,0.29-0.29,0.43-0.5c0.14-0.21,0.28-0.45,0.41-0.74
		l-0.15,1.17h-0.18c-0.13,0.21-0.27,0.39-0.44,0.56c-0.17,0.17-0.35,0.29-0.54,0.38c-0.19,0.09-0.38,0.14-0.56,0.14
		c-0.15,0-0.29-0.03-0.4-0.09c-0.11-0.06-0.2-0.15-0.26-0.26s-0.1-0.23-0.13-0.36c-0.03-0.13-0.03-0.26-0.02-0.38
		c0.03-0.25,0.07-0.5,0.12-0.74s0.1-0.49,0.13-0.75c0.02-0.19,0.04-0.35,0.04-0.5C18.78,230.55,18.76,230.4,18.72,230.24z"/>
	<path d="M22.97,230.23c0.03-0.01,0.05-0.02,0.08-0.03s0.05-0.01,0.08-0.01c0.03,0,0.05,0,0.08,0c0.11,0,0.21,0.03,0.29,0.08
		s0.14,0.14,0.17,0.27s0.04,0.3,0,0.51c-0.04,0.39-0.1,0.76-0.17,1.12c-0.07,0.36-0.14,0.72-0.22,1.08
		c-0.07,0.36-0.14,0.71-0.2,1.07c-0.06,0.36-0.09,0.72-0.11,1.1c-0.02,0-0.04,0.01-0.05,0.01c-0.01,0-0.03,0-0.04,0
		c-0.01,0-0.03,0-0.06,0c-0.12,0-0.21-0.03-0.29-0.08c-0.07-0.06-0.13-0.13-0.16-0.24c-0.03-0.1-0.04-0.21-0.02-0.33
		c0.04-0.35,0.09-0.68,0.15-1c0.06-0.32,0.12-0.64,0.19-0.95c0.07-0.31,0.13-0.62,0.19-0.95c0.06-0.32,0.1-0.66,0.13-1
		c0.02-0.14,0.02-0.26,0.02-0.37C23.03,230.4,23.01,230.31,22.97,230.23z M25.12,230.16c0.22,0,0.4,0.07,0.55,0.2
		c0.15,0.14,0.25,0.32,0.32,0.55s0.07,0.48,0.03,0.76L26,231.83c-0.06,0.38-0.14,0.71-0.25,0.99c-0.11,0.28-0.24,0.51-0.39,0.69
		c-0.15,0.18-0.32,0.32-0.51,0.4c-0.19,0.09-0.4,0.13-0.62,0.13c-0.15,0-0.29-0.03-0.41-0.09c-0.12-0.06-0.22-0.13-0.31-0.22
		s-0.16-0.18-0.21-0.27l-0.21,0.04l0.15-0.59c0.11,0.17,0.24,0.3,0.37,0.38c0.14,0.08,0.31,0.12,0.51,0.12
		c0.22,0,0.41-0.06,0.56-0.17c0.15-0.11,0.28-0.28,0.39-0.51c0.11-0.23,0.18-0.51,0.23-0.84l0.02-0.1c0.02-0.14,0.04-0.26,0.05-0.37
		c0.01-0.11,0.01-0.21,0-0.31c-0.05-0.08-0.1-0.15-0.16-0.19s-0.13-0.06-0.22-0.06c-0.18,0-0.36,0.05-0.53,0.14
		c-0.17,0.09-0.35,0.25-0.52,0.47c-0.18,0.22-0.36,0.51-0.56,0.88l0.21-1.11l0.13,0.05c0.11-0.22,0.25-0.41,0.4-0.57
		c0.16-0.16,0.32-0.29,0.49-0.39S24.95,230.16,25.12,230.16z"/>
	<path d="M28.92,230.15c0.23,0,0.44,0.04,0.61,0.11s0.31,0.17,0.41,0.3s0.18,0.26,0.23,0.42c0.05,0.15,0.06,0.31,0.03,0.47
		l-0.01,0.04c-0.02,0.16-0.07,0.31-0.15,0.43c-0.08,0.12-0.18,0.23-0.32,0.32c-0.14,0.09-0.3,0.16-0.5,0.21s-0.42,0.07-0.69,0.07
		c-0.16,0-0.31-0.01-0.43-0.02c-0.12-0.02-0.23-0.04-0.33-0.07c-0.1-0.03-0.17-0.06-0.23-0.1l-0.21,0.03l0.08-0.44
		c0.08,0.03,0.16,0.06,0.24,0.08s0.18,0.04,0.29,0.06c0.11,0.01,0.25,0.02,0.41,0.02c0.39,0,0.68-0.06,0.87-0.18s0.3-0.28,0.33-0.48
		c0.02-0.14,0.02-0.25,0-0.34s-0.06-0.16-0.11-0.22c-0.07-0.03-0.15-0.05-0.22-0.06c-0.08-0.01-0.17-0.02-0.27-0.02
		c-0.23,0-0.45,0.06-0.64,0.17c-0.19,0.11-0.36,0.28-0.49,0.5c-0.13,0.22-0.23,0.5-0.28,0.84l-0.01,0.07
		c-0.03,0.18-0.03,0.34-0.01,0.49s0.07,0.29,0.15,0.41c0.13,0.06,0.26,0.11,0.4,0.13c0.14,0.03,0.3,0.04,0.49,0.04
		c0.21,0,0.4-0.02,0.56-0.05c0.16-0.04,0.32-0.09,0.46-0.17c0.14-0.07,0.28-0.17,0.43-0.28h0.04c0,0.06,0,0.11,0,0.15
		c0,0.04-0.01,0.08-0.01,0.12c-0.01,0.12-0.04,0.22-0.07,0.3s-0.08,0.15-0.15,0.21c-0.08,0.07-0.18,0.13-0.3,0.18
		c-0.11,0.06-0.25,0.1-0.42,0.12c-0.16,0.03-0.35,0.04-0.56,0.04c-0.28,0-0.52-0.04-0.75-0.13c-0.22-0.09-0.41-0.22-0.55-0.39
		c-0.14-0.17-0.25-0.37-0.31-0.6c-0.06-0.23-0.07-0.49-0.02-0.77l0.01-0.08c0.05-0.33,0.13-0.61,0.26-0.85s0.28-0.44,0.47-0.59
		c0.19-0.16,0.39-0.27,0.61-0.35C28.44,230.19,28.68,230.15,28.92,230.15z"/>
</g>
<g>
	<path d="M19.11,30.34c-0.93-0.3-1.72-0.73-2.36-1.29s-1.13-1.25-1.46-2.05c-0.33-0.8-0.5-1.7-0.5-2.7v-2.13
		c0-0.49,0.06-0.94,0.17-1.36s0.3-0.77,0.56-1.08c0.26-0.3,0.59-0.54,0.99-0.71s0.9-0.25,1.48-0.25h0.21c0.4,0,0.73,0.06,1.01,0.19
		c0.28,0.13,0.48,0.32,0.62,0.58c0.14,0.26,0.21,0.58,0.21,0.96c0,0.28,0,0.63,0,1.04c0,0.41,0,0.85,0,1.3s0,0.9,0,1.32
		c0,0.43,0,0.79,0,1.09c0,0.01-0.01,0.08-0.02,0.22C20,25.6,19.99,25.78,19.96,26c-0.02,0.22-0.05,0.46-0.07,0.72h-0.54
		c-0.06,0-0.1-0.02-0.14-0.05c-0.04-0.04-0.05-0.08-0.05-0.14c0-0.32,0-0.72,0-1.22s0-1.03,0-1.6c0-0.57,0-1.13,0-1.67
		s0-1.01,0-1.41c0-0.37-0.08-0.64-0.25-0.8s-0.43-0.24-0.81-0.24h-0.07c-0.55,0-1,0.09-1.35,0.26c-0.35,0.18-0.61,0.45-0.78,0.83
		c-0.17,0.38-0.25,0.87-0.25,1.48v2.12c0,0.53,0.05,1.02,0.15,1.5c0.1,0.47,0.25,0.92,0.46,1.34s0.49,0.8,0.84,1.14
		c0.35,0.36,0.78,0.67,1.28,0.92c0.5,0.25,1.08,0.45,1.72,0.59c0.65,0.14,1.38,0.21,2.2,0.21c1.59,0,2.87-0.25,3.84-0.75
		c0.97-0.5,1.69-1.18,2.13-2.04c0.45-0.86,0.67-1.82,0.67-2.9v-2.91c0-0.52-0.05-1.03-0.16-1.5s-0.27-0.92-0.48-1.34
		s-0.49-0.79-0.83-1.13c-0.36-0.35-0.79-0.65-1.28-0.91c-0.49-0.26-1.06-0.46-1.71-0.6c-0.65-0.14-1.38-0.21-2.19-0.21
		c-0.75,0-1.4,0.05-1.95,0.14c-0.55,0.09-1.06,0.23-1.52,0.4c-0.46,0.18-0.92,0.39-1.37,0.65h-0.21v-0.6c0-0.05,0.01-0.08,0.02-0.1
		c0.01-0.02,0.03-0.05,0.05-0.07c0.14-0.14,0.42-0.31,0.83-0.5c0.41-0.19,0.96-0.36,1.65-0.52s1.52-0.23,2.5-0.23
		c1.2,0,2.27,0.15,3.2,0.45c0.93,0.3,1.72,0.73,2.36,1.29s1.13,1.25,1.46,2.06c0.33,0.8,0.5,1.72,0.5,2.75v2.83
		c0,1.02-0.17,1.93-0.5,2.74c-0.33,0.81-0.82,1.5-1.46,2.07s-1.43,1-2.36,1.29s-2,0.45-3.2,0.45
		C21.11,30.78,20.04,30.63,19.11,30.34z M24.35,19.05c0.4,0.22,0.72,0.53,0.95,0.93s0.34,0.88,0.34,1.43v2.83
		c0,0.42-0.06,0.79-0.19,1.12c-0.13,0.33-0.31,0.61-0.55,0.84c-0.24,0.23-0.52,0.41-0.85,0.53c-0.33,0.12-0.69,0.18-1.09,0.18
		c-0.57,0-1.07-0.12-1.5-0.36c-0.43-0.24-0.84-0.58-1.23-1.02h-0.46l0.16-1.19c0.48,0.65,0.96,1.11,1.45,1.37
		c0.49,0.26,0.99,0.38,1.5,0.38c0.38,0,0.72-0.08,1-0.23c0.28-0.15,0.5-0.37,0.65-0.66c0.15-0.29,0.23-0.63,0.23-1.04v-2.7
		c0-0.61-0.17-1.08-0.5-1.42c-0.33-0.34-0.79-0.51-1.37-0.51c-0.34,0-0.67,0.05-1.01,0.17c-0.33,0.11-0.66,0.29-0.99,0.55
		c-0.33,0.26-0.65,0.6-0.96,1.03l-0.16-1.19h0.46c0.4-0.44,0.81-0.78,1.23-1.02c0.43-0.24,0.93-0.36,1.5-0.36
		C23.48,18.72,23.94,18.83,24.35,19.05z"/>
</g>
</svg>
