<?xml version="1.0" encoding="UTF-8"?>
<svg height="900" version="1.1" width="650" xmlns="http://www.w3.org/2000/svg" xmlns:xlink="http://www.w3.org/1999/xlink">
 <path d="M0,0 l650,0 l0,900 l-650,0 Z M0,0" fill="rgb(0,80,255)" transform="matrix(1,0,0,-1,0,900)"/>
 <path d="M85,50 l480,0 l0,800 l-480,0 Z M85,50" fill="rgb(0,80,255)" transform="matrix(1,0,0,-1,0,900)"/>
 <path d="M565,0 l0,900" fill="rgb(0,80,255)" stroke="rgb(255,255,255)" stroke-dasharray="2,2" stroke-opacity="0.25" stroke-width="1" transform="matrix(1,0,0,-1,0,900)"/>
 <path d="M85,0 l0,900" fill="rgb(0,80,255)" stroke="rgb(255,255,255)" stroke-dasharray="2,2" stroke-opacity="0.25" stroke-width="1" transform="matrix(1,0,0,-1,0,900)"/>
 <path d="M0,250 l650,0" fill="rgb(0,80,255)" stroke="rgb(255,255,255)" stroke-dasharray="2,2" stroke-opacity="0.25" stroke-width="1" transform="matrix(1,0,0,-1,0,900)"/>
 <path d="M0,50 l650,0" fill="rgb(0,80,255)" stroke="rgb(255,255,255)" stroke-dasharray="2,2" stroke-opacity="0.25" stroke-width="1" transform="matrix(1,0,0,-1,0,900)"/>
 <path d="M0,850 l650,0" fill="rgb(0,80,255)" stroke="rgb(255,255,255)" stroke-dasharray="2,2" stroke-opacity="0.25" stroke-width="1" transform="matrix(1,0,0,-1,0,900)"/>
 <path d="M0,670.8 l650,0" fill="rgb(0,80,255)" stroke="rgb(255,255,255)" stroke-dasharray="2,2" stroke-opacity="0.25" stroke-width="1" transform="matrix(1,0,0,-1,0,900)"/>
 <path d="M0,810 l650,0" fill="rgb(0,80,255)" stroke="rgb(255,255,255)" stroke-dasharray="2,2" stroke-opacity="0.25" stroke-width="1" transform="matrix(1,0,0,-1,0,900)"/>
 <path d="M155,80 c-9,-38,7,-84,72,-87 l97,-5 c66,-3,88,-41,75,-87 l-2,-7 c-6,-21,-17,-49,-30,-63 c-54,-27,-102,-34,-179,-34 l-49,0 c-109,0,-135,45,-123,94 l2,8 c15,61,70,99,163,111 l-21,38 l-8,-15 c-104,-11,-163,-54,-185,-131 l-2,-7 c-18,-64,29,-145,149,-145 l47,0 c215,0,270,77,288,151 l2,8 c15,61,-14,120,-105,126 l-99,7 c-38,3,-47,17,-41,40 c7,30,33,70,72,93 l-63,2 l2,-14 c-30,-19,-53,-48,-62,-83 Z M422,497 c51,-40,72,-104,52,-172 l-2,-7 c-23,-81,-85,-115,-183,-115 c-41,0,-75,7,-111,24 c-34,33,-35,83,-25,123 l2,7 c27,95,96,137,207,137 c144,0,192,-16,229,-16 c17,0,26,17,31,33 c2,7,2,10,2,15 c-96,9,-170,15,-258,15 c-146,0,-234,-70,-261,-169 l-3,-11 c-28,-101,44,-200,179,-200 c132,0,203,42,235,148 l3,10 c21,68,5,122,-40,164 l6,17 Z M422,497" fill="rgb(255,255,255)" stroke="rgb(34,34,102)" stroke-linejoin="round" stroke-width="1" transform="matrix(0.8,0.0,0.0,-0.8,85.0,650.0)"/>
 <path d="M155,80 l9,35" fill="rgb(0,0,0)" stroke="rgb(0,0,0)" stroke-width="1" transform="matrix(0.8,0.0,0.0,-0.8,85.0,650.0)"/>
 <path d="M162,113 l4,0 l0,4 l-4,0 Z M162,113" fill="rgb(0,0,0)" stroke="rgb(0,0,0)" stroke-width="1" transform="matrix(0.8,0.0,0.0,-0.8,85.0,650.0)"/>
 <path d="M155,80 l-9,-38" fill="rgb(0,0,0)" stroke="rgb(0,0,0)" stroke-width="1" transform="matrix(0.8,0.0,0.0,-0.8,85.0,650.0)"/>
 <path d="M144,40 l4,0 l0,4 l-4,0 Z M144,40" fill="rgb(0,0,0)" stroke="rgb(0,0,0)" stroke-width="1" transform="matrix(0.8,0.0,0.0,-0.8,85.0,650.0)"/>
 <path d="M157.83,77.17 c1.56,1.56,1.56,4.09,0,5.66 c-1.56,1.56,-4.09,1.56,-5.66,0 c-1.56,-1.56,-1.56,-4.09,0,-5.66 c1.56,-1.56,4.09,-1.56,5.66,0 Z M157.83,77.17" fill="rgb(255,255,255)" stroke="rgb(0,0,0)" stroke-width="1" transform="matrix(0.8,0.0,0.0,-0.8,85.0,650.0)"/>
 <path d="M227,-7 l-65,3" fill="rgb(0,0,0)" stroke="rgb(0,0,0)" stroke-width="1" transform="matrix(0.8,0.0,0.0,-0.8,85.0,650.0)"/>
 <path d="M160,-6 l4,0 l0,4 l-4,0 Z M160,-6" fill="rgb(0,0,0)" stroke="rgb(0,0,0)" stroke-width="1" transform="matrix(0.8,0.0,0.0,-0.8,85.0,650.0)"/>
 <path d="M229.83,-9.83 c1.56,1.56,1.56,4.09,0,5.66 c-1.56,1.56,-4.09,1.56,-5.66,0 c-1.56,-1.56,-1.56,-4.09,0,-5.66 c1.56,-1.56,4.09,-1.56,5.66,-0.0 Z M229.83,-9.83" fill="rgb(255,255,255)" stroke="rgb(0,0,0)" stroke-width="1" transform="matrix(0.8,0.0,0.0,-0.8,85.0,650.0)"/>
 <path d="M324,-12 l66,-3" fill="rgb(0,0,0)" stroke="rgb(0,0,0)" stroke-width="1" transform="matrix(0.8,0.0,0.0,-0.8,85.0,650.0)"/>
 <path d="M388,-17 l4,0 l0,4 l-4,0 Z M388,-17" fill="rgb(0,0,0)" stroke="rgb(0,0,0)" stroke-width="1" transform="matrix(0.8,0.0,0.0,-0.8,85.0,650.0)"/>
 <path d="M326.83,-14.83 c1.56,1.56,1.56,4.09,0,5.66 c-1.56,1.56,-4.09,1.56,-5.66,0 c-1.56,-1.56,-1.56,-4.09,0,-5.66 c1.56,-1.56,4.09,-1.56,5.66,-0.0 Z M326.83,-14.83" fill="rgb(255,255,255)" stroke="rgb(0,0,0)" stroke-width="1" transform="matrix(0.8,0.0,0.0,-0.8,85.0,650.0)"/>
 <path d="M399,-99 l13,46" fill="rgb(0,0,0)" stroke="rgb(0,0,0)" stroke-width="1" transform="matrix(0.8,0.0,0.0,-0.8,85.0,650.0)"/>
 <path d="M410,-55 l4,0 l0,4 l-4,0 Z M410,-55" fill="rgb(0,0,0)" stroke="rgb(0,0,0)" stroke-width="1" transform="matrix(0.8,0.0,0.0,-0.8,85.0,650.0)"/>
 <path d="M401.83,-101.83 c1.56,1.56,1.56,4.09,0,5.66 c-1.56,1.56,-4.09,1.56,-5.66,0 c-1.56,-1.56,-1.56,-4.09,0,-5.66 c1.56,-1.56,4.09,-1.56,5.66,0 Z M401.83,-101.83" fill="rgb(255,255,255)" stroke="rgb(0,0,0)" stroke-width="1" transform="matrix(0.8,0.0,0.0,-0.8,85.0,650.0)"/>
 <path d="M397,-106 l-6,-21" fill="rgb(0,0,0)" stroke="rgb(0,0,0)" stroke-width="1" transform="matrix(0.8,0.0,0.0,-0.8,85.0,650.0)"/>
 <path d="M389,-129 l4,0 l0,4 l-4,0 Z M389,-129" fill="rgb(0,0,0)" stroke="rgb(0,0,0)" stroke-width="1" transform="matrix(0.8,0.0,0.0,-0.8,85.0,650.0)"/>
 <path d="M399.83,-108.83 c1.56,1.56,1.56,4.09,0,5.66 c-1.56,1.56,-4.09,1.56,-5.66,0 c-1.56,-1.56,-1.56,-4.09,0,-5.66 c1.56,-1.56,4.09,-1.56,5.66,0 Z M399.83,-108.83" fill="rgb(255,255,255)" stroke="rgb(0,0,0)" stroke-width="1" transform="matrix(0.8,0.0,0.0,-0.8,85.0,650.0)"/>
 <path d="M367,-169 l13,14" fill="rgb(0,0,0)" stroke="rgb(0,0,0)" stroke-width="1" transform="matrix(0.8,0.0,0.0,-0.8,85.0,650.0)"/>
 <path d="M378,-157 l4,0 l0,4 l-4,0 Z M378,-157" fill="rgb(0,0,0)" stroke="rgb(0,0,0)" stroke-width="1" transform="matrix(0.8,0.0,0.0,-0.8,85.0,650.0)"/>
 <path d="M367,-169 l-54,-27" fill="rgb(0,0,0)" stroke="rgb(0,0,0)" stroke-width="1" transform="matrix(0.8,0.0,0.0,-0.8,85.0,650.0)"/>
 <path d="M311,-198 l4,0 l0,4 l-4,0 Z M311,-198" fill="rgb(0,0,0)" stroke="rgb(0,0,0)" stroke-width="1" transform="matrix(0.8,0.0,0.0,-0.8,85.0,650.0)"/>
 <path d="M363,-173 l8,0 l0,8 l-8,0 Z M363,-173" fill="rgb(255,255,255)" stroke="rgb(0,0,0)" stroke-width="1" transform="matrix(0.8,0.0,0.0,-0.8,85.0,650.0)"/>
 <path d="M188,-203 l77,0" fill="rgb(0,0,0)" stroke="rgb(0,0,0)" stroke-width="1" transform="matrix(0.8,0.0,0.0,-0.8,85.0,650.0)"/>
 <path d="M263,-205 l4,0 l0,4 l-4,0 Z M263,-205" fill="rgb(0,0,0)" stroke="rgb(0,0,0)" stroke-width="1" transform="matrix(0.8,0.0,0.0,-0.8,85.0,650.0)"/>
 <path d="M190.83,-205.83 c1.56,1.56,1.56,4.09,0,5.66 c-1.56,1.56,-4.09,1.56,-5.66,0 c-1.56,-1.56,-1.56,-4.09,0,-5.66 c1.56,-1.56,4.09,-1.56,5.66,0 Z M190.83,-205.83" fill="rgb(255,255,255)" stroke="rgb(0,0,0)" stroke-width="1" transform="matrix(0.8,0.0,0.0,-0.8,85.0,650.0)"/>
 <path d="M139,-203 l-109,0" fill="rgb(0,0,0)" stroke="rgb(0,0,0)" stroke-width="1" transform="matrix(0.8,0.0,0.0,-0.8,85.0,650.0)"/>
 <path d="M28,-205 l4,0 l0,4 l-4,0 Z M28,-205" fill="rgb(0,0,0)" stroke="rgb(0,0,0)" stroke-width="1" transform="matrix(0.8,0.0,0.0,-0.8,85.0,650.0)"/>
 <path d="M141.83,-205.83 c1.56,1.56,1.56,4.09,0,5.66 c-1.56,1.56,-4.09,1.56,-5.66,0 c-1.56,-1.56,-1.56,-4.09,0,-5.66 c1.56,-1.56,4.09,-1.56,5.66,0 Z M141.83,-205.83" fill="rgb(255,255,255)" stroke="rgb(0,0,0)" stroke-width="1" transform="matrix(0.8,0.0,0.0,-0.8,85.0,650.0)"/>
 <path d="M16,-109 l-12,-49" fill="rgb(0,0,0)" stroke="rgb(0,0,0)" stroke-width="1" transform="matrix(0.8,0.0,0.0,-0.8,85.0,650.0)"/>
 <path d="M2,-160 l4,0 l0,4 l-4,0 Z M2,-160" fill="rgb(0,0,0)" stroke="rgb(0,0,0)" stroke-width="1" transform="matrix(0.8,0.0,0.0,-0.8,85.0,650.0)"/>
 <path d="M18.83,-111.83 c1.56,1.56,1.56,4.09,0,5.66 c-1.56,1.56,-4.09,1.56,-5.66,0 c-1.56,-1.56,-1.56,-4.09,-0.0,-5.66 c1.56,-1.56,4.09,-1.56,5.66,0 Z M18.83,-111.83" fill="rgb(255,255,255)" stroke="rgb(0,0,0)" stroke-width="1" transform="matrix(0.8,0.0,0.0,-0.8,85.0,650.0)"/>
 <path d="M18,-101 l15,61" fill="rgb(0,0,0)" stroke="rgb(0,0,0)" stroke-width="1" transform="matrix(0.8,0.0,0.0,-0.8,85.0,650.0)"/>
 <path d="M31,-42 l4,0 l0,4 l-4,0 Z M31,-42" fill="rgb(0,0,0)" stroke="rgb(0,0,0)" stroke-width="1" transform="matrix(0.8,0.0,0.0,-0.8,85.0,650.0)"/>
 <path d="M20.83,-103.83 c1.56,1.56,1.56,4.09,0,5.66 c-1.56,1.56,-4.09,1.56,-5.66,0 c-1.56,-1.56,-1.56,-4.09,-0.0,-5.66 c1.56,-1.56,4.09,-1.56,5.66,0 Z M20.83,-103.83" fill="rgb(255,255,255)" stroke="rgb(0,0,0)" stroke-width="1" transform="matrix(0.8,0.0,0.0,-0.8,85.0,650.0)"/>
 <path d="M181,10 l-93,-12" fill="rgb(0,0,0)" stroke="rgb(0,0,0)" stroke-width="1" transform="matrix(0.8,0.0,0.0,-0.8,85.0,650.0)"/>
 <path d="M86,-4 l4,0 l0,4 l-4,0 Z M86,-4" fill="rgb(0,0,0)" stroke="rgb(0,0,0)" stroke-width="1" transform="matrix(0.8,0.0,0.0,-0.8,85.0,650.0)"/>
 <path d="M177,6 l8,0 l0,8 l-8,0 Z M177,6" fill="rgb(255,255,255)" stroke="rgb(0,0,0)" stroke-width="1" transform="matrix(0.8,0.0,0.0,-0.8,85.0,650.0)"/>
 <path d="M156,44 l8,0 l0,8 l-8,0 Z M156,44" fill="rgb(255,255,255)" stroke="rgb(0,0,0)" stroke-width="1" transform="matrix(0.8,0.0,0.0,-0.8,85.0,650.0)"/>
 <path d="M152,33 l-104,-11" fill="rgb(0,0,0)" stroke="rgb(0,0,0)" stroke-width="1" transform="matrix(0.8,0.0,0.0,-0.8,85.0,650.0)"/>
 <path d="M46,20 l4,0 l0,4 l-4,0 Z M46,20" fill="rgb(0,0,0)" stroke="rgb(0,0,0)" stroke-width="1" transform="matrix(0.8,0.0,0.0,-0.8,85.0,650.0)"/>
 <path d="M148,29 l8,0 l0,8 l-8,0 Z M148,29" fill="rgb(255,255,255)" stroke="rgb(0,0,0)" stroke-width="1" transform="matrix(0.8,0.0,0.0,-0.8,85.0,650.0)"/>
 <path d="M-33,-98 l22,77" fill="rgb(0,0,0)" stroke="rgb(0,0,0)" stroke-width="1" transform="matrix(0.8,0.0,0.0,-0.8,85.0,650.0)"/>
 <path d="M-13,-23 l4,0 l0,4 l-4,0 Z M-13,-23" fill="rgb(0,0,0)" stroke="rgb(0,0,0)" stroke-width="1" transform="matrix(0.8,0.0,0.0,-0.8,85.0,650.0)"/>
 <path d="M-30.17,-100.83 c1.56,1.56,1.56,4.09,0,5.66 c-1.56,1.56,-4.09,1.56,-5.66,0 c-1.56,-1.56,-1.56,-4.09,0,-5.66 c1.56,-1.56,4.09,-1.56,5.66,0 Z M-30.17,-100.83" fill="rgb(255,255,255)" stroke="rgb(0,0,0)" stroke-width="1" transform="matrix(0.8,0.0,0.0,-0.8,85.0,650.0)"/>
 <path d="M-35,-105 l-18,-64" fill="rgb(0,0,0)" stroke="rgb(0,0,0)" stroke-width="1" transform="matrix(0.8,0.0,0.0,-0.8,85.0,650.0)"/>
 <path d="M-55,-171 l4,0 l0,4 l-4,0 Z M-55,-171" fill="rgb(0,0,0)" stroke="rgb(0,0,0)" stroke-width="1" transform="matrix(0.8,0.0,0.0,-0.8,85.0,650.0)"/>
 <path d="M-32.17,-107.83 c1.56,1.56,1.56,4.09,0,5.66 c-1.56,1.56,-4.09,1.56,-5.66,0 c-1.56,-1.56,-1.56,-4.09,0,-5.66 c1.56,-1.56,4.09,-1.56,5.66,0 Z M-32.17,-107.83" fill="rgb(255,255,255)" stroke="rgb(0,0,0)" stroke-width="1" transform="matrix(0.8,0.0,0.0,-0.8,85.0,650.0)"/>
 <path d="M114,-250 l-120,0" fill="rgb(0,0,0)" stroke="rgb(0,0,0)" stroke-width="1" transform="matrix(0.8,0.0,0.0,-0.8,85.0,650.0)"/>
 <path d="M-8,-252 l4,0 l0,4 l-4,0 Z M-8,-252" fill="rgb(0,0,0)" stroke="rgb(0,0,0)" stroke-width="1" transform="matrix(0.8,0.0,0.0,-0.8,85.0,650.0)"/>
 <path d="M116.83,-252.83 c1.56,1.56,1.56,4.09,0,5.66 c-1.56,1.56,-4.09,1.56,-5.66,0 c-1.56,-1.56,-1.56,-4.09,0,-5.66 c1.56,-1.56,4.09,-1.56,5.66,0 Z M116.83,-252.83" fill="rgb(255,255,255)" stroke="rgb(0,0,0)" stroke-width="1" transform="matrix(0.8,0.0,0.0,-0.8,85.0,650.0)"/>
 <path d="M161,-250 l215,0" fill="rgb(0,0,0)" stroke="rgb(0,0,0)" stroke-width="1" transform="matrix(0.8,0.0,0.0,-0.8,85.0,650.0)"/>
 <path d="M374,-252 l4,0 l0,4 l-4,0 Z M374,-252" fill="rgb(0,0,0)" stroke="rgb(0,0,0)" stroke-width="1" transform="matrix(0.8,0.0,0.0,-0.8,85.0,650.0)"/>
 <path d="M163.83,-252.83 c1.56,1.56,1.56,4.09,0,5.66 c-1.56,1.56,-4.09,1.56,-5.66,0 c-1.56,-1.56,-1.56,-4.09,0,-5.66 c1.56,-1.56,4.09,-1.56,5.66,0 Z M163.83,-252.83" fill="rgb(255,255,255)" stroke="rgb(0,0,0)" stroke-width="1" transform="matrix(0.8,0.0,0.0,-0.8,85.0,650.0)"/>
 <path d="M449,-99 l-18,-74" fill="rgb(0,0,0)" stroke="rgb(0,0,0)" stroke-width="1" transform="matrix(0.8,0.0,0.0,-0.8,85.0,650.0)"/>
 <path d="M429,-175 l4,0 l0,4 l-4,0 Z M429,-175" fill="rgb(0,0,0)" stroke="rgb(0,0,0)" stroke-width="1" transform="matrix(0.8,0.0,0.0,-0.8,85.0,650.0)"/>
 <path d="M451.83,-101.83 c1.56,1.56,1.56,4.09,0,5.66 c-1.56,1.56,-4.09,1.56,-5.66,0 c-1.56,-1.56,-1.56,-4.09,0,-5.66 c1.56,-1.56,4.09,-1.56,5.66,0 Z M451.83,-101.83" fill="rgb(255,255,255)" stroke="rgb(0,0,0)" stroke-width="1" transform="matrix(0.8,0.0,0.0,-0.8,85.0,650.0)"/>
 <path d="M451,-91 l15,61" fill="rgb(0,0,0)" stroke="rgb(0,0,0)" stroke-width="1" transform="matrix(0.8,0.0,0.0,-0.8,85.0,650.0)"/>
 <path d="M464,-32 l4,0 l0,4 l-4,0 Z M464,-32" fill="rgb(0,0,0)" stroke="rgb(0,0,0)" stroke-width="1" transform="matrix(0.8,0.0,0.0,-0.8,85.0,650.0)"/>
 <path d="M453.83,-93.83 c1.56,1.56,1.56,4.09,0,5.66 c-1.56,1.56,-4.09,1.56,-5.66,0 c-1.56,-1.56,-1.56,-4.09,0,-5.66 c1.56,-1.56,4.09,-1.56,5.66,0 Z M453.83,-93.83" fill="rgb(255,255,255)" stroke="rgb(0,0,0)" stroke-width="1" transform="matrix(0.8,0.0,0.0,-0.8,85.0,650.0)"/>
 <path d="M346,35 l91,-6" fill="rgb(0,0,0)" stroke="rgb(0,0,0)" stroke-width="1" transform="matrix(0.8,0.0,0.0,-0.8,85.0,650.0)"/>
 <path d="M435,27 l4,0 l0,4 l-4,0 Z M435,27" fill="rgb(0,0,0)" stroke="rgb(0,0,0)" stroke-width="1" transform="matrix(0.8,0.0,0.0,-0.8,85.0,650.0)"/>
 <path d="M348.83,32.17 c1.56,1.56,1.56,4.09,0,5.66 c-1.56,1.56,-4.09,1.56,-5.66,0 c-1.56,-1.56,-1.56,-4.09,0,-5.66 c1.56,-1.56,4.09,-1.56,5.66,0 Z M348.83,32.17" fill="rgb(255,255,255)" stroke="rgb(0,0,0)" stroke-width="1" transform="matrix(0.8,0.0,0.0,-0.8,85.0,650.0)"/>
 <path d="M247,42 l-38,3" fill="rgb(0,0,0)" stroke="rgb(0,0,0)" stroke-width="1" transform="matrix(0.8,0.0,0.0,-0.8,85.0,650.0)"/>
 <path d="M207,43 l4,0 l0,4 l-4,0 Z M207,43" fill="rgb(0,0,0)" stroke="rgb(0,0,0)" stroke-width="1" transform="matrix(0.8,0.0,0.0,-0.8,85.0,650.0)"/>
 <path d="M249.83,39.17 c1.56,1.56,1.56,4.09,0,5.66 c-1.56,1.56,-4.09,1.56,-5.66,0 c-1.56,-1.56,-1.56,-4.09,0,-5.66 c1.56,-1.56,4.09,-1.56,5.66,0 Z M249.83,39.17" fill="rgb(255,255,255)" stroke="rgb(0,0,0)" stroke-width="1" transform="matrix(0.8,0.0,0.0,-0.8,85.0,650.0)"/>
 <path d="M206,82 l-6,-23" fill="rgb(0,0,0)" stroke="rgb(0,0,0)" stroke-width="1" transform="matrix(0.8,0.0,0.0,-0.8,85.0,650.0)"/>
 <path d="M198,57 l4,0 l0,4 l-4,0 Z M198,57" fill="rgb(0,0,0)" stroke="rgb(0,0,0)" stroke-width="1" transform="matrix(0.8,0.0,0.0,-0.8,85.0,650.0)"/>
 <path d="M206,82 l7,30" fill="rgb(0,0,0)" stroke="rgb(0,0,0)" stroke-width="1" transform="matrix(0.8,0.0,0.0,-0.8,85.0,650.0)"/>
 <path d="M211,110 l4,0 l0,4 l-4,0 Z M211,110" fill="rgb(0,0,0)" stroke="rgb(0,0,0)" stroke-width="1" transform="matrix(0.8,0.0,0.0,-0.8,85.0,650.0)"/>
 <path d="M208.83,79.17 c1.56,1.56,1.56,4.09,0,5.66 c-1.56,1.56,-4.09,1.56,-5.66,0 c-1.56,-1.56,-1.56,-4.09,0,-5.66 c1.56,-1.56,4.09,-1.56,5.66,0 Z M208.83,79.17" fill="rgb(255,255,255)" stroke="rgb(0,0,0)" stroke-width="1" transform="matrix(0.8,0.0,0.0,-0.8,85.0,650.0)"/>
 <path d="M278,175 l-39,-23" fill="rgb(0,0,0)" stroke="rgb(0,0,0)" stroke-width="1" transform="matrix(0.8,0.0,0.0,-0.8,85.0,650.0)"/>
 <path d="M237,150 l4,0 l0,4 l-4,0 Z M237,150" fill="rgb(0,0,0)" stroke="rgb(0,0,0)" stroke-width="1" transform="matrix(0.8,0.0,0.0,-0.8,85.0,650.0)"/>
 <path d="M274,171 l8,0 l0,8 l-8,0 Z M274,171" fill="rgb(255,255,255)" stroke="rgb(0,0,0)" stroke-width="1" transform="matrix(0.8,0.0,0.0,-0.8,85.0,650.0)"/>
 <path d="M211,173 l8,0 l0,8 l-8,0 Z M211,173" fill="rgb(255,255,255)" stroke="rgb(0,0,0)" stroke-width="1" transform="matrix(0.8,0.0,0.0,-0.8,85.0,650.0)"/>
 <path d="M217,163 l-30,-19" fill="rgb(0,0,0)" stroke="rgb(0,0,0)" stroke-width="1" transform="matrix(0.8,0.0,0.0,-0.8,85.0,650.0)"/>
 <path d="M185,142 l4,0 l0,4 l-4,0 Z M185,142" fill="rgb(0,0,0)" stroke="rgb(0,0,0)" stroke-width="1" transform="matrix(0.8,0.0,0.0,-0.8,85.0,650.0)"/>
 <path d="M213,159 l8,0 l0,8 l-8,0 Z M213,159" fill="rgb(255,255,255)" stroke="rgb(0,0,0)" stroke-width="1" transform="matrix(0.8,0.0,0.0,-0.8,85.0,650.0)"/>
 <path d="M422,497 l51,-40" fill="rgb(0,0,0)" stroke="rgb(0,0,0)" stroke-width="1" transform="matrix(0.8,0.0,0.0,-0.8,85.0,650.0)"/>
 <path d="M471,455 l4,0 l0,4 l-4,0 Z M471,455" fill="rgb(0,0,0)" stroke="rgb(0,0,0)" stroke-width="1" transform="matrix(0.8,0.0,0.0,-0.8,85.0,650.0)"/>
 <path d="M418,493 l8,0 l0,8 l-8,0 Z M418,493" fill="rgb(255,255,255)" stroke="rgb(0,0,0)" stroke-width="1" transform="matrix(0.8,0.0,0.0,-0.8,85.0,650.0)"/>
 <path d="M474,325 l20,68" fill="rgb(0,0,0)" stroke="rgb(0,0,0)" stroke-width="1" transform="matrix(0.8,0.0,0.0,-0.8,85.0,650.0)"/>
 <path d="M492,391 l4,0 l0,4 l-4,0 Z M492,391" fill="rgb(0,0,0)" stroke="rgb(0,0,0)" stroke-width="1" transform="matrix(0.8,0.0,0.0,-0.8,85.0,650.0)"/>
 <path d="M476.83,322.17 c1.56,1.56,1.56,4.09,0,5.66 c-1.56,1.56,-4.09,1.56,-5.66,0 c-1.56,-1.56,-1.56,-4.09,0,-5.66 c1.56,-1.56,4.09,-1.56,5.66,0 Z M476.83,322.17" fill="rgb(255,255,255)" stroke="rgb(0,0,0)" stroke-width="1" transform="matrix(0.8,0.0,0.0,-0.8,85.0,650.0)"/>
 <path d="M472,318 l-23,-81" fill="rgb(0,0,0)" stroke="rgb(0,0,0)" stroke-width="1" transform="matrix(0.8,0.0,0.0,-0.8,85.0,650.0)"/>
 <path d="M447,235 l4,0 l0,4 l-4,0 Z M447,235" fill="rgb(0,0,0)" stroke="rgb(0,0,0)" stroke-width="1" transform="matrix(0.8,0.0,0.0,-0.8,85.0,650.0)"/>
 <path d="M474.83,315.17 c1.56,1.56,1.56,4.09,0,5.66 c-1.56,1.56,-4.09,1.56,-5.66,0 c-1.56,-1.56,-1.56,-4.09,0,-5.66 c1.56,-1.56,4.09,-1.56,5.66,0 Z M474.83,315.17" fill="rgb(255,255,255)" stroke="rgb(0,0,0)" stroke-width="1" transform="matrix(0.8,0.0,0.0,-0.8,85.0,650.0)"/>
 <path d="M289,203 l98,0" fill="rgb(0,0,0)" stroke="rgb(0,0,0)" stroke-width="1" transform="matrix(0.8,0.0,0.0,-0.8,85.0,650.0)"/>
 <path d="M385,201 l4,0 l0,4 l-4,0 Z M385,201" fill="rgb(0,0,0)" stroke="rgb(0,0,0)" stroke-width="1" transform="matrix(0.8,0.0,0.0,-0.8,85.0,650.0)"/>
 <path d="M289,203 l-41,0" fill="rgb(0,0,0)" stroke="rgb(0,0,0)" stroke-width="1" transform="matrix(0.8,0.0,0.0,-0.8,85.0,650.0)"/>
 <path d="M246,201 l4,0 l0,4 l-4,0 Z M246,201" fill="rgb(0,0,0)" stroke="rgb(0,0,0)" stroke-width="1" transform="matrix(0.8,0.0,0.0,-0.8,85.0,650.0)"/>
 <path d="M291.83,200.17 c1.56,1.56,1.56,4.09,0,5.66 c-1.56,1.56,-4.09,1.56,-5.66,0 c-1.56,-1.56,-1.56,-4.09,0,-5.66 c1.56,-1.56,4.09,-1.56,5.66,0 Z M291.83,200.17" fill="rgb(255,255,255)" stroke="rgb(0,0,0)" stroke-width="1" transform="matrix(0.8,0.0,0.0,-0.8,85.0,650.0)"/>
 <path d="M178,227 l36,-17" fill="rgb(0,0,0)" stroke="rgb(0,0,0)" stroke-width="1" transform="matrix(0.8,0.0,0.0,-0.8,85.0,650.0)"/>
 <path d="M212,208 l4,0 l0,4 l-4,0 Z M212,208" fill="rgb(0,0,0)" stroke="rgb(0,0,0)" stroke-width="1" transform="matrix(0.8,0.0,0.0,-0.8,85.0,650.0)"/>
 <path d="M178,227 l-34,33" fill="rgb(0,0,0)" stroke="rgb(0,0,0)" stroke-width="1" transform="matrix(0.8,0.0,0.0,-0.8,85.0,650.0)"/>
 <path d="M142,258 l4,0 l0,4 l-4,0 Z M142,258" fill="rgb(0,0,0)" stroke="rgb(0,0,0)" stroke-width="1" transform="matrix(0.8,0.0,0.0,-0.8,85.0,650.0)"/>
 <path d="M174,223 l8,0 l0,8 l-8,0 Z M174,223" fill="rgb(255,255,255)" stroke="rgb(0,0,0)" stroke-width="1" transform="matrix(0.8,0.0,0.0,-0.8,85.0,650.0)"/>
 <path d="M153,350 l-10,-40" fill="rgb(0,0,0)" stroke="rgb(0,0,0)" stroke-width="1" transform="matrix(0.8,0.0,0.0,-0.8,85.0,650.0)"/>
 <path d="M141,308 l4,0 l0,4 l-4,0 Z M141,308" fill="rgb(0,0,0)" stroke="rgb(0,0,0)" stroke-width="1" transform="matrix(0.8,0.0,0.0,-0.8,85.0,650.0)"/>
 <path d="M155.83,347.17 c1.56,1.56,1.56,4.09,0,5.66 c-1.56,1.56,-4.09,1.56,-5.66,0 c-1.56,-1.56,-1.56,-4.09,0,-5.66 c1.56,-1.56,4.09,-1.56,5.66,0 Z M155.83,347.17" fill="rgb(255,255,255)" stroke="rgb(0,0,0)" stroke-width="1" transform="matrix(0.8,0.0,0.0,-0.8,85.0,650.0)"/>
 <path d="M155,357 l27,95" fill="rgb(0,0,0)" stroke="rgb(0,0,0)" stroke-width="1" transform="matrix(0.8,0.0,0.0,-0.8,85.0,650.0)"/>
 <path d="M180,450 l4,0 l0,4 l-4,0 Z M180,450" fill="rgb(0,0,0)" stroke="rgb(0,0,0)" stroke-width="1" transform="matrix(0.8,0.0,0.0,-0.8,85.0,650.0)"/>
 <path d="M157.83,354.17 c1.56,1.56,1.56,4.09,0,5.66 c-1.56,1.56,-4.09,1.56,-5.66,0 c-1.56,-1.56,-1.56,-4.09,0,-5.66 c1.56,-1.56,4.09,-1.56,5.66,0 Z M157.83,354.17" fill="rgb(255,255,255)" stroke="rgb(0,0,0)" stroke-width="1" transform="matrix(0.8,0.0,0.0,-0.8,85.0,650.0)"/>
 <path d="M362,494 l-111,0" fill="rgb(0,0,0)" stroke="rgb(0,0,0)" stroke-width="1" transform="matrix(0.8,0.0,0.0,-0.8,85.0,650.0)"/>
 <path d="M249,492 l4,0 l0,4 l-4,0 Z M249,492" fill="rgb(0,0,0)" stroke="rgb(0,0,0)" stroke-width="1" transform="matrix(0.8,0.0,0.0,-0.8,85.0,650.0)"/>
 <path d="M362,494 l144,0" fill="rgb(0,0,0)" stroke="rgb(0,0,0)" stroke-width="1" transform="matrix(0.8,0.0,0.0,-0.8,85.0,650.0)"/>
 <path d="M504,492 l4,0 l0,4 l-4,0 Z M504,492" fill="rgb(0,0,0)" stroke="rgb(0,0,0)" stroke-width="1" transform="matrix(0.8,0.0,0.0,-0.8,85.0,650.0)"/>
 <path d="M364.83,491.17 c1.56,1.56,1.56,4.09,0,5.66 c-1.56,1.56,-4.09,1.56,-5.66,0 c-1.56,-1.56,-1.56,-4.09,0,-5.66 c1.56,-1.56,4.09,-1.56,5.66,0 Z M364.83,491.17" fill="rgb(255,255,255)" stroke="rgb(0,0,0)" stroke-width="1" transform="matrix(0.8,0.0,0.0,-0.8,85.0,650.0)"/>
 <path d="M591,478 l-37,0" fill="rgb(0,0,0)" stroke="rgb(0,0,0)" stroke-width="1" transform="matrix(0.8,0.0,0.0,-0.8,85.0,650.0)"/>
 <path d="M552,476 l4,0 l0,4 l-4,0 Z M552,476" fill="rgb(0,0,0)" stroke="rgb(0,0,0)" stroke-width="1" transform="matrix(0.8,0.0,0.0,-0.8,85.0,650.0)"/>
 <path d="M591,478 l17,0" fill="rgb(0,0,0)" stroke="rgb(0,0,0)" stroke-width="1" transform="matrix(0.8,0.0,0.0,-0.8,85.0,650.0)"/>
 <path d="M606,476 l4,0 l0,4 l-4,0 Z M606,476" fill="rgb(0,0,0)" stroke="rgb(0,0,0)" stroke-width="1" transform="matrix(0.8,0.0,0.0,-0.8,85.0,650.0)"/>
 <path d="M593.83,475.17 c1.56,1.56,1.56,4.09,0,5.66 c-1.56,1.56,-4.09,1.56,-5.66,0 c-1.56,-1.56,-1.56,-4.09,0,-5.66 c1.56,-1.56,4.09,-1.56,5.66,0 Z M593.83,475.17" fill="rgb(255,255,255)" stroke="rgb(0,0,0)" stroke-width="1" transform="matrix(0.8,0.0,0.0,-0.8,85.0,650.0)"/>
 <path d="M622,511 l-5,-16" fill="rgb(0,0,0)" stroke="rgb(0,0,0)" stroke-width="1" transform="matrix(0.8,0.0,0.0,-0.8,85.0,650.0)"/>
 <path d="M615,493 l4,0 l0,4 l-4,0 Z M615,493" fill="rgb(0,0,0)" stroke="rgb(0,0,0)" stroke-width="1" transform="matrix(0.8,0.0,0.0,-0.8,85.0,650.0)"/>
 <path d="M622,511 l2,7" fill="rgb(0,0,0)" stroke="rgb(0,0,0)" stroke-width="1" transform="matrix(0.8,0.0,0.0,-0.8,85.0,650.0)"/>
 <path d="M622,516 l4,0 l0,4 l-4,0 Z M622,516" fill="rgb(0,0,0)" stroke="rgb(0,0,0)" stroke-width="1" transform="matrix(0.8,0.0,0.0,-0.8,85.0,650.0)"/>
 <path d="M618,507 l8,0 l0,8 l-8,0 Z M618,507" fill="rgb(255,255,255)" stroke="rgb(0,0,0)" stroke-width="1" transform="matrix(0.8,0.0,0.0,-0.8,85.0,650.0)"/>
 <path d="M624,526 l0,-5" fill="rgb(0,0,0)" stroke="rgb(0,0,0)" stroke-width="1" transform="matrix(0.8,0.0,0.0,-0.8,85.0,650.0)"/>
 <path d="M622,519 l4,0 l0,4 l-4,0 Z M622,519" fill="rgb(0,0,0)" stroke="rgb(0,0,0)" stroke-width="1" transform="matrix(0.8,0.0,0.0,-0.8,85.0,650.0)"/>
 <path d="M624,526 l-96,9" fill="rgb(0,0,0)" stroke="rgb(0,0,0)" stroke-width="1" transform="matrix(0.8,0.0,0.0,-0.8,85.0,650.0)"/>
 <path d="M526,533 l4,0 l0,4 l-4,0 Z M526,533" fill="rgb(0,0,0)" stroke="rgb(0,0,0)" stroke-width="1" transform="matrix(0.8,0.0,0.0,-0.8,85.0,650.0)"/>
 <path d="M620,522 l8,0 l0,8 l-8,0 Z M620,522" fill="rgb(255,255,255)" stroke="rgb(0,0,0)" stroke-width="1" transform="matrix(0.8,0.0,0.0,-0.8,85.0,650.0)"/>
 <path d="M366,541 l88,0" fill="rgb(0,0,0)" stroke="rgb(0,0,0)" stroke-width="1" transform="matrix(0.8,0.0,0.0,-0.8,85.0,650.0)"/>
 <path d="M452,539 l4,0 l0,4 l-4,0 Z M452,539" fill="rgb(0,0,0)" stroke="rgb(0,0,0)" stroke-width="1" transform="matrix(0.8,0.0,0.0,-0.8,85.0,650.0)"/>
 <path d="M366,541 l-146,0" fill="rgb(0,0,0)" stroke="rgb(0,0,0)" stroke-width="1" transform="matrix(0.8,0.0,0.0,-0.8,85.0,650.0)"/>
 <path d="M218,539 l4,0 l0,4 l-4,0 Z M218,539" fill="rgb(0,0,0)" stroke="rgb(0,0,0)" stroke-width="1" transform="matrix(0.8,0.0,0.0,-0.8,85.0,650.0)"/>
 <path d="M368.83,538.17 c1.56,1.56,1.56,4.09,0,5.66 c-1.56,1.56,-4.09,1.56,-5.66,0 c-1.56,-1.56,-1.56,-4.09,0,-5.66 c1.56,-1.56,4.09,-1.56,5.66,0 Z M368.83,538.17" fill="rgb(255,255,255)" stroke="rgb(0,0,0)" stroke-width="1" transform="matrix(0.8,0.0,0.0,-0.8,85.0,650.0)"/>
 <path d="M105,372 l27,99" fill="rgb(0,0,0)" stroke="rgb(0,0,0)" stroke-width="1" transform="matrix(0.8,0.0,0.0,-0.8,85.0,650.0)"/>
 <path d="M130,469 l4,0 l0,4 l-4,0 Z M130,469" fill="rgb(0,0,0)" stroke="rgb(0,0,0)" stroke-width="1" transform="matrix(0.8,0.0,0.0,-0.8,85.0,650.0)"/>
 <path d="M107.83,369.17 c1.56,1.56,1.56,4.09,0,5.66 c-1.56,1.56,-4.09,1.56,-5.66,0 c-1.56,-1.56,-1.56,-4.09,0,-5.66 c1.56,-1.56,4.09,-1.56,5.66,0 Z M107.83,369.17" fill="rgb(255,255,255)" stroke="rgb(0,0,0)" stroke-width="1" transform="matrix(0.8,0.0,0.0,-0.8,85.0,650.0)"/>
 <path d="M102,361 l-28,-101" fill="rgb(0,0,0)" stroke="rgb(0,0,0)" stroke-width="1" transform="matrix(0.8,0.0,0.0,-0.8,85.0,650.0)"/>
 <path d="M72,258 l4,0 l0,4 l-4,0 Z M72,258" fill="rgb(0,0,0)" stroke="rgb(0,0,0)" stroke-width="1" transform="matrix(0.8,0.0,0.0,-0.8,85.0,650.0)"/>
 <path d="M104.83,358.17 c1.56,1.56,1.56,4.09,0,5.66 c-1.56,1.56,-4.09,1.56,-5.66,0 c-1.56,-1.56,-1.56,-4.09,0,-5.66 c1.56,-1.56,4.09,-1.56,5.66,0 Z M104.83,358.17" fill="rgb(255,255,255)" stroke="rgb(0,0,0)" stroke-width="1" transform="matrix(0.8,0.0,0.0,-0.8,85.0,650.0)"/>
 <path d="M281,161 l-135,0" fill="rgb(0,0,0)" stroke="rgb(0,0,0)" stroke-width="1" transform="matrix(0.8,0.0,0.0,-0.8,85.0,650.0)"/>
 <path d="M144,159 l4,0 l0,4 l-4,0 Z M144,159" fill="rgb(0,0,0)" stroke="rgb(0,0,0)" stroke-width="1" transform="matrix(0.8,0.0,0.0,-0.8,85.0,650.0)"/>
 <path d="M281,161 l132,0" fill="rgb(0,0,0)" stroke="rgb(0,0,0)" stroke-width="1" transform="matrix(0.8,0.0,0.0,-0.8,85.0,650.0)"/>
 <path d="M411,159 l4,0 l0,4 l-4,0 Z M411,159" fill="rgb(0,0,0)" stroke="rgb(0,0,0)" stroke-width="1" transform="matrix(0.8,0.0,0.0,-0.8,85.0,650.0)"/>
 <path d="M283.83,158.17 c1.56,1.56,1.56,4.09,0,5.66 c-1.56,1.56,-4.09,1.56,-5.66,0 c-1.56,-1.56,-1.56,-4.09,0,-5.66 c1.56,-1.56,4.09,-1.56,5.66,0 Z M283.83,158.17" fill="rgb(255,255,255)" stroke="rgb(0,0,0)" stroke-width="1" transform="matrix(0.8,0.0,0.0,-0.8,85.0,650.0)"/>
 <path d="M516,309 l-32,-106" fill="rgb(0,0,0)" stroke="rgb(0,0,0)" stroke-width="1" transform="matrix(0.8,0.0,0.0,-0.8,85.0,650.0)"/>
 <path d="M482,201 l4,0 l0,4 l-4,0 Z M482,201" fill="rgb(0,0,0)" stroke="rgb(0,0,0)" stroke-width="1" transform="matrix(0.8,0.0,0.0,-0.8,85.0,650.0)"/>
 <path d="M518.83,306.17 c1.56,1.56,1.56,4.09,0,5.66 c-1.56,1.56,-4.09,1.56,-5.66,0 c-1.56,-1.56,-1.56,-4.09,0,-5.66 c1.56,-1.56,4.09,-1.56,5.66,0 Z M518.83,306.17" fill="rgb(255,255,255)" stroke="rgb(0,0,0)" stroke-width="1" transform="matrix(0.8,0.0,0.0,-0.8,85.0,650.0)"/>
 <path d="M519,319 l21,68" fill="rgb(0,0,0)" stroke="rgb(0,0,0)" stroke-width="1" transform="matrix(0.8,0.0,0.0,-0.8,85.0,650.0)"/>
 <path d="M538,385 l4,0 l0,4 l-4,0 Z M538,385" fill="rgb(0,0,0)" stroke="rgb(0,0,0)" stroke-width="1" transform="matrix(0.8,0.0,0.0,-0.8,85.0,650.0)"/>
 <path d="M521.83,316.17 c1.56,1.56,1.56,4.09,0,5.66 c-1.56,1.56,-4.09,1.56,-5.66,0 c-1.56,-1.56,-1.56,-4.09,0,-5.66 c1.56,-1.56,4.09,-1.56,5.66,0 Z M521.83,316.17" fill="rgb(255,255,255)" stroke="rgb(0,0,0)" stroke-width="1" transform="matrix(0.8,0.0,0.0,-0.8,85.0,650.0)"/>
 <path d="M479,483 l45,-42" fill="rgb(0,0,0)" stroke="rgb(0,0,0)" stroke-width="1" transform="matrix(0.8,0.0,0.0,-0.8,85.0,650.0)"/>
 <path d="M522,439 l4,0 l0,4 l-4,0 Z M522,439" fill="rgb(0,0,0)" stroke="rgb(0,0,0)" stroke-width="1" transform="matrix(0.8,0.0,0.0,-0.8,85.0,650.0)"/>
 <path d="M475,479 l8,0 l0,8 l-8,0 Z M475,479" fill="rgb(255,255,255)" stroke="rgb(0,0,0)" stroke-width="1" transform="matrix(0.8,0.0,0.0,-0.8,85.0,650.0)"/>
 <path d="M481,496 l8,0 l0,8 l-8,0 Z M481,496" fill="rgb(255,255,255)" stroke="rgb(0,0,0)" stroke-width="1" transform="matrix(0.8,0.0,0.0,-0.8,85.0,650.0)"/>
 <text text-anchor="start" transform="matrix(1,0,0,1,14,-858)">
  <tspan fill="rgb(0,0,0)" font-family="RecursiveMonoLnr-Regular" font-size="14" x="0" y="885">
   g
  </tspan>
 </text>
 <text text-anchor="start" transform="matrix(1,0,0,1,14,-858)">
  <tspan fill="rgb(0,0,0)" font-family="RecursiveMonoLnr-Regular" font-size="14" x="588.4" y="885">
   0067
  </tspan>
 </text>
 <text text-anchor="start" transform="matrix(1,0,0,1,14,0)">
  <tspan fill="rgb(0,0,0)" font-family="RecursiveMonoLnr-Regular" font-size="14" x="285.8" y="885">
   600.00
  </tspan>
 </text>
 <text text-anchor="start" transform="matrix(1,0,0,1,14,0)">
  <tspan fill="rgb(0,0,0)" font-family="RecursiveMonoLnr-Regular" font-size="14" x="0" y="885">
   -38.72
  </tspan>
 </text>
 <text text-anchor="start" transform="matrix(1,0,0,1,14,0)">
  <tspan fill="rgb(0,0,0)" font-family="RecursiveMonoLnr-Regular" font-size="14" x="571.6" y="885">
   -24.00
  </tspan>
 </text>
</svg>