<?xml version="1.0" encoding="UTF-8"?>
<svg height="900" version="1.1" width="650" xmlns="http://www.w3.org/2000/svg" xmlns:xlink="http://www.w3.org/1999/xlink">
 <path d="M0,0 l650,0 l0,900 l-650,0 Z M0,0" fill="rgb(0,80,255)" transform="matrix(1,0,0,-1,0,900)"/>
 <path d="M85,50 l480,0 l0,800 l-480,0 Z M85,50" fill="rgb(0,80,255)" transform="matrix(1,0,0,-1,0,900)"/>
 <path d="M565,0 l0,900" fill="rgb(0,80,255)" stroke="rgb(255,255,255)" stroke-dasharray="2,2" stroke-opacity="0.25" stroke-width="1" transform="matrix(1,0,0,-1,0,900)"/>
 <path d="M85,0 l0,900" fill="rgb(0,80,255)" stroke="rgb(255,255,255)" stroke-dasharray="2,2" stroke-opacity="0.25" stroke-width="1" transform="matrix(1,0,0,-1,0,900)"/>
 <path d="M0,250 l650,0" fill="rgb(0,80,255)" stroke="rgb(255,255,255)" stroke-dasharray="2,2" stroke-opacity="0.25" stroke-width="1" transform="matrix(1,0,0,-1,0,900)"/>
 <path d="M0,50 l650,0" fill="rgb(0,80,255)" stroke="rgb(255,255,255)" stroke-dasharray="2,2" stroke-opacity="0.25" stroke-width="1" transform="matrix(1,0,0,-1,0,900)"/>
 <path d="M0,850 l650,0" fill="rgb(0,80,255)" stroke="rgb(255,255,255)" stroke-dasharray="2,2" stroke-opacity="0.25" stroke-width="1" transform="matrix(1,0,0,-1,0,900)"/>
 <path d="M0,810 l650,0" fill="rgb(0,80,255)" stroke="rgb(255,255,255)" stroke-dasharray="2,2" stroke-opacity="0.25" stroke-width="1" transform="matrix(1,0,0,-1,0,900)"/>
 <path d="M0,682 l650,0" fill="rgb(0,80,255)" stroke="rgb(255,255,255)" stroke-dasharray="2,2" stroke-opacity="0.25" stroke-width="1" transform="matrix(1,0,0,-1,0,900)"/>
 <path d="M540,0 c0,33,0,66,0,99 c0,100,0,198,0,295 c0,99,-56,158,-142,158 c-66,0,-121,-40,-158,-98 l-37,0 l0,-126 c37,52,102,79,145,79 c31,0,42,-14,42,-44 c0,-117,0,-235,0,-352 c0,-7,4,-11,11,-11 c50,0,89,0,139,0 Z M220,0 c0,176,0,353,0,529 c0,7,-4,11,-11,11 c-45,0,-84,0,-139,0 c0,-28,0,-62,0,-98 c0,-144,0,-287,0,-431 c0,-7,4,-11,11,-11 c50,0,89,0,139,0 Z M220,0" fill="rgb(255,255,255)" stroke="rgb(34,34,102)" stroke-linejoin="round" stroke-width="1" transform="matrix(0.8,0.0,0.0,-0.8,85.0,650.0)"/>
 <path d="M540,0 l-50,0" fill="rgb(0,0,0)" stroke="rgb(0,0,0)" stroke-width="1" transform="matrix(0.8,0.0,0.0,-0.8,85.0,650.0)"/>
 <path d="M488,-2 l4,0 l0,4 l-4,0 Z M488,-2" fill="rgb(0,0,0)" stroke="rgb(0,0,0)" stroke-width="1" transform="matrix(0.8,0.0,0.0,-0.8,85.0,650.0)"/>
 <path d="M540,0 l0,33" fill="rgb(0,0,0)" stroke="rgb(0,0,0)" stroke-width="1" transform="matrix(0.8,0.0,0.0,-0.8,85.0,650.0)"/>
 <path d="M538,31 l4,0 l0,4 l-4,0 Z M538,31" fill="rgb(0,0,0)" stroke="rgb(0,0,0)" stroke-width="1" transform="matrix(0.8,0.0,0.0,-0.8,85.0,650.0)"/>
 <path d="M536,-4 l8,0 l0,8 l-8,0 Z M536,-4" fill="rgb(255,255,255)" stroke="rgb(0,0,0)" stroke-width="1" transform="matrix(0.8,0.0,0.0,-0.8,85.0,650.0)"/>
 <path d="M540,99 l0,-33" fill="rgb(0,0,0)" stroke="rgb(0,0,0)" stroke-width="1" transform="matrix(0.8,0.0,0.0,-0.8,85.0,650.0)"/>
 <path d="M538,64 l4,0 l0,4 l-4,0 Z M538,64" fill="rgb(0,0,0)" stroke="rgb(0,0,0)" stroke-width="1" transform="matrix(0.8,0.0,0.0,-0.8,85.0,650.0)"/>
 <path d="M540,99 l0,100" fill="rgb(0,0,0)" stroke="rgb(0,0,0)" stroke-width="1" transform="matrix(0.8,0.0,0.0,-0.8,85.0,650.0)"/>
 <path d="M538,197 l4,0 l0,4 l-4,0 Z M538,197" fill="rgb(0,0,0)" stroke="rgb(0,0,0)" stroke-width="1" transform="matrix(0.8,0.0,0.0,-0.8,85.0,650.0)"/>
 <path d="M542.83,96.17 c1.56,1.56,1.56,4.09,0,5.66 c-1.56,1.56,-4.09,1.56,-5.66,0 c-1.56,-1.56,-1.56,-4.09,0,-5.66 c1.56,-1.56,4.09,-1.56,5.66,0 Z M542.83,96.17" fill="rgb(255,255,255)" stroke="rgb(0,0,0)" stroke-width="1" transform="matrix(0.8,0.0,0.0,-0.8,85.0,650.0)"/>
 <path d="M540,394 l0,-97" fill="rgb(0,0,0)" stroke="rgb(0,0,0)" stroke-width="1" transform="matrix(0.8,0.0,0.0,-0.8,85.0,650.0)"/>
 <path d="M538,295 l4,0 l0,4 l-4,0 Z M538,295" fill="rgb(0,0,0)" stroke="rgb(0,0,0)" stroke-width="1" transform="matrix(0.8,0.0,0.0,-0.8,85.0,650.0)"/>
 <path d="M540,394 l0,99" fill="rgb(0,0,0)" stroke="rgb(0,0,0)" stroke-width="1" transform="matrix(0.8,0.0,0.0,-0.8,85.0,650.0)"/>
 <path d="M538,491 l4,0 l0,4 l-4,0 Z M538,491" fill="rgb(0,0,0)" stroke="rgb(0,0,0)" stroke-width="1" transform="matrix(0.8,0.0,0.0,-0.8,85.0,650.0)"/>
 <path d="M542.83,391.17 c1.56,1.56,1.56,4.09,0,5.66 c-1.56,1.56,-4.09,1.56,-5.66,0 c-1.56,-1.56,-1.56,-4.09,0,-5.66 c1.56,-1.56,4.09,-1.56,5.66,0 Z M542.83,391.17" fill="rgb(255,255,255)" stroke="rgb(0,0,0)" stroke-width="1" transform="matrix(0.8,0.0,0.0,-0.8,85.0,650.0)"/>
 <path d="M398,552 l86,0" fill="rgb(0,0,0)" stroke="rgb(0,0,0)" stroke-width="1" transform="matrix(0.8,0.0,0.0,-0.8,85.0,650.0)"/>
 <path d="M482,550 l4,0 l0,4 l-4,0 Z M482,550" fill="rgb(0,0,0)" stroke="rgb(0,0,0)" stroke-width="1" transform="matrix(0.8,0.0,0.0,-0.8,85.0,650.0)"/>
 <path d="M398,552 l-66,0" fill="rgb(0,0,0)" stroke="rgb(0,0,0)" stroke-width="1" transform="matrix(0.8,0.0,0.0,-0.8,85.0,650.0)"/>
 <path d="M330,550 l4,0 l0,4 l-4,0 Z M330,550" fill="rgb(0,0,0)" stroke="rgb(0,0,0)" stroke-width="1" transform="matrix(0.8,0.0,0.0,-0.8,85.0,650.0)"/>
 <path d="M400.83,549.17 c1.56,1.56,1.56,4.09,0,5.66 c-1.56,1.56,-4.09,1.56,-5.66,0 c-1.56,-1.56,-1.56,-4.09,0,-5.66 c1.56,-1.56,4.09,-1.56,5.66,0 Z M400.83,549.17" fill="rgb(255,255,255)" stroke="rgb(0,0,0)" stroke-width="1" transform="matrix(0.8,0.0,0.0,-0.8,85.0,650.0)"/>
 <path d="M240,454 l37,58" fill="rgb(0,0,0)" stroke="rgb(0,0,0)" stroke-width="1" transform="matrix(0.8,0.0,0.0,-0.8,85.0,650.0)"/>
 <path d="M275,510 l4,0 l0,4 l-4,0 Z M275,510" fill="rgb(0,0,0)" stroke="rgb(0,0,0)" stroke-width="1" transform="matrix(0.8,0.0,0.0,-0.8,85.0,650.0)"/>
 <path d="M236,450 l8,0 l0,8 l-8,0 Z M236,450" fill="rgb(255,255,255)" stroke="rgb(0,0,0)" stroke-width="1" transform="matrix(0.8,0.0,0.0,-0.8,85.0,650.0)"/>
 <path d="M199,450 l8,0 l0,8 l-8,0 Z M199,450" fill="rgb(255,255,255)" stroke="rgb(0,0,0)" stroke-width="1" transform="matrix(0.8,0.0,0.0,-0.8,85.0,650.0)"/>
 <path d="M203,328 l37,52" fill="rgb(0,0,0)" stroke="rgb(0,0,0)" stroke-width="1" transform="matrix(0.8,0.0,0.0,-0.8,85.0,650.0)"/>
 <path d="M238,378 l4,0 l0,4 l-4,0 Z M238,378" fill="rgb(0,0,0)" stroke="rgb(0,0,0)" stroke-width="1" transform="matrix(0.8,0.0,0.0,-0.8,85.0,650.0)"/>
 <path d="M199,324 l8,0 l0,8 l-8,0 Z M199,324" fill="rgb(255,255,255)" stroke="rgb(0,0,0)" stroke-width="1" transform="matrix(0.8,0.0,0.0,-0.8,85.0,650.0)"/>
 <path d="M348,407 l-43,0" fill="rgb(0,0,0)" stroke="rgb(0,0,0)" stroke-width="1" transform="matrix(0.8,0.0,0.0,-0.8,85.0,650.0)"/>
 <path d="M303,405 l4,0 l0,4 l-4,0 Z M303,405" fill="rgb(0,0,0)" stroke="rgb(0,0,0)" stroke-width="1" transform="matrix(0.8,0.0,0.0,-0.8,85.0,650.0)"/>
 <path d="M348,407 l31,0" fill="rgb(0,0,0)" stroke="rgb(0,0,0)" stroke-width="1" transform="matrix(0.8,0.0,0.0,-0.8,85.0,650.0)"/>
 <path d="M377,405 l4,0 l0,4 l-4,0 Z M377,405" fill="rgb(0,0,0)" stroke="rgb(0,0,0)" stroke-width="1" transform="matrix(0.8,0.0,0.0,-0.8,85.0,650.0)"/>
 <path d="M350.83,404.17 c1.56,1.56,1.56,4.09,0,5.66 c-1.56,1.56,-4.09,1.56,-5.66,0 c-1.56,-1.56,-1.56,-4.09,0,-5.66 c1.56,-1.56,4.09,-1.56,5.66,0 Z M350.83,404.17" fill="rgb(255,255,255)" stroke="rgb(0,0,0)" stroke-width="1" transform="matrix(0.8,0.0,0.0,-0.8,85.0,650.0)"/>
 <path d="M390,363 l0,30" fill="rgb(0,0,0)" stroke="rgb(0,0,0)" stroke-width="1" transform="matrix(0.8,0.0,0.0,-0.8,85.0,650.0)"/>
 <path d="M388,391 l4,0 l0,4 l-4,0 Z M388,391" fill="rgb(0,0,0)" stroke="rgb(0,0,0)" stroke-width="1" transform="matrix(0.8,0.0,0.0,-0.8,85.0,650.0)"/>
 <path d="M390,363 l0,-117" fill="rgb(0,0,0)" stroke="rgb(0,0,0)" stroke-width="1" transform="matrix(0.8,0.0,0.0,-0.8,85.0,650.0)"/>
 <path d="M388,244 l4,0 l0,4 l-4,0 Z M388,244" fill="rgb(0,0,0)" stroke="rgb(0,0,0)" stroke-width="1" transform="matrix(0.8,0.0,0.0,-0.8,85.0,650.0)"/>
 <path d="M386,359 l8,0 l0,8 l-8,0 Z M386,359" fill="rgb(255,255,255)" stroke="rgb(0,0,0)" stroke-width="1" transform="matrix(0.8,0.0,0.0,-0.8,85.0,650.0)"/>
 <path d="M390,11 l0,117" fill="rgb(0,0,0)" stroke="rgb(0,0,0)" stroke-width="1" transform="matrix(0.8,0.0,0.0,-0.8,85.0,650.0)"/>
 <path d="M388,126 l4,0 l0,4 l-4,0 Z M388,126" fill="rgb(0,0,0)" stroke="rgb(0,0,0)" stroke-width="1" transform="matrix(0.8,0.0,0.0,-0.8,85.0,650.0)"/>
 <path d="M390,11 l0,-7" fill="rgb(0,0,0)" stroke="rgb(0,0,0)" stroke-width="1" transform="matrix(0.8,0.0,0.0,-0.8,85.0,650.0)"/>
 <path d="M388,2 l4,0 l0,4 l-4,0 Z M388,2" fill="rgb(0,0,0)" stroke="rgb(0,0,0)" stroke-width="1" transform="matrix(0.8,0.0,0.0,-0.8,85.0,650.0)"/>
 <path d="M392.83,8.17 c1.56,1.56,1.56,4.09,0,5.66 c-1.56,1.56,-4.09,1.56,-5.66,0 c-1.56,-1.56,-1.56,-4.09,0,-5.66 c1.56,-1.56,4.09,-1.56,5.66,-0.0 Z M392.83,8.17" fill="rgb(255,255,255)" stroke="rgb(0,0,0)" stroke-width="1" transform="matrix(0.8,0.0,0.0,-0.8,85.0,650.0)"/>
 <path d="M401,0 l-7,0" fill="rgb(0,0,0)" stroke="rgb(0,0,0)" stroke-width="1" transform="matrix(0.8,0.0,0.0,-0.8,85.0,650.0)"/>
 <path d="M392,-2 l4,0 l0,4 l-4,0 Z M392,-2" fill="rgb(0,0,0)" stroke="rgb(0,0,0)" stroke-width="1" transform="matrix(0.8,0.0,0.0,-0.8,85.0,650.0)"/>
 <path d="M401,0 l50,0" fill="rgb(0,0,0)" stroke="rgb(0,0,0)" stroke-width="1" transform="matrix(0.8,0.0,0.0,-0.8,85.0,650.0)"/>
 <path d="M449,-2 l4,0 l0,4 l-4,0 Z M449,-2" fill="rgb(0,0,0)" stroke="rgb(0,0,0)" stroke-width="1" transform="matrix(0.8,0.0,0.0,-0.8,85.0,650.0)"/>
 <path d="M397,-4 l8,0 l0,8 l-8,0 Z M397,-4" fill="rgb(255,255,255)" stroke="rgb(0,0,0)" stroke-width="1" transform="matrix(0.8,0.0,0.0,-0.8,85.0,650.0)"/>
 <path d="M220,0 l-50,0" fill="rgb(0,0,0)" stroke="rgb(0,0,0)" stroke-width="1" transform="matrix(0.8,0.0,0.0,-0.8,85.0,650.0)"/>
 <path d="M168,-2 l4,0 l0,4 l-4,0 Z M168,-2" fill="rgb(0,0,0)" stroke="rgb(0,0,0)" stroke-width="1" transform="matrix(0.8,0.0,0.0,-0.8,85.0,650.0)"/>
 <path d="M220,0 l0,176" fill="rgb(0,0,0)" stroke="rgb(0,0,0)" stroke-width="1" transform="matrix(0.8,0.0,0.0,-0.8,85.0,650.0)"/>
 <path d="M218,174 l4,0 l0,4 l-4,0 Z M218,174" fill="rgb(0,0,0)" stroke="rgb(0,0,0)" stroke-width="1" transform="matrix(0.8,0.0,0.0,-0.8,85.0,650.0)"/>
 <path d="M216,-4 l8,0 l0,8 l-8,0 Z M216,-4" fill="rgb(255,255,255)" stroke="rgb(0,0,0)" stroke-width="1" transform="matrix(0.8,0.0,0.0,-0.8,85.0,650.0)"/>
 <path d="M220,529 l0,-176" fill="rgb(0,0,0)" stroke="rgb(0,0,0)" stroke-width="1" transform="matrix(0.8,0.0,0.0,-0.8,85.0,650.0)"/>
 <path d="M218,351 l4,0 l0,4 l-4,0 Z M218,351" fill="rgb(0,0,0)" stroke="rgb(0,0,0)" stroke-width="1" transform="matrix(0.8,0.0,0.0,-0.8,85.0,650.0)"/>
 <path d="M220,529 l0,7" fill="rgb(0,0,0)" stroke="rgb(0,0,0)" stroke-width="1" transform="matrix(0.8,0.0,0.0,-0.8,85.0,650.0)"/>
 <path d="M218,534 l4,0 l0,4 l-4,0 Z M218,534" fill="rgb(0,0,0)" stroke="rgb(0,0,0)" stroke-width="1" transform="matrix(0.8,0.0,0.0,-0.8,85.0,650.0)"/>
 <path d="M216,525 l8,0 l0,8 l-8,0 Z M216,525" fill="rgb(255,255,255)" stroke="rgb(0,0,0)" stroke-width="1" transform="matrix(0.8,0.0,0.0,-0.8,85.0,650.0)"/>
 <path d="M209,540 l7,0" fill="rgb(0,0,0)" stroke="rgb(0,0,0)" stroke-width="1" transform="matrix(0.8,0.0,0.0,-0.8,85.0,650.0)"/>
 <path d="M214,538 l4,0 l0,4 l-4,0 Z M214,538" fill="rgb(0,0,0)" stroke="rgb(0,0,0)" stroke-width="1" transform="matrix(0.8,0.0,0.0,-0.8,85.0,650.0)"/>
 <path d="M209,540 l-45,0" fill="rgb(0,0,0)" stroke="rgb(0,0,0)" stroke-width="1" transform="matrix(0.8,0.0,0.0,-0.8,85.0,650.0)"/>
 <path d="M162,538 l4,0 l0,4 l-4,0 Z M162,538" fill="rgb(0,0,0)" stroke="rgb(0,0,0)" stroke-width="1" transform="matrix(0.8,0.0,0.0,-0.8,85.0,650.0)"/>
 <path d="M205,536 l8,0 l0,8 l-8,0 Z M205,536" fill="rgb(255,255,255)" stroke="rgb(0,0,0)" stroke-width="1" transform="matrix(0.8,0.0,0.0,-0.8,85.0,650.0)"/>
 <path d="M70,540 l55,0" fill="rgb(0,0,0)" stroke="rgb(0,0,0)" stroke-width="1" transform="matrix(0.8,0.0,0.0,-0.8,85.0,650.0)"/>
 <path d="M123,538 l4,0 l0,4 l-4,0 Z M123,538" fill="rgb(0,0,0)" stroke="rgb(0,0,0)" stroke-width="1" transform="matrix(0.8,0.0,0.0,-0.8,85.0,650.0)"/>
 <path d="M70,540 l0,-28" fill="rgb(0,0,0)" stroke="rgb(0,0,0)" stroke-width="1" transform="matrix(0.8,0.0,0.0,-0.8,85.0,650.0)"/>
 <path d="M68,510 l4,0 l0,4 l-4,0 Z M68,510" fill="rgb(0,0,0)" stroke="rgb(0,0,0)" stroke-width="1" transform="matrix(0.8,0.0,0.0,-0.8,85.0,650.0)"/>
 <path d="M66,536 l8,0 l0,8 l-8,0 Z M66,536" fill="rgb(255,255,255)" stroke="rgb(0,0,0)" stroke-width="1" transform="matrix(0.8,0.0,0.0,-0.8,85.0,650.0)"/>
 <path d="M70,442 l0,36" fill="rgb(0,0,0)" stroke="rgb(0,0,0)" stroke-width="1" transform="matrix(0.8,0.0,0.0,-0.8,85.0,650.0)"/>
 <path d="M68,476 l4,0 l0,4 l-4,0 Z M68,476" fill="rgb(0,0,0)" stroke="rgb(0,0,0)" stroke-width="1" transform="matrix(0.8,0.0,0.0,-0.8,85.0,650.0)"/>
 <path d="M70,442 l0,-144" fill="rgb(0,0,0)" stroke="rgb(0,0,0)" stroke-width="1" transform="matrix(0.8,0.0,0.0,-0.8,85.0,650.0)"/>
 <path d="M68,296 l4,0 l0,4 l-4,0 Z M68,296" fill="rgb(0,0,0)" stroke="rgb(0,0,0)" stroke-width="1" transform="matrix(0.8,0.0,0.0,-0.8,85.0,650.0)"/>
 <path d="M66,438 l8,0 l0,8 l-8,0 Z M66,438" fill="rgb(255,255,255)" stroke="rgb(0,0,0)" stroke-width="1" transform="matrix(0.8,0.0,0.0,-0.8,85.0,650.0)"/>
 <path d="M70,11 l0,144" fill="rgb(0,0,0)" stroke="rgb(0,0,0)" stroke-width="1" transform="matrix(0.8,0.0,0.0,-0.8,85.0,650.0)"/>
 <path d="M68,153 l4,0 l0,4 l-4,0 Z M68,153" fill="rgb(0,0,0)" stroke="rgb(0,0,0)" stroke-width="1" transform="matrix(0.8,0.0,0.0,-0.8,85.0,650.0)"/>
 <path d="M70,11 l0,-7" fill="rgb(0,0,0)" stroke="rgb(0,0,0)" stroke-width="1" transform="matrix(0.8,0.0,0.0,-0.8,85.0,650.0)"/>
 <path d="M68,2 l4,0 l0,4 l-4,0 Z M68,2" fill="rgb(0,0,0)" stroke="rgb(0,0,0)" stroke-width="1" transform="matrix(0.8,0.0,0.0,-0.8,85.0,650.0)"/>
 <path d="M66,7 l8,0 l0,8 l-8,0 Z M66,7" fill="rgb(255,255,255)" stroke="rgb(0,0,0)" stroke-width="1" transform="matrix(0.8,0.0,0.0,-0.8,85.0,650.0)"/>
 <path d="M81,0 l-7,0" fill="rgb(0,0,0)" stroke="rgb(0,0,0)" stroke-width="1" transform="matrix(0.8,0.0,0.0,-0.8,85.0,650.0)"/>
 <path d="M72,-2 l4,0 l0,4 l-4,0 Z M72,-2" fill="rgb(0,0,0)" stroke="rgb(0,0,0)" stroke-width="1" transform="matrix(0.8,0.0,0.0,-0.8,85.0,650.0)"/>
 <path d="M81,0 l50,0" fill="rgb(0,0,0)" stroke="rgb(0,0,0)" stroke-width="1" transform="matrix(0.8,0.0,0.0,-0.8,85.0,650.0)"/>
 <path d="M129,-2 l4,0 l0,4 l-4,0 Z M129,-2" fill="rgb(0,0,0)" stroke="rgb(0,0,0)" stroke-width="1" transform="matrix(0.8,0.0,0.0,-0.8,85.0,650.0)"/>
 <path d="M77,-4 l8,0 l0,8 l-8,0 Z M77,-4" fill="rgb(255,255,255)" stroke="rgb(0,0,0)" stroke-width="1" transform="matrix(0.8,0.0,0.0,-0.8,85.0,650.0)"/>
 <text text-anchor="start" transform="matrix(1,0,0,1,14,-858)">
  <tspan fill="rgb(0,0,0)" font-family="RecursiveMonoLnr-Regular" font-size="14" x="0" y="885">
   n
  </tspan>
 </text>
 <text text-anchor="start" transform="matrix(1,0,0,1,14,-858)">
  <tspan fill="rgb(0,0,0)" font-family="RecursiveMonoLnr-Regular" font-size="14" x="588.4" y="885">
   006E
  </tspan>
 </text>
 <text text-anchor="start" transform="matrix(1,0,0,1,14,0)">
  <tspan fill="rgb(0,0,0)" font-family="RecursiveMonoLnr-Regular" font-size="14" x="285.8" y="885">
   600.00
  </tspan>
 </text>
 <text text-anchor="start" transform="matrix(1,0,0,1,14,0)">
  <tspan fill="rgb(0,0,0)" font-family="RecursiveMonoLnr-Regular" font-size="14" x="0" y="885">
   70.00
  </tspan>
 </text>
 <text text-anchor="start" transform="matrix(1,0,0,1,14,0)">
  <tspan fill="rgb(0,0,0)" font-family="RecursiveMonoLnr-Regular" font-size="14" x="580" y="885">
   60.00
  </tspan>
 </text>
</svg>