<?xml version="1.0" encoding="UTF-8"?>
<svg height="900" version="1.1" width="650" xmlns="http://www.w3.org/2000/svg" xmlns:xlink="http://www.w3.org/1999/xlink">
 <path d="M0,0 l650,0 l0,900 l-650,0 Z M0,0" fill="rgb(0,80,255)" transform="matrix(1,0,0,-1,0,900)"/>
 <path d="M85,50 l480,0 l0,800 l-480,0 Z M85,50" fill="rgb(0,80,255)" transform="matrix(1,0,0,-1,0,900)"/>
 <path d="M565,0 l0,900" fill="rgb(0,80,255)" stroke="rgb(255,255,255)" stroke-dasharray="2,2" stroke-opacity="0.25" stroke-width="1" transform="matrix(1,0,0,-1,0,900)"/>
 <path d="M85,0 l0,900" fill="rgb(0,80,255)" stroke="rgb(255,255,255)" stroke-dasharray="2,2" stroke-opacity="0.25" stroke-width="1" transform="matrix(1,0,0,-1,0,900)"/>
 <path d="M0,250 l650,0" fill="rgb(0,80,255)" stroke="rgb(255,255,255)" stroke-dasharray="2,2" stroke-opacity="0.25" stroke-width="1" transform="matrix(1,0,0,-1,0,900)"/>
 <path d="M0,690 l650,0" fill="rgb(0,80,255)" stroke="rgb(255,255,255)" stroke-dasharray="2,2" stroke-opacity="0.25" stroke-width="1" transform="matrix(1,0,0,-1,0,900)"/>
 <path d="M0,50 l650,0" fill="rgb(0,80,255)" stroke="rgb(255,255,255)" stroke-dasharray="2,2" stroke-opacity="0.25" stroke-width="1" transform="matrix(1,0,0,-1,0,900)"/>
 <path d="M0,850 l650,0" fill="rgb(0,80,255)" stroke="rgb(255,255,255)" stroke-dasharray="2,2" stroke-opacity="0.25" stroke-width="1" transform="matrix(1,0,0,-1,0,900)"/>
 <path d="M0,810 l650,0" fill="rgb(0,80,255)" stroke="rgb(255,255,255)" stroke-dasharray="2,2" stroke-opacity="0.25" stroke-width="1" transform="matrix(1,0,0,-1,0,900)"/>
 <path d="M570,0 c0,66,0,133,0,199 c0,7,-4,11,-11,11 l-88,0 c-70,0,-166,0,-251,0 l45,-17 l0,76 l-59,-56 c82,14,133,36,224,127 c42,42,86,87,135,140 l0,209 c0,7,-4,11,-11,11 l-524,0 c0,-107,86,-200,186,-200 l25,0 c64,0,110,0,197,0 l-76,8 l0,-77 l36,58 c-73,-11,-124,-57,-174,-101 c-61,-54,-127,-115,-194,-179 l0,-198 c0,-7,4,-11,11,-11 Z M225,445 c0,20.46,0,44,0,64 c0,106,-87,191,-195,191 c0,-78,0,-167,0,-245 c0,-6,5,-10,11,-10 c61,0,123,0,184,0 Z M225,445" fill="rgb(255,255,255)" stroke="rgb(34,34,102)" stroke-linejoin="round" stroke-width="1" transform="matrix(0.8,0.0,0.0,-0.8,85.0,650.0)"/>
 <path d="M570,0 l0,66" fill="rgb(0,0,0)" stroke="rgb(0,0,0)" stroke-width="1" transform="matrix(0.8,0.0,0.0,-0.8,85.0,650.0)"/>
 <path d="M568,64 l4,0 l0,4 l-4,0 Z M568,64" fill="rgb(0,0,0)" stroke="rgb(0,0,0)" stroke-width="1" transform="matrix(0.8,0.0,0.0,-0.8,85.0,650.0)"/>
 <path d="M566,-4 l8,0 l0,8 l-8,0 Z M566,-4" fill="rgb(255,255,255)" stroke="rgb(0,0,0)" stroke-width="1" transform="matrix(0.8,0.0,0.0,-0.8,85.0,650.0)"/>
 <path d="M570,199 l0,-66" fill="rgb(0,0,0)" stroke="rgb(0,0,0)" stroke-width="1" transform="matrix(0.8,0.0,0.0,-0.8,85.0,650.0)"/>
 <path d="M568,131 l4,0 l0,4 l-4,0 Z M568,131" fill="rgb(0,0,0)" stroke="rgb(0,0,0)" stroke-width="1" transform="matrix(0.8,0.0,0.0,-0.8,85.0,650.0)"/>
 <path d="M570,199 l0,7" fill="rgb(0,0,0)" stroke="rgb(0,0,0)" stroke-width="1" transform="matrix(0.8,0.0,0.0,-0.8,85.0,650.0)"/>
 <path d="M568,204 l4,0 l0,4 l-4,0 Z M568,204" fill="rgb(0,0,0)" stroke="rgb(0,0,0)" stroke-width="1" transform="matrix(0.8,0.0,0.0,-0.8,85.0,650.0)"/>
 <path d="M572.83,196.17 c1.56,1.56,1.56,4.09,0,5.66 c-1.56,1.56,-4.09,1.56,-5.66,0 c-1.56,-1.56,-1.56,-4.09,0,-5.66 c1.56,-1.56,4.09,-1.56,5.66,0 Z M572.83,196.17" fill="rgb(255,255,255)" stroke="rgb(0,0,0)" stroke-width="1" transform="matrix(0.8,0.0,0.0,-0.8,85.0,650.0)"/>
 <path d="M559,210 l7,0" fill="rgb(0,0,0)" stroke="rgb(0,0,0)" stroke-width="1" transform="matrix(0.8,0.0,0.0,-0.8,85.0,650.0)"/>
 <path d="M564,208 l4,0 l0,4 l-4,0 Z M564,208" fill="rgb(0,0,0)" stroke="rgb(0,0,0)" stroke-width="1" transform="matrix(0.8,0.0,0.0,-0.8,85.0,650.0)"/>
 <path d="M561.83,207.17 c1.56,1.56,1.56,4.09,0,5.66 c-1.56,1.56,-4.09,1.56,-5.66,0 c-1.56,-1.56,-1.56,-4.09,0,-5.66 c1.56,-1.56,4.09,-1.56,5.66,0 Z M561.83,207.17" fill="rgb(255,255,255)" stroke="rgb(0,0,0)" stroke-width="1" transform="matrix(0.8,0.0,0.0,-0.8,85.0,650.0)"/>
 <path d="M471,210 l-70,0" fill="rgb(0,0,0)" stroke="rgb(0,0,0)" stroke-width="1" transform="matrix(0.8,0.0,0.0,-0.8,85.0,650.0)"/>
 <path d="M399,208 l4,0 l0,4 l-4,0 Z M399,208" fill="rgb(0,0,0)" stroke="rgb(0,0,0)" stroke-width="1" transform="matrix(0.8,0.0,0.0,-0.8,85.0,650.0)"/>
 <path d="M467,206 l8,0 l0,8 l-8,0 Z M467,206" fill="rgb(255,255,255)" stroke="rgb(0,0,0)" stroke-width="1" transform="matrix(0.8,0.0,0.0,-0.8,85.0,650.0)"/>
 <path d="M220,210 l85,0" fill="rgb(0,0,0)" stroke="rgb(0,0,0)" stroke-width="1" transform="matrix(0.8,0.0,0.0,-0.8,85.0,650.0)"/>
 <path d="M303,208 l4,0 l0,4 l-4,0 Z M303,208" fill="rgb(0,0,0)" stroke="rgb(0,0,0)" stroke-width="1" transform="matrix(0.8,0.0,0.0,-0.8,85.0,650.0)"/>
 <path d="M216,206 l8,0 l0,8 l-8,0 Z M216,206" fill="rgb(255,255,255)" stroke="rgb(0,0,0)" stroke-width="1" transform="matrix(0.8,0.0,0.0,-0.8,85.0,650.0)"/>
 <path d="M261,189 l8,0 l0,8 l-8,0 Z M261,189" fill="rgb(255,255,255)" stroke="rgb(0,0,0)" stroke-width="1" transform="matrix(0.8,0.0,0.0,-0.8,85.0,650.0)"/>
 <path d="M261,265 l8,0 l0,8 l-8,0 Z M261,265" fill="rgb(255,255,255)" stroke="rgb(0,0,0)" stroke-width="1" transform="matrix(0.8,0.0,0.0,-0.8,85.0,650.0)"/>
 <path d="M206,213 l82,14" fill="rgb(0,0,0)" stroke="rgb(0,0,0)" stroke-width="1" transform="matrix(0.8,0.0,0.0,-0.8,85.0,650.0)"/>
 <path d="M286,225 l4,0 l0,4 l-4,0 Z M286,225" fill="rgb(0,0,0)" stroke="rgb(0,0,0)" stroke-width="1" transform="matrix(0.8,0.0,0.0,-0.8,85.0,650.0)"/>
 <path d="M202,209 l8,0 l0,8 l-8,0 Z M202,209" fill="rgb(255,255,255)" stroke="rgb(0,0,0)" stroke-width="1" transform="matrix(0.8,0.0,0.0,-0.8,85.0,650.0)"/>
 <path d="M430,340 l-91,-91" fill="rgb(0,0,0)" stroke="rgb(0,0,0)" stroke-width="1" transform="matrix(0.8,0.0,0.0,-0.8,85.0,650.0)"/>
 <path d="M337,247 l4,0 l0,4 l-4,0 Z M337,247" fill="rgb(0,0,0)" stroke="rgb(0,0,0)" stroke-width="1" transform="matrix(0.8,0.0,0.0,-0.8,85.0,650.0)"/>
 <path d="M430,340 l42,42" fill="rgb(0,0,0)" stroke="rgb(0,0,0)" stroke-width="1" transform="matrix(0.8,0.0,0.0,-0.8,85.0,650.0)"/>
 <path d="M470,380 l4,0 l0,4 l-4,0 Z M470,380" fill="rgb(0,0,0)" stroke="rgb(0,0,0)" stroke-width="1" transform="matrix(0.8,0.0,0.0,-0.8,85.0,650.0)"/>
 <path d="M432.83,337.17 c1.56,1.56,1.56,4.09,0,5.66 c-1.56,1.56,-4.09,1.56,-5.66,0 c-1.56,-1.56,-1.56,-4.09,0,-5.66 c1.56,-1.56,4.09,-1.56,5.66,0 Z M432.83,337.17" fill="rgb(255,255,255)" stroke="rgb(0,0,0)" stroke-width="1" transform="matrix(0.8,0.0,0.0,-0.8,85.0,650.0)"/>
 <path d="M565,480 l-49,-53" fill="rgb(0,0,0)" stroke="rgb(0,0,0)" stroke-width="1" transform="matrix(0.8,0.0,0.0,-0.8,85.0,650.0)"/>
 <path d="M514,425 l4,0 l0,4 l-4,0 Z M514,425" fill="rgb(0,0,0)" stroke="rgb(0,0,0)" stroke-width="1" transform="matrix(0.8,0.0,0.0,-0.8,85.0,650.0)"/>
 <path d="M561,476 l8,0 l0,8 l-8,0 Z M561,476" fill="rgb(255,255,255)" stroke="rgb(0,0,0)" stroke-width="1" transform="matrix(0.8,0.0,0.0,-0.8,85.0,650.0)"/>
 <path d="M565,689 l0,7" fill="rgb(0,0,0)" stroke="rgb(0,0,0)" stroke-width="1" transform="matrix(0.8,0.0,0.0,-0.8,85.0,650.0)"/>
 <path d="M563,694 l4,0 l0,4 l-4,0 Z M563,694" fill="rgb(0,0,0)" stroke="rgb(0,0,0)" stroke-width="1" transform="matrix(0.8,0.0,0.0,-0.8,85.0,650.0)"/>
 <path d="M567.83,686.17 c1.56,1.56,1.56,4.09,0,5.66 c-1.56,1.56,-4.09,1.56,-5.66,0 c-1.56,-1.56,-1.56,-4.09,0,-5.66 c1.56,-1.56,4.09,-1.56,5.66,0 Z M567.83,686.17" fill="rgb(255,255,255)" stroke="rgb(0,0,0)" stroke-width="1" transform="matrix(0.8,0.0,0.0,-0.8,85.0,650.0)"/>
 <path d="M554,700 l7,0" fill="rgb(0,0,0)" stroke="rgb(0,0,0)" stroke-width="1" transform="matrix(0.8,0.0,0.0,-0.8,85.0,650.0)"/>
 <path d="M559,698 l4,0 l0,4 l-4,0 Z M559,698" fill="rgb(0,0,0)" stroke="rgb(0,0,0)" stroke-width="1" transform="matrix(0.8,0.0,0.0,-0.8,85.0,650.0)"/>
 <path d="M556.83,697.17 c1.56,1.56,1.56,4.09,0,5.66 c-1.56,1.56,-4.09,1.56,-5.66,0 c-1.56,-1.56,-1.56,-4.09,0,-5.66 c1.56,-1.56,4.09,-1.56,5.66,0 Z M556.83,697.17" fill="rgb(255,255,255)" stroke="rgb(0,0,0)" stroke-width="1" transform="matrix(0.8,0.0,0.0,-0.8,85.0,650.0)"/>
 <path d="M30,700 l0,-107" fill="rgb(0,0,0)" stroke="rgb(0,0,0)" stroke-width="1" transform="matrix(0.8,0.0,0.0,-0.8,85.0,650.0)"/>
 <path d="M28,591 l4,0 l0,4 l-4,0 Z M28,591" fill="rgb(0,0,0)" stroke="rgb(0,0,0)" stroke-width="1" transform="matrix(0.8,0.0,0.0,-0.8,85.0,650.0)"/>
 <path d="M26,696 l8,0 l0,8 l-8,0 Z M26,696" fill="rgb(255,255,255)" stroke="rgb(0,0,0)" stroke-width="1" transform="matrix(0.8,0.0,0.0,-0.8,85.0,650.0)"/>
 <path d="M216,500 l-100,0" fill="rgb(0,0,0)" stroke="rgb(0,0,0)" stroke-width="1" transform="matrix(0.8,0.0,0.0,-0.8,85.0,650.0)"/>
 <path d="M114,498 l4,0 l0,4 l-4,0 Z M114,498" fill="rgb(0,0,0)" stroke="rgb(0,0,0)" stroke-width="1" transform="matrix(0.8,0.0,0.0,-0.8,85.0,650.0)"/>
 <path d="M212,496 l8,0 l0,8 l-8,0 Z M212,496" fill="rgb(255,255,255)" stroke="rgb(0,0,0)" stroke-width="1" transform="matrix(0.8,0.0,0.0,-0.8,85.0,650.0)"/>
 <path d="M241,500 l64,0" fill="rgb(0,0,0)" stroke="rgb(0,0,0)" stroke-width="1" transform="matrix(0.8,0.0,0.0,-0.8,85.0,650.0)"/>
 <path d="M303,498 l4,0 l0,4 l-4,0 Z M303,498" fill="rgb(0,0,0)" stroke="rgb(0,0,0)" stroke-width="1" transform="matrix(0.8,0.0,0.0,-0.8,85.0,650.0)"/>
 <path d="M237,496 l8,0 l0,8 l-8,0 Z M237,496" fill="rgb(255,255,255)" stroke="rgb(0,0,0)" stroke-width="1" transform="matrix(0.8,0.0,0.0,-0.8,85.0,650.0)"/>
 <path d="M438,500 l-87,0" fill="rgb(0,0,0)" stroke="rgb(0,0,0)" stroke-width="1" transform="matrix(0.8,0.0,0.0,-0.8,85.0,650.0)"/>
 <path d="M349,498 l4,0 l0,4 l-4,0 Z M349,498" fill="rgb(0,0,0)" stroke="rgb(0,0,0)" stroke-width="1" transform="matrix(0.8,0.0,0.0,-0.8,85.0,650.0)"/>
 <path d="M434,496 l8,0 l0,8 l-8,0 Z M434,496" fill="rgb(255,255,255)" stroke="rgb(0,0,0)" stroke-width="1" transform="matrix(0.8,0.0,0.0,-0.8,85.0,650.0)"/>
 <path d="M358,504 l8,0 l0,8 l-8,0 Z M358,504" fill="rgb(255,255,255)" stroke="rgb(0,0,0)" stroke-width="1" transform="matrix(0.8,0.0,0.0,-0.8,85.0,650.0)"/>
 <path d="M358,427 l8,0 l0,8 l-8,0 Z M358,427" fill="rgb(255,255,255)" stroke="rgb(0,0,0)" stroke-width="1" transform="matrix(0.8,0.0,0.0,-0.8,85.0,650.0)"/>
 <path d="M398,489 l-73,-11" fill="rgb(0,0,0)" stroke="rgb(0,0,0)" stroke-width="1" transform="matrix(0.8,0.0,0.0,-0.8,85.0,650.0)"/>
 <path d="M323,476 l4,0 l0,4 l-4,0 Z M323,476" fill="rgb(0,0,0)" stroke="rgb(0,0,0)" stroke-width="1" transform="matrix(0.8,0.0,0.0,-0.8,85.0,650.0)"/>
 <path d="M394,485 l8,0 l0,8 l-8,0 Z M394,485" fill="rgb(255,255,255)" stroke="rgb(0,0,0)" stroke-width="1" transform="matrix(0.8,0.0,0.0,-0.8,85.0,650.0)"/>
 <path d="M224,388 l50,44" fill="rgb(0,0,0)" stroke="rgb(0,0,0)" stroke-width="1" transform="matrix(0.8,0.0,0.0,-0.8,85.0,650.0)"/>
 <path d="M272,430 l4,0 l0,4 l-4,0 Z M272,430" fill="rgb(0,0,0)" stroke="rgb(0,0,0)" stroke-width="1" transform="matrix(0.8,0.0,0.0,-0.8,85.0,650.0)"/>
 <path d="M224,388 l-61,-54" fill="rgb(0,0,0)" stroke="rgb(0,0,0)" stroke-width="1" transform="matrix(0.8,0.0,0.0,-0.8,85.0,650.0)"/>
 <path d="M161,332 l4,0 l0,4 l-4,0 Z M161,332" fill="rgb(0,0,0)" stroke="rgb(0,0,0)" stroke-width="1" transform="matrix(0.8,0.0,0.0,-0.8,85.0,650.0)"/>
 <path d="M226.83,385.17 c1.56,1.56,1.56,4.09,0,5.66 c-1.56,1.56,-4.09,1.56,-5.66,0 c-1.56,-1.56,-1.56,-4.09,0,-5.66 c1.56,-1.56,4.09,-1.56,5.66,0 Z M226.83,385.17" fill="rgb(255,255,255)" stroke="rgb(0,0,0)" stroke-width="1" transform="matrix(0.8,0.0,0.0,-0.8,85.0,650.0)"/>
 <path d="M30,209 l67,64" fill="rgb(0,0,0)" stroke="rgb(0,0,0)" stroke-width="1" transform="matrix(0.8,0.0,0.0,-0.8,85.0,650.0)"/>
 <path d="M95,271 l4,0 l0,4 l-4,0 Z M95,271" fill="rgb(0,0,0)" stroke="rgb(0,0,0)" stroke-width="1" transform="matrix(0.8,0.0,0.0,-0.8,85.0,650.0)"/>
 <path d="M26,205 l8,0 l0,8 l-8,0 Z M26,205" fill="rgb(255,255,255)" stroke="rgb(0,0,0)" stroke-width="1" transform="matrix(0.8,0.0,0.0,-0.8,85.0,650.0)"/>
 <path d="M30,11 l0,-7" fill="rgb(0,0,0)" stroke="rgb(0,0,0)" stroke-width="1" transform="matrix(0.8,0.0,0.0,-0.8,85.0,650.0)"/>
 <path d="M28,2 l4,0 l0,4 l-4,0 Z M28,2" fill="rgb(0,0,0)" stroke="rgb(0,0,0)" stroke-width="1" transform="matrix(0.8,0.0,0.0,-0.8,85.0,650.0)"/>
 <path d="M32.83,8.17 c1.56,1.56,1.56,4.09,0,5.66 c-1.56,1.56,-4.09,1.56,-5.66,0 c-1.56,-1.56,-1.56,-4.09,0,-5.66 c1.56,-1.56,4.09,-1.56,5.66,-0.0 Z M32.83,8.17" fill="rgb(255,255,255)" stroke="rgb(0,0,0)" stroke-width="1" transform="matrix(0.8,0.0,0.0,-0.8,85.0,650.0)"/>
 <path d="M41,0 l-7,0" fill="rgb(0,0,0)" stroke="rgb(0,0,0)" stroke-width="1" transform="matrix(0.8,0.0,0.0,-0.8,85.0,650.0)"/>
 <path d="M32,-2 l4,0 l0,4 l-4,0 Z M32,-2" fill="rgb(0,0,0)" stroke="rgb(0,0,0)" stroke-width="1" transform="matrix(0.8,0.0,0.0,-0.8,85.0,650.0)"/>
 <path d="M43.83,-2.83 c1.56,1.56,1.56,4.09,0,5.66 c-1.56,1.56,-4.09,1.56,-5.66,0.0 c-1.56,-1.56,-1.56,-4.09,0,-5.66 c1.56,-1.56,4.09,-1.56,5.66,-0.0 Z M43.83,-2.83" fill="rgb(255,255,255)" stroke="rgb(0,0,0)" stroke-width="1" transform="matrix(0.8,0.0,0.0,-0.8,85.0,650.0)"/>
 <path d="M225,445 l-61,0" fill="rgb(0,0,0)" stroke="rgb(0,0,0)" stroke-width="1" transform="matrix(0.8,0.0,0.0,-0.8,85.0,650.0)"/>
 <path d="M162,443 l4,0 l0,4 l-4,0 Z M162,443" fill="rgb(0,0,0)" stroke="rgb(0,0,0)" stroke-width="1" transform="matrix(0.8,0.0,0.0,-0.8,85.0,650.0)"/>
 <path d="M225,445 l0,20.46" fill="rgb(0,0,0)" stroke="rgb(0,0,0)" stroke-width="1" transform="matrix(0.8,0.0,0.0,-0.8,85.0,650.0)"/>
 <path d="M223,463.46 l4,0 l0,4 l-4,0 Z M223,463.46" fill="rgb(0,0,0)" stroke="rgb(0,0,0)" stroke-width="1" transform="matrix(0.8,0.0,0.0,-0.8,85.0,650.0)"/>
 <path d="M221,441 l8,0 l0,8 l-8,0 Z M221,441" fill="rgb(255,255,255)" stroke="rgb(0,0,0)" stroke-width="1" transform="matrix(0.8,0.0,0.0,-0.8,85.0,650.0)"/>
 <path d="M225,509 l0,-20" fill="rgb(0,0,0)" stroke="rgb(0,0,0)" stroke-width="1" transform="matrix(0.8,0.0,0.0,-0.8,85.0,650.0)"/>
 <path d="M223,487 l4,0 l0,4 l-4,0 Z M223,487" fill="rgb(0,0,0)" stroke="rgb(0,0,0)" stroke-width="1" transform="matrix(0.8,0.0,0.0,-0.8,85.0,650.0)"/>
 <path d="M225,509 l0,106" fill="rgb(0,0,0)" stroke="rgb(0,0,0)" stroke-width="1" transform="matrix(0.8,0.0,0.0,-0.8,85.0,650.0)"/>
 <path d="M223,613 l4,0 l0,4 l-4,0 Z M223,613" fill="rgb(0,0,0)" stroke="rgb(0,0,0)" stroke-width="1" transform="matrix(0.8,0.0,0.0,-0.8,85.0,650.0)"/>
 <path d="M221,505 l8,0 l0,8 l-8,0 Z M221,505" fill="rgb(255,255,255)" stroke="rgb(0,0,0)" stroke-width="1" transform="matrix(0.8,0.0,0.0,-0.8,85.0,650.0)"/>
 <path d="M30,700 l108,0" fill="rgb(0,0,0)" stroke="rgb(0,0,0)" stroke-width="1" transform="matrix(0.8,0.0,0.0,-0.8,85.0,650.0)"/>
 <path d="M136,698 l4,0 l0,4 l-4,0 Z M136,698" fill="rgb(0,0,0)" stroke="rgb(0,0,0)" stroke-width="1" transform="matrix(0.8,0.0,0.0,-0.8,85.0,650.0)"/>
 <path d="M30,700 l0,-78" fill="rgb(0,0,0)" stroke="rgb(0,0,0)" stroke-width="1" transform="matrix(0.8,0.0,0.0,-0.8,85.0,650.0)"/>
 <path d="M28,620 l4,0 l0,4 l-4,0 Z M28,620" fill="rgb(0,0,0)" stroke="rgb(0,0,0)" stroke-width="1" transform="matrix(0.8,0.0,0.0,-0.8,85.0,650.0)"/>
 <path d="M26,696 l8,0 l0,8 l-8,0 Z M26,696" fill="rgb(255,255,255)" stroke="rgb(0,0,0)" stroke-width="1" transform="matrix(0.8,0.0,0.0,-0.8,85.0,650.0)"/>
 <path d="M30,455 l0,78" fill="rgb(0,0,0)" stroke="rgb(0,0,0)" stroke-width="1" transform="matrix(0.8,0.0,0.0,-0.8,85.0,650.0)"/>
 <path d="M28,531 l4,0 l0,4 l-4,0 Z M28,531" fill="rgb(0,0,0)" stroke="rgb(0,0,0)" stroke-width="1" transform="matrix(0.8,0.0,0.0,-0.8,85.0,650.0)"/>
 <path d="M30,455 l0,-6" fill="rgb(0,0,0)" stroke="rgb(0,0,0)" stroke-width="1" transform="matrix(0.8,0.0,0.0,-0.8,85.0,650.0)"/>
 <path d="M28,447 l4,0 l0,4 l-4,0 Z M28,447" fill="rgb(0,0,0)" stroke="rgb(0,0,0)" stroke-width="1" transform="matrix(0.8,0.0,0.0,-0.8,85.0,650.0)"/>
 <path d="M32.83,452.17 c1.56,1.56,1.56,4.09,0,5.66 c-1.56,1.56,-4.09,1.56,-5.66,0 c-1.56,-1.56,-1.56,-4.09,0,-5.66 c1.56,-1.56,4.09,-1.56,5.66,0 Z M32.83,452.17" fill="rgb(255,255,255)" stroke="rgb(0,0,0)" stroke-width="1" transform="matrix(0.8,0.0,0.0,-0.8,85.0,650.0)"/>
 <path d="M41,445 l-6,0" fill="rgb(0,0,0)" stroke="rgb(0,0,0)" stroke-width="1" transform="matrix(0.8,0.0,0.0,-0.8,85.0,650.0)"/>
 <path d="M33,443 l4,0 l0,4 l-4,0 Z M33,443" fill="rgb(0,0,0)" stroke="rgb(0,0,0)" stroke-width="1" transform="matrix(0.8,0.0,0.0,-0.8,85.0,650.0)"/>
 <path d="M41,445 l61,0" fill="rgb(0,0,0)" stroke="rgb(0,0,0)" stroke-width="1" transform="matrix(0.8,0.0,0.0,-0.8,85.0,650.0)"/>
 <path d="M100,443 l4,0 l0,4 l-4,0 Z M100,443" fill="rgb(0,0,0)" stroke="rgb(0,0,0)" stroke-width="1" transform="matrix(0.8,0.0,0.0,-0.8,85.0,650.0)"/>
 <path d="M43.83,442.17 c1.56,1.56,1.56,4.09,0,5.66 c-1.56,1.56,-4.09,1.56,-5.66,0 c-1.56,-1.56,-1.56,-4.09,0,-5.66 c1.56,-1.56,4.09,-1.56,5.66,0 Z M43.83,442.17" fill="rgb(255,255,255)" stroke="rgb(0,0,0)" stroke-width="1" transform="matrix(0.8,0.0,0.0,-0.8,85.0,650.0)"/>
 <text text-anchor="start" transform="matrix(1,0,0,1,14,-858)">
  <tspan fill="rgb(0,0,0)" font-family="RecursiveMonoLnr-Regular" font-size="14" x="0" y="885">
   Z
  </tspan>
 </text>
 <text text-anchor="start" transform="matrix(1,0,0,1,14,-858)">
  <tspan fill="rgb(0,0,0)" font-family="RecursiveMonoLnr-Regular" font-size="14" x="588.4" y="885">
   005A
  </tspan>
 </text>
 <text text-anchor="start" transform="matrix(1,0,0,1,14,0)">
  <tspan fill="rgb(0,0,0)" font-family="RecursiveMonoLnr-Regular" font-size="14" x="285.8" y="885">
   600.00
  </tspan>
 </text>
 <text text-anchor="start" transform="matrix(1,0,0,1,14,0)">
  <tspan fill="rgb(0,0,0)" font-family="RecursiveMonoLnr-Regular" font-size="14" x="0" y="885">
   30.00
  </tspan>
 </text>
 <text text-anchor="start" transform="matrix(1,0,0,1,14,0)">
  <tspan fill="rgb(0,0,0)" font-family="RecursiveMonoLnr-Regular" font-size="14" x="580" y="885">
   30.00
  </tspan>
 </text>
</svg>