<?xml version="1.0" encoding="UTF-8"?>
<svg height="900" version="1.1" width="650" xmlns="http://www.w3.org/2000/svg" xmlns:xlink="http://www.w3.org/1999/xlink">
 <path d="M0,0 l650,0 l0,900 l-650,0 Z M0,0" fill="rgb(0,80,255)" transform="matrix(1,0,0,-1,0,900)"/>
 <path d="M85,50 l480,0 l0,800 l-480,0 Z M85,50" fill="rgb(0,80,255)" transform="matrix(1,0,0,-1,0,900)"/>
 <path d="M565,0 l0,900" fill="rgb(0,80,255)" stroke="rgb(255,255,255)" stroke-dasharray="2,2" stroke-opacity="0.25" stroke-width="1" transform="matrix(1,0,0,-1,0,900)"/>
 <path d="M85,0 l0,900" fill="rgb(0,80,255)" stroke="rgb(255,255,255)" stroke-dasharray="2,2" stroke-opacity="0.25" stroke-width="1" transform="matrix(1,0,0,-1,0,900)"/>
 <path d="M0,250 l650,0" fill="rgb(0,80,255)" stroke="rgb(255,255,255)" stroke-dasharray="2,2" stroke-opacity="0.25" stroke-width="1" transform="matrix(1,0,0,-1,0,900)"/>
 <path d="M0,50 l650,0" fill="rgb(0,80,255)" stroke="rgb(255,255,255)" stroke-dasharray="2,2" stroke-opacity="0.25" stroke-width="1" transform="matrix(1,0,0,-1,0,900)"/>
 <path d="M0,850 l650,0" fill="rgb(0,80,255)" stroke="rgb(255,255,255)" stroke-dasharray="2,2" stroke-opacity="0.25" stroke-width="1" transform="matrix(1,0,0,-1,0,900)"/>
 <path d="M0,670.8 l650,0" fill="rgb(0,80,255)" stroke="rgb(255,255,255)" stroke-dasharray="2,2" stroke-opacity="0.25" stroke-width="1" transform="matrix(1,0,0,-1,0,900)"/>
 <path d="M0,810 l650,0" fill="rgb(0,80,255)" stroke="rgb(255,255,255)" stroke-dasharray="2,2" stroke-opacity="0.25" stroke-width="1" transform="matrix(1,0,0,-1,0,900)"/>
 <path d="M202,79 c0,-37,28,-83,93,-86 l99,-5 c66,-3,96,-47,96,-93 l0,-2 c0,-22,-5,-48,-14,-62 c-50,-24,-116,-34,-171,-34 l-17,0 c-125,0,-178,39,-178,88 l0,5 c0,61,45,108,140,121 l-38,39 l0,-16 c-86,-6,-152,-71,-152,-148 l0,-4 c0,-65,63,-132,217,-132 l13,0 c206,0,250,86,250,159 l0,3 c0,62,-44,120,-137,126 l-101,7 c-38,3,-50,14,-50,37 c0,30,15,70,49,93 l-63,0 l0,-16 c-20,-19,-36,-51,-36,-80 Z M338,499 c99,-35,121,-110,121,-151 l0,-4 c0,-90,-66,-134,-164,-134 c-46,0,-81,7,-118,22 c-34,37,-42,79,-42,105 l0,4 c0,103,66,153,177,153 c140,0,191,-16,226,-16 c17,0,22,17,22,38 c0,3,0,7,0,10 c-92,9,-162,15,-246,15 c-141,0,-229,-75,-229,-189 l0,-4 c0,-119,84,-189,212,-187 c120,0,212,70,212,177 l0,4 c0,69,-35,117,-77,141 l0,24 Z M338,499" fill="rgb(255,255,255)" stroke="rgb(34,34,102)" stroke-linejoin="round" stroke-width="1" transform="matrix(0.8,0.0,0.0,-0.8,85.0,650.0)"/>
 <path d="M202,79 l0,29" fill="rgb(0,0,0)" stroke="rgb(0,0,0)" stroke-width="1" transform="matrix(0.8,0.0,0.0,-0.8,85.0,650.0)"/>
 <path d="M200,106 l4,0 l0,4 l-4,0 Z M200,106" fill="rgb(0,0,0)" stroke="rgb(0,0,0)" stroke-width="1" transform="matrix(0.8,0.0,0.0,-0.8,85.0,650.0)"/>
 <path d="M202,79 l0,-37" fill="rgb(0,0,0)" stroke="rgb(0,0,0)" stroke-width="1" transform="matrix(0.8,0.0,0.0,-0.8,85.0,650.0)"/>
 <path d="M200,40 l4,0 l0,4 l-4,0 Z M200,40" fill="rgb(0,0,0)" stroke="rgb(0,0,0)" stroke-width="1" transform="matrix(0.8,0.0,0.0,-0.8,85.0,650.0)"/>
 <path d="M204.83,76.17 c1.56,1.56,1.56,4.09,0,5.66 c-1.56,1.56,-4.09,1.56,-5.66,0 c-1.56,-1.56,-1.56,-4.09,0,-5.66 c1.56,-1.56,4.09,-1.56,5.66,0 Z M204.83,76.17" fill="rgb(255,255,255)" stroke="rgb(0,0,0)" stroke-width="1" transform="matrix(0.8,0.0,0.0,-0.8,85.0,650.0)"/>
 <path d="M295,-7 l-65,3" fill="rgb(0,0,0)" stroke="rgb(0,0,0)" stroke-width="1" transform="matrix(0.8,0.0,0.0,-0.8,85.0,650.0)"/>
 <path d="M228,-6 l4,0 l0,4 l-4,0 Z M228,-6" fill="rgb(0,0,0)" stroke="rgb(0,0,0)" stroke-width="1" transform="matrix(0.8,0.0,0.0,-0.8,85.0,650.0)"/>
 <path d="M297.83,-9.83 c1.56,1.56,1.56,4.09,0,5.66 c-1.56,1.56,-4.09,1.56,-5.66,0 c-1.56,-1.56,-1.56,-4.09,0,-5.66 c1.56,-1.56,4.09,-1.56,5.66,-0.0 Z M297.83,-9.83" fill="rgb(255,255,255)" stroke="rgb(0,0,0)" stroke-width="1" transform="matrix(0.8,0.0,0.0,-0.8,85.0,650.0)"/>
 <path d="M394,-12 l66,-3" fill="rgb(0,0,0)" stroke="rgb(0,0,0)" stroke-width="1" transform="matrix(0.8,0.0,0.0,-0.8,85.0,650.0)"/>
 <path d="M458,-17 l4,0 l0,4 l-4,0 Z M458,-17" fill="rgb(0,0,0)" stroke="rgb(0,0,0)" stroke-width="1" transform="matrix(0.8,0.0,0.0,-0.8,85.0,650.0)"/>
 <path d="M396.83,-14.83 c1.56,1.56,1.56,4.09,0,5.66 c-1.56,1.56,-4.09,1.56,-5.66,0 c-1.56,-1.56,-1.56,-4.09,0,-5.66 c1.56,-1.56,4.09,-1.56,5.66,-0.0 Z M396.83,-14.83" fill="rgb(255,255,255)" stroke="rgb(0,0,0)" stroke-width="1" transform="matrix(0.8,0.0,0.0,-0.8,85.0,650.0)"/>
 <path d="M490,-105 l0,46" fill="rgb(0,0,0)" stroke="rgb(0,0,0)" stroke-width="1" transform="matrix(0.8,0.0,0.0,-0.8,85.0,650.0)"/>
 <path d="M488,-61 l4,0 l0,4 l-4,0 Z M488,-61" fill="rgb(0,0,0)" stroke="rgb(0,0,0)" stroke-width="1" transform="matrix(0.8,0.0,0.0,-0.8,85.0,650.0)"/>
 <path d="M492.83,-107.83 c1.56,1.56,1.56,4.09,0,5.66 c-1.56,1.56,-4.09,1.56,-5.66,0 c-1.56,-1.56,-1.56,-4.09,0,-5.66 c1.56,-1.56,4.09,-1.56,5.66,0 Z M492.83,-107.83" fill="rgb(255,255,255)" stroke="rgb(0,0,0)" stroke-width="1" transform="matrix(0.8,0.0,0.0,-0.8,85.0,650.0)"/>
 <path d="M490,-107 l0,-22" fill="rgb(0,0,0)" stroke="rgb(0,0,0)" stroke-width="1" transform="matrix(0.8,0.0,0.0,-0.8,85.0,650.0)"/>
 <path d="M488,-131 l4,0 l0,4 l-4,0 Z M488,-131" fill="rgb(0,0,0)" stroke="rgb(0,0,0)" stroke-width="1" transform="matrix(0.8,0.0,0.0,-0.8,85.0,650.0)"/>
 <path d="M492.83,-109.83 c1.56,1.56,1.56,4.09,0,5.66 c-1.56,1.56,-4.09,1.56,-5.66,0 c-1.56,-1.56,-1.56,-4.09,0,-5.66 c1.56,-1.56,4.09,-1.56,5.66,0 Z M492.83,-109.83" fill="rgb(255,255,255)" stroke="rgb(0,0,0)" stroke-width="1" transform="matrix(0.8,0.0,0.0,-0.8,85.0,650.0)"/>
 <path d="M476,-169 l9,14" fill="rgb(0,0,0)" stroke="rgb(0,0,0)" stroke-width="1" transform="matrix(0.8,0.0,0.0,-0.8,85.0,650.0)"/>
 <path d="M483,-157 l4,0 l0,4 l-4,0 Z M483,-157" fill="rgb(0,0,0)" stroke="rgb(0,0,0)" stroke-width="1" transform="matrix(0.8,0.0,0.0,-0.8,85.0,650.0)"/>
 <path d="M476,-169 l-50,-24" fill="rgb(0,0,0)" stroke="rgb(0,0,0)" stroke-width="1" transform="matrix(0.8,0.0,0.0,-0.8,85.0,650.0)"/>
 <path d="M424,-195 l4,0 l0,4 l-4,0 Z M424,-195" fill="rgb(0,0,0)" stroke="rgb(0,0,0)" stroke-width="1" transform="matrix(0.8,0.0,0.0,-0.8,85.0,650.0)"/>
 <path d="M472,-173 l8,0 l0,8 l-8,0 Z M472,-173" fill="rgb(255,255,255)" stroke="rgb(0,0,0)" stroke-width="1" transform="matrix(0.8,0.0,0.0,-0.8,85.0,650.0)"/>
 <path d="M305,-203 l55,0" fill="rgb(0,0,0)" stroke="rgb(0,0,0)" stroke-width="1" transform="matrix(0.8,0.0,0.0,-0.8,85.0,650.0)"/>
 <path d="M358,-205 l4,0 l0,4 l-4,0 Z M358,-205" fill="rgb(0,0,0)" stroke="rgb(0,0,0)" stroke-width="1" transform="matrix(0.8,0.0,0.0,-0.8,85.0,650.0)"/>
 <path d="M307.83,-205.83 c1.56,1.56,1.56,4.09,0,5.66 c-1.56,1.56,-4.09,1.56,-5.66,0 c-1.56,-1.56,-1.56,-4.09,0,-5.66 c1.56,-1.56,4.09,-1.56,5.66,0 Z M307.83,-205.83" fill="rgb(255,255,255)" stroke="rgb(0,0,0)" stroke-width="1" transform="matrix(0.8,0.0,0.0,-0.8,85.0,650.0)"/>
 <path d="M288,-203 l-125,0" fill="rgb(0,0,0)" stroke="rgb(0,0,0)" stroke-width="1" transform="matrix(0.8,0.0,0.0,-0.8,85.0,650.0)"/>
 <path d="M161,-205 l4,0 l0,4 l-4,0 Z M161,-205" fill="rgb(0,0,0)" stroke="rgb(0,0,0)" stroke-width="1" transform="matrix(0.8,0.0,0.0,-0.8,85.0,650.0)"/>
 <path d="M290.83,-205.83 c1.56,1.56,1.56,4.09,0,5.66 c-1.56,1.56,-4.09,1.56,-5.66,0 c-1.56,-1.56,-1.56,-4.09,0,-5.66 c1.56,-1.56,4.09,-1.56,5.66,0 Z M290.83,-205.83" fill="rgb(255,255,255)" stroke="rgb(0,0,0)" stroke-width="1" transform="matrix(0.8,0.0,0.0,-0.8,85.0,650.0)"/>
 <path d="M110,-115 l0,-49" fill="rgb(0,0,0)" stroke="rgb(0,0,0)" stroke-width="1" transform="matrix(0.8,0.0,0.0,-0.8,85.0,650.0)"/>
 <path d="M108,-166 l4,0 l0,4 l-4,0 Z M108,-166" fill="rgb(0,0,0)" stroke="rgb(0,0,0)" stroke-width="1" transform="matrix(0.8,0.0,0.0,-0.8,85.0,650.0)"/>
 <path d="M112.83,-117.83 c1.56,1.56,1.56,4.09,0,5.66 c-1.56,1.56,-4.09,1.56,-5.66,0 c-1.56,-1.56,-1.56,-4.09,0,-5.66 c1.56,-1.56,4.09,-1.56,5.66,0 Z M112.83,-117.83" fill="rgb(255,255,255)" stroke="rgb(0,0,0)" stroke-width="1" transform="matrix(0.8,0.0,0.0,-0.8,85.0,650.0)"/>
 <path d="M110,-110 l0,61" fill="rgb(0,0,0)" stroke="rgb(0,0,0)" stroke-width="1" transform="matrix(0.8,0.0,0.0,-0.8,85.0,650.0)"/>
 <path d="M108,-51 l4,0 l0,4 l-4,0 Z M108,-51" fill="rgb(0,0,0)" stroke="rgb(0,0,0)" stroke-width="1" transform="matrix(0.8,0.0,0.0,-0.8,85.0,650.0)"/>
 <path d="M112.83,-112.83 c1.56,1.56,1.56,4.09,0,5.66 c-1.56,1.56,-4.09,1.56,-5.66,0 c-1.56,-1.56,-1.56,-4.09,0,-5.66 c1.56,-1.56,4.09,-1.56,5.66,0 Z M112.83,-112.83" fill="rgb(255,255,255)" stroke="rgb(0,0,0)" stroke-width="1" transform="matrix(0.8,0.0,0.0,-0.8,85.0,650.0)"/>
 <path d="M250,11 l-95,-13" fill="rgb(0,0,0)" stroke="rgb(0,0,0)" stroke-width="1" transform="matrix(0.8,0.0,0.0,-0.8,85.0,650.0)"/>
 <path d="M153,-4 l4,0 l0,4 l-4,0 Z M153,-4" fill="rgb(0,0,0)" stroke="rgb(0,0,0)" stroke-width="1" transform="matrix(0.8,0.0,0.0,-0.8,85.0,650.0)"/>
 <path d="M246,7 l8,0 l0,8 l-8,0 Z M246,7" fill="rgb(255,255,255)" stroke="rgb(0,0,0)" stroke-width="1" transform="matrix(0.8,0.0,0.0,-0.8,85.0,650.0)"/>
 <path d="M208,46 l8,0 l0,8 l-8,0 Z M208,46" fill="rgb(255,255,255)" stroke="rgb(0,0,0)" stroke-width="1" transform="matrix(0.8,0.0,0.0,-0.8,85.0,650.0)"/>
 <path d="M212,34 l-86,-6" fill="rgb(0,0,0)" stroke="rgb(0,0,0)" stroke-width="1" transform="matrix(0.8,0.0,0.0,-0.8,85.0,650.0)"/>
 <path d="M124,26 l4,0 l0,4 l-4,0 Z M124,26" fill="rgb(0,0,0)" stroke="rgb(0,0,0)" stroke-width="1" transform="matrix(0.8,0.0,0.0,-0.8,85.0,650.0)"/>
 <path d="M208,30 l8,0 l0,8 l-8,0 Z M208,30" fill="rgb(255,255,255)" stroke="rgb(0,0,0)" stroke-width="1" transform="matrix(0.8,0.0,0.0,-0.8,85.0,650.0)"/>
 <path d="M60,-114 l0,77" fill="rgb(0,0,0)" stroke="rgb(0,0,0)" stroke-width="1" transform="matrix(0.8,0.0,0.0,-0.8,85.0,650.0)"/>
 <path d="M58,-39 l4,0 l0,4 l-4,0 Z M58,-39" fill="rgb(0,0,0)" stroke="rgb(0,0,0)" stroke-width="1" transform="matrix(0.8,0.0,0.0,-0.8,85.0,650.0)"/>
 <path d="M62.83,-116.83 c1.56,1.56,1.56,4.09,0,5.66 c-1.56,1.56,-4.09,1.56,-5.66,0 c-1.56,-1.56,-1.56,-4.09,0,-5.66 c1.56,-1.56,4.09,-1.56,5.66,0 Z M62.83,-116.83" fill="rgb(255,255,255)" stroke="rgb(0,0,0)" stroke-width="1" transform="matrix(0.8,0.0,0.0,-0.8,85.0,650.0)"/>
 <path d="M60,-118 l0,-65" fill="rgb(0,0,0)" stroke="rgb(0,0,0)" stroke-width="1" transform="matrix(0.8,0.0,0.0,-0.8,85.0,650.0)"/>
 <path d="M58,-185 l4,0 l0,4 l-4,0 Z M58,-185" fill="rgb(0,0,0)" stroke="rgb(0,0,0)" stroke-width="1" transform="matrix(0.8,0.0,0.0,-0.8,85.0,650.0)"/>
 <path d="M62.83,-120.83 c1.56,1.56,1.56,4.09,0,5.66 c-1.56,1.56,-4.09,1.56,-5.66,0 c-1.56,-1.56,-1.56,-4.09,0,-5.66 c1.56,-1.56,4.09,-1.56,5.66,0 Z M62.83,-120.83" fill="rgb(255,255,255)" stroke="rgb(0,0,0)" stroke-width="1" transform="matrix(0.8,0.0,0.0,-0.8,85.0,650.0)"/>
 <path d="M277,-250 l-154,0" fill="rgb(0,0,0)" stroke="rgb(0,0,0)" stroke-width="1" transform="matrix(0.8,0.0,0.0,-0.8,85.0,650.0)"/>
 <path d="M121,-252 l4,0 l0,4 l-4,0 Z M121,-252" fill="rgb(0,0,0)" stroke="rgb(0,0,0)" stroke-width="1" transform="matrix(0.8,0.0,0.0,-0.8,85.0,650.0)"/>
 <path d="M279.83,-252.83 c1.56,1.56,1.56,4.09,0,5.66 c-1.56,1.56,-4.09,1.56,-5.66,0 c-1.56,-1.56,-1.56,-4.09,0,-5.66 c1.56,-1.56,4.09,-1.56,5.66,0 Z M279.83,-252.83" fill="rgb(255,255,255)" stroke="rgb(0,0,0)" stroke-width="1" transform="matrix(0.8,0.0,0.0,-0.8,85.0,650.0)"/>
 <path d="M290,-250 l206,0" fill="rgb(0,0,0)" stroke="rgb(0,0,0)" stroke-width="1" transform="matrix(0.8,0.0,0.0,-0.8,85.0,650.0)"/>
 <path d="M494,-252 l4,0 l0,4 l-4,0 Z M494,-252" fill="rgb(0,0,0)" stroke="rgb(0,0,0)" stroke-width="1" transform="matrix(0.8,0.0,0.0,-0.8,85.0,650.0)"/>
 <path d="M292.83,-252.83 c1.56,1.56,1.56,4.09,0,5.66 c-1.56,1.56,-4.09,1.56,-5.66,0 c-1.56,-1.56,-1.56,-4.09,0,-5.66 c1.56,-1.56,4.09,-1.56,5.66,0 Z M292.83,-252.83" fill="rgb(255,255,255)" stroke="rgb(0,0,0)" stroke-width="1" transform="matrix(0.8,0.0,0.0,-0.8,85.0,650.0)"/>
 <path d="M540,-91 l0,-73" fill="rgb(0,0,0)" stroke="rgb(0,0,0)" stroke-width="1" transform="matrix(0.8,0.0,0.0,-0.8,85.0,650.0)"/>
 <path d="M538,-166 l4,0 l0,4 l-4,0 Z M538,-166" fill="rgb(0,0,0)" stroke="rgb(0,0,0)" stroke-width="1" transform="matrix(0.8,0.0,0.0,-0.8,85.0,650.0)"/>
 <path d="M542.83,-93.83 c1.56,1.56,1.56,4.09,0,5.66 c-1.56,1.56,-4.09,1.56,-5.66,0 c-1.56,-1.56,-1.56,-4.09,0,-5.66 c1.56,-1.56,4.09,-1.56,5.66,0 Z M542.83,-93.83" fill="rgb(255,255,255)" stroke="rgb(0,0,0)" stroke-width="1" transform="matrix(0.8,0.0,0.0,-0.8,85.0,650.0)"/>
 <path d="M540,-88 l0,62" fill="rgb(0,0,0)" stroke="rgb(0,0,0)" stroke-width="1" transform="matrix(0.8,0.0,0.0,-0.8,85.0,650.0)"/>
 <path d="M538,-28 l4,0 l0,4 l-4,0 Z M538,-28" fill="rgb(0,0,0)" stroke="rgb(0,0,0)" stroke-width="1" transform="matrix(0.8,0.0,0.0,-0.8,85.0,650.0)"/>
 <path d="M542.83,-90.83 c1.56,1.56,1.56,4.09,0,5.66 c-1.56,1.56,-4.09,1.56,-5.66,0 c-1.56,-1.56,-1.56,-4.09,0,-5.66 c1.56,-1.56,4.09,-1.56,5.66,0 Z M542.83,-90.83" fill="rgb(255,255,255)" stroke="rgb(0,0,0)" stroke-width="1" transform="matrix(0.8,0.0,0.0,-0.8,85.0,650.0)"/>
 <path d="M403,38 l93,-6" fill="rgb(0,0,0)" stroke="rgb(0,0,0)" stroke-width="1" transform="matrix(0.8,0.0,0.0,-0.8,85.0,650.0)"/>
 <path d="M494,30 l4,0 l0,4 l-4,0 Z M494,30" fill="rgb(0,0,0)" stroke="rgb(0,0,0)" stroke-width="1" transform="matrix(0.8,0.0,0.0,-0.8,85.0,650.0)"/>
 <path d="M405.83,35.17 c1.56,1.56,1.56,4.09,0,5.66 c-1.56,1.56,-4.09,1.56,-5.66,0 c-1.56,-1.56,-1.56,-4.09,0,-5.66 c1.56,-1.56,4.09,-1.56,5.66,0 Z M405.83,35.17" fill="rgb(255,255,255)" stroke="rgb(0,0,0)" stroke-width="1" transform="matrix(0.8,0.0,0.0,-0.8,85.0,650.0)"/>
 <path d="M302,45 l-38,3" fill="rgb(0,0,0)" stroke="rgb(0,0,0)" stroke-width="1" transform="matrix(0.8,0.0,0.0,-0.8,85.0,650.0)"/>
 <path d="M262,46 l4,0 l0,4 l-4,0 Z M262,46" fill="rgb(0,0,0)" stroke="rgb(0,0,0)" stroke-width="1" transform="matrix(0.8,0.0,0.0,-0.8,85.0,650.0)"/>
 <path d="M304.83,42.17 c1.56,1.56,1.56,4.09,0,5.66 c-1.56,1.56,-4.09,1.56,-5.66,0 c-1.56,-1.56,-1.56,-4.09,0,-5.66 c1.56,-1.56,4.09,-1.56,5.66,0 Z M304.83,42.17" fill="rgb(255,255,255)" stroke="rgb(0,0,0)" stroke-width="1" transform="matrix(0.8,0.0,0.0,-0.8,85.0,650.0)"/>
 <path d="M252,82 l0,-23" fill="rgb(0,0,0)" stroke="rgb(0,0,0)" stroke-width="1" transform="matrix(0.8,0.0,0.0,-0.8,85.0,650.0)"/>
 <path d="M250,57 l4,0 l0,4 l-4,0 Z M250,57" fill="rgb(0,0,0)" stroke="rgb(0,0,0)" stroke-width="1" transform="matrix(0.8,0.0,0.0,-0.8,85.0,650.0)"/>
 <path d="M252,82 l0,30" fill="rgb(0,0,0)" stroke="rgb(0,0,0)" stroke-width="1" transform="matrix(0.8,0.0,0.0,-0.8,85.0,650.0)"/>
 <path d="M250,110 l4,0 l0,4 l-4,0 Z M250,110" fill="rgb(0,0,0)" stroke="rgb(0,0,0)" stroke-width="1" transform="matrix(0.8,0.0,0.0,-0.8,85.0,650.0)"/>
 <path d="M254.83,79.17 c1.56,1.56,1.56,4.09,0,5.66 c-1.56,1.56,-4.09,1.56,-5.66,0 c-1.56,-1.56,-1.56,-4.09,0,-5.66 c1.56,-1.56,4.09,-1.56,5.66,0 Z M254.83,79.17" fill="rgb(255,255,255)" stroke="rgb(0,0,0)" stroke-width="1" transform="matrix(0.8,0.0,0.0,-0.8,85.0,650.0)"/>
 <path d="M301,175 l-34,-23" fill="rgb(0,0,0)" stroke="rgb(0,0,0)" stroke-width="1" transform="matrix(0.8,0.0,0.0,-0.8,85.0,650.0)"/>
 <path d="M265,150 l4,0 l0,4 l-4,0 Z M265,150" fill="rgb(0,0,0)" stroke="rgb(0,0,0)" stroke-width="1" transform="matrix(0.8,0.0,0.0,-0.8,85.0,650.0)"/>
 <path d="M297,171 l8,0 l0,8 l-8,0 Z M297,171" fill="rgb(255,255,255)" stroke="rgb(0,0,0)" stroke-width="1" transform="matrix(0.8,0.0,0.0,-0.8,85.0,650.0)"/>
 <path d="M234,171 l8,0 l0,8 l-8,0 Z M234,171" fill="rgb(255,255,255)" stroke="rgb(0,0,0)" stroke-width="1" transform="matrix(0.8,0.0,0.0,-0.8,85.0,650.0)"/>
 <path d="M238,159 l-20,-19" fill="rgb(0,0,0)" stroke="rgb(0,0,0)" stroke-width="1" transform="matrix(0.8,0.0,0.0,-0.8,85.0,650.0)"/>
 <path d="M216,138 l4,0 l0,4 l-4,0 Z M216,138" fill="rgb(0,0,0)" stroke="rgb(0,0,0)" stroke-width="1" transform="matrix(0.8,0.0,0.0,-0.8,85.0,650.0)"/>
 <path d="M234,155 l8,0 l0,8 l-8,0 Z M234,155" fill="rgb(255,255,255)" stroke="rgb(0,0,0)" stroke-width="1" transform="matrix(0.8,0.0,0.0,-0.8,85.0,650.0)"/>
 <path d="M338,499 l99,-35" fill="rgb(0,0,0)" stroke="rgb(0,0,0)" stroke-width="1" transform="matrix(0.8,0.0,0.0,-0.8,85.0,650.0)"/>
 <path d="M435,462 l4,0 l0,4 l-4,0 Z M435,462" fill="rgb(0,0,0)" stroke="rgb(0,0,0)" stroke-width="1" transform="matrix(0.8,0.0,0.0,-0.8,85.0,650.0)"/>
 <path d="M334,495 l8,0 l0,8 l-8,0 Z M334,495" fill="rgb(255,255,255)" stroke="rgb(0,0,0)" stroke-width="1" transform="matrix(0.8,0.0,0.0,-0.8,85.0,650.0)"/>
 <path d="M459,348 l0,41" fill="rgb(0,0,0)" stroke="rgb(0,0,0)" stroke-width="1" transform="matrix(0.8,0.0,0.0,-0.8,85.0,650.0)"/>
 <path d="M457,387 l4,0 l0,4 l-4,0 Z M457,387" fill="rgb(0,0,0)" stroke="rgb(0,0,0)" stroke-width="1" transform="matrix(0.8,0.0,0.0,-0.8,85.0,650.0)"/>
 <path d="M461.83,345.17 c1.56,1.56,1.56,4.09,0,5.66 c-1.56,1.56,-4.09,1.56,-5.66,0 c-1.56,-1.56,-1.56,-4.09,0,-5.66 c1.56,-1.56,4.09,-1.56,5.66,0 Z M461.83,345.17" fill="rgb(255,255,255)" stroke="rgb(0,0,0)" stroke-width="1" transform="matrix(0.8,0.0,0.0,-0.8,85.0,650.0)"/>
 <path d="M459,344 l0,-90" fill="rgb(0,0,0)" stroke="rgb(0,0,0)" stroke-width="1" transform="matrix(0.8,0.0,0.0,-0.8,85.0,650.0)"/>
 <path d="M457,252 l4,0 l0,4 l-4,0 Z M457,252" fill="rgb(0,0,0)" stroke="rgb(0,0,0)" stroke-width="1" transform="matrix(0.8,0.0,0.0,-0.8,85.0,650.0)"/>
 <path d="M461.83,341.17 c1.56,1.56,1.56,4.09,0,5.66 c-1.56,1.56,-4.09,1.56,-5.66,0 c-1.56,-1.56,-1.56,-4.09,0,-5.66 c1.56,-1.56,4.09,-1.56,5.66,0 Z M461.83,341.17" fill="rgb(255,255,255)" stroke="rgb(0,0,0)" stroke-width="1" transform="matrix(0.8,0.0,0.0,-0.8,85.0,650.0)"/>
 <path d="M295,210 l98,0" fill="rgb(0,0,0)" stroke="rgb(0,0,0)" stroke-width="1" transform="matrix(0.8,0.0,0.0,-0.8,85.0,650.0)"/>
 <path d="M391,208 l4,0 l0,4 l-4,0 Z M391,208" fill="rgb(0,0,0)" stroke="rgb(0,0,0)" stroke-width="1" transform="matrix(0.8,0.0,0.0,-0.8,85.0,650.0)"/>
 <path d="M295,210 l-46,0" fill="rgb(0,0,0)" stroke="rgb(0,0,0)" stroke-width="1" transform="matrix(0.8,0.0,0.0,-0.8,85.0,650.0)"/>
 <path d="M247,208 l4,0 l0,4 l-4,0 Z M247,208" fill="rgb(0,0,0)" stroke="rgb(0,0,0)" stroke-width="1" transform="matrix(0.8,0.0,0.0,-0.8,85.0,650.0)"/>
 <path d="M297.83,207.17 c1.56,1.56,1.56,4.09,0,5.66 c-1.56,1.56,-4.09,1.56,-5.66,0 c-1.56,-1.56,-1.56,-4.09,0,-5.66 c1.56,-1.56,4.09,-1.56,5.66,0 Z M297.83,207.17" fill="rgb(255,255,255)" stroke="rgb(0,0,0)" stroke-width="1" transform="matrix(0.8,0.0,0.0,-0.8,85.0,650.0)"/>
 <path d="M177,232 l37,-15" fill="rgb(0,0,0)" stroke="rgb(0,0,0)" stroke-width="1" transform="matrix(0.8,0.0,0.0,-0.8,85.0,650.0)"/>
 <path d="M212,215 l4,0 l0,4 l-4,0 Z M212,215" fill="rgb(0,0,0)" stroke="rgb(0,0,0)" stroke-width="1" transform="matrix(0.8,0.0,0.0,-0.8,85.0,650.0)"/>
 <path d="M177,232 l-34,37" fill="rgb(0,0,0)" stroke="rgb(0,0,0)" stroke-width="1" transform="matrix(0.8,0.0,0.0,-0.8,85.0,650.0)"/>
 <path d="M141,267 l4,0 l0,4 l-4,0 Z M141,267" fill="rgb(0,0,0)" stroke="rgb(0,0,0)" stroke-width="1" transform="matrix(0.8,0.0,0.0,-0.8,85.0,650.0)"/>
 <path d="M173,228 l8,0 l0,8 l-8,0 Z M173,228" fill="rgb(255,255,255)" stroke="rgb(0,0,0)" stroke-width="1" transform="matrix(0.8,0.0,0.0,-0.8,85.0,650.0)"/>
 <path d="M135,337 l0,-26" fill="rgb(0,0,0)" stroke="rgb(0,0,0)" stroke-width="1" transform="matrix(0.8,0.0,0.0,-0.8,85.0,650.0)"/>
 <path d="M133,309 l4,0 l0,4 l-4,0 Z M133,309" fill="rgb(0,0,0)" stroke="rgb(0,0,0)" stroke-width="1" transform="matrix(0.8,0.0,0.0,-0.8,85.0,650.0)"/>
 <path d="M137.83,334.17 c1.56,1.56,1.56,4.09,0,5.66 c-1.56,1.56,-4.09,1.56,-5.66,0 c-1.56,-1.56,-1.56,-4.09,0,-5.66 c1.56,-1.56,4.09,-1.56,5.66,0 Z M137.83,334.17" fill="rgb(255,255,255)" stroke="rgb(0,0,0)" stroke-width="1" transform="matrix(0.8,0.0,0.0,-0.8,85.0,650.0)"/>
 <path d="M135,341 l0,103" fill="rgb(0,0,0)" stroke="rgb(0,0,0)" stroke-width="1" transform="matrix(0.8,0.0,0.0,-0.8,85.0,650.0)"/>
 <path d="M133,442 l4,0 l0,4 l-4,0 Z M133,442" fill="rgb(0,0,0)" stroke="rgb(0,0,0)" stroke-width="1" transform="matrix(0.8,0.0,0.0,-0.8,85.0,650.0)"/>
 <path d="M137.83,338.17 c1.56,1.56,1.56,4.09,0,5.66 c-1.56,1.56,-4.09,1.56,-5.66,0 c-1.56,-1.56,-1.56,-4.09,0,-5.66 c1.56,-1.56,4.09,-1.56,5.66,0 Z M137.83,338.17" fill="rgb(255,255,255)" stroke="rgb(0,0,0)" stroke-width="1" transform="matrix(0.8,0.0,0.0,-0.8,85.0,650.0)"/>
 <path d="M312,494 l-111,0" fill="rgb(0,0,0)" stroke="rgb(0,0,0)" stroke-width="1" transform="matrix(0.8,0.0,0.0,-0.8,85.0,650.0)"/>
 <path d="M199,492 l4,0 l0,4 l-4,0 Z M199,492" fill="rgb(0,0,0)" stroke="rgb(0,0,0)" stroke-width="1" transform="matrix(0.8,0.0,0.0,-0.8,85.0,650.0)"/>
 <path d="M312,494 l140,0" fill="rgb(0,0,0)" stroke="rgb(0,0,0)" stroke-width="1" transform="matrix(0.8,0.0,0.0,-0.8,85.0,650.0)"/>
 <path d="M450,492 l4,0 l0,4 l-4,0 Z M450,492" fill="rgb(0,0,0)" stroke="rgb(0,0,0)" stroke-width="1" transform="matrix(0.8,0.0,0.0,-0.8,85.0,650.0)"/>
 <path d="M314.83,491.17 c1.56,1.56,1.56,4.09,0,5.66 c-1.56,1.56,-4.09,1.56,-5.66,0 c-1.56,-1.56,-1.56,-4.09,0,-5.66 c1.56,-1.56,4.09,-1.56,5.66,0 Z M314.83,491.17" fill="rgb(255,255,255)" stroke="rgb(0,0,0)" stroke-width="1" transform="matrix(0.8,0.0,0.0,-0.8,85.0,650.0)"/>
 <path d="M538,478 l-35,0" fill="rgb(0,0,0)" stroke="rgb(0,0,0)" stroke-width="1" transform="matrix(0.8,0.0,0.0,-0.8,85.0,650.0)"/>
 <path d="M501,476 l4,0 l0,4 l-4,0 Z M501,476" fill="rgb(0,0,0)" stroke="rgb(0,0,0)" stroke-width="1" transform="matrix(0.8,0.0,0.0,-0.8,85.0,650.0)"/>
 <path d="M538,478 l17,0" fill="rgb(0,0,0)" stroke="rgb(0,0,0)" stroke-width="1" transform="matrix(0.8,0.0,0.0,-0.8,85.0,650.0)"/>
 <path d="M553,476 l4,0 l0,4 l-4,0 Z M553,476" fill="rgb(0,0,0)" stroke="rgb(0,0,0)" stroke-width="1" transform="matrix(0.8,0.0,0.0,-0.8,85.0,650.0)"/>
 <path d="M540.83,475.17 c1.56,1.56,1.56,4.09,0,5.66 c-1.56,1.56,-4.09,1.56,-5.66,0 c-1.56,-1.56,-1.56,-4.09,0,-5.66 c1.56,-1.56,4.09,-1.56,5.66,0 Z M540.83,475.17" fill="rgb(255,255,255)" stroke="rgb(0,0,0)" stroke-width="1" transform="matrix(0.8,0.0,0.0,-0.8,85.0,650.0)"/>
 <path d="M560,516 l0,-21" fill="rgb(0,0,0)" stroke="rgb(0,0,0)" stroke-width="1" transform="matrix(0.8,0.0,0.0,-0.8,85.0,650.0)"/>
 <path d="M558,493 l4,0 l0,4 l-4,0 Z M558,493" fill="rgb(0,0,0)" stroke="rgb(0,0,0)" stroke-width="1" transform="matrix(0.8,0.0,0.0,-0.8,85.0,650.0)"/>
 <path d="M560,516 l0,3" fill="rgb(0,0,0)" stroke="rgb(0,0,0)" stroke-width="1" transform="matrix(0.8,0.0,0.0,-0.8,85.0,650.0)"/>
 <path d="M558,517 l4,0 l0,4 l-4,0 Z M558,517" fill="rgb(0,0,0)" stroke="rgb(0,0,0)" stroke-width="1" transform="matrix(0.8,0.0,0.0,-0.8,85.0,650.0)"/>
 <path d="M556,512 l8,0 l0,8 l-8,0 Z M556,512" fill="rgb(255,255,255)" stroke="rgb(0,0,0)" stroke-width="1" transform="matrix(0.8,0.0,0.0,-0.8,85.0,650.0)"/>
 <path d="M560,526 l0,-3" fill="rgb(0,0,0)" stroke="rgb(0,0,0)" stroke-width="1" transform="matrix(0.8,0.0,0.0,-0.8,85.0,650.0)"/>
 <path d="M558,521 l4,0 l0,4 l-4,0 Z M558,521" fill="rgb(0,0,0)" stroke="rgb(0,0,0)" stroke-width="1" transform="matrix(0.8,0.0,0.0,-0.8,85.0,650.0)"/>
 <path d="M560,526 l-92,9" fill="rgb(0,0,0)" stroke="rgb(0,0,0)" stroke-width="1" transform="matrix(0.8,0.0,0.0,-0.8,85.0,650.0)"/>
 <path d="M466,533 l4,0 l0,4 l-4,0 Z M466,533" fill="rgb(0,0,0)" stroke="rgb(0,0,0)" stroke-width="1" transform="matrix(0.8,0.0,0.0,-0.8,85.0,650.0)"/>
 <path d="M556,522 l8,0 l0,8 l-8,0 Z M556,522" fill="rgb(255,255,255)" stroke="rgb(0,0,0)" stroke-width="1" transform="matrix(0.8,0.0,0.0,-0.8,85.0,650.0)"/>
 <path d="M314,541 l84,0" fill="rgb(0,0,0)" stroke="rgb(0,0,0)" stroke-width="1" transform="matrix(0.8,0.0,0.0,-0.8,85.0,650.0)"/>
 <path d="M396,539 l4,0 l0,4 l-4,0 Z M396,539" fill="rgb(0,0,0)" stroke="rgb(0,0,0)" stroke-width="1" transform="matrix(0.8,0.0,0.0,-0.8,85.0,650.0)"/>
 <path d="M314,541 l-141,0" fill="rgb(0,0,0)" stroke="rgb(0,0,0)" stroke-width="1" transform="matrix(0.8,0.0,0.0,-0.8,85.0,650.0)"/>
 <path d="M171,539 l4,0 l0,4 l-4,0 Z M171,539" fill="rgb(0,0,0)" stroke="rgb(0,0,0)" stroke-width="1" transform="matrix(0.8,0.0,0.0,-0.8,85.0,650.0)"/>
 <path d="M316.83,538.17 c1.56,1.56,1.56,4.09,0,5.66 c-1.56,1.56,-4.09,1.56,-5.66,0 c-1.56,-1.56,-1.56,-4.09,0,-5.66 c1.56,-1.56,4.09,-1.56,5.66,0 Z M316.83,538.17" fill="rgb(255,255,255)" stroke="rgb(0,0,0)" stroke-width="1" transform="matrix(0.8,0.0,0.0,-0.8,85.0,650.0)"/>
 <path d="M85,352 l0,114" fill="rgb(0,0,0)" stroke="rgb(0,0,0)" stroke-width="1" transform="matrix(0.8,0.0,0.0,-0.8,85.0,650.0)"/>
 <path d="M83,464 l4,0 l0,4 l-4,0 Z M83,464" fill="rgb(0,0,0)" stroke="rgb(0,0,0)" stroke-width="1" transform="matrix(0.8,0.0,0.0,-0.8,85.0,650.0)"/>
 <path d="M87.83,349.17 c1.56,1.56,1.56,4.09,0,5.66 c-1.56,1.56,-4.09,1.56,-5.66,0 c-1.56,-1.56,-1.56,-4.09,0,-5.66 c1.56,-1.56,4.09,-1.56,5.66,0 Z M87.83,349.17" fill="rgb(255,255,255)" stroke="rgb(0,0,0)" stroke-width="1" transform="matrix(0.8,0.0,0.0,-0.8,85.0,650.0)"/>
 <path d="M85,348 l0,-119" fill="rgb(0,0,0)" stroke="rgb(0,0,0)" stroke-width="1" transform="matrix(0.8,0.0,0.0,-0.8,85.0,650.0)"/>
 <path d="M83,227 l4,0 l0,4 l-4,0 Z M83,227" fill="rgb(0,0,0)" stroke="rgb(0,0,0)" stroke-width="1" transform="matrix(0.8,0.0,0.0,-0.8,85.0,650.0)"/>
 <path d="M87.83,345.17 c1.56,1.56,1.56,4.09,0,5.66 c-1.56,1.56,-4.09,1.56,-5.66,0 c-1.56,-1.56,-1.56,-4.09,0,-5.66 c1.56,-1.56,4.09,-1.56,5.66,0 Z M87.83,345.17" fill="rgb(255,255,255)" stroke="rgb(0,0,0)" stroke-width="1" transform="matrix(0.8,0.0,0.0,-0.8,85.0,650.0)"/>
 <path d="M297,161 l-128,-2" fill="rgb(0,0,0)" stroke="rgb(0,0,0)" stroke-width="1" transform="matrix(0.8,0.0,0.0,-0.8,85.0,650.0)"/>
 <path d="M167,157 l4,0 l0,4 l-4,0 Z M167,157" fill="rgb(0,0,0)" stroke="rgb(0,0,0)" stroke-width="1" transform="matrix(0.8,0.0,0.0,-0.8,85.0,650.0)"/>
 <path d="M297,161 l120,0" fill="rgb(0,0,0)" stroke="rgb(0,0,0)" stroke-width="1" transform="matrix(0.8,0.0,0.0,-0.8,85.0,650.0)"/>
 <path d="M415,159 l4,0 l0,4 l-4,0 Z M415,159" fill="rgb(0,0,0)" stroke="rgb(0,0,0)" stroke-width="1" transform="matrix(0.8,0.0,0.0,-0.8,85.0,650.0)"/>
 <path d="M299.83,158.17 c1.56,1.56,1.56,4.09,0,5.66 c-1.56,1.56,-4.09,1.56,-5.66,0 c-1.56,-1.56,-1.56,-4.09,0,-5.66 c1.56,-1.56,4.09,-1.56,5.66,0 Z M299.83,158.17" fill="rgb(255,255,255)" stroke="rgb(0,0,0)" stroke-width="1" transform="matrix(0.8,0.0,0.0,-0.8,85.0,650.0)"/>
 <path d="M509,338 l0,-107" fill="rgb(0,0,0)" stroke="rgb(0,0,0)" stroke-width="1" transform="matrix(0.8,0.0,0.0,-0.8,85.0,650.0)"/>
 <path d="M507,229 l4,0 l0,4 l-4,0 Z M507,229" fill="rgb(0,0,0)" stroke="rgb(0,0,0)" stroke-width="1" transform="matrix(0.8,0.0,0.0,-0.8,85.0,650.0)"/>
 <path d="M511.83,335.17 c1.56,1.56,1.56,4.09,0,5.66 c-1.56,1.56,-4.09,1.56,-5.66,0 c-1.56,-1.56,-1.56,-4.09,0,-5.66 c1.56,-1.56,4.09,-1.56,5.66,0 Z M511.83,335.17" fill="rgb(255,255,255)" stroke="rgb(0,0,0)" stroke-width="1" transform="matrix(0.8,0.0,0.0,-0.8,85.0,650.0)"/>
 <path d="M509,342 l0,69" fill="rgb(0,0,0)" stroke="rgb(0,0,0)" stroke-width="1" transform="matrix(0.8,0.0,0.0,-0.8,85.0,650.0)"/>
 <path d="M507,409 l4,0 l0,4 l-4,0 Z M507,409" fill="rgb(0,0,0)" stroke="rgb(0,0,0)" stroke-width="1" transform="matrix(0.8,0.0,0.0,-0.8,85.0,650.0)"/>
 <path d="M511.83,339.17 c1.56,1.56,1.56,4.09,0,5.66 c-1.56,1.56,-4.09,1.56,-5.66,0 c-1.56,-1.56,-1.56,-4.09,0,-5.66 c1.56,-1.56,4.09,-1.56,5.66,0 Z M511.83,339.17" fill="rgb(255,255,255)" stroke="rgb(0,0,0)" stroke-width="1" transform="matrix(0.8,0.0,0.0,-0.8,85.0,650.0)"/>
 <path d="M432,483 l42,-24" fill="rgb(0,0,0)" stroke="rgb(0,0,0)" stroke-width="1" transform="matrix(0.8,0.0,0.0,-0.8,85.0,650.0)"/>
 <path d="M472,457 l4,0 l0,4 l-4,0 Z M472,457" fill="rgb(0,0,0)" stroke="rgb(0,0,0)" stroke-width="1" transform="matrix(0.8,0.0,0.0,-0.8,85.0,650.0)"/>
 <path d="M428,479 l8,0 l0,8 l-8,0 Z M428,479" fill="rgb(255,255,255)" stroke="rgb(0,0,0)" stroke-width="1" transform="matrix(0.8,0.0,0.0,-0.8,85.0,650.0)"/>
 <path d="M428,503 l8,0 l0,8 l-8,0 Z M428,503" fill="rgb(255,255,255)" stroke="rgb(0,0,0)" stroke-width="1" transform="matrix(0.8,0.0,0.0,-0.8,85.0,650.0)"/>
 <text text-anchor="start" transform="matrix(1,0,0,1,14,-858)">
  <tspan fill="rgb(0,0,0)" font-family="RecursiveMonoLnr-Regular" font-size="14" x="0" y="885">
   g
  </tspan>
 </text>
 <text text-anchor="start" transform="matrix(1,0,0,1,14,-858)">
  <tspan fill="rgb(0,0,0)" font-family="RecursiveMonoLnr-Regular" font-size="14" x="588.4" y="885">
   0067
  </tspan>
 </text>
 <text text-anchor="start" transform="matrix(1,0,0,1,14,0)">
  <tspan fill="rgb(0,0,0)" font-family="RecursiveMonoLnr-Regular" font-size="14" x="285.8" y="885">
   600.00
  </tspan>
 </text>
 <text text-anchor="start" transform="matrix(1,0,0,1,14,0)">
  <tspan fill="rgb(0,0,0)" font-family="RecursiveMonoLnr-Regular" font-size="14" x="0" y="885">
   60.00
  </tspan>
 </text>
 <text text-anchor="start" transform="matrix(1,0,0,1,14,0)">
  <tspan fill="rgb(0,0,0)" font-family="RecursiveMonoLnr-Regular" font-size="14" x="580" y="885">
   40.00
  </tspan>
 </text>
</svg>