<?xml version="1.0" encoding="UTF-8"?>
<svg height="375" version="1.1" width="500" xmlns="http://www.w3.org/2000/svg" xmlns:xlink="http://www.w3.org/1999/xlink">
 <path d="M0,0 l500,0 l0,375 l-500,0 Z M0,0" fill="rgb(27,28,35)" transform="matrix(1,0,0,-1,0,375)"/>
 <path d="M110,371 l0,-132 c0,-7,4,-11,11,-11 l369,0 c0,46,0,86,0,132 c0,7,-4,11,-11,11 Z M110,371" fill="rgb(83,59,230)" fill-opacity="0.3" stroke="rgb(83,59,230)" stroke-linecap="round" stroke-opacity="0.75" stroke-width="2" transform="matrix(1,0,0,-1,-100,593)"/>
 <path d="M100,374 l0,-19 c0,-103,19,-131,107,-131 l298,0 c4,21,7,44,7,63 c0,66,-17,87,-73,87 Z M100,374" fill="rgb(210,46,237)" fill-opacity="0.0" stroke="rgb(210,46,237)" stroke-linecap="round" stroke-opacity="0.0" stroke-width="2" transform="matrix(1,0,0,-1,-44.0,393.0)"/>
 <path d="M10,153 l68,212" fill="rgb(0,0,0)" fill-opacity="0.0" stroke="rgb(240,164,63)" stroke-dasharray="4" stroke-linecap="round" stroke-width="2" transform="matrix(1,0,0,-1,0,375)"/>
 <path d="M10,21 l68,325" fill="rgb(0,0,0)" fill-opacity="0.0" stroke="rgb(240,164,63)" stroke-dasharray="4" stroke-linecap="round" stroke-width="2" transform="matrix(1,0,0,-1,0,375)"/>
 <path d="M21,10 l164,205" fill="rgb(0,0,0)" fill-opacity="0.0" stroke="rgb(240,164,63)" stroke-dasharray="4" stroke-linecap="round" stroke-width="2" transform="matrix(1,0,0,-1,0,375)"/>
 <path d="M390,10 l93,205" fill="rgb(0,0,0)" fill-opacity="0.0" stroke="rgb(240,164,63)" stroke-dasharray="4" stroke-linecap="round" stroke-width="2" transform="matrix(1,0,0,-1,0,375)"/>
 <path d="M390,142 l100,136" fill="rgb(0,0,0)" fill-opacity="0.0" stroke="rgb(240,164,63)" stroke-dasharray="4" stroke-linecap="round" stroke-width="2" transform="matrix(1,0,0,-1,0,375)"/>
 <path d="M379,153 l38,212" fill="rgb(0,0,0)" fill-opacity="0.0" stroke="rgb(240,164,63)" stroke-dasharray="4" stroke-linecap="round" stroke-width="2" transform="matrix(1,0,0,-1,0,375)"/>
 <path d="M10,153 l68,212" fill="rgb(0,0,0)" fill-opacity="0.0" stroke="rgb(191,191,191)" stroke-dasharray="4" stroke-linecap="round" stroke-opacity="0.25" stroke-width="2" transform="matrix(1,0,0,-1,0,375)"/>
 <path d="M10,153 l68,212" fill="rgb(0,0,0)" fill-opacity="0.0" stroke="rgb(191,191,191)" stroke-dasharray="4" stroke-linecap="round" stroke-opacity="0.25" stroke-width="2" transform="matrix(1,0,0,-1,0,375)"/>
 <path d="M10,21 l68,325" fill="rgb(0,0,0)" fill-opacity="0.0" stroke="rgb(191,191,191)" stroke-dasharray="4" stroke-linecap="round" stroke-opacity="0.25" stroke-width="2" transform="matrix(1,0,0,-1,0,375)"/>
 <path d="M10,14 l68,229" fill="rgb(0,0,0)" fill-opacity="0.0" stroke="rgb(191,191,191)" stroke-dasharray="4" stroke-linecap="round" stroke-opacity="0.25" stroke-width="2" transform="matrix(1,0,0,-1,0,375)"/>
 <path d="M14,10 l83,205" fill="rgb(0,0,0)" fill-opacity="0.0" stroke="rgb(191,191,191)" stroke-dasharray="4" stroke-linecap="round" stroke-opacity="0.25" stroke-width="2" transform="matrix(1,0,0,-1,0,375)"/>
 <path d="M21,10 l164,205" fill="rgb(0,0,0)" fill-opacity="0.0" stroke="rgb(191,191,191)" stroke-dasharray="4" stroke-linecap="round" stroke-opacity="0.25" stroke-width="2" transform="matrix(1,0,0,-1,0,375)"/>
 <path d="M390,10 l93,205" fill="rgb(0,0,0)" fill-opacity="0.0" stroke="rgb(191,191,191)" stroke-dasharray="4" stroke-linecap="round" stroke-opacity="0.25" stroke-width="2" transform="matrix(1,0,0,-1,0,375)"/>
 <path d="M390,56 l97,180" fill="rgb(0,0,0)" fill-opacity="0.0" stroke="rgb(191,191,191)" stroke-dasharray="4" stroke-linecap="round" stroke-opacity="0.25" stroke-width="2" transform="matrix(1,0,0,-1,0,375)"/>
 <path d="M390,96 l100,163" fill="rgb(0,0,0)" fill-opacity="0.0" stroke="rgb(191,191,191)" stroke-dasharray="4" stroke-linecap="round" stroke-opacity="0.25" stroke-width="2" transform="matrix(1,0,0,-1,0,375)"/>
 <path d="M390,149 l100,195" fill="rgb(0,0,0)" fill-opacity="0.0" stroke="rgb(191,191,191)" stroke-dasharray="4" stroke-linecap="round" stroke-opacity="0.25" stroke-width="2" transform="matrix(1,0,0,-1,0,375)"/>
 <path d="M386,153 l87,212" fill="rgb(0,0,0)" fill-opacity="0.0" stroke="rgb(191,191,191)" stroke-dasharray="4" stroke-linecap="round" stroke-opacity="0.25" stroke-width="2" transform="matrix(1,0,0,-1,0,375)"/>
 <path d="M379,153 l38,212" fill="rgb(0,0,0)" fill-opacity="0.0" stroke="rgb(191,191,191)" stroke-dasharray="4" stroke-linecap="round" stroke-opacity="0.25" stroke-width="2" transform="matrix(1,0,0,-1,0,375)"/>
 <path d="M110,371 l0,-132 c0,-7,4,-11,11,-11 l369,0 c0,46,0,86,0,132 c0,7,-4,11,-11,11 Z M110,371" fill="rgb(83,59,230)" fill-opacity="0.0" stroke="rgb(83,59,230)" stroke-dasharray="0" stroke-linecap="round" stroke-opacity="0.0" stroke-width="2" transform="matrix(1,0,0,-1,-100,593)"/>
 <path d="M110,371 l0,0" fill="rgb(255,255,255)" fill-opacity="0.5" stroke="rgb(255,255,255)" stroke-dasharray="0" stroke-linecap="round" stroke-width="2" transform="matrix(1,0,0,-1,-100,593)"/>
 <path d="M110,371 l0,0" fill="rgb(255,255,255)" fill-opacity="0.5" stroke="rgb(255,255,255)" stroke-dasharray="0" stroke-linecap="round" stroke-width="2" transform="matrix(1,0,0,-1,-100,593)"/>
 <path d="M112.83,368.17 c1.56,1.56,1.56,4.09,0,5.66 c-1.56,1.56,-4.09,1.56,-5.66,0 c-1.56,-1.56,-1.56,-4.09,0,-5.66 c1.56,-1.56,4.09,-1.56,5.66,0 Z M112.83,368.17" fill="rgb(240,164,63)" stroke="rgb(255,255,255)" stroke-dasharray="0" stroke-linecap="round" stroke-width="2" transform="matrix(1,0,0,-1,-100,593)"/>
 <path d="M111.06,230.94 c0.59,0.59,0.59,1.54,0,2.12 c-0.59,0.59,-1.54,0.59,-2.12,0 c-0.59,-0.59,-0.59,-1.54,0,-2.12 c0.59,-0.59,1.54,-0.59,2.12,0 Z M111.06,230.94" fill="rgb(255,255,255)" fill-opacity="0.5" stroke="rgb(255,255,255)" stroke-dasharray="0" stroke-linecap="round" stroke-width="3" transform="matrix(1,0,0,-1,-100,593)"/>
 <path d="M110,239 l0,0" fill="rgb(255,255,255)" fill-opacity="0.5" stroke="rgb(255,255,255)" stroke-dasharray="0" stroke-linecap="round" stroke-width="2" transform="matrix(1,0,0,-1,-100,593)"/>
 <path d="M110,239 l0,-7" fill="rgb(255,255,255)" fill-opacity="0.5" stroke="rgb(255,255,255)" stroke-dasharray="0" stroke-linecap="round" stroke-width="2" transform="matrix(1,0,0,-1,-100,593)"/>
 <path d="M112.83,236.17 c1.56,1.56,1.56,4.09,0,5.66 c-1.56,1.56,-4.09,1.56,-5.66,0 c-1.56,-1.56,-1.56,-4.09,0,-5.66 c1.56,-1.56,4.09,-1.56,5.66,0 Z M112.83,236.17" fill="rgb(240,164,63)" stroke="rgb(255,255,255)" stroke-dasharray="0" stroke-linecap="round" stroke-width="2" transform="matrix(1,0,0,-1,-100,593)"/>
 <path d="M115.06,226.94 c0.59,0.59,0.59,1.54,0,2.12 c-0.59,0.59,-1.54,0.59,-2.12,0 c-0.59,-0.59,-0.59,-1.54,0,-2.12 c0.59,-0.59,1.54,-0.59,2.12,0 Z M115.06,226.94" fill="rgb(255,255,255)" fill-opacity="0.5" stroke="rgb(255,255,255)" stroke-dasharray="0" stroke-linecap="round" stroke-width="3" transform="matrix(1,0,0,-1,-100,593)"/>
 <path d="M121,228 l-7,0" fill="rgb(255,255,255)" fill-opacity="0.5" stroke="rgb(255,255,255)" stroke-dasharray="0" stroke-linecap="round" stroke-width="2" transform="matrix(1,0,0,-1,-100,593)"/>
 <path d="M121,228 l0,0" fill="rgb(255,255,255)" fill-opacity="0.5" stroke="rgb(255,255,255)" stroke-dasharray="0" stroke-linecap="round" stroke-width="2" transform="matrix(1,0,0,-1,-100,593)"/>
 <path d="M123.83,225.17 c1.56,1.56,1.56,4.09,0,5.66 c-1.56,1.56,-4.09,1.56,-5.66,0 c-1.56,-1.56,-1.56,-4.09,0,-5.66 c1.56,-1.56,4.09,-1.56,5.66,0 Z M123.83,225.17" fill="rgb(240,164,63)" stroke="rgb(255,255,255)" stroke-dasharray="0" stroke-linecap="round" stroke-width="2" transform="matrix(1,0,0,-1,-100,593)"/>
 <path d="M491.06,272.94 c0.59,0.59,0.59,1.54,0,2.12 c-0.59,0.59,-1.54,0.59,-2.12,0 c-0.59,-0.59,-0.59,-1.54,0,-2.12 c0.59,-0.59,1.54,-0.59,2.12,0 Z M491.06,272.94" fill="rgb(255,255,255)" fill-opacity="0.5" stroke="rgb(255,255,255)" stroke-dasharray="0" stroke-linecap="round" stroke-width="3" transform="matrix(1,0,0,-1,-100,593)"/>
 <path d="M490,228 l0,0" fill="rgb(255,255,255)" fill-opacity="0.5" stroke="rgb(255,255,255)" stroke-dasharray="0" stroke-linecap="round" stroke-width="2" transform="matrix(1,0,0,-1,-100,593)"/>
 <path d="M490,228 l0,46" fill="rgb(255,255,255)" fill-opacity="0.5" stroke="rgb(255,255,255)" stroke-dasharray="0" stroke-linecap="round" stroke-width="2" transform="matrix(1,0,0,-1,-100,593)"/>
 <path d="M492.83,225.17 c1.56,1.56,1.56,4.09,0,5.66 c-1.56,1.56,-4.09,1.56,-5.66,0 c-1.56,-1.56,-1.56,-4.09,0,-5.66 c1.56,-1.56,4.09,-1.56,5.66,0 Z M492.83,225.17" fill="rgb(240,164,63)" stroke="rgb(255,255,255)" stroke-dasharray="0" stroke-linecap="round" stroke-width="2" transform="matrix(1,0,0,-1,-100,593)"/>
 <path d="M491.06,312.94 c0.59,0.59,0.59,1.54,0,2.12 c-0.59,0.59,-1.54,0.59,-2.12,0 c-0.59,-0.59,-0.59,-1.54,0,-2.12 c0.59,-0.59,1.54,-0.59,2.12,0 Z M491.06,312.94" fill="rgb(255,255,255)" fill-opacity="0.5" stroke="rgb(255,255,255)" stroke-dasharray="0" stroke-linecap="round" stroke-width="3" transform="matrix(1,0,0,-1,-100,593)"/>
 <path d="M491.06,365.94 c0.59,0.59,0.59,1.54,0,2.12 c-0.59,0.59,-1.54,0.59,-2.12,0 c-0.59,-0.59,-0.59,-1.54,0,-2.12 c0.59,-0.59,1.54,-0.59,2.12,0 Z M491.06,365.94" fill="rgb(255,255,255)" fill-opacity="0.5" stroke="rgb(255,255,255)" stroke-dasharray="0" stroke-linecap="round" stroke-width="3" transform="matrix(1,0,0,-1,-100,593)"/>
 <path d="M490,360 l0,-46" fill="rgb(255,255,255)" fill-opacity="0.5" stroke="rgb(255,255,255)" stroke-dasharray="0" stroke-linecap="round" stroke-width="2" transform="matrix(1,0,0,-1,-100,593)"/>
 <path d="M490,360 l0,7" fill="rgb(255,255,255)" fill-opacity="0.5" stroke="rgb(255,255,255)" stroke-dasharray="0" stroke-linecap="round" stroke-width="2" transform="matrix(1,0,0,-1,-100,593)"/>
 <path d="M492.83,357.17 c1.56,1.56,1.56,4.09,0,5.66 c-1.56,1.56,-4.09,1.56,-5.66,0 c-1.56,-1.56,-1.56,-4.09,0,-5.66 c1.56,-1.56,4.09,-1.56,5.66,0 Z M492.83,357.17" fill="rgb(240,164,63)" stroke="rgb(255,255,255)" stroke-dasharray="0" stroke-linecap="round" stroke-width="2" transform="matrix(1,0,0,-1,-100,593)"/>
 <path d="M487.06,369.94 c0.59,0.59,0.59,1.54,0,2.12 c-0.59,0.59,-1.54,0.59,-2.12,0 c-0.59,-0.59,-0.59,-1.54,0,-2.12 c0.59,-0.59,1.54,-0.59,2.12,0 Z M487.06,369.94" fill="rgb(255,255,255)" fill-opacity="0.5" stroke="rgb(255,255,255)" stroke-dasharray="0" stroke-linecap="round" stroke-width="3" transform="matrix(1,0,0,-1,-100,593)"/>
 <path d="M479,371 l7,0" fill="rgb(255,255,255)" fill-opacity="0.5" stroke="rgb(255,255,255)" stroke-dasharray="0" stroke-linecap="round" stroke-width="2" transform="matrix(1,0,0,-1,-100,593)"/>
 <path d="M479,371 l0,0" fill="rgb(255,255,255)" fill-opacity="0.5" stroke="rgb(255,255,255)" stroke-dasharray="0" stroke-linecap="round" stroke-width="2" transform="matrix(1,0,0,-1,-100,593)"/>
 <path d="M481.83,368.17 c1.56,1.56,1.56,4.09,0,5.66 c-1.56,1.56,-4.09,1.56,-5.66,0 c-1.56,-1.56,-1.56,-4.09,0,-5.66 c1.56,-1.56,4.09,-1.56,5.66,0 Z M481.83,368.17" fill="rgb(240,164,63)" stroke="rgb(255,255,255)" stroke-dasharray="0" stroke-linecap="round" stroke-width="2" transform="matrix(1,0,0,-1,-100,593)"/>
 <path d="M100,374 l0,-19 c0,-103,19,-131,107,-131 l298,0 c4,21,7,44,7,63 c0,66,-17,87,-73,87 Z M100,374" fill="rgb(210,46,237)" fill-opacity="0.35" stroke="rgb(210,46,237)" stroke-dasharray="0" stroke-linecap="round" stroke-width="2" transform="matrix(1,0,0,-1,-22.0,384.0)"/>
 <path d="M100,374 l0,0" fill="rgb(255,255,255)" fill-opacity="0.5" stroke="rgb(255,255,255)" stroke-dasharray="0" stroke-linecap="round" stroke-width="2" transform="matrix(1,0,0,-1,-22.0,384.0)"/>
 <path d="M100,374 l0,0" fill="rgb(255,255,255)" fill-opacity="0.5" stroke="rgb(255,255,255)" stroke-dasharray="0" stroke-linecap="round" stroke-width="2" transform="matrix(1,0,0,-1,-22.0,384.0)"/>
 <path d="M102.83,371.17 c1.56,1.56,1.56,4.09,0,5.66 c-1.56,1.56,-4.09,1.56,-5.66,0 c-1.56,-1.56,-1.56,-4.09,0,-5.66 c1.56,-1.56,4.09,-1.56,5.66,0 Z M102.83,371.17" fill="rgb(240,164,63)" stroke="rgb(255,255,255)" stroke-dasharray="0" stroke-linecap="round" stroke-width="2" transform="matrix(1,0,0,-1,-22.0,384.0)"/>
 <path d="M101.06,250.94 c0.59,0.59,0.59,1.54,0,2.12 c-0.59,0.59,-1.54,0.59,-2.12,0 c-0.59,-0.59,-0.59,-1.54,0,-2.12 c0.59,-0.59,1.54,-0.59,2.12,0 Z M101.06,250.94" fill="rgb(255,255,255)" fill-opacity="0.5" stroke="rgb(255,255,255)" stroke-dasharray="0" stroke-linecap="round" stroke-width="3" transform="matrix(1,0,0,-1,-22.0,384.0)"/>
 <path d="M100,355 l0,0" fill="rgb(255,255,255)" fill-opacity="0.5" stroke="rgb(255,255,255)" stroke-dasharray="0" stroke-linecap="round" stroke-width="2" transform="matrix(1,0,0,-1,-22.0,384.0)"/>
 <path d="M100,355 l0,-103" fill="rgb(255,255,255)" fill-opacity="0.5" stroke="rgb(255,255,255)" stroke-dasharray="0" stroke-linecap="round" stroke-width="2" transform="matrix(1,0,0,-1,-22.0,384.0)"/>
 <path d="M102.83,352.17 c1.56,1.56,1.56,4.09,0,5.66 c-1.56,1.56,-4.09,1.56,-5.66,0 c-1.56,-1.56,-1.56,-4.09,0,-5.66 c1.56,-1.56,4.09,-1.56,5.66,0 Z M102.83,352.17" fill="rgb(240,164,63)" stroke="rgb(255,255,255)" stroke-dasharray="0" stroke-linecap="round" stroke-width="2" transform="matrix(1,0,0,-1,-22.0,384.0)"/>
 <path d="M120.06,222.94 c0.59,0.59,0.59,1.54,0,2.12 c-0.59,0.59,-1.54,0.59,-2.12,0 c-0.59,-0.59,-0.59,-1.54,0,-2.12 c0.59,-0.59,1.54,-0.59,2.12,0 Z M120.06,222.94" fill="rgb(255,255,255)" fill-opacity="0.5" stroke="rgb(255,255,255)" stroke-dasharray="0" stroke-linecap="round" stroke-width="3" transform="matrix(1,0,0,-1,-22.0,384.0)"/>
 <path d="M207,224 l-88,0" fill="rgb(255,255,255)" fill-opacity="0.5" stroke="rgb(255,255,255)" stroke-dasharray="0" stroke-linecap="round" stroke-width="2" transform="matrix(1,0,0,-1,-22.0,384.0)"/>
 <path d="M207,224 l0,0" fill="rgb(255,255,255)" fill-opacity="0.5" stroke="rgb(255,255,255)" stroke-dasharray="0" stroke-linecap="round" stroke-width="2" transform="matrix(1,0,0,-1,-22.0,384.0)"/>
 <path d="M209.83,221.17 c1.56,1.56,1.56,4.09,0,5.66 c-1.56,1.56,-4.09,1.56,-5.66,0 c-1.56,-1.56,-1.56,-4.09,0,-5.66 c1.56,-1.56,4.09,-1.56,5.66,0 Z M209.83,221.17" fill="rgb(240,164,63)" stroke="rgb(255,255,255)" stroke-dasharray="0" stroke-linecap="round" stroke-width="2" transform="matrix(1,0,0,-1,-22.0,384.0)"/>
 <path d="M510.06,243.94 c0.59,0.59,0.59,1.54,0,2.12 c-0.59,0.59,-1.54,0.59,-2.12,0 c-0.59,-0.59,-0.59,-1.54,0,-2.12 c0.59,-0.59,1.54,-0.59,2.12,0 Z M510.06,243.94" fill="rgb(255,255,255)" fill-opacity="0.5" stroke="rgb(255,255,255)" stroke-dasharray="0" stroke-linecap="round" stroke-width="3" transform="matrix(1,0,0,-1,-22.0,384.0)"/>
 <path d="M505,224 l0,0" fill="rgb(255,255,255)" fill-opacity="0.5" stroke="rgb(255,255,255)" stroke-dasharray="0" stroke-linecap="round" stroke-width="2" transform="matrix(1,0,0,-1,-22.0,384.0)"/>
 <path d="M505,224 l4,21" fill="rgb(255,255,255)" fill-opacity="0.5" stroke="rgb(255,255,255)" stroke-dasharray="0" stroke-linecap="round" stroke-width="2" transform="matrix(1,0,0,-1,-22.0,384.0)"/>
 <path d="M507.83,221.17 c1.56,1.56,1.56,4.09,0,5.66 c-1.56,1.56,-4.09,1.56,-5.66,0 c-1.56,-1.56,-1.56,-4.09,0,-5.66 c1.56,-1.56,4.09,-1.56,5.66,0 Z M507.83,221.17" fill="rgb(240,164,63)" stroke="rgb(255,255,255)" stroke-dasharray="0" stroke-linecap="round" stroke-width="2" transform="matrix(1,0,0,-1,-22.0,384.0)"/>
 <path d="M513.06,266.94 c0.59,0.59,0.59,1.54,0,2.12 c-0.59,0.59,-1.54,0.59,-2.12,0 c-0.59,-0.59,-0.59,-1.54,0,-2.12 c0.59,-0.59,1.54,-0.59,2.12,0 Z M513.06,266.94" fill="rgb(255,255,255)" fill-opacity="0.5" stroke="rgb(255,255,255)" stroke-dasharray="0" stroke-linecap="round" stroke-width="3" transform="matrix(1,0,0,-1,-22.0,384.0)"/>
 <path d="M513.06,351.94 c0.59,0.59,0.59,1.54,0,2.12 c-0.59,0.59,-1.54,0.59,-2.12,0 c-0.59,-0.59,-0.59,-1.54,0,-2.12 c0.59,-0.59,1.54,-0.59,2.12,0 Z M513.06,351.94" fill="rgb(255,255,255)" fill-opacity="0.5" stroke="rgb(255,255,255)" stroke-dasharray="0" stroke-linecap="round" stroke-width="3" transform="matrix(1,0,0,-1,-22.0,384.0)"/>
 <path d="M512,287 l0,-19" fill="rgb(255,255,255)" fill-opacity="0.5" stroke="rgb(255,255,255)" stroke-dasharray="0" stroke-linecap="round" stroke-width="2" transform="matrix(1,0,0,-1,-22.0,384.0)"/>
 <path d="M512,287 l0,66" fill="rgb(255,255,255)" fill-opacity="0.5" stroke="rgb(255,255,255)" stroke-dasharray="0" stroke-linecap="round" stroke-width="2" transform="matrix(1,0,0,-1,-22.0,384.0)"/>
 <path d="M514.83,284.17 c1.56,1.56,1.56,4.09,0,5.66 c-1.56,1.56,-4.09,1.56,-5.66,0 c-1.56,-1.56,-1.56,-4.09,0,-5.66 c1.56,-1.56,4.09,-1.56,5.66,0 Z M514.83,284.17" fill="rgb(240,164,63)" stroke="rgb(255,255,255)" stroke-dasharray="0" stroke-linecap="round" stroke-width="2" transform="matrix(1,0,0,-1,-22.0,384.0)"/>
 <path d="M496.06,372.94 c0.59,0.59,0.59,1.54,0,2.12 c-0.59,0.59,-1.54,0.59,-2.12,0 c-0.59,-0.59,-0.59,-1.54,0,-2.12 c0.59,-0.59,1.54,-0.59,2.12,0 Z M496.06,372.94" fill="rgb(255,255,255)" fill-opacity="0.5" stroke="rgb(255,255,255)" stroke-dasharray="0" stroke-linecap="round" stroke-width="3" transform="matrix(1,0,0,-1,-22.0,384.0)"/>
 <path d="M439,374 l56,0" fill="rgb(255,255,255)" fill-opacity="0.5" stroke="rgb(255,255,255)" stroke-dasharray="0" stroke-linecap="round" stroke-width="2" transform="matrix(1,0,0,-1,-22.0,384.0)"/>
 <path d="M439,374 l0,0" fill="rgb(255,255,255)" fill-opacity="0.5" stroke="rgb(255,255,255)" stroke-dasharray="0" stroke-linecap="round" stroke-width="2" transform="matrix(1,0,0,-1,-22.0,384.0)"/>
 <path d="M441.83,371.17 c1.56,1.56,1.56,4.09,0,5.66 c-1.56,1.56,-4.09,1.56,-5.66,0 c-1.56,-1.56,-1.56,-4.09,0,-5.66 c1.56,-1.56,4.09,-1.56,5.66,0 Z M441.83,371.17" fill="rgb(240,164,63)" stroke="rgb(255,255,255)" stroke-dasharray="0" stroke-linecap="round" stroke-width="2" transform="matrix(1,0,0,-1,-22.0,384.0)"/>
</svg>